<svg id="svg" version="1.1" xmlns="http://www.w3.org/2000/svg" xmlns:xlink="http://www.w3.org/1999/xlink" width="400" height="600" viewBox="0, 0, 400,600"><g id="svgg"><path id="path0" d="M144.480 119.280 C 144.216 119.544,144.011 120.129,144.025 120.580 C 144.050 121.361,144.068 121.358,144.408 120.512 C 144.747 119.670,145.270 119.433,147.600 119.066 C 148.150 118.980,147.781 118.884,146.780 118.854 C 145.779 118.825,144.744 119.016,144.480 119.280 M278.293 119.176 C 280.384 119.517,280.483 119.616,280.824 121.707 L 281.100 123.400 281.150 121.729 C 281.215 119.552,280.448 118.785,278.271 118.850 L 276.600 118.900 278.293 119.176 M143.692 134.297 L 143.600 143.593 121.700 143.700 L 99.800 143.807 121.713 143.903 C 139.152 143.980,143.665 143.896,143.820 143.491 C 143.928 143.211,143.964 138.936,143.900 133.991 L 143.784 125.000 143.692 134.297 M292.128 143.900 C 298.249 143.962,308.149 143.962,314.128 143.900 C 320.108 143.837,315.100 143.787,303.000 143.787 C 290.900 143.787,286.008 143.838,292.128 143.900 M94.267 144.267 C 94.120 144.413,94.011 144.998,94.025 145.567 C 94.050 146.590,94.054 146.592,94.416 145.691 C 94.617 145.190,95.190 144.617,95.691 144.416 C 96.592 144.054,96.590 144.050,95.567 144.025 C 94.998 144.011,94.413 144.120,94.267 144.267 M329.488 144.408 C 330.330 144.747,330.567 145.270,330.934 147.600 C 331.020 148.150,331.116 147.781,331.146 146.780 C 331.205 144.800,330.695 143.986,329.420 144.025 C 328.639 144.050,328.642 144.068,329.488 144.408 M93.773 159.400 C 93.773 164.680,93.830 166.785,93.899 164.077 C 93.968 161.369,93.968 157.049,93.899 154.477 C 93.829 151.905,93.772 154.120,93.773 159.400 M69.429 169.429 C 69.036 169.821,68.819 170.686,68.850 171.729 L 68.900 173.400 69.176 171.707 C 69.517 169.616,69.616 169.517,71.707 169.176 L 73.400 168.900 71.729 168.850 C 70.686 168.819,69.821 169.036,69.429 169.429 M352.400 169.066 C 354.730 169.433,355.253 169.670,355.592 170.512 C 355.932 171.358,355.950 171.361,355.975 170.580 C 356.014 169.305,355.200 168.795,353.220 168.854 C 352.219 168.884,351.850 168.980,352.400 169.066 M356.189 184.600 L 356.200 193.800 365.500 193.811 L 374.800 193.823 365.608 193.704 L 356.415 193.585 356.296 184.493 L 356.178 175.400 356.189 184.600 M54.723 193.899 C 57.431 193.968,61.751 193.968,64.323 193.899 C 66.895 193.829,64.680 193.772,59.400 193.773 C 54.120 193.773,52.015 193.830,54.723 193.899 M44.267 194.267 C 44.120 194.413,44.011 194.998,44.025 195.567 C 44.050 196.590,44.054 196.592,44.416 195.691 C 44.617 195.190,45.190 194.617,45.691 194.416 C 46.592 194.054,46.590 194.050,45.567 194.025 C 44.998 194.011,44.413 194.120,44.267 194.267 M379.488 194.408 C 380.330 194.747,380.567 195.270,380.934 197.600 C 381.020 198.150,381.116 197.781,381.146 196.780 C 381.205 194.800,380.695 193.986,379.420 194.025 C 378.639 194.050,378.642 194.068,379.488 194.408 M43.791 234.400 C 43.791 253.430,43.840 261.215,43.900 251.700 C 43.960 242.185,43.960 226.615,43.900 217.100 C 43.840 207.585,43.791 215.370,43.791 234.400 M19.429 269.429 C 19.036 269.821,18.819 270.686,18.850 271.729 L 18.900 273.400 19.176 271.707 C 19.517 269.616,19.616 269.517,21.707 269.176 L 23.400 268.900 21.729 268.850 C 20.686 268.819,19.821 269.036,19.429 269.429 M380.870 302.824 C 380.796 304.326,380.197 305.366,379.200 305.722 C 378.795 305.867,378.876 305.947,379.451 305.968 C 380.723 306.016,381.268 305.074,381.094 303.130 C 380.952 301.541,380.934 301.516,380.870 302.824 M356.184 306.500 C 356.079 306.775,356.041 322.300,356.099 341.000 L 356.205 375.000 356.302 340.707 L 356.400 306.415 365.700 306.300 L 375.000 306.185 365.687 306.092 C 358.537 306.021,356.331 306.116,356.184 306.500 M18.850 328.271 C 18.785 330.448,19.552 331.215,21.729 331.150 L 23.400 331.100 21.707 330.824 C 19.616 330.483,19.517 330.384,19.176 328.293 L 18.900 326.600 18.850 328.271 M43.787 353.000 C 43.787 365.100,43.837 370.108,43.900 364.128 C 43.962 358.149,43.962 348.249,43.900 342.128 C 43.838 336.008,43.787 340.900,43.787 353.000 M130.041 354.614 L 128.800 356.028 128.800 362.623 C 128.800 369.064,128.827 369.278,129.975 371.809 L 131.150 374.400 137.538 374.400 L 143.925 374.400 145.163 371.428 C 146.363 368.544,146.400 368.273,146.400 362.306 L 146.400 356.156 145.046 354.678 L 143.692 353.200 137.487 353.200 L 131.283 353.200 130.041 354.614 M303.791 378.124 C 300.524 380.360,300.624 380.064,300.400 388.191 C 300.091 399.410,299.091 400.400,288.061 400.400 C 282.534 400.400,281.207 400.524,279.087 401.238 C 274.561 402.763,271.077 403.200,263.433 403.200 L 256.137 403.200 253.968 404.714 L 251.800 406.228 251.689 412.355 C 251.565 419.233,252.145 421.404,254.796 423.996 L 256.050 425.222 280.816 425.111 L 305.581 425.000 305.816 426.800 C 305.945 427.790,306.109 428.870,306.179 429.200 C 306.250 429.530,306.328 424.561,306.354 418.158 L 306.400 406.516 318.196 406.310 C 326.802 406.160,330.155 405.969,330.596 405.603 C 331.110 405.176,331.200 403.299,331.200 392.947 L 331.200 380.793 330.069 379.609 C 328.141 377.591,325.453 377.111,315.000 376.919 L 305.800 376.749 303.791 378.124 M355.646 379.276 C 355.587 380.149,354.973 380.510,353.000 380.836 L 351.400 381.100 353.251 381.150 C 355.257 381.204,356.198 380.548,355.879 379.319 C 355.717 378.692,355.687 378.686,355.646 379.276 M44.012 379.851 C 43.993 380.563,45.091 381.284,45.881 381.079 C 46.457 380.930,46.426 380.884,45.720 380.846 C 45.236 380.821,44.656 380.485,44.432 380.100 C 44.208 379.715,44.019 379.603,44.012 379.851 M68.846 404.220 C 68.798 405.077,69.477 406.000,70.156 406.000 C 70.375 406.000,70.264 405.775,69.910 405.500 C 69.557 405.225,69.183 404.640,69.080 404.200 C 68.897 403.417,68.892 403.418,68.846 404.220 M84.500 406.296 L 93.600 406.415 93.600 424.949 L 93.600 443.484 81.804 443.690 C 73.198 443.840,69.845 444.031,69.404 444.397 C 68.489 445.156,68.489 504.844,69.404 505.603 C 69.844 505.969,73.186 506.160,81.747 506.309 L 93.486 506.514 93.691 518.253 C 93.840 526.814,94.031 530.156,94.397 530.596 C 94.823 531.110,96.679 531.200,106.849 531.200 L 118.800 531.200 118.800 543.151 C 118.800 553.778,118.873 555.163,119.461 555.651 C 120.012 556.108,128.362 556.220,169.461 556.320 L 218.800 556.441 218.800 568.192 C 218.800 578.341,218.886 580.029,219.429 580.571 C 220.367 581.510,304.825 581.534,305.603 580.596 C 305.969 580.156,306.160 576.814,306.309 568.253 L 306.514 556.514 318.253 556.309 C 326.814 556.160,330.156 555.969,330.596 555.603 C 331.824 554.585,331.406 522.482,330.171 522.956 C 329.886 523.065,329.564 522.940,329.457 522.678 C 329.351 522.415,329.249 522.380,329.232 522.600 C 329.212 522.860,325.165 522.958,317.698 522.880 L 306.196 522.761 305.487 523.961 C 305.097 524.621,303.793 526.362,302.589 527.831 L 300.400 530.502 300.391 537.551 C 300.382 545.339,299.996 547.001,297.796 548.732 C 295.645 550.423,295.119 550.447,261.571 550.321 L 229.341 550.200 227.706 549.118 C 225.026 547.344,224.400 545.060,224.400 537.047 C 224.400 529.709,224.638 530.319,220.894 528.067 L 218.788 526.800 212.294 526.795 C 205.165 526.790,200.657 525.981,195.850 523.845 L 193.500 522.800 174.776 522.800 C 161.915 522.800,155.700 522.940,154.926 523.247 C 147.688 526.122,131.987 527.024,128.005 524.795 C 124.754 522.975,124.235 521.454,124.000 513.057 L 123.800 505.915 121.400 504.657 L 119.000 503.400 109.782 503.200 C 96.175 502.905,97.136 504.179,96.695 485.835 C 96.248 467.235,96.442 450.076,97.114 448.900 C 98.340 446.753,99.024 446.616,109.582 446.390 L 119.400 446.180 121.700 445.007 L 124.000 443.833 124.000 437.405 L 124.000 430.977 121.500 428.509 L 119.000 426.040 106.700 425.920 C 98.727 425.842,94.368 425.941,94.310 426.200 C 94.261 426.420,94.126 422.010,94.010 416.400 L 93.800 406.200 84.600 406.189 L 75.400 406.178 84.500 406.296 M203.400 429.694 L 201.000 431.000 200.890 437.445 L 200.781 443.891 203.645 445.396 L 206.509 446.901 214.155 446.697 C 218.650 446.577,222.336 446.293,223.100 446.007 L 224.400 445.522 224.400 437.938 L 224.400 430.355 222.500 429.478 C 220.795 428.690,219.842 428.589,213.200 428.494 L 205.800 428.389 203.400 429.694 M229.180 451.500 C 228.262 453.342,228.128 468.705,229.014 470.453 C 230.436 473.260,230.252 473.200,237.506 473.200 L 244.088 473.200 246.483 471.923 C 249.528 470.300,249.600 470.082,249.600 462.452 C 249.600 451.926,247.970 450.400,236.729 450.400 L 229.728 450.400 229.180 451.500 M328.293 469.176 C 330.384 469.517,330.483 469.616,330.824 471.707 L 331.100 473.400 331.150 471.729 C 331.215 469.552,330.448 468.785,328.271 468.850 L 326.600 468.900 328.293 469.176 M204.681 479.917 L 203.200 481.434 203.200 487.533 C 203.200 497.607,203.880 498.400,212.513 498.400 L 218.625 498.400 220.913 496.088 L 223.200 493.777 223.200 487.350 C 223.200 480.291,223.244 480.428,220.520 479.048 C 219.495 478.529,217.936 478.400,212.701 478.400 L 206.162 478.400 204.681 479.917 " stroke="none" fill="#0d1a20" fill-rule="evenodd"></path><path id="path1" d="M155.057 153.159 C 152.640 154.752,152.406 155.579,152.403 162.497 L 152.400 168.795 150.700 170.038 C 146.623 173.018,145.415 173.321,136.400 173.615 C 127.809 173.895,124.415 174.561,119.916 176.846 C 118.644 177.492,117.508 177.600,111.954 177.600 L 105.476 177.600 103.938 179.217 L 102.400 180.834 102.400 187.384 C 102.400 199.607,99.618 202.400,87.442 202.400 L 80.834 202.400 79.217 203.938 L 77.600 205.476 77.600 237.038 L 77.599 268.600 76.450 271.000 C 73.912 276.300,71.091 277.591,62.038 277.596 L 55.476 277.600 53.938 279.217 L 52.400 280.834 52.400 299.986 L 52.400 319.138 54.072 320.569 L 55.744 322.000 63.090 322.000 C 72.926 322.000,72.400 322.484,72.400 313.433 C 72.400 305.594,72.925 303.604,75.696 300.931 C 78.789 297.947,79.247 297.824,88.087 297.600 C 98.245 297.342,97.342 298.245,97.600 288.087 C 97.824 279.247,97.947 278.789,100.931 275.696 C 103.637 272.891,105.556 272.400,113.815 272.400 C 123.037 272.400,122.400 273.037,122.400 263.815 C 122.400 250.659,125.220 247.625,137.467 247.609 C 149.574 247.592,152.400 250.410,152.400 262.500 L 152.400 269.050 151.300 270.104 C 148.637 272.653,147.139 272.964,136.200 273.237 C 122.372 273.582,123.603 272.433,123.312 285.261 L 123.107 294.322 121.140 296.261 L 119.172 298.200 109.599 298.400 C 97.375 298.655,98.655 297.375,98.400 309.599 L 98.200 319.172 96.262 321.138 L 94.324 323.105 85.662 323.275 C 73.624 323.511,74.308 322.800,73.984 335.400 C 73.766 343.863,73.699 344.438,72.232 350.400 L 70.707 356.600 70.887 365.800 C 71.155 379.409,70.582 378.848,84.476 379.120 L 93.951 379.305 94.947 380.353 L 95.943 381.400 96.071 391.000 C 96.253 404.556,95.409 403.719,109.181 404.000 C 118.159 404.183,119.120 404.270,120.400 405.022 L 121.800 405.844 121.909 412.422 L 122.018 419.000 126.502 423.500 L 130.987 428.000 162.443 428.000 L 193.899 428.000 195.650 427.027 C 202.408 423.268,217.918 422.120,222.248 425.058 L 223.776 426.095 227.188 424.284 L 230.600 422.472 238.200 422.302 C 247.299 422.099,247.536 422.036,246.412 420.130 C 245.685 418.899,245.600 418.067,245.600 412.220 L 245.600 405.687 247.422 403.660 C 248.606 402.344,250.237 401.137,252.076 400.217 L 254.907 398.800 261.552 398.800 C 268.976 398.800,271.659 398.204,276.600 395.456 L 279.000 394.121 279.200 374.360 C 279.383 356.240,279.462 354.459,280.143 352.900 L 280.887 351.200 287.670 351.200 L 294.452 351.200 296.626 353.374 L 298.800 355.548 298.800 362.125 L 298.800 368.703 299.900 369.142 C 303.537 370.593,317.911 371.002,320.579 369.729 L 321.986 369.058 322.093 337.229 L 322.200 305.400 323.116 303.559 C 325.660 298.448,328.397 297.209,337.153 297.204 C 343.022 297.200,343.842 297.116,345.011 296.393 C 347.746 294.703,347.600 296.264,347.600 268.740 C 347.600 244.893,347.633 243.785,348.380 242.226 C 348.808 241.332,349.658 238.980,350.268 237.000 L 351.377 233.400 351.389 219.400 C 351.401 203.988,351.303 203.001,349.560 201.016 C 346.862 197.943,340.858 198.085,333.367 201.398 L 331.108 202.397 329.254 201.579 C 323.967 199.248,322.400 195.869,322.400 186.798 L 322.400 180.427 320.987 179.013 L 319.573 177.600 300.487 177.596 L 281.400 177.592 279.200 176.571 C 273.777 174.053,272.401 171.112,272.400 162.038 L 272.400 155.476 270.783 153.938 L 269.166 152.400 212.683 152.403 C 158.025 152.405,156.163 152.430,155.057 153.159 M158.538 176.702 C 159.803 177.679,161.196 179.382,162.547 181.600 C 164.072 184.106,165.126 185.342,166.554 186.300 L 168.490 187.600 174.853 187.600 C 182.782 187.600,184.593 188.490,187.248 193.693 C 189.926 198.943,192.045 200.000,199.891 200.000 C 206.767 200.000,206.784 200.004,209.533 202.560 C 210.267 203.242,211.557 204.970,212.400 206.400 C 214.182 209.423,215.812 211.056,218.600 212.612 C 221.345 214.145,223.002 215.774,224.689 218.600 C 226.438 221.530,227.736 222.994,229.692 224.245 L 231.184 225.200 275.000 225.200 L 318.816 225.200 320.308 224.245 C 322.264 222.994,323.562 221.530,325.311 218.600 C 327.043 215.700,328.664 214.130,331.659 212.453 C 333.963 211.163,336.495 208.707,337.267 207.014 C 337.558 206.375,338.666 205.663,340.702 204.809 L 343.707 203.547 345.069 204.867 L 346.430 206.186 346.315 219.193 L 346.200 232.200 345.050 234.691 C 344.121 236.702,343.513 237.429,341.893 238.469 C 340.358 239.453,339.300 240.662,337.397 243.605 C 335.574 246.422,334.392 247.795,332.985 248.727 L 331.063 250.000 281.191 250.000 L 231.320 250.000 229.760 248.870 C 227.919 247.536,226.569 245.942,224.280 242.400 C 223.213 240.749,221.890 239.325,220.655 238.500 L 218.710 237.200 205.986 237.200 L 193.262 237.200 191.531 235.887 C 190.579 235.165,189.260 233.706,188.600 232.646 C 186.488 229.251,185.020 227.456,183.257 226.112 L 181.538 224.800 162.541 224.800 L 143.544 224.800 141.735 223.555 C 138.140 221.082,137.600 219.614,137.600 212.314 C 137.600 204.422,136.704 202.604,131.507 199.952 C 126.273 197.283,125.200 195.146,125.200 187.398 L 125.200 181.156 127.500 180.082 C 129.678 179.066,130.236 178.995,138.000 178.736 C 146.651 178.448,149.849 177.952,153.844 176.278 C 155.140 175.735,156.290 175.271,156.400 175.247 C 156.510 175.224,157.472 175.878,158.538 176.702 M221.000 273.550 C 226.171 276.027,227.591 278.983,227.596 287.285 C 227.604 299.285,224.475 302.375,212.300 302.391 L 205.600 302.400 204.000 304.000 L 202.400 305.600 202.394 312.500 C 202.387 320.091,201.689 324.641,199.813 329.331 C 198.885 331.650,198.800 332.372,198.800 337.922 L 198.800 343.982 197.718 344.691 C 196.798 345.294,195.287 345.439,187.618 345.662 C 182.658 345.806,177.430 346.117,176.000 346.354 C 172.463 346.939,155.018 346.938,153.874 346.353 C 151.778 345.282,151.618 344.669,151.609 337.674 L 151.600 331.148 153.007 328.102 C 153.781 326.428,154.870 324.459,155.427 323.729 L 156.441 322.400 162.903 322.400 L 169.366 322.400 170.883 320.919 L 172.400 319.438 172.400 313.134 C 172.400 300.664,175.395 297.625,187.700 297.609 L 194.400 297.600 196.000 296.000 L 197.600 294.400 197.604 287.700 C 197.609 278.670,199.237 275.312,204.629 273.207 C 208.117 271.845,217.867 272.050,221.000 273.550 M147.600 278.054 C 148.370 278.398,149.585 279.172,150.300 279.775 L 151.600 280.871 151.600 300.156 C 151.600 310.762,151.442 319.611,151.249 319.820 C 149.395 321.829,148.000 329.274,148.000 337.156 C 148.000 343.602,147.965 343.892,147.100 344.671 C 145.483 346.127,145.083 346.198,137.367 346.400 L 129.733 346.600 127.767 347.812 C 126.354 348.683,125.462 349.641,124.600 351.212 L 123.400 353.400 123.267 361.600 C 123.122 370.481,123.515 373.573,125.448 378.748 C 126.313 381.061,126.403 381.943,126.430 388.348 C 126.483 400.984,126.115 400.526,136.360 400.739 L 143.474 400.887 144.962 399.579 C 147.902 396.998,148.399 395.317,148.409 387.913 C 148.416 382.214,148.520 381.175,149.237 379.600 C 151.060 375.593,151.671 371.816,151.956 362.800 C 152.375 349.572,152.079 349.846,165.600 350.168 C 197.810 350.935,194.752 350.549,196.792 354.106 L 197.992 356.200 198.004 363.400 C 198.011 367.360,198.279 373.030,198.600 376.000 C 198.921 378.970,199.188 384.249,199.192 387.732 L 199.200 394.064 200.578 396.132 C 201.368 397.317,202.827 398.767,203.997 399.528 L 206.038 400.857 214.611 400.728 C 226.305 400.553,225.966 400.985,226.027 386.200 C 226.044 382.020,226.221 377.610,226.419 376.400 C 226.617 375.190,226.902 369.982,227.052 364.827 L 227.326 355.453 229.052 353.727 L 230.779 352.000 238.289 351.992 C 242.420 351.988,248.230 351.721,251.200 351.400 C 254.170 351.079,259.408 350.812,262.840 350.808 L 269.080 350.800 270.687 351.964 C 274.221 354.524,274.000 353.001,274.000 374.787 L 274.000 394.050 271.409 395.225 C 268.870 396.376,268.680 396.400,262.073 396.400 C 253.151 396.400,247.420 397.811,244.736 400.668 C 243.892 401.566,243.636 401.600,237.630 401.602 C 226.903 401.606,227.071 401.452,226.800 411.541 L 226.600 419.000 224.600 419.999 C 222.701 420.947,222.136 421.010,213.400 421.261 C 204.042 421.529,201.123 421.860,197.200 423.095 C 195.203 423.723,192.041 423.798,162.993 423.898 L 130.986 424.009 128.530 421.505 L 126.074 419.000 125.895 411.400 C 125.641 400.614,126.695 401.488,113.600 401.202 C 99.186 400.886,98.849 400.587,98.818 388.073 L 98.800 381.147 97.700 379.704 C 97.095 378.910,95.898 377.752,95.040 377.130 L 93.480 376.000 86.425 376.000 C 74.696 376.000,74.000 375.266,74.000 362.887 L 74.000 355.143 75.600 349.551 C 77.175 344.047,77.200 343.857,77.200 337.387 L 77.200 330.814 78.931 329.007 L 80.663 327.200 87.098 327.200 C 99.166 327.200,101.990 324.441,101.996 312.643 L 102.000 305.886 103.943 303.943 L 105.886 302.000 112.643 301.996 C 124.436 301.990,127.200 299.164,127.200 287.114 L 127.200 280.695 128.984 278.910 L 130.769 277.126 138.484 277.277 C 144.357 277.393,146.534 277.578,147.600 278.054 M249.652 323.715 C 251.770 324.273,254.056 325.015,254.732 325.365 C 255.710 325.870,257.317 326.000,262.612 326.000 L 269.264 326.000 271.632 328.368 L 274.000 330.736 274.000 337.322 L 274.000 343.909 272.500 344.646 C 271.251 345.260,269.630 345.422,262.800 345.620 C 258.290 345.750,254.330 345.977,254.000 346.124 C 250.893 347.509,243.510 348.400,235.145 348.400 C 222.592 348.400,223.571 347.335,223.188 361.393 C 222.937 370.582,222.781 372.334,221.852 376.361 C 220.954 380.253,220.800 381.842,220.800 387.207 C 220.800 392.960,220.730 393.581,219.971 394.546 L 219.142 395.600 212.641 395.600 C 204.004 395.600,204.482 396.083,204.314 387.195 C 204.206 381.516,204.003 379.739,202.851 374.400 C 201.527 368.268,201.515 368.114,201.719 360.400 C 202.056 347.646,201.844 347.888,212.931 347.563 C 217.369 347.433,221.032 347.298,221.071 347.263 C 222.368 346.112,222.400 345.909,222.404 338.671 C 222.409 328.836,223.563 326.187,229.000 323.524 L 231.400 322.349 238.600 322.525 C 244.652 322.673,246.414 322.863,249.652 323.715 M147.170 349.385 C 152.107 351.938,150.856 371.579,145.236 379.747 L 144.000 381.544 144.000 387.982 L 144.000 394.420 137.500 394.310 L 131.000 394.200 130.890 387.726 L 130.780 381.251 129.422 379.233 C 123.758 370.817,123.371 355.086,128.712 350.385 L 130.513 348.800 138.276 348.800 C 144.304 348.800,146.292 348.931,147.170 349.385 M130.199 446.319 C 128.071 448.222,119.203 449.994,111.785 449.997 C 104.051 450.001,102.440 450.532,100.900 453.585 C 99.781 455.804,99.605 468.166,100.595 475.000 C 100.931 477.321,101.180 482.122,101.187 486.440 L 101.200 493.880 102.362 495.484 C 104.596 498.568,105.357 498.800,113.255 498.800 C 121.147 498.800,123.958 499.343,129.073 501.857 L 131.945 503.268 138.673 503.085 C 142.857 502.972,147.290 502.582,150.400 502.056 C 155.013 501.275,156.901 501.209,174.800 501.203 C 199.948 501.195,198.800 501.876,198.800 486.964 C 198.800 479.877,199.103 478.865,202.015 476.234 C 204.691 473.817,205.581 473.600,212.840 473.600 C 222.975 473.600,223.600 472.952,223.600 462.440 C 223.600 451.455,223.672 451.523,211.600 451.182 C 202.678 450.929,200.383 450.469,195.600 447.974 L 193.400 446.826 171.800 446.608 C 159.920 446.488,145.790 446.293,140.399 446.176 C 134.871 446.055,130.424 446.117,130.199 446.319 M151.000 449.830 C 153.372 450.413,156.918 450.560,174.200 450.797 L 194.600 451.076 198.400 452.185 C 201.872 453.199,202.925 453.311,210.600 453.489 C 218.963 453.681,219.005 453.687,220.100 454.716 L 221.200 455.750 221.200 462.353 L 221.200 468.956 220.125 470.078 L 219.050 471.200 213.025 471.205 C 199.331 471.216,196.748 473.670,196.400 487.003 C 196.202 494.607,196.191 494.677,195.102 496.104 L 194.003 497.543 173.302 497.700 C 156.423 497.829,151.726 497.985,147.865 498.548 C 140.620 499.603,131.822 499.299,126.800 497.819 C 123.307 496.789,122.313 496.683,114.481 496.500 L 105.963 496.301 104.781 495.120 L 103.600 493.938 103.600 487.623 C 103.600 483.544,103.317 479.216,102.800 475.400 C 102.257 471.391,102.000 467.256,102.000 462.536 L 102.000 455.579 103.789 453.789 L 105.579 452.000 112.345 452.000 C 119.522 452.000,124.221 451.322,128.800 449.625 C 131.696 448.551,146.349 448.687,151.000 449.830 M278.800 474.072 C 270.250 478.104,257.455 479.057,250.297 476.193 C 249.804 475.996,249.125 476.336,248.025 477.329 C 245.867 479.280,244.356 479.595,237.162 479.598 C 229.086 479.601,229.600 479.072,229.600 487.379 L 229.600 493.695 228.219 495.969 C 224.224 502.545,220.777 504.397,212.516 504.409 C 207.144 504.416,205.946 504.533,204.500 505.189 L 202.800 505.961 202.800 512.372 L 202.800 518.784 204.384 519.592 C 205.775 520.301,206.740 520.400,212.284 520.403 C 219.431 520.406,219.567 520.450,222.535 523.756 L 224.200 525.610 226.900 525.146 C 228.385 524.891,229.600 524.567,229.600 524.426 C 229.600 524.044,225.992 520.655,224.500 519.634 L 223.200 518.746 223.219 512.473 L 223.238 506.200 225.471 504.600 C 226.698 503.720,228.517 501.964,229.512 500.698 L 231.322 498.395 262.761 498.498 L 294.200 498.600 295.899 502.000 L 297.597 505.400 297.599 512.233 L 297.600 519.066 296.253 521.833 L 294.906 524.600 297.299 524.720 C 300.178 524.865,299.848 525.173,300.589 521.651 C 302.165 514.159,301.213 503.165,298.403 496.400 L 297.156 493.400 297.278 486.600 L 297.400 479.800 299.100 476.864 C 300.035 475.249,300.800 473.871,300.800 473.800 C 300.800 473.730,299.765 473.920,298.500 474.222 C 295.563 474.924,293.389 474.924,289.400 474.223 C 283.353 473.160,280.809 473.124,278.800 474.072 M283.881 477.519 C 286.139 479.017,288.000 480.705,288.000 481.256 C 288.000 482.740,283.616 487.380,281.777 487.842 C 279.680 488.368,272.789 481.537,274.756 480.881 C 275.379 480.674,280.166 477.090,280.333 476.706 C 280.612 476.067,282.264 476.446,283.881 477.519 " stroke="none" fill="#846c5c" fill-rule="evenodd"></path><path id="path2" d="M130.262 280.331 C 129.705 280.946,129.600 282.059,129.600 287.312 C 129.600 302.061,127.337 304.385,112.970 304.395 C 103.876 304.402,104.402 303.873,104.395 313.026 C 104.385 327.348,102.054 329.600,87.242 329.600 C 79.063 329.600,79.600 329.045,79.600 337.503 C 79.600 343.365,79.485 344.423,78.324 349.272 C 76.621 356.382,76.209 368.087,77.584 370.304 C 79.178 372.874,80.258 373.197,87.267 373.199 C 98.909 373.201,101.600 375.837,101.600 387.237 C 101.600 397.353,102.608 398.400,112.346 398.400 C 119.402 398.400,120.326 398.092,121.949 395.206 C 123.048 393.251,123.004 383.758,121.859 375.800 C 121.105 370.560,120.966 355.156,121.644 351.920 C 122.859 346.111,125.799 344.811,137.773 344.787 C 146.270 344.770,145.435 345.943,145.734 333.597 C 145.869 327.989,146.154 322.500,146.366 321.400 C 146.579 320.300,146.763 310.806,146.776 300.294 L 146.800 281.188 145.500 280.396 C 143.602 279.238,131.298 279.187,130.262 280.331 M119.004 352.100 C 119.168 352.595,119.448 357.950,119.625 364.000 C 119.803 370.050,120.076 379.187,120.232 384.305 C 120.593 396.194,121.290 395.200,112.600 395.200 C 104.250 395.200,104.916 395.960,104.711 386.200 C 104.415 372.144,103.019 370.710,89.400 370.473 C 78.947 370.291,79.600 370.811,79.600 362.673 C 79.600 357.807,79.753 356.173,80.417 353.943 L 81.234 351.200 99.970 351.200 L 118.707 351.200 119.004 352.100 M155.959 353.257 C 154.149 354.789,154.001 355.492,153.986 362.589 C 153.979 366.356,153.699 371.456,153.360 374.000 C 153.022 376.530,152.608 382.560,152.440 387.400 C 151.913 402.522,150.959 403.644,138.331 403.993 C 128.292 404.271,128.800 403.818,128.800 412.500 L 128.800 418.862 129.969 420.031 L 131.138 421.200 162.869 421.183 C 182.487 421.172,195.287 421.012,196.400 420.765 C 197.390 420.545,202.880 420.262,208.600 420.136 C 215.874 419.975,219.391 419.746,220.300 419.374 L 221.600 418.841 221.600 412.456 L 221.600 406.071 220.369 405.036 C 219.154 404.013,219.058 404.000,212.469 403.995 C 196.447 403.984,196.215 403.584,195.785 375.306 C 195.512 357.314,195.450 356.136,194.720 355.100 L 193.946 354.000 187.073 353.982 C 183.293 353.973,178.850 353.796,177.200 353.589 C 171.538 352.878,156.679 352.646,155.959 353.257 M241.964 354.300 C 231.545 354.411,231.310 354.431,230.488 355.306 C 229.668 356.179,229.642 356.651,229.364 375.200 L 229.080 394.200 230.197 395.525 L 231.313 396.850 238.157 396.670 C 242.345 396.560,246.164 396.235,248.000 395.834 C 250.040 395.388,253.879 395.108,260.000 394.961 C 265.271 394.834,269.373 394.562,269.900 394.305 L 270.800 393.865 270.800 374.914 L 270.800 355.964 269.818 354.982 L 268.836 354.000 260.718 354.093 C 256.253 354.144,247.814 354.237,241.964 354.300 M170.843 355.465 L 173.600 356.131 173.600 375.146 L 173.600 394.161 171.215 396.480 L 168.829 398.800 162.625 398.800 L 156.421 398.800 155.710 397.500 C 154.693 395.639,154.865 356.646,155.895 355.500 C 156.781 354.515,166.808 354.492,170.843 355.465 M129.429 452.232 C 126.778 453.203,119.085 454.000,112.361 454.000 C 103.550 454.000,103.997 453.503,104.008 463.282 C 104.013 467.307,104.278 473.120,104.596 476.200 C 104.915 479.280,105.182 484.523,105.188 487.851 C 105.197 492.201,105.341 494.014,105.700 494.299 C 105.977 494.520,110.302 494.803,115.400 494.935 C 120.460 495.066,125.950 495.404,127.600 495.687 C 129.429 496.000,133.410 496.171,137.800 496.125 C 141.760 496.084,156.002 495.935,169.450 495.793 L 193.899 495.536 194.328 494.668 C 194.568 494.182,194.832 490.368,194.928 486.000 C 195.248 471.428,196.221 470.429,210.400 470.110 C 217.079 469.959,218.730 469.809,219.300 469.300 C 220.192 468.505,220.370 456.391,219.500 455.702 C 219.225 455.484,214.683 455.186,209.400 455.039 C 204.120 454.892,198.810 454.578,197.600 454.340 C 196.329 454.090,186.533 453.785,174.400 453.617 C 155.567 453.357,152.884 453.238,148.400 452.468 C 142.298 451.420,131.996 451.292,129.429 452.232 M146.600 455.565 L 148.600 456.268 148.710 462.538 L 148.820 468.808 146.487 471.208 L 144.153 473.608 125.177 473.504 L 106.200 473.400 105.739 471.200 C 105.056 467.945,105.052 456.221,105.733 455.656 C 106.243 455.232,111.084 455.117,136.400 454.924 C 143.309 454.872,144.915 454.973,146.600 455.565 M229.881 504.717 L 228.400 506.234 228.400 512.537 L 228.400 518.841 229.787 519.420 C 231.953 520.325,293.416 520.285,294.711 519.377 C 296.061 518.432,296.073 507.151,294.726 504.754 L 293.853 503.200 262.608 503.200 L 231.362 503.200 229.881 504.717 " stroke="none" fill="#dc9c74" fill-rule="evenodd"></path><path id="path3" d="M149.867 119.370 C 149.695 119.817,149.302 119.920,148.431 119.746 C 147.166 119.493,144.783 121.287,144.814 122.469 C 144.822 122.761,145.054 122.593,145.330 122.097 C 145.861 121.141,147.532 119.799,147.825 120.092 C 147.921 120.187,147.550 120.506,147.001 120.799 C 146.453 121.093,145.787 121.931,145.523 122.663 C 145.203 123.548,144.939 123.826,144.734 123.496 C 144.563 123.221,144.417 123.893,144.407 125.000 C 144.396 126.100,144.346 130.870,144.294 135.600 L 144.200 144.200 123.000 144.329 C 111.340 144.400,101.023 144.443,100.073 144.424 C 98.956 144.401,98.438 144.538,98.606 144.810 C 98.777 145.086,98.516 145.144,97.854 144.978 C 96.414 144.616,94.616 146.414,94.978 147.854 C 95.144 148.516,95.086 148.777,94.810 148.606 C 94.539 148.439,94.390 148.963,94.393 150.073 C 94.396 151.023,94.353 155.670,94.299 160.400 L 94.200 169.000 85.800 169.210 C 81.180 169.325,76.955 169.269,76.412 169.086 C 75.721 168.853,75.300 168.918,75.012 169.301 C 74.785 169.603,73.921 169.848,73.091 169.845 C 71.062 169.838,69.838 171.062,69.845 173.091 C 69.848 173.921,69.603 174.785,69.301 175.012 C 68.918 175.300,68.853 175.721,69.086 176.412 C 69.269 176.955,69.325 181.180,69.210 185.800 L 69.000 194.200 60.400 194.299 C 55.670 194.353,51.023 194.396,50.073 194.393 C 48.963 194.390,48.439 194.539,48.606 194.810 C 48.777 195.086,48.516 195.144,47.854 194.978 C 46.414 194.616,44.616 196.414,44.978 197.854 C 45.144 198.516,45.086 198.777,44.810 198.606 C 44.537 198.438,44.404 198.954,44.434 200.073 C 44.459 201.023,44.416 216.920,44.339 235.400 L 44.200 269.000 35.800 269.210 C 31.180 269.325,26.955 269.269,26.412 269.086 C 25.721 268.853,25.300 268.918,25.012 269.301 C 24.785 269.603,23.921 269.848,23.091 269.845 C 21.008 269.838,19.800 271.084,19.855 273.181 C 19.882 274.227,19.699 274.830,19.307 274.980 C 18.946 275.119,18.817 275.468,18.975 275.878 C 19.311 276.756,19.311 323.244,18.975 324.122 C 18.817 324.532,18.946 324.881,19.307 325.020 C 19.699 325.170,19.882 325.773,19.855 326.819 C 19.800 328.916,21.008 330.162,23.091 330.155 C 23.921 330.152,24.785 330.397,25.012 330.699 C 25.301 331.084,25.718 331.147,26.412 330.911 C 26.955 330.726,31.210 330.670,35.867 330.787 C 41.408 330.926,44.312 330.862,44.267 330.600 C 44.230 330.380,44.501 330.223,44.868 330.250 C 45.315 330.284,45.458 330.096,45.300 329.685 C 45.140 329.266,45.222 329.166,45.557 329.374 C 45.835 329.545,46.362 329.397,46.763 329.033 C 47.155 328.678,48.185 328.328,49.052 328.254 C 49.918 328.181,50.981 327.934,51.413 327.706 C 51.870 327.465,55.668 327.264,60.478 327.226 L 68.756 327.161 69.432 328.193 C 70.342 329.581,70.619 329.183,69.819 327.637 L 69.179 326.400 63.009 326.400 C 53.411 326.400,50.141 325.122,49.189 321.000 C 48.713 318.943,48.703 281.099,49.177 279.055 C 50.146 274.881,52.454 273.895,61.896 273.623 L 69.592 273.400 71.496 271.495 L 73.400 269.590 73.600 236.895 C 73.820 200.862,73.644 203.211,76.320 200.668 C 77.974 199.096,79.606 198.820,87.332 198.810 L 94.064 198.800 96.432 196.432 L 98.800 194.064 98.810 187.332 C 98.827 174.724,99.534 174.008,112.400 173.560 C 117.679 173.377,121.597 173.040,123.400 172.615 C 125.333 172.159,128.925 171.884,135.000 171.727 C 143.142 171.518,143.935 171.432,145.600 170.582 C 148.967 168.864,148.773 169.398,148.824 161.707 C 148.886 152.618,149.669 150.551,153.544 149.259 C 155.215 148.702,268.565 148.622,270.945 149.176 C 275.120 150.149,276.105 152.454,276.377 161.896 L 276.600 169.592 278.505 171.496 L 280.410 173.400 300.505 173.600 C 321.846 173.812,321.689 173.798,323.935 175.776 C 325.817 177.434,326.132 178.894,326.311 186.769 C 326.498 195.002,326.587 195.286,329.703 197.581 L 331.206 198.689 334.303 197.891 C 341.785 195.963,350.989 196.762,352.434 199.464 C 353.510 201.477,353.211 236.931,352.084 240.964 C 351.214 244.077,351.200 244.539,351.200 269.631 C 351.200 303.023,351.992 301.077,338.356 301.181 C 330.577 301.241,329.955 301.426,327.615 304.381 L 326.400 305.915 326.394 337.258 C 326.391 354.496,326.256 368.789,326.094 369.019 C 324.329 371.537,321.686 372.087,310.000 372.368 C 294.382 372.744,294.756 372.421,294.414 385.800 L 294.200 394.200 287.575 394.400 C 281.029 394.598,280.934 394.613,279.618 395.722 C 275.586 399.119,270.901 400.400,262.507 400.400 L 255.898 400.400 253.301 401.679 C 251.873 402.382,249.917 403.687,248.956 404.579 L 247.208 406.200 247.180 413.600 C 247.165 417.670,247.163 421.231,247.176 421.514 C 247.217 422.387,248.669 421.345,249.370 419.941 C 249.860 418.957,250.000 417.331,250.000 412.601 C 250.000 405.960,249.967 406.062,252.600 404.674 C 255.358 403.221,255.879 403.136,261.800 403.180 C 267.086 403.219,271.964 402.718,273.600 401.970 C 273.710 401.919,273.980 401.850,274.200 401.815 C 275.941 401.542,280.400 399.612,280.400 399.132 C 280.400 398.949,283.379 398.800,287.020 398.800 C 294.185 398.800,294.910 398.633,296.851 396.536 C 298.678 394.561,298.800 393.978,298.800 387.184 L 298.800 380.715 300.009 379.189 C 302.407 376.161,304.344 375.600,312.399 375.600 C 316.323 375.600,319.609 375.431,319.821 375.219 C 320.030 375.010,320.900 374.791,321.754 374.734 C 323.219 374.635,326.200 372.464,326.200 371.495 C 326.200 371.317,326.412 371.040,326.671 370.880 C 326.930 370.719,327.127 370.321,327.108 369.994 C 327.089 369.667,327.102 355.123,327.137 337.674 L 327.200 305.948 329.227 303.974 L 331.253 302.000 338.227 302.000 C 343.535 302.000,345.201 302.119,345.206 302.500 C 345.210 302.810,345.324 302.848,345.506 302.600 C 345.915 302.043,347.605 302.146,348.800 302.799 C 349.350 303.100,350.301 303.310,350.913 303.266 C 351.525 303.222,352.425 303.407,352.913 303.678 C 353.401 303.948,353.929 304.134,354.086 304.090 C 354.243 304.046,354.260 304.298,354.125 304.651 C 353.930 305.159,354.057 305.236,354.739 305.019 C 355.323 304.834,355.600 304.916,355.601 305.273 C 355.602 305.696,357.350 305.778,364.501 305.689 C 369.396 305.628,374.210 305.583,375.200 305.589 C 376.247 305.596,376.793 305.466,376.504 305.279 C 376.168 305.061,376.436 304.803,377.337 304.477 C 378.069 304.213,378.907 303.547,379.201 302.999 C 379.494 302.450,379.813 302.079,379.908 302.175 C 380.201 302.468,378.859 304.139,377.903 304.670 C 377.407 304.946,377.239 305.178,377.531 305.186 C 378.713 305.217,380.507 302.834,380.254 301.569 C 380.080 300.698,380.183 300.305,380.630 300.133 C 380.981 299.998,381.146 299.636,381.013 299.291 C 380.709 298.498,380.709 201.502,381.013 200.709 C 381.146 200.364,380.981 200.002,380.630 199.867 C 380.183 199.695,380.080 199.302,380.254 198.431 C 380.507 197.166,378.713 194.783,377.531 194.814 C 377.239 194.822,377.407 195.054,377.903 195.330 C 378.859 195.861,380.201 197.532,379.908 197.825 C 379.813 197.921,379.494 197.550,379.201 197.001 C 378.907 196.453,378.069 195.787,377.337 195.523 C 376.452 195.203,376.174 194.939,376.504 194.734 C 376.779 194.563,376.107 194.417,375.000 194.407 C 373.900 194.396,369.130 194.346,364.400 194.294 L 355.800 194.200 355.706 185.600 C 355.654 180.870,355.604 176.100,355.593 175.000 C 355.583 173.893,355.437 173.221,355.266 173.496 C 355.061 173.826,354.797 173.548,354.477 172.663 C 354.213 171.931,353.547 171.093,352.999 170.799 C 352.450 170.506,352.079 170.187,352.175 170.092 C 352.468 169.799,354.139 171.141,354.670 172.097 C 354.946 172.593,355.178 172.761,355.186 172.469 C 355.217 171.304,352.835 169.493,351.597 169.741 C 350.780 169.904,350.323 169.791,350.087 169.369 C 349.839 168.927,349.486 168.853,348.774 169.095 C 348.238 169.278,343.991 169.360,339.334 169.279 L 330.869 169.131 330.721 160.666 C 330.640 156.009,330.722 151.762,330.905 151.226 C 331.147 150.514,331.073 150.161,330.631 149.913 C 330.209 149.677,330.096 149.220,330.259 148.403 C 330.507 147.165,328.696 144.783,327.531 144.814 C 327.239 144.822,327.407 145.054,327.903 145.330 C 328.859 145.861,330.201 147.532,329.908 147.825 C 329.813 147.921,329.494 147.550,329.201 147.001 C 328.907 146.453,328.069 145.787,327.337 145.523 C 326.452 145.203,326.174 144.939,326.504 144.734 C 326.777 144.564,326.100 144.429,325.000 144.434 C 323.900 144.439,313.550 144.389,302.000 144.322 L 281.000 144.200 280.790 135.800 C 280.675 131.180,280.731 126.955,280.914 126.412 C 281.147 125.721,281.082 125.300,280.699 125.012 C 280.397 124.785,280.152 123.921,280.155 123.091 C 280.162 121.008,278.916 119.800,276.819 119.855 C 275.773 119.882,275.170 119.699,275.020 119.307 C 274.886 118.959,274.530 118.818,274.150 118.964 C 273.334 119.277,151.522 119.299,150.707 118.986 C 150.364 118.854,150.001 119.020,149.867 119.370 M96.474 146.312 C 95.884 146.924,95.324 147.374,95.232 147.311 C 95.001 147.155,96.865 145.200,97.244 145.200 C 97.412 145.200,97.065 145.701,96.474 146.312 M46.474 196.312 C 45.884 196.924,45.324 197.374,45.232 197.311 C 45.001 197.155,46.865 195.200,47.244 195.200 C 47.412 195.200,47.065 195.701,46.474 196.312 M129.779 252.363 C 126.530 254.756,126.400 255.146,126.400 262.498 L 126.400 269.028 127.700 269.814 C 129.978 271.191,143.612 271.219,146.597 269.853 L 148.800 268.844 148.800 262.390 L 148.800 255.936 146.432 253.568 L 144.064 251.200 137.711 251.200 L 131.358 251.200 129.779 252.363 M104.505 277.511 C 101.366 280.152,101.200 280.663,101.200 287.670 L 101.200 293.984 102.900 294.890 C 104.447 295.715,105.236 295.809,111.650 295.930 L 118.700 296.063 119.781 294.983 L 120.861 293.903 120.731 286.451 C 120.616 279.893,120.506 278.844,119.814 277.700 L 119.028 276.400 112.414 276.411 C 105.805 276.422,105.799 276.422,104.505 277.511 M204.505 277.511 C 201.358 280.159,201.200 280.649,201.201 287.778 C 201.202 298.071,201.651 298.540,211.668 298.727 L 218.480 298.854 220.027 297.781 C 223.419 295.431,223.600 294.903,223.600 287.366 L 223.600 280.678 221.461 278.539 L 219.322 276.400 212.561 276.411 L 205.800 276.422 204.505 277.511 M79.779 302.363 C 76.526 304.759,76.400 305.139,76.400 312.548 L 76.400 319.129 78.126 319.964 C 79.677 320.715,80.570 320.800,86.908 320.800 L 93.964 320.800 95.013 319.750 L 96.063 318.700 95.930 311.650 C 95.809 305.236,95.715 304.447,94.890 302.900 L 93.984 301.200 87.671 301.200 L 81.358 301.200 79.779 302.363 M179.800 302.342 C 176.564 304.737,176.518 304.886,176.334 313.617 C 176.077 325.870,175.872 326.076,163.732 326.332 L 156.064 326.494 155.032 328.873 C 154.066 331.100,154.000 331.659,154.000 337.597 L 154.000 343.942 155.054 344.771 C 156.419 345.844,166.021 345.950,172.656 344.964 C 179.408 343.961,178.800 344.730,178.800 337.192 C 178.800 328.433,178.428 328.801,187.282 328.797 L 193.800 328.793 195.254 326.497 C 198.290 321.700,198.800 319.661,198.799 312.332 C 198.798 301.899,198.377 301.457,188.272 301.279 L 181.400 301.158 179.800 302.342 M228.529 328.549 L 226.380 330.698 226.490 337.410 L 226.600 344.122 228.200 344.961 C 230.871 346.362,242.187 346.396,248.532 345.024 C 251.135 344.461,253.340 344.000,253.432 344.000 C 253.524 344.000,253.600 341.068,253.600 337.485 L 253.600 330.969 251.500 329.697 C 246.654 326.761,245.127 326.400,237.547 326.400 L 230.678 326.400 228.529 328.549 M70.964 337.400 C 70.963 341.140,71.023 342.724,71.097 340.920 C 71.171 339.115,71.172 336.055,71.098 334.120 C 71.025 332.184,70.964 333.660,70.964 337.400 M129.748 351.516 C 124.779 355.817,124.832 369.301,129.852 378.310 L 131.250 380.820 137.522 380.710 L 143.793 380.600 145.084 378.439 C 150.112 370.020,150.431 354.487,145.641 351.303 C 143.372 349.796,131.553 349.954,129.748 351.516 M205.140 353.090 C 203.733 355.948,203.559 366.469,204.816 372.680 C 206.190 379.467,205.344 378.800,212.575 378.800 L 218.769 378.800 219.166 377.300 C 221.156 369.768,221.561 356.479,219.900 353.185 L 219.000 351.400 212.540 351.290 L 206.081 351.181 205.140 353.090 M146.166 355.262 C 146.673 356.110,146.800 357.586,146.800 362.603 L 146.800 368.883 145.345 371.651 L 143.891 374.419 137.445 374.310 L 131.000 374.200 129.513 371.400 L 128.025 368.600 128.013 362.501 L 128.000 356.402 129.438 354.811 L 130.876 353.219 137.338 353.110 C 144.351 352.991,144.889 353.122,146.166 355.262 M203.988 426.177 C 200.773 427.362,196.637 429.821,199.300 428.964 C 200.835 428.471,202.023 428.357,207.600 428.166 C 218.586 427.790,221.018 427.671,221.800 427.468 C 222.240 427.354,222.915 427.247,223.300 427.231 C 224.173 427.192,224.222 426.171,223.367 425.843 C 222.081 425.349,205.456 425.636,203.988 426.177 M122.800 446.212 C 121.150 446.493,115.850 446.769,111.022 446.824 C 99.420 446.957,98.243 447.309,97.259 450.942 C 96.666 453.131,96.934 498.000,97.540 498.000 C 97.699 498.000,97.860 498.402,97.897 498.894 C 97.934 499.386,98.154 499.851,98.385 499.928 C 98.616 500.005,98.733 500.188,98.644 500.334 C 98.556 500.480,98.735 500.832,99.042 501.116 C 99.349 501.399,99.603 501.489,99.606 501.316 C 99.609 501.142,99.761 501.234,99.942 501.520 C 100.124 501.806,100.661 502.069,101.136 502.105 C 101.611 502.141,102.000 502.301,102.000 502.460 C 102.000 502.818,101.496 502.791,112.600 503.024 C 117.660 503.130,122.700 503.377,123.800 503.573 C 127.448 504.223,126.736 503.478,121.913 501.601 C 118.925 500.439,118.612 500.400,112.200 500.400 C 100.489 500.400,99.942 499.803,99.532 486.600 C 98.284 446.427,97.374 449.186,112.000 448.778 C 120.208 448.550,124.804 447.611,125.827 445.956 C 125.948 445.760,125.992 445.623,125.924 445.650 C 125.856 445.678,124.450 445.931,122.800 446.212 M199.200 446.333 C 199.200 446.525,200.505 447.293,202.100 448.041 L 205.000 449.400 212.631 449.600 C 224.602 449.914,225.781 451.185,225.537 463.520 C 225.313 474.848,224.837 475.325,213.600 475.510 C 204.535 475.659,204.455 475.686,201.482 479.638 L 200.400 481.076 200.439 488.838 C 200.508 502.752,200.350 502.551,211.328 502.715 L 219.000 502.829 221.423 500.715 C 222.755 499.552,224.645 497.646,225.623 496.481 L 227.400 494.362 227.600 487.388 L 227.800 480.413 229.107 479.107 L 230.414 477.800 238.707 477.588 C 247.254 477.370,249.235 477.001,249.509 475.577 C 249.653 474.830,250.020 474.866,239.382 474.588 C 227.443 474.276,228.062 474.912,227.982 462.867 C 227.934 455.561,227.933 455.554,226.736 453.278 C 225.495 450.919,222.975 448.245,222.355 448.628 C 222.160 448.749,222.000 448.677,222.000 448.470 C 222.000 447.358,217.973 446.789,210.302 446.818 C 206.059 446.834,202.321 446.761,201.994 446.657 C 200.448 446.162,199.200 446.018,199.200 446.333 M221.968 478.666 C 224.501 479.566,224.617 479.980,224.490 487.663 L 224.381 494.325 221.527 497.163 L 218.673 500.000 212.550 500.000 L 206.427 500.000 204.987 498.560 C 204.195 497.768,203.647 497.020,203.770 496.897 C 203.893 496.774,203.791 496.430,203.543 496.131 C 203.239 495.765,203.118 493.168,203.168 488.118 L 203.244 480.647 204.722 479.340 L 206.200 478.033 213.146 478.017 C 218.642 478.003,220.484 478.139,221.968 478.666 M301.200 486.635 C 301.200 492.203,301.333 493.807,301.934 495.515 C 302.861 498.148,303.258 497.867,302.530 495.094 C 302.164 493.704,301.996 490.935,302.028 486.858 C 302.060 482.876,301.923 480.563,301.638 480.278 C 301.321 479.961,301.200 481.709,301.200 486.635 M303.913 510.076 C 304.071 519.202,304.267 520.288,304.296 512.200 C 304.309 508.460,304.203 504.984,304.060 504.476 C 303.917 503.967,303.851 506.487,303.913 510.076 M165.728 504.300 C 170.968 504.363,179.428 504.363,184.528 504.300 C 189.627 504.236,185.340 504.185,175.000 504.185 C 164.660 504.185,160.487 504.237,165.728 504.300 M195.400 504.636 C 197.904 505.543,198.000 505.839,198.000 512.644 C 198.000 518.555,198.514 521.187,199.669 521.197 C 199.817 521.199,200.451 521.712,201.077 522.339 C 201.703 522.965,202.873 523.694,203.676 523.959 C 204.479 524.224,205.362 524.713,205.638 525.045 C 206.055 525.548,207.298 525.636,213.015 525.567 C 216.797 525.522,220.067 525.594,220.283 525.728 C 220.500 525.861,221.424 526.090,222.338 526.237 C 224.815 526.633,224.518 525.558,221.700 523.929 L 219.400 522.600 212.400 522.400 L 205.400 522.200 202.200 520.568 L 199.000 518.937 198.903 512.968 C 198.776 505.132,198.157 503.879,194.492 504.028 C 194.111 504.044,194.520 504.317,195.400 504.636 M301.706 522.082 C 299.369 525.326,299.294 526.310,301.586 523.660 C 302.737 522.330,304.328 519.200,303.854 519.200 C 303.814 519.200,302.848 520.497,301.706 522.082 " stroke="none" fill="#4c3c2c" fill-rule="evenodd"></path><path id="path4" d="M153.844 176.278 C 149.849 177.952,146.651 178.448,138.000 178.736 C 130.236 178.995,129.678 179.066,127.500 180.082 L 125.200 181.156 125.200 187.398 C 125.200 195.146,126.273 197.283,131.507 199.952 C 136.704 202.604,137.600 204.422,137.600 212.314 C 137.600 219.614,138.140 221.082,141.735 223.555 L 143.544 224.800 162.541 224.800 L 181.538 224.800 183.257 226.112 C 185.020 227.456,186.488 229.251,188.600 232.646 C 189.260 233.706,190.579 235.165,191.531 235.887 L 193.262 237.200 205.986 237.200 L 218.710 237.200 220.655 238.500 C 221.890 239.325,223.213 240.749,224.280 242.400 C 226.569 245.942,227.919 247.536,229.760 248.870 L 231.320 250.000 281.191 250.000 L 331.063 250.000 332.985 248.727 C 334.392 247.795,335.574 246.422,337.397 243.605 C 339.300 240.662,340.358 239.453,341.893 238.469 C 343.513 237.429,344.121 236.702,345.050 234.691 L 346.200 232.200 346.315 219.193 L 346.430 206.186 345.069 204.867 L 343.707 203.547 340.702 204.809 C 338.666 205.663,337.558 206.375,337.267 207.014 C 336.495 208.707,333.963 211.163,331.659 212.453 C 328.664 214.130,327.043 215.700,325.311 218.600 C 323.562 221.530,322.264 222.994,320.308 224.245 L 318.816 225.200 275.000 225.200 L 231.184 225.200 229.692 224.245 C 227.736 222.994,226.438 221.530,224.689 218.600 C 223.002 215.774,221.345 214.145,218.600 212.612 C 215.812 211.056,214.182 209.423,212.400 206.400 C 211.557 204.970,210.267 203.242,209.533 202.560 C 206.784 200.004,206.767 200.000,199.891 200.000 C 192.045 200.000,189.926 198.943,187.248 193.693 C 184.593 188.490,182.782 187.600,174.853 187.600 L 168.490 187.600 166.554 186.300 C 165.126 185.342,164.072 184.106,162.547 181.600 C 160.763 178.670,157.269 175.059,156.400 175.247 C 156.290 175.271,155.140 175.735,153.844 176.278 M128.984 278.910 L 127.200 280.695 127.200 287.114 C 127.200 299.164,124.436 301.990,112.643 301.996 L 105.886 302.000 103.943 303.943 L 102.000 305.886 101.996 312.643 C 101.990 324.441,99.166 327.200,87.098 327.200 L 80.663 327.200 78.931 329.007 L 77.200 330.814 77.200 337.387 C 77.200 343.857,77.175 344.047,75.600 349.551 L 74.000 355.143 74.000 362.887 C 74.000 375.266,74.696 376.000,86.425 376.000 L 93.480 376.000 95.040 377.130 C 95.898 377.752,97.095 378.910,97.700 379.704 L 98.800 381.147 98.818 388.073 C 98.849 400.587,99.186 400.886,113.600 401.202 C 126.695 401.488,125.641 400.614,125.895 411.400 L 126.074 419.000 128.530 421.505 L 130.986 424.009 162.993 423.898 C 192.041 423.798,195.203 423.723,197.200 423.095 C 201.123 421.860,204.042 421.529,213.400 421.261 C 222.136 421.010,222.701 420.947,224.600 419.999 L 226.600 419.000 226.800 411.541 C 227.071 401.452,226.903 401.606,237.630 401.602 C 243.636 401.600,243.892 401.566,244.736 400.668 C 247.420 397.811,253.151 396.400,262.073 396.400 C 268.680 396.400,268.870 396.376,271.409 395.225 L 274.000 394.050 274.000 374.787 C 274.000 353.001,274.221 354.524,270.687 351.964 L 269.080 350.800 262.840 350.808 C 259.408 350.812,254.170 351.079,251.200 351.400 C 248.230 351.721,242.420 351.988,238.289 351.992 L 230.779 352.000 229.052 353.727 L 227.326 355.453 227.052 364.827 C 226.902 369.982,226.617 375.190,226.419 376.400 C 226.221 377.610,226.044 382.020,226.027 386.200 C 225.966 400.985,226.305 400.553,214.611 400.728 L 206.038 400.857 203.997 399.528 C 202.827 398.767,201.368 397.317,200.578 396.132 L 199.200 394.064 199.192 387.732 C 199.188 384.249,198.921 378.970,198.600 376.000 C 198.279 373.030,198.011 367.360,198.004 363.400 L 197.992 356.200 196.792 354.106 C 194.752 350.549,197.810 350.935,165.600 350.168 C 152.079 349.846,152.375 349.572,151.956 362.800 C 151.671 371.816,151.060 375.593,149.237 379.600 C 148.520 381.175,148.416 382.214,148.409 387.913 C 148.399 395.317,147.902 396.998,144.962 399.579 L 143.474 400.887 136.360 400.739 C 126.115 400.526,126.483 400.984,126.430 388.348 C 126.403 381.943,126.313 381.061,125.448 378.748 C 123.515 373.573,123.122 370.481,123.267 361.600 L 123.400 353.400 124.600 351.212 C 125.462 349.641,126.354 348.683,127.767 347.812 L 129.733 346.600 137.367 346.400 C 145.083 346.198,145.483 346.127,147.100 344.671 C 147.965 343.892,148.000 343.602,148.000 337.156 C 148.000 329.274,149.395 321.829,151.249 319.820 C 151.442 319.611,151.600 310.762,151.600 300.156 L 151.600 280.871 150.300 279.775 C 147.778 277.649,146.793 277.441,138.484 277.277 L 130.769 277.126 128.984 278.910 M145.500 280.396 L 146.800 281.188 146.776 300.294 C 146.763 310.806,146.579 320.300,146.366 321.400 C 146.154 322.500,145.869 327.989,145.734 333.597 C 145.435 345.943,146.270 344.770,137.773 344.787 C 125.799 344.811,122.859 346.111,121.644 351.920 C 120.966 355.156,121.105 370.560,121.859 375.800 C 123.004 383.758,123.048 393.251,121.949 395.206 C 120.326 398.092,119.402 398.400,112.346 398.400 C 102.608 398.400,101.600 397.353,101.600 387.237 C 101.600 375.837,98.909 373.201,87.267 373.199 C 80.258 373.197,79.178 372.874,77.584 370.304 C 76.209 368.087,76.621 356.382,78.324 349.272 C 79.485 344.423,79.600 343.365,79.600 337.503 C 79.600 329.045,79.063 329.600,87.242 329.600 C 102.054 329.600,104.385 327.348,104.395 313.026 C 104.402 303.873,103.876 304.402,112.970 304.395 C 127.337 304.385,129.600 302.061,129.600 287.312 C 129.600 279.047,129.029 279.600,137.562 279.601 C 143.474 279.603,144.342 279.690,145.500 280.396 M177.200 353.589 C 178.850 353.796,183.293 353.973,187.073 353.982 L 193.946 354.000 194.720 355.100 C 195.450 356.136,195.512 357.314,195.785 375.306 C 196.215 403.584,196.447 403.984,212.469 403.995 C 219.058 404.000,219.154 404.013,220.369 405.036 L 221.600 406.071 221.600 412.456 L 221.600 418.841 220.300 419.374 C 219.391 419.746,215.874 419.975,208.600 420.136 C 202.880 420.262,197.390 420.545,196.400 420.765 C 195.287 421.012,182.487 421.172,162.869 421.183 L 131.138 421.200 129.969 420.031 L 128.800 418.862 128.800 412.500 C 128.800 403.818,128.292 404.271,138.331 403.993 C 150.959 403.644,151.913 402.522,152.440 387.400 C 152.608 382.560,153.022 376.530,153.360 374.000 C 153.699 371.456,153.979 366.356,153.986 362.589 C 154.001 355.492,154.149 354.789,155.959 353.257 C 156.679 352.646,171.538 352.878,177.200 353.589 M269.818 354.982 L 270.800 355.964 270.800 374.914 L 270.800 393.865 269.900 394.305 C 269.373 394.562,265.271 394.834,260.000 394.961 C 253.879 395.108,250.040 395.388,248.000 395.834 C 246.164 396.235,242.345 396.560,238.157 396.670 L 231.313 396.850 230.197 395.525 L 229.080 394.200 229.364 375.200 C 229.642 356.651,229.668 356.179,230.488 355.306 C 231.310 354.431,231.545 354.411,241.964 354.300 C 247.814 354.237,256.253 354.144,260.718 354.093 L 268.836 354.000 269.818 354.982 M128.800 449.625 C 124.221 451.322,119.522 452.000,112.345 452.000 L 105.579 452.000 103.789 453.789 L 102.000 455.579 102.000 462.536 C 102.000 467.256,102.257 471.391,102.800 475.400 C 103.317 479.216,103.600 483.544,103.600 487.623 L 103.600 493.938 104.781 495.120 L 105.963 496.301 114.481 496.500 C 122.313 496.683,123.307 496.789,126.800 497.819 C 131.822 499.299,140.620 499.603,147.865 498.548 C 151.726 497.985,156.423 497.829,173.302 497.700 L 194.003 497.543 195.102 496.104 C 196.191 494.677,196.202 494.607,196.400 487.003 C 196.748 473.670,199.331 471.216,213.025 471.205 L 219.050 471.200 220.125 470.078 L 221.200 468.956 221.200 462.353 L 221.200 455.750 220.100 454.716 C 219.005 453.687,218.963 453.681,210.600 453.489 C 202.925 453.311,201.872 453.199,198.400 452.185 L 194.600 451.076 174.200 450.797 C 156.918 450.560,153.372 450.413,151.000 449.830 C 146.349 448.687,131.696 448.551,128.800 449.625 M148.400 452.468 C 152.884 453.238,155.567 453.357,174.400 453.617 C 186.533 453.785,196.329 454.090,197.600 454.340 C 198.810 454.578,204.120 454.892,209.400 455.039 C 214.683 455.186,219.225 455.484,219.500 455.702 C 220.370 456.391,220.192 468.505,219.300 469.300 C 218.730 469.809,217.079 469.959,210.400 470.110 C 196.221 470.429,195.248 471.428,194.928 486.000 C 194.832 490.368,194.568 494.182,194.328 494.668 L 193.899 495.536 169.450 495.793 C 156.002 495.935,141.760 496.084,137.800 496.125 C 133.410 496.171,129.429 496.000,127.600 495.687 C 125.950 495.404,120.460 495.066,115.400 494.935 C 110.302 494.803,105.977 494.520,105.700 494.299 C 105.341 494.014,105.197 492.201,105.188 487.851 C 105.182 484.523,104.915 479.280,104.596 476.200 C 104.278 473.120,104.013 467.307,104.008 463.282 C 103.997 453.503,103.550 454.000,112.361 454.000 C 119.085 454.000,126.778 453.203,129.429 452.232 C 131.996 451.292,142.298 451.420,148.400 452.468 M229.512 500.698 C 228.517 501.964,226.698 503.720,225.471 504.600 L 223.238 506.200 223.219 512.481 L 223.200 518.762 224.909 519.937 C 225.849 520.584,227.424 521.988,228.409 523.057 L 230.200 525.000 261.600 525.113 C 298.030 525.243,294.433 525.575,296.210 521.924 L 297.600 519.068 297.599 512.234 L 297.597 505.400 295.899 502.000 L 294.200 498.600 262.761 498.498 L 231.322 498.395 229.512 500.698 M294.726 504.754 C 296.073 507.151,296.061 518.432,294.711 519.377 C 293.416 520.285,231.953 520.325,229.787 519.420 L 228.400 518.841 228.400 512.537 L 228.400 506.234 229.881 504.717 L 231.362 503.200 262.608 503.200 L 293.853 503.200 294.726 504.754 " stroke="none" fill="#ac947c" fill-rule="evenodd"></path><path id="path5" d="M147.800 119.105 C 146.006 119.434,144.405 120.085,144.603 120.405 C 144.718 120.592,144.675 120.830,144.507 120.935 C 144.338 121.039,144.159 122.626,144.110 124.462 C 144.050 126.676,144.139 127.531,144.375 127.000 C 144.571 126.560,144.642 125.480,144.533 124.600 C 144.412 123.617,144.472 123.191,144.689 123.496 C 144.938 123.846,145.184 123.600,145.523 122.663 C 145.787 121.931,146.453 121.093,147.001 120.799 C 147.550 120.506,147.921 120.187,147.825 120.092 C 147.532 119.799,145.861 121.141,145.330 122.097 C 145.054 122.593,144.822 122.761,144.814 122.469 C 144.783 121.306,147.165 119.493,148.401 119.740 C 149.043 119.869,149.664 119.820,149.780 119.632 C 150.039 119.213,148.885 118.906,147.800 119.105 M150.876 119.009 C 151.146 119.280,273.657 119.276,273.928 119.005 C 274.041 118.892,246.353 118.800,212.400 118.800 C 178.447 118.800,150.761 118.894,150.876 119.009 M275.700 119.075 C 274.664 119.472,275.259 119.896,276.796 119.856 C 277.954 119.825,278.638 120.060,279.289 120.711 C 279.940 121.362,280.175 122.046,280.144 123.204 C 280.121 124.082,280.240 124.800,280.408 124.800 C 280.979 124.800,281.159 123.651,280.790 122.366 C 280.588 121.662,280.479 120.977,280.548 120.843 C 280.744 120.462,279.435 119.406,278.694 119.347 C 278.326 119.317,277.615 119.201,277.113 119.088 C 276.611 118.975,275.975 118.969,275.700 119.075 M280.796 126.600 C 280.685 127.040,280.685 131.180,280.796 135.800 L 281.000 144.200 300.000 144.206 L 319.000 144.212 300.107 144.102 L 281.215 143.992 281.107 134.896 C 281.048 129.893,280.908 126.160,280.796 126.600 M143.994 137.200 L 143.800 143.800 124.800 144.006 L 105.800 144.212 124.913 144.306 C 140.219 144.381,144.065 144.297,144.223 143.884 C 144.332 143.600,144.369 140.495,144.305 136.984 L 144.189 130.600 143.994 137.200 M95.231 145.231 C 94.289 146.172,94.163 146.634,94.075 149.444 C 94.006 151.649,94.097 152.419,94.376 152.000 C 94.595 151.670,94.663 150.697,94.526 149.839 C 94.343 148.684,94.402 148.354,94.755 148.572 C 95.098 148.784,95.161 148.582,94.978 147.854 C 94.616 146.414,96.414 144.616,97.854 144.978 C 98.582 145.161,98.784 145.098,98.572 144.755 C 98.354 144.402,98.684 144.343,99.839 144.526 C 100.697 144.663,101.670 144.595,102.000 144.376 C 102.419 144.097,101.649 144.006,99.444 144.075 C 96.634 144.163,96.172 144.289,95.231 145.231 M323.000 144.375 C 323.440 144.571,324.520 144.642,325.400 144.533 C 326.383 144.412,326.809 144.472,326.504 144.689 C 326.154 144.938,326.400 145.184,327.337 145.523 C 328.069 145.787,328.907 146.453,329.201 147.001 C 329.494 147.550,329.813 147.921,329.908 147.825 C 330.201 147.532,328.859 145.861,327.903 145.330 C 327.407 145.054,327.239 144.822,327.531 144.814 C 328.694 144.783,330.507 147.165,330.260 148.401 C 330.131 149.043,330.200 149.677,330.413 149.808 C 331.066 150.211,331.027 147.867,330.345 145.696 C 330.120 144.979,329.782 144.487,329.595 144.603 C 329.408 144.718,329.170 144.675,329.065 144.507 C 328.961 144.338,327.374 144.159,325.538 144.110 C 323.324 144.050,322.469 144.139,323.000 144.375 M96.001 146.198 C 95.486 146.748,95.139 147.248,95.232 147.311 C 95.324 147.374,95.884 146.924,96.474 146.312 C 97.065 145.701,97.412 145.200,97.244 145.200 C 97.077 145.200,96.517 145.649,96.001 146.198 M330.793 151.400 C 330.679 151.840,330.650 156.009,330.727 160.666 L 330.869 169.131 339.334 169.278 C 343.991 169.359,348.160 169.296,348.600 169.138 C 349.040 168.980,345.308 168.839,340.308 168.825 L 331.215 168.800 331.108 159.700 C 331.048 154.695,330.907 150.960,330.793 151.400 M94.089 162.300 L 94.000 168.800 84.933 168.800 C 79.947 168.800,75.987 168.920,76.134 169.067 C 76.502 169.436,93.726 169.222,94.111 168.844 C 94.281 168.676,94.366 165.673,94.300 162.169 L 94.178 155.800 94.089 162.300 M72.234 169.217 C 71.593 169.409,70.963 169.512,70.834 169.446 C 70.544 169.298,69.206 170.673,69.426 170.893 C 69.514 170.981,69.419 171.636,69.215 172.349 C 68.842 173.649,69.019 174.800,69.592 174.800 C 69.760 174.800,69.879 174.082,69.856 173.204 C 69.798 171.019,71.019 169.798,73.204 169.856 C 74.826 169.898,75.317 169.484,74.167 169.043 C 73.819 168.909,73.504 168.815,73.467 168.834 C 73.430 168.853,72.875 169.026,72.234 169.217 M350.695 169.110 C 350.307 169.193,350.089 169.421,350.211 169.617 C 350.332 169.813,350.957 169.869,351.599 169.740 C 352.835 169.493,355.217 171.306,355.186 172.469 C 355.178 172.761,354.946 172.593,354.670 172.097 C 354.139 171.141,352.468 169.799,352.175 170.092 C 352.079 170.187,352.450 170.506,352.999 170.799 C 353.547 171.093,354.213 171.931,354.477 172.663 C 354.816 173.600,355.062 173.846,355.311 173.496 C 355.528 173.191,355.588 173.617,355.467 174.600 C 355.358 175.480,355.429 176.560,355.625 177.000 C 355.861 177.531,355.950 176.676,355.890 174.462 C 355.841 172.626,355.662 171.039,355.493 170.935 C 355.325 170.830,355.282 170.592,355.397 170.405 C 355.727 169.871,351.970 168.836,350.695 169.110 M68.825 184.890 L 68.800 193.980 62.300 194.106 L 55.800 194.232 62.400 194.216 L 69.000 194.200 69.209 185.800 C 69.324 181.180,69.290 177.040,69.134 176.600 C 68.978 176.160,68.839 179.891,68.825 184.890 M355.780 187.400 L 355.800 194.200 362.600 194.220 L 369.400 194.240 362.800 194.020 L 356.200 193.800 355.980 187.200 L 355.760 180.600 355.780 187.400 M45.231 195.231 C 44.289 196.172,44.163 196.634,44.075 199.444 C 44.006 201.649,44.097 202.419,44.376 202.000 C 44.595 201.670,44.663 200.697,44.526 199.839 C 44.343 198.684,44.402 198.354,44.755 198.572 C 45.098 198.784,45.161 198.582,44.978 197.854 C 44.616 196.414,46.414 194.616,47.854 194.978 C 48.582 195.161,48.784 195.098,48.572 194.755 C 48.354 194.402,48.684 194.343,49.839 194.526 C 50.697 194.663,51.670 194.595,52.000 194.376 C 52.419 194.097,51.649 194.006,49.444 194.075 C 46.634 194.163,46.172 194.289,45.231 195.231 M373.000 194.375 C 373.440 194.571,374.520 194.642,375.400 194.533 C 376.383 194.412,376.809 194.472,376.504 194.689 C 376.154 194.938,376.400 195.184,377.337 195.523 C 378.069 195.787,378.907 196.453,379.201 197.001 C 379.494 197.550,379.813 197.921,379.908 197.825 C 380.201 197.532,378.859 195.861,377.903 195.330 C 377.407 195.054,377.239 194.822,377.531 194.814 C 378.694 194.783,380.507 197.165,380.260 198.401 C 380.131 199.043,380.200 199.677,380.413 199.808 C 381.066 200.211,381.027 197.867,380.345 195.696 C 380.120 194.979,379.782 194.487,379.595 194.603 C 379.408 194.718,379.170 194.675,379.065 194.507 C 378.961 194.338,377.374 194.159,375.538 194.110 C 373.324 194.050,372.469 194.139,373.000 194.375 M46.001 196.198 C 45.486 196.748,45.139 197.248,45.232 197.311 C 45.324 197.374,45.884 196.924,46.474 196.312 C 47.065 195.701,47.412 195.200,47.244 195.200 C 47.077 195.200,46.517 195.649,46.001 196.198 M380.795 201.500 C 380.681 217.559,380.844 298.977,380.991 299.124 C 381.106 299.239,381.200 277.163,381.200 250.067 C 381.200 222.970,381.110 200.800,381.000 200.800 C 380.890 200.800,380.798 201.115,380.795 201.500 M44.098 237.300 L 44.000 268.800 34.933 268.800 C 29.947 268.800,25.987 268.920,26.134 269.067 C 26.497 269.431,43.723 269.225,44.102 268.852 C 44.269 268.689,44.358 254.435,44.300 237.178 L 44.195 205.800 44.098 237.300 M22.234 269.217 C 21.593 269.409,20.963 269.512,20.834 269.446 C 20.544 269.298,19.206 270.673,19.426 270.893 C 19.514 270.981,19.419 271.636,19.215 272.349 C 18.842 273.649,19.019 274.800,19.592 274.800 C 19.760 274.800,19.879 274.082,19.856 273.204 C 19.798 271.019,21.019 269.798,23.204 269.856 C 24.826 269.898,25.317 269.484,24.167 269.043 C 23.819 268.909,23.504 268.815,23.467 268.834 C 23.430 268.853,22.875 269.026,22.234 269.217 M18.800 300.000 C 18.800 313.273,18.897 324.036,19.016 323.917 C 19.135 323.798,19.233 313.035,19.233 300.000 C 19.233 286.965,19.135 276.202,19.016 276.083 C 18.897 275.964,18.800 286.727,18.800 300.000 M380.286 300.247 C 380.150 300.383,380.141 301.006,380.266 301.631 C 380.507 302.835,378.675 305.216,377.531 305.186 C 377.239 305.178,377.407 304.946,377.903 304.670 C 378.859 304.139,380.201 302.468,379.908 302.175 C 379.813 302.079,379.494 302.450,379.201 302.999 C 378.907 303.547,378.069 304.213,377.337 304.477 C 376.400 304.816,376.154 305.062,376.504 305.311 C 376.809 305.528,376.383 305.588,375.400 305.467 C 374.520 305.358,373.440 305.429,373.000 305.625 C 372.469 305.861,373.324 305.950,375.538 305.890 C 377.374 305.841,378.961 305.662,379.065 305.493 C 379.170 305.325,379.408 305.282,379.595 305.397 C 380.018 305.659,380.841 303.247,380.887 301.609 C 380.924 300.330,380.703 299.830,380.286 300.247 M329.227 303.974 L 327.200 305.948 327.137 337.674 C 327.102 355.123,327.089 369.667,327.108 369.994 C 327.127 370.321,326.930 370.719,326.671 370.880 C 326.412 371.040,326.200 371.317,326.200 371.495 C 326.200 372.464,323.219 374.635,321.754 374.734 C 320.900 374.791,320.030 375.010,319.821 375.219 C 319.609 375.431,316.323 375.600,312.399 375.600 C 304.344 375.600,302.407 376.161,300.009 379.189 L 298.800 380.715 298.800 387.177 C 298.800 394.173,298.626 394.917,296.536 396.851 C 294.556 398.683,293.987 398.800,287.026 398.800 C 283.382 398.800,280.400 398.949,280.400 399.132 C 280.400 399.612,275.941 401.542,274.200 401.815 C 273.980 401.850,273.710 401.919,273.600 401.970 C 273.330 402.093,272.537 402.282,270.400 402.733 C 269.151 402.996,268.926 403.126,269.665 403.156 C 271.225 403.220,276.226 402.202,279.087 401.238 C 281.207 400.524,282.534 400.400,288.061 400.400 C 299.095 400.400,300.092 399.413,300.400 388.171 C 300.625 379.957,300.528 380.228,304.060 377.962 L 306.003 376.714 315.102 376.902 C 325.774 377.123,328.201 377.590,330.242 379.818 L 331.508 381.200 341.254 381.176 C 351.217 381.152,354.471 380.889,355.320 380.041 C 355.684 379.677,355.848 370.669,356.000 342.880 L 356.200 306.200 362.800 305.975 L 369.400 305.751 362.499 305.775 C 357.045 305.795,355.599 305.690,355.599 305.273 C 355.600 304.916,355.323 304.834,354.739 305.019 C 354.057 305.236,353.930 305.159,354.125 304.651 C 354.260 304.298,354.243 304.046,354.086 304.090 C 353.929 304.134,353.401 303.948,352.913 303.678 C 352.425 303.407,351.525 303.222,350.913 303.266 C 350.301 303.310,349.350 303.100,348.800 302.799 C 347.605 302.146,345.915 302.043,345.506 302.600 C 345.324 302.848,345.210 302.810,345.206 302.500 C 345.201 302.119,343.535 302.000,338.227 302.000 L 331.253 302.000 329.227 303.974 M19.064 325.777 C 18.942 326.094,19.008 326.930,19.210 327.634 C 19.412 328.338,19.521 329.023,19.452 329.157 C 19.300 329.453,20.668 330.798,20.893 330.574 C 20.981 330.486,21.636 330.581,22.349 330.785 C 23.649 331.158,24.800 330.981,24.800 330.408 C 24.800 330.240,24.082 330.121,23.204 330.144 C 21.019 330.202,19.798 328.981,19.856 326.796 C 19.897 325.207,19.486 324.678,19.064 325.777 M51.397 327.706 C 50.992 327.933,49.944 328.179,49.068 328.253 C 48.193 328.327,47.155 328.678,46.763 329.033 C 46.362 329.397,45.835 329.545,45.557 329.374 C 45.217 329.163,45.141 329.269,45.312 329.714 C 45.479 330.151,45.385 330.292,45.020 330.152 C 44.724 330.039,44.355 330.149,44.201 330.399 C 44.003 330.719,41.346 330.825,35.159 330.760 C 30.341 330.710,26.272 330.795,26.118 330.949 C 25.963 331.103,29.969 331.178,35.019 331.115 L 44.200 331.000 44.133 341.600 C 44.096 347.534,44.210 351.760,44.393 351.200 L 44.720 350.200 44.807 351.200 C 44.865 351.877,44.951 351.981,45.072 351.520 C 45.205 351.013,45.475 350.916,46.126 351.140 C 46.606 351.305,51.876 351.489,57.836 351.547 L 68.672 351.653 69.768 347.927 C 71.299 342.716,71.232 330.687,69.660 328.483 L 68.721 327.165 60.427 327.230 C 55.606 327.267,51.825 327.466,51.397 327.706 M143.600 352.931 C 143.600 353.024,144.230 353.787,145.000 354.628 L 146.400 356.156 146.400 362.291 C 146.400 366.839,146.245 368.797,145.800 369.862 C 144.978 371.829,145.075 372.090,146.000 370.400 C 147.052 368.479,147.178 356.957,146.166 355.262 C 145.603 354.318,143.600 352.499,143.600 352.931 M129.447 354.801 L 128.000 356.402 128.017 362.501 C 128.032 367.872,128.130 368.767,128.841 370.000 C 129.286 370.770,129.503 371.040,129.326 370.600 C 129.148 370.160,128.949 366.710,128.883 362.934 L 128.765 356.068 130.024 354.634 C 130.716 353.845,131.195 353.200,131.088 353.200 C 130.981 353.200,130.242 353.921,129.447 354.801 M44.000 378.776 C 44.000 379.009,44.315 379.203,44.700 379.206 C 45.146 379.210,45.235 379.319,44.944 379.506 C 44.611 379.721,44.628 379.929,45.008 380.282 C 45.416 380.660,45.574 380.645,45.740 380.211 C 45.857 379.907,45.738 379.493,45.476 379.292 C 44.500 378.540,44.000 378.365,44.000 378.776 M61.891 381.094 L 68.781 381.219 68.905 388.010 L 69.029 394.801 69.015 387.900 L 69.000 381.000 62.000 380.985 L 55.000 380.970 61.891 381.094 M254.800 403.597 C 254.030 404.015,252.950 404.559,252.401 404.806 C 250.049 405.864,250.000 406.024,250.000 412.601 C 250.000 418.874,249.619 420.702,248.137 421.531 C 247.679 421.788,248.552 422.477,251.664 424.317 L 255.800 426.763 280.905 426.881 C 301.683 426.980,305.974 426.908,305.805 426.467 C 305.692 426.174,305.600 425.724,305.600 425.467 C 305.600 425.115,299.517 425.027,280.825 425.111 L 256.050 425.222 254.803 424.003 C 252.202 421.460,251.608 419.324,251.604 412.492 L 251.600 406.384 253.447 405.092 C 257.025 402.589,257.377 402.200,254.800 403.597 M69.725 404.326 C 69.421 404.517,69.448 404.748,69.815 405.088 C 70.229 405.473,70.383 405.473,70.539 405.088 C 70.652 404.810,70.750 404.902,70.768 405.300 C 70.786 405.685,70.986 406.000,71.214 406.000 C 71.499 406.000,71.498 405.757,71.212 405.222 C 70.680 404.229,70.273 403.983,69.725 404.326 M94.032 423.556 C 94.049 425.230,94.139 426.420,94.231 426.200 C 94.340 425.942,98.763 425.843,106.700 425.920 L 119.000 426.040 121.500 428.509 L 124.000 430.977 124.000 437.405 L 124.000 443.833 121.700 445.007 L 119.400 446.180 109.582 446.390 C 99.024 446.616,98.340 446.753,97.114 448.900 C 96.525 449.932,96.099 480.000,96.674 480.000 C 96.853 480.000,96.960 473.813,96.911 466.251 C 96.818 452.048,97.085 449.000,98.418 449.000 C 98.738 449.000,99.000 448.736,99.000 448.413 C 99.000 447.328,102.031 446.925,110.800 446.844 C 115.530 446.801,120.506 446.592,121.858 446.381 C 123.211 446.170,124.776 445.960,125.336 445.914 C 125.897 445.867,127.040 445.364,127.878 444.796 L 129.400 443.763 129.510 437.473 L 129.620 431.184 124.208 425.772 L 118.795 420.359 106.398 420.436 L 94.000 420.512 94.032 423.556 M220.935 427.639 C 220.531 427.790,216.773 427.938,212.584 427.968 C 208.395 427.998,204.525 428.101,203.984 428.196 C 203.443 428.291,202.370 428.444,201.600 428.535 C 199.058 428.835,197.814 429.290,196.700 430.326 L 195.600 431.350 195.600 437.654 L 195.600 443.959 196.971 445.005 C 197.725 445.580,198.940 446.134,199.671 446.236 C 206.963 447.252,207.158 447.200,203.389 445.251 L 200.781 443.903 200.890 437.451 L 201.000 431.000 203.400 429.711 L 205.800 428.422 212.436 428.411 C 218.693 428.401,220.499 428.631,223.300 429.795 C 223.891 430.040,224.000 429.861,224.000 428.636 C 224.000 427.114,223.114 426.826,220.935 427.639 M223.000 446.000 C 222.560 446.189,221.536 446.356,220.724 446.372 C 218.653 446.411,218.469 447.080,220.388 447.597 C 221.275 447.835,222.000 448.215,222.000 448.439 C 222.000 448.664,222.160 448.749,222.355 448.628 C 222.975 448.245,225.495 450.919,226.736 453.278 C 227.933 455.554,227.934 455.561,227.982 462.867 C 228.062 474.892,227.478 474.283,239.182 474.568 C 243.702 474.678,247.850 474.820,248.400 474.884 C 249.139 474.970,249.391 474.818,249.367 474.300 C 249.348 473.915,249.303 472.883,249.267 472.008 L 249.200 470.415 246.667 471.808 L 244.134 473.200 237.529 473.200 C 230.271 473.200,230.431 473.251,229.048 470.520 C 227.932 468.315,228.174 454.050,229.378 451.149 C 229.573 450.680,229.381 450.432,228.689 450.258 C 227.226 449.891,225.566 448.416,224.946 446.933 C 224.354 445.515,224.247 445.464,223.000 446.000 M303.482 471.286 L 300.764 473.800 301.036 476.800 C 301.186 478.450,301.482 480.020,301.694 480.288 C 301.906 480.558,302.053 483.427,302.022 486.718 C 301.991 489.987,302.168 493.547,302.416 494.630 C 302.664 495.714,302.947 497.210,303.044 497.955 C 303.142 498.700,303.377 500.050,303.566 500.955 C 304.052 503.268,304.036 503.049,304.262 510.900 C 304.496 519.049,304.201 520.424,301.517 523.694 C 299.943 525.612,299.737 527.160,300.792 529.145 C 301.090 529.704,303.984 526.505,305.494 523.948 L 306.196 522.761 317.698 522.880 C 325.102 522.957,329.261 522.857,329.369 522.600 C 329.461 522.380,329.551 522.419,329.568 522.687 C 329.586 522.956,329.856 523.077,330.168 522.957 C 330.535 522.816,330.802 523.068,330.923 523.669 C 331.026 524.181,331.084 512.540,331.053 497.800 C 331.022 483.060,330.849 470.699,330.667 470.331 C 330.085 469.148,329.190 469.051,317.600 468.910 L 306.200 468.771 303.482 471.286 M204.633 479.417 C 203.772 480.178,203.154 480.887,203.261 480.994 C 203.367 481.101,204.063 480.561,204.806 479.794 L 206.157 478.400 212.698 478.400 C 217.936 478.400,219.495 478.529,220.520 479.048 C 223.245 480.428,223.200 480.288,223.200 487.375 L 223.200 493.825 220.888 496.113 L 218.577 498.400 212.488 498.400 C 205.658 498.400,205.627 498.388,204.008 495.217 C 203.555 494.327,203.109 493.600,203.018 493.600 C 202.734 493.600,203.228 495.752,203.620 496.224 C 203.825 496.471,203.893 496.774,203.770 496.897 C 203.647 497.020,204.195 497.768,204.987 498.560 L 206.427 500.000 212.550 500.000 L 218.673 500.000 221.527 497.163 L 224.381 494.325 224.490 487.663 C 224.649 478.007,224.628 477.989,213.146 478.017 L 206.200 478.033 204.633 479.417 M96.925 496.740 C 97.298 501.406,98.594 502.702,103.260 503.075 C 104.877 503.205,106.098 503.198,105.973 503.061 C 105.848 502.924,104.903 502.780,103.873 502.741 C 102.843 502.702,102.000 502.558,102.000 502.420 C 102.000 502.283,101.611 502.141,101.136 502.105 C 100.661 502.069,100.124 501.806,99.942 501.520 C 99.761 501.234,99.609 501.142,99.606 501.316 C 99.603 501.489,99.349 501.399,99.042 501.116 C 98.735 500.832,98.556 500.480,98.644 500.334 C 98.733 500.188,98.616 500.005,98.385 499.928 C 98.154 499.851,97.934 499.386,97.897 498.894 C 97.860 498.402,97.717 498.000,97.580 498.000 C 97.442 498.000,97.298 497.157,97.259 496.127 C 97.220 495.097,97.076 494.152,96.939 494.027 C 96.802 493.902,96.795 495.123,96.925 496.740 M118.999 503.135 C 118.887 503.246,119.922 503.914,121.298 504.619 L 123.800 505.901 124.000 513.050 C 124.235 521.454,124.753 522.974,128.005 524.795 C 131.987 527.024,147.688 526.122,154.926 523.247 C 155.700 522.940,161.915 522.800,174.776 522.800 L 193.500 522.800 195.850 523.845 C 200.656 525.981,205.165 526.790,212.293 526.795 L 218.786 526.800 221.393 528.396 L 224.000 529.991 224.000 528.247 C 224.000 526.510,223.993 526.501,222.338 526.237 C 221.424 526.090,220.500 525.861,220.283 525.728 C 220.067 525.594,216.797 525.522,213.015 525.567 C 207.298 525.636,206.055 525.548,205.638 525.045 C 205.362 524.713,204.479 524.224,203.676 523.959 C 202.873 523.694,201.703 522.965,201.077 522.339 C 200.451 521.712,199.817 521.199,199.669 521.197 C 198.520 521.187,198.000 518.553,198.000 512.741 C 198.000 506.162,197.825 505.496,195.926 504.834 C 193.064 503.837,154.954 504.245,151.552 505.309 L 148.600 506.233 148.400 512.598 L 148.200 518.964 146.200 519.680 C 144.583 520.260,142.929 520.397,137.562 520.398 C 129.029 520.400,129.600 520.953,129.600 512.691 L 129.600 506.445 128.076 505.166 C 127.238 504.462,126.023 503.827,125.376 503.754 C 124.729 503.682,123.075 503.467,121.700 503.277 C 120.326 503.088,119.110 503.024,118.999 503.135 " stroke="none" fill="#4c3434" fill-rule="evenodd"></path><path id="path6" d="M153.400 149.283 C 149.672 150.572,148.885 152.710,148.824 161.707 C 148.773 169.398,148.967 168.864,145.600 170.582 C 143.935 171.432,143.142 171.518,135.000 171.727 C 128.925 171.884,125.333 172.159,123.400 172.615 C 121.597 173.040,117.679 173.377,112.400 173.560 C 99.534 174.008,98.827 174.724,98.810 187.332 L 98.800 194.064 96.432 196.432 L 94.064 198.800 87.332 198.810 C 79.606 198.820,77.974 199.096,76.320 200.668 C 73.644 203.211,73.820 200.862,73.600 236.895 L 73.400 269.590 71.496 271.495 L 69.592 273.400 61.896 273.623 C 52.454 273.895,50.146 274.881,49.177 279.055 C 48.703 281.099,48.713 318.943,49.189 321.000 C 50.142 325.126,53.409 326.400,63.042 326.400 L 69.245 326.400 70.122 328.300 C 71.723 331.766,71.638 341.749,69.960 347.327 L 68.658 351.653 57.829 351.547 C 51.873 351.488,46.595 351.301,46.100 351.130 C 45.400 350.889,45.191 350.973,45.160 351.510 C 45.135 351.946,45.010 351.831,44.821 351.200 C 44.180 349.062,43.948 353.911,44.143 365.400 C 44.366 378.603,44.350 378.394,45.203 379.200 C 45.737 379.705,45.740 379.737,45.219 379.400 C 44.675 379.048,44.668 379.087,45.164 379.718 C 45.474 380.113,45.964 380.346,46.251 380.236 C 46.539 380.125,46.871 380.192,46.990 380.383 C 47.108 380.575,46.979 380.823,46.702 380.934 C 46.390 381.060,46.456 381.149,46.876 381.168 C 47.248 381.186,47.664 381.019,47.801 380.799 C 47.941 380.572,48.517 380.519,49.125 380.678 C 49.716 380.832,54.430 380.968,59.600 380.979 L 69.000 381.000 69.021 390.400 C 69.032 395.570,69.168 400.284,69.322 400.875 C 69.481 401.483,69.428 402.059,69.201 402.199 C 68.981 402.336,68.814 402.752,68.832 403.124 C 68.851 403.544,68.940 403.610,69.066 403.298 C 69.177 403.021,69.425 402.892,69.617 403.010 C 69.808 403.129,69.875 403.461,69.764 403.749 C 69.654 404.036,69.887 404.526,70.282 404.836 C 70.913 405.332,70.952 405.325,70.600 404.781 C 70.263 404.260,70.295 404.263,70.800 404.797 C 71.593 405.637,71.478 405.627,83.000 405.839 C 88.500 405.940,93.225 406.102,93.500 406.199 C 93.874 406.331,94.000 408.138,94.000 413.387 C 94.000 419.788,94.061 420.403,94.700 420.430 C 95.085 420.447,100.665 420.435,107.100 420.405 L 118.801 420.350 124.211 425.760 L 129.620 431.170 129.510 437.466 L 129.400 443.763 127.800 444.869 C 123.344 447.951,120.952 448.544,112.000 448.786 C 97.375 449.181,98.284 446.424,99.532 486.600 C 99.942 499.827,100.174 500.080,112.200 500.406 C 120.880 500.641,123.784 501.470,127.700 504.831 L 129.600 506.462 129.600 512.769 C 129.600 518.371,129.682 519.150,130.331 519.738 C 131.442 520.743,143.355 520.700,146.200 519.680 L 148.200 518.964 148.400 512.593 L 148.600 506.223 152.000 505.143 L 155.400 504.062 175.292 504.031 C 201.118 503.991,198.743 503.092,198.903 512.968 L 199.000 518.937 202.200 520.568 L 205.400 522.200 212.350 522.326 C 218.744 522.443,219.415 522.525,220.750 523.355 C 221.547 523.851,222.458 524.409,222.773 524.597 C 223.087 524.784,222.843 524.279,222.230 523.475 C 220.070 520.643,219.280 520.400,212.237 520.400 C 206.736 520.400,205.774 520.301,204.384 519.592 L 202.800 518.784 202.800 512.372 L 202.800 505.961 204.500 505.189 C 205.946 504.533,207.144 504.416,212.516 504.409 C 220.777 504.397,224.224 502.545,228.219 495.969 L 229.600 493.695 229.600 487.310 C 229.600 479.076,229.081 479.601,237.231 479.598 C 244.023 479.595,245.855 479.265,247.499 477.746 C 248.347 476.964,248.416 476.799,247.800 477.032 C 247.360 477.198,243.268 477.439,238.707 477.567 L 230.414 477.800 229.107 479.107 L 227.800 480.413 227.600 487.388 L 227.400 494.362 225.623 496.481 C 224.645 497.646,222.755 499.552,221.423 500.715 L 219.000 502.829 211.328 502.715 C 200.350 502.551,200.508 502.752,200.439 488.838 L 200.400 481.076 201.482 479.638 C 204.455 475.686,204.535 475.659,213.600 475.510 C 224.837 475.325,225.313 474.848,225.537 463.520 C 225.781 451.185,224.602 449.914,212.631 449.600 L 205.000 449.400 201.856 447.899 C 200.127 447.073,198.012 445.843,197.156 445.165 L 195.600 443.933 195.600 437.608 L 195.600 431.283 197.079 429.984 C 197.893 429.270,199.918 428.036,201.579 427.243 L 204.600 425.800 213.800 425.600 L 223.000 425.399 221.049 424.458 C 216.360 422.197,201.661 423.684,195.650 427.027 L 193.899 428.000 162.443 428.000 L 130.987 428.000 126.502 423.500 L 122.018 419.000 121.909 412.422 L 121.800 405.844 120.400 405.022 C 119.120 404.270,118.159 404.183,109.181 404.000 C 95.409 403.719,96.253 404.556,96.071 391.000 L 95.943 381.400 94.947 380.353 L 93.951 379.305 84.476 379.120 C 70.582 378.848,71.155 379.409,70.887 365.800 L 70.707 356.600 72.232 350.400 C 73.699 344.438,73.766 343.863,73.984 335.400 C 74.308 322.800,73.624 323.511,85.662 323.275 L 94.324 323.105 96.262 321.138 L 98.200 319.172 98.400 309.599 C 98.655 297.375,97.375 298.655,109.599 298.400 L 119.172 298.200 121.140 296.261 L 123.107 294.322 123.312 285.261 C 123.603 272.433,122.372 273.582,136.200 273.237 C 147.139 272.964,148.637 272.653,151.300 270.104 L 152.400 269.050 152.400 262.500 C 152.400 250.410,149.574 247.592,137.467 247.609 C 125.220 247.625,122.400 250.659,122.400 263.815 C 122.400 273.037,123.037 272.400,113.815 272.400 C 105.556 272.400,103.637 272.891,100.931 275.696 C 97.947 278.789,97.824 279.247,97.600 288.087 C 97.342 298.245,98.245 297.342,88.087 297.600 C 79.247 297.824,78.789 297.947,75.696 300.931 C 72.925 303.604,72.400 305.594,72.400 313.433 C 72.400 322.484,72.926 322.000,63.090 322.000 L 55.744 322.000 54.072 320.569 L 52.400 319.138 52.400 299.986 L 52.400 280.834 53.938 279.217 L 55.476 277.600 62.038 277.596 C 71.091 277.591,73.912 276.300,76.450 271.000 L 77.599 268.600 77.600 237.038 L 77.600 205.476 79.217 203.938 L 80.834 202.400 87.384 202.400 C 99.607 202.400,102.400 199.618,102.400 187.442 L 102.400 180.834 103.938 179.217 L 105.476 177.600 111.954 177.600 C 117.508 177.600,118.644 177.492,119.916 176.846 C 124.415 174.561,127.809 173.895,136.400 173.615 C 145.415 173.321,146.623 173.018,150.700 170.038 L 152.400 168.795 152.403 162.497 C 152.406 155.579,152.640 154.752,155.057 153.159 C 156.163 152.430,158.025 152.405,212.683 152.403 L 269.166 152.400 270.783 153.938 L 272.400 155.476 272.400 162.038 C 272.401 171.112,273.777 174.053,279.200 176.571 L 281.400 177.592 300.487 177.596 L 319.573 177.600 320.987 179.013 L 322.400 180.427 322.400 186.798 C 322.400 195.869,323.967 199.248,329.254 201.579 L 331.108 202.397 333.367 201.398 C 340.858 198.085,346.862 197.943,349.560 201.016 C 351.303 203.001,351.401 203.988,351.389 219.400 L 351.377 233.400 350.268 237.000 C 349.658 238.980,348.808 241.332,348.380 242.226 C 347.633 243.785,347.600 244.893,347.600 268.740 C 347.600 296.264,347.746 294.703,345.011 296.393 C 343.842 297.116,343.022 297.200,337.153 297.204 C 328.397 297.209,325.660 298.448,323.116 303.559 L 322.200 305.400 322.093 337.229 L 321.986 369.058 320.579 369.729 C 317.911 371.002,303.537 370.593,299.900 369.142 L 298.800 368.703 298.800 362.125 L 298.800 355.548 296.626 353.374 L 294.452 351.200 287.670 351.200 L 280.887 351.200 280.143 352.900 C 279.462 354.459,279.383 356.240,279.200 374.360 L 279.000 394.121 276.600 395.456 C 271.659 398.204,268.976 398.800,261.552 398.800 L 254.907 398.800 252.076 400.217 C 250.237 401.137,248.606 402.344,247.422 403.660 L 245.600 405.687 245.613 412.343 C 245.625 418.698,245.906 420.400,246.944 420.400 C 247.085 420.400,247.200 417.175,247.200 413.234 L 247.200 406.068 248.986 404.496 C 252.913 401.040,255.024 400.400,262.507 400.400 C 270.901 400.400,275.586 399.119,279.618 395.722 C 280.934 394.613,281.029 394.598,287.575 394.400 L 294.200 394.200 294.414 385.800 C 294.756 372.421,294.382 372.744,310.000 372.368 C 321.686 372.087,324.329 371.537,326.094 369.019 C 326.256 368.789,326.391 354.496,326.394 337.258 L 326.400 305.915 327.615 304.381 C 329.955 301.426,330.577 301.241,338.356 301.181 C 351.992 301.077,351.200 303.023,351.200 269.631 C 351.200 244.539,351.214 244.077,352.084 240.964 C 353.211 236.931,353.510 201.477,352.434 199.464 C 350.989 196.762,341.785 195.963,334.303 197.891 L 331.206 198.689 329.703 197.581 C 326.587 195.286,326.498 195.002,326.311 186.769 C 326.132 178.894,325.817 177.434,323.935 175.776 C 321.689 173.798,321.846 173.812,300.505 173.600 L 280.410 173.400 278.505 171.496 L 276.600 169.592 276.377 161.896 C 276.105 152.454,275.120 150.148,270.945 149.176 C 268.695 148.652,154.926 148.756,153.400 149.283 M146.432 253.568 L 148.800 255.936 148.800 262.390 L 148.800 268.844 146.597 269.853 C 143.612 271.219,129.978 271.191,127.700 269.814 L 126.400 269.028 126.400 262.498 C 126.400 255.146,126.530 254.756,129.779 252.363 L 131.358 251.200 137.711 251.200 L 144.064 251.200 146.432 253.568 M204.629 273.207 C 199.237 275.312,197.609 278.670,197.604 287.700 L 197.600 294.400 196.000 296.000 L 194.400 297.600 187.700 297.609 C 175.395 297.625,172.400 300.664,172.400 313.134 L 172.400 319.438 170.883 320.919 L 169.366 322.400 162.903 322.400 L 156.441 322.400 155.427 323.729 C 154.870 324.459,153.781 326.428,153.007 328.102 L 151.600 331.148 151.609 337.674 C 151.618 344.669,151.778 345.282,153.874 346.353 C 155.018 346.938,172.463 346.939,176.000 346.354 C 177.430 346.117,182.658 345.806,187.618 345.662 C 195.287 345.439,196.798 345.294,197.718 344.691 L 198.800 343.982 198.800 337.922 C 198.800 332.372,198.885 331.650,199.813 329.331 C 201.689 324.641,202.387 320.091,202.394 312.500 L 202.400 305.600 204.000 304.000 L 205.600 302.400 212.300 302.391 C 224.475 302.375,227.604 299.285,227.596 287.285 C 227.591 278.983,226.171 276.027,221.000 273.550 C 217.867 272.050,208.117 271.845,204.629 273.207 M119.814 277.700 C 120.506 278.844,120.616 279.893,120.731 286.451 L 120.861 293.903 119.781 294.983 L 118.700 296.063 111.650 295.930 C 105.236 295.809,104.447 295.715,102.900 294.890 L 101.200 293.984 101.200 287.670 C 101.200 277.706,102.474 276.427,112.414 276.411 L 119.028 276.400 119.814 277.700 M221.461 278.539 L 223.600 280.678 223.600 287.366 C 223.600 294.903,223.419 295.431,220.027 297.781 L 218.480 298.854 211.668 298.727 C 201.651 298.540,201.202 298.071,201.201 287.778 C 201.200 280.649,201.358 280.159,204.505 277.511 L 205.800 276.422 212.561 276.411 L 219.322 276.400 221.461 278.539 M94.890 302.900 C 95.715 304.447,95.809 305.236,95.930 311.650 L 96.063 318.700 95.013 319.750 L 93.964 320.800 86.908 320.800 C 80.570 320.800,79.677 320.715,78.126 319.964 L 76.400 319.129 76.400 312.548 C 76.400 305.139,76.526 304.759,79.779 302.363 L 81.358 301.200 87.671 301.200 L 93.984 301.200 94.890 302.900 M196.272 302.228 C 200.499 305.333,199.921 319.123,195.254 326.497 L 193.800 328.793 187.282 328.797 C 178.428 328.801,178.800 328.433,178.800 337.192 C 178.800 344.730,179.408 343.961,172.656 344.964 C 166.021 345.950,156.419 345.844,155.054 344.771 L 154.000 343.942 154.000 337.597 C 154.000 331.659,154.066 331.100,155.032 328.873 L 156.064 326.494 163.732 326.332 C 175.872 326.076,176.077 325.870,176.334 313.617 C 176.518 304.886,176.564 304.737,179.800 302.342 L 181.400 301.158 188.272 301.279 C 194.483 301.388,195.253 301.480,196.272 302.228 M229.000 323.524 C 223.563 326.187,222.409 328.836,222.404 338.671 C 222.400 345.909,222.368 346.112,221.071 347.263 C 221.032 347.298,217.369 347.433,212.931 347.563 C 201.844 347.888,202.056 347.646,201.719 360.400 C 201.515 368.114,201.527 368.268,202.851 374.400 C 204.003 379.739,204.206 381.516,204.314 387.195 C 204.482 396.083,204.004 395.600,212.641 395.600 L 219.142 395.600 219.971 394.546 C 220.730 393.581,220.800 392.960,220.800 387.207 C 220.800 381.842,220.954 380.253,221.852 376.361 C 222.781 372.334,222.937 370.582,223.188 361.393 C 223.571 347.335,222.592 348.400,235.145 348.400 C 243.510 348.400,250.893 347.509,254.000 346.124 C 254.330 345.977,258.290 345.750,262.800 345.620 C 269.630 345.422,271.251 345.260,272.500 344.646 L 274.000 343.909 274.000 337.322 L 274.000 330.736 271.632 328.368 L 269.264 326.000 262.612 326.000 C 257.317 326.000,255.710 325.870,254.732 325.365 C 251.437 323.661,246.014 322.706,238.600 322.525 L 231.400 322.349 229.000 323.524 M246.908 327.412 C 248.279 327.969,250.345 328.997,251.500 329.697 L 253.600 330.969 253.600 337.485 C 253.600 341.068,253.524 344.000,253.432 344.000 C 253.340 344.000,251.135 344.461,248.532 345.024 C 242.187 346.396,230.871 346.362,228.200 344.961 L 226.600 344.122 226.490 337.410 L 226.380 330.698 228.529 328.549 L 230.678 326.400 237.547 326.400 C 243.973 326.400,244.577 326.465,246.908 327.412 M128.712 350.385 C 123.371 355.086,123.758 370.817,129.422 379.233 L 130.780 381.251 130.890 387.726 L 131.000 394.200 137.500 394.310 L 144.000 394.420 144.000 387.982 L 144.000 381.544 145.236 379.747 C 149.080 374.161,150.141 369.804,149.899 360.600 C 149.588 348.761,149.626 348.800,138.276 348.800 L 130.513 348.800 128.712 350.385 M145.641 351.303 C 150.431 354.487,150.112 370.020,145.084 378.439 L 143.793 380.600 137.522 380.710 L 131.250 380.820 129.852 378.310 C 124.832 369.301,124.779 355.817,129.748 351.516 C 131.553 349.954,143.372 349.796,145.641 351.303 M219.900 353.185 C 221.561 356.479,221.156 369.768,219.166 377.300 L 218.769 378.800 212.575 378.800 C 205.344 378.800,206.190 379.467,204.816 372.680 C 203.559 366.469,203.733 355.948,205.140 353.090 L 206.081 351.181 212.540 351.290 L 219.000 351.400 219.900 353.185 M171.800 446.608 L 193.400 446.826 195.600 447.974 C 200.383 450.469,202.678 450.929,211.600 451.182 C 223.672 451.523,223.600 451.455,223.600 462.440 C 223.600 472.952,222.975 473.600,212.840 473.600 C 205.581 473.600,204.691 473.817,202.015 476.234 C 199.103 478.865,198.800 479.877,198.800 486.964 C 198.800 501.876,199.948 501.195,174.800 501.203 C 156.901 501.209,155.013 501.275,150.400 502.056 C 147.290 502.582,142.857 502.972,138.673 503.085 L 131.945 503.268 129.073 501.857 C 123.958 499.343,121.147 498.800,113.255 498.800 C 105.357 498.800,104.596 498.568,102.362 495.484 L 101.200 493.880 101.187 486.440 C 101.180 482.122,100.931 477.321,100.595 475.000 C 99.605 468.166,99.781 455.804,100.900 453.585 C 102.440 450.532,104.051 450.001,111.785 449.997 C 119.203 449.994,128.071 448.222,130.199 446.319 C 130.424 446.117,134.871 446.055,140.399 446.176 C 145.790 446.293,159.920 446.488,171.800 446.608 M298.985 477.012 L 297.400 479.800 297.278 486.600 L 297.156 493.400 298.403 496.400 C 301.149 503.010,302.161 514.389,300.636 521.500 C 299.975 524.577,299.946 524.579,302.233 521.375 L 304.106 518.750 303.881 510.475 C 303.659 502.277,303.142 498.452,301.802 495.092 C 301.336 493.925,301.191 491.620,301.160 484.892 C 301.109 473.639,301.041 473.395,298.985 477.012 M280.333 476.706 C 280.166 477.090,275.379 480.674,274.756 480.881 C 272.789 481.537,279.680 488.368,281.777 487.842 C 283.616 487.380,288.000 482.740,288.000 481.256 C 288.000 479.611,280.903 475.399,280.333 476.706 " stroke="none" fill="#7c4444" fill-rule="evenodd"></path><path id="path7" d="M80.417 353.943 C 79.753 356.173,79.600 357.807,79.600 362.673 C 79.600 370.811,78.947 370.291,89.400 370.473 C 103.019 370.710,104.415 372.144,104.711 386.200 C 104.916 395.960,104.250 395.200,112.600 395.200 C 121.290 395.200,120.593 396.194,120.232 384.305 C 120.076 379.187,119.803 370.050,119.625 364.000 C 119.448 357.950,119.168 352.595,119.004 352.100 L 118.707 351.200 99.970 351.200 L 81.234 351.200 80.417 353.943 M155.895 355.500 C 154.865 356.646,154.693 395.639,155.710 397.500 L 156.421 398.800 162.625 398.800 L 168.829 398.800 171.215 396.480 L 173.600 394.161 173.600 375.146 L 173.600 356.131 170.843 355.465 C 166.808 354.492,156.781 354.515,155.895 355.500 M117.233 455.100 C 109.968 455.175,106.086 455.362,105.733 455.656 C 105.052 456.221,105.056 467.945,105.739 471.200 L 106.200 473.400 125.177 473.504 L 144.153 473.608 146.487 471.208 L 148.820 468.808 148.710 462.538 L 148.600 456.268 146.600 455.565 C 144.464 454.814,144.628 454.817,117.233 455.100 " stroke="none" fill="#f4c49c" fill-rule="evenodd"></path><path id="path8" d="M245.000 422.024 C 244.120 422.205,240.520 422.367,237.000 422.382 L 230.600 422.410 227.400 424.157 L 224.200 425.905 224.337 435.852 C 224.539 450.542,224.423 450.400,236.181 450.400 L 243.843 450.400 245.687 451.569 C 246.786 452.266,247.971 453.491,248.623 454.604 L 249.717 456.470 249.516 464.735 C 249.286 474.161,249.406 475.835,250.341 476.210 C 253.021 477.285,255.741 477.600,262.350 477.600 C 270.104 477.600,270.725 477.472,278.343 474.311 L 281.285 473.090 286.343 473.810 C 297.547 475.406,299.134 475.155,303.758 471.059 L 306.400 468.718 306.377 449.459 C 306.364 438.867,306.226 429.480,306.070 428.600 L 305.787 427.000 280.793 426.883 L 255.800 426.765 251.800 424.404 C 247.060 421.606,247.048 421.602,245.000 422.024 M227.301 525.067 C 227.135 525.104,226.339 525.245,225.530 525.380 L 224.060 525.625 224.285 534.712 C 224.551 545.528,224.975 547.310,227.706 549.118 L 229.341 550.200 261.771 550.312 C 299.576 550.444,297.801 550.647,299.759 545.961 C 300.438 544.335,300.728 528.308,300.115 526.258 L 299.773 525.116 263.687 525.058 C 243.840 525.026,227.466 525.030,227.301 525.067 " stroke="none" fill="#377595" fill-rule="evenodd"></path></g></svg>