<svg id="svg" version="1.1" xmlns="http://www.w3.org/2000/svg" xmlns:xlink="http://www.w3.org/1999/xlink" width="400" height="600" viewBox="0, 0, 400,600"><g id="svgg"><path id="path0" d="M154.759 127.770 C 152.147 129.545,152.000 130.044,152.000 137.157 L 152.000 143.542 150.500 144.785 C 146.831 147.824,145.025 148.293,136.191 148.502 C 128.035 148.695,123.175 149.552,119.520 151.442 C 118.726 151.852,116.723 152.000,111.967 152.000 L 105.495 152.000 103.747 153.747 L 102.000 155.495 101.991 162.047 C 101.975 174.055,99.257 176.800,87.385 176.800 L 80.762 176.800 78.781 178.781 L 76.800 180.762 76.800 212.385 C 76.800 248.198,77.008 245.873,73.516 249.028 C 70.580 251.681,69.417 251.981,62.047 251.991 L 55.495 252.000 53.747 253.747 L 52.000 255.495 52.000 274.917 L 52.000 294.339 52.995 295.522 C 54.866 297.744,55.988 298.000,63.871 298.000 C 73.639 298.000,72.715 296.846,72.764 309.096 L 72.804 319.000 71.202 324.798 L 69.600 330.596 69.600 342.436 C 69.600 353.206,69.663 354.333,70.300 354.905 C 70.899 355.443,72.646 355.541,82.397 355.584 C 88.666 355.612,93.923 355.763,94.080 355.920 C 94.237 356.077,94.388 361.334,94.416 367.603 C 94.459 377.354,94.557 379.101,95.095 379.700 C 95.666 380.336,96.777 380.400,107.213 380.400 C 115.939 380.400,118.802 380.521,119.119 380.902 C 119.361 381.194,119.606 384.585,119.704 389.002 C 120.015 402.925,117.995 402.000,148.091 402.000 L 168.717 402.000 173.658 400.728 L 178.600 399.456 198.800 399.301 C 224.753 399.103,228.735 399.535,230.638 402.756 L 231.372 404.000 237.637 404.000 C 245.818 404.000,245.600 404.393,245.600 389.649 L 245.600 381.045 247.700 379.015 C 251.638 375.207,253.374 374.655,262.200 374.404 C 270.678 374.162,272.763 373.626,277.600 370.446 L 279.800 369.000 280.000 349.200 C 280.145 334.820,280.334 329.099,280.690 328.300 L 281.180 327.200 287.705 327.200 L 294.230 327.200 296.115 329.114 L 298.000 331.027 298.000 337.465 L 298.000 343.903 299.100 344.342 C 302.931 345.871,318.054 346.193,321.100 344.811 L 322.800 344.039 322.800 312.498 L 322.800 280.957 323.827 278.896 C 326.275 273.984,328.916 272.820,337.649 272.809 L 344.297 272.800 346.049 271.246 L 347.800 269.693 348.029 256.546 C 348.253 243.645,348.277 243.348,349.298 240.600 C 351.554 234.530,351.600 233.847,351.600 206.089 C 351.600 178.028,351.573 177.673,349.233 175.432 C 346.582 172.892,339.981 173.213,332.384 176.253 C 330.576 176.977,328.622 176.196,326.213 173.787 C 323.487 171.061,323.200 170.009,323.200 162.763 C 323.200 151.393,324.494 152.002,300.338 151.991 C 279.137 151.981,279.851 152.070,276.484 149.028 C 273.607 146.429,273.200 144.987,273.200 137.385 L 273.200 130.762 271.219 128.781 L 269.238 126.800 212.712 126.800 L 156.186 126.800 154.759 127.770 M170.905 150.780 C 172.060 151.513,173.330 152.841,174.253 154.280 C 177.313 159.054,177.721 159.597,178.946 160.518 C 179.636 161.038,181.157 161.979,182.328 162.610 C 184.806 163.946,186.400 165.637,187.814 168.428 C 189.134 171.032,191.172 173.014,194.613 175.042 C 197.458 176.717,198.537 177.903,201.288 182.381 C 202.278 183.992,203.409 185.204,204.666 186.001 L 206.557 187.200 212.886 187.200 C 220.778 187.200,222.596 188.096,225.248 193.293 C 226.248 195.255,228.986 198.269,230.459 199.031 C 232.109 199.884,317.891 199.884,319.541 199.031 C 321.026 198.263,323.755 195.249,324.774 193.251 C 326.059 190.732,327.863 188.916,330.600 187.385 C 332.911 186.093,336.800 182.512,336.800 181.676 C 336.800 181.327,341.292 179.143,343.110 178.608 C 343.816 178.400,344.331 178.651,345.410 179.730 L 346.800 181.120 346.800 206.120 L 346.800 231.120 345.360 234.560 L 343.920 238.000 337.439 238.000 L 330.958 238.000 329.341 239.189 C 327.768 240.346,327.369 240.858,324.253 245.720 C 323.330 247.159,322.060 248.487,320.905 249.220 L 319.043 250.400 300.000 250.400 L 280.957 250.400 279.095 249.220 C 277.940 248.487,276.670 247.159,275.747 245.720 C 272.631 240.858,272.232 240.346,270.659 239.189 L 269.042 238.000 262.566 238.000 L 256.090 238.000 254.145 236.700 C 252.904 235.870,251.595 234.459,250.528 232.800 C 247.992 228.857,246.108 226.899,243.223 225.207 C 240.195 223.433,238.947 222.191,237.390 219.400 C 236.091 217.074,233.470 214.183,231.920 213.368 C 231.020 212.895,226.656 212.800,205.806 212.800 C 183.046 212.800,180.673 212.739,179.686 212.127 C 177.691 210.891,176.343 209.422,174.797 206.800 C 173.054 203.842,171.037 201.804,168.335 200.268 C 165.398 198.598,164.106 197.321,162.402 194.404 C 161.530 192.911,159.894 190.859,158.765 189.845 L 156.713 188.000 150.149 188.000 C 142.026 188.000,139.936 186.963,137.185 181.571 C 135.930 179.110,133.739 176.917,130.835 175.215 C 125.215 171.920,124.403 170.323,124.401 162.546 C 124.400 155.664,124.100 156.276,128.400 154.384 C 130.430 153.490,131.265 153.397,139.200 153.176 C 148.042 152.929,152.647 152.069,155.389 150.152 C 155.980 149.738,157.791 149.600,162.611 149.600 L 169.043 149.600 170.905 150.780 M145.793 224.039 C 150.613 226.304,152.055 229.564,151.910 237.862 L 151.800 244.163 150.190 245.294 C 146.152 248.131,125.770 248.752,123.757 246.100 C 122.796 244.835,122.995 231.169,124.003 229.195 C 125.004 227.232,127.153 225.056,129.108 224.023 C 131.410 222.808,143.197 222.818,145.793 224.039 M121.074 248.780 C 122.335 249.617,122.389 250.071,122.395 260.053 L 122.400 269.106 120.753 270.753 L 119.106 272.400 110.053 272.395 C 97.312 272.387,98.256 273.098,98.068 263.364 C 97.895 254.402,99.179 251.473,104.416 248.887 C 106.648 247.784,119.450 247.702,121.074 248.780 M220.255 248.769 C 225.510 251.155,226.800 253.884,226.800 262.612 C 226.800 274.164,224.200 276.800,212.803 276.800 C 202.331 276.800,202.306 276.825,201.951 287.980 C 201.685 296.319,201.114 299.458,198.994 304.252 C 198.076 306.328,198.000 306.969,198.000 312.660 L 198.000 318.820 196.900 319.288 C 196.269 319.556,192.303 319.876,187.600 320.038 C 183.090 320.194,177.600 320.605,175.400 320.953 C 170.582 321.714,156.045 321.854,154.674 321.153 C 151.034 319.292,151.343 306.566,155.186 300.020 L 156.254 298.200 162.827 298.000 C 172.711 297.699,173.200 297.192,173.200 287.237 C 173.200 275.854,175.846 273.200,187.197 273.200 C 197.591 273.200,197.996 272.813,197.999 262.896 C 198.000 254.293,199.346 251.359,204.416 248.904 C 206.937 247.683,217.663 247.592,220.255 248.769 M147.225 252.684 C 148.442 253.077,149.992 253.986,150.871 254.822 L 152.400 256.276 152.400 274.749 L 152.400 293.223 151.250 295.511 C 149.063 299.861,148.297 303.830,148.103 311.800 C 147.862 321.670,147.945 321.595,137.313 321.609 C 128.565 321.620,126.384 322.539,124.276 327.103 C 122.226 331.541,122.944 346.678,125.514 353.200 C 126.455 355.588,126.559 356.467,126.785 364.000 C 127.134 375.652,126.723 375.200,136.965 375.200 C 147.095 375.200,148.051 374.131,148.420 362.400 C 148.608 356.424,148.770 355.078,149.528 353.200 C 151.237 348.964,151.999 343.844,152.009 336.537 C 152.026 323.535,149.226 324.495,184.340 325.453 C 197.667 325.817,197.991 326.092,198.013 337.084 C 198.020 340.558,198.304 345.830,198.645 348.800 C 198.985 351.770,199.358 357.630,199.473 361.822 L 199.682 369.444 201.060 371.343 C 201.818 372.387,203.285 373.785,204.319 374.450 L 206.200 375.658 214.000 375.518 C 225.784 375.307,225.224 375.966,225.660 361.800 C 225.830 356.300,226.148 350.450,226.367 348.800 C 226.586 347.150,226.773 342.416,226.782 338.281 L 226.800 330.762 228.781 328.781 L 230.762 326.800 237.979 326.800 C 241.948 326.800,247.783 326.518,250.945 326.172 C 254.574 325.776,259.134 325.592,263.311 325.672 L 269.928 325.800 271.422 327.010 C 274.507 329.509,274.400 328.688,274.400 349.889 L 274.400 368.790 271.610 370.195 L 268.820 371.600 262.110 371.614 C 252.831 371.633,248.018 372.843,244.928 375.933 L 243.662 377.200 237.211 377.200 C 227.421 377.200,227.488 377.133,227.200 387.199 L 227.000 394.197 224.600 395.197 L 222.200 396.197 199.600 396.444 C 181.812 396.639,176.063 396.830,172.600 397.343 C 169.031 397.870,164.703 397.994,149.687 397.997 L 131.173 398.000 129.226 397.013 C 125.729 395.241,125.600 394.893,125.600 387.206 C 125.600 376.417,125.954 376.722,113.000 376.383 C 103.755 376.142,102.654 375.969,100.950 374.490 C 98.909 372.719,98.640 371.507,98.473 363.315 L 98.316 355.630 96.343 353.657 L 94.370 351.684 86.685 351.527 C 74.213 351.272,73.373 350.307,73.693 336.600 C 73.858 329.545,73.895 329.288,75.526 323.800 C 77.163 318.291,77.190 318.099,77.198 312.000 C 77.209 302.548,77.756 302.007,87.304 302.003 C 98.958 301.998,102.000 298.965,102.000 287.352 C 102.000 277.519,102.737 276.802,112.847 276.796 C 119.381 276.793,119.406 276.789,121.475 275.603 C 125.899 273.065,126.800 270.893,126.800 262.767 C 126.800 255.544,127.104 254.509,129.714 252.837 C 131.490 251.699,143.842 251.591,147.225 252.684 M96.100 273.757 C 97.201 274.593,97.600 277.904,97.600 286.223 L 97.600 293.937 95.724 295.813 L 93.849 297.688 84.180 297.539 C 72.000 297.351,73.200 298.335,73.200 288.535 C 73.200 278.936,74.130 276.651,79.108 274.023 C 80.995 273.027,94.852 272.809,96.100 273.757 M248.903 299.152 C 250.609 299.625,253.016 300.460,254.252 301.006 C 256.332 301.926,256.964 302.000,262.736 302.000 L 268.973 302.000 270.886 303.885 L 272.800 305.770 272.800 312.295 L 272.800 318.820 271.700 319.288 C 271.059 319.561,267.176 319.862,262.400 320.010 C 257.890 320.149,253.750 320.451,253.200 320.680 C 248.324 322.712,225.506 323.161,223.964 321.256 C 222.763 319.771,222.819 306.801,224.039 304.207 C 225.018 302.124,227.401 299.843,229.745 298.746 C 232.159 297.617,244.295 297.874,248.903 299.152 M221.256 323.964 C 223.147 325.495,222.837 344.682,220.786 353.039 C 220.182 355.495,220.008 357.631,220.005 362.620 C 219.999 370.612,220.609 370.000,212.651 370.000 C 204.235 370.000,204.800 370.564,204.800 362.153 C 204.800 357.184,204.620 354.842,204.042 352.315 C 201.529 341.328,201.843 327.066,204.660 324.249 L 205.709 323.200 213.010 323.200 C 219.601 323.200,220.403 323.274,221.256 323.964 M146.406 325.145 C 151.401 327.816,150.913 345.930,145.623 354.200 C 144.654 355.715,144.589 356.162,144.400 362.600 L 144.200 369.400 137.854 369.510 C 129.788 369.651,130.400 370.239,130.400 362.343 C 130.400 356.237,130.360 355.921,129.393 354.389 C 126.516 349.831,125.216 344.538,125.207 337.349 C 125.198 330.335,126.058 328.013,129.645 325.367 C 131.446 324.038,144.025 323.872,146.406 325.145 M44.267 353.867 C 43.806 354.327,43.975 354.800,44.600 354.800 C 44.930 354.800,45.200 355.070,45.200 355.400 C 45.200 356.110,45.833 356.194,46.238 355.538 C 46.395 355.284,46.361 355.166,46.162 355.275 C 45.729 355.512,44.365 354.168,44.700 353.833 C 44.828 353.705,44.843 353.600,44.733 353.600 C 44.623 353.600,44.413 353.720,44.267 353.867 M178.192 425.358 C 175.946 426.061,174.471 427.109,173.141 428.944 L 172.000 430.520 171.995 449.560 C 171.990 469.982,171.955 470.406,169.868 474.965 L 168.844 477.200 162.481 477.200 C 155.696 477.200,152.321 476.471,149.516 474.400 C 148.141 473.384,148.139 473.385,146.040 474.807 L 144.280 476.000 137.240 475.995 C 130.728 475.991,128.905 475.786,125.400 474.666 C 124.617 474.415,124.597 474.619,124.474 484.105 L 124.348 493.800 125.696 495.103 C 128.060 497.388,130.654 498.000,137.970 498.000 L 144.359 498.000 145.326 499.300 C 147.287 501.938,147.717 504.052,147.904 511.967 L 148.079 519.333 150.309 523.026 C 152.471 526.607,152.571 526.706,153.570 526.284 C 155.307 525.549,155.309 525.400,153.630 522.059 L 152.000 518.818 152.000 512.251 C 152.000 504.474,152.742 501.178,155.001 498.919 L 156.320 497.600 162.934 497.600 C 172.877 497.600,172.499 497.981,172.850 487.600 C 173.015 482.700,173.312 479.489,173.728 478.096 C 174.908 474.147,175.200 468.510,175.200 449.694 L 175.200 430.957 176.500 429.722 C 179.667 426.712,178.956 426.800,200.203 426.800 L 219.238 426.800 221.219 428.781 L 223.200 430.762 223.200 449.681 C 223.200 466.198,223.099 469.387,222.406 474.800 C 221.909 478.683,221.610 483.406,221.606 487.436 C 221.599 494.415,221.132 496.969,219.555 498.648 L 218.661 499.600 198.938 499.600 C 172.554 499.600,174.762 498.465,174.419 512.203 C 174.208 520.691,174.162 521.082,173.145 523.135 L 172.091 525.264 173.745 525.052 C 174.655 524.936,176.570 524.832,178.000 524.820 L 180.600 524.800 180.461 515.588 C 180.358 508.753,180.448 506.224,180.810 505.788 C 181.480 504.981,218.452 504.896,219.114 505.700 C 219.356 505.993,219.583 509.541,219.663 514.289 C 219.849 525.285,218.289 524.200,233.911 524.200 L 246.200 524.200 248.541 523.050 C 251.824 521.439,252.000 520.886,252.000 512.200 C 252.000 500.897,252.251 501.117,239.000 500.801 C 224.423 500.453,224.174 500.191,224.570 485.600 C 224.699 480.870,224.904 466.470,225.026 453.600 L 225.249 430.200 224.303 428.421 C 223.652 427.196,222.815 426.355,221.616 425.721 L 219.874 424.800 199.837 424.827 C 184.905 424.847,179.390 424.982,178.192 425.358 M272.400 475.252 C 270.181 475.901,268.706 475.997,262.340 475.906 L 254.880 475.800 254.640 477.556 C 253.686 484.528,254.529 496.813,256.016 497.608 C 259.241 499.334,271.691 497.629,274.304 495.103 L 275.652 493.800 275.526 484.100 C 275.457 478.765,275.310 474.421,275.200 474.445 C 275.090 474.470,273.830 474.833,272.400 475.252 M94.036 503.500 C 93.990 504.658,95.342 506.010,96.500 505.964 C 97.198 505.936,97.110 505.844,96.109 505.555 C 95.138 505.274,94.726 504.862,94.445 503.891 C 94.156 502.890,94.064 502.802,94.036 503.500 M305.463 503.985 C 305.281 504.894,304.920 505.259,303.913 505.549 C 302.909 505.839,302.812 505.936,303.500 505.964 C 304.602 506.008,306.000 504.686,306.000 503.600 C 306.000 502.432,305.736 502.622,305.463 503.985 M246.200 504.732 L 247.800 505.838 247.910 512.269 L 248.019 518.700 246.618 519.930 C 244.079 522.160,231.720 522.393,227.700 520.287 L 225.600 519.187 225.606 512.693 C 225.615 503.614,225.613 503.615,237.200 503.622 L 244.600 503.627 246.200 504.732 " stroke="none" fill="#806858" fill-rule="evenodd"></path><path id="path1" d="M151.862 94.487 C 151.608 94.645,150.697 94.663,149.839 94.526 C 148.684 94.343,148.354 94.402,148.572 94.755 C 148.784 95.098,148.582 95.161,147.854 94.978 C 146.414 94.616,144.616 96.414,144.978 97.854 C 145.144 98.516,145.086 98.777,144.810 98.606 C 144.539 98.439,144.390 98.963,144.393 100.073 C 144.396 101.023,144.353 105.670,144.299 110.400 L 144.200 119.000 123.200 119.200 C 111.650 119.310,101.762 119.257,101.226 119.082 C 100.523 118.852,100.158 118.932,99.913 119.369 C 99.677 119.791,99.220 119.904,98.403 119.741 C 97.165 119.493,94.783 121.304,94.814 122.469 C 94.822 122.761,95.054 122.593,95.330 122.097 C 95.861 121.141,97.532 119.799,97.825 120.092 C 97.921 120.187,97.550 120.506,97.001 120.799 C 96.453 121.093,95.787 121.931,95.523 122.663 C 95.203 123.548,94.939 123.826,94.734 123.496 C 94.563 123.221,94.417 123.893,94.407 125.000 C 94.396 126.100,94.346 130.870,94.294 135.600 L 94.200 144.200 85.600 144.294 C 80.870 144.346,76.100 144.396,75.000 144.407 C 73.893 144.417,73.221 144.563,73.496 144.734 C 73.826 144.939,73.548 145.203,72.663 145.523 C 71.931 145.787,71.093 146.453,70.799 147.001 C 70.506 147.550,70.187 147.921,70.092 147.825 C 69.799 147.532,71.141 145.861,72.097 145.330 C 72.593 145.054,72.761 144.822,72.469 144.814 C 71.304 144.783,69.493 147.165,69.741 148.403 C 69.904 149.220,69.791 149.677,69.369 149.913 C 68.927 150.161,68.853 150.514,69.095 151.226 C 69.278 151.762,69.360 156.009,69.279 160.666 L 69.131 169.131 60.666 169.279 C 56.009 169.360,51.762 169.278,51.226 169.095 C 50.514 168.853,50.161 168.927,49.913 169.369 C 49.677 169.791,49.220 169.904,48.403 169.741 C 47.165 169.493,44.783 171.304,44.814 172.469 C 44.822 172.761,45.054 172.593,45.330 172.097 C 45.861 171.141,47.532 169.799,47.825 170.092 C 47.921 170.187,47.550 170.506,47.001 170.799 C 46.453 171.093,45.787 171.931,45.523 172.663 C 45.203 173.548,44.939 173.826,44.734 173.496 C 44.564 173.223,44.434 173.900,44.444 175.000 C 44.454 176.100,44.403 192.120,44.331 210.600 L 44.200 244.200 35.600 244.294 C 30.870 244.346,26.100 244.396,25.000 244.407 C 23.893 244.417,23.221 244.563,23.496 244.734 C 23.826 244.939,23.548 245.203,22.663 245.523 C 21.931 245.787,21.093 246.453,20.799 247.001 C 20.506 247.550,20.187 247.921,20.092 247.825 C 19.799 247.532,21.141 245.861,22.097 245.330 C 22.593 245.054,22.761 244.822,22.469 244.814 C 21.287 244.783,19.493 247.166,19.746 248.431 C 19.920 249.302,19.817 249.695,19.370 249.867 C 19.006 250.007,18.853 250.361,18.996 250.735 C 19.313 251.560,19.313 298.440,18.996 299.265 C 18.853 299.639,19.006 299.993,19.370 300.133 C 19.817 300.305,19.920 300.698,19.746 301.569 C 19.493 302.834,21.287 305.217,22.469 305.186 C 22.761 305.178,22.593 304.946,22.097 304.670 C 21.141 304.139,19.799 302.468,20.092 302.175 C 20.187 302.079,20.506 302.450,20.799 302.999 C 21.093 303.547,21.931 304.213,22.663 304.477 C 23.564 304.803,23.832 305.061,23.496 305.279 C 23.207 305.466,23.753 305.596,24.800 305.589 C 25.790 305.583,30.604 305.628,35.499 305.689 C 42.650 305.778,44.398 305.696,44.399 305.273 C 44.400 304.916,44.677 304.834,45.261 305.019 C 45.943 305.236,46.070 305.159,45.875 304.651 C 45.740 304.298,45.757 304.046,45.914 304.090 C 46.071 304.134,46.625 303.935,47.145 303.647 C 47.664 303.359,48.508 303.204,49.019 303.302 C 50.668 303.617,50.995 302.927,49.441 302.413 C 46.250 301.360,45.883 298.053,46.110 272.398 C 46.361 244.010,44.898 246.579,61.077 246.121 C 69.148 245.893,69.154 245.892,70.162 244.839 L 71.171 243.786 71.215 209.998 C 71.245 187.078,71.394 176.048,71.678 175.705 C 71.909 175.427,71.981 175.200,71.839 175.200 C 71.696 175.200,71.857 174.663,72.196 174.007 C 72.744 172.948,75.200 171.175,75.200 171.839 C 75.200 171.981,75.425 171.927,75.700 171.717 C 75.975 171.508,80.160 171.291,85.000 171.236 C 96.732 171.101,95.814 171.940,96.121 161.077 C 96.445 149.611,96.588 148.864,98.749 147.351 C 100.059 146.433,105.757 146.104,134.800 145.270 C 146.946 144.921,145.997 145.512,146.010 138.286 C 146.031 127.098,146.884 122.659,149.107 122.173 C 149.708 122.041,150.726 121.767,151.369 121.564 C 153.119 121.010,273.607 121.108,274.277 121.664 C 274.565 121.903,274.800 121.981,274.800 121.839 C 274.800 121.696,275.337 121.857,275.993 122.196 C 277.052 122.744,278.825 125.200,278.161 125.200 C 278.019 125.200,278.073 125.425,278.283 125.700 C 278.492 125.975,278.709 130.160,278.764 135.000 L 278.865 143.800 279.907 144.900 L 280.950 146.000 299.175 146.010 C 323.500 146.024,327.242 146.428,327.827 149.107 C 327.959 149.708,328.217 150.682,328.402 151.272 C 328.587 151.862,328.759 155.998,328.784 160.464 C 328.843 171.225,329.004 171.488,335.051 170.731 C 337.003 170.487,341.719 170.285,345.531 170.283 L 352.462 170.280 353.531 171.349 L 354.600 172.418 354.560 204.309 C 354.516 239.311,353.921 271.486,353.282 273.470 C 353.057 274.168,352.946 274.812,353.034 274.901 C 353.350 275.217,350.986 277.438,350.300 277.468 C 348.933 277.530,348.670 277.603,348.918 277.852 C 349.057 277.990,349.925 278.168,350.847 278.246 C 351.769 278.324,352.845 278.678,353.237 279.033 C 353.638 279.397,354.165 279.545,354.443 279.374 C 354.778 279.166,354.860 279.266,354.700 279.685 C 354.542 280.096,354.685 280.284,355.132 280.250 C 355.499 280.223,355.770 280.380,355.733 280.600 C 355.688 280.862,358.594 280.927,364.133 280.790 C 368.790 280.675,373.104 280.710,373.721 280.868 C 374.495 281.067,374.904 280.994,375.044 280.630 C 375.168 280.308,375.855 280.120,376.819 280.145 C 378.970 280.201,380.201 278.970,380.145 276.819 C 380.118 275.792,380.303 275.169,380.677 275.026 C 380.993 274.905,381.146 274.636,381.017 274.428 C 380.712 273.934,380.712 176.066,381.017 175.572 C 381.146 175.364,380.993 175.095,380.677 174.974 C 380.303 174.831,380.118 174.208,380.145 173.181 C 380.201 171.030,378.970 169.799,376.819 169.855 C 375.855 169.880,375.168 169.692,375.044 169.370 C 374.905 169.008,374.493 168.932,373.721 169.129 C 373.104 169.285,368.820 169.320,364.200 169.207 L 355.800 169.000 355.701 160.400 C 355.647 155.670,355.604 151.023,355.607 150.073 C 355.610 148.963,355.461 148.439,355.190 148.606 C 354.914 148.777,354.856 148.516,355.022 147.854 C 355.384 146.414,353.586 144.616,352.146 144.978 C 351.484 145.144,351.223 145.086,351.394 144.810 C 351.561 144.539,351.037 144.390,349.927 144.393 C 348.977 144.396,344.330 144.353,339.600 144.299 L 331.000 144.200 330.793 135.800 C 330.680 131.180,330.715 126.896,330.871 126.279 C 331.068 125.507,330.992 125.095,330.630 124.956 C 330.308 124.832,330.120 124.145,330.145 123.181 C 330.201 121.030,328.970 119.799,326.819 119.855 C 325.855 119.880,325.168 119.692,325.044 119.370 C 324.906 119.010,324.489 118.931,323.721 119.122 C 323.104 119.275,313.211 119.349,301.735 119.286 L 280.870 119.173 280.721 110.686 C 280.640 106.019,280.722 101.762,280.905 101.226 C 281.147 100.514,281.073 100.161,280.631 99.913 C 280.209 99.677,280.096 99.220,280.259 98.403 C 280.507 97.165,278.696 94.783,277.531 94.814 C 277.239 94.822,277.407 95.054,277.903 95.330 C 278.859 95.861,280.201 97.532,279.908 97.825 C 279.813 97.921,279.494 97.550,279.201 97.001 C 278.907 96.453,278.069 95.787,277.337 95.523 C 276.452 95.203,276.174 94.939,276.504 94.734 C 276.777 94.564,276.100 94.440,275.000 94.457 C 273.900 94.474,245.848 94.424,212.662 94.344 C 179.476 94.265,152.116 94.329,151.862 94.487 M146.474 96.312 C 145.884 96.924,145.324 97.374,145.232 97.311 C 145.001 97.155,146.865 95.200,147.244 95.200 C 147.412 95.200,147.065 95.701,146.474 96.312 M353.999 146.198 C 354.514 146.748,354.861 147.248,354.768 147.311 C 354.676 147.374,354.116 146.924,353.526 146.312 C 352.935 145.701,352.588 145.200,352.756 145.200 C 352.923 145.200,353.483 145.649,353.999 146.198 M129.969 229.969 L 128.800 231.138 128.800 237.505 L 128.800 243.872 129.819 244.336 C 131.119 244.928,144.134 244.971,145.226 244.386 C 145.943 244.003,146.000 243.489,146.000 237.461 L 146.000 230.950 144.878 229.875 C 143.758 228.801,143.749 228.800,137.447 228.800 L 131.138 228.800 129.969 229.969 M104.870 254.926 C 104.049 255.799,104.000 256.225,104.000 262.487 L 104.000 269.122 105.260 269.561 C 107.555 270.361,118.556 270.133,119.338 269.269 C 120.134 268.388,120.309 257.406,119.561 255.260 L 119.122 254.000 112.431 254.000 C 105.954 254.000,105.712 254.030,104.870 254.926 M204.870 254.926 C 204.050 255.799,204.000 256.227,204.000 262.404 L 204.000 268.956 205.075 270.078 L 206.150 271.200 212.506 271.200 L 218.862 271.200 220.031 270.031 L 221.200 268.862 221.200 262.506 L 221.200 256.150 220.078 255.075 L 218.956 254.000 212.348 254.000 C 205.957 254.000,205.711 254.031,204.870 254.926 M79.969 279.969 L 78.800 281.138 78.800 287.505 L 78.800 293.872 79.819 294.336 C 81.244 294.985,93.669 294.971,94.320 294.320 C 94.971 293.669,94.985 281.244,94.336 279.819 L 93.872 278.800 87.505 278.800 L 81.138 278.800 79.969 279.969 M179.969 279.969 L 178.800 281.138 178.804 287.869 C 178.808 294.164,178.871 294.736,179.786 296.700 L 180.763 298.800 187.298 298.800 L 193.833 298.800 194.917 296.591 C 195.964 294.456,196.000 294.157,196.000 287.666 L 196.000 280.950 194.878 279.875 C 193.758 278.801,193.749 278.800,187.447 278.800 L 181.138 278.800 179.969 279.969 M155.656 304.900 C 155.323 305.524,155.211 307.886,155.288 312.600 L 155.400 319.400 162.590 319.510 C 166.734 319.573,170.679 319.433,171.900 319.179 L 174.020 318.739 173.910 312.270 L 173.800 305.800 172.015 304.900 C 170.366 304.068,169.696 304.000,163.183 304.000 C 156.283 304.000,156.125 304.019,155.656 304.900 M229.875 305.122 C 228.802 306.242,228.800 306.255,228.800 312.512 L 228.800 318.779 230.052 319.427 C 231.552 320.202,244.716 320.058,247.300 319.238 L 248.800 318.762 248.800 312.465 L 248.800 306.167 246.591 305.083 C 244.456 304.036,244.157 304.000,237.666 304.000 L 230.950 304.000 229.875 305.122 M130.169 326.722 C 129.712 327.104,128.767 328.205,128.069 329.168 L 126.800 330.920 126.800 337.382 C 126.800 344.517,127.173 346.261,129.714 351.000 L 131.000 353.400 137.489 353.510 L 143.979 353.620 145.243 351.115 C 149.611 342.462,149.855 330.865,145.750 327.059 L 144.608 326.000 137.804 326.013 C 131.941 326.025,130.885 326.123,130.169 326.722 M145.571 329.491 L 146.800 330.982 146.800 337.263 C 146.800 343.394,146.771 343.606,145.604 346.128 C 144.134 349.303,144.417 349.200,137.195 349.200 L 131.254 349.200 130.478 348.100 C 128.345 345.080,128.000 343.576,128.000 337.289 L 128.000 331.333 129.539 329.667 L 131.077 328.000 137.709 328.000 L 144.342 328.000 145.571 329.491 M205.664 329.819 C 205.045 331.179,205.048 344.080,205.669 346.769 L 206.137 348.800 212.450 348.800 L 218.762 348.800 219.238 347.300 C 220.058 344.716,220.202 331.552,219.427 330.052 L 218.779 328.800 212.454 328.800 L 206.128 328.800 205.664 329.819 M324.200 347.499 C 323.034 347.940,319.993 348.185,313.000 348.403 C 297.187 348.894,296.289 349.593,296.075 361.600 C 295.951 368.533,295.940 368.611,294.900 369.700 L 293.850 370.800 287.756 370.800 L 281.661 370.800 278.731 372.373 C 273.630 375.110,269.525 376.000,262.006 376.000 C 254.789 376.000,254.339 376.124,250.472 379.181 L 248.400 380.819 248.406 387.509 C 248.412 394.371,248.640 395.757,249.573 394.632 C 249.935 394.196,250.061 392.281,250.020 387.792 C 249.963 381.368,250.312 380.085,252.138 380.013 C 252.324 380.006,253.044 379.595,253.738 379.100 C 254.911 378.264,255.552 378.184,262.800 377.968 C 270.024 377.753,271.161 377.647,273.200 377.000 C 273.605 376.872,274.266 376.703,274.670 376.625 C 277.079 376.161,278.812 375.483,279.836 374.602 C 280.976 373.621,281.134 373.601,287.607 373.600 C 297.848 373.600,298.800 372.610,298.800 361.969 L 298.800 355.506 300.700 353.603 C 301.745 352.556,303.050 351.563,303.600 351.396 C 304.150 351.229,304.728 350.891,304.885 350.646 C 305.071 350.355,308.124 350.111,313.685 349.943 C 323.620 349.643,323.090 349.730,324.966 348.084 C 326.581 346.665,326.522 346.620,324.200 347.499 M179.000 401.248 C 176.856 401.740,171.115 403.649,171.281 403.814 C 171.353 403.887,172.670 403.781,174.206 403.580 C 175.743 403.379,186.227 403.213,197.503 403.212 C 217.248 403.210,221.600 402.986,221.600 401.971 C 221.600 400.839,183.590 400.194,179.000 401.248 M177.762 422.437 C 176.416 422.788,174.883 423.390,174.357 423.774 C 173.465 424.427,173.458 424.457,174.261 424.222 C 177.103 423.392,181.949 423.203,200.800 423.186 C 219.256 423.170,221.672 423.099,220.746 422.595 C 219.067 421.683,181.191 421.544,177.762 422.437 M226.629 451.600 C 226.498 464.470,226.291 479.383,226.169 484.740 L 225.947 494.481 226.974 496.032 C 228.917 498.969,230.214 499.304,238.965 499.134 C 251.209 498.897,251.600 498.522,251.600 487.008 C 251.600 482.787,251.483 479.216,251.339 479.073 C 250.492 478.225,250.000 481.223,250.000 487.232 L 250.000 493.573 248.560 495.013 C 247.768 495.805,247.035 496.369,246.932 496.265 C 246.828 496.162,246.291 496.311,245.739 496.598 C 245.186 496.885,244.434 497.061,244.067 496.990 C 243.700 496.919,240.520 496.847,237.000 496.829 L 230.600 496.796 229.312 495.590 L 228.025 494.383 228.014 462.371 C 228.006 435.494,227.913 430.186,227.436 429.279 C 226.936 428.331,226.838 431.044,226.629 451.600 M252.949 524.029 C 251.641 525.337,249.631 525.614,239.600 525.866 C 228.941 526.134,226.001 526.666,230.224 527.563 C 233.481 528.254,251.405 527.855,250.939 527.101 C 250.837 526.936,251.033 526.800,251.376 526.800 C 251.719 526.800,252.000 526.609,252.000 526.376 C 252.000 526.143,252.160 526.051,252.355 526.172 C 252.843 526.474,253.453 525.619,253.691 524.300 C 253.928 522.985,253.975 523.002,252.949 524.029 " stroke="none" fill="#4c3c2c" fill-rule="evenodd"></path><path id="path2" d="M93.613 437.620 C 93.624 468.870,93.680 471.731,94.259 471.000 C 94.607 470.560,94.961 470.380,95.046 470.600 C 95.145 470.858,99.317 470.959,106.764 470.886 L 118.328 470.771 120.835 472.392 C 125.232 475.233,127.462 475.736,136.414 475.908 L 144.229 476.058 146.214 474.699 C 147.465 473.842,148.604 472.611,149.291 471.370 L 150.381 469.400 150.391 450.169 L 150.400 430.937 149.214 429.146 C 148.561 428.161,147.166 426.735,146.114 425.978 L 144.200 424.600 135.200 424.398 C 121.265 424.084,120.400 423.381,120.400 412.353 C 120.400 403.617,121.758 404.400,106.605 404.400 C 97.770 404.400,94.432 404.272,94.080 403.920 C 93.707 403.547,93.603 411.036,93.613 437.620 M237.505 403.910 L 230.811 404.019 230.205 405.190 C 229.742 406.086,229.600 407.802,229.600 412.510 C 229.600 420.793,229.182 420.400,237.999 420.400 C 250.452 420.400,250.396 420.265,250.398 450.451 C 250.400 471.413,250.274 470.439,253.439 473.959 L 255.326 476.058 263.363 475.909 C 272.561 475.738,274.736 475.254,279.165 472.392 L 281.672 470.771 293.236 470.886 C 300.683 470.959,304.855 470.858,304.954 470.600 C 305.039 470.380,305.393 470.560,305.741 471.000 C 306.320 471.731,306.376 468.930,306.387 438.300 C 306.397 411.760,306.296 404.800,305.900 404.801 C 289.720 404.819,248.836 404.423,247.400 404.233 C 246.300 404.088,245.130 403.931,244.800 403.884 C 244.470 403.838,241.187 403.849,237.505 403.910 M172.000 525.223 C 170.790 525.387,166.509 525.539,162.487 525.560 C 150.893 525.623,150.400 526.102,150.400 537.286 C 150.400 546.030,150.947 547.603,154.519 549.124 C 156.021 549.763,218.588 549.812,220.274 549.175 C 223.927 547.794,224.800 545.550,224.800 537.535 C 224.800 529.774,223.858 527.395,219.995 525.397 C 218.714 524.735,176.734 524.583,172.000 525.223 " stroke="none" fill="#199eb9" fill-rule="evenodd"></path><path id="path3" d="M130.505 255.300 C 129.738 256.127,129.656 256.786,129.498 263.400 C 129.163 277.390,127.381 279.165,113.334 279.501 C 103.801 279.729,104.524 278.969,104.292 289.000 C 104.090 297.688,103.777 299.033,101.405 301.405 C 99.033 303.777,97.688 304.090,89.000 304.292 C 78.959 304.524,79.601 303.959,79.597 312.570 C 79.595 318.457,79.477 319.524,78.200 325.200 C 76.924 330.873,76.805 331.944,76.804 337.800 C 76.802 347.656,77.574 348.400,87.797 348.400 C 99.064 348.400,101.600 350.925,101.600 362.142 C 101.600 372.495,102.290 373.196,112.486 373.199 L 119.172 373.200 120.581 371.963 C 123.018 369.823,123.505 361.728,121.852 350.800 C 121.420 347.938,121.217 343.796,121.215 337.800 C 121.210 321.262,121.978 320.341,136.040 320.000 C 146.545 319.745,145.436 321.038,145.741 308.696 C 145.879 303.143,146.160 297.610,146.366 296.400 C 146.573 295.190,146.755 285.638,146.771 275.174 L 146.800 256.147 145.246 255.274 C 142.843 253.923,131.763 253.943,130.505 255.300 M119.028 327.100 C 119.201 327.485,119.478 332.840,119.644 339.000 C 119.809 345.160,120.073 354.301,120.231 359.312 L 120.516 368.425 119.588 369.412 C 118.678 370.381,118.540 370.400,112.392 370.400 C 104.279 370.400,104.924 371.172,104.709 361.200 C 104.402 347.010,102.983 345.592,88.800 345.289 C 82.472 345.154,80.868 345.005,80.300 344.499 C 79.201 343.521,79.282 332.714,80.416 329.042 L 81.232 326.400 99.973 326.400 C 117.436 326.400,118.736 326.448,119.028 327.100 M155.513 328.700 C 154.164 330.247,154.000 331.209,153.983 337.674 C 153.973 341.263,153.691 346.360,153.356 349.000 C 153.021 351.640,152.601 357.670,152.424 362.400 C 152.038 372.661,151.547 374.627,148.795 376.942 C 146.704 378.702,144.142 379.200,137.181 379.200 C 131.440 379.200,130.818 379.270,129.854 380.029 L 128.800 380.858 128.800 387.396 L 128.800 393.935 130.223 394.814 L 131.645 395.693 154.323 395.417 C 212.883 394.703,220.245 394.574,220.900 394.255 C 221.524 393.951,221.600 393.207,221.600 387.384 L 221.600 380.854 220.438 380.027 C 219.381 379.274,218.705 379.200,212.930 379.200 C 195.930 379.200,195.805 378.920,195.639 340.354 C 195.587 328.339,196.465 329.381,186.111 329.050 C 181.760 328.911,176.760 328.630,175.000 328.427 C 168.871 327.718,156.215 327.895,155.513 328.700 M238.755 329.499 C 231.899 329.602,230.829 329.704,230.279 330.313 C 229.732 330.917,229.610 333.548,229.362 350.056 L 229.077 369.103 229.966 370.352 L 230.854 371.600 237.327 371.600 C 241.761 371.600,244.682 371.402,246.600 370.971 C 248.488 370.547,252.671 370.253,259.439 370.071 C 267.042 369.866,269.639 369.667,270.139 369.251 C 270.736 368.755,270.800 366.887,270.800 349.821 L 270.800 330.939 269.874 330.070 C 268.879 329.134,266.320 329.087,238.755 329.499 M172.300 330.771 L 173.600 331.278 173.600 350.230 L 173.600 369.183 171.391 371.391 L 169.183 373.600 162.623 373.600 L 156.064 373.600 155.390 371.569 C 154.627 369.272,154.892 332.173,155.682 330.663 C 156.155 329.759,169.935 329.848,172.300 330.771 M179.654 430.007 L 177.988 431.214 178.050 454.907 C 178.084 467.938,178.196 482.144,178.298 486.475 L 178.484 494.349 179.963 495.375 L 181.443 496.400 200.142 496.400 L 218.841 496.400 219.420 495.013 C 219.849 493.988,220.003 491.822,220.012 486.713 C 220.018 482.911,220.283 477.190,220.600 474.000 C 221.007 469.905,221.180 462.784,221.188 449.778 L 221.200 431.357 219.881 430.078 L 218.562 428.800 199.941 428.800 L 181.320 428.800 179.654 430.007 M219.506 450.000 C 219.575 462.801,219.464 470.114,219.177 471.500 L 218.743 473.600 200.011 473.600 L 181.278 473.600 180.746 472.300 C 180.013 470.509,179.721 431.818,180.434 430.959 C 180.830 430.482,183.951 430.409,200.152 430.496 L 219.400 430.600 219.506 450.000 M155.274 504.754 C 153.927 507.151,153.939 518.432,155.289 519.377 C 156.568 520.273,168.292 520.283,170.020 519.390 L 171.200 518.779 171.188 512.290 L 171.177 505.800 169.994 504.500 L 168.811 503.200 162.479 503.200 L 156.147 503.200 155.274 504.754 M229.700 505.688 C 228.823 506.111,228.800 506.283,228.800 512.451 L 228.800 518.779 229.980 519.390 C 231.708 520.283,243.432 520.273,244.711 519.377 C 245.941 518.516,246.105 506.671,244.900 505.757 C 244.013 505.083,231.076 505.025,229.700 505.688 " stroke="none" fill="#dc9c74" fill-rule="evenodd"></path><path id="path4" d="M80.416 329.042 C 79.282 332.714,79.201 343.521,80.300 344.499 C 80.868 345.005,82.472 345.154,88.800 345.289 C 102.983 345.592,104.402 347.010,104.709 361.200 C 104.924 371.172,104.279 370.400,112.392 370.400 C 118.540 370.400,118.678 370.381,119.588 369.412 L 120.516 368.425 120.231 359.312 C 120.073 354.301,119.809 345.160,119.644 339.000 C 119.478 332.840,119.201 327.485,119.028 327.100 C 118.736 326.448,117.436 326.400,99.973 326.400 L 81.232 326.400 80.416 329.042 M155.682 330.663 C 154.892 332.173,154.627 369.272,155.390 371.569 L 156.064 373.600 162.623 373.600 L 169.183 373.600 171.391 371.391 L 173.600 369.183 173.600 350.230 L 173.600 331.278 172.300 330.771 C 169.935 329.848,156.155 329.759,155.682 330.663 M180.434 430.959 C 179.721 431.818,180.013 470.509,180.746 472.300 L 181.278 473.600 200.011 473.600 L 218.743 473.600 219.177 471.500 C 219.464 470.114,219.575 462.801,219.506 450.000 L 219.400 430.600 200.152 430.496 C 183.951 430.409,180.830 430.482,180.434 430.959 " stroke="none" fill="#f4c49c" fill-rule="evenodd"></path><path id="path5" d="M145.362 95.370 C 144.189 96.579,144.013 97.723,144.867 98.600 C 145.121 98.860,145.166 98.581,144.996 97.800 C 144.853 97.140,144.885 96.780,145.068 97.000 C 145.276 97.251,145.793 96.997,146.456 96.319 C 147.126 95.632,147.345 95.156,147.056 95.016 C 146.805 94.895,147.110 94.894,147.734 95.014 C 148.377 95.138,148.769 95.073,148.639 94.864 C 148.062 93.929,146.532 94.165,145.362 95.370 M149.910 94.450 C 150.759 94.695,151.463 94.687,151.910 94.426 C 152.436 94.120,152.123 94.030,150.600 94.048 C 148.673 94.071,148.648 94.086,149.910 94.450 M184.069 94.300 C 199.617 94.358,225.177 94.358,240.869 94.300 C 256.561 94.242,243.840 94.195,212.600 94.195 C 181.360 94.195,168.521 94.242,184.069 94.300 M273.139 94.427 C 273.713 94.657,274.567 94.661,275.339 94.437 C 276.479 94.107,276.390 94.071,274.400 94.061 C 272.634 94.053,272.385 94.125,273.139 94.427 M277.200 94.507 L 275.800 94.882 277.243 95.461 C 278.037 95.780,278.924 96.485,279.215 97.028 C 279.611 97.768,279.834 97.888,280.105 97.508 C 280.337 97.183,280.388 97.463,280.247 98.284 C 280.019 99.612,280.619 100.558,280.894 99.305 C 281.033 98.670,280.729 97.250,280.101 95.600 C 279.976 95.270,279.906 94.852,279.946 94.670 C 279.987 94.489,279.815 94.467,279.565 94.622 C 279.315 94.776,278.996 94.729,278.855 94.518 C 278.694 94.274,278.087 94.270,277.200 94.507 M278.946 95.629 C 279.526 96.085,279.996 96.670,279.991 96.929 C 279.986 97.188,279.671 97.018,279.291 96.552 C 278.911 96.086,278.240 95.506,277.800 95.264 C 277.360 95.022,277.201 94.819,277.446 94.812 C 277.691 94.805,278.366 95.173,278.946 95.629 M146.198 96.002 C 145.798 96.444,145.385 96.718,145.279 96.612 C 145.010 96.343,146.008 95.200,146.511 95.200 C 146.738 95.200,146.597 95.561,146.198 96.002 M144.048 100.600 C 144.030 102.123,144.120 102.436,144.426 101.910 C 144.687 101.463,144.695 100.759,144.450 99.910 C 144.086 98.648,144.071 98.673,144.048 100.600 M280.739 110.538 C 280.816 115.192,280.913 119.037,280.955 119.083 C 281.188 119.333,322.693 119.350,322.538 119.100 C 322.436 118.935,313.093 118.800,301.776 118.800 L 281.200 118.800 281.194 110.900 C 281.191 106.555,281.056 102.792,280.894 102.538 C 280.732 102.283,280.663 105.883,280.739 110.538 M144.089 112.300 L 144.000 118.800 123.500 118.806 C 112.225 118.809,102.792 118.944,102.538 119.106 C 102.283 119.268,111.463 119.346,122.938 119.280 C 134.412 119.214,143.940 119.020,144.111 118.849 C 144.281 118.679,144.366 115.673,144.300 112.169 L 144.178 105.800 144.089 112.300 M97.400 119.297 C 96.740 119.498,95.930 119.768,95.600 119.895 C 95.270 120.023,94.852 120.094,94.670 120.054 C 94.489 120.013,94.467 120.185,94.622 120.435 C 94.776 120.685,94.729 121.004,94.518 121.145 C 94.274 121.306,94.270 121.913,94.507 122.800 L 94.882 124.200 95.461 122.757 C 95.780 121.963,96.485 121.076,97.028 120.785 C 97.768 120.389,97.888 120.166,97.508 119.895 C 97.183 119.663,97.463 119.612,98.284 119.753 C 98.991 119.875,99.664 119.820,99.780 119.632 C 100.114 119.092,98.715 118.895,97.400 119.297 M325.700 119.069 C 324.632 119.492,325.242 120.055,326.500 119.808 C 327.516 119.607,327.669 119.650,327.200 120.002 C 326.717 120.365,326.781 120.401,327.529 120.190 C 328.851 119.817,330.121 121.037,329.811 122.382 C 329.625 123.185,329.668 123.273,330.012 122.800 C 330.346 122.340,330.389 122.504,330.192 123.500 C 330.045 124.251,330.101 124.800,330.325 124.800 C 330.976 124.800,331.201 123.655,330.772 122.528 C 330.550 121.942,330.463 121.214,330.579 120.910 C 330.696 120.607,330.633 120.456,330.441 120.575 C 330.079 120.798,329.080 119.854,329.370 119.563 C 329.460 119.473,329.143 119.391,328.667 119.380 C 328.190 119.370,327.440 119.251,327.000 119.116 C 326.560 118.981,325.975 118.960,325.700 119.069 M96.552 120.709 C 96.086 121.089,95.506 121.760,95.264 122.200 C 95.022 122.640,94.819 122.799,94.812 122.554 C 94.794 121.903,96.378 119.998,96.929 120.009 C 97.188 120.014,97.018 120.329,96.552 120.709 M94.061 125.600 C 94.053 127.366,94.125 127.615,94.427 126.861 C 94.657 126.287,94.661 125.433,94.437 124.661 C 94.107 123.521,94.071 123.610,94.061 125.600 M330.718 135.338 C 330.783 139.772,330.912 143.625,331.005 143.900 C 331.133 144.278,332.769 144.378,337.687 144.311 L 344.200 144.221 337.700 144.101 L 331.200 143.980 331.200 135.814 C 331.200 131.322,331.065 127.564,330.900 127.461 C 330.735 127.359,330.653 130.904,330.718 135.338 M93.994 137.200 L 93.800 143.800 87.200 144.015 L 80.600 144.230 87.313 144.315 C 95.251 144.416,94.455 145.250,94.305 136.984 L 94.189 130.600 93.994 137.200 M71.200 144.471 C 71.200 144.699,70.932 144.783,70.605 144.657 C 70.277 144.532,70.036 144.557,70.068 144.714 C 70.101 144.871,70.024 145.270,69.899 145.600 C 69.271 147.250,68.967 148.670,69.106 149.305 C 69.381 150.558,69.981 149.612,69.753 148.284 C 69.612 147.463,69.663 147.183,69.895 147.508 C 70.166 147.887,70.392 147.762,70.795 147.009 C 71.091 146.456,71.929 145.788,72.657 145.525 C 74.175 144.976,74.162 144.905,72.454 144.416 C 71.624 144.177,71.200 144.196,71.200 144.471 M74.661 144.437 C 75.433 144.661,76.287 144.657,76.861 144.427 C 77.615 144.125,77.366 144.053,75.600 144.061 C 73.610 144.071,73.521 144.107,74.661 144.437 M348.090 144.426 C 348.537 144.687,349.241 144.695,350.090 144.450 C 351.352 144.086,351.327 144.071,349.400 144.048 C 347.877 144.030,347.564 144.120,348.090 144.426 M352.600 144.323 C 352.160 144.408,351.620 144.653,351.400 144.867 C 351.139 145.121,351.418 145.176,352.200 145.026 C 352.860 144.899,353.195 144.895,352.944 145.016 C 352.655 145.156,352.874 145.632,353.544 146.319 C 354.207 146.997,354.724 147.251,354.932 147.000 C 355.115 146.780,355.153 147.110,355.016 147.734 C 354.873 148.386,354.924 148.770,355.136 148.639 C 356.651 147.703,354.454 143.965,352.600 144.323 M72.200 145.264 C 71.760 145.506,71.089 146.086,70.709 146.552 C 70.329 147.018,70.014 147.188,70.009 146.929 C 69.998 146.378,71.903 144.794,72.554 144.812 C 72.799 144.819,72.640 145.022,72.200 145.264 M354.408 145.810 C 355.181 146.741,354.629 146.917,353.802 146.002 C 353.403 145.561,353.262 145.200,353.489 145.200 C 353.716 145.200,354.130 145.474,354.408 145.810 M355.452 150.039 C 355.316 150.721,355.378 151.576,355.590 151.939 C 355.877 152.431,355.979 152.114,355.988 150.700 C 356.002 148.508,355.807 148.267,355.452 150.039 M69.049 152.615 C 68.912 152.973,68.800 156.761,68.800 161.033 L 68.800 168.800 60.900 168.806 C 55.952 168.810,52.776 168.972,52.400 169.239 C 51.951 169.559,52.203 169.609,53.400 169.438 C 54.280 169.312,58.179 169.207,62.065 169.204 L 69.130 169.200 69.274 160.700 C 69.427 151.612,69.428 151.629,69.049 152.615 M355.689 162.313 C 355.622 167.231,355.722 168.867,356.100 168.995 C 357.015 169.304,372.728 169.405,372.539 169.100 C 372.436 168.935,368.678 168.800,364.186 168.800 L 356.020 168.800 355.899 162.300 L 355.779 155.800 355.689 162.313 M47.400 169.297 C 46.740 169.498,45.930 169.768,45.600 169.895 C 45.270 170.023,44.852 170.094,44.670 170.054 C 44.489 170.013,44.467 170.185,44.622 170.435 C 44.776 170.685,44.729 171.004,44.518 171.145 C 44.274 171.306,44.270 171.913,44.507 172.800 L 44.882 174.200 45.461 172.757 C 45.780 171.963,46.485 171.076,47.028 170.785 C 47.768 170.389,47.888 170.166,47.508 169.895 C 47.183 169.663,47.463 169.612,48.284 169.753 C 48.991 169.875,49.664 169.820,49.780 169.632 C 50.114 169.092,48.715 168.895,47.400 169.297 M375.700 169.069 C 374.632 169.492,375.242 170.055,376.500 169.808 C 377.516 169.607,377.669 169.650,377.200 170.002 C 376.717 170.365,376.781 170.401,377.529 170.190 C 378.851 169.817,380.121 171.037,379.811 172.382 C 379.625 173.185,379.668 173.273,380.012 172.800 C 380.346 172.340,380.389 172.504,380.192 173.500 C 380.045 174.251,380.101 174.800,380.325 174.800 C 380.976 174.800,381.201 173.655,380.772 172.528 C 380.550 171.942,380.463 171.214,380.579 170.910 C 380.696 170.607,380.633 170.456,380.441 170.575 C 380.079 170.798,379.080 169.854,379.370 169.563 C 379.460 169.473,379.143 169.391,378.667 169.380 C 378.190 169.370,377.440 169.251,377.000 169.116 C 376.560 168.981,375.975 168.960,375.700 169.069 M46.552 170.709 C 46.086 171.089,45.506 171.760,45.264 172.200 C 45.022 172.640,44.819 172.799,44.812 172.554 C 44.794 171.903,46.378 169.998,46.929 170.009 C 47.188 170.014,47.018 170.329,46.552 170.709 M44.061 175.600 C 44.053 177.366,44.125 177.615,44.427 176.861 C 44.657 176.287,44.661 175.433,44.437 174.661 C 44.107 173.521,44.071 173.610,44.061 175.600 M380.600 225.000 C 380.600 251.248,380.735 272.640,380.900 272.538 C 381.065 272.436,381.200 251.044,381.200 225.000 C 381.200 198.956,381.065 177.564,380.900 177.462 C 380.735 177.360,380.600 198.752,380.600 225.000 M43.999 212.200 L 43.800 243.800 37.200 244.015 L 30.600 244.230 37.313 244.315 C 42.378 244.379,44.072 244.277,44.216 243.900 C 44.321 243.625,44.360 229.270,44.302 212.000 L 44.197 180.600 43.999 212.200 M21.200 244.471 C 21.200 244.699,20.932 244.783,20.605 244.657 C 20.277 244.532,20.036 244.557,20.068 244.714 C 20.101 244.871,20.024 245.270,19.899 245.600 C 19.271 247.250,18.967 248.670,19.106 249.305 C 19.381 250.558,19.981 249.612,19.753 248.284 C 19.612 247.463,19.663 247.183,19.895 247.508 C 20.166 247.887,20.392 247.762,20.795 247.009 C 21.091 246.456,21.929 245.788,22.657 245.525 C 24.175 244.976,24.162 244.905,22.454 244.416 C 21.624 244.177,21.200 244.196,21.200 244.471 M24.661 244.437 C 25.433 244.661,26.287 244.657,26.861 244.427 C 27.615 244.125,27.366 244.053,25.600 244.061 C 23.610 244.071,23.521 244.107,24.661 244.437 M22.200 245.264 C 21.760 245.506,21.089 246.086,20.709 246.552 C 20.329 247.018,20.014 247.188,20.009 246.929 C 19.998 246.378,21.903 244.794,22.554 244.812 C 22.799 244.819,22.640 245.022,22.200 245.264 M19.043 252.633 C 18.693 253.543,18.755 296.909,19.106 297.462 C 19.268 297.716,19.400 287.591,19.400 274.962 C 19.400 262.333,19.374 252.000,19.343 252.000 C 19.311 252.000,19.176 252.285,19.043 252.633 M380.192 276.500 C 380.389 277.496,380.346 277.660,380.012 277.200 C 379.668 276.727,379.625 276.815,379.811 277.618 C 380.121 278.963,378.851 280.183,377.529 279.810 C 376.781 279.599,376.717 279.635,377.200 279.998 C 377.669 280.350,377.516 280.393,376.500 280.192 C 375.749 280.045,375.200 280.101,375.200 280.325 C 375.200 280.976,376.345 281.201,377.472 280.772 C 378.058 280.550,378.816 280.474,379.157 280.605 C 379.497 280.735,379.648 280.714,379.491 280.558 C 379.117 280.184,379.988 279.145,380.441 279.425 C 380.633 279.544,380.696 279.393,380.579 279.090 C 380.463 278.786,380.550 278.058,380.772 277.472 C 381.201 276.345,380.976 275.200,380.325 275.200 C 380.101 275.200,380.045 275.749,380.192 276.500 M329.700 279.684 L 328.000 281.430 327.999 312.815 C 327.997 348.133,328.250 345.200,324.949 348.099 C 323.093 349.728,323.612 349.643,313.685 349.943 C 308.124 350.111,305.071 350.355,304.885 350.646 C 304.728 350.891,304.150 351.229,303.600 351.396 C 303.050 351.563,301.745 352.556,300.700 353.603 L 298.800 355.506 298.800 361.969 C 298.800 372.610,297.848 373.600,287.607 373.600 C 281.134 373.601,280.976 373.621,279.836 374.602 C 278.812 375.483,277.079 376.161,274.670 376.625 C 274.266 376.703,273.605 376.872,273.200 377.000 C 271.161 377.647,270.024 377.753,262.800 377.968 C 255.552 378.184,254.911 378.264,253.738 379.100 C 253.044 379.595,252.324 380.006,252.138 380.013 C 250.312 380.085,249.963 381.368,250.020 387.792 C 250.059 392.146,249.931 394.202,249.593 394.608 C 248.839 395.516,249.463 397.084,251.314 398.933 C 254.532 402.146,252.811 401.963,280.936 402.088 L 306.000 402.200 305.969 399.800 C 305.951 398.480,305.861 397.580,305.768 397.800 C 305.523 398.384,255.980 398.077,255.266 397.487 C 252.825 395.470,252.400 393.980,252.400 387.429 L 252.400 381.201 254.300 380.008 L 256.200 378.815 262.903 378.808 C 269.445 378.800,275.878 378.127,278.800 377.145 C 279.570 376.886,283.800 376.567,288.200 376.437 C 300.755 376.064,301.569 375.193,301.590 362.116 L 301.600 356.032 302.700 354.989 C 305.045 352.765,306.340 352.400,311.884 352.400 C 321.626 352.401,328.898 353.590,330.427 355.433 C 331.031 356.160,353.600 356.240,353.600 355.514 C 353.600 355.294,353.848 355.210,354.151 355.326 C 354.863 355.599,355.599 354.863,355.326 354.151 C 355.210 353.848,355.308 353.600,355.545 353.600 C 355.851 353.600,355.950 343.020,355.888 317.300 L 355.800 281.000 363.964 281.116 C 368.454 281.180,372.270 281.090,372.444 280.916 C 372.619 280.742,369.073 280.661,364.565 280.736 C 358.694 280.833,356.207 280.738,355.802 280.401 C 355.490 280.143,355.049 280.046,354.822 280.186 C 354.567 280.344,354.510 280.179,354.673 279.755 C 354.857 279.273,354.789 279.160,354.443 279.374 C 354.159 279.549,353.603 279.364,353.133 278.939 C 352.391 278.268,351.359 278.188,341.858 278.069 L 331.400 277.938 329.700 279.684 M19.106 300.695 C 18.967 301.330,19.271 302.750,19.899 304.400 C 20.024 304.730,20.094 305.148,20.054 305.330 C 20.013 305.511,20.185 305.533,20.435 305.378 C 20.685 305.224,21.004 305.271,21.145 305.482 C 21.306 305.726,21.913 305.730,22.800 305.493 L 24.200 305.118 22.757 304.539 C 21.963 304.220,21.076 303.515,20.785 302.972 C 20.389 302.232,20.166 302.112,19.895 302.492 C 19.663 302.817,19.612 302.537,19.753 301.716 C 19.981 300.388,19.381 299.442,19.106 300.695 M22.200 304.736 C 22.640 304.978,22.799 305.181,22.554 305.188 C 21.903 305.206,19.998 303.622,20.009 303.071 C 20.014 302.812,20.329 302.982,20.709 303.448 C 21.089 303.914,21.760 304.494,22.200 304.736 M50.336 303.240 C 50.123 303.371,49.530 303.399,49.019 303.302 C 48.508 303.204,47.664 303.359,47.145 303.647 C 46.625 303.935,46.071 304.134,45.914 304.090 C 45.757 304.046,45.740 304.298,45.875 304.651 C 46.070 305.159,45.943 305.236,45.261 305.019 C 44.677 304.834,44.400 304.916,44.401 305.273 C 44.401 305.690,42.955 305.795,37.501 305.775 L 30.600 305.751 37.200 305.975 L 43.800 306.200 44.000 316.200 C 44.153 323.827,44.303 325.971,44.633 325.236 C 45.031 324.347,45.088 324.331,45.354 325.025 C 45.584 325.623,45.712 325.665,45.981 325.231 C 46.197 324.882,46.588 324.793,47.060 324.985 C 48.163 325.435,50.400 325.528,50.400 325.124 C 50.400 324.930,50.737 324.952,51.149 325.173 C 51.605 325.417,52.367 325.439,53.095 325.230 C 53.772 325.036,54.534 325.039,54.846 325.237 C 55.151 325.430,58.380 325.591,62.021 325.594 L 68.643 325.600 69.528 321.900 C 71.136 315.176,70.631 304.056,68.687 303.401 C 67.885 303.131,50.755 302.980,50.336 303.240 M24.400 305.600 C 23.637 305.844,23.921 305.923,25.600 305.932 C 27.173 305.940,27.572 305.846,27.000 305.600 C 26.034 305.185,25.696 305.185,24.400 305.600 M129.539 329.667 L 128.000 331.333 128.000 337.289 C 128.000 343.576,128.345 345.080,130.478 348.100 L 131.254 349.200 137.195 349.200 C 144.417 349.200,144.134 349.303,145.604 346.128 C 146.771 343.606,146.800 343.394,146.800 337.263 L 146.800 330.982 145.571 329.491 L 144.342 328.000 137.709 328.000 L 131.077 328.000 129.539 329.667 M144.964 330.031 C 146.545 331.909,146.540 341.842,144.957 345.796 L 143.915 348.400 137.535 348.400 L 131.156 348.400 130.178 346.189 C 129.272 344.140,129.200 343.500,129.200 337.510 L 129.200 331.044 130.275 329.922 L 131.350 328.800 137.639 328.800 L 143.929 328.800 144.964 330.031 M68.964 363.000 C 68.963 366.740,69.023 368.324,69.097 366.520 C 69.171 364.715,69.172 361.655,69.098 359.720 C 69.025 357.784,68.964 359.260,68.964 363.000 M83.720 381.098 C 85.655 381.172,88.715 381.171,90.520 381.097 C 92.324 381.023,90.740 380.963,87.000 380.964 C 83.260 380.964,81.784 381.025,83.720 381.098 M220.200 402.614 C 218.956 403.025,213.913 403.147,197.563 403.160 C 185.993 403.169,176.273 403.263,175.963 403.370 C 175.653 403.476,174.320 403.644,173.000 403.743 C 171.680 403.842,170.093 404.121,169.474 404.362 C 168.715 404.657,162.229 404.800,149.582 404.800 C 133.271 404.800,130.606 404.884,129.208 405.443 L 127.600 406.087 127.600 412.381 C 127.600 420.977,127.512 420.906,138.400 421.200 C 153.633 421.612,154.000 422.291,154.000 450.114 L 154.000 468.957 155.054 470.478 L 156.109 472.000 162.411 472.000 L 168.713 472.000 169.357 470.392 C 169.916 468.993,170.000 466.300,170.000 449.665 C 170.000 427.580,170.008 427.517,173.043 424.845 C 176.295 421.983,176.552 421.955,199.476 421.989 C 214.035 422.011,219.927 422.149,220.544 422.484 C 221.015 422.740,222.369 423.084,223.553 423.247 C 226.217 423.616,226.384 423.783,226.753 426.447 C 226.916 427.631,227.265 428.995,227.527 429.477 C 227.885 430.135,228.007 438.362,228.014 462.369 L 228.025 494.383 229.312 495.590 L 230.600 496.796 237.000 496.829 C 240.520 496.847,243.700 496.919,244.067 496.990 C 244.434 497.061,245.186 496.885,245.739 496.598 C 246.291 496.311,246.828 496.162,246.932 496.265 C 247.035 496.369,247.768 495.805,248.560 495.013 L 250.000 493.573 250.000 487.248 C 250.000 482.206,250.132 480.658,250.651 479.617 C 251.164 478.589,251.240 477.748,251.010 475.656 C 250.849 474.195,250.601 463.175,250.459 451.168 L 250.200 429.335 248.988 427.368 C 248.302 426.253,246.938 424.836,245.843 424.100 L 243.910 422.800 236.183 422.800 C 226.329 422.800,227.200 423.658,227.200 413.957 C 227.200 405.455,227.139 405.230,224.256 403.141 C 222.505 401.873,222.456 401.867,220.200 402.614 M221.223 405.012 L 223.220 406.023 223.110 412.512 L 223.000 419.000 221.200 419.913 L 219.400 420.825 199.000 420.713 C 179.758 420.606,178.475 420.555,176.400 419.800 L 174.200 419.000 174.090 412.561 L 173.981 406.121 177.090 405.096 L 180.200 404.070 199.713 404.035 L 219.227 404.000 221.223 405.012 M245.147 427.817 C 245.812 428.376,246.755 429.480,247.243 430.269 L 248.130 431.705 247.871 462.553 L 247.613 493.400 246.140 494.700 L 244.667 496.000 237.855 496.000 L 231.044 496.000 229.938 494.941 L 228.833 493.882 229.037 462.841 C 229.258 429.274,229.230 430.011,230.395 428.100 L 231.188 426.800 237.563 426.800 C 243.808 426.800,243.963 426.821,245.147 427.817 M124.695 503.439 C 124.592 503.541,124.169 503.693,123.754 503.775 C 121.681 504.187,120.800 504.526,120.800 504.910 C 120.800 505.143,120.695 505.228,120.566 505.100 C 120.438 504.971,119.988 505.161,119.566 505.522 C 118.852 506.133,118.800 506.804,118.806 515.389 C 118.810 520.685,118.958 524.369,119.156 524.057 C 119.389 523.690,119.807 523.614,120.450 523.821 C 120.973 523.990,126.378 524.088,132.462 524.039 L 143.524 523.950 145.659 527.475 L 147.794 531.000 147.997 539.000 C 148.233 548.298,148.603 549.601,151.400 551.000 C 153.576 552.088,218.561 552.475,222.186 551.421 C 226.275 550.233,227.200 547.715,227.200 537.778 C 227.200 530.688,227.155 530.828,229.880 529.448 C 232.712 528.014,252.237 528.783,255.194 530.445 C 257.070 531.499,279.192 531.342,280.267 530.267 C 281.318 529.215,281.510 506.548,280.475 505.584 C 280.041 505.179,279.576 504.957,279.443 505.091 C 279.309 505.224,279.200 505.138,279.200 504.898 C 279.200 504.659,278.615 504.327,277.900 504.159 C 277.185 503.992,276.330 503.767,276.000 503.661 C 274.024 503.023,256.116 503.179,255.567 503.838 C 255.138 504.355,254.940 506.521,254.754 512.761 C 254.470 522.249,253.627 526.959,252.355 526.172 C 252.160 526.051,252.000 526.143,252.000 526.376 C 252.000 526.609,251.719 526.800,251.376 526.800 C 251.033 526.800,250.836 526.935,250.937 527.100 C 251.364 527.796,232.455 528.100,229.296 527.448 C 227.662 527.111,227.535 527.157,226.196 528.577 L 224.800 530.057 224.800 536.980 C 224.800 545.602,223.996 547.768,220.274 549.175 C 218.388 549.887,156.068 549.755,154.349 549.035 C 151.046 547.651,150.663 546.520,150.410 537.400 L 150.200 529.800 147.828 524.400 L 145.456 519.000 145.228 512.000 C 144.912 502.295,145.997 503.170,134.340 503.216 C 129.138 503.236,124.797 503.336,124.695 503.439 " stroke="none" fill="#4c3434" fill-rule="evenodd"></path><path id="path6" d="M181.100 93.900 C 198.315 93.958,226.485 93.958,243.700 93.900 C 260.915 93.842,246.830 93.795,212.400 93.795 C 177.970 93.795,163.885 93.842,181.100 93.900 M144.267 94.267 C 144.120 94.413,144.011 94.998,144.025 95.567 C 144.050 96.590,144.054 96.592,144.416 95.691 C 144.617 95.190,145.190 94.617,145.691 94.416 C 146.592 94.054,146.590 94.050,145.567 94.025 C 144.998 94.011,144.413 94.120,144.267 94.267 M279.488 94.408 C 280.330 94.747,280.567 95.270,280.934 97.600 C 281.020 98.150,281.116 97.781,281.146 96.780 C 281.205 94.800,280.695 93.986,279.420 94.025 C 278.639 94.050,278.642 94.068,279.488 94.408 M143.773 109.400 C 143.773 114.680,143.830 116.785,143.899 114.077 C 143.968 111.369,143.968 107.049,143.899 104.477 C 143.829 101.905,143.772 104.120,143.773 109.400 M94.480 119.280 C 94.216 119.544,94.011 120.129,94.025 120.580 C 94.050 121.361,94.068 121.358,94.408 120.512 C 94.747 119.670,95.270 119.433,97.600 119.066 C 98.150 118.980,97.781 118.884,96.780 118.854 C 95.779 118.825,94.744 119.016,94.480 119.280 M328.293 119.176 C 330.384 119.517,330.483 119.616,330.824 121.707 L 331.100 123.400 331.150 121.729 C 331.215 119.552,330.448 118.785,328.271 118.850 L 326.600 118.900 328.293 119.176 M93.692 134.293 L 93.600 143.585 84.300 143.700 L 75.000 143.815 84.313 143.908 C 91.550 143.979,93.669 143.887,93.820 143.491 C 93.928 143.211,93.964 138.936,93.900 133.991 L 93.784 125.000 93.692 134.293 M335.923 143.899 C 338.631 143.968,342.951 143.968,345.523 143.899 C 348.095 143.829,345.880 143.772,340.600 143.773 C 335.320 143.773,333.215 143.830,335.923 143.899 M69.280 144.480 C 69.016 144.744,68.825 145.779,68.854 146.780 C 68.884 147.781,68.980 148.150,69.066 147.600 C 69.433 145.270,69.670 144.747,70.512 144.408 C 71.358 144.068,71.361 144.050,70.580 144.025 C 70.129 144.011,69.544 144.216,69.280 144.480 M354.309 144.397 C 354.810 144.608,355.392 145.190,355.603 145.691 C 355.957 146.528,355.980 146.505,355.894 145.400 C 355.814 144.379,355.621 144.186,354.600 144.106 C 353.495 144.020,353.472 144.043,354.309 144.397 M356.173 159.400 C 356.173 164.680,356.230 166.785,356.299 164.077 C 356.368 161.369,356.368 157.049,356.299 154.477 C 356.229 151.905,356.172 154.120,356.173 159.400 M44.480 169.280 C 44.216 169.544,44.011 170.129,44.025 170.580 C 44.050 171.361,44.068 171.358,44.408 170.512 C 44.747 169.670,45.270 169.433,47.600 169.066 C 48.150 168.980,47.781 168.884,46.780 168.854 C 45.779 168.825,44.744 169.016,44.480 169.280 M378.293 169.176 C 380.384 169.517,380.483 169.616,380.824 171.707 L 381.100 173.400 381.150 171.729 C 381.215 169.552,380.448 168.785,378.271 168.850 L 376.600 168.900 378.293 169.176 M43.698 209.293 L 43.600 243.585 34.300 243.700 L 25.000 243.815 34.313 243.908 C 41.463 243.979,43.669 243.884,43.816 243.500 C 43.921 243.225,43.959 227.700,43.901 209.000 L 43.795 175.000 43.698 209.293 M19.280 244.480 C 19.016 244.744,18.825 245.779,18.854 246.780 C 18.884 247.781,18.980 248.150,19.066 247.600 C 19.433 245.270,19.670 244.747,20.512 244.408 C 21.358 244.068,21.361 244.050,20.580 244.025 C 20.129 244.011,19.544 244.216,19.280 244.480 M380.794 278.100 C 380.785 279.961,380.297 280.500,378.334 280.819 L 376.600 281.100 378.271 281.150 C 380.386 281.213,381.200 280.441,381.200 278.371 C 381.200 277.507,381.110 276.800,381.000 276.800 C 380.890 276.800,380.797 277.385,380.794 278.100 M356.191 315.600 C 356.191 334.630,356.240 342.415,356.300 332.900 C 356.360 323.385,356.360 307.815,356.300 298.300 C 356.240 288.785,356.191 296.570,356.191 315.600 M18.854 303.220 C 18.795 305.200,19.305 306.014,20.580 305.975 C 21.361 305.950,21.358 305.932,20.512 305.592 C 19.670 305.253,19.433 304.730,19.066 302.400 C 18.980 301.850,18.884 302.219,18.854 303.220 M34.497 306.296 L 43.593 306.415 43.702 328.107 L 43.810 349.800 43.805 328.000 L 43.800 306.200 34.600 306.189 L 25.400 306.178 34.497 306.296 M130.275 329.922 L 129.200 331.044 129.200 337.510 C 129.200 343.500,129.272 344.140,130.178 346.189 L 131.156 348.400 137.535 348.400 L 143.915 348.400 144.957 345.796 C 146.540 341.842,146.545 331.909,144.964 330.031 L 143.929 328.800 137.639 328.800 L 131.350 328.800 130.275 329.922 M305.332 353.117 C 304.635 353.493,303.510 354.296,302.832 354.903 L 301.600 356.006 301.590 362.103 C 301.569 375.194,300.757 376.063,288.200 376.437 C 283.800 376.567,279.570 376.886,278.800 377.145 C 275.878 378.127,269.445 378.800,262.903 378.808 L 256.200 378.815 254.300 380.008 L 252.400 381.201 252.400 387.429 C 252.400 393.980,252.825 395.470,255.266 397.487 C 255.980 398.076,305.565 398.384,305.677 397.800 C 305.719 397.580,305.864 399.110,306.000 401.200 C 306.157 403.623,306.275 400.688,306.323 393.100 L 306.400 381.200 318.171 381.200 C 328.339 381.200,330.028 381.114,330.571 380.571 C 331.114 380.028,331.200 378.340,331.200 368.179 L 331.200 356.414 340.700 356.300 L 350.200 356.185 340.549 356.092 C 332.651 356.017,330.810 355.894,330.413 355.415 C 328.345 352.924,308.982 351.150,305.332 353.117 M355.522 354.299 C 355.386 354.793,354.853 355.367,354.338 355.574 C 353.413 355.944,353.416 355.950,354.513 355.975 C 355.678 356.001,356.172 355.350,355.918 354.123 C 355.791 353.511,355.730 353.538,355.522 354.299 M54.723 356.299 C 57.431 356.368,61.751 356.368,64.323 356.299 C 66.895 356.229,64.680 356.172,59.400 356.173 C 54.120 356.173,52.015 356.230,54.723 356.299 M93.776 392.400 C 93.776 398.670,93.832 401.235,93.899 398.100 C 93.967 394.965,93.967 389.835,93.899 386.700 C 93.832 383.565,93.776 386.130,93.776 392.400 M177.090 405.096 L 173.981 406.121 174.090 412.561 L 174.200 419.000 176.400 419.800 C 178.475 420.555,179.758 420.606,199.000 420.713 L 219.400 420.825 221.200 419.913 L 223.000 419.000 223.110 412.512 L 223.220 406.023 221.223 405.012 L 219.227 404.000 199.713 404.035 L 180.200 404.070 177.090 405.096 M230.395 428.100 C 229.230 430.011,229.258 429.274,229.037 462.841 L 228.833 493.882 229.938 494.941 L 231.044 496.000 237.855 496.000 L 244.667 496.000 246.140 494.700 L 247.613 493.400 247.871 462.553 L 248.130 431.705 247.243 430.269 C 245.210 426.979,244.709 426.800,237.563 426.800 L 231.188 426.800 230.395 428.100 M93.781 485.800 C 93.780 493.720,93.834 497.017,93.899 493.126 C 93.965 489.235,93.965 482.755,93.900 478.726 C 93.834 474.697,93.781 477.880,93.781 485.800 M306.181 485.800 C 306.180 493.720,306.234 497.017,306.299 493.126 C 306.365 489.235,306.365 482.755,306.300 478.726 C 306.234 474.697,306.181 477.880,306.181 485.800 M94.000 505.013 C 94.000 505.349,94.278 505.732,94.617 505.862 C 95.521 506.209,95.569 505.898,94.733 505.100 C 94.113 504.508,94.000 504.494,94.000 505.013 M305.100 505.267 C 304.508 505.887,304.494 506.000,305.013 506.000 C 305.349 506.000,305.732 505.722,305.862 505.383 C 306.209 504.479,305.898 504.431,305.100 505.267 M104.723 506.299 C 107.431 506.368,111.751 506.368,114.323 506.299 C 116.895 506.229,114.680 506.172,109.400 506.173 C 104.120 506.173,102.015 506.230,104.723 506.299 M285.923 506.299 C 288.631 506.368,292.951 506.368,295.523 506.299 C 298.095 506.229,295.880 506.172,290.600 506.173 C 285.320 506.173,283.215 506.230,285.923 506.299 M119.055 524.200 C 118.449 525.780,118.775 555.081,119.404 555.603 C 119.844 555.969,123.186 556.160,131.747 556.309 L 143.486 556.514 143.691 568.253 C 143.840 576.814,144.031 580.156,144.397 580.596 C 145.175 581.534,229.633 581.510,230.571 580.571 C 231.114 580.029,231.200 578.345,231.200 568.229 L 231.200 556.515 243.226 556.311 C 250.955 556.180,255.405 555.955,255.680 555.680 C 255.955 555.405,256.180 550.969,256.310 543.273 L 256.513 531.293 255.466 530.606 C 253.605 529.387,251.576 529.144,241.377 528.920 C 227.020 528.605,227.200 528.492,227.200 537.778 C 227.200 547.715,226.275 550.233,222.186 551.421 C 218.561 552.475,153.576 552.088,151.400 551.000 C 148.603 549.601,148.233 548.298,147.997 539.000 L 147.794 531.000 145.660 527.477 L 143.526 523.954 132.263 524.006 C 126.068 524.035,120.620 523.940,120.155 523.797 C 119.568 523.615,119.233 523.738,119.055 524.200 M280.794 528.100 C 280.785 529.961,280.297 530.500,278.334 530.819 L 276.600 531.100 278.271 531.150 C 280.386 531.213,281.200 530.441,281.200 528.371 C 281.200 527.507,281.110 526.800,281.000 526.800 C 280.890 526.800,280.797 527.385,280.794 528.100 " stroke="none" fill="#040404" fill-rule="evenodd"></path><path id="path7" d="M155.389 150.152 C 152.647 152.069,148.042 152.929,139.200 153.176 C 131.265 153.397,130.430 153.490,128.400 154.384 C 124.100 156.276,124.400 155.664,124.401 162.546 C 124.403 170.323,125.215 171.920,130.835 175.215 C 133.739 176.917,135.930 179.110,137.185 181.571 C 139.936 186.963,142.026 188.000,150.149 188.000 L 156.713 188.000 158.765 189.845 C 159.894 190.859,161.530 192.911,162.402 194.404 C 164.106 197.321,165.398 198.598,168.335 200.268 C 171.037 201.804,173.054 203.842,174.797 206.800 C 176.343 209.422,177.691 210.891,179.686 212.127 C 180.673 212.739,183.046 212.800,205.806 212.800 C 226.656 212.800,231.020 212.895,231.920 213.368 C 233.470 214.183,236.091 217.074,237.390 219.400 C 238.947 222.191,240.195 223.433,243.223 225.207 C 246.108 226.899,247.992 228.857,250.528 232.800 C 251.595 234.459,252.904 235.870,254.145 236.700 L 256.090 238.000 262.566 238.000 L 269.042 238.000 270.659 239.189 C 272.232 240.346,272.631 240.858,275.747 245.720 C 276.670 247.159,277.940 248.487,279.095 249.220 L 280.957 250.400 300.000 250.400 L 319.043 250.400 320.905 249.220 C 322.060 248.487,323.330 247.159,324.253 245.720 C 327.369 240.858,327.768 240.346,329.341 239.189 L 330.958 238.000 337.439 238.000 L 343.920 238.000 345.360 234.560 L 346.800 231.120 346.800 206.120 L 346.800 181.120 345.410 179.730 C 344.331 178.651,343.816 178.400,343.110 178.608 C 341.292 179.143,336.800 181.327,336.800 181.676 C 336.800 182.512,332.911 186.093,330.600 187.385 C 327.863 188.916,326.059 190.732,324.774 193.251 C 323.755 195.249,321.026 198.263,319.541 199.031 C 317.891 199.884,232.109 199.884,230.459 199.031 C 228.986 198.269,226.248 195.255,225.248 193.293 C 222.596 188.096,220.778 187.200,212.886 187.200 L 206.557 187.200 204.666 186.001 C 203.409 185.204,202.278 183.992,201.288 182.381 C 198.537 177.903,197.458 176.717,194.613 175.042 C 191.172 173.014,189.134 171.032,187.814 168.428 C 186.400 165.637,184.806 163.946,182.328 162.610 C 181.157 161.979,179.636 161.038,178.946 160.518 C 177.721 159.597,177.313 159.054,174.253 154.280 C 173.330 152.841,172.060 151.513,170.905 150.780 L 169.043 149.600 162.611 149.600 C 157.791 149.600,155.980 149.738,155.389 150.152 M129.714 252.837 C 127.104 254.509,126.800 255.544,126.800 262.767 C 126.800 270.893,125.899 273.065,121.475 275.603 C 119.406 276.789,119.381 276.793,112.847 276.796 C 102.737 276.802,102.000 277.519,102.000 287.352 C 102.000 298.965,98.958 301.998,87.304 302.003 C 77.756 302.007,77.209 302.548,77.198 312.000 C 77.190 318.099,77.163 318.291,75.526 323.800 C 73.895 329.288,73.858 329.545,73.693 336.600 C 73.373 350.307,74.213 351.272,86.685 351.527 L 94.370 351.684 96.343 353.657 L 98.316 355.630 98.473 363.315 C 98.640 371.507,98.909 372.719,100.950 374.490 C 102.654 375.969,103.755 376.142,113.000 376.383 C 125.954 376.722,125.600 376.417,125.600 387.206 C 125.600 394.893,125.729 395.241,129.226 397.013 L 131.173 398.000 149.687 397.997 C 164.703 397.994,169.031 397.870,172.600 397.343 C 176.063 396.830,181.812 396.639,199.600 396.444 L 222.200 396.197 224.600 395.197 L 227.000 394.197 227.200 387.199 C 227.488 377.133,227.421 377.200,237.211 377.200 L 243.662 377.200 244.928 375.933 C 248.018 372.843,252.831 371.633,262.110 371.614 L 268.820 371.600 271.610 370.195 L 274.400 368.790 274.400 349.889 C 274.400 328.688,274.507 329.509,271.422 327.010 L 269.928 325.800 263.311 325.672 C 259.134 325.592,254.574 325.776,250.945 326.172 C 247.783 326.518,241.948 326.800,237.979 326.800 L 230.762 326.800 228.781 328.781 L 226.800 330.762 226.782 338.281 C 226.773 342.416,226.586 347.150,226.367 348.800 C 226.148 350.450,225.830 356.300,225.660 361.800 C 225.224 375.966,225.784 375.307,214.000 375.518 L 206.200 375.658 204.319 374.450 C 203.285 373.785,201.818 372.387,201.060 371.343 L 199.682 369.444 199.473 361.822 C 199.358 357.630,198.985 351.770,198.645 348.800 C 198.304 345.830,198.020 340.558,198.013 337.084 C 197.991 326.092,197.667 325.817,184.340 325.453 C 149.226 324.495,152.026 323.535,152.009 336.537 C 151.999 343.844,151.237 348.964,149.528 353.200 C 148.770 355.078,148.608 356.424,148.420 362.400 C 148.051 374.131,147.095 375.200,136.965 375.200 C 126.723 375.200,127.134 375.652,126.785 364.000 C 126.559 356.467,126.455 355.588,125.514 353.200 C 122.944 346.678,122.226 331.541,124.276 327.103 C 126.384 322.539,128.565 321.620,137.313 321.609 C 147.945 321.595,147.862 321.670,148.103 311.800 C 148.297 303.830,149.063 299.861,151.250 295.511 L 152.400 293.223 152.400 274.749 L 152.400 256.276 150.871 254.822 C 147.830 251.929,133.265 250.563,129.714 252.837 M145.246 255.274 L 146.800 256.147 146.771 275.174 C 146.755 285.638,146.573 295.190,146.366 296.400 C 146.160 297.610,145.879 303.143,145.741 308.696 C 145.436 321.038,146.545 319.745,136.040 320.000 C 121.978 320.341,121.210 321.262,121.215 337.800 C 121.217 343.796,121.420 347.938,121.852 350.800 C 123.505 361.728,123.018 369.823,120.581 371.963 L 119.172 373.200 112.486 373.199 C 102.290 373.196,101.600 372.495,101.600 362.142 C 101.600 350.925,99.064 348.400,87.797 348.400 C 77.574 348.400,76.802 347.656,76.804 337.800 C 76.805 331.944,76.924 330.873,78.200 325.200 C 79.477 319.524,79.595 318.457,79.597 312.570 C 79.601 303.959,78.959 304.524,89.000 304.292 C 97.688 304.090,99.033 303.777,101.405 301.405 C 103.777 299.033,104.090 297.688,104.292 289.000 C 104.524 278.969,103.801 279.729,113.334 279.501 C 127.381 279.165,129.163 277.390,129.498 263.400 C 129.726 253.850,129.236 254.400,137.515 254.400 C 143.123 254.400,143.834 254.480,145.246 255.274 M175.000 328.427 C 176.760 328.630,181.760 328.911,186.111 329.050 C 196.465 329.381,195.587 328.339,195.639 340.354 C 195.805 378.920,195.930 379.200,212.930 379.200 C 218.705 379.200,219.381 379.274,220.438 380.027 L 221.600 380.854 221.600 387.384 C 221.600 393.207,221.524 393.951,220.900 394.255 C 220.245 394.574,212.883 394.703,154.323 395.417 L 131.645 395.693 130.223 394.814 L 128.800 393.935 128.800 387.396 L 128.800 380.858 129.854 380.029 C 130.818 379.270,131.440 379.200,137.181 379.200 C 144.142 379.200,146.704 378.702,148.795 376.942 C 151.547 374.627,152.038 372.661,152.424 362.400 C 152.601 357.670,153.021 351.640,153.356 349.000 C 153.691 346.360,153.973 341.263,153.983 337.674 C 154.009 327.701,153.709 327.991,163.962 328.028 C 168.273 328.044,173.240 328.223,175.000 328.427 M269.874 330.070 L 270.800 330.939 270.800 349.821 C 270.800 366.887,270.736 368.755,270.139 369.251 C 269.639 369.667,267.042 369.866,259.439 370.071 C 252.671 370.253,248.488 370.547,246.600 370.971 C 244.682 371.402,241.761 371.600,237.327 371.600 L 230.854 371.600 229.966 370.352 L 229.077 369.103 229.362 350.056 C 229.610 333.548,229.732 330.917,230.279 330.313 C 231.466 329.002,268.495 328.774,269.874 330.070 M179.400 427.662 C 178.520 428.116,177.215 429.044,176.500 429.723 L 175.200 430.957 175.200 449.694 C 175.200 468.510,174.908 474.147,173.728 478.096 C 173.312 479.489,173.015 482.700,172.850 487.600 C 172.499 497.981,172.877 497.600,162.934 497.600 L 156.320 497.600 155.001 498.919 C 152.743 501.177,152.000 504.475,152.000 512.236 L 152.000 518.788 153.689 522.194 L 155.378 525.600 162.789 525.560 C 174.336 525.498,174.081 525.792,174.419 512.200 C 174.762 498.466,172.555 499.600,198.938 499.600 L 218.661 499.600 219.555 498.648 C 221.132 496.969,221.599 494.415,221.606 487.436 C 221.610 483.406,221.909 478.683,222.406 474.800 C 223.099 469.387,223.200 466.198,223.200 449.681 L 223.200 430.762 221.219 428.781 L 219.238 426.800 200.119 426.818 C 181.597 426.835,180.950 426.861,179.400 427.662 M219.881 430.078 L 221.200 431.357 221.188 449.778 C 221.180 462.784,221.007 469.905,220.600 474.000 C 220.283 477.190,220.018 482.911,220.012 486.713 C 220.003 491.822,219.849 493.988,219.420 495.013 L 218.841 496.400 200.142 496.400 L 181.443 496.400 179.963 495.375 L 178.484 494.349 178.298 486.475 C 178.196 482.144,178.084 467.938,178.050 454.907 L 177.988 431.214 179.654 430.007 L 181.320 428.800 199.941 428.800 L 218.562 428.800 219.881 430.078 M169.994 504.500 L 171.177 505.800 171.188 512.290 L 171.200 518.779 170.020 519.390 C 168.292 520.283,156.568 520.273,155.289 519.377 C 153.939 518.432,153.927 507.151,155.274 504.754 L 156.147 503.200 162.479 503.200 L 168.811 503.200 169.994 504.500 M228.011 504.429 C 225.568 505.537,225.613 505.384,225.606 512.693 L 225.600 519.187 227.700 520.287 C 231.720 522.393,244.079 522.160,246.618 519.930 L 248.019 518.700 247.910 512.269 L 247.800 505.838 246.200 504.732 L 244.600 503.627 237.200 503.622 C 230.614 503.618,229.603 503.707,228.011 504.429 M244.900 505.757 C 246.105 506.671,245.941 518.516,244.711 519.377 C 243.432 520.273,231.708 520.283,229.980 519.390 L 228.800 518.779 228.800 512.451 C 228.800 506.283,228.823 506.111,229.700 505.688 C 231.076 505.025,244.013 505.083,244.900 505.757 " stroke="none" fill="#ac947c" fill-rule="evenodd"></path><path id="path8" d="M144.998 95.202 C 143.975 96.332,144.410 96.437,145.486 95.320 C 145.973 94.814,146.226 94.400,146.048 94.400 C 145.870 94.400,145.397 94.761,144.998 95.202 M151.200 121.595 C 150.650 121.779,149.708 122.038,149.107 122.171 C 146.883 122.661,146.031 127.099,146.010 138.286 C 145.997 145.512,146.946 144.921,134.800 145.270 C 105.757 146.104,100.059 146.433,98.749 147.351 C 96.588 148.864,96.445 149.611,96.121 161.077 C 95.814 171.940,96.732 171.101,85.000 171.236 C 80.160 171.291,75.975 171.508,75.700 171.717 C 75.425 171.927,75.200 171.981,75.200 171.839 C 75.200 171.696,74.663 171.857,74.007 172.196 C 72.948 172.744,71.175 175.200,71.839 175.200 C 71.981 175.200,71.909 175.427,71.678 175.705 C 71.394 176.048,71.245 187.078,71.215 209.998 L 71.171 243.786 70.162 244.839 C 69.154 245.892,69.148 245.893,61.077 246.121 C 44.898 246.579,46.361 244.010,46.110 272.398 C 45.825 304.635,45.028 302.796,59.400 303.076 C 64.240 303.170,68.419 303.318,68.687 303.406 C 70.630 304.041,71.136 315.176,69.528 321.900 L 68.643 325.600 62.021 325.594 C 58.380 325.591,55.151 325.430,54.846 325.237 C 54.534 325.039,53.772 325.036,53.095 325.230 C 52.367 325.439,51.605 325.417,51.149 325.173 C 50.737 324.952,50.400 324.930,50.400 325.124 C 50.400 325.528,48.163 325.435,47.060 324.985 C 46.588 324.793,46.197 324.882,45.981 325.231 C 45.709 325.670,45.590 325.640,45.372 325.073 C 45.140 324.466,45.022 324.522,44.526 325.477 C 43.891 326.702,43.836 353.299,44.471 352.299 C 44.645 352.025,44.791 351.989,44.794 352.220 C 44.797 352.451,44.584 352.856,44.320 353.120 C 43.947 353.493,44.013 353.607,44.620 353.632 C 45.049 353.649,45.186 353.750,44.925 353.857 C 44.591 353.993,44.650 354.257,45.125 354.747 C 45.568 355.204,45.901 355.299,46.094 355.022 C 46.263 354.779,46.390 354.930,46.394 355.380 C 46.399 355.987,46.507 356.053,46.880 355.680 C 47.144 355.416,47.549 355.203,47.780 355.206 C 48.019 355.210,47.992 355.345,47.715 355.520 C 47.449 355.690,52.029 355.878,57.893 355.938 C 63.757 355.999,68.722 356.152,68.927 356.279 C 69.149 356.415,69.220 360.212,69.103 365.654 C 68.988 370.972,69.057 374.800,69.267 374.800 C 69.466 374.800,69.424 375.182,69.174 375.648 C 68.922 376.120,68.897 376.387,69.118 376.251 C 69.337 376.115,69.623 376.283,69.754 376.623 C 69.889 376.977,69.822 377.137,69.595 376.997 C 69.138 376.714,69.050 378.517,69.500 378.967 C 69.665 379.132,69.800 379.477,69.800 379.733 C 69.800 379.990,70.010 380.200,70.267 380.200 C 70.523 380.200,70.868 380.335,71.033 380.500 C 71.483 380.950,73.286 380.862,73.003 380.405 C 72.863 380.178,73.023 380.111,73.377 380.246 C 73.717 380.377,73.885 380.663,73.749 380.882 C 73.613 381.103,73.880 381.078,74.352 380.826 C 74.818 380.576,75.200 380.534,75.200 380.733 C 75.200 380.943,79.047 381.011,84.393 380.896 C 91.966 380.733,93.622 380.796,93.792 381.249 C 93.905 381.552,94.043 386.840,94.099 393.000 L 94.200 404.200 106.488 404.400 C 121.842 404.650,120.400 403.828,120.400 412.333 C 120.400 423.383,121.259 424.084,135.200 424.398 L 144.200 424.600 146.114 425.978 C 147.166 426.735,148.561 428.161,149.214 429.146 L 150.400 430.937 150.393 450.169 L 150.386 469.400 149.261 471.439 L 148.137 473.478 149.419 474.357 C 152.601 476.537,155.646 477.200,162.481 477.200 L 168.844 477.200 169.868 474.965 C 171.955 470.405,171.990 469.985,171.995 449.531 L 172.000 430.462 173.304 428.753 C 174.026 427.805,175.492 426.588,176.592 426.022 L 178.577 425.000 199.200 424.886 L 219.823 424.773 221.590 425.708 C 222.816 426.355,223.648 427.188,224.303 428.421 L 225.249 430.200 225.026 453.600 C 224.904 466.470,224.699 480.870,224.570 485.600 C 224.174 500.191,224.423 500.453,239.000 500.801 C 252.251 501.117,252.000 500.897,252.000 512.200 C 252.000 520.886,251.824 521.439,248.541 523.050 L 246.200 524.200 233.911 524.200 C 218.289 524.200,219.849 525.285,219.663 514.289 C 219.583 509.541,219.356 505.993,219.114 505.700 C 218.472 504.921,181.482 504.978,180.834 505.759 C 180.360 506.330,180.231 521.386,180.680 523.700 L 180.893 524.800 199.947 524.801 C 221.912 524.803,221.956 524.812,224.029 529.696 L 224.493 530.791 225.611 529.249 C 227.617 526.480,229.262 526.002,236.826 525.990 C 254.430 525.962,254.426 525.965,254.774 512.961 C 254.946 506.523,255.135 504.359,255.567 503.838 C 256.120 503.174,274.087 503.025,276.000 503.669 C 276.330 503.781,277.263 504.008,278.074 504.175 C 278.884 504.342,279.866 504.831,280.255 505.261 C 280.995 506.078,303.083 506.382,302.580 505.567 C 302.472 505.393,302.824 505.330,303.361 505.427 C 304.632 505.658,305.658 504.632,305.427 503.361 C 305.330 502.824,305.399 502.476,305.580 502.588 C 306.101 502.909,306.095 471.518,305.574 470.800 C 305.333 470.467,305.064 470.378,304.970 470.600 C 304.861 470.857,300.676 470.959,293.236 470.886 L 281.672 470.771 279.136 472.358 C 274.987 474.956,275.334 473.799,275.510 484.423 L 275.665 493.800 274.311 495.103 C 271.990 497.335,269.299 498.000,262.584 498.000 C 253.938 498.000,254.255 498.512,254.457 484.847 L 254.598 475.358 253.059 473.579 C 252.213 472.601,251.357 471.440,251.156 471.000 C 250.913 470.466,250.859 471.065,250.994 472.800 C 251.105 474.230,251.306 479.720,251.441 485.000 L 251.686 494.600 250.738 496.000 C 248.979 498.596,247.585 498.967,238.965 499.134 C 230.189 499.305,228.919 498.972,226.944 495.987 L 225.887 494.390 226.214 482.895 C 226.776 463.117,226.689 424.529,226.080 423.920 C 225.315 423.156,178.301 423.162,175.400 423.927 C 170.135 425.316,170.000 425.958,170.000 449.665 C 170.000 466.300,169.916 468.993,169.357 470.392 L 168.713 472.000 162.411 472.000 L 156.109 472.000 155.054 470.478 L 154.000 468.957 154.000 450.114 C 154.000 422.291,153.633 421.612,138.400 421.200 C 127.512 420.906,127.600 420.977,127.600 412.381 L 127.600 406.087 129.208 405.443 C 130.605 404.885,133.253 404.800,149.361 404.800 L 167.905 404.800 173.453 402.900 L 179.000 401.000 199.600 401.000 L 220.200 401.000 222.492 402.125 C 223.752 402.744,225.327 403.910,225.992 404.716 L 227.200 406.182 227.200 413.863 C 227.200 423.671,226.328 422.800,236.150 422.800 L 243.843 422.800 245.727 423.995 C 246.786 424.666,248.138 426.020,248.814 427.086 L 250.017 428.983 249.767 427.591 C 248.595 421.056,247.511 420.400,237.883 420.400 C 229.184 420.400,229.599 420.803,229.601 412.374 C 229.603 406.886,229.693 406.053,230.411 404.875 L 231.219 403.550 230.415 402.420 C 228.343 399.511,224.247 399.106,198.800 399.301 L 178.600 399.456 173.658 400.728 L 168.717 402.000 148.091 402.000 C 117.995 402.000,120.015 402.925,119.704 389.002 C 119.606 384.585,119.361 381.194,119.119 380.902 C 118.802 380.521,115.939 380.400,107.213 380.400 C 96.777 380.400,95.666 380.336,95.095 379.700 C 94.557 379.101,94.459 377.354,94.416 367.603 C 94.388 361.334,94.237 356.077,94.080 355.920 C 93.923 355.763,88.666 355.612,82.397 355.584 C 72.646 355.541,70.899 355.443,70.300 354.905 C 69.663 354.333,69.600 353.206,69.600 342.436 L 69.600 330.596 71.202 324.798 L 72.804 319.000 72.764 309.096 C 72.715 296.846,73.639 298.000,63.871 298.000 C 55.988 298.000,54.866 297.744,52.995 295.522 L 52.000 294.339 52.000 274.917 L 52.000 255.495 53.747 253.747 L 55.495 252.000 62.047 251.991 C 69.417 251.981,70.580 251.681,73.516 249.028 C 77.008 245.873,76.800 248.198,76.800 212.385 L 76.800 180.762 78.781 178.781 L 80.762 176.800 87.385 176.800 C 99.257 176.800,101.975 174.055,101.991 162.047 L 102.000 155.495 103.747 153.747 L 105.495 152.000 111.967 152.000 C 116.723 152.000,118.726 151.852,119.520 151.442 C 123.175 149.552,128.035 148.695,136.191 148.502 C 145.025 148.293,146.831 147.824,150.500 144.785 L 152.000 143.542 152.000 137.133 C 152.000 129.989,152.206 129.327,154.954 127.628 C 156.293 126.801,156.352 126.800,212.766 126.800 L 269.238 126.800 271.219 128.781 L 273.200 130.762 273.200 137.385 C 273.200 144.987,273.607 146.429,276.484 149.028 C 279.851 152.070,279.137 151.981,300.338 151.991 C 324.494 152.002,323.200 151.393,323.200 162.763 C 323.200 170.009,323.487 171.061,326.213 173.787 C 328.622 176.196,330.576 176.977,332.384 176.253 C 339.981 173.213,346.582 172.892,349.233 175.432 C 351.573 177.673,351.600 178.028,351.600 206.089 C 351.600 233.847,351.554 234.530,349.298 240.600 C 348.277 243.348,348.253 243.645,348.029 256.546 L 347.800 269.693 346.049 271.246 L 344.297 272.800 337.627 272.800 C 330.059 272.800,328.153 273.353,325.565 276.301 C 322.651 279.620,322.819 277.413,322.809 312.520 L 322.800 344.039 321.100 344.811 C 318.054 346.193,302.931 345.871,299.100 344.342 L 298.000 343.903 298.000 337.436 L 298.000 330.970 296.086 329.085 L 294.173 327.200 287.676 327.200 L 281.180 327.200 280.690 328.300 C 280.334 329.099,280.145 334.820,280.000 349.200 L 279.800 369.000 277.600 370.446 C 272.763 373.626,270.678 374.162,262.200 374.404 C 253.374 374.655,251.638 375.207,247.700 379.015 L 245.600 381.045 245.592 389.823 C 245.586 395.705,245.402 399.458,245.034 401.200 C 244.732 402.630,244.511 403.825,244.542 403.856 C 244.987 404.290,254.232 404.509,277.700 404.642 L 306.000 404.803 306.000 403.648 C 306.000 401.973,306.607 402.011,280.060 402.005 C 253.632 401.999,254.978 402.115,251.910 399.586 C 249.043 397.223,248.400 394.997,248.400 387.434 L 248.400 380.819 250.472 379.181 C 254.339 376.124,254.789 376.000,262.006 376.000 C 269.525 376.000,273.630 375.110,278.731 372.373 L 281.661 370.800 287.756 370.800 L 293.850 370.800 294.900 369.700 C 295.940 368.611,295.951 368.533,296.075 361.600 C 296.286 349.783,297.970 348.422,312.400 348.403 C 319.740 348.394,323.738 347.963,325.647 346.976 C 328.091 345.712,328.000 347.041,328.000 312.703 L 328.000 281.367 329.700 279.699 L 331.400 278.030 340.200 277.878 C 345.040 277.795,349.450 277.653,350.000 277.563 C 350.934 277.411,353.389 275.256,353.034 274.901 C 352.946 274.812,353.057 274.168,353.282 273.470 C 353.921 271.486,354.516 239.311,354.560 204.309 L 354.600 172.418 353.531 171.349 L 352.462 170.280 345.531 170.283 C 341.719 170.285,337.003 170.487,335.051 170.731 C 329.004 171.488,328.843 171.225,328.784 160.464 C 328.759 155.998,328.587 151.862,328.402 151.272 C 328.217 150.682,327.959 149.708,327.827 149.107 C 327.242 146.428,323.500 146.024,299.175 146.010 L 280.950 146.000 279.907 144.900 L 278.865 143.800 278.764 135.000 C 278.709 130.160,278.492 125.975,278.283 125.700 C 278.073 125.425,278.019 125.200,278.161 125.200 C 278.304 125.200,278.143 124.663,277.804 124.007 C 277.256 122.948,274.800 121.175,274.800 121.839 C 274.800 121.981,274.565 121.903,274.277 121.664 C 273.642 121.137,152.769 121.069,151.200 121.595 M354.514 145.320 C 355.001 145.826,355.474 146.187,355.564 146.123 C 355.798 145.955,354.342 144.400,353.952 144.400 C 353.774 144.400,354.027 144.814,354.514 145.320 M129.108 224.023 C 127.153 225.056,125.004 227.232,124.003 229.195 C 122.995 231.169,122.796 244.835,123.757 246.100 C 125.770 248.752,146.152 248.131,150.190 245.294 L 151.800 244.163 151.910 237.862 C 152.055 229.564,150.613 226.304,145.793 224.039 C 143.197 222.818,131.410 222.808,129.108 224.023 M144.878 229.875 L 146.000 230.950 146.000 237.461 C 146.000 243.489,145.943 244.003,145.226 244.386 C 144.134 244.971,131.119 244.928,129.819 244.336 L 128.800 243.872 128.800 237.505 L 128.800 231.138 129.969 229.969 L 131.138 228.800 137.447 228.800 C 143.749 228.800,143.758 228.801,144.878 229.875 M104.416 248.887 C 99.179 251.473,97.895 254.402,98.068 263.364 C 98.256 273.098,97.312 272.387,110.053 272.395 L 119.106 272.400 120.753 270.753 L 122.400 269.106 122.395 260.053 C 122.389 250.071,122.335 249.617,121.074 248.780 C 119.450 247.702,106.648 247.784,104.416 248.887 M204.416 248.904 C 199.346 251.359,198.000 254.293,197.999 262.896 C 197.996 272.813,197.591 273.200,187.197 273.200 C 175.846 273.200,173.200 275.854,173.200 287.237 C 173.200 297.192,172.711 297.699,162.827 298.000 L 156.254 298.200 155.186 300.020 C 152.792 304.097,152.399 305.894,152.409 312.715 C 152.422 321.776,152.207 321.603,163.474 321.592 C 168.705 321.587,172.760 321.370,175.400 320.953 C 177.600 320.605,183.090 320.194,187.600 320.038 C 192.303 319.876,196.269 319.556,196.900 319.288 L 198.000 318.820 198.000 312.660 C 198.000 306.969,198.076 306.328,198.994 304.252 C 201.114 299.458,201.685 296.319,201.951 287.980 C 202.306 276.825,202.331 276.800,212.803 276.800 C 224.200 276.800,226.800 274.164,226.800 262.612 C 226.800 253.884,225.510 251.155,220.255 248.769 C 217.663 247.592,206.937 247.683,204.416 248.904 M119.561 255.260 C 120.309 257.406,120.134 268.388,119.338 269.269 C 118.556 270.133,107.555 270.361,105.260 269.561 L 104.000 269.122 104.000 262.487 C 104.000 253.508,103.511 254.000,112.431 254.000 L 119.122 254.000 119.561 255.260 M220.078 255.075 L 221.200 256.150 221.200 262.506 L 221.200 268.862 220.031 270.031 L 218.862 271.200 212.506 271.200 L 206.150 271.200 205.075 270.078 L 204.000 268.956 204.000 262.404 C 204.000 253.530,203.533 254.000,212.348 254.000 L 218.956 254.000 220.078 255.075 M79.108 274.023 C 74.130 276.651,73.200 278.936,73.200 288.535 C 73.200 298.335,72.000 297.351,84.180 297.539 L 93.849 297.688 95.724 295.813 L 97.600 293.937 97.600 286.223 C 97.600 277.904,97.201 274.593,96.100 273.757 C 94.852 272.809,80.995 273.027,79.108 274.023 M94.336 279.819 C 94.985 281.244,94.971 293.669,94.320 294.320 C 93.669 294.971,81.244 294.985,79.819 294.336 L 78.800 293.872 78.800 287.505 L 78.800 281.138 79.969 279.969 L 81.138 278.800 87.505 278.800 L 93.872 278.800 94.336 279.819 M194.878 279.875 L 196.000 280.950 196.000 287.666 C 196.000 294.157,195.964 294.456,194.917 296.591 L 193.833 298.800 187.298 298.800 L 180.763 298.800 179.786 296.700 C 178.871 294.736,178.808 294.164,178.804 287.869 L 178.800 281.138 179.969 279.969 L 181.138 278.800 187.447 278.800 C 193.749 278.800,193.758 278.801,194.878 279.875 M229.745 298.746 C 227.401 299.843,225.018 302.124,224.039 304.207 C 222.819 306.801,222.763 319.771,223.964 321.256 C 225.506 323.161,248.324 322.712,253.200 320.680 C 253.750 320.451,257.890 320.149,262.400 320.010 C 267.176 319.862,271.059 319.561,271.700 319.288 L 272.800 318.820 272.800 312.295 L 272.800 305.770 270.886 303.885 L 268.973 302.000 262.736 302.000 C 256.964 302.000,256.332 301.926,254.252 301.006 C 247.881 298.188,233.727 296.883,229.745 298.746 M172.015 304.900 L 173.800 305.800 173.910 312.270 L 174.020 318.739 171.900 319.179 C 170.679 319.433,166.734 319.573,162.590 319.510 L 155.400 319.400 155.288 312.600 C 155.135 303.271,154.465 304.000,163.183 304.000 C 169.696 304.000,170.366 304.068,172.015 304.900 M246.591 305.083 L 248.800 306.167 248.800 312.465 L 248.800 318.762 247.300 319.238 C 244.716 320.058,231.552 320.202,230.052 319.427 L 228.800 318.779 228.800 312.512 C 228.800 306.255,228.802 306.242,229.875 305.122 L 230.950 304.000 237.666 304.000 C 244.157 304.000,244.456 304.036,246.591 305.083 M204.660 324.249 C 201.843 327.066,201.529 341.328,204.042 352.315 C 204.620 354.842,204.800 357.184,204.800 362.153 C 204.800 370.564,204.235 370.000,212.651 370.000 C 220.609 370.000,219.999 370.612,220.005 362.620 C 220.008 357.631,220.182 355.495,220.786 353.039 C 222.241 347.109,222.463 344.447,222.330 334.464 C 222.165 322.125,223.055 323.200,213.010 323.200 L 205.709 323.200 204.660 324.249 M129.645 325.367 C 126.058 328.013,125.198 330.335,125.207 337.349 C 125.216 344.538,126.516 349.831,129.393 354.389 C 130.360 355.921,130.400 356.237,130.400 362.343 C 130.400 370.239,129.788 369.651,137.854 369.510 L 144.200 369.400 144.400 362.600 C 144.589 356.162,144.654 355.715,145.623 354.200 C 148.864 349.134,149.705 345.255,149.538 336.151 C 149.329 324.712,149.022 324.400,137.984 324.400 C 131.179 324.400,130.914 324.431,129.645 325.367 M145.750 327.059 C 149.855 330.865,149.611 342.462,145.243 351.115 L 143.979 353.620 137.489 353.510 L 131.000 353.400 129.714 351.000 C 127.173 346.261,126.800 344.517,126.800 337.382 L 126.800 330.920 128.069 329.168 C 130.392 325.962,130.187 326.028,137.804 326.013 L 144.608 326.000 145.750 327.059 M219.427 330.052 C 220.202 331.552,220.058 344.716,219.238 347.300 L 218.762 348.800 212.450 348.800 L 206.137 348.800 205.669 346.769 C 205.048 344.080,205.045 331.179,205.664 329.819 L 206.128 328.800 212.454 328.800 L 218.779 328.800 219.427 330.052 M354.514 354.680 C 354.027 355.186,353.774 355.600,353.952 355.600 C 354.342 355.600,355.798 354.045,355.564 353.877 C 355.474 353.813,355.001 354.174,354.514 354.680 M94.224 471.081 C 93.841 472.081,94.032 502.828,94.420 502.587 C 94.602 502.475,94.670 502.824,94.573 503.361 C 94.342 504.632,95.368 505.658,96.639 505.427 C 97.176 505.330,97.528 505.393,97.420 505.567 C 96.917 506.382,119.005 506.078,119.745 505.261 C 120.134 504.831,121.116 504.342,121.926 504.175 C 122.737 504.008,123.670 503.781,124.000 503.669 C 124.330 503.558,128.940 503.397,134.244 503.311 L 143.888 503.155 144.544 504.538 C 145.065 505.637,145.200 507.207,145.200 512.180 C 145.200 517.173,145.331 518.694,145.849 519.695 C 146.206 520.386,147.356 523.083,148.404 525.688 L 150.309 530.426 151.354 528.642 C 152.652 526.428,152.775 527.062,150.239 522.900 L 148.079 519.354 147.905 511.977 C 147.717 504.051,147.288 501.939,145.326 499.300 L 144.359 498.000 137.970 498.000 C 130.656 498.000,128.066 497.389,125.689 495.103 L 124.335 493.800 124.490 484.423 C 124.666 473.799,125.013 474.956,120.864 472.358 L 118.328 470.771 106.764 470.886 C 100.403 470.949,95.200 470.865,95.200 470.700 C 95.200 470.125,94.484 470.405,94.224 471.081 " stroke="none" fill="#5c4c44" fill-rule="evenodd"></path></g></svg>