<svg id="svg" version="1.1" xmlns="http://www.w3.org/2000/svg" xmlns:xlink="http://www.w3.org/1999/xlink" width="400" height="600" viewBox="0, 0, 400,600"><g id="svgg"><path id="path0" d="M154.878 154.919 L 153.600 156.238 153.600 162.855 C 153.600 169.757,154.051 172.510,155.434 174.038 C 156.515 175.232,243.485 175.232,244.566 174.038 C 245.951 172.507,246.400 169.759,246.400 162.815 L 246.400 156.157 245.081 154.878 L 243.762 153.600 199.959 153.600 L 156.157 153.600 154.878 154.919 M104.636 180.031 C 103.610 181.250,103.600 181.328,103.595 188.131 C 103.589 195.869,102.790 200.977,101.020 204.595 C 99.393 207.920,99.465 217.942,101.131 220.240 C 104.375 224.712,104.901 224.881,115.110 224.724 C 125.530 224.564,124.544 225.609,124.800 214.451 L 125.000 205.728 126.179 204.029 C 126.827 203.095,128.119 201.806,129.051 201.165 L 130.744 200.000 137.272 199.990 L 143.800 199.980 145.667 198.610 C 146.694 197.857,148.089 196.434,148.767 195.448 L 150.000 193.656 150.000 187.490 C 150.000 178.176,151.748 178.800,125.648 178.800 L 105.671 178.800 104.636 180.031 M252.812 179.433 C 250.004 180.651,250.000 180.664,250.000 187.490 L 250.000 193.656 251.233 195.448 C 251.911 196.434,253.306 197.857,254.333 198.610 L 256.200 199.980 262.728 199.990 L 269.256 200.000 270.949 201.165 C 271.881 201.806,273.173 203.095,273.821 204.029 L 275.000 205.728 275.200 214.451 C 275.456 225.609,274.470 224.564,284.890 224.724 C 295.099 224.881,295.625 224.712,298.869 220.240 C 300.535 217.942,300.607 207.920,298.980 204.595 C 297.210 200.977,296.411 195.869,296.405 188.131 C 296.400 181.328,296.390 181.250,295.364 180.031 L 294.329 178.800 274.264 178.816 C 257.305 178.829,253.985 178.924,252.812 179.433 M126.894 225.615 C 125.434 226.201,125.200 227.614,125.200 235.846 C 125.200 244.759,125.232 244.875,128.432 247.752 C 131.090 250.143,131.095 250.144,140.274 249.913 C 150.488 249.657,149.657 250.488,149.913 240.274 C 150.156 230.618,149.265 228.109,144.768 225.783 C 143.467 225.111,128.500 224.970,126.894 225.615 M254.984 225.932 C 253.356 226.941,250.442 230.295,250.137 231.510 C 249.475 234.148,250.258 248.035,251.117 248.894 C 252.452 250.230,267.663 250.521,269.718 249.251 C 271.540 248.125,274.311 245.094,274.610 243.901 C 275.217 241.486,274.621 226.847,273.887 226.113 C 272.758 224.985,256.759 224.832,254.984 225.932 M153.544 250.285 C 150.406 250.547,150.311 250.808,150.086 259.754 C 149.844 269.379,150.739 271.893,155.232 274.217 C 156.930 275.094,243.070 275.094,244.768 274.217 C 246.262 273.444,249.544 269.764,249.859 268.508 C 250.545 265.776,249.744 251.966,248.848 251.070 L 247.978 250.200 201.689 250.165 C 176.230 250.146,154.565 250.200,153.544 250.285 M54.828 301.038 C 51.757 303.622,51.032 312.341,52.800 325.400 C 53.332 329.329,53.600 333.544,53.600 337.982 C 53.600 344.470,53.631 344.717,54.700 346.828 L 55.800 349.000 62.303 349.110 C 69.726 349.235,69.993 349.143,72.637 345.546 L 74.000 343.693 74.000 337.271 L 74.000 330.849 76.197 324.925 L 78.395 319.000 78.397 312.474 C 78.400 305.634,78.276 305.030,76.477 303.101 C 74.396 300.869,71.802 300.263,63.574 300.087 L 56.148 299.927 54.828 301.038 M329.800 300.272 C 322.627 301.879,321.599 303.410,321.603 312.480 L 321.605 319.000 323.803 324.925 L 326.000 330.849 326.000 337.271 L 326.000 343.693 327.363 345.546 C 330.007 349.143,330.274 349.235,337.697 349.110 L 344.200 349.000 345.300 346.828 C 346.369 344.717,346.400 344.470,346.400 337.982 C 346.400 333.544,346.668 329.329,347.200 325.400 C 348.958 312.417,348.240 303.620,345.215 301.074 L 343.939 300.000 337.269 300.046 C 333.601 300.072,330.240 300.173,329.800 300.272 M71.736 304.504 L 74.000 306.008 74.000 312.077 C 74.000 316.827,73.829 318.803,73.211 321.173 C 71.038 329.513,70.800 331.124,70.800 337.494 C 70.800 343.557,70.773 343.761,69.780 345.062 L 68.759 346.400 62.444 346.400 L 56.128 346.400 55.664 345.381 C 55.377 344.750,55.195 341.971,55.188 338.081 C 55.182 334.627,54.915 329.280,54.596 326.200 C 53.758 318.104,53.793 306.089,54.659 304.789 C 55.988 302.792,56.185 302.748,63.036 302.878 L 69.473 303.000 71.736 304.504 M344.065 303.300 C 345.864 304.756,346.000 305.455,345.992 313.189 C 345.987 317.265,345.722 323.120,345.404 326.200 C 345.085 329.280,344.818 334.627,344.812 338.081 C 344.805 341.971,344.623 344.750,344.336 345.381 L 343.872 346.400 337.556 346.400 L 331.241 346.400 330.220 345.062 C 329.227 343.761,329.200 343.557,329.200 337.494 C 329.200 331.124,328.962 329.513,326.789 321.173 C 326.172 318.805,326.000 316.827,326.000 312.092 L 326.000 306.038 327.780 304.814 C 328.759 304.140,329.974 303.423,330.480 303.220 C 331.937 302.635,343.326 302.702,344.065 303.300 M54.155 376.762 C 53.471 377.179,52.481 378.124,51.955 378.860 L 51.000 380.200 50.889 399.345 C 50.766 420.443,50.617 419.189,53.400 420.455 C 54.739 421.064,56.086 421.184,61.658 421.191 C 75.998 421.210,78.338 423.574,78.764 438.471 C 78.980 446.051,79.070 446.837,79.843 447.871 L 80.685 449.000 87.399 449.110 L 94.113 449.220 96.657 446.677 L 99.200 444.133 99.200 437.287 C 99.200 431.137,99.100 430.124,98.220 427.321 C 96.776 422.724,96.406 419.726,96.403 412.578 L 96.400 406.157 95.100 404.907 L 93.800 403.657 86.570 403.529 C 73.648 403.299,71.215 400.615,71.205 386.579 C 71.200 380.476,71.148 380.054,70.164 378.079 L 69.128 376.000 62.264 376.001 C 56.229 376.003,55.250 376.095,54.155 376.762 M69.348 379.900 C 69.766 380.708,69.966 383.229,70.105 389.400 C 70.427 403.815,71.363 404.734,86.090 405.098 C 91.308 405.227,94.108 405.448,94.360 405.751 C 95.182 406.742,95.409 443.506,94.599 444.401 C 93.615 445.488,81.690 445.633,80.629 444.571 C 80.104 444.047,80.000 442.759,80.000 436.791 C 80.000 421.528,78.486 420.000,63.367 420.000 C 58.166 420.000,56.019 419.852,54.987 419.420 L 53.600 418.841 53.600 399.990 L 53.600 381.138 54.769 379.969 L 55.938 378.800 62.359 378.800 L 68.779 378.800 69.348 379.900 M303.283 428.397 L 300.766 430.774 300.884 438.087 C 300.995 444.946,301.076 445.624,302.188 449.000 L 303.373 452.600 303.508 473.200 L 303.644 493.800 304.900 495.100 L 306.157 496.400 325.407 496.400 L 344.657 496.400 346.828 495.300 L 349.000 494.200 349.104 475.061 L 349.208 455.923 348.308 454.322 C 346.598 451.279,345.130 450.800,337.510 450.800 L 330.890 450.800 328.963 449.500 C 327.904 448.785,326.398 447.307,325.618 446.215 L 324.200 444.229 324.000 437.015 C 323.705 426.380,323.312 425.995,312.775 426.010 L 305.800 426.020 303.283 428.397 M320.078 429.875 L 321.200 430.950 321.200 437.313 C 321.200 450.765,323.582 453.306,336.400 453.528 L 343.800 453.656 345.100 454.907 L 346.400 456.157 346.400 475.014 L 346.400 493.872 345.381 494.336 C 343.863 495.027,306.251 494.993,305.703 494.300 C 304.895 493.276,304.682 431.323,305.482 429.969 L 306.172 428.800 312.564 428.800 C 318.956 428.800,318.956 428.800,320.078 429.875 M104.784 502.300 L 103.530 506.200 103.702 514.200 C 103.974 526.866,103.927 526.800,112.666 526.800 C 122.837 526.800,123.183 527.141,123.223 537.200 L 123.250 543.800 125.106 545.156 C 126.127 545.902,127.871 546.935,128.981 547.452 L 131.000 548.392 150.000 548.392 L 169.000 548.392 171.019 547.452 C 172.129 546.935,173.873 545.902,174.894 545.156 L 176.750 543.800 176.775 537.487 C 176.803 530.405,176.339 528.781,173.536 526.143 C 170.308 523.106,171.070 523.200,149.716 523.199 C 125.170 523.197,126.800 523.945,126.800 512.676 C 126.800 505.480,126.710 505.169,123.659 501.846 C 120.809 498.742,119.707 498.400,112.540 498.400 L 106.038 498.400 104.784 502.300 M120.083 504.681 L 121.600 506.162 121.600 512.759 L 121.600 519.356 120.525 520.478 L 119.450 521.600 112.789 521.600 L 106.128 521.600 105.664 520.581 C 105.026 519.180,105.039 506.303,105.680 504.528 L 106.161 503.200 112.363 503.200 L 118.566 503.200 120.083 504.681 M170.281 529.678 L 171.600 530.957 171.600 537.439 L 171.600 543.922 170.340 544.361 C 168.592 544.970,131.408 544.970,129.660 544.361 L 128.400 543.922 128.400 537.283 L 128.400 530.644 129.475 529.522 L 130.550 528.400 149.756 528.400 L 168.962 528.400 170.281 529.678 " stroke="none" fill="#ac947c" fill-rule="evenodd"></path><path id="path1" d="M153.600 149.459 C 149.559 150.852,148.800 152.896,148.800 162.387 C 148.800 169.969,148.573 170.670,145.394 172.877 L 143.800 173.985 123.537 174.092 L 103.273 174.200 101.737 175.433 C 99.308 177.381,98.838 179.307,98.817 187.400 C 98.797 194.921,98.276 196.827,95.070 201.088 L 93.800 202.775 87.253 202.788 L 80.706 202.800 79.153 204.353 L 77.600 205.906 77.600 249.924 L 77.600 293.942 76.545 294.772 C 74.491 296.388,71.950 296.800,64.027 296.802 C 50.469 296.806,49.985 297.358,50.022 312.773 C 50.033 317.738,50.221 323.240,50.439 325.000 C 50.657 326.760,50.972 333.240,51.139 339.400 C 51.564 355.030,51.174 354.550,63.238 354.333 C 76.407 354.095,78.332 352.076,78.801 338.000 C 79.044 330.729,79.138 330.003,80.189 327.300 L 81.316 324.400 87.666 324.400 C 94.645 324.400,95.454 324.638,98.059 327.455 C 100.650 330.256,100.797 330.820,100.799 337.964 L 100.800 344.528 103.136 346.864 L 105.472 349.200 112.036 349.201 C 119.180 349.203,119.744 349.350,122.545 351.941 C 125.385 354.567,125.600 355.319,125.600 362.629 L 125.600 369.274 128.163 371.837 L 130.726 374.400 200.000 374.400 L 269.274 374.400 271.837 371.837 L 274.400 369.274 274.400 362.629 C 274.400 355.319,274.615 354.567,277.455 351.941 C 280.256 349.350,280.820 349.203,287.964 349.201 L 294.528 349.200 296.864 346.864 L 299.200 344.528 299.201 337.964 C 299.203 330.820,299.350 330.256,301.941 327.455 C 304.546 324.638,305.355 324.400,312.334 324.400 L 318.684 324.400 319.811 327.300 C 320.862 330.003,320.956 330.729,321.199 338.000 C 321.668 352.076,323.593 354.095,336.762 354.333 C 348.826 354.550,348.436 355.030,348.861 339.400 C 349.028 333.240,349.343 326.760,349.561 325.000 C 349.779 323.240,349.967 317.738,349.978 312.773 C 350.015 297.358,349.531 296.806,335.973 296.802 C 328.050 296.800,325.509 296.388,323.455 294.772 L 322.400 293.942 322.400 249.924 L 322.400 205.906 320.847 204.353 L 319.294 202.800 312.747 202.788 L 306.200 202.775 304.930 201.088 C 301.724 196.827,301.203 194.921,301.183 187.400 C 301.162 179.307,300.692 177.381,298.263 175.433 L 296.727 174.200 276.463 174.092 L 256.200 173.985 254.606 172.877 C 251.427 170.670,251.200 169.969,251.200 162.387 C 251.200 152.821,250.445 150.832,246.286 149.440 C 243.425 148.483,156.379 148.501,153.600 149.459 M245.081 154.878 L 246.400 156.157 246.400 162.815 C 246.400 169.759,245.951 172.507,244.566 174.038 C 243.485 175.232,156.515 175.232,155.434 174.038 C 154.051 172.510,153.600 169.757,153.600 162.855 L 153.600 156.238 154.878 154.919 L 156.157 153.600 199.959 153.600 L 243.762 153.600 245.081 154.878 M147.098 179.415 C 149.998 180.627,150.000 180.632,150.000 187.490 L 150.000 193.656 148.767 195.448 C 148.089 196.434,146.694 197.857,145.667 198.610 L 143.800 199.980 137.272 199.990 L 130.744 200.000 129.051 201.165 C 128.119 201.806,126.827 203.095,126.179 204.029 L 125.000 205.728 124.800 214.451 C 124.544 225.609,125.530 224.564,115.110 224.724 C 104.901 224.881,104.375 224.712,101.131 220.240 C 99.465 217.942,99.393 207.920,101.020 204.595 C 102.790 200.977,103.589 195.869,103.595 188.131 C 103.600 181.328,103.610 181.250,104.636 180.031 L 105.671 178.800 125.648 178.800 C 142.721 178.800,145.840 178.889,147.098 179.415 M295.364 180.031 C 296.390 181.250,296.400 181.328,296.405 188.131 C 296.411 195.869,297.210 200.977,298.980 204.595 C 300.607 207.920,300.535 217.942,298.869 220.240 C 295.625 224.712,295.099 224.881,284.890 224.724 C 274.470 224.564,275.456 225.609,275.200 214.451 L 275.000 205.728 273.821 204.029 C 273.173 203.095,271.881 201.806,270.949 201.165 L 269.256 200.000 262.728 199.990 L 256.200 199.980 254.333 198.610 C 253.306 197.857,251.911 196.434,251.233 195.448 L 250.000 193.656 250.000 187.490 C 250.000 178.192,248.198 178.836,274.264 178.816 L 294.329 178.800 295.364 180.031 M144.768 225.783 C 149.265 228.109,150.156 230.618,149.913 240.274 C 149.657 250.488,150.488 249.657,140.274 249.913 C 131.095 250.144,131.090 250.143,128.432 247.752 C 125.232 244.875,125.200 244.759,125.200 235.846 C 125.200 227.614,125.434 226.201,126.894 225.615 C 128.500 224.970,143.467 225.111,144.768 225.783 M273.887 226.113 C 274.621 226.847,275.217 241.486,274.610 243.901 C 274.311 245.094,271.540 248.125,269.718 249.251 C 267.663 250.521,252.452 250.230,251.117 248.894 C 250.258 248.035,249.475 234.148,250.137 231.510 C 250.442 230.295,253.356 226.941,254.984 225.932 C 256.759 224.832,272.758 224.985,273.887 226.113 M248.848 251.070 C 249.744 251.966,250.545 265.776,249.859 268.508 C 249.544 269.764,246.262 273.444,244.768 274.217 C 243.070 275.094,156.930 275.094,155.232 274.217 C 153.738 273.444,150.456 269.764,150.141 268.508 C 149.556 266.176,150.246 252.034,150.984 251.217 C 151.994 250.102,150.811 250.127,201.689 250.165 L 247.978 250.200 248.848 251.070 M73.226 301.124 C 75.425 301.991,77.077 303.372,77.951 305.074 C 78.229 305.615,78.399 308.430,78.397 312.474 L 78.395 319.000 76.197 324.925 L 74.000 330.849 74.000 337.271 L 74.000 343.693 72.637 345.546 C 69.993 349.143,69.726 349.235,62.303 349.110 L 55.800 349.000 54.700 346.828 C 53.631 344.717,53.600 344.470,53.600 337.982 C 53.600 333.544,53.332 329.329,52.800 325.400 C 51.032 312.341,51.757 303.622,54.828 301.038 L 56.148 299.927 63.574 300.087 C 70.042 300.226,71.287 300.359,73.226 301.124 M345.215 301.074 C 348.240 303.620,348.958 312.417,347.200 325.400 C 346.668 329.329,346.400 333.544,346.400 337.982 C 346.400 344.470,346.369 344.717,345.300 346.828 L 344.200 349.000 337.697 349.110 C 330.274 349.235,330.007 349.143,327.363 345.546 L 326.000 343.693 326.000 337.271 L 326.000 330.849 323.803 324.925 L 321.605 319.000 321.603 312.480 C 321.599 304.155,322.360 302.571,327.088 301.062 C 330.071 300.109,330.209 300.096,337.269 300.046 L 343.939 300.000 345.215 301.074 M50.903 370.821 C 45.342 371.592,45.824 369.274,45.671 396.000 C 45.499 426.282,44.107 423.570,59.991 423.895 L 69.381 424.087 71.313 425.344 C 72.378 426.037,73.862 427.527,74.622 428.668 L 76.000 430.736 76.018 441.668 L 76.036 452.600 77.965 450.483 C 79.891 448.369,79.893 448.364,79.365 446.883 C 79.007 445.881,78.829 443.177,78.818 438.542 C 78.781 424.100,75.922 421.210,61.658 421.191 C 56.086 421.184,54.739 421.064,53.400 420.455 C 50.617 419.189,50.766 420.446,50.889 399.314 L 51.000 380.137 52.121 378.668 C 54.011 376.190,54.739 376.000,62.344 376.000 L 69.128 376.000 70.164 378.079 C 71.148 380.054,71.200 380.476,71.205 386.579 C 71.215 400.615,73.648 403.299,86.570 403.529 L 93.800 403.657 95.055 404.863 L 96.309 406.069 96.504 414.134 C 96.691 421.832,97.002 424.138,98.322 427.600 C 98.675 428.526,98.867 428.590,100.913 428.465 L 103.124 428.330 101.969 426.465 C 99.463 422.419,98.800 419.375,98.800 411.911 L 98.800 405.162 96.819 403.181 L 94.838 401.200 88.199 401.200 C 82.877 401.200,81.306 401.072,80.280 400.553 C 78.025 399.413,76.346 397.943,75.158 396.069 L 74.000 394.243 73.993 387.022 C 73.983 376.497,73.085 372.982,69.957 371.224 C 68.359 370.326,56.312 370.071,50.903 370.821 M303.600 423.036 C 302.170 424.478,300.132 426.320,299.072 427.129 L 297.143 428.600 298.672 429.069 C 301.267 429.866,301.917 429.710,303.959 427.800 L 305.883 426.000 312.817 426.000 C 323.308 426.000,323.706 426.392,324.000 437.015 L 324.200 444.229 325.618 446.215 C 326.398 447.307,327.904 448.785,328.963 449.500 L 330.890 450.800 337.510 450.800 C 345.130 450.800,346.598 451.279,348.308 454.322 L 349.208 455.923 349.104 475.061 L 349.000 494.200 346.828 495.300 L 344.657 496.400 325.407 496.400 L 306.157 496.400 304.900 495.100 L 303.644 493.800 303.498 473.200 C 303.357 453.066,303.333 452.530,302.431 449.500 L 301.508 446.400 299.578 446.400 C 297.271 446.400,296.891 446.836,297.917 448.303 C 298.340 448.906,299.206 450.660,299.843 452.200 L 301.000 455.000 301.200 475.018 C 301.422 497.226,301.303 496.286,304.122 498.028 C 305.943 499.153,349.759 499.061,351.827 497.928 C 354.464 496.482,354.443 496.703,354.292 471.600 C 354.148 447.883,354.158 448.080,353.078 446.886 C 352.175 445.888,352.785 445.948,341.346 445.736 C 328.551 445.499,329.683 446.377,329.563 436.600 C 329.446 427.116,329.017 422.839,328.089 421.911 C 327.150 420.972,322.766 420.542,313.400 420.470 L 306.200 420.414 303.600 423.036 M98.560 448.560 C 97.796 449.324,97.200 450.326,97.200 450.846 C 97.200 451.664,97.459 451.517,99.400 449.600 C 101.920 447.112,101.870 447.200,100.760 447.200 C 100.298 447.200,99.308 447.812,98.560 448.560 M105.462 480.331 C 104.905 480.947,104.800 482.061,104.800 487.351 C 104.800 492.035,104.653 493.923,104.225 494.751 C 102.307 498.460,101.202 504.812,101.188 512.200 C 101.163 526.049,100.077 529.765,95.735 530.858 L 94.000 531.295 94.000 537.815 C 94.000 541.401,94.092 544.574,94.204 544.867 C 94.369 545.298,96.728 545.380,106.504 545.297 L 118.600 545.195 120.267 546.297 C 121.184 546.904,122.648 547.984,123.521 548.697 L 125.107 549.994 125.749 548.097 L 126.390 546.200 125.110 545.100 C 124.406 544.495,123.688 544.000,123.515 544.000 C 123.342 544.000,123.199 540.985,123.199 537.300 C 123.196 527.130,122.865 526.800,112.666 526.800 C 103.927 526.800,103.974 526.866,103.702 514.200 L 103.530 506.200 104.784 502.300 L 106.038 498.400 112.540 498.400 C 119.707 498.400,120.809 498.742,123.659 501.846 C 126.715 505.174,126.800 505.470,126.801 512.756 C 126.804 523.921,125.216 523.200,149.793 523.200 L 168.827 523.200 170.713 524.164 C 175.619 526.672,176.800 529.275,176.800 537.584 C 176.800 541.113,176.658 544.000,176.485 544.000 C 176.312 544.000,175.594 544.495,174.890 545.100 L 173.610 546.200 174.251 548.097 L 174.893 549.994 176.479 548.697 C 177.352 547.984,178.816 546.908,179.733 546.308 L 181.400 545.215 212.600 545.201 C 231.499 545.193,244.037 545.039,244.400 544.809 C 244.885 544.503,245.045 542.957,245.234 536.715 C 245.733 520.306,245.544 520.412,274.438 520.405 C 297.831 520.399,295.200 521.401,295.200 512.497 C 295.200 504.235,295.742 504.800,287.807 504.800 C 278.331 504.800,273.246 503.562,271.217 500.759 L 270.115 499.238 269.590 500.219 C 269.068 501.193,269.024 501.200,263.064 501.200 C 257.559 501.200,256.851 501.285,254.504 502.224 C 249.140 504.370,248.730 504.386,200.000 504.386 C 151.270 504.386,150.860 504.370,145.496 502.224 C 143.132 501.278,142.460 501.200,136.677 501.200 C 128.474 501.200,126.102 500.343,124.495 496.800 C 123.522 494.653,123.267 481.968,124.169 480.590 L 124.818 479.600 115.471 479.600 C 106.924 479.600,106.067 479.663,105.462 480.331 " stroke="none" fill="#846c5c" fill-rule="evenodd"></path><path id="path2" d="M105.160 430.300 C 104.670 431.583,104.822 444.956,105.332 445.467 C 105.514 445.650,109.114 445.890,113.332 446.000 C 127.656 446.374,129.632 448.891,129.007 465.974 C 128.833 470.718,128.709 475.140,128.730 475.800 C 128.752 476.460,128.884 480.780,129.023 485.400 C 129.275 493.731,129.286 493.809,130.314 494.900 L 131.350 496.000 137.642 496.000 C 143.480 496.000,144.074 496.069,145.867 496.960 C 146.930 497.488,148.700 498.225,149.800 498.599 C 155.295 500.464,153.512 500.400,200.000 500.400 C 246.501 500.400,244.729 500.464,250.200 498.594 C 251.300 498.218,252.920 497.533,253.800 497.072 C 255.193 496.341,256.324 496.204,262.533 496.016 C 268.991 495.820,269.720 495.726,270.233 495.024 C 270.703 494.380,270.800 491.035,270.800 475.415 C 270.800 447.008,271.125 446.405,286.668 446.000 C 290.886 445.890,294.486 445.650,294.668 445.467 C 295.178 444.956,295.330 431.583,294.840 430.300 L 294.420 429.200 275.039 429.200 L 255.658 429.200 254.829 430.254 C 254.069 431.220,254.000 431.839,254.000 437.693 C 254.000 446.390,253.157 447.856,247.284 449.378 C 243.657 450.318,156.343 450.318,152.716 449.378 C 146.843 447.856,146.000 446.390,146.000 437.693 C 146.000 431.839,145.931 431.220,145.171 430.254 L 144.342 429.200 124.961 429.200 L 105.580 429.200 105.160 430.300 M73.999 455.259 C 72.348 455.416,70.503 455.733,69.899 455.962 L 68.800 456.380 68.800 463.157 C 68.800 466.885,68.892 470.174,69.004 470.467 C 69.170 470.898,71.592 470.979,81.704 470.892 L 94.200 470.785 95.100 469.770 C 96.076 468.670,96.494 457.000,95.608 455.600 C 95.186 454.933,79.959 454.693,73.999 455.259 M128.600 551.963 C 125.258 552.936,125.212 553.075,125.212 562.200 C 125.213 570.915,125.578 572.169,128.608 573.885 L 130.200 574.787 150.000 574.787 L 169.800 574.787 171.392 573.885 C 174.422 572.169,174.787 570.915,174.788 562.200 C 174.788 552.989,174.772 552.942,171.200 551.936 C 167.362 550.854,132.334 550.877,128.600 551.963 " stroke="none" fill="#1c9ab5" fill-rule="evenodd"></path><path id="path3" d="M151.387 145.589 C 145.651 146.106,145.662 146.081,145.340 159.400 C 145.143 167.534,145.008 169.105,144.452 169.690 C 143.848 170.327,142.101 170.383,121.989 170.410 C 99.569 170.440,97.153 170.592,96.387 172.025 C 95.765 173.187,95.371 178.158,95.246 186.439 C 95.077 197.607,95.974 196.726,84.668 196.831 C 79.888 196.876,75.880 197.070,75.761 197.263 C 75.642 197.455,75.392 197.519,75.206 197.404 C 74.810 197.159,72.260 199.594,72.579 199.912 C 72.697 200.030,72.628 200.326,72.426 200.569 C 71.719 201.421,71.661 204.925,71.631 249.236 L 71.600 293.872 70.100 294.329 C 69.234 294.593,64.966 294.833,60.000 294.897 C 50.562 295.019,49.537 295.264,48.895 297.549 C 48.502 298.950,48.540 320.763,48.959 334.000 C 49.457 349.754,48.749 354.211,45.529 355.562 L 44.008 356.200 44.004 362.500 L 44.000 368.800 35.700 368.860 C 31.135 368.893,26.905 368.882,26.300 368.835 C 25.695 368.787,25.200 368.949,25.200 369.194 C 25.200 369.475,24.976 369.514,24.594 369.301 C 21.895 367.790,17.726 372.092,19.348 374.715 C 19.512 374.982,19.461 375.200,19.233 375.200 C 18.952 375.200,18.819 383.162,18.819 400.000 C 18.819 416.838,18.952 424.800,19.233 424.800 C 19.461 424.800,19.512 425.018,19.348 425.285 C 17.726 427.908,21.895 432.210,24.594 430.699 C 24.949 430.500,25.200 430.519,25.200 430.743 C 25.200 430.974,28.851 431.146,34.414 431.177 L 43.629 431.229 44.206 429.848 C 45.550 426.632,48.252 426.000,60.665 426.000 L 69.583 426.000 71.791 428.209 L 74.000 430.417 74.000 439.051 C 74.000 449.916,73.162 453.829,70.533 455.236 C 69.102 456.002,69.633 456.052,72.170 455.391 C 76.078 454.373,75.971 454.752,75.987 441.876 L 76.000 430.752 74.700 428.754 C 73.982 427.650,72.504 426.159,71.398 425.421 L 69.396 424.087 59.998 423.895 C 48.330 423.656,47.352 423.418,46.145 420.531 C 45.540 419.081,45.375 378.588,45.959 374.490 C 46.460 370.971,46.973 370.817,59.257 370.520 C 73.159 370.183,73.978 371.100,73.993 387.022 L 74.000 394.243 75.158 396.069 C 76.346 397.943,78.025 399.413,80.280 400.553 C 81.306 401.072,82.877 401.200,88.199 401.200 L 94.838 401.200 96.819 403.181 L 98.800 405.162 98.800 411.911 C 98.800 419.208,99.413 422.162,101.754 426.158 C 103.712 429.499,101.843 429.246,124.318 429.211 L 144.326 429.180 145.163 430.244 C 145.933 431.223,146.000 431.820,146.000 437.693 C 146.000 444.604,146.353 446.153,148.206 447.367 L 149.143 447.981 148.176 446.290 C 147.263 444.692,147.209 444.239,147.202 438.000 C 147.196 432.292,147.096 431.251,146.465 430.294 C 144.903 427.925,145.853 428.027,125.134 428.013 L 106.068 428.000 104.656 426.076 C 101.229 421.407,101.023 420.658,100.791 412.000 C 100.469 399.952,99.770 399.249,88.080 399.218 C 80.645 399.198,80.210 399.070,77.646 396.157 L 76.000 394.287 76.000 386.028 C 76.000 370.778,76.571 370.007,87.880 370.003 C 103.451 369.997,104.676 371.174,105.153 386.600 L 105.400 394.600 126.000 394.819 C 155.318 395.131,154.687 394.775,155.094 411.200 C 155.202 415.560,155.466 419.221,155.693 419.500 C 156.012 419.895,165.361 420.000,200.000 420.000 C 234.639 420.000,243.988 419.895,244.307 419.500 C 244.534 419.221,244.798 415.560,244.906 411.200 C 245.313 394.784,244.764 395.096,273.588 394.894 C 287.051 394.799,293.946 394.611,294.288 394.327 C 294.665 394.014,294.800 392.231,294.800 387.586 C 294.800 371.454,296.636 369.743,313.600 370.063 C 322.604 370.232,324.912 370.896,327.945 374.187 C 329.272 375.627,331.200 379.563,331.200 380.833 C 331.200 381.094,334.509 381.213,340.600 381.170 C 345.770 381.134,350.000 380.982,350.000 380.832 C 350.000 380.683,350.655 380.637,351.455 380.730 C 352.610 380.865,352.841 380.787,352.578 380.350 C 352.317 379.917,352.369 379.896,352.823 380.254 C 353.799 381.022,355.106 380.205,355.566 378.540 C 355.878 377.409,355.859 376.958,355.490 376.724 C 355.117 376.486,355.115 376.411,355.481 376.406 C 355.842 376.402,355.966 373.883,355.981 366.300 L 356.000 356.200 354.475 355.562 C 351.251 354.212,350.542 349.761,351.041 334.000 C 351.460 320.763,351.498 298.950,351.105 297.549 C 350.463 295.264,349.438 295.019,340.000 294.897 C 335.034 294.833,330.766 294.593,329.900 294.329 L 328.400 293.872 328.369 249.236 C 328.339 204.925,328.281 201.421,327.574 200.569 C 327.372 200.326,327.303 200.030,327.421 199.912 C 327.740 199.594,325.190 197.159,324.794 197.404 C 324.608 197.519,324.358 197.455,324.239 197.263 C 324.120 197.070,320.112 196.876,315.332 196.831 C 304.026 196.726,304.923 197.607,304.754 186.439 C 304.629 178.158,304.235 173.187,303.613 172.025 C 302.847 170.592,300.431 170.440,278.011 170.410 C 257.899 170.383,256.152 170.327,255.548 169.690 C 254.991 169.105,254.859 167.546,254.673 159.400 C 254.414 148.020,254.172 146.891,251.799 146.008 C 250.054 145.358,158.207 144.976,151.387 145.589 M246.286 149.440 C 250.445 150.832,251.200 152.821,251.200 162.387 C 251.200 169.969,251.427 170.670,254.606 172.877 L 256.200 173.985 276.463 174.092 L 296.727 174.200 298.263 175.433 C 300.692 177.381,301.162 179.307,301.183 187.400 C 301.203 194.921,301.724 196.827,304.930 201.088 L 306.200 202.775 312.747 202.788 L 319.294 202.800 320.847 204.353 L 322.400 205.906 322.400 249.924 L 322.400 293.942 323.455 294.772 C 325.509 296.388,328.050 296.800,335.973 296.802 C 349.531 296.806,350.015 297.358,349.978 312.773 C 349.967 317.738,349.779 323.240,349.561 325.000 C 349.343 326.760,349.028 333.240,348.861 339.400 C 348.436 355.030,348.826 354.550,336.762 354.333 C 323.593 354.095,321.668 352.076,321.199 338.000 C 320.956 330.729,320.862 330.003,319.811 327.300 L 318.684 324.400 312.334 324.400 C 305.355 324.400,304.546 324.638,301.941 327.455 C 299.350 330.256,299.203 330.820,299.201 337.964 L 299.200 344.528 296.864 346.864 L 294.528 349.200 287.964 349.201 C 280.820 349.203,280.256 349.350,277.455 351.941 C 274.615 354.567,274.400 355.319,274.400 362.629 L 274.400 369.274 271.837 371.837 L 269.274 374.400 200.000 374.400 L 130.726 374.400 128.163 371.837 L 125.600 369.274 125.600 362.629 C 125.600 355.319,125.385 354.567,122.545 351.941 C 119.744 349.350,119.180 349.203,112.036 349.201 L 105.472 349.200 103.136 346.864 L 100.800 344.528 100.799 337.964 C 100.797 330.820,100.650 330.256,98.059 327.455 C 95.454 324.638,94.645 324.400,87.666 324.400 L 81.316 324.400 80.189 327.300 C 79.138 330.003,79.044 330.729,78.801 338.000 C 78.332 352.076,76.407 354.095,63.238 354.333 C 51.174 354.550,51.564 355.030,51.139 339.400 C 50.972 333.240,50.657 326.760,50.439 325.000 C 50.221 323.240,50.033 317.738,50.022 312.773 C 49.985 297.358,50.469 296.806,64.027 296.802 C 71.950 296.800,74.491 296.388,76.545 294.772 L 77.600 293.942 77.600 249.924 L 77.600 205.906 79.153 204.353 L 80.706 202.800 87.253 202.788 L 93.800 202.775 95.070 201.088 C 98.276 196.827,98.797 194.921,98.817 187.400 C 98.838 179.307,99.308 177.381,101.737 175.433 L 103.273 174.200 123.537 174.092 L 143.800 173.985 145.394 172.877 C 148.573 170.670,148.800 169.969,148.800 162.387 C 148.800 152.896,149.559 150.852,153.600 149.459 C 156.379 148.501,243.425 148.483,246.286 149.440 M330.800 402.800 L 330.600 403.800 318.133 404.000 L 305.666 404.200 304.833 405.161 C 304.065 406.047,304.000 406.613,304.000 412.417 L 304.000 418.712 301.886 420.860 C 300.723 422.041,298.397 424.131,296.717 425.504 L 293.663 428.000 274.731 428.013 C 254.160 428.027,255.096 427.926,253.535 430.294 C 252.904 431.251,252.804 432.292,252.798 438.000 C 252.791 444.239,252.737 444.692,251.824 446.290 L 250.857 447.981 251.794 447.367 C 253.647 446.153,254.000 444.604,254.000 437.693 C 254.000 431.814,254.067 431.223,254.839 430.241 L 255.679 429.174 275.878 429.215 L 296.076 429.256 297.538 428.281 C 299.350 427.073,303.865 423.074,305.178 421.514 L 306.156 420.352 313.378 420.438 C 322.871 420.552,327.160 420.982,328.089 421.911 C 329.017 422.839,329.446 427.116,329.563 436.600 C 329.683 446.370,328.584 445.506,341.146 445.711 C 351.789 445.886,351.991 445.906,353.114 446.922 C 354.164 447.873,354.091 446.307,354.268 471.400 C 354.446 496.731,354.469 496.479,351.827 497.928 C 349.759 499.061,305.943 499.153,304.122 498.028 C 301.303 496.286,301.422 497.226,301.200 475.018 L 301.000 455.000 299.840 452.200 C 297.073 445.517,297.456 445.705,287.200 445.980 C 271.129 446.411,271.136 446.399,270.747 474.800 C 270.598 485.690,270.351 495.554,270.198 496.720 C 269.465 502.315,274.880 504.800,287.807 504.800 C 295.748 504.800,295.200 504.225,295.200 512.567 C 295.200 521.381,297.810 520.399,274.369 520.405 C 245.554 520.412,245.732 520.312,245.234 536.715 C 245.045 542.957,244.885 544.503,244.400 544.809 C 244.036 545.039,231.531 545.190,212.647 545.194 L 181.494 545.200 180.047 546.081 C 175.821 548.652,173.754 551.170,174.200 553.202 L 174.452 554.345 175.926 552.707 C 176.737 551.806,178.271 550.379,179.336 549.535 L 181.272 548.000 212.889 548.000 L 244.505 548.000 246.253 546.253 L 248.000 544.505 248.004 537.953 C 248.008 530.383,248.525 528.616,251.528 525.909 C 254.610 523.131,254.012 523.200,274.902 523.200 C 299.479 523.200,298.000 523.929,298.000 511.807 L 298.000 504.338 296.831 503.169 L 295.662 502.000 288.702 502.000 C 279.248 502.000,275.970 500.710,273.214 495.903 L 272.008 493.800 272.004 475.115 C 271.998 448.376,272.450 447.530,286.851 447.275 L 293.901 447.151 295.166 448.675 C 295.862 449.514,297.055 451.439,297.816 452.954 L 299.200 455.707 299.231 475.954 C 299.253 490.511,299.397 496.650,299.743 497.800 C 300.609 500.675,299.700 500.571,326.400 500.835 C 353.856 501.107,354.418 501.180,355.670 504.643 L 356.164 506.010 366.282 505.986 C 373.876 505.967,376.402 505.842,376.406 505.481 C 376.411 505.115,376.486 505.117,376.724 505.490 C 376.958 505.859,377.409 505.878,378.540 505.566 C 380.205 505.106,381.022 503.799,380.254 502.823 C 379.896 502.369,379.917 502.317,380.350 502.578 C 380.787 502.841,380.865 502.610,380.730 501.455 C 380.637 500.655,380.699 500.000,380.868 500.000 C 381.037 500.000,381.175 488.750,381.175 475.000 C 381.175 461.250,381.037 450.000,380.868 450.000 C 380.699 450.000,380.637 449.345,380.730 448.545 C 380.865 447.390,380.787 447.159,380.350 447.422 C 379.917 447.683,379.896 447.631,380.254 447.177 C 381.022 446.201,380.205 444.894,378.540 444.434 C 377.409 444.122,376.958 444.141,376.724 444.510 C 376.487 444.883,376.411 444.885,376.406 444.519 C 376.402 444.159,373.884 444.033,366.328 444.014 C 360.789 444.001,356.201 443.934,356.133 443.867 C 356.066 443.799,355.999 439.211,355.986 433.672 C 355.967 426.116,355.841 423.598,355.481 423.594 C 355.115 423.589,355.117 423.513,355.490 423.276 C 355.859 423.042,355.878 422.591,355.566 421.460 C 355.106 419.795,353.799 418.978,352.823 419.746 C 352.369 420.104,352.317 420.083,352.578 419.650 C 352.841 419.213,352.610 419.135,351.455 419.270 C 350.655 419.363,350.000 419.288,350.000 419.102 C 350.000 418.917,349.415 418.806,348.700 418.855 C 347.985 418.904,343.759 418.911,339.308 418.872 L 331.216 418.800 331.108 410.300 C 331.049 405.625,330.910 402.250,330.800 402.800 M102.657 446.816 C 100.827 447.989,97.224 451.665,96.390 453.211 C 95.989 453.954,95.882 456.002,95.959 461.442 C 96.059 468.526,96.041 468.707,95.131 469.735 L 94.200 470.785 81.700 470.892 C 73.643 470.962,69.140 470.858,69.032 470.600 C 68.939 470.380,68.870 470.920,68.878 471.800 C 68.886 472.680,68.971 473.105,69.067 472.745 C 69.223 472.159,70.533 472.084,81.682 472.026 C 97.945 471.942,97.196 472.412,97.199 462.291 L 97.200 455.982 98.900 454.104 C 101.029 451.752,101.754 451.027,104.131 448.875 L 106.036 447.150 113.118 447.275 C 125.451 447.493,128.000 450.124,128.000 462.640 C 128.000 474.217,125.220 476.800,112.756 476.800 C 102.494 476.800,102.301 476.986,101.977 487.180 C 101.790 493.056,101.572 494.917,100.638 498.600 C 99.635 502.550,99.489 504.002,99.209 512.800 C 98.841 524.337,98.263 527.031,95.575 529.719 L 94.039 531.255 95.320 530.981 C 99.987 529.984,100.750 527.674,101.192 513.200 C 101.500 503.135,102.253 498.566,104.242 494.720 C 104.651 493.929,104.800 491.940,104.800 487.282 C 104.800 478.871,103.751 479.600,115.847 479.600 L 125.430 479.600 126.739 478.500 C 128.515 477.007,128.752 475.708,129.061 465.774 C 129.532 450.616,127.105 446.443,117.632 446.124 C 104.284 445.675,104.449 445.667,102.657 446.816 M94.032 545.867 C 93.970 548.326,93.329 548.212,106.440 548.070 L 118.471 547.941 120.017 549.011 C 120.866 549.600,122.461 551.033,123.559 552.194 L 125.557 554.307 125.804 553.182 C 126.247 551.166,124.163 548.643,119.924 546.063 C 118.467 545.176,118.285 545.166,106.424 545.282 C 98.674 545.358,94.340 545.258,94.231 545.000 C 94.139 544.780,94.049 545.170,94.032 545.867 " stroke="none" fill="#644a44" fill-rule="evenodd"></path><path id="path4" d="M147.700 119.218 C 147.204 119.414,146.553 119.480,146.251 119.364 C 145.950 119.249,145.591 119.446,145.454 119.802 C 145.312 120.174,145.005 120.326,144.735 120.160 C 144.417 119.963,144.347 120.085,144.519 120.534 C 144.660 120.900,144.628 121.200,144.449 121.200 C 144.270 121.200,144.084 126.195,144.037 132.300 C 143.989 138.405,143.826 143.526,143.675 143.681 C 143.523 143.835,132.824 143.989,119.899 144.023 C 105.314 144.061,96.400 144.229,96.400 144.466 C 96.400 144.676,96.265 144.775,96.100 144.687 C 95.707 144.477,94.396 145.863,94.700 146.167 C 94.828 146.295,94.756 146.400,94.539 146.400 C 94.292 146.400,94.107 150.540,94.043 157.496 C 93.987 163.598,93.910 168.621,93.871 168.656 C 93.832 168.691,89.030 168.817,83.200 168.936 C 72.658 169.151,70.169 169.298,69.733 169.733 C 69.298 170.169,69.151 172.658,68.936 183.200 C 68.817 189.030,68.691 193.832,68.656 193.871 C 68.621 193.910,63.598 193.987,57.496 194.043 C 51.393 194.099,46.400 194.303,46.400 194.496 C 46.400 194.689,46.265 194.775,46.100 194.687 C 45.707 194.477,44.396 195.863,44.700 196.167 C 44.828 196.295,44.734 196.400,44.490 196.400 C 43.905 196.400,43.785 293.859,44.368 294.561 C 46.591 297.240,46.948 345.756,44.802 353.496 C 44.065 356.151,44.180 356.341,45.966 355.418 C 48.741 353.983,49.434 349.019,48.959 334.000 C 48.540 320.763,48.502 298.950,48.895 297.549 C 49.537 295.264,50.562 295.019,60.000 294.897 C 64.966 294.833,69.234 294.593,70.100 294.329 L 71.600 293.872 71.631 249.236 C 71.661 204.925,71.719 201.421,72.426 200.569 C 72.628 200.326,72.697 200.030,72.579 199.912 C 72.260 199.594,74.810 197.159,75.206 197.404 C 75.392 197.519,75.642 197.455,75.761 197.263 C 75.880 197.070,79.888 196.876,84.668 196.831 C 95.974 196.726,95.077 197.607,95.246 186.439 C 95.371 178.158,95.765 173.187,96.387 172.025 C 97.153 170.592,99.569 170.440,121.989 170.410 C 142.101 170.383,143.848 170.327,144.452 169.690 C 145.009 169.105,145.141 167.546,145.327 159.400 C 145.586 148.023,145.828 146.894,148.201 146.001 C 150.617 145.093,249.383 145.093,251.799 146.001 C 254.172 146.894,254.414 148.023,254.673 159.400 C 254.859 167.546,254.991 169.105,255.548 169.690 C 256.152 170.327,257.899 170.383,278.011 170.410 C 300.431 170.440,302.847 170.592,303.613 172.025 C 304.235 173.187,304.629 178.158,304.754 186.439 C 304.923 197.607,304.026 196.726,315.332 196.831 C 320.112 196.876,324.120 197.070,324.239 197.263 C 324.358 197.455,324.608 197.519,324.794 197.404 C 325.190 197.159,327.740 199.594,327.421 199.912 C 327.303 200.030,327.372 200.326,327.574 200.569 C 328.281 201.421,328.339 204.925,328.369 249.236 L 328.400 293.872 329.900 294.329 C 330.766 294.593,335.034 294.833,340.000 294.897 C 349.438 295.019,350.463 295.264,351.105 297.549 C 351.498 298.950,351.460 320.763,351.041 334.000 C 350.566 349.019,351.259 353.983,354.034 355.418 C 355.820 356.341,355.935 356.151,355.198 353.496 C 353.052 345.756,353.409 297.240,355.632 294.561 C 356.176 293.906,356.098 196.400,355.553 196.400 C 355.333 196.400,355.225 196.265,355.313 196.100 C 355.523 195.707,354.137 194.396,353.833 194.700 C 353.705 194.828,353.600 194.756,353.600 194.539 C 353.600 194.292,349.460 194.107,342.504 194.043 C 336.402 193.987,331.379 193.910,331.344 193.871 C 331.309 193.832,331.183 189.030,331.064 183.200 C 330.849 172.658,330.702 170.169,330.267 169.733 C 329.831 169.298,327.342 169.151,316.800 168.936 C 310.970 168.817,306.168 168.691,306.129 168.656 C 306.090 168.621,306.013 163.598,305.957 157.496 C 305.901 151.393,305.697 146.400,305.504 146.400 C 305.311 146.400,305.225 146.265,305.313 146.100 C 305.523 145.707,304.137 144.396,303.833 144.700 C 303.705 144.828,303.600 144.742,303.600 144.509 C 303.600 144.215,296.359 144.066,280.101 144.023 C 267.176 143.989,256.477 143.835,256.325 143.681 C 256.174 143.526,256.011 138.405,255.963 132.300 C 255.916 126.195,255.730 121.200,255.551 121.200 C 255.372 121.200,255.340 120.900,255.481 120.534 C 255.653 120.085,255.583 119.963,255.265 120.160 C 255.002 120.322,254.696 120.194,254.571 119.869 C 254.449 119.549,253.955 119.250,253.474 119.204 C 250.449 118.912,148.438 118.925,147.700 119.218 M79.478 370.745 C 76.618 372.630,76.000 375.348,76.000 386.028 L 76.000 394.287 77.646 396.157 C 80.210 399.070,80.645 399.198,88.080 399.218 C 99.770 399.249,100.469 399.952,100.791 412.000 C 101.023 420.658,101.229 421.407,104.656 426.076 L 106.068 428.000 125.134 428.013 C 145.853 428.027,144.903 427.925,146.465 430.294 C 147.096 431.250,147.195 432.284,147.197 437.916 C 147.201 446.693,147.889 448.137,152.658 449.366 C 154.829 449.926,160.340 450.000,200.000 450.000 C 239.660 450.000,245.171 449.926,247.342 449.366 C 252.111 448.137,252.799 446.693,252.803 437.916 C 252.805 432.284,252.904 431.250,253.535 430.294 C 255.096 427.926,254.160 428.027,274.731 428.013 L 293.663 428.000 296.717 425.504 C 298.397 424.131,300.723 422.041,301.886 420.860 L 304.000 418.712 304.000 412.374 C 304.000 406.117,304.013 406.023,305.018 405.018 L 306.036 404.000 318.195 404.000 C 325.671 404.000,330.446 403.850,330.594 403.610 C 331.193 402.640,331.314 399.118,330.760 398.767 C 330.452 398.572,324.659 398.409,317.887 398.406 C 300.657 398.398,301.204 398.746,301.201 387.764 C 301.200 380.125,301.326 379.743,304.744 377.079 C 308.168 374.411,320.400 375.775,328.500 379.730 C 331.546 381.217,331.507 381.251,330.346 378.147 C 328.058 372.032,324.400 370.266,313.600 370.063 C 296.636 369.743,294.800 371.454,294.800 387.586 C 294.800 392.231,294.665 394.014,294.288 394.327 C 293.946 394.611,287.051 394.799,273.588 394.894 C 244.764 395.096,245.313 394.784,244.906 411.200 C 244.798 415.560,244.534 419.221,244.307 419.500 C 243.988 419.895,234.639 420.000,200.000 420.000 C 165.361 420.000,156.012 419.895,155.693 419.500 C 155.466 419.221,155.202 415.560,155.094 411.200 C 154.687 394.775,155.318 395.131,126.000 394.819 L 105.400 394.600 105.153 386.600 C 104.676 371.174,103.451 369.997,87.880 370.003 C 81.471 370.005,80.466 370.094,79.478 370.745 M95.256 377.079 C 98.644 379.720,98.800 380.175,98.800 387.402 C 98.800 396.069,98.385 396.400,87.505 396.400 L 81.438 396.400 80.119 395.122 L 78.800 393.843 78.800 387.370 C 78.800 380.756,79.036 379.443,80.677 376.939 C 81.697 375.382,93.222 375.494,95.256 377.079 M146.626 403.374 L 148.800 405.548 148.800 412.541 C 148.800 424.131,150.388 423.400,125.214 423.400 L 106.200 423.400 104.911 421.000 C 102.709 416.899,103.090 404.624,105.504 401.900 C 106.078 401.252,107.540 401.200,125.288 401.200 L 144.452 401.200 146.626 403.374 M295.924 402.010 C 298.064 403.315,298.400 404.700,298.400 412.223 L 298.400 418.872 295.900 421.233 L 293.400 423.594 274.400 423.497 C 249.570 423.370,251.200 424.140,251.200 412.541 L 251.200 405.548 253.374 403.374 L 255.548 401.200 275.074 401.201 C 293.953 401.203,294.644 401.230,295.924 402.010 M49.005 426.470 C 46.629 426.923,44.769 428.240,44.149 429.909 L 43.699 431.123 45.809 430.397 C 48.952 429.315,54.166 428.802,62.025 428.801 L 69.050 428.800 70.177 429.976 L 71.303 431.151 71.096 440.276 C 70.925 447.841,70.745 449.941,70.045 452.564 C 69.580 454.304,69.200 455.799,69.200 455.887 C 69.200 455.974,69.716 455.741,70.346 455.368 C 73.214 453.674,74.000 450.163,74.000 439.051 L 74.000 430.417 71.791 428.209 L 69.583 426.000 60.291 426.045 C 55.181 426.069,50.102 426.261,49.005 426.470 M245.871 427.036 C 247.940 428.568,248.191 429.597,248.302 437.000 C 248.415 444.534,248.555 444.054,245.482 446.700 L 243.972 448.000 200.000 448.000 L 156.028 448.000 154.518 446.700 C 151.530 444.127,151.628 444.436,151.613 437.560 C 151.596 429.624,152.151 427.822,155.000 426.558 C 157.350 425.516,244.436 425.973,245.871 427.036 M104.131 448.875 C 101.754 451.027,101.029 451.752,98.900 454.104 L 97.200 455.982 97.199 462.291 C 97.196 472.412,97.945 471.942,81.683 472.026 L 69.244 472.091 68.990 473.245 C 68.851 473.880,68.852 474.924,68.992 475.564 L 69.248 476.729 81.324 476.531 L 93.400 476.334 94.800 477.282 C 97.445 479.073,98.448 486.637,97.197 495.364 C 96.942 497.144,96.586 503.730,96.405 510.000 C 96.092 520.863,95.510 526.479,94.393 529.417 C 93.753 531.101,94.326 531.148,95.805 529.534 C 98.271 526.843,98.853 523.986,99.209 512.800 C 99.489 504.002,99.635 502.550,100.638 498.600 C 101.572 494.917,101.790 493.056,101.977 487.180 C 102.301 476.986,102.494 476.800,112.756 476.800 C 125.220 476.800,128.000 474.217,128.000 462.640 C 128.000 450.124,125.451 447.493,113.118 447.275 L 106.036 447.150 104.131 448.875 M279.400 447.694 C 277.289 448.453,275.236 449.962,274.220 451.502 C 272.012 454.847,272.000 454.980,272.004 475.150 L 272.008 493.800 273.214 495.903 C 275.970 500.710,279.248 502.000,288.702 502.000 L 295.662 502.000 296.831 503.169 L 298.000 504.338 298.000 511.807 C 298.000 523.929,299.479 523.200,274.902 523.200 C 254.012 523.200,254.610 523.131,251.528 525.909 C 248.525 528.616,248.008 530.383,248.004 537.953 L 248.000 544.505 246.253 546.253 L 244.505 548.000 212.907 548.000 L 181.308 548.000 180.154 548.865 C 179.519 549.340,178.055 550.639,176.900 551.751 L 174.800 553.773 174.793 561.786 C 174.786 570.963,174.451 572.152,171.392 573.885 L 169.800 574.787 150.000 574.787 L 130.200 574.787 128.608 573.885 C 125.545 572.150,125.214 570.969,125.207 561.737 L 125.200 553.675 122.344 551.031 C 118.769 547.721,119.838 547.915,106.051 548.070 C 98.537 548.154,94.340 548.058,94.231 547.800 C 93.988 547.221,93.961 551.433,94.204 552.067 C 94.369 552.498,96.725 552.578,106.543 552.484 L 118.678 552.368 120.695 554.182 L 122.712 555.995 122.907 563.298 C 123.289 577.629,122.045 577.000,150.000 577.000 C 177.955 577.000,176.711 577.629,177.093 563.298 L 177.288 555.995 179.280 554.204 L 181.272 552.414 214.336 552.307 C 256.082 552.172,252.107 553.535,252.323 539.283 L 252.446 531.166 254.154 529.383 L 255.863 527.600 275.112 527.600 C 303.389 527.600,302.121 528.188,302.308 515.000 C 302.440 505.699,302.404 505.866,304.539 504.615 L 306.270 503.600 324.635 503.612 C 343.419 503.625,349.767 503.996,354.100 505.335 C 355.158 505.662,356.000 505.753,356.000 505.541 C 356.000 504.701,354.814 502.943,353.934 502.480 C 351.398 501.145,350.047 501.064,326.400 500.833 C 299.699 500.572,300.609 500.675,299.743 497.800 C 299.397 496.650,299.253 490.511,299.231 475.954 L 299.200 455.707 297.816 452.954 C 297.055 451.439,295.872 449.525,295.187 448.700 L 293.942 447.200 287.271 447.232 C 283.598 447.249,280.061 447.457,279.400 447.694 M120.181 452.613 C 123.261 454.961,123.600 455.957,123.600 462.643 L 123.600 468.643 122.300 469.861 C 119.594 472.397,119.581 472.400,112.498 472.400 C 102.022 472.400,101.600 472.019,101.600 462.550 L 101.600 456.223 103.887 453.912 L 106.175 451.600 112.514 451.600 C 118.681 451.600,118.890 451.628,120.181 452.613 M295.100 453.976 L 296.400 456.343 296.399 475.072 C 296.397 499.142,297.011 497.600,287.413 497.600 C 280.797 497.600,280.790 497.598,277.900 494.859 L 276.400 493.438 276.400 474.997 L 276.400 456.555 277.405 455.178 C 279.910 451.745,280.255 451.622,287.400 451.616 L 293.800 451.609 295.100 453.976 " stroke="none" fill="#4c3c2c" fill-rule="evenodd"></path><path id="path5" d="M144.480 119.280 C 144.216 119.544,144.011 120.129,144.025 120.580 C 144.050 121.361,144.068 121.358,144.408 120.512 C 144.747 119.670,145.270 119.433,147.600 119.066 C 148.150 118.980,147.781 118.884,146.780 118.854 C 145.779 118.825,144.744 119.016,144.480 119.280 M252.400 119.066 C 254.730 119.433,255.253 119.670,255.592 120.512 C 255.932 121.358,255.950 121.361,255.975 120.580 C 256.014 119.305,255.200 118.795,253.220 118.854 C 252.219 118.884,251.850 118.980,252.400 119.066 M143.692 134.297 L 143.600 143.593 121.700 143.700 L 99.800 143.807 121.713 143.903 C 139.152 143.980,143.665 143.896,143.820 143.491 C 143.928 143.211,143.964 138.936,143.900 133.991 L 143.784 125.000 143.692 134.297 M256.189 134.600 L 256.200 143.800 278.000 143.805 L 299.800 143.810 278.107 143.702 L 256.415 143.593 256.296 134.497 L 256.178 125.400 256.189 134.600 M94.267 144.267 C 94.120 144.413,94.011 144.998,94.025 145.567 C 94.050 146.590,94.054 146.592,94.416 145.691 C 94.617 145.190,95.190 144.617,95.691 144.416 C 96.592 144.054,96.590 144.050,95.567 144.025 C 94.998 144.011,94.413 144.120,94.267 144.267 M304.309 144.397 C 304.810 144.608,305.392 145.190,305.603 145.691 C 305.957 146.528,305.980 146.505,305.894 145.400 C 305.814 144.379,305.621 144.186,304.600 144.106 C 303.495 144.020,303.472 144.043,304.309 144.397 M93.773 159.400 C 93.773 164.680,93.830 166.785,93.899 164.077 C 93.968 161.369,93.968 157.049,93.899 154.477 C 93.829 151.905,93.772 154.120,93.773 159.400 M306.173 159.400 C 306.173 164.680,306.230 166.785,306.299 164.077 C 306.368 161.369,306.368 157.049,306.299 154.477 C 306.229 151.905,306.172 154.120,306.173 159.400 M69.429 169.429 C 69.036 169.821,68.819 170.686,68.850 171.729 L 68.900 173.400 69.176 171.707 C 69.517 169.616,69.616 169.517,71.707 169.176 L 73.400 168.900 71.729 168.850 C 70.686 168.819,69.821 169.036,69.429 169.429 M328.293 169.176 C 330.384 169.517,330.483 169.616,330.824 171.707 L 331.100 173.400 331.150 171.729 C 331.215 169.552,330.448 168.785,328.271 168.850 L 326.600 168.900 328.293 169.176 M54.723 193.899 C 57.431 193.968,61.751 193.968,64.323 193.899 C 66.895 193.829,64.680 193.772,59.400 193.773 C 54.120 193.773,52.015 193.830,54.723 193.899 M335.923 193.899 C 338.631 193.968,342.951 193.968,345.523 193.899 C 348.095 193.829,345.880 193.772,340.600 193.773 C 335.320 193.773,333.215 193.830,335.923 193.899 M44.267 194.267 C 44.120 194.413,44.011 194.998,44.025 195.567 C 44.050 196.590,44.054 196.592,44.416 195.691 C 44.617 195.190,45.190 194.617,45.691 194.416 C 46.592 194.054,46.590 194.050,45.567 194.025 C 44.998 194.011,44.413 194.120,44.267 194.267 M354.309 194.397 C 354.810 194.608,355.392 195.190,355.603 195.691 C 355.957 196.528,355.980 196.505,355.894 195.400 C 355.814 194.379,355.621 194.186,354.600 194.106 C 353.495 194.020,353.472 194.043,354.309 194.397 M43.698 246.642 L 43.600 293.484 31.804 293.690 C 23.198 293.840,19.845 294.031,19.404 294.397 C 18.489 295.156,18.489 354.844,19.404 355.603 C 19.845 355.969,23.198 356.160,31.804 356.310 L 43.600 356.516 43.678 362.758 L 43.756 369.000 44.013 362.000 C 44.177 357.507,44.497 354.212,44.906 352.800 C 46.950 345.736,46.512 297.145,44.381 294.577 C 44.150 294.299,43.963 275.768,43.900 246.961 L 43.797 199.800 43.698 246.642 M356.098 247.076 C 356.040 275.271,355.852 294.444,355.632 294.580 C 353.485 295.907,353.031 345.733,355.102 352.800 C 355.581 354.435,355.809 357.569,355.990 365.000 L 356.233 375.000 356.316 365.758 L 356.400 356.516 368.196 356.310 C 376.802 356.160,380.155 355.969,380.596 355.603 C 381.511 354.844,381.511 295.156,380.596 294.397 C 380.155 294.031,376.802 293.840,368.198 293.690 L 356.403 293.484 356.300 246.642 L 356.197 199.800 356.098 247.076 M80.677 376.939 C 79.036 379.443,78.800 380.756,78.800 387.370 L 78.800 393.843 80.119 395.122 L 81.438 396.400 87.505 396.400 C 98.385 396.400,98.800 396.069,98.800 387.402 C 98.800 380.175,98.644 379.720,95.256 377.079 C 93.222 375.494,81.697 375.382,80.677 376.939 M304.744 377.079 C 301.326 379.743,301.200 380.125,301.201 387.764 C 301.204 398.739,300.537 398.323,318.356 398.484 L 331.215 398.600 331.108 389.800 L 331.000 381.000 328.400 379.710 C 320.496 375.788,308.161 374.416,304.744 377.079 M355.474 380.152 C 355.350 380.474,354.833 380.817,354.324 380.915 C 353.466 381.078,353.461 381.095,354.251 381.146 C 355.086 381.199,356.314 380.181,355.906 379.773 C 355.792 379.659,355.598 379.829,355.474 380.152 M105.504 401.900 C 103.090 404.624,102.709 416.899,104.911 421.000 L 106.200 423.400 125.214 423.400 C 150.388 423.400,148.800 424.131,148.800 412.541 L 148.800 405.548 146.626 403.374 L 144.452 401.200 125.288 401.200 C 107.540 401.200,106.078 401.252,105.504 401.900 M253.374 403.374 L 251.200 405.548 251.200 412.541 C 251.200 424.140,249.570 423.370,274.400 423.497 L 293.400 423.594 295.900 421.233 L 298.400 418.872 298.400 412.223 C 298.400 400.389,300.125 401.203,275.074 401.201 L 255.548 401.200 253.374 403.374 M354.200 419.080 C 354.640 419.183,355.225 419.557,355.500 419.910 C 355.775 420.264,356.000 420.375,356.000 420.156 C 356.000 419.477,355.077 418.798,354.220 418.846 C 353.418 418.892,353.417 418.897,354.200 419.080 M356.189 434.600 L 356.200 443.800 365.500 443.811 L 374.800 443.823 365.608 443.704 L 356.415 443.585 356.296 434.493 L 356.178 425.400 356.189 434.600 M155.000 426.558 C 152.151 427.822,151.596 429.624,151.613 437.560 C 151.628 444.436,151.530 444.127,154.518 446.700 L 156.028 448.000 200.000 448.000 L 243.972 448.000 245.482 446.700 C 248.555 444.054,248.415 444.534,248.302 437.000 C 248.191 429.597,247.940 428.568,245.871 427.036 C 244.436 425.973,157.350 425.516,155.000 426.558 M50.937 429.263 C 49.363 429.461,47.113 429.951,45.937 430.352 L 43.800 431.081 43.839 443.159 C 43.865 451.275,44.020 455.380,44.312 455.672 C 44.597 455.957,48.906 456.178,56.762 456.311 L 68.776 456.514 69.216 455.358 C 70.523 451.921,70.876 449.068,71.086 440.276 L 71.303 431.151 70.177 429.976 L 69.050 428.800 61.425 428.852 C 57.231 428.880,52.512 429.065,50.937 429.263 M380.100 444.432 C 380.485 444.656,380.821 445.236,380.846 445.720 C 380.884 446.426,380.930 446.457,381.079 445.881 C 381.284 445.091,380.563 443.993,379.851 444.012 C 379.603 444.019,379.715 444.208,380.100 444.432 M103.887 453.912 L 101.600 456.223 101.600 462.550 C 101.600 472.019,102.022 472.400,112.498 472.400 C 119.581 472.400,119.594 472.397,122.300 469.861 L 123.600 468.643 123.600 462.643 C 123.600 452.988,122.206 451.600,112.514 451.600 L 106.175 451.600 103.887 453.912 M279.705 452.711 C 278.993 453.310,277.958 454.420,277.405 455.178 L 276.400 456.555 276.400 474.997 L 276.400 493.438 277.900 494.859 C 280.790 497.598,280.797 497.600,287.413 497.600 C 297.011 497.600,296.397 499.142,296.399 475.072 L 296.400 456.343 295.100 453.976 L 293.800 451.609 287.400 451.616 C 281.021 451.622,280.996 451.625,279.705 452.711 M68.846 502.671 C 68.805 526.971,68.869 530.011,69.429 530.571 C 69.972 531.115,71.674 531.200,81.976 531.200 L 93.895 531.200 94.531 528.900 C 95.752 524.486,96.065 521.322,96.398 510.000 C 96.583 503.730,96.942 497.144,97.197 495.364 C 98.448 486.637,97.445 479.073,94.800 477.282 L 93.400 476.334 81.322 476.531 C 70.303 476.711,69.230 476.670,69.069 476.064 C 68.972 475.699,68.872 487.672,68.846 502.671 M304.502 504.625 C 302.408 505.880,302.439 505.730,302.308 515.000 C 302.121 528.188,303.389 527.600,275.112 527.600 L 255.863 527.600 254.154 529.383 L 252.446 531.166 252.323 539.283 C 252.107 553.535,256.082 552.172,214.336 552.307 L 181.272 552.414 179.280 554.204 L 177.288 555.995 177.093 563.298 C 176.711 577.629,177.955 577.000,150.000 577.000 C 122.045 577.000,123.289 577.629,122.907 563.298 L 122.712 555.995 120.695 554.182 L 118.678 552.368 106.521 552.484 C 92.470 552.618,94.089 553.268,93.859 547.400 C 93.782 545.420,93.739 551.920,93.764 561.844 C 93.801 576.423,93.914 580.014,94.354 580.544 C 94.836 581.125,96.262 581.200,106.849 581.200 L 118.800 581.200 118.800 590.600 L 118.800 600.000 150.000 600.000 L 181.200 600.000 181.200 590.600 L 181.200 581.200 218.151 581.200 C 250.617 581.200,255.163 581.127,255.603 580.596 C 255.969 580.155,256.160 576.810,256.310 568.232 L 256.514 556.473 280.837 556.336 C 298.884 556.235,305.283 556.078,305.634 555.726 C 305.968 555.392,306.167 551.712,306.311 543.226 L 306.515 531.200 330.808 531.200 C 351.986 531.200,355.166 531.123,355.603 530.596 C 355.969 530.155,356.160 526.802,356.310 518.196 L 356.516 506.400 365.758 506.316 L 375.000 506.233 365.000 505.997 C 358.582 505.845,354.499 505.581,353.600 505.259 C 350.142 504.021,343.150 503.625,324.600 503.616 L 306.200 503.608 304.502 504.625 M380.846 504.280 C 380.821 504.764,380.485 505.344,380.100 505.568 C 379.715 505.792,379.603 505.981,379.851 505.988 C 380.563 506.007,381.284 504.909,381.079 504.119 C 380.930 503.543,380.884 503.574,380.846 504.280 " stroke="none" fill="#040404" fill-rule="evenodd"></path><path id="path6" d="M55.959 303.278 C 54.132 304.765,54.000 305.436,54.008 313.189 C 54.013 317.265,54.278 323.120,54.596 326.200 C 54.915 329.280,55.182 334.627,55.188 338.081 C 55.195 341.971,55.377 344.750,55.664 345.381 L 56.128 346.400 62.444 346.400 L 68.759 346.400 69.780 345.062 C 70.773 343.761,70.800 343.557,70.800 337.494 C 70.800 331.124,71.038 329.513,73.211 321.173 C 73.829 318.803,74.000 316.827,74.000 312.077 L 74.000 306.008 71.736 304.504 L 69.473 303.000 63.036 302.878 C 58.185 302.786,56.442 302.884,55.959 303.278 M330.480 303.220 C 329.974 303.423,328.759 304.140,327.780 304.814 L 326.000 306.038 326.000 312.092 C 326.000 316.827,326.172 318.805,326.789 321.173 C 328.962 329.513,329.200 331.124,329.200 337.494 C 329.200 343.557,329.227 343.761,330.220 345.062 L 331.241 346.400 337.556 346.400 L 343.872 346.400 344.336 345.381 C 344.623 344.750,344.805 341.971,344.812 338.081 C 344.818 334.627,345.085 329.280,345.404 326.200 C 345.722 323.120,345.987 317.265,345.992 313.189 C 346.000 305.455,345.864 304.756,344.065 303.300 C 343.326 302.702,331.937 302.635,330.480 303.220 M54.769 379.969 L 53.600 381.138 53.600 399.990 L 53.600 418.841 54.987 419.420 C 56.019 419.852,58.166 420.000,63.367 420.000 C 78.486 420.000,80.000 421.528,80.000 436.791 C 80.000 442.759,80.104 444.047,80.629 444.571 C 81.690 445.633,93.615 445.488,94.599 444.401 C 95.409 443.506,95.182 406.742,94.360 405.751 C 94.108 405.448,91.308 405.227,86.090 405.098 C 71.363 404.734,70.427 403.815,70.105 389.400 C 69.966 383.229,69.766 380.708,69.348 379.900 L 68.779 378.800 62.359 378.800 L 55.938 378.800 54.769 379.969 M305.482 429.969 C 304.682 431.323,304.895 493.276,305.703 494.300 C 306.251 494.993,343.863 495.027,345.381 494.336 L 346.400 493.872 346.400 475.014 L 346.400 456.157 345.100 454.907 L 343.800 453.656 336.400 453.528 C 323.582 453.306,321.200 450.765,321.200 437.313 L 321.200 430.950 320.078 429.875 C 318.956 428.800,318.956 428.800,312.564 428.800 L 306.172 428.800 305.482 429.969 M105.680 504.528 C 105.039 506.303,105.026 519.180,105.664 520.581 L 106.128 521.600 112.789 521.600 L 119.450 521.600 120.525 520.478 L 121.600 519.356 121.600 512.759 L 121.600 506.162 120.083 504.681 L 118.566 503.200 112.363 503.200 L 106.161 503.200 105.680 504.528 M129.475 529.522 L 128.400 530.644 128.400 537.283 L 128.400 543.922 129.660 544.361 C 131.408 544.970,168.592 544.970,170.340 544.361 L 171.600 543.922 171.600 537.439 L 171.600 530.957 170.281 529.678 L 168.962 528.400 149.756 528.400 L 130.550 528.400 129.475 529.522 " stroke="none" fill="#dc9c74" fill-rule="evenodd"></path><path id="path7" d="M99.169 428.700 C 99.152 428.865,99.165 432.392,99.198 436.538 L 99.258 444.076 96.695 446.638 L 94.133 449.200 87.547 449.200 C 82.925 449.200,80.816 449.056,80.476 448.716 C 79.978 448.218,77.682 450.427,75.513 453.490 C 75.011 454.199,74.330 454.838,74.000 454.909 C 73.670 454.980,78.374 455.030,84.452 455.019 L 95.505 455.000 96.353 453.400 C 96.820 452.520,97.202 451.377,97.201 450.860 C 97.200 450.323,97.783 449.337,98.560 448.560 C 99.337 447.783,100.323 447.200,100.860 447.201 C 101.377 447.202,102.520 446.821,103.400 446.355 L 105.000 445.508 104.929 437.519 C 104.865 430.308,104.787 429.477,104.129 428.978 C 103.372 428.405,99.224 428.172,99.169 428.700 M295.800 429.244 C 295.040 429.614,295.000 430.030,295.000 437.567 L 295.000 445.500 296.000 446.062 C 296.614 446.407,297.772 446.569,299.000 446.481 L 301.000 446.337 300.869 438.800 C 300.789 434.151,300.896 430.968,301.149 430.495 C 301.766 429.342,297.599 428.368,295.800 429.244 M127.142 477.947 C 126.560 478.526,125.508 479.490,124.803 480.090 L 123.522 481.179 123.690 488.290 C 123.967 500.010,125.165 501.200,136.677 501.200 C 142.460 501.200,143.132 501.278,145.496 502.224 C 150.860 504.370,151.270 504.386,200.000 504.386 C 248.730 504.386,249.140 504.370,254.504 502.224 C 256.846 501.287,257.564 501.200,262.987 501.200 C 269.817 501.200,269.966 501.128,269.988 497.800 L 270.001 495.800 262.966 495.934 C 256.569 496.055,255.763 496.151,254.066 496.993 C 253.040 497.503,251.300 498.225,250.200 498.599 C 244.705 500.464,246.488 500.400,200.000 500.400 C 153.512 500.400,155.295 500.464,149.800 498.599 C 148.700 498.225,146.930 497.488,145.867 496.960 C 144.076 496.070,143.477 496.000,137.689 496.000 C 131.456 496.000,131.441 495.998,130.322 494.925 L 129.200 493.850 129.197 487.425 C 129.193 480.949,128.895 476.760,128.444 476.847 C 128.310 476.874,127.724 477.369,127.142 477.947 M126.069 547.100 C 125.337 548.528,125.183 550.097,125.648 551.383 L 126.127 552.707 128.762 551.954 C 131.173 551.264,132.979 551.200,150.000 551.200 C 167.021 551.200,168.827 551.264,171.238 551.954 L 173.873 552.707 174.356 551.370 C 174.852 549.999,174.408 547.099,173.628 546.617 C 173.435 546.498,172.315 546.849,171.139 547.396 L 169.000 548.392 150.000 548.392 L 131.000 548.392 128.860 547.396 C 126.313 546.210,126.514 546.232,126.069 547.100 " stroke="none" fill="#78906c" fill-rule="evenodd"></path><path id="path8" d="M93.763 537.600 C 93.763 541.230,93.823 542.715,93.898 540.900 C 93.972 539.085,93.972 536.115,93.898 534.300 C 93.823 532.485,93.763 533.970,93.763 537.600 " stroke="none" fill="#9c9030" fill-rule="evenodd"></path></g></svg>