<svg id="svg" version="1.1" xmlns="http://www.w3.org/2000/svg" xmlns:xlink="http://www.w3.org/1999/xlink" width="400" height="600" viewBox="0, 0, 400,600"><g id="svgg"><path id="path0" d="M154.353 154.353 L 152.800 155.906 152.800 162.312 L 152.800 168.717 151.407 169.940 C 150.641 170.613,148.687 171.801,147.065 172.582 L 144.116 174.000 137.358 174.003 C 130.027 174.006,126.478 174.587,121.548 176.590 C 119.241 177.527,118.592 177.600,112.531 177.600 L 106.000 177.600 104.400 179.200 L 102.800 180.800 102.800 187.536 C 102.800 199.937,99.953 202.775,87.500 202.791 L 80.800 202.800 79.200 204.400 L 77.600 206.000 77.600 237.825 L 77.600 269.650 76.543 271.809 C 74.189 276.616,71.861 277.600,62.842 277.600 L 56.000 277.600 54.400 279.200 L 52.800 280.800 52.800 299.981 L 52.800 319.161 54.261 320.581 L 55.723 322.000 62.888 322.000 C 72.733 322.000,72.398 322.351,72.404 312.040 C 72.411 299.790,74.757 297.542,87.887 297.200 C 97.799 296.942,96.942 297.799,97.200 287.887 C 97.546 274.580,99.358 272.745,112.489 272.405 C 122.946 272.133,122.133 272.946,122.405 262.489 C 122.739 249.579,124.727 247.503,136.971 247.273 C 149.736 247.033,152.800 249.929,152.800 262.233 C 152.800 272.236,152.202 272.607,135.590 272.902 C 122.146 273.140,123.161 272.169,122.886 285.053 L 122.688 294.343 120.928 296.072 L 119.168 297.800 109.595 298.000 C 97.043 298.262,98.262 297.043,98.000 309.595 L 97.800 319.168 96.017 320.984 L 94.233 322.800 87.417 322.813 C 72.715 322.841,73.469 322.200,73.177 334.911 L 72.954 344.600 71.377 349.600 L 69.800 354.600 69.689 366.860 C 69.591 377.659,69.654 379.197,70.218 379.760 C 70.773 380.316,72.338 380.401,82.129 380.406 C 88.328 380.409,93.616 380.549,93.879 380.717 C 94.232 380.941,94.376 384.119,94.424 392.689 C 94.481 402.945,94.568 404.426,95.144 404.938 C 95.682 405.415,97.881 405.531,107.400 405.581 C 113.780 405.615,119.124 405.768,119.275 405.921 C 119.426 406.075,119.606 409.170,119.675 412.800 L 119.800 419.400 121.756 422.338 C 123.782 425.381,126.727 428.022,129.810 429.562 L 131.562 430.437 177.881 430.287 C 228.050 430.123,227.377 430.153,230.435 427.975 C 231.399 427.288,232.231 427.200,237.735 427.200 C 243.303 427.200,243.968 427.128,244.158 426.500 C 244.837 424.255,245.194 419.737,245.197 413.354 L 245.200 406.109 247.195 404.082 C 248.333 402.926,250.347 401.485,251.884 400.727 L 254.578 399.400 262.189 399.177 C 267.928 399.008,270.226 398.788,271.532 398.283 C 273.742 397.428,277.539 395.383,278.686 394.430 L 279.572 393.695 279.686 373.347 C 279.782 356.143,279.893 352.815,280.405 351.800 L 281.010 350.600 287.432 350.490 L 293.854 350.381 295.486 351.563 C 299.105 354.185,299.375 354.891,299.600 362.350 L 299.800 368.967 301.600 369.538 C 304.548 370.473,317.973 370.672,320.221 369.813 L 321.986 369.139 322.093 337.270 L 322.200 305.400 323.116 303.559 C 325.677 298.414,328.375 297.209,337.347 297.204 L 344.094 297.200 345.647 295.647 L 347.200 294.094 347.200 268.895 L 347.200 243.697 348.200 241.512 C 353.112 230.784,351.626 209.979,345.531 204.132 L 344.351 203.000 337.275 202.800 C 324.794 202.447,322.411 200.051,322.404 187.847 L 322.400 181.095 320.653 179.347 L 318.905 177.600 299.627 177.600 L 280.350 177.600 278.191 176.543 C 273.384 174.189,272.400 171.861,272.400 162.842 L 272.400 156.000 270.800 154.400 L 269.200 152.800 212.553 152.800 L 155.906 152.800 154.353 154.353 M158.781 175.900 C 160.350 177.012,161.432 178.277,162.960 180.788 C 164.215 182.852,165.693 184.688,166.741 185.488 L 168.462 186.800 174.931 186.801 C 183.153 186.803,184.417 187.401,187.615 192.800 C 191.201 198.854,191.857 199.200,199.754 199.201 C 207.969 199.203,209.481 199.947,212.809 205.625 C 214.496 208.502,217.560 211.600,218.719 211.600 C 219.955 211.600,222.714 208.887,224.381 206.033 C 226.010 203.243,228.256 200.908,230.356 199.823 C 232.475 198.727,255.718 198.914,257.600 200.042 C 259.811 201.368,261.153 202.802,262.803 205.600 C 264.619 208.681,266.596 210.634,269.600 212.315 C 274.772 215.208,275.597 216.959,275.599 225.044 L 275.600 231.487 276.900 233.128 C 279.682 236.640,280.136 236.800,287.304 236.800 C 295.302 236.800,296.383 236.270,299.613 230.765 C 301.317 227.861,303.511 225.670,305.971 224.415 C 308.463 223.143,310.287 221.332,311.980 218.447 C 313.490 215.873,315.167 214.011,317.189 212.660 C 318.057 212.081,319.750 212.000,331.042 212.000 L 343.905 212.000 345.353 215.369 L 346.800 218.739 346.800 225.000 L 346.800 231.261 345.366 234.600 C 344.220 237.267,343.612 238.160,342.345 239.038 C 340.509 240.310,338.868 242.286,337.651 244.689 C 335.153 249.618,332.605 250.800,324.472 250.800 L 318.113 250.800 316.276 252.416 C 315.266 253.305,313.865 255.060,313.162 256.316 C 309.234 263.333,309.734 263.200,287.316 263.199 C 265.068 263.197,266.053 263.435,262.376 257.154 C 260.652 254.208,258.510 251.881,256.638 250.922 C 253.941 249.540,251.927 247.861,250.596 245.883 L 249.200 243.811 249.200 237.398 C 249.200 230.117,248.892 229.231,245.515 226.784 L 243.880 225.600 237.383 225.600 L 230.887 225.600 228.835 227.445 C 227.706 228.459,226.083 230.484,225.227 231.945 C 222.011 237.430,220.837 238.000,212.752 238.000 C 205.182 238.000,203.320 238.850,200.920 243.400 C 198.470 248.047,194.709 251.187,192.786 250.193 C 187.927 247.680,186.800 245.270,186.800 237.393 C 186.800 229.437,186.165 228.265,180.072 224.988 C 177.621 223.668,176.002 221.966,174.636 219.272 C 173.367 216.767,170.890 214.262,168.471 213.036 C 165.580 211.571,164.168 210.224,162.416 207.259 C 158.801 201.142,158.158 200.800,150.246 200.799 C 142.042 200.797,140.531 200.056,137.197 194.400 C 135.370 191.300,133.404 189.366,130.331 187.647 C 127.967 186.324,126.054 184.438,124.992 182.385 L 124.369 181.180 127.085 179.916 C 129.762 178.670,129.914 178.648,138.000 178.362 C 146.953 178.045,150.742 177.375,154.256 175.486 C 156.693 174.177,156.297 174.140,158.781 175.900 M221.809 273.457 C 226.663 275.834,227.601 278.104,227.596 287.458 C 227.589 300.146,225.287 302.503,212.688 302.725 L 205.576 302.851 204.188 304.239 L 202.800 305.627 202.800 312.450 C 202.800 319.690,202.045 324.967,200.386 329.334 C 199.729 331.061,199.600 332.407,199.600 337.529 C 199.600 345.680,199.724 345.595,187.723 345.607 C 183.230 345.611,179.271 345.838,177.000 346.222 C 166.479 347.998,154.196 347.397,152.756 345.035 C 150.620 341.533,151.899 329.789,155.025 324.200 L 155.920 322.600 162.590 322.400 L 169.260 322.200 170.830 320.515 L 172.400 318.831 172.404 312.115 C 172.411 299.908,174.836 297.495,187.312 297.275 L 194.424 297.149 195.787 295.787 L 197.149 294.424 197.275 287.312 C 197.436 278.165,198.539 275.651,203.400 273.353 C 206.594 271.843,218.652 271.911,221.809 273.457 M146.932 277.608 C 148.659 278.142,150.032 278.886,150.974 279.801 L 152.400 281.186 152.400 299.722 L 152.400 318.258 151.162 320.814 C 148.913 325.458,148.302 328.612,148.039 336.958 L 147.800 344.516 146.672 345.358 C 145.643 346.126,144.869 346.218,137.872 346.402 C 129.237 346.629,128.039 346.967,125.668 349.844 C 122.170 354.088,122.264 371.308,125.828 379.000 C 126.447 380.336,126.606 381.984,126.792 389.000 C 127.101 400.616,126.903 400.400,137.218 400.400 C 146.773 400.400,148.400 398.485,148.400 387.245 C 148.400 381.656,148.504 380.627,149.237 378.933 C 151.111 374.602,151.992 369.098,151.996 361.708 C 152.003 349.009,150.429 349.807,174.734 350.183 C 196.233 350.516,194.979 350.315,196.998 353.761 C 197.952 355.388,198.001 355.777,198.013 361.835 C 198.020 365.336,198.304 370.630,198.644 373.600 C 198.984 376.570,199.357 382.420,199.474 386.600 C 199.704 394.802,199.813 395.263,202.066 397.561 C 204.805 400.357,204.969 400.397,213.600 400.398 C 225.637 400.399,225.216 400.874,225.661 386.800 C 225.831 381.410,226.149 375.650,226.368 374.000 C 226.586 372.350,226.773 367.691,226.782 363.647 C 226.809 352.648,227.383 352.008,237.247 351.987 C 240.631 351.980,245.830 351.697,248.800 351.358 C 263.024 349.736,269.295 350.109,272.136 352.746 C 274.458 354.901,274.400 354.335,274.400 374.930 L 274.400 393.899 271.782 395.149 C 269.185 396.390,269.111 396.400,262.682 396.407 C 253.359 396.417,247.867 397.836,244.767 401.034 L 243.443 402.400 236.940 402.400 C 227.221 402.400,227.200 402.422,227.200 412.392 L 227.200 418.863 225.500 420.457 C 224.565 421.334,222.723 422.580,221.406 423.226 L 219.012 424.400 174.899 424.400 L 130.785 424.400 128.193 421.807 L 125.600 419.215 125.600 412.188 C 125.600 401.388,125.852 401.597,112.400 401.239 C 99.088 400.885,98.800 400.616,98.800 388.501 L 98.800 381.171 96.480 378.785 L 94.161 376.400 87.353 376.400 C 74.615 376.400,73.600 375.389,73.600 362.693 C 73.600 355.665,73.937 353.725,76.637 345.229 C 77.026 344.006,77.200 341.433,77.200 336.918 L 77.200 330.379 78.989 328.589 L 80.779 326.800 87.394 326.800 C 99.243 326.800,101.975 324.047,101.991 312.089 L 102.000 305.579 103.789 303.789 L 105.579 302.000 112.089 301.991 C 124.050 301.975,126.800 299.244,126.800 287.385 L 126.800 280.762 128.781 278.781 L 130.762 276.800 137.539 276.800 C 143.208 276.800,144.743 276.932,146.932 277.608 M248.417 323.004 C 249.995 323.336,252.586 324.056,254.173 324.604 C 256.774 325.501,257.685 325.600,263.362 325.600 L 269.664 325.600 272.042 327.978 L 274.419 330.355 274.310 337.276 L 274.200 344.197 272.600 344.769 C 271.528 345.152,268.228 345.432,262.600 345.617 C 256.057 345.831,253.360 346.089,250.400 346.783 C 247.233 347.525,244.836 347.722,236.000 347.967 C 221.770 348.363,223.226 346.845,222.778 361.752 C 222.495 371.183,222.299 373.582,221.563 376.600 C 220.892 379.350,220.645 381.806,220.516 387.000 C 220.290 396.087,220.747 395.600,212.456 395.600 C 203.983 395.600,204.400 396.033,204.400 387.228 C 204.400 383.580,204.218 379.966,203.996 379.197 C 202.522 374.102,201.931 368.140,202.075 359.800 C 202.294 347.144,202.234 347.215,212.674 347.206 C 222.730 347.197,222.400 347.539,222.400 337.115 C 222.400 328.116,223.327 325.932,228.200 323.442 C 230.690 322.170,243.168 321.899,248.417 323.004 M146.800 349.901 C 151.450 352.223,151.305 368.851,146.553 378.314 L 144.802 381.800 144.801 388.020 C 144.800 395.790,145.413 395.200,137.334 395.200 C 129.429 395.200,130.000 395.792,130.000 387.603 L 130.000 381.553 128.422 378.276 C 125.752 372.733,125.199 370.006,125.204 362.408 L 125.208 355.800 126.415 353.694 C 127.079 352.536,128.365 351.051,129.271 350.394 L 130.920 349.200 138.160 349.201 C 144.251 349.201,145.622 349.312,146.800 349.901 M47.011 380.383 C 46.881 380.593,46.465 380.666,46.087 380.545 C 45.504 380.358,45.490 380.390,46.000 380.756 C 46.849 381.367,47.467 381.301,47.467 380.600 C 47.467 379.905,47.343 379.846,47.011 380.383 M68.806 402.967 C 68.809 403.205,69.006 403.670,69.244 404.000 C 69.617 404.519,69.647 404.512,69.469 403.949 C 69.355 403.591,69.434 403.126,69.645 402.915 C 69.887 402.673,69.803 402.533,69.413 402.533 C 69.076 402.533,68.803 402.728,68.806 402.967 M214.728 444.787 C 199.746 445.098,201.126 442.380,200.906 472.000 L 200.744 493.800 201.693 495.579 C 203.368 498.719,204.856 499.200,212.892 499.200 C 221.526 499.200,226.977 500.839,230.204 504.405 C 230.904 505.178,231.457 505.200,249.962 505.183 L 269.000 505.166 271.458 501.883 C 272.810 500.077,274.565 497.574,275.358 496.319 L 276.800 494.038 276.811 487.919 C 276.817 484.554,276.996 480.090,277.209 478.000 C 277.848 471.719,278.134 457.672,277.686 454.542 C 276.813 448.443,275.573 447.557,267.600 447.335 C 255.107 446.988,253.808 446.872,248.487 445.635 C 242.610 444.269,241.280 444.235,214.728 444.787 M250.185 449.403 C 252.816 449.731,258.087 450.000,261.898 450.000 C 270.638 450.000,272.721 450.734,274.235 454.349 C 275.174 456.590,274.995 469.009,273.935 475.200 C 273.370 478.499,273.022 482.574,272.912 487.180 L 272.747 494.160 270.891 496.687 L 269.035 499.215 249.617 499.104 L 230.200 498.993 226.200 497.849 C 222.546 496.804,221.491 496.689,214.000 496.511 C 205.854 496.318,205.793 496.310,204.700 495.283 L 203.600 494.250 203.600 474.797 L 203.600 455.343 204.700 453.172 L 205.800 451.000 213.000 450.769 C 216.960 450.642,220.505 450.401,220.878 450.235 C 224.048 448.817,241.513 448.322,250.185 449.403 M128.414 476.000 C 126.805 477.050,126.205 479.818,126.073 486.800 C 125.947 493.454,125.895 493.849,125.020 494.800 C 122.024 498.057,121.438 500.039,122.859 502.116 L 123.896 503.633 126.048 501.780 C 130.966 497.546,130.823 497.600,137.246 497.600 C 146.923 497.600,150.264 499.270,151.778 504.865 C 152.787 508.591,152.523 519.252,151.349 522.200 L 150.552 524.200 160.316 524.090 C 169.896 523.983,170.102 523.963,171.339 523.029 C 173.813 521.161,176.342 520.708,185.400 520.506 C 196.087 520.268,195.200 520.986,195.200 512.567 C 195.200 504.238,196.029 504.958,186.123 504.685 C 177.407 504.446,174.228 503.892,171.599 502.152 C 170.017 501.105,169.939 501.096,163.227 501.171 C 155.559 501.257,155.294 501.186,152.264 498.241 C 148.891 494.964,148.803 494.684,148.801 487.258 L 148.800 480.717 146.407 478.375 L 144.014 476.034 136.367 475.917 C 132.161 475.853,128.583 475.890,128.414 476.000 M102.834 525.730 C 100.902 530.264,100.740 531.290,100.873 538.149 L 101.000 544.728 102.210 546.222 C 104.405 548.931,105.354 549.202,112.594 549.184 C 121.045 549.164,127.665 546.982,125.462 544.943 C 125.428 544.911,124.140 545.216,122.600 545.620 C 120.421 546.191,118.251 546.359,112.822 546.377 L 105.844 546.400 104.722 545.325 L 103.600 544.250 103.606 537.425 C 103.611 531.199,104.005 527.723,104.996 525.153 C 105.644 523.470,103.560 524.028,102.834 525.730 " stroke="none" fill="#826457" fill-rule="evenodd"></path><path id="path1" d="M130.262 280.331 C 129.705 280.946,129.600 282.059,129.600 287.312 C 129.600 302.061,127.337 304.385,112.970 304.395 C 103.876 304.402,104.402 303.873,104.395 313.026 C 104.385 327.348,102.054 329.600,87.242 329.600 C 79.063 329.600,79.600 329.045,79.600 337.503 C 79.600 343.365,79.485 344.423,78.324 349.272 C 76.621 356.382,76.209 368.087,77.584 370.304 C 79.178 372.874,80.258 373.197,87.267 373.199 C 98.909 373.201,101.600 375.837,101.600 387.237 C 101.600 397.353,102.608 398.400,112.346 398.400 C 119.402 398.400,120.326 398.092,121.949 395.206 C 123.048 393.251,123.004 383.758,121.859 375.800 C 121.105 370.560,120.966 355.156,121.644 351.920 C 122.859 346.111,125.799 344.811,137.773 344.787 C 146.270 344.770,145.435 345.943,145.734 333.597 C 145.869 327.989,146.154 322.500,146.366 321.400 C 146.579 320.300,146.763 310.806,146.776 300.294 L 146.800 281.188 145.500 280.396 C 143.602 279.238,131.298 279.187,130.262 280.331 M119.004 352.100 C 119.168 352.595,119.448 357.950,119.625 364.000 C 119.803 370.050,120.076 379.187,120.232 384.305 C 120.593 396.194,121.290 395.200,112.600 395.200 C 104.250 395.200,104.916 395.960,104.711 386.200 C 104.415 372.144,103.019 370.710,89.400 370.473 C 78.947 370.291,79.600 370.811,79.600 362.673 C 79.600 357.807,79.753 356.173,80.417 353.943 L 81.234 351.200 99.970 351.200 L 118.707 351.200 119.004 352.100 M155.959 353.257 C 154.149 354.789,154.001 355.492,153.986 362.589 C 153.979 366.356,153.699 371.456,153.360 374.000 C 153.022 376.530,152.608 382.560,152.440 387.400 C 151.913 402.522,150.959 403.644,138.331 403.993 C 128.286 404.271,128.800 403.810,128.800 412.548 L 128.800 418.956 129.875 420.078 L 130.950 421.200 174.896 421.200 L 218.843 421.200 220.221 420.100 L 221.600 419.000 221.600 412.536 L 221.600 406.071 220.369 405.036 C 219.154 404.013,219.058 404.000,212.469 403.995 C 196.447 403.984,196.215 403.584,195.785 375.306 C 195.512 357.314,195.450 356.136,194.720 355.100 L 193.946 354.000 187.073 353.982 C 183.293 353.973,178.850 353.796,177.200 353.589 C 171.538 352.878,156.679 352.646,155.959 353.257 M241.964 354.300 C 231.545 354.411,231.310 354.431,230.488 355.306 C 229.668 356.179,229.642 356.651,229.364 375.200 L 229.080 394.200 230.197 395.525 L 231.313 396.850 238.157 396.670 C 242.345 396.560,246.164 396.235,248.000 395.834 C 250.040 395.388,253.879 395.108,260.000 394.961 C 265.271 394.834,269.373 394.562,269.900 394.305 L 270.800 393.865 270.800 374.914 L 270.800 355.964 269.818 354.982 L 268.836 354.000 260.718 354.093 C 256.253 354.144,247.814 354.237,241.964 354.300 M170.843 355.465 L 173.600 356.131 173.600 375.146 L 173.600 394.161 171.215 396.480 L 168.829 398.800 162.625 398.800 L 156.421 398.800 155.710 397.500 C 154.693 395.639,154.865 356.646,155.895 355.500 C 156.781 354.515,166.808 354.492,170.843 355.465 M225.000 452.624 C 220.676 453.361,217.888 453.581,212.764 453.589 L 206.128 453.600 205.664 454.619 C 204.973 456.137,205.007 493.749,205.700 494.299 C 205.975 494.517,210.428 494.813,215.600 494.958 C 220.770 495.102,225.990 495.420,227.200 495.663 C 228.554 495.936,236.962 496.170,249.057 496.271 L 268.713 496.435 269.557 495.070 C 270.318 493.838,270.400 493.110,270.403 487.553 C 270.405 483.678,270.701 479.199,271.203 475.457 C 271.732 471.508,272.000 467.250,272.000 462.770 L 272.000 456.028 270.807 454.670 L 269.615 453.311 260.907 453.075 C 256.118 452.945,250.130 452.561,247.600 452.223 C 240.716 451.302,231.836 451.459,225.000 452.624 M269.505 455.687 C 270.248 456.303,270.015 470.285,269.229 472.300 L 268.722 473.600 249.770 473.600 L 230.817 473.600 228.609 471.391 L 226.400 469.183 226.400 462.643 L 226.400 456.102 228.500 455.451 C 231.145 454.629,268.490 454.845,269.505 455.687 M130.605 504.649 C 129.694 506.830,129.732 518.475,130.654 519.397 C 131.459 520.202,143.815 520.122,145.700 519.300 L 146.800 518.820 146.800 512.491 L 146.800 506.162 145.283 504.681 L 143.766 503.200 137.489 503.200 L 131.211 503.200 130.605 504.649 M105.680 530.480 C 105.007 531.153,105.007 543.647,105.680 544.320 C 106.014 544.654,108.124 544.800,112.600 544.800 C 117.076 544.800,119.186 544.654,119.520 544.320 C 120.311 543.529,120.180 531.437,119.371 530.629 C 118.563 529.820,106.471 529.689,105.680 530.480 " stroke="none" fill="#dc9c74" fill-rule="evenodd"></path><path id="path2" d="M149.867 119.370 C 149.695 119.817,149.302 119.920,148.431 119.746 C 147.166 119.493,144.783 121.287,144.814 122.469 C 144.822 122.761,145.054 122.593,145.330 122.097 C 145.861 121.141,147.532 119.799,147.825 120.092 C 147.921 120.187,147.550 120.506,147.001 120.799 C 146.453 121.093,145.787 121.931,145.523 122.663 C 145.203 123.548,144.939 123.826,144.734 123.496 C 144.563 123.221,144.417 123.893,144.407 125.000 C 144.396 126.100,144.346 130.870,144.294 135.600 L 144.200 144.200 123.000 144.329 C 111.340 144.400,101.023 144.443,100.073 144.424 C 98.956 144.401,98.438 144.538,98.606 144.810 C 98.777 145.086,98.516 145.144,97.854 144.978 C 96.414 144.616,94.616 146.414,94.978 147.854 C 95.144 148.516,95.086 148.777,94.810 148.606 C 94.539 148.439,94.390 148.963,94.393 150.073 C 94.396 151.023,94.353 155.670,94.299 160.400 L 94.200 169.000 85.800 169.210 C 81.180 169.325,76.955 169.269,76.412 169.086 C 75.721 168.853,75.300 168.918,75.012 169.301 C 74.785 169.603,73.921 169.848,73.091 169.845 C 71.062 169.838,69.838 171.062,69.845 173.091 C 69.848 173.921,69.603 174.785,69.301 175.012 C 68.918 175.300,68.853 175.721,69.086 176.412 C 69.269 176.955,69.325 181.180,69.210 185.800 L 69.000 194.200 60.400 194.299 C 55.670 194.353,51.023 194.396,50.073 194.393 C 48.963 194.390,48.439 194.539,48.606 194.810 C 48.777 195.086,48.516 195.144,47.854 194.978 C 46.414 194.616,44.616 196.414,44.978 197.854 C 45.144 198.516,45.086 198.777,44.810 198.606 C 44.537 198.438,44.404 198.954,44.434 200.073 C 44.459 201.023,44.416 216.920,44.339 235.400 L 44.200 269.000 35.800 269.210 C 31.180 269.325,26.955 269.269,26.412 269.086 C 25.721 268.853,25.300 268.918,25.012 269.301 C 24.785 269.603,23.921 269.848,23.091 269.845 C 21.008 269.838,19.800 271.084,19.855 273.181 C 19.882 274.227,19.699 274.830,19.307 274.980 C 18.946 275.119,18.817 275.468,18.975 275.878 C 19.311 276.756,19.311 323.244,18.975 324.122 C 18.817 324.532,18.946 324.881,19.307 325.020 C 19.699 325.170,19.882 325.773,19.855 326.819 C 19.800 328.916,21.008 330.162,23.091 330.155 C 23.921 330.152,24.785 330.397,25.012 330.699 C 25.301 331.084,25.718 331.147,26.412 330.911 C 26.955 330.726,31.210 330.670,35.867 330.787 C 41.408 330.926,44.312 330.862,44.267 330.600 C 44.230 330.380,44.501 330.223,44.868 330.250 C 45.315 330.284,45.458 330.096,45.300 329.685 C 45.140 329.266,45.222 329.166,45.557 329.374 C 45.835 329.545,46.362 329.397,46.763 329.033 C 47.155 328.678,48.185 328.328,49.052 328.254 C 49.918 328.181,51.040 327.900,51.545 327.630 C 52.049 327.359,52.713 327.234,53.018 327.352 C 53.324 327.469,53.681 327.393,53.811 327.183 C 53.941 326.972,53.588 326.800,53.026 326.800 C 51.344 326.800,48.931 325.527,48.141 324.223 C 47.098 322.501,46.771 280.079,47.775 276.628 C 48.906 272.735,50.746 272.133,61.800 272.038 L 69.000 271.976 70.495 270.486 L 71.991 268.997 72.034 236.799 C 72.091 193.692,70.842 197.200,86.125 197.200 L 93.705 197.200 95.453 195.453 L 97.200 193.705 97.200 186.125 C 97.200 172.522,97.578 172.161,111.932 172.035 C 116.189 171.998,120.887 171.716,123.132 171.363 C 125.260 171.029,130.870 170.652,135.600 170.525 C 142.930 170.328,144.421 170.182,145.700 169.539 L 147.200 168.784 147.200 161.055 C 147.200 150.478,147.711 148.890,151.479 147.756 C 154.347 146.893,270.549 146.931,273.462 147.796 C 277.261 148.924,277.866 150.803,277.965 161.799 L 278.031 168.998 279.480 170.482 L 280.930 171.967 301.565 172.110 C 312.914 172.189,322.470 172.352,322.800 172.472 C 325.799 173.565,326.119 173.785,326.714 175.154 C 327.699 177.423,327.692 177.363,327.887 185.888 L 328.071 193.977 329.682 195.588 L 331.294 197.200 338.983 197.200 C 349.828 197.200,351.513 197.821,352.368 202.138 C 354.408 212.431,354.985 232.403,353.487 240.896 C 352.885 244.311,352.800 247.994,352.800 270.747 C 352.800 301.616,353.058 299.935,348.100 301.426 C 345.926 302.079,345.330 302.538,346.900 302.349 C 347.395 302.289,348.250 302.489,348.800 302.793 C 349.350 303.097,350.301 303.310,350.913 303.266 C 351.525 303.222,352.425 303.407,352.913 303.678 C 353.401 303.948,353.929 304.134,354.086 304.090 C 354.243 304.046,354.260 304.298,354.125 304.651 C 353.930 305.159,354.057 305.236,354.739 305.019 C 355.323 304.834,355.600 304.916,355.601 305.273 C 355.602 305.696,357.350 305.778,364.501 305.689 C 369.396 305.628,374.210 305.583,375.200 305.589 C 376.247 305.596,376.793 305.466,376.504 305.279 C 376.168 305.061,376.436 304.803,377.337 304.477 C 378.069 304.213,378.907 303.547,379.201 302.999 C 379.494 302.450,379.813 302.079,379.908 302.175 C 380.201 302.468,378.859 304.139,377.903 304.670 C 377.407 304.946,377.239 305.178,377.531 305.186 C 378.713 305.217,380.507 302.834,380.254 301.569 C 380.080 300.698,380.183 300.305,380.630 300.133 C 380.981 299.998,381.146 299.636,381.013 299.291 C 380.709 298.498,380.709 201.502,381.013 200.709 C 381.146 200.364,380.981 200.002,380.630 199.867 C 380.183 199.695,380.080 199.302,380.254 198.431 C 380.507 197.166,378.713 194.783,377.531 194.814 C 377.239 194.822,377.407 195.054,377.903 195.330 C 378.859 195.861,380.201 197.532,379.908 197.825 C 379.813 197.921,379.494 197.550,379.201 197.001 C 378.907 196.453,378.069 195.787,377.337 195.523 C 376.452 195.203,376.174 194.939,376.504 194.734 C 376.779 194.563,376.107 194.417,375.000 194.407 C 373.900 194.396,369.130 194.346,364.400 194.294 L 355.800 194.200 355.706 185.600 C 355.654 180.870,355.604 176.100,355.593 175.000 C 355.583 173.893,355.437 173.221,355.266 173.496 C 355.061 173.826,354.797 173.548,354.477 172.663 C 354.213 171.931,353.547 171.093,352.999 170.799 C 352.450 170.506,352.079 170.187,352.175 170.092 C 352.468 169.799,354.139 171.141,354.670 172.097 C 354.946 172.593,355.178 172.761,355.186 172.469 C 355.217 171.304,352.835 169.493,351.597 169.741 C 350.780 169.904,350.323 169.791,350.087 169.369 C 349.839 168.927,349.486 168.853,348.774 169.095 C 348.238 169.278,343.991 169.360,339.334 169.279 L 330.869 169.131 330.721 160.666 C 330.640 156.009,330.722 151.762,330.905 151.226 C 331.147 150.514,331.073 150.161,330.631 149.913 C 330.209 149.677,330.096 149.220,330.259 148.403 C 330.507 147.165,328.696 144.783,327.531 144.814 C 327.239 144.822,327.407 145.054,327.903 145.330 C 328.859 145.861,330.201 147.532,329.908 147.825 C 329.813 147.921,329.494 147.550,329.201 147.001 C 328.907 146.453,328.069 145.787,327.337 145.523 C 326.452 145.203,326.174 144.939,326.504 144.734 C 326.777 144.564,326.100 144.429,325.000 144.434 C 323.900 144.439,313.550 144.389,302.000 144.322 L 281.000 144.200 280.790 135.800 C 280.675 131.180,280.731 126.955,280.914 126.412 C 281.147 125.721,281.082 125.300,280.699 125.012 C 280.397 124.785,280.152 123.921,280.155 123.091 C 280.162 121.008,278.916 119.800,276.819 119.855 C 275.773 119.882,275.170 119.699,275.020 119.307 C 274.886 118.959,274.530 118.818,274.150 118.964 C 273.334 119.277,151.522 119.299,150.707 118.986 C 150.364 118.854,150.001 119.020,149.867 119.370 M96.474 146.312 C 95.884 146.924,95.324 147.374,95.232 147.311 C 95.001 147.155,96.865 145.200,97.244 145.200 C 97.412 145.200,97.065 145.701,96.474 146.312 M46.474 196.312 C 45.884 196.924,45.324 197.374,45.232 197.311 C 45.001 197.155,46.865 195.200,47.244 195.200 C 47.412 195.200,47.065 195.701,46.474 196.312 M129.647 254.447 L 128.000 256.094 128.000 262.438 L 128.000 268.782 129.081 269.491 C 130.835 270.642,142.874 270.759,145.383 269.649 L 147.200 268.845 147.200 262.570 L 147.200 256.295 145.453 254.547 L 143.705 252.800 137.500 252.800 L 131.294 252.800 129.647 254.447 M104.447 279.647 L 102.800 281.294 102.800 287.385 C 102.800 295.473,102.212 294.960,111.681 295.126 C 121.174 295.291,120.488 295.937,120.325 286.996 C 120.220 281.267,120.085 279.987,119.491 279.081 L 118.782 278.000 112.438 278.000 L 106.094 278.000 104.447 279.647 M204.447 279.647 L 202.800 281.294 202.800 287.267 C 202.800 296.655,203.337 297.196,212.653 297.199 L 218.706 297.200 220.353 295.553 L 222.000 293.906 222.000 287.434 L 222.000 280.962 220.483 279.481 L 218.966 278.000 212.530 278.000 L 206.094 278.000 204.447 279.647 M79.647 304.447 L 78.000 306.094 78.000 312.604 L 78.000 319.113 79.608 319.757 C 80.849 320.253,82.663 320.400,87.546 320.400 C 95.865 320.400,95.289 321.062,95.126 311.681 C 94.960 302.212,95.473 302.800,87.385 302.800 L 81.294 302.800 79.647 304.447 M179.613 304.481 L 177.931 306.163 178.070 314.181 C 178.272 325.800,178.106 325.600,187.559 325.600 L 193.970 325.600 195.485 322.500 L 197.000 319.400 197.127 313.132 C 197.325 303.374,196.786 302.804,187.347 302.801 L 181.294 302.800 179.613 304.481 M155.490 329.379 C 154.630 331.183,154.457 343.497,155.280 344.320 C 155.921 344.961,169.586 344.970,173.054 344.331 L 175.600 343.862 175.600 337.505 C 175.600 328.115,175.790 328.272,164.190 328.070 L 156.181 327.931 155.490 329.379 M229.481 329.517 L 228.000 331.034 228.000 337.537 L 228.000 344.041 229.482 344.660 C 231.438 345.477,245.993 345.236,248.800 344.340 L 250.600 343.766 250.710 337.473 L 250.820 331.181 247.531 329.591 L 244.242 328.000 237.602 328.000 L 230.962 328.000 229.481 329.517 M129.213 352.338 C 124.966 356.803,125.132 368.048,129.567 376.244 L 131.058 379.000 137.468 379.110 L 143.878 379.219 145.144 376.845 C 148.046 371.399,148.400 369.843,148.400 362.517 C 148.400 351.460,147.790 350.800,137.576 350.800 L 130.676 350.800 129.213 352.338 M146.166 355.262 C 146.673 356.110,146.800 357.586,146.800 362.603 L 146.800 368.883 145.404 371.542 L 144.007 374.200 137.399 374.081 L 130.791 373.963 129.396 371.191 L 128.000 368.420 128.000 362.411 L 128.000 356.402 129.438 354.811 L 130.876 353.219 137.338 353.110 C 144.351 352.991,144.889 353.122,146.166 355.262 M205.576 354.100 C 204.592 355.675,204.608 369.639,205.599 373.500 L 206.137 375.600 212.442 375.600 C 218.097 375.600,218.768 375.528,218.963 374.900 C 220.612 369.572,220.994 357.547,219.611 354.500 L 218.839 352.800 212.614 352.800 L 206.388 352.800 205.576 354.100 M325.863 370.560 C 324.831 372.135,322.846 372.476,312.800 372.801 C 296.463 373.329,295.200 374.394,295.200 387.644 C 295.200 395.749,295.743 395.200,287.733 395.200 C 282.310 395.200,281.389 395.295,280.462 395.949 C 275.662 399.333,270.063 400.800,261.942 400.800 C 254.703 400.800,253.289 401.227,249.764 404.476 L 248.000 406.102 248.000 415.251 C 248.000 421.084,248.145 424.400,248.400 424.400 C 248.620 424.400,248.800 423.972,248.800 423.449 C 248.800 422.926,249.070 422.274,249.400 422.000 C 249.894 421.590,250.000 420.182,250.000 414.013 C 250.000 405.802,249.921 406.086,252.600 404.674 C 255.358 403.221,255.879 403.136,261.800 403.180 C 267.086 403.219,271.964 402.718,273.600 401.970 C 273.710 401.919,273.980 401.850,274.200 401.815 C 275.941 401.542,280.400 399.612,280.400 399.132 C 280.400 398.949,283.382 398.800,287.026 398.800 C 293.987 398.800,294.556 398.683,296.536 396.851 C 298.626 394.917,298.800 394.173,298.800 387.177 L 298.800 380.715 300.009 379.189 C 302.407 376.161,304.344 375.600,312.399 375.600 C 316.323 375.600,319.609 375.431,319.821 375.219 C 320.030 375.010,320.900 374.791,321.754 374.734 C 323.219 374.635,326.200 372.464,326.200 371.495 C 326.200 371.317,326.468 371.005,326.797 370.802 C 327.228 370.535,327.272 370.312,326.956 369.996 C 326.640 369.680,326.338 369.836,325.863 370.560 M198.241 450.334 C 197.080 452.212,196.791 457.518,196.816 476.504 C 196.830 487.232,196.703 496.232,196.532 496.504 C 196.362 496.777,196.187 497.237,196.143 497.526 C 196.099 497.816,195.554 498.501,194.932 499.048 L 193.800 500.044 185.924 499.931 C 177.283 499.807,176.733 499.909,179.305 501.154 C 180.864 501.909,181.753 502.000,187.539 502.000 C 197.839 502.000,198.000 502.160,198.000 512.444 L 198.000 518.914 196.057 520.857 L 194.114 522.800 187.853 522.800 C 182.316 522.800,181.383 522.898,179.796 523.644 C 176.483 525.201,177.236 525.417,186.473 525.559 C 194.285 525.678,195.133 525.411,198.157 521.870 L 200.000 519.714 200.000 512.957 C 200.001 505.870,200.465 504.161,202.474 503.857 C 202.763 503.813,203.230 503.634,203.512 503.458 C 204.069 503.110,221.357 503.051,222.995 503.391 C 223.548 503.506,224.450 503.693,225.000 503.808 C 226.937 504.210,225.969 503.272,223.300 502.161 C 220.724 501.089,220.214 501.026,212.200 500.790 C 198.199 500.377,199.460 503.039,199.200 473.333 C 199.015 452.155,198.895 449.276,198.241 450.334 M94.000 493.925 C 94.000 494.093,94.585 494.274,95.300 494.328 C 96.015 494.381,96.660 494.601,96.734 494.815 C 96.808 495.030,97.041 495.098,97.252 494.968 C 97.463 494.838,97.905 494.955,98.234 495.229 C 98.665 495.586,98.956 495.604,99.268 495.292 C 99.580 494.980,99.266 494.749,98.151 494.470 C 95.485 493.803,94.000 493.608,94.000 493.925 M277.800 496.099 C 277.140 497.216,275.834 499.183,274.897 500.470 C 273.839 501.924,273.498 502.621,273.997 502.309 C 274.439 502.033,274.800 501.671,274.800 501.504 C 274.800 501.337,275.025 501.200,275.300 501.199 C 275.838 501.199,278.000 498.027,278.000 497.238 C 278.000 496.975,278.283 496.212,278.629 495.543 C 279.670 493.531,279.087 493.922,277.800 496.099 M99.221 526.371 C 98.926 526.781,98.725 527.250,98.776 527.413 C 98.827 527.577,98.661 527.839,98.408 527.995 C 98.154 528.152,97.896 528.532,97.835 528.840 C 97.773 529.148,97.498 529.940,97.223 530.600 C 96.771 531.688,96.771 535.231,97.223 547.300 C 97.238 547.685,97.380 548.000,97.540 548.000 C 97.699 548.000,97.859 548.389,97.895 548.864 C 97.931 549.339,98.194 549.876,98.480 550.058 C 98.766 550.239,98.858 550.391,98.684 550.394 C 98.511 550.397,98.601 550.651,98.884 550.958 C 99.168 551.265,99.520 551.444,99.666 551.356 C 99.812 551.267,99.995 551.384,100.072 551.615 C 100.149 551.846,100.614 552.066,101.106 552.103 C 101.598 552.140,102.000 552.301,102.000 552.460 C 102.000 552.620,102.315 552.762,102.700 552.777 C 114.769 553.229,118.312 553.229,119.400 552.777 C 120.060 552.502,120.867 552.225,121.193 552.160 C 121.519 552.096,121.849 551.853,121.927 551.619 C 122.005 551.386,122.210 551.282,122.383 551.389 C 122.555 551.496,123.123 551.213,123.645 550.761 L 124.593 549.938 121.997 550.269 C 115.822 551.056,105.574 550.687,103.400 549.600 C 99.558 547.679,98.146 540.153,99.591 529.295 C 100.081 525.613,100.034 525.242,99.221 526.371 " stroke="none" fill="#4c3c2c" fill-rule="evenodd"></path><path id="path3" d="M144.480 119.280 C 144.216 119.544,144.011 120.129,144.025 120.580 C 144.050 121.361,144.068 121.358,144.408 120.512 C 144.747 119.670,145.270 119.433,147.600 119.066 C 148.150 118.980,147.781 118.884,146.780 118.854 C 145.779 118.825,144.744 119.016,144.480 119.280 M278.293 119.176 C 280.384 119.517,280.483 119.616,280.824 121.707 L 281.100 123.400 281.150 121.729 C 281.215 119.552,280.448 118.785,278.271 118.850 L 276.600 118.900 278.293 119.176 M143.692 134.297 L 143.600 143.593 121.700 143.700 L 99.800 143.807 121.713 143.903 C 139.152 143.980,143.665 143.896,143.820 143.491 C 143.928 143.211,143.964 138.936,143.900 133.991 L 143.784 125.000 143.692 134.297 M292.128 143.900 C 298.249 143.962,308.149 143.962,314.128 143.900 C 320.108 143.837,315.100 143.787,303.000 143.787 C 290.900 143.787,286.008 143.838,292.128 143.900 M94.267 144.267 C 94.120 144.413,94.011 144.998,94.025 145.567 C 94.050 146.590,94.054 146.592,94.416 145.691 C 94.617 145.190,95.190 144.617,95.691 144.416 C 96.592 144.054,96.590 144.050,95.567 144.025 C 94.998 144.011,94.413 144.120,94.267 144.267 M329.488 144.408 C 330.330 144.747,330.567 145.270,330.934 147.600 C 331.020 148.150,331.116 147.781,331.146 146.780 C 331.205 144.800,330.695 143.986,329.420 144.025 C 328.639 144.050,328.642 144.068,329.488 144.408 M93.773 159.400 C 93.773 164.680,93.830 166.785,93.899 164.077 C 93.968 161.369,93.968 157.049,93.899 154.477 C 93.829 151.905,93.772 154.120,93.773 159.400 M69.429 169.429 C 69.036 169.821,68.819 170.686,68.850 171.729 L 68.900 173.400 69.176 171.707 C 69.517 169.616,69.616 169.517,71.707 169.176 L 73.400 168.900 71.729 168.850 C 70.686 168.819,69.821 169.036,69.429 169.429 M352.400 169.066 C 354.730 169.433,355.253 169.670,355.592 170.512 C 355.932 171.358,355.950 171.361,355.975 170.580 C 356.014 169.305,355.200 168.795,353.220 168.854 C 352.219 168.884,351.850 168.980,352.400 169.066 M356.189 184.600 L 356.200 193.800 365.500 193.811 L 374.800 193.823 365.608 193.704 L 356.415 193.585 356.296 184.493 L 356.178 175.400 356.189 184.600 M54.723 193.899 C 57.431 193.968,61.751 193.968,64.323 193.899 C 66.895 193.829,64.680 193.772,59.400 193.773 C 54.120 193.773,52.015 193.830,54.723 193.899 M44.267 194.267 C 44.120 194.413,44.011 194.998,44.025 195.567 C 44.050 196.590,44.054 196.592,44.416 195.691 C 44.617 195.190,45.190 194.617,45.691 194.416 C 46.592 194.054,46.590 194.050,45.567 194.025 C 44.998 194.011,44.413 194.120,44.267 194.267 M379.488 194.408 C 380.330 194.747,380.567 195.270,380.934 197.600 C 381.020 198.150,381.116 197.781,381.146 196.780 C 381.205 194.800,380.695 193.986,379.420 194.025 C 378.639 194.050,378.642 194.068,379.488 194.408 M43.791 234.400 C 43.791 253.430,43.840 261.215,43.900 251.700 C 43.960 242.185,43.960 226.615,43.900 217.100 C 43.840 207.585,43.791 215.370,43.791 234.400 M19.429 269.429 C 19.036 269.821,18.819 270.686,18.850 271.729 L 18.900 273.400 19.176 271.707 C 19.517 269.616,19.616 269.517,21.707 269.176 L 23.400 268.900 21.729 268.850 C 20.686 268.819,19.821 269.036,19.429 269.429 M380.870 302.824 C 380.796 304.326,380.197 305.366,379.200 305.722 C 378.795 305.867,378.876 305.947,379.451 305.968 C 380.723 306.016,381.268 305.074,381.094 303.130 C 380.952 301.541,380.934 301.516,380.870 302.824 M356.184 306.500 C 356.079 306.775,356.041 322.300,356.099 341.000 L 356.205 375.000 356.302 340.707 L 356.400 306.415 365.700 306.300 L 375.000 306.185 365.687 306.092 C 358.537 306.021,356.331 306.116,356.184 306.500 M18.850 328.271 C 18.785 330.448,19.552 331.215,21.729 331.150 L 23.400 331.100 21.707 330.824 C 19.616 330.483,19.517 330.384,19.176 328.293 L 18.900 326.600 18.850 328.271 M43.787 353.000 C 43.787 365.100,43.837 370.108,43.900 364.128 C 43.962 358.149,43.962 348.249,43.900 342.128 C 43.838 336.008,43.787 340.900,43.787 353.000 M130.027 355.162 C 128.639 357.112,128.793 367.992,130.255 371.250 L 131.309 373.600 137.480 373.600 L 143.650 373.600 144.825 371.009 C 146.906 366.418,146.528 355.906,144.223 354.306 C 143.990 354.144,140.887 354.009,137.327 354.006 L 130.854 354.000 130.027 355.162 M304.800 378.352 C 301.731 380.043,301.685 380.182,301.535 388.200 C 301.306 400.408,300.444 401.228,287.400 401.638 C 283.000 401.777,278.770 402.097,278.000 402.349 C 275.367 403.213,267.563 404.000,261.640 404.000 L 255.720 404.000 254.060 405.203 L 252.400 406.405 252.400 412.352 C 252.400 418.886,252.697 420.256,254.899 423.900 L 256.169 426.000 262.985 426.008 C 270.638 426.017,273.833 426.778,278.904 429.798 L 281.257 431.200 293.180 431.200 C 303.324 431.200,305.177 431.110,305.603 430.596 C 305.969 430.156,306.160 426.814,306.309 418.253 L 306.514 406.514 318.253 406.309 C 326.814 406.160,330.156 405.969,330.596 405.603 C 331.110 405.176,331.200 403.303,331.200 392.984 L 331.200 380.865 329.790 379.994 C 326.176 377.760,308.037 376.568,304.800 378.352 M355.646 379.276 C 355.587 380.149,354.973 380.510,353.000 380.836 L 351.400 381.100 353.251 381.150 C 355.257 381.204,356.198 380.548,355.879 379.319 C 355.717 378.692,355.687 378.686,355.646 379.276 M44.012 379.851 C 43.993 380.563,45.091 381.284,45.881 381.079 C 46.457 380.930,46.426 380.884,45.720 380.846 C 45.236 380.821,44.656 380.485,44.432 380.100 C 44.208 379.715,44.019 379.603,44.012 379.851 M68.846 404.220 C 68.798 405.077,69.477 406.000,70.156 406.000 C 70.375 406.000,70.264 405.775,69.910 405.500 C 69.557 405.225,69.183 404.640,69.080 404.200 C 68.897 403.417,68.892 403.418,68.846 404.220 M84.497 406.296 L 93.594 406.415 93.702 430.307 L 93.810 454.200 93.805 430.200 L 93.800 406.200 84.600 406.189 L 75.400 406.178 84.497 406.296 M285.923 443.899 C 288.631 443.968,292.951 443.968,295.523 443.899 C 298.095 443.829,295.880 443.772,290.600 443.773 C 285.320 443.773,283.215 443.830,285.923 443.899 M304.309 444.397 C 304.810 444.608,305.392 445.190,305.603 445.691 C 305.957 446.528,305.980 446.505,305.894 445.400 C 305.814 444.379,305.621 444.186,304.600 444.106 C 303.495 444.020,303.472 444.043,304.309 444.397 M306.079 474.067 C 305.993 500.460,306.044 499.662,304.471 499.242 C 303.882 499.084,301.420 498.998,299.000 499.050 C 296.580 499.102,291.615 499.157,287.967 499.172 L 281.333 499.200 279.167 502.500 L 277.000 505.800 276.754 513.000 C 276.271 527.119,277.413 526.513,250.934 526.700 L 231.667 526.836 229.750 525.935 C 224.622 523.524,223.200 520.545,223.200 512.211 L 223.200 506.013 221.213 505.007 C 219.318 504.046,218.908 504.000,212.302 504.000 C 202.314 504.000,202.400 503.921,202.400 513.090 C 202.400 524.887,199.648 527.575,187.556 527.591 L 180.913 527.600 179.056 529.234 L 177.200 530.868 177.200 537.550 C 177.200 552.457,178.522 551.726,151.000 552.029 C 133.282 552.224,129.578 552.367,126.000 552.995 C 116.929 554.588,99.942 554.004,97.969 552.031 C 95.975 550.036,95.413 533.098,97.033 523.800 C 98.807 513.621,97.941 501.804,94.995 495.990 C 94.013 494.052,93.999 493.883,93.907 482.713 L 93.813 471.400 93.700 482.442 L 93.588 493.484 81.798 493.690 C 73.197 493.840,69.845 494.031,69.404 494.397 C 68.489 495.156,68.489 554.844,69.404 555.603 C 69.844 555.969,73.186 556.160,81.747 556.309 L 93.486 556.514 93.691 568.253 C 93.840 576.814,94.031 580.156,94.397 580.596 C 95.175 581.534,179.633 581.510,180.571 580.571 C 181.114 580.029,181.200 578.341,181.200 568.192 L 181.200 556.441 230.539 556.320 C 271.638 556.220,279.988 556.108,280.539 555.651 C 281.127 555.163,281.200 553.778,281.200 543.151 L 281.200 531.200 293.151 531.200 C 303.778 531.200,305.163 531.127,305.651 530.539 C 306.175 529.908,306.743 462.047,306.302 452.800 C 306.223 451.150,306.123 460.720,306.079 474.067 M179.528 453.100 C 177.116 455.624,177.200 454.827,177.200 475.098 C 177.200 496.085,176.934 494.136,180.126 496.571 C 181.437 497.570,181.647 497.600,187.461 497.600 C 196.740 497.600,196.000 499.549,196.000 475.098 L 196.000 455.573 194.993 453.587 L 193.987 451.600 187.474 451.600 L 180.962 451.600 179.528 453.100 " stroke="none" fill="#040404" fill-rule="evenodd"></path><path id="path4" d="M80.417 353.943 C 79.753 356.173,79.600 357.807,79.600 362.673 C 79.600 370.811,78.947 370.291,89.400 370.473 C 103.019 370.710,104.415 372.144,104.711 386.200 C 104.916 395.960,104.250 395.200,112.600 395.200 C 121.290 395.200,120.593 396.194,120.232 384.305 C 120.076 379.187,119.803 370.050,119.625 364.000 C 119.448 357.950,119.168 352.595,119.004 352.100 L 118.707 351.200 99.970 351.200 L 81.234 351.200 80.417 353.943 M155.895 355.500 C 154.865 356.646,154.693 395.639,155.710 397.500 L 156.421 398.800 162.625 398.800 L 168.829 398.800 171.215 396.480 L 173.600 394.161 173.600 375.146 L 173.600 356.131 170.843 355.465 C 166.808 354.492,156.781 354.515,155.895 355.500 M228.500 455.451 L 226.400 456.102 226.400 462.643 L 226.400 469.183 228.609 471.391 L 230.817 473.600 249.770 473.600 L 268.722 473.600 269.229 472.300 C 270.015 470.285,270.248 456.303,269.505 455.687 C 268.490 454.845,231.145 454.629,228.500 455.451 " stroke="none" fill="#f4c49c" fill-rule="evenodd"></path><path id="path5" d="M147.400 119.297 C 146.740 119.498,145.930 119.768,145.600 119.895 C 145.270 120.023,144.852 120.094,144.670 120.054 C 144.489 120.013,144.467 120.185,144.622 120.435 C 144.776 120.685,144.729 121.004,144.518 121.145 C 144.274 121.306,144.270 121.913,144.507 122.800 L 144.882 124.200 145.461 122.757 C 145.780 121.963,146.485 121.076,147.028 120.785 C 147.768 120.389,147.888 120.166,147.508 119.895 C 147.183 119.663,147.463 119.612,148.284 119.753 C 148.991 119.875,149.664 119.820,149.780 119.632 C 150.114 119.092,148.715 118.895,147.400 119.297 M152.262 119.100 C 152.160 119.265,179.222 119.400,212.400 119.400 C 245.578 119.400,272.640 119.265,272.538 119.100 C 272.436 118.935,245.374 118.800,212.400 118.800 C 179.426 118.800,152.364 118.935,152.262 119.100 M275.700 119.069 C 274.632 119.492,275.242 120.055,276.500 119.808 C 277.516 119.607,277.669 119.650,277.200 120.002 C 276.717 120.365,276.781 120.401,277.529 120.190 C 278.851 119.817,280.121 121.037,279.811 122.382 C 279.625 123.185,279.668 123.273,280.012 122.800 C 280.346 122.340,280.389 122.504,280.192 123.500 C 280.045 124.251,280.101 124.800,280.325 124.800 C 280.976 124.800,281.201 123.655,280.772 122.528 C 280.550 121.942,280.463 121.214,280.579 120.910 C 280.712 120.565,280.618 120.465,280.327 120.645 C 280.021 120.834,279.948 120.713,280.112 120.286 C 280.294 119.811,280.189 119.706,279.714 119.888 C 279.359 120.025,279.171 119.970,279.296 119.768 C 279.421 119.566,279.136 119.391,278.662 119.380 C 278.188 119.370,277.440 119.251,277.000 119.116 C 276.560 118.981,275.975 118.960,275.700 119.069 M146.552 120.709 C 146.086 121.089,145.506 121.760,145.264 122.200 C 145.022 122.640,144.819 122.799,144.812 122.554 C 144.794 121.903,146.378 119.998,146.929 120.009 C 147.188 120.014,147.018 120.329,146.552 120.709 M144.061 125.600 C 144.053 127.366,144.125 127.615,144.427 126.861 C 144.657 126.287,144.661 125.433,144.437 124.661 C 144.107 123.521,144.071 123.610,144.061 125.600 M280.718 135.338 C 280.783 139.772,280.912 143.625,281.005 143.900 C 281.138 144.292,285.285 144.379,300.287 144.304 L 319.400 144.208 300.300 144.100 L 281.200 143.992 281.200 135.820 C 281.200 131.325,281.065 127.564,280.900 127.461 C 280.735 127.359,280.653 130.904,280.718 135.338 M143.994 137.200 L 143.800 143.800 124.800 144.006 L 105.800 144.212 124.913 144.306 C 140.219 144.381,144.065 144.297,144.223 143.884 C 144.332 143.600,144.369 140.495,144.305 136.984 L 144.189 130.600 143.994 137.200 M95.362 145.370 C 94.189 146.579,94.013 147.723,94.867 148.600 C 95.121 148.860,95.166 148.581,94.996 147.800 C 94.853 147.140,94.885 146.780,95.068 147.000 C 95.276 147.251,95.793 146.997,96.456 146.319 C 97.126 145.632,97.345 145.156,97.056 145.016 C 96.805 144.895,97.110 144.894,97.734 145.014 C 98.377 145.138,98.769 145.073,98.639 144.864 C 98.062 143.929,96.532 144.165,95.362 145.370 M99.910 144.450 C 100.759 144.695,101.463 144.687,101.910 144.426 C 102.436 144.120,102.123 144.030,100.600 144.048 C 98.673 144.071,98.648 144.086,99.910 144.450 M323.139 144.427 C 323.713 144.657,324.567 144.661,325.339 144.437 C 326.479 144.107,326.390 144.071,324.400 144.061 C 322.634 144.053,322.385 144.125,323.139 144.427 M327.200 144.507 L 325.800 144.882 327.243 145.461 C 328.037 145.780,328.924 146.485,329.215 147.028 C 329.611 147.768,329.834 147.888,330.105 147.508 C 330.337 147.183,330.388 147.463,330.247 148.284 C 330.019 149.612,330.619 150.558,330.894 149.305 C 331.033 148.670,330.729 147.250,330.101 145.600 C 329.976 145.270,329.906 144.852,329.946 144.670 C 329.987 144.489,329.815 144.467,329.565 144.622 C 329.315 144.776,328.996 144.729,328.855 144.518 C 328.694 144.274,328.087 144.270,327.200 144.507 M328.946 145.629 C 329.526 146.085,329.996 146.670,329.991 146.929 C 329.986 147.188,329.671 147.018,329.291 146.552 C 328.911 146.086,328.240 145.506,327.800 145.264 C 327.360 145.022,327.201 144.819,327.446 144.812 C 327.691 144.805,328.366 145.173,328.946 145.629 M96.198 146.002 C 95.798 146.444,95.385 146.718,95.279 146.612 C 95.010 146.343,96.008 145.200,96.511 145.200 C 96.738 145.200,96.597 145.561,96.198 146.002 M94.048 150.600 C 94.030 152.123,94.120 152.436,94.426 151.910 C 94.687 151.463,94.695 150.759,94.450 149.910 C 94.086 148.648,94.071 148.673,94.048 150.600 M330.739 160.538 C 330.816 165.192,330.906 169.027,330.939 169.061 C 331.175 169.297,347.884 169.336,347.738 169.100 C 347.636 168.935,343.873 168.800,339.376 168.800 L 331.200 168.800 331.200 160.624 C 331.200 156.127,331.065 152.364,330.900 152.262 C 330.735 152.160,330.663 155.884,330.739 160.538 M94.089 162.300 L 94.000 168.800 85.824 168.800 C 81.327 168.800,77.564 168.935,77.461 169.100 C 77.220 169.490,93.703 169.231,94.111 168.838 C 94.281 168.674,94.366 165.673,94.300 162.169 L 94.178 155.800 94.089 162.300 M72.426 169.240 C 71.890 169.454,71.206 169.534,70.905 169.419 C 70.564 169.288,70.466 169.383,70.645 169.673 C 70.834 169.979,70.713 170.052,70.286 169.888 C 69.811 169.706,69.706 169.811,69.888 170.286 C 70.052 170.713,69.979 170.834,69.673 170.645 C 69.382 170.465,69.288 170.565,69.421 170.910 C 69.537 171.214,69.450 171.942,69.228 172.528 C 68.799 173.655,69.024 174.800,69.675 174.800 C 69.899 174.800,69.955 174.251,69.808 173.500 C 69.611 172.504,69.654 172.340,69.988 172.800 C 70.332 173.273,70.375 173.185,70.189 172.382 C 69.879 171.037,71.149 169.817,72.471 170.190 C 73.219 170.401,73.283 170.365,72.800 170.002 C 72.331 169.650,72.484 169.607,73.500 169.808 C 74.832 170.070,75.337 169.492,74.167 169.043 C 73.819 168.909,73.504 168.811,73.467 168.825 C 73.430 168.839,72.962 169.026,72.426 169.240 M350.695 169.106 C 349.442 169.381,350.388 169.981,351.716 169.753 C 352.537 169.612,352.817 169.663,352.492 169.895 C 352.112 170.166,352.232 170.389,352.972 170.785 C 353.515 171.076,354.220 171.963,354.539 172.757 L 355.118 174.200 355.493 172.800 C 355.730 171.913,355.726 171.306,355.482 171.145 C 355.271 171.004,355.224 170.685,355.378 170.435 C 355.533 170.185,355.511 170.013,355.330 170.054 C 355.148 170.094,354.730 170.024,354.400 169.899 C 352.750 169.271,351.330 168.967,350.695 169.106 M354.371 171.054 C 354.827 171.634,355.195 172.309,355.188 172.554 C 355.181 172.799,354.978 172.640,354.736 172.200 C 354.494 171.760,353.914 171.089,353.448 170.709 C 352.982 170.329,352.812 170.014,353.071 170.009 C 353.330 170.004,353.915 170.474,354.371 171.054 M355.461 174.795 C 355.330 175.452,355.386 176.397,355.586 176.895 C 355.875 177.616,355.954 177.372,355.975 175.700 C 356.003 173.343,355.817 173.015,355.461 174.795 M69.067 177.467 C 68.920 177.613,68.800 181.389,68.800 185.857 L 68.800 193.980 62.400 194.105 L 55.999 194.231 62.500 194.215 L 69.000 194.200 69.204 185.800 C 69.429 176.547,69.438 177.095,69.067 177.467 M355.780 187.400 L 355.800 194.200 362.600 194.220 L 369.400 194.240 362.800 194.020 L 356.200 193.800 355.980 187.200 L 355.760 180.600 355.780 187.400 M45.362 195.370 C 44.189 196.579,44.013 197.723,44.867 198.600 C 45.121 198.860,45.166 198.581,44.996 197.800 C 44.853 197.140,44.885 196.780,45.068 197.000 C 45.276 197.251,45.793 196.997,46.456 196.319 C 47.126 195.632,47.345 195.156,47.056 195.016 C 46.805 194.895,47.110 194.894,47.734 195.014 C 48.377 195.138,48.769 195.073,48.639 194.864 C 48.062 193.929,46.532 194.165,45.362 195.370 M49.910 194.450 C 50.759 194.695,51.463 194.687,51.910 194.426 C 52.436 194.120,52.123 194.030,50.600 194.048 C 48.673 194.071,48.648 194.086,49.910 194.450 M373.139 194.427 C 373.713 194.657,374.567 194.661,375.339 194.437 C 376.479 194.107,376.390 194.071,374.400 194.061 C 372.634 194.053,372.385 194.125,373.139 194.427 M377.200 194.507 L 375.800 194.882 377.243 195.461 C 378.037 195.780,378.924 196.485,379.215 197.028 C 379.611 197.768,379.834 197.888,380.105 197.508 C 380.337 197.183,380.388 197.463,380.247 198.284 C 380.019 199.612,380.619 200.558,380.894 199.305 C 381.033 198.670,380.729 197.250,380.101 195.600 C 379.976 195.270,379.906 194.852,379.946 194.670 C 379.987 194.489,379.815 194.467,379.565 194.622 C 379.315 194.776,378.996 194.729,378.855 194.518 C 378.694 194.274,378.087 194.270,377.200 194.507 M378.946 195.629 C 379.526 196.085,379.996 196.670,379.991 196.929 C 379.986 197.188,379.671 197.018,379.291 196.552 C 378.911 196.086,378.240 195.506,377.800 195.264 C 377.360 195.022,377.201 194.819,377.446 194.812 C 377.691 194.805,378.366 195.173,378.946 195.629 M46.198 196.002 C 45.798 196.444,45.385 196.718,45.279 196.612 C 45.010 196.343,46.008 195.200,46.511 195.200 C 46.738 195.200,46.597 195.561,46.198 196.002 M44.048 200.600 C 44.030 202.123,44.120 202.436,44.426 201.910 C 44.687 201.463,44.695 200.759,44.450 199.910 C 44.086 198.648,44.071 198.673,44.048 200.600 M380.600 250.000 C 380.600 276.358,380.735 297.840,380.900 297.738 C 381.292 297.496,381.292 202.504,380.900 202.262 C 380.735 202.160,380.600 223.642,380.600 250.000 M44.098 237.300 L 44.000 268.800 35.824 268.800 C 31.327 268.800,27.564 268.935,27.461 269.100 C 27.223 269.485,43.700 269.234,44.102 268.846 C 44.269 268.686,44.358 254.435,44.300 237.178 L 44.195 205.800 44.098 237.300 M22.426 269.240 C 21.890 269.454,21.206 269.534,20.905 269.419 C 20.564 269.288,20.466 269.383,20.645 269.673 C 20.834 269.979,20.713 270.052,20.286 269.888 C 19.811 269.706,19.706 269.811,19.888 270.286 C 20.052 270.713,19.979 270.834,19.673 270.645 C 19.382 270.465,19.288 270.565,19.421 270.910 C 19.537 271.214,19.450 271.942,19.228 272.528 C 18.799 273.655,19.024 274.800,19.675 274.800 C 19.899 274.800,19.955 274.251,19.808 273.500 C 19.611 272.504,19.654 272.340,19.988 272.800 C 20.332 273.273,20.375 273.185,20.189 272.382 C 19.879 271.037,21.149 269.817,22.471 270.190 C 23.219 270.401,23.283 270.365,22.800 270.002 C 22.331 269.650,22.484 269.607,23.500 269.808 C 24.832 270.070,25.337 269.492,24.167 269.043 C 23.819 268.909,23.504 268.811,23.467 268.825 C 23.430 268.839,22.962 269.026,22.426 269.240 M19.067 277.467 C 18.697 277.837,18.729 322.309,19.100 322.538 C 19.265 322.640,19.400 312.481,19.400 299.962 C 19.400 287.443,19.385 277.200,19.367 277.200 C 19.348 277.200,19.213 277.320,19.067 277.467 M380.307 300.226 C 380.159 300.374,380.135 301.058,380.253 301.747 C 380.391 302.552,380.338 302.819,380.105 302.492 C 379.834 302.112,379.611 302.232,379.215 302.972 C 378.924 303.515,378.037 304.220,377.243 304.539 L 375.800 305.118 377.200 305.493 C 378.087 305.730,378.694 305.726,378.855 305.482 C 378.996 305.271,379.315 305.224,379.565 305.378 C 379.815 305.533,379.987 305.511,379.946 305.330 C 379.906 305.148,379.976 304.730,380.101 304.400 C 381.047 301.914,381.173 299.360,380.307 300.226 M337.480 302.299 L 330.759 302.420 328.980 304.199 L 327.200 305.979 327.137 337.689 C 327.102 355.130,327.089 369.667,327.108 369.994 C 327.127 370.321,326.930 370.719,326.671 370.880 C 326.412 371.040,326.200 371.317,326.200 371.495 C 326.200 372.464,323.219 374.635,321.754 374.734 C 320.900 374.791,320.030 375.010,319.821 375.219 C 319.609 375.431,316.323 375.600,312.399 375.600 C 304.344 375.600,302.407 376.161,300.009 379.189 L 298.800 380.715 298.800 387.177 C 298.800 394.173,298.626 394.917,296.536 396.851 C 294.556 398.683,293.987 398.800,287.026 398.800 C 283.382 398.800,280.400 398.949,280.400 399.132 C 280.400 399.612,275.941 401.542,274.200 401.815 C 273.980 401.850,273.710 401.919,273.600 401.970 C 271.955 402.723,267.077 403.218,261.731 403.175 C 256.954 403.137,255.420 403.258,254.531 403.743 C 253.909 404.081,252.950 404.560,252.401 404.807 C 249.998 405.886,250.000 405.878,250.000 414.013 C 250.000 420.182,249.894 421.590,249.400 422.000 C 249.070 422.274,248.800 422.926,248.800 423.449 C 248.800 423.972,248.617 424.400,248.393 424.400 C 248.125 424.400,248.022 427.714,248.093 434.091 L 248.200 443.782 250.400 444.321 C 251.814 444.668,256.933 444.973,264.727 445.173 C 278.145 445.518,278.683 445.631,279.253 448.242 C 280.111 452.174,279.256 494.173,278.267 496.705 C 277.475 498.732,275.939 501.188,275.458 501.195 C 275.271 501.198,273.966 502.312,272.558 503.670 L 270.000 506.141 270.000 512.590 C 270.000 517.073,269.854 519.186,269.520 519.520 C 268.829 520.211,231.171 520.211,230.480 519.520 C 230.147 519.187,229.997 517.070,229.991 512.620 L 229.983 506.200 228.384 505.069 C 227.505 504.447,226.114 503.862,225.293 503.770 C 224.472 503.677,223.393 503.507,222.895 503.392 C 221.421 503.051,204.070 503.110,203.512 503.458 C 203.230 503.634,202.763 503.813,202.474 503.857 C 200.465 504.161,200.001 505.870,200.000 512.957 L 200.000 519.714 198.157 521.870 C 195.134 525.409,194.286 525.677,186.457 525.566 C 182.796 525.514,179.313 525.335,178.717 525.168 C 177.616 524.860,174.863 527.180,174.762 528.501 C 174.741 528.776,174.753 532.330,174.789 536.400 C 174.861 544.520,174.627 545.688,172.533 547.675 C 170.452 549.649,170.419 549.651,147.388 549.569 C 125.043 549.489,124.841 549.502,123.276 551.067 C 122.979 551.364,122.585 551.515,122.402 551.401 C 122.218 551.288,122.005 551.386,121.927 551.619 C 121.849 551.853,121.519 552.096,121.193 552.160 C 120.867 552.225,120.060 552.502,119.400 552.777 C 118.312 553.229,114.769 553.229,102.700 552.777 C 102.315 552.762,102.000 552.620,102.000 552.460 C 102.000 552.301,101.611 552.141,101.136 552.105 C 100.661 552.069,100.124 551.806,99.942 551.520 C 99.761 551.234,99.609 551.142,99.606 551.316 C 99.603 551.489,99.349 551.399,99.042 551.116 C 98.735 550.832,98.556 550.480,98.644 550.334 C 98.733 550.188,98.616 550.005,98.385 549.928 C 98.154 549.851,97.934 549.386,97.897 548.894 C 97.860 548.402,97.699 548.000,97.540 548.000 C 97.380 548.000,97.238 547.685,97.223 547.300 C 96.771 535.231,96.771 531.688,97.223 530.600 C 97.498 529.940,97.775 529.133,97.840 528.807 C 97.904 528.481,98.147 528.151,98.381 528.073 C 98.614 527.995,98.712 527.782,98.599 527.598 C 98.485 527.415,98.636 527.021,98.933 526.724 C 100.421 525.236,100.541 524.337,100.658 513.800 C 100.722 508.080,100.825 502.140,100.887 500.600 C 101.015 497.430,100.274 495.009,99.292 495.386 C 98.966 495.511,98.459 495.415,98.167 495.172 C 97.874 494.930,97.447 494.847,97.218 494.989 C 96.988 495.131,96.800 495.077,96.800 494.869 C 96.800 494.661,96.247 494.410,95.570 494.310 C 94.169 494.105,94.165 494.023,95.741 497.800 C 98.154 503.583,98.667 514.310,96.993 524.000 C 95.415 533.134,96.005 550.066,97.969 552.031 C 99.942 554.004,116.929 554.588,126.000 552.995 C 129.578 552.367,133.282 552.224,151.000 552.029 C 178.522 551.726,177.200 552.457,177.200 537.550 L 177.200 530.868 179.056 529.234 L 180.913 527.600 187.556 527.591 C 199.648 527.575,202.400 524.887,202.400 513.090 C 202.400 503.921,202.314 504.000,212.302 504.000 C 218.908 504.000,219.318 504.046,221.213 505.007 L 223.200 506.013 223.200 512.211 C 223.200 520.545,224.622 523.524,229.750 525.935 L 231.667 526.836 250.934 526.700 C 277.413 526.513,276.271 527.119,276.754 513.000 L 277.000 505.800 279.167 502.500 L 281.333 499.200 287.967 499.172 C 291.615 499.157,296.580 499.102,299.000 499.050 C 301.420 498.998,303.882 499.084,304.471 499.242 C 305.260 499.452,305.605 499.363,305.781 498.905 C 306.229 497.737,305.989 446.400,305.535 446.400 C 305.304 446.400,305.210 446.152,305.326 445.849 C 305.599 445.137,304.863 444.401,304.151 444.674 C 303.848 444.790,303.600 444.700,303.600 444.474 C 303.600 444.201,299.819 444.086,292.300 444.131 L 281.000 444.200 281.000 437.620 L 281.000 431.040 278.768 429.716 C 273.811 426.774,270.589 426.017,262.985 426.008 L 256.169 426.000 254.899 423.900 C 252.697 420.256,252.400 418.886,252.400 412.352 L 252.400 406.405 254.060 405.203 L 255.720 404.000 261.640 404.000 C 267.563 404.000,275.367 403.213,278.000 402.349 C 278.770 402.097,283.000 401.777,287.400 401.638 C 300.444 401.228,301.306 400.408,301.535 388.200 C 301.734 377.598,302.009 377.389,315.382 377.715 C 324.928 377.949,327.269 378.345,330.079 380.205 L 331.674 381.260 342.137 381.045 C 354.380 380.793,354.048 380.820,354.730 380.021 C 355.076 379.615,355.158 379.595,354.968 379.962 C 354.770 380.344,354.833 380.427,355.165 380.221 C 355.434 380.055,355.558 379.667,355.440 379.360 C 355.322 379.052,355.392 378.800,355.596 378.800 C 355.822 378.800,355.977 364.622,355.992 342.712 C 356.005 322.864,356.151 306.489,356.317 306.323 C 356.483 306.157,359.405 305.963,362.809 305.892 L 369.000 305.762 362.299 305.781 C 357.013 305.796,355.599 305.689,355.599 305.273 C 355.600 304.916,355.323 304.834,354.739 305.019 C 354.057 305.236,353.930 305.159,354.125 304.651 C 354.260 304.298,354.243 304.046,354.086 304.090 C 353.929 304.134,353.401 303.948,352.913 303.678 C 352.425 303.407,351.525 303.222,350.913 303.266 C 350.301 303.310,349.350 303.100,348.800 302.799 C 347.605 302.146,345.915 302.043,345.506 302.600 C 345.324 302.848,345.210 302.810,345.206 302.500 C 345.203 302.225,344.975 302.040,344.700 302.090 C 344.425 302.139,341.176 302.233,337.480 302.299 M379.078 304.234 C 378.460 304.765,377.740 305.193,377.478 305.184 C 377.215 305.175,377.474 304.911,378.053 304.596 C 378.631 304.282,379.221 303.723,379.362 303.355 C 379.503 302.987,379.750 302.817,379.909 302.977 C 380.069 303.137,379.695 303.703,379.078 304.234 M373.000 305.600 C 372.428 305.846,372.827 305.940,374.400 305.932 C 376.079 305.923,376.363 305.844,375.600 305.600 C 374.304 305.185,373.966 305.185,373.000 305.600 M19.054 325.803 C 18.927 326.135,19.005 326.886,19.228 327.472 C 19.450 328.058,19.537 328.786,19.421 329.090 C 19.288 329.435,19.382 329.535,19.673 329.355 C 19.979 329.166,20.052 329.287,19.888 329.714 C 19.706 330.189,19.811 330.294,20.286 330.112 C 20.713 329.948,20.834 330.021,20.645 330.327 C 20.465 330.618,20.565 330.712,20.910 330.579 C 21.214 330.463,21.942 330.550,22.528 330.772 C 23.655 331.201,24.800 330.976,24.800 330.325 C 24.800 330.101,24.251 330.045,23.500 330.192 C 22.504 330.389,22.340 330.346,22.800 330.012 C 23.273 329.668,23.185 329.625,22.382 329.811 C 21.037 330.121,19.817 328.851,20.190 327.529 C 20.401 326.781,20.365 326.717,20.002 327.200 C 19.650 327.669,19.607 327.516,19.808 326.500 C 20.066 325.185,19.494 324.656,19.054 325.803 M51.409 327.699 C 50.997 327.929,49.944 328.179,49.068 328.253 C 48.193 328.327,47.155 328.678,46.763 329.033 C 46.362 329.397,45.835 329.545,45.557 329.374 C 45.211 329.160,45.143 329.273,45.327 329.755 C 45.490 330.179,45.433 330.344,45.178 330.186 C 44.951 330.046,44.510 330.143,44.198 330.401 C 43.793 330.738,41.306 330.833,35.435 330.736 C 30.927 330.661,27.381 330.742,27.556 330.916 C 27.730 331.090,31.546 331.180,36.036 331.116 L 44.200 331.000 44.133 341.600 C 44.096 347.534,44.210 351.760,44.393 351.200 C 44.717 350.209,44.721 350.211,44.800 351.400 C 44.875 352.528,44.896 352.542,45.148 351.640 L 45.417 350.680 45.922 351.790 C 46.402 352.841,46.467 352.864,47.172 352.225 C 47.753 351.699,47.963 351.667,48.127 352.076 C 48.294 352.493,48.343 352.488,48.368 352.051 C 48.394 351.609,48.516 351.599,49.000 352.000 C 49.411 352.341,49.600 352.357,49.600 352.051 C 49.600 351.687,50.693 351.668,51.600 352.018 C 51.710 352.060,51.980 352.055,52.200 352.007 C 52.420 351.959,56.221 351.945,60.647 351.976 L 68.693 352.033 69.747 347.829 C 71.226 341.925,71.308 331.977,69.900 329.185 L 69.000 327.400 60.579 327.340 C 55.335 327.302,51.876 327.438,51.409 327.699 M137.338 353.110 L 130.876 353.219 129.438 354.811 L 128.000 356.402 128.000 362.411 L 128.000 368.420 129.396 371.191 L 130.791 373.963 137.399 374.081 L 144.007 374.200 145.404 371.542 L 146.800 368.883 146.800 362.603 C 146.800 353.104,146.648 352.952,137.338 353.110 M144.223 354.306 C 146.528 355.906,146.906 366.418,144.825 371.009 L 143.650 373.600 137.480 373.600 L 131.309 373.600 130.255 371.250 C 128.793 367.992,128.639 357.112,130.027 355.162 L 130.854 354.000 137.327 354.006 C 140.887 354.009,143.990 354.144,144.223 354.306 M45.544 379.576 C 46.064 380.029,46.679 380.400,46.911 380.400 C 47.403 380.400,47.379 380.380,45.800 379.455 L 44.600 378.753 45.544 379.576 M61.891 381.094 L 68.781 381.219 68.905 388.010 L 69.029 394.801 69.015 387.900 L 69.000 381.000 62.000 380.985 L 55.000 380.970 61.891 381.094 M69.600 403.089 C 69.600 403.321,69.971 403.936,70.424 404.456 L 71.247 405.400 70.545 404.200 C 69.620 402.621,69.600 402.597,69.600 403.089 M95.957 423.280 C 95.489 424.154,95.465 424.158,95.165 423.391 C 94.887 422.679,94.851 422.700,94.800 423.600 C 94.748 424.522,94.717 424.537,94.400 423.800 C 93.962 422.780,93.962 447.831,94.400 449.200 C 94.717 450.190,94.721 450.191,94.760 449.273 C 94.794 448.496,94.946 448.394,95.700 448.642 C 96.195 448.805,101.712 448.894,107.960 448.840 L 119.320 448.743 122.960 446.425 L 126.600 444.108 126.710 437.667 L 126.820 431.226 125.310 430.445 C 123.506 429.513,120.344 426.314,119.433 424.500 L 118.779 423.200 112.090 423.154 C 99.645 423.069,97.401 423.000,96.920 422.688 C 96.621 422.495,96.258 422.718,95.957 423.280 M178.415 445.928 C 175.637 446.992,174.208 449.297,174.335 452.508 C 174.389 453.879,174.503 464.427,174.587 475.949 L 174.740 496.899 175.914 498.349 L 177.088 499.800 185.444 499.920 L 193.800 500.040 194.932 499.047 C 195.554 498.500,196.099 497.816,196.143 497.526 C 196.187 497.237,196.362 496.777,196.532 496.504 C 196.703 496.232,196.830 487.232,196.816 476.504 C 196.790 456.938,197.100 451.766,198.392 450.209 C 198.969 449.514,197.622 447.165,196.041 446.108 C 194.218 444.891,181.462 444.760,178.415 445.928 M194.993 453.587 L 196.000 455.573 196.000 475.098 C 196.000 499.549,196.740 497.600,187.461 497.600 C 181.647 497.600,181.437 497.570,180.126 496.571 C 176.934 494.136,177.200 496.085,177.200 475.098 C 177.200 454.827,177.116 455.624,179.528 453.100 L 180.962 451.600 187.474 451.600 L 193.987 451.600 194.993 453.587 " stroke="none" fill="#4c3434" fill-rule="evenodd"></path><path id="path6" d="M154.256 175.486 C 150.742 177.375,146.953 178.045,138.000 178.362 C 129.914 178.648,129.762 178.670,127.085 179.916 L 124.369 181.180 124.992 182.385 C 126.054 184.438,127.967 186.324,130.331 187.647 C 133.404 189.366,135.370 191.300,137.197 194.400 C 140.531 200.056,142.042 200.797,150.246 200.799 C 158.158 200.800,158.801 201.142,162.416 207.259 C 164.168 210.224,165.580 211.571,168.471 213.036 C 170.890 214.262,173.367 216.767,174.636 219.272 C 176.002 221.966,177.621 223.668,180.072 224.988 C 186.165 228.265,186.800 229.437,186.800 237.393 C 186.800 245.270,187.927 247.680,192.786 250.193 C 194.709 251.187,198.470 248.047,200.920 243.400 C 203.320 238.850,205.182 238.000,212.752 238.000 C 220.837 238.000,222.011 237.430,225.227 231.945 C 226.083 230.484,227.706 228.459,228.835 227.445 L 230.887 225.600 237.383 225.600 L 243.880 225.600 245.515 226.784 C 248.892 229.231,249.200 230.117,249.200 237.398 L 249.200 243.811 250.596 245.883 C 251.927 247.861,253.941 249.540,256.638 250.922 C 258.510 251.881,260.652 254.208,262.376 257.154 C 266.053 263.435,265.068 263.197,287.316 263.199 C 309.734 263.200,309.234 263.333,313.162 256.316 C 313.865 255.060,315.266 253.305,316.276 252.416 L 318.113 250.800 324.472 250.800 C 332.605 250.800,335.153 249.618,337.651 244.689 C 338.868 242.286,340.509 240.310,342.345 239.038 C 343.612 238.160,344.220 237.267,345.366 234.600 L 346.800 231.261 346.800 225.000 L 346.800 218.739 345.353 215.369 L 343.905 212.000 331.042 212.000 C 319.750 212.000,318.057 212.081,317.189 212.660 C 315.167 214.011,313.490 215.873,311.980 218.447 C 310.287 221.332,308.463 223.143,305.971 224.415 C 303.511 225.670,301.317 227.861,299.613 230.765 C 296.383 236.270,295.302 236.800,287.304 236.800 C 280.136 236.800,279.682 236.640,276.900 233.128 L 275.600 231.487 275.599 225.044 C 275.597 216.959,274.772 215.208,269.600 212.315 C 266.596 210.634,264.619 208.681,262.803 205.600 C 261.153 202.802,259.811 201.368,257.600 200.042 C 255.718 198.914,232.475 198.727,230.356 199.823 C 228.256 200.908,226.010 203.243,224.381 206.033 C 222.714 208.887,219.955 211.600,218.719 211.600 C 217.560 211.600,214.496 208.502,212.809 205.625 C 209.481 199.947,207.969 199.203,199.754 199.201 C 191.857 199.200,191.201 198.854,187.615 192.800 C 184.417 187.401,183.153 186.803,174.931 186.801 L 168.462 186.800 166.741 185.488 C 165.693 184.688,164.215 182.852,162.960 180.788 C 161.432 178.277,160.350 177.012,158.781 175.900 C 156.297 174.140,156.693 174.177,154.256 175.486 M128.781 278.781 L 126.800 280.762 126.800 287.385 C 126.800 299.244,124.050 301.975,112.089 301.991 L 105.579 302.000 103.789 303.789 L 102.000 305.579 101.991 312.089 C 101.975 324.047,99.243 326.800,87.394 326.800 L 80.779 326.800 78.989 328.589 L 77.200 330.379 77.200 336.918 C 77.200 341.433,77.026 344.006,76.637 345.229 C 73.937 353.725,73.600 355.665,73.600 362.693 C 73.600 375.389,74.615 376.400,87.353 376.400 L 94.161 376.400 96.480 378.785 L 98.800 381.171 98.800 388.501 C 98.800 400.616,99.088 400.885,112.400 401.239 C 125.852 401.597,125.600 401.388,125.600 412.188 L 125.600 419.215 128.193 421.807 L 130.785 424.400 174.899 424.400 L 219.012 424.400 221.406 423.226 C 222.723 422.580,224.565 421.334,225.500 420.457 L 227.200 418.863 227.200 412.392 C 227.200 402.422,227.221 402.400,236.940 402.400 L 243.443 402.400 244.767 401.034 C 247.867 397.836,253.359 396.417,262.682 396.407 C 269.111 396.400,269.185 396.390,271.782 395.149 L 274.400 393.899 274.400 374.930 C 274.400 354.335,274.458 354.901,272.136 352.746 C 269.295 350.109,263.024 349.736,248.800 351.358 C 245.830 351.697,240.631 351.980,237.247 351.987 C 227.383 352.008,226.809 352.648,226.782 363.647 C 226.773 367.691,226.586 372.350,226.368 374.000 C 226.149 375.650,225.831 381.410,225.661 386.800 C 225.216 400.874,225.637 400.399,213.600 400.398 C 204.969 400.397,204.805 400.357,202.066 397.561 C 199.813 395.263,199.704 394.802,199.474 386.600 C 199.357 382.420,198.984 376.570,198.644 373.600 C 198.304 370.630,198.020 365.336,198.013 361.835 C 198.001 355.777,197.952 355.388,196.998 353.761 C 194.979 350.315,196.233 350.516,174.734 350.183 C 150.429 349.807,152.003 349.009,151.996 361.708 C 151.992 369.098,151.111 374.602,149.237 378.933 C 148.504 380.627,148.400 381.656,148.400 387.245 C 148.400 398.485,146.773 400.400,137.218 400.400 C 126.903 400.400,127.101 400.616,126.792 389.000 C 126.606 381.984,126.447 380.336,125.828 379.000 C 122.264 371.308,122.170 354.088,125.668 349.844 C 128.039 346.967,129.237 346.629,137.872 346.402 C 144.869 346.218,145.643 346.126,146.672 345.358 L 147.800 344.516 148.039 336.958 C 148.302 328.612,148.913 325.458,151.162 320.814 L 152.400 318.258 152.400 299.722 L 152.400 281.186 150.974 279.801 C 148.574 277.470,145.573 276.800,137.539 276.800 L 130.762 276.800 128.781 278.781 M145.500 280.396 L 146.800 281.188 146.776 300.294 C 146.763 310.806,146.579 320.300,146.366 321.400 C 146.154 322.500,145.869 327.989,145.734 333.597 C 145.435 345.943,146.270 344.770,137.773 344.787 C 125.799 344.811,122.859 346.111,121.644 351.920 C 120.966 355.156,121.105 370.560,121.859 375.800 C 123.004 383.758,123.048 393.251,121.949 395.206 C 120.326 398.092,119.402 398.400,112.346 398.400 C 102.608 398.400,101.600 397.353,101.600 387.237 C 101.600 375.837,98.909 373.201,87.267 373.199 C 80.258 373.197,79.178 372.874,77.584 370.304 C 76.209 368.087,76.621 356.382,78.324 349.272 C 79.485 344.423,79.600 343.365,79.600 337.503 C 79.600 329.045,79.063 329.600,87.242 329.600 C 102.054 329.600,104.385 327.348,104.395 313.026 C 104.402 303.873,103.876 304.402,112.970 304.395 C 127.337 304.385,129.600 302.061,129.600 287.312 C 129.600 279.047,129.029 279.600,137.562 279.601 C 143.474 279.603,144.342 279.690,145.500 280.396 M177.200 353.589 C 178.850 353.796,183.293 353.973,187.073 353.982 L 193.946 354.000 194.720 355.100 C 195.450 356.136,195.512 357.314,195.785 375.306 C 196.215 403.584,196.447 403.984,212.469 403.995 C 219.058 404.000,219.154 404.013,220.369 405.036 L 221.600 406.071 221.600 412.536 L 221.600 419.000 220.221 420.100 L 218.843 421.200 174.896 421.200 L 130.950 421.200 129.875 420.078 L 128.800 418.956 128.800 412.548 C 128.800 403.810,128.286 404.271,138.331 403.993 C 150.959 403.644,151.913 402.522,152.440 387.400 C 152.608 382.560,153.022 376.530,153.360 374.000 C 153.699 371.456,153.979 366.356,153.986 362.589 C 154.001 355.492,154.149 354.789,155.959 353.257 C 156.679 352.646,171.538 352.878,177.200 353.589 M269.818 354.982 L 270.800 355.964 270.800 374.914 L 270.800 393.865 269.900 394.305 C 269.373 394.562,265.271 394.834,260.000 394.961 C 253.879 395.108,250.040 395.388,248.000 395.834 C 246.164 396.235,242.345 396.560,238.157 396.670 L 231.313 396.850 230.197 395.525 L 229.080 394.200 229.364 375.200 C 229.642 356.651,229.668 356.179,230.488 355.306 C 231.310 354.431,231.545 354.411,241.964 354.300 C 247.814 354.237,256.253 354.144,260.718 354.093 L 268.836 354.000 269.818 354.982 M224.678 449.407 C 222.960 449.695,221.250 450.068,220.878 450.235 C 220.505 450.401,216.960 450.642,213.000 450.769 L 205.800 451.000 204.700 453.172 L 203.600 455.343 203.600 474.797 L 203.600 494.250 204.700 495.283 C 205.793 496.310,205.854 496.318,214.000 496.511 C 221.491 496.689,222.546 496.804,226.200 497.849 L 230.200 498.993 249.617 499.104 L 269.035 499.215 270.891 496.687 L 272.747 494.160 272.912 487.180 C 273.022 482.574,273.370 478.499,273.935 475.200 C 274.995 469.009,275.174 456.590,274.235 454.349 C 272.721 450.734,270.638 450.000,261.898 450.000 C 258.087 450.000,252.816 449.731,250.185 449.403 C 244.199 448.657,229.128 448.659,224.678 449.407 M247.600 452.223 C 250.130 452.561,256.118 452.945,260.907 453.075 L 269.615 453.311 270.807 454.670 L 272.000 456.028 272.000 462.770 C 272.000 467.250,271.732 471.508,271.203 475.457 C 270.701 479.199,270.405 483.678,270.403 487.553 C 270.400 493.110,270.318 493.838,269.557 495.070 L 268.713 496.435 249.057 496.271 C 236.962 496.170,228.554 495.936,227.200 495.663 C 225.990 495.420,220.770 495.102,215.600 494.958 C 210.428 494.813,205.975 494.517,205.700 494.299 C 205.007 493.749,204.973 456.137,205.664 454.619 L 206.128 453.600 212.764 453.589 C 217.888 453.581,220.676 453.361,225.000 452.624 C 231.836 451.459,240.716 451.302,247.600 452.223 M129.155 499.304 C 127.921 500.237,126.301 501.540,125.555 502.200 L 124.200 503.400 124.200 512.000 C 124.200 524.883,124.852 524.143,113.324 524.335 L 105.210 524.471 104.539 526.535 C 104.035 528.084,103.826 530.548,103.702 536.400 L 103.536 544.200 104.729 545.337 L 105.922 546.475 113.661 546.303 C 119.435 546.175,121.924 545.961,123.465 545.461 L 125.529 544.790 125.667 536.695 C 125.861 525.237,125.096 525.940,137.800 525.552 C 152.263 525.110,151.971 525.345,152.303 513.840 C 152.692 500.370,150.106 497.595,137.174 497.604 L 131.400 497.608 129.155 499.304 M145.283 504.681 L 146.800 506.162 146.800 512.491 L 146.800 518.820 145.700 519.300 C 143.815 520.122,131.459 520.202,130.654 519.397 C 129.732 518.475,129.694 506.830,130.605 504.649 L 131.211 503.200 137.489 503.200 L 143.766 503.200 145.283 504.681 M119.371 530.629 C 120.180 531.437,120.311 543.529,119.520 544.320 C 119.186 544.654,117.076 544.800,112.600 544.800 C 108.124 544.800,106.014 544.654,105.680 544.320 C 105.007 543.647,105.007 531.153,105.680 530.480 C 106.471 529.689,118.563 529.820,119.371 530.629 " stroke="none" fill="#ac947c" fill-rule="evenodd"></path><path id="path7" d="M126.400 450.960 C 124.750 451.457,122.271 452.440,120.892 453.142 L 118.383 454.420 106.747 454.388 C 100.347 454.370,95.013 454.454,94.892 454.574 C 94.772 454.695,94.432 454.593,94.137 454.348 C 93.690 453.977,93.602 455.409,93.613 462.851 C 93.624 471.086,93.676 471.736,94.259 471.000 C 94.607 470.560,94.961 470.380,95.046 470.600 C 95.145 470.858,99.304 470.960,106.724 470.887 L 118.248 470.773 121.067 472.405 C 126.482 475.541,128.405 475.982,136.690 475.992 L 143.980 476.000 146.390 478.358 L 148.800 480.717 148.801 487.258 C 148.803 494.598,148.890 494.890,152.000 498.000 C 155.096 501.096,155.429 501.197,162.520 501.199 C 169.613 501.200,170.158 501.050,172.503 498.454 C 174.756 495.961,174.795 495.558,174.798 475.026 C 174.800 453.528,174.877 454.039,171.248 451.376 L 169.400 450.020 149.400 450.037 C 129.801 450.054,129.340 450.073,126.400 450.960 M103.950 499.919 C 100.778 501.576,100.449 502.695,100.422 511.913 C 100.398 519.937,100.585 520.843,102.733 523.134 L 103.984 524.468 112.711 524.334 C 124.922 524.147,124.200 524.900,124.200 512.334 L 124.200 504.068 122.983 502.337 C 120.283 498.496,109.336 497.105,103.950 499.919 M150.600 524.446 C 149.280 524.637,147.930 524.912,147.600 525.056 C 147.270 525.200,142.860 525.434,137.800 525.575 C 125.028 525.933,125.853 525.135,125.666 537.308 L 125.532 546.016 126.866 547.267 C 129.391 549.635,129.040 549.600,150.000 549.600 C 175.790 549.600,174.984 550.025,174.733 536.538 C 174.582 528.443,174.270 527.470,171.084 525.162 L 169.480 524.000 161.240 524.049 C 156.708 524.076,151.920 524.254,150.600 524.446 " stroke="none" fill="#199eb9" fill-rule="evenodd"></path><path id="path8" d="M151.319 147.779 C 147.726 148.902,147.200 150.598,147.200 161.055 L 147.200 168.784 145.700 169.539 C 144.421 170.182,142.930 170.328,135.600 170.525 C 130.870 170.652,125.260 171.029,123.132 171.363 C 120.887 171.716,116.189 171.998,111.932 172.035 C 97.578 172.161,97.200 172.522,97.200 186.125 L 97.200 193.705 95.453 195.453 L 93.705 197.200 86.125 197.200 C 70.842 197.200,72.091 193.692,72.034 236.799 L 71.991 268.997 70.495 270.486 L 69.000 271.976 61.800 272.038 C 46.159 272.173,47.124 270.258,47.284 300.858 C 47.432 329.169,46.229 326.791,60.600 327.175 L 69.000 327.400 69.900 329.185 C 71.308 331.977,71.226 341.925,69.747 347.829 L 68.693 352.033 60.647 351.976 C 56.221 351.945,52.420 351.959,52.200 352.007 C 51.980 352.055,51.710 352.060,51.600 352.018 C 50.693 351.668,49.600 351.687,49.600 352.051 C 49.600 352.371,49.440 352.366,49.039 352.032 C 48.608 351.675,48.430 351.687,48.270 352.083 C 48.112 352.477,48.056 352.467,48.032 352.038 C 48.007 351.601,47.825 351.634,47.214 352.187 C 46.453 352.876,46.411 352.863,45.922 351.790 L 45.417 350.680 45.148 351.640 C 44.896 352.541,44.875 352.526,44.805 351.400 L 44.731 350.200 44.360 351.400 C 43.817 353.157,43.966 374.000,44.522 374.000 C 44.816 374.000,44.803 374.157,44.480 374.480 C 43.923 375.037,43.833 376.400,44.353 376.400 C 44.548 376.400,44.792 376.845,44.896 377.388 C 44.999 377.931,44.930 378.281,44.742 378.164 C 44.218 377.840,44.336 378.968,44.900 379.668 C 45.465 380.369,46.983 381.020,46.597 380.395 C 46.463 380.178,46.644 380.000,47.000 380.000 C 47.356 380.000,47.548 380.161,47.426 380.358 C 47.305 380.554,47.654 380.689,48.202 380.658 C 48.751 380.626,49.205 380.420,49.212 380.200 C 49.220 379.980,49.487 380.146,49.807 380.569 C 50.312 381.236,50.575 381.281,51.795 380.906 C 52.568 380.669,53.128 380.593,53.039 380.738 C 52.949 380.882,56.504 381.000,60.938 381.000 L 69.000 381.000 69.000 389.062 C 69.000 393.496,69.118 397.051,69.262 396.961 C 69.407 396.872,69.331 397.432,69.094 398.205 C 68.719 399.425,68.764 399.688,69.431 400.193 C 69.854 400.513,70.020 400.780,69.800 400.788 C 69.580 400.795,69.374 401.249,69.342 401.798 C 69.311 402.346,69.446 402.695,69.642 402.574 C 69.839 402.452,70.000 402.644,70.000 403.000 C 70.000 403.356,69.822 403.537,69.605 403.403 C 68.980 403.017,69.631 404.535,70.332 405.100 C 71.032 405.664,72.160 405.782,71.836 405.258 C 71.719 405.070,72.069 405.001,72.612 405.104 C 73.155 405.208,73.600 405.452,73.600 405.647 C 73.600 406.167,74.963 406.077,75.520 405.520 C 75.872 405.168,76.000 405.163,76.000 405.501 C 76.000 405.755,76.405 405.945,76.900 405.925 C 77.395 405.904,81.445 405.912,85.900 405.943 L 94.000 406.000 94.028 414.500 C 94.044 419.175,94.211 423.360,94.400 423.800 C 94.717 424.537,94.748 424.522,94.800 423.600 C 94.851 422.700,94.887 422.679,95.165 423.391 C 95.465 424.158,95.489 424.154,95.957 423.280 C 96.258 422.718,96.621 422.495,96.920 422.688 C 97.401 423.000,99.645 423.069,112.092 423.154 L 118.784 423.200 119.560 424.700 C 120.490 426.499,123.691 429.658,125.510 430.572 L 126.820 431.231 126.710 437.669 L 126.600 444.108 122.960 446.425 L 119.320 448.743 107.960 448.840 C 101.712 448.894,96.195 448.805,95.700 448.642 C 94.946 448.394,94.794 448.496,94.760 449.273 C 94.721 450.192,94.718 450.192,94.390 449.200 C 94.170 448.532,94.084 449.263,94.130 451.400 C 94.185 453.925,94.319 454.574,94.766 454.478 C 95.077 454.411,100.518 454.370,106.856 454.388 L 118.380 454.420 121.090 453.057 C 127.082 450.044,127.494 450.000,149.553 450.000 L 169.256 450.000 170.962 451.174 C 171.900 451.819,172.938 452.755,173.269 453.253 C 173.849 454.127,173.879 454.082,174.128 451.982 C 174.783 446.451,177.143 445.253,187.441 445.222 C 199.746 445.185,198.940 443.266,199.200 473.200 C 199.460 503.061,198.194 500.375,212.200 500.792 C 221.666 501.074,222.771 501.343,227.500 504.516 L 230.000 506.194 230.000 512.617 C 230.000 517.079,230.147 519.187,230.480 519.520 C 231.171 520.211,268.829 520.211,269.520 519.520 C 269.854 519.186,270.000 517.074,270.000 512.595 L 270.000 506.150 271.232 504.975 C 272.729 503.547,275.758 499.455,277.726 496.200 L 279.177 493.800 279.428 472.000 C 279.566 459.944,279.522 449.501,279.329 448.635 C 278.643 445.570,278.454 445.526,264.727 445.173 C 256.931 444.973,251.814 444.668,250.400 444.321 L 248.200 443.781 248.096 424.945 L 247.992 406.109 249.760 404.480 C 253.289 401.227,254.702 400.800,261.942 400.800 C 270.063 400.800,275.662 399.333,280.462 395.949 C 281.389 395.295,282.310 395.200,287.733 395.200 C 295.743 395.200,295.200 395.749,295.200 387.644 C 295.200 374.394,296.463 373.329,312.800 372.801 C 323.278 372.462,324.650 372.197,326.158 370.219 L 327.200 368.853 327.200 337.416 L 327.200 305.979 328.989 304.189 L 330.779 302.400 336.889 302.397 C 343.759 302.394,347.426 301.933,349.850 300.769 C 352.881 299.314,352.800 300.138,352.800 270.682 C 352.800 247.990,352.885 244.310,353.487 240.896 C 354.985 232.403,354.408 212.431,352.368 202.138 C 351.513 197.821,349.828 197.200,338.983 197.200 L 331.294 197.200 329.682 195.588 L 328.071 193.977 327.887 185.888 C 327.692 177.363,327.699 177.423,326.714 175.154 C 326.119 173.785,325.799 173.565,322.800 172.472 C 322.470 172.352,312.914 172.189,301.565 172.110 L 280.930 171.967 279.480 170.482 L 278.031 168.998 277.965 161.799 C 277.866 150.803,277.261 148.924,273.462 147.796 C 270.642 146.959,153.996 146.942,151.319 147.779 M270.800 154.400 L 272.400 156.000 272.400 162.842 C 272.400 171.861,273.384 174.189,278.191 176.543 L 280.350 177.600 299.627 177.600 L 318.905 177.600 320.653 179.347 L 322.400 181.095 322.404 187.847 C 322.411 200.051,324.794 202.447,337.275 202.800 L 344.351 203.000 345.531 204.132 C 351.626 209.979,353.112 230.784,348.200 241.512 L 347.200 243.697 347.200 268.895 L 347.200 294.094 345.647 295.647 L 344.094 297.200 337.347 297.204 C 328.375 297.209,325.677 298.414,323.116 303.559 L 322.200 305.400 322.093 337.270 L 321.986 369.139 320.221 369.813 C 317.973 370.672,304.548 370.473,301.600 369.538 L 299.800 368.967 299.600 362.350 C 299.375 354.891,299.105 354.185,295.486 351.563 L 293.854 350.381 287.432 350.490 L 281.010 350.600 280.405 351.800 C 279.893 352.815,279.782 356.143,279.686 373.347 L 279.572 393.695 278.686 394.430 C 277.539 395.383,273.742 397.428,271.532 398.283 C 270.226 398.788,267.928 399.008,262.189 399.177 L 254.578 399.400 251.884 400.727 C 250.347 401.485,248.333 402.926,247.195 404.082 L 245.200 406.109 245.197 413.354 C 245.194 419.737,244.837 424.255,244.158 426.500 C 243.968 427.128,243.303 427.200,237.735 427.200 C 232.231 427.200,231.399 427.288,230.435 427.975 C 227.377 430.153,228.050 430.123,177.881 430.287 L 131.562 430.437 129.810 429.562 C 126.727 428.022,123.782 425.381,121.756 422.338 L 119.800 419.400 119.675 412.800 C 119.606 409.170,119.426 406.075,119.275 405.921 C 119.124 405.768,113.780 405.615,107.400 405.581 C 97.881 405.531,95.682 405.415,95.144 404.938 C 94.568 404.426,94.481 402.945,94.424 392.689 C 94.376 384.119,94.232 380.941,93.879 380.717 C 93.616 380.549,88.328 380.409,82.129 380.406 C 72.338 380.401,70.773 380.316,70.218 379.760 C 69.654 379.197,69.591 377.659,69.689 366.860 L 69.800 354.600 71.377 349.600 L 72.954 344.600 73.177 334.911 C 73.469 322.200,72.715 322.841,87.417 322.813 L 94.233 322.800 96.017 320.984 L 97.800 319.168 98.000 309.595 C 98.262 297.043,97.043 298.262,109.595 298.000 L 119.168 297.800 120.928 296.072 L 122.688 294.343 122.886 285.053 C 123.161 272.169,122.146 273.140,135.590 272.902 C 152.202 272.607,152.800 272.236,152.800 262.233 C 152.800 249.929,149.736 247.033,136.971 247.273 C 124.727 247.503,122.739 249.579,122.405 262.489 C 122.133 272.946,122.946 272.133,112.489 272.405 C 99.358 272.745,97.546 274.580,97.200 287.887 C 96.942 297.799,97.799 296.942,87.887 297.200 C 74.757 297.542,72.411 299.790,72.404 312.040 C 72.398 322.351,72.733 322.000,62.888 322.000 L 55.723 322.000 54.261 320.581 L 52.800 319.161 52.800 299.981 L 52.800 280.800 54.400 279.200 L 56.000 277.600 62.842 277.600 C 71.861 277.600,74.189 276.616,76.543 271.809 L 77.600 269.650 77.600 237.825 L 77.600 206.000 79.200 204.400 L 80.800 202.800 87.500 202.791 C 99.953 202.775,102.800 199.937,102.800 187.536 L 102.800 180.800 104.400 179.200 L 106.000 177.600 112.531 177.600 C 118.592 177.600,119.241 177.527,121.548 176.590 C 126.478 174.587,130.027 174.006,137.358 174.003 L 144.116 174.000 147.065 172.582 C 148.687 171.801,150.641 170.613,151.407 169.940 L 152.800 168.717 152.800 162.312 L 152.800 155.906 154.353 154.353 L 155.906 152.800 212.553 152.800 L 269.200 152.800 270.800 154.400 M145.453 254.547 L 147.200 256.295 147.200 262.570 L 147.200 268.845 145.383 269.649 C 142.874 270.759,130.835 270.642,129.081 269.491 L 128.000 268.782 128.000 262.438 L 128.000 256.094 129.647 254.447 L 131.294 252.800 137.500 252.800 L 143.705 252.800 145.453 254.547 M203.400 273.353 C 198.539 275.651,197.436 278.165,197.275 287.312 L 197.149 294.424 195.787 295.787 L 194.424 297.149 187.312 297.275 C 174.836 297.495,172.411 299.908,172.404 312.115 L 172.400 318.831 170.830 320.515 L 169.260 322.200 162.590 322.400 L 155.920 322.600 155.025 324.200 C 151.899 329.789,150.620 341.533,152.756 345.035 C 154.196 347.397,166.479 347.998,177.000 346.222 C 179.271 345.838,183.230 345.611,187.723 345.607 C 199.724 345.595,199.600 345.680,199.600 337.529 C 199.600 332.407,199.729 331.061,200.386 329.334 C 202.045 324.967,202.800 319.690,202.800 312.450 L 202.800 305.627 204.188 304.239 L 205.576 302.851 212.688 302.725 C 220.441 302.589,221.755 302.249,224.551 299.664 C 228.909 295.633,229.040 279.953,224.754 275.357 C 221.849 272.242,208.416 270.982,203.400 273.353 M119.491 279.081 C 120.085 279.987,120.220 281.267,120.325 286.996 C 120.488 295.937,121.174 295.291,111.681 295.126 C 102.212 294.960,102.800 295.473,102.800 287.385 L 102.800 281.294 104.447 279.647 L 106.094 278.000 112.438 278.000 L 118.782 278.000 119.491 279.081 M220.483 279.481 L 222.000 280.962 222.000 287.434 L 222.000 293.906 220.353 295.553 L 218.706 297.200 212.653 297.199 C 203.337 297.196,202.800 296.655,202.800 287.267 L 202.800 281.294 204.447 279.647 L 206.094 278.000 212.530 278.000 L 218.966 278.000 220.483 279.481 M94.238 303.641 C 95.358 304.877,95.634 318.457,94.564 319.640 C 93.613 320.691,82.165 320.780,79.608 319.757 L 78.000 319.113 78.000 312.604 L 78.000 306.094 79.647 304.447 L 81.294 302.800 87.385 302.800 C 93.066 302.800,93.527 302.857,94.238 303.641 M194.681 303.584 C 196.986 304.989,197.270 306.097,197.127 313.132 L 197.000 319.400 195.485 322.500 L 193.970 325.600 187.559 325.600 C 178.106 325.600,178.272 325.800,178.070 314.181 L 177.931 306.163 179.613 304.481 L 181.294 302.800 187.347 302.801 C 192.645 302.803,193.560 302.900,194.681 303.584 M228.200 323.442 C 223.327 325.932,222.400 328.116,222.400 337.115 C 222.400 347.539,222.730 347.197,212.674 347.206 C 202.234 347.215,202.294 347.144,202.075 359.800 C 201.931 368.140,202.522 374.102,203.996 379.197 C 204.218 379.966,204.400 383.580,204.400 387.228 C 204.400 396.033,203.983 395.600,212.456 395.600 C 220.747 395.600,220.290 396.087,220.516 387.000 C 220.645 381.806,220.892 379.350,221.563 376.600 C 222.299 373.582,222.495 371.183,222.778 361.752 C 223.226 346.845,221.770 348.363,236.000 347.967 C 244.836 347.722,247.233 347.525,250.400 346.783 C 253.360 346.089,256.057 345.831,262.600 345.617 C 268.228 345.432,271.528 345.152,272.600 344.769 L 274.200 344.197 274.310 337.276 L 274.419 330.355 272.042 327.978 L 269.664 325.600 263.362 325.600 C 257.685 325.600,256.774 325.501,254.173 324.604 C 246.699 322.024,232.242 321.377,228.200 323.442 M173.488 328.909 C 175.444 329.971,175.600 330.605,175.600 337.505 L 175.600 343.862 173.054 344.331 C 169.586 344.970,155.921 344.961,155.280 344.320 C 154.457 343.497,154.630 331.183,155.490 329.379 L 156.181 327.931 164.190 328.070 C 170.877 328.187,172.413 328.325,173.488 328.909 M247.531 329.591 L 250.820 331.181 250.710 337.473 L 250.600 343.766 248.800 344.340 C 245.993 345.236,231.438 345.477,229.482 344.660 L 228.000 344.041 228.000 337.537 L 228.000 331.034 229.481 329.517 L 230.962 328.000 237.602 328.000 L 244.242 328.000 247.531 329.591 M129.271 350.394 C 128.365 351.051,127.079 352.536,126.415 353.694 L 125.208 355.800 125.204 362.408 C 125.199 370.006,125.752 372.733,128.422 378.276 L 130.000 381.553 130.000 387.603 C 130.000 395.792,129.429 395.200,137.334 395.200 C 145.413 395.200,144.800 395.790,144.801 388.020 L 144.802 381.800 146.553 378.314 C 149.431 372.582,150.135 368.892,149.916 360.679 C 149.618 349.503,149.310 349.202,138.160 349.201 L 130.920 349.200 129.271 350.394 M145.604 351.603 C 149.932 354.684,149.683 368.328,145.144 376.845 L 143.878 379.219 137.468 379.110 L 131.058 379.000 129.567 376.244 C 125.132 368.048,124.966 356.803,129.213 352.338 L 130.676 350.800 137.576 350.800 C 143.843 350.800,144.580 350.874,145.604 351.603 M219.611 354.500 C 220.994 357.547,220.612 369.572,218.963 374.900 C 218.768 375.528,218.097 375.600,212.442 375.600 L 206.137 375.600 205.599 373.500 C 204.608 369.639,204.592 355.675,205.576 354.100 L 206.388 352.800 212.614 352.800 L 218.839 352.800 219.611 354.500 M248.487 445.635 C 253.808 446.872,255.107 446.988,267.600 447.335 C 275.573 447.557,276.813 448.443,277.686 454.542 C 278.134 457.672,277.848 471.719,277.209 478.000 C 276.996 480.090,276.817 484.554,276.811 487.919 L 276.800 494.038 275.358 496.319 C 274.565 497.574,272.810 500.077,271.458 501.883 L 269.000 505.166 249.962 505.183 C 231.457 505.200,230.904 505.178,230.204 504.405 C 226.977 500.839,221.526 499.200,212.892 499.200 C 204.856 499.200,203.368 498.719,201.693 495.579 L 200.744 493.800 200.906 472.000 C 201.126 442.380,199.746 445.098,214.728 444.787 C 241.280 444.235,242.610 444.269,248.487 445.635 M304.514 445.320 C 305.001 445.826,305.474 446.187,305.564 446.123 C 305.798 445.955,304.342 444.400,303.952 444.400 C 303.774 444.400,304.027 444.814,304.514 445.320 M94.243 471.033 C 94.109 471.381,94.000 476.589,94.000 482.606 C 94.000 494.862,93.678 493.673,97.142 494.213 C 99.884 494.640,101.192 496.669,101.198 500.500 L 101.200 502.000 102.035 501.165 C 104.532 498.668,116.184 497.653,120.000 499.600 C 121.912 500.576,122.000 500.580,122.000 499.693 C 122.000 498.926,123.561 496.403,125.026 494.800 C 125.892 493.852,125.948 493.433,126.080 486.800 C 126.222 479.690,127.072 476.017,128.580 475.993 C 128.811 475.990,127.559 475.402,125.797 474.687 C 124.035 473.973,121.638 472.799,120.469 472.080 L 118.343 470.773 106.771 470.886 C 100.407 470.949,95.200 470.865,95.200 470.700 C 95.200 470.146,94.488 470.393,94.243 471.033 M173.841 496.671 C 173.692 497.141,172.766 498.267,171.785 499.171 C 169.638 501.150,169.656 500.866,171.598 502.151 C 174.228 503.892,177.406 504.446,186.123 504.685 C 196.029 504.958,195.200 504.238,195.200 512.567 C 195.200 520.986,196.087 520.268,185.400 520.506 C 176.293 520.709,173.815 521.159,171.281 523.073 L 169.963 524.069 171.723 525.734 C 172.691 526.651,173.700 527.760,173.965 528.200 C 174.344 528.830,174.496 528.879,174.680 528.429 C 176.315 524.437,180.145 522.800,187.853 522.800 L 194.114 522.800 196.057 520.857 L 198.000 518.914 198.000 512.444 C 198.000 502.160,197.839 502.000,187.539 502.000 C 179.321 502.000,177.742 501.357,174.756 496.798 C 174.117 495.822,174.111 495.821,173.841 496.671 M100.482 523.329 C 98.777 532.791,98.740 543.280,100.400 546.600 C 102.653 551.106,112.061 552.151,126.671 549.518 L 129.142 549.072 127.506 547.816 L 125.870 546.560 122.287 547.906 L 118.705 549.252 111.988 549.126 L 105.272 549.000 103.778 547.790 C 100.238 544.922,99.409 534.725,102.134 527.566 L 103.441 524.131 102.184 522.494 L 100.928 520.858 100.482 523.329 " stroke="none" fill="#645844" fill-rule="evenodd"></path></g></svg>