<svg id="svg" version="1.1" xmlns="http://www.w3.org/2000/svg" xmlns:xlink="http://www.w3.org/1999/xlink" width="400" height="600" viewBox="0, 0, 400,600"><g id="svgg"><path id="path0" d="M174.900 93.900 C 188.705 93.958,211.295 93.958,225.100 93.900 C 238.905 93.842,227.610 93.794,200.000 93.794 C 172.390 93.794,161.095 93.842,174.900 93.900 M144.267 94.267 C 144.120 94.413,144.011 94.998,144.025 95.567 C 144.050 96.590,144.054 96.592,144.416 95.691 C 144.617 95.190,145.190 94.617,145.691 94.416 C 146.592 94.054,146.590 94.050,145.567 94.025 C 144.998 94.011,144.413 94.120,144.267 94.267 M254.309 94.397 C 254.810 94.608,255.392 95.190,255.603 95.691 C 255.957 96.528,255.980 96.505,255.894 95.400 C 255.814 94.379,255.621 94.186,254.600 94.106 C 253.495 94.020,253.472 94.043,254.309 94.397 M143.773 109.400 C 143.773 114.680,143.830 116.785,143.899 114.077 C 143.968 111.369,143.968 107.049,143.899 104.477 C 143.829 101.905,143.772 104.120,143.773 109.400 M256.173 109.400 C 256.173 114.680,256.230 116.785,256.299 114.077 C 256.368 111.369,256.368 107.049,256.299 104.477 C 256.229 101.905,256.172 104.120,256.173 109.400 M94.480 119.280 C 94.216 119.544,94.011 120.129,94.025 120.580 C 94.050 121.361,94.068 121.358,94.408 120.512 C 94.747 119.670,95.270 119.433,97.600 119.066 C 98.150 118.980,97.781 118.884,96.780 118.854 C 95.779 118.825,94.744 119.016,94.480 119.280 M302.400 119.066 C 304.730 119.433,305.253 119.670,305.592 120.512 C 305.932 121.358,305.950 121.361,305.975 120.580 C 306.014 119.305,305.200 118.795,303.220 118.854 C 302.219 118.884,301.850 118.980,302.400 119.066 M93.692 134.293 L 93.600 143.585 84.300 143.700 L 75.000 143.815 84.313 143.908 C 91.550 143.979,93.669 143.887,93.820 143.491 C 93.928 143.211,93.964 138.936,93.900 133.991 L 93.784 125.000 93.692 134.293 M306.189 134.600 L 306.200 143.800 315.500 143.811 L 324.800 143.823 315.608 143.704 L 306.415 143.585 306.296 134.493 L 306.178 125.400 306.189 134.600 M69.280 144.480 C 69.016 144.744,68.825 145.779,68.854 146.780 C 68.884 147.781,68.980 148.150,69.066 147.600 C 69.433 145.270,69.670 144.747,70.512 144.408 C 71.358 144.068,71.361 144.050,70.580 144.025 C 70.129 144.011,69.544 144.216,69.280 144.480 M329.488 144.408 C 330.330 144.747,330.567 145.270,330.934 147.600 C 331.020 148.150,331.116 147.781,331.146 146.780 C 331.205 144.800,330.695 143.986,329.420 144.025 C 328.639 144.050,328.642 144.068,329.488 144.408 M44.480 169.280 C 44.216 169.544,44.011 170.129,44.025 170.580 C 44.050 171.361,44.068 171.358,44.408 170.512 C 44.747 169.670,45.270 169.433,47.600 169.066 C 48.150 168.980,47.781 168.884,46.780 168.854 C 45.779 168.825,44.744 169.016,44.480 169.280 M352.400 169.066 C 354.730 169.433,355.253 169.670,355.592 170.512 C 355.932 171.358,355.950 171.361,355.975 170.580 C 356.014 169.305,355.200 168.795,353.220 168.854 C 352.219 168.884,351.850 168.980,352.400 169.066 M43.697 221.900 L 43.600 268.800 31.829 268.800 C 21.661 268.800,19.972 268.886,19.429 269.429 C 18.471 270.386,18.471 329.614,19.429 330.571 C 19.972 331.114,21.661 331.200,31.829 331.200 L 43.600 331.200 43.686 340.700 L 43.773 350.200 44.015 340.200 C 44.212 332.082,44.397 329.748,45.000 327.800 C 46.482 323.011,46.251 274.044,44.730 270.600 C 44.304 269.635,44.160 260.164,43.997 222.200 L 43.793 175.000 43.697 221.900 M356.098 221.851 C 356.011 263.395,355.929 268.873,355.371 270.207 C 353.760 274.063,353.446 322.777,355.000 327.800 C 355.603 329.748,355.788 332.082,355.985 340.200 L 356.227 350.200 356.314 340.700 L 356.400 331.200 368.171 331.200 C 378.339 331.200,380.028 331.114,380.571 330.571 C 381.529 329.614,381.529 270.386,380.571 269.429 C 380.028 268.886,378.340 268.800,368.173 268.800 L 356.403 268.800 356.300 221.900 L 356.197 175.000 356.098 221.851 M76.800 352.559 C 74.930 353.275,72.461 354.343,71.313 354.931 C 69.239 355.994,69.171 356.001,59.513 356.092 L 49.800 356.185 59.290 356.300 L 68.780 356.414 68.890 362.690 L 69.000 368.966 70.800 369.487 C 76.039 371.004,94.117 371.213,97.000 369.790 L 98.600 369.000 98.710 362.318 L 98.819 355.637 96.601 353.418 L 94.383 351.200 87.291 351.228 C 80.282 351.256,80.160 351.272,76.800 352.559 M303.399 353.418 L 301.181 355.637 301.290 362.318 L 301.400 369.000 303.000 369.790 C 305.883 371.213,323.961 371.004,329.200 369.487 L 331.000 368.966 331.110 362.690 L 331.220 356.414 340.710 356.300 L 350.200 356.185 340.489 356.092 L 330.777 356.000 328.400 354.800 C 322.223 351.682,320.099 351.200,312.532 351.200 L 305.617 351.200 303.399 353.418 M44.480 369.280 C 44.216 369.544,44.000 369.938,44.000 370.156 C 44.000 370.375,44.225 370.264,44.500 369.910 C 44.775 369.557,45.360 369.183,45.800 369.080 C 46.583 368.897,46.582 368.892,45.780 368.846 C 45.329 368.821,44.744 369.016,44.480 369.280 M354.200 369.080 C 354.640 369.183,355.225 369.557,355.500 369.910 C 355.775 370.264,356.000 370.375,356.000 370.156 C 356.000 369.477,355.077 368.798,354.220 368.846 C 353.418 368.892,353.417 368.897,354.200 369.080 M43.692 384.293 L 43.600 393.585 34.300 393.700 L 25.000 393.815 34.313 393.908 C 41.550 393.979,43.669 393.887,43.820 393.491 C 43.928 393.211,43.964 388.936,43.900 383.991 L 43.784 375.000 43.692 384.293 M356.189 384.600 L 356.200 393.800 365.500 393.811 L 374.800 393.823 365.608 393.704 L 356.415 393.585 356.296 384.493 L 356.178 375.400 356.189 384.600 M105.346 377.500 C 104.718 378.763,104.579 380.160,104.468 386.340 C 104.291 396.165,103.787 395.600,112.718 395.600 C 119.471 395.600,126.190 396.338,129.244 397.415 C 130.455 397.843,132.782 398.000,137.890 398.000 C 148.688 398.000,148.800 397.893,148.800 387.606 L 148.800 380.736 146.432 378.368 L 144.064 376.000 125.078 376.000 L 106.091 376.000 105.346 377.500 M253.568 378.368 L 251.200 380.736 251.200 387.606 C 251.200 397.893,251.312 398.000,262.110 398.000 C 267.218 398.000,269.545 397.843,270.756 397.415 C 273.810 396.338,280.529 395.600,287.282 395.600 C 296.213 395.600,295.709 396.165,295.532 386.340 C 295.421 380.160,295.282 378.763,294.654 377.500 L 293.909 376.000 274.922 376.000 L 255.936 376.000 253.568 378.368 M19.216 394.581 C 18.951 394.900,18.818 395.485,18.921 395.881 C 19.070 396.457,19.116 396.426,19.154 395.720 C 19.179 395.236,19.515 394.656,19.900 394.432 C 20.285 394.208,20.397 394.019,20.149 394.012 C 19.901 394.005,19.481 394.261,19.216 394.581 M380.100 394.432 C 380.485 394.656,380.821 395.236,380.846 395.720 C 380.884 396.426,380.930 396.457,381.079 395.881 C 381.284 395.091,380.563 393.993,379.851 394.012 C 379.603 394.019,379.715 394.208,380.100 394.432 M154.302 401.902 C 151.842 403.427,150.715 417.072,152.807 420.010 C 154.959 423.032,151.029 422.800,200.000 422.800 C 243.503 422.800,243.712 422.796,245.046 421.972 C 247.826 420.254,248.000 419.665,248.000 411.999 C 248.000 404.389,247.699 403.104,245.632 401.882 C 243.853 400.832,155.998 400.851,154.302 401.902 M105.170 450.239 C 102.572 453.022,98.360 453.984,88.726 453.993 C 81.977 454.000,81.542 454.048,79.226 455.052 L 76.800 456.105 76.809 463.352 C 76.819 471.559,77.186 473.033,79.694 474.946 C 81.744 476.510,92.271 476.561,95.652 475.023 C 99.487 473.278,105.137 472.400,112.532 472.400 L 119.139 472.400 120.464 471.300 C 121.193 470.695,122.107 469.935,122.495 469.611 C 123.116 469.093,123.200 468.241,123.200 462.498 C 123.200 455.276,122.816 453.869,119.959 450.615 L 118.717 449.200 112.428 449.200 C 106.173 449.200,106.134 449.206,105.170 450.239 M280.041 450.615 C 277.184 453.869,276.800 455.276,276.800 462.498 C 276.800 468.241,276.884 469.093,277.505 469.611 C 277.893 469.935,278.807 470.695,279.536 471.300 L 280.861 472.400 287.468 472.400 C 294.863 472.400,300.513 473.278,304.348 475.023 C 307.729 476.561,318.256 476.510,320.306 474.946 C 322.814 473.033,323.181 471.559,323.191 463.352 L 323.200 456.105 320.774 455.052 C 318.458 454.048,318.023 454.000,311.274 453.993 C 301.640 453.984,297.428 453.022,294.830 450.239 C 293.866 449.206,293.827 449.200,287.572 449.200 L 281.283 449.200 280.041 450.615 M18.846 454.220 C 18.798 455.077,19.477 456.000,20.156 456.000 C 20.375 456.000,20.264 455.775,19.910 455.500 C 19.557 455.225,19.183 454.640,19.080 454.200 C 18.897 453.417,18.892 453.418,18.846 454.220 M380.846 454.280 C 380.821 454.764,380.485 455.344,380.100 455.568 C 379.715 455.792,379.603 455.981,379.851 455.988 C 380.563 456.007,381.284 454.909,381.079 454.119 C 380.930 453.543,380.884 453.574,380.846 454.280 M34.493 456.296 L 43.585 456.415 43.704 465.608 L 43.823 474.800 43.811 465.500 L 43.800 456.200 34.600 456.189 L 25.400 456.178 34.493 456.296 M356.180 456.509 C 356.072 456.789,356.036 461.064,356.100 466.009 L 356.216 475.000 356.308 465.707 L 356.400 456.415 365.700 456.300 L 375.000 456.185 365.687 456.092 C 358.450 456.021,356.331 456.113,356.180 456.509 M44.012 479.851 C 43.993 480.563,45.091 481.284,45.881 481.079 C 46.457 480.930,46.426 480.884,45.720 480.846 C 45.236 480.821,44.656 480.485,44.432 480.100 C 44.208 479.715,44.019 479.603,44.012 479.851 M355.474 480.152 C 355.350 480.474,354.833 480.817,354.324 480.915 C 353.466 481.078,353.461 481.095,354.251 481.146 C 355.086 481.199,356.314 480.181,355.906 479.773 C 355.792 479.659,355.598 479.829,355.474 480.152 M69.051 499.304 C 68.448 501.554,68.784 555.089,69.404 555.603 C 69.844 555.969,73.186 556.160,81.747 556.309 L 93.486 556.514 93.691 568.253 C 93.840 576.814,94.031 580.156,94.397 580.596 C 95.156 581.511,154.844 581.511,155.603 580.596 C 155.969 580.156,156.160 576.814,156.309 568.253 L 156.514 556.514 168.253 556.309 C 176.875 556.159,180.154 555.970,180.602 555.599 C 181.128 555.162,181.197 553.422,181.106 542.886 L 181.000 530.679 179.063 529.344 C 175.445 526.851,172.785 526.278,163.964 526.094 L 156.128 525.930 154.096 528.671 L 152.064 531.412 151.932 539.206 C 151.703 552.760,153.757 551.800,125.000 551.800 C 96.163 551.800,98.373 552.879,97.952 538.600 C 97.812 533.868,97.413 528.453,97.037 526.200 C 96.667 523.983,96.228 518.100,96.050 513.000 C 95.768 504.899,95.623 503.525,94.836 501.500 L 93.943 499.200 83.671 499.173 C 71.988 499.142,70.380 499.087,69.745 498.692 C 69.473 498.522,69.195 498.768,69.051 499.304 M330.268 498.665 C 329.851 499.082,328.221 499.142,316.329 499.173 L 306.057 499.200 305.164 501.500 C 304.377 503.525,304.232 504.899,303.950 513.000 C 303.772 518.100,303.333 523.983,302.963 526.200 C 302.587 528.453,302.188 533.868,302.048 538.600 C 301.627 552.879,303.837 551.800,275.000 551.800 C 246.243 551.800,248.297 552.760,248.068 539.206 L 247.936 531.412 245.904 528.671 L 243.872 525.930 236.036 526.094 C 227.215 526.278,224.555 526.851,220.937 529.344 L 219.000 530.679 218.894 542.886 C 218.803 553.422,218.872 555.162,219.398 555.599 C 219.846 555.970,223.125 556.159,231.747 556.309 L 243.486 556.514 243.691 568.253 C 243.840 576.814,244.031 580.156,244.397 580.596 C 245.156 581.511,304.844 581.511,305.603 580.596 C 305.969 580.156,306.160 576.814,306.309 568.253 L 306.514 556.514 318.253 556.309 C 326.814 556.160,330.156 555.969,330.596 555.603 C 331.125 555.165,331.196 551.646,331.172 527.451 C 331.145 501.485,331.033 497.900,330.268 498.665 " stroke="none" fill="#040404" fill-rule="evenodd"></path><path id="path1" d="M153.800 123.940 C 149.382 125.391,148.695 127.057,148.414 137.000 C 148.073 149.085,150.054 148.144,124.400 148.406 C 97.416 148.682,98.853 147.919,98.420 162.200 C 98.156 170.929,97.688 172.658,94.589 176.340 L 93.529 177.600 86.978 177.600 L 80.427 177.600 79.013 179.013 L 77.600 180.427 77.600 224.586 L 77.600 268.746 76.426 269.581 C 73.857 271.411,72.225 271.699,63.000 271.956 C 50.081 272.314,50.291 272.083,50.077 286.224 C 49.990 291.962,50.113 296.572,50.401 298.424 C 50.657 300.061,51.011 305.990,51.188 311.600 C 51.550 323.004,51.975 325.234,54.133 327.051 L 55.331 328.058 63.165 327.929 C 76.575 327.708,78.769 325.489,78.790 312.126 C 78.800 306.269,78.845 305.936,80.063 302.826 L 81.325 299.600 87.363 299.601 C 94.759 299.603,96.383 300.310,99.256 304.778 C 100.394 306.548,100.400 306.589,100.400 313.035 L 100.400 319.513 102.252 321.573 C 105.059 324.695,105.399 324.800,112.749 324.800 L 119.138 324.800 120.857 326.112 C 121.803 326.833,123.167 328.197,123.888 329.143 L 125.200 330.862 125.200 337.251 C 125.200 344.601,125.305 344.941,128.427 347.748 L 130.487 349.600 200.000 349.600 L 269.513 349.600 271.573 347.748 C 274.695 344.941,274.800 344.601,274.800 337.251 L 274.800 330.862 276.112 329.143 C 276.833 328.197,278.197 326.833,279.143 326.112 L 280.862 324.800 287.251 324.800 C 294.601 324.800,294.941 324.695,297.748 321.573 L 299.600 319.513 299.600 313.035 C 299.600 306.589,299.606 306.548,300.744 304.778 C 303.617 300.310,305.241 299.603,312.637 299.601 L 318.675 299.600 319.937 302.826 C 321.155 305.936,321.200 306.269,321.210 312.126 C 321.231 325.489,323.425 327.708,336.835 327.929 L 344.669 328.058 345.867 327.051 C 348.025 325.234,348.450 323.004,348.812 311.600 C 348.989 305.990,349.343 300.061,349.599 298.424 C 349.887 296.572,350.010 291.962,349.923 286.224 C 349.709 272.083,349.919 272.314,337.000 271.956 C 327.775 271.699,326.143 271.411,323.574 269.581 L 322.400 268.746 322.400 224.586 L 322.400 180.427 320.987 179.013 L 319.573 177.600 313.022 177.600 L 306.471 177.600 305.411 176.340 C 302.312 172.658,301.844 170.929,301.580 162.200 C 301.147 147.919,302.584 148.682,275.600 148.406 C 249.950 148.144,251.934 149.086,251.573 137.000 C 251.307 128.076,250.901 126.599,248.245 124.870 L 246.600 123.800 200.600 123.739 C 175.300 123.705,154.240 123.795,153.800 123.940 M245.401 130.074 L 246.473 131.348 246.329 138.774 C 246.180 146.464,245.951 147.592,244.181 149.362 C 243.204 150.339,156.796 150.339,155.819 149.362 C 154.049 147.592,153.820 146.464,153.671 138.774 L 153.527 131.348 154.599 130.074 L 155.671 128.800 200.000 128.800 L 244.329 128.800 245.401 130.074 M147.462 154.491 C 149.993 155.876,150.000 155.898,150.000 162.540 C 150.000 169.212,150.007 169.188,147.240 172.133 C 144.865 174.661,144.352 174.800,137.406 174.800 C 130.716 174.800,130.418 174.874,127.855 177.173 C 124.970 179.760,124.800 180.404,124.800 188.742 C 124.800 200.531,125.588 199.668,114.601 199.913 L 106.600 200.091 104.600 198.746 C 103.500 198.006,102.015 196.525,101.300 195.455 L 100.000 193.510 100.000 187.567 C 100.000 182.310,100.097 181.439,100.839 180.014 C 102.703 176.439,103.271 173.077,103.479 164.400 L 103.676 156.200 104.933 154.883 L 106.190 153.566 126.195 153.683 C 144.253 153.789,146.323 153.867,147.462 154.491 M295.084 154.900 L 296.324 156.200 296.521 164.400 C 296.729 173.077,297.297 176.439,299.161 180.014 C 299.903 181.439,300.000 182.310,300.000 187.567 L 300.000 193.510 298.700 195.455 C 297.985 196.525,296.500 198.006,295.400 198.746 L 293.400 200.091 285.399 199.913 C 274.412 199.668,275.200 200.531,275.200 188.742 C 275.200 180.404,275.030 179.760,272.145 177.173 C 269.582 174.874,269.284 174.800,262.594 174.800 C 255.648 174.800,255.135 174.661,252.760 172.133 C 249.993 169.188,250.000 169.212,250.000 162.540 C 250.000 153.137,248.452 153.697,274.622 153.641 L 293.843 153.600 295.084 154.900 M145.455 201.300 C 146.525 202.015,148.006 203.500,148.746 204.600 L 150.091 206.600 149.913 214.601 C 149.667 225.598,150.552 224.800,138.610 224.800 L 130.920 224.800 129.261 223.599 C 128.349 222.938,127.050 221.634,126.374 220.701 L 125.146 219.005 125.273 210.322 C 125.434 199.320,124.463 200.166,137.055 200.056 L 143.510 200.000 145.455 201.300 M273.448 200.719 C 274.635 201.354,274.800 202.657,274.800 211.390 L 274.800 219.080 273.599 220.739 C 272.938 221.651,271.651 222.938,270.739 223.599 L 269.080 224.800 261.390 224.800 C 249.448 224.800,250.333 225.598,250.087 214.601 L 249.909 206.600 251.254 204.600 C 251.994 203.500,253.500 201.994,254.600 201.254 L 256.600 199.909 264.601 200.087 C 269.445 200.195,272.936 200.444,273.448 200.719 M247.564 225.453 C 249.525 225.845,249.718 226.660,249.913 235.399 L 250.091 243.400 248.746 245.400 C 248.006 246.500,246.525 247.985,245.455 248.700 L 243.510 250.000 200.000 250.000 L 156.490 250.000 154.545 248.700 C 153.475 247.985,151.994 246.500,151.254 245.400 L 149.909 243.400 150.087 235.399 C 150.275 226.978,150.517 225.787,152.099 225.482 C 153.549 225.203,246.173 225.175,247.564 225.453 M74.036 276.449 C 77.876 278.249,78.177 278.988,78.327 286.969 C 78.468 294.483,78.822 292.773,74.964 303.208 C 74.093 305.566,74.000 306.438,74.000 312.273 L 74.000 318.728 72.419 320.728 C 69.809 324.030,69.902 324.000,62.347 324.000 L 55.671 324.000 54.736 322.100 C 53.877 320.357,53.779 319.507,53.543 311.800 C 53.401 307.180,53.000 301.420,52.651 299.000 C 51.063 287.997,51.922 278.432,54.710 276.081 C 56.453 274.611,70.696 274.882,74.036 276.449 M345.071 275.883 C 348.008 277.808,348.982 287.689,347.349 299.000 C 347.000 301.420,346.599 307.180,346.457 311.800 C 346.221 319.507,346.123 320.357,345.264 322.100 L 344.329 324.000 337.653 324.000 C 330.098 324.000,330.191 324.030,327.581 320.728 L 326.000 318.728 326.000 312.273 C 326.000 306.438,325.907 305.566,325.036 303.208 C 321.178 292.773,321.532 294.483,321.673 286.969 C 321.834 278.414,322.685 276.957,328.294 275.635 C 331.281 274.932,343.903 275.118,345.071 275.883 M77.000 374.428 C 71.053 375.134,70.742 375.711,70.430 386.620 C 70.241 393.204,70.079 394.824,69.525 395.668 L 68.849 396.697 60.925 396.891 C 45.970 397.258,47.000 395.179,47.000 425.000 C 47.000 451.176,46.941 450.758,50.820 452.135 C 54.719 453.519,66.983 453.604,70.675 452.272 C 74.770 450.795,80.890 450.000,88.165 450.000 C 95.368 450.000,96.770 449.556,100.453 446.112 L 102.400 444.291 102.400 437.776 L 102.400 431.262 104.300 429.611 L 106.200 427.959 113.400 428.152 C 120.017 428.330,123.324 428.633,126.666 429.370 L 127.931 429.648 128.200 427.124 C 128.348 425.736,128.608 420.280,128.779 415.000 C 128.949 409.720,129.216 405.027,129.372 404.572 C 129.711 403.581,127.972 402.290,123.945 400.545 C 121.536 399.501,120.982 399.430,113.600 399.221 C 102.026 398.893,100.800 397.764,100.800 387.425 C 100.800 378.422,99.812 376.132,95.279 374.626 C 93.184 373.930,82.190 373.811,77.000 374.428 M304.470 374.646 C 300.160 376.242,299.200 378.569,299.200 387.425 C 299.200 397.764,297.974 398.893,286.400 399.221 C 279.018 399.430,278.464 399.501,276.055 400.545 C 272.028 402.290,270.289 403.581,270.628 404.572 C 270.784 405.027,271.051 409.720,271.221 415.000 C 271.392 420.280,271.652 425.736,271.800 427.124 L 272.069 429.648 273.334 429.370 C 276.676 428.633,279.983 428.330,286.600 428.152 L 293.800 427.959 295.700 429.611 L 297.600 431.262 297.600 437.776 L 297.600 444.291 299.547 446.112 C 303.230 449.556,304.632 450.000,311.835 450.000 C 319.110 450.000,325.230 450.795,329.325 452.272 C 333.017 453.604,345.281 453.519,349.180 452.135 C 353.059 450.758,353.000 451.176,353.000 425.000 C 353.000 395.179,354.030 397.258,339.075 396.891 L 331.151 396.697 330.475 395.668 C 329.921 394.824,329.759 393.204,329.570 386.620 C 329.214 374.184,329.494 374.427,315.200 374.169 C 307.650 374.032,305.921 374.109,304.470 374.646 M95.571 377.378 C 98.536 379.566,98.800 380.408,98.801 387.679 C 98.803 394.776,98.962 395.382,101.541 398.128 C 104.035 400.784,104.742 400.981,112.600 401.206 C 120.536 401.433,122.681 402.052,126.500 405.215 L 128.000 406.458 128.000 412.445 C 128.000 423.231,125.686 425.233,112.800 425.593 L 105.400 425.800 103.515 427.157 C 99.876 429.777,99.600 430.519,99.600 437.680 L 99.600 443.917 98.189 445.156 C 95.186 447.793,94.806 447.870,83.400 448.146 C 77.680 448.285,72.100 448.568,71.000 448.775 C 62.377 450.401,53.679 449.042,51.761 445.769 L 50.800 444.130 50.800 425.000 L 50.800 405.870 51.761 404.231 C 53.504 401.257,54.909 400.800,62.321 400.800 L 68.733 400.800 69.914 399.300 C 72.843 395.581,73.200 394.265,73.200 387.193 C 73.200 379.008,73.510 378.380,78.400 376.673 C 80.696 375.871,94.284 376.429,95.571 377.378 M323.711 377.541 C 326.575 378.951,326.800 379.654,326.800 387.193 C 326.800 394.265,327.157 395.581,330.086 399.300 L 331.267 400.800 337.698 400.800 C 349.595 400.800,349.200 399.968,349.200 425.019 L 349.200 444.130 348.239 445.769 C 346.321 449.042,337.623 450.401,329.000 448.775 C 327.900 448.568,322.320 448.285,316.600 448.146 C 305.194 447.870,304.814 447.793,301.811 445.156 L 300.400 443.917 300.400 437.680 C 300.400 430.519,300.124 429.777,296.485 427.157 L 294.600 425.800 287.200 425.593 C 274.314 425.233,272.000 423.231,272.000 412.445 L 272.000 406.458 273.500 405.215 C 277.319 402.052,279.464 401.433,287.400 401.206 C 295.258 400.981,295.965 400.784,298.459 398.128 C 301.038 395.382,301.197 394.776,301.199 387.679 C 301.200 380.399,301.460 379.573,304.452 377.359 C 306.442 375.885,320.621 376.020,323.711 377.541 M129.459 472.400 C 127.195 477.644,122.534 479.600,112.300 479.600 C 106.788 479.600,105.768 479.702,104.422 480.389 L 102.877 481.177 102.662 488.489 C 102.544 492.510,102.260 496.880,102.031 498.200 C 101.210 502.923,101.004 521.522,101.744 524.067 L 102.401 526.325 103.900 525.887 C 104.725 525.647,105.437 525.432,105.483 525.409 C 105.528 525.387,105.123 523.935,104.583 522.184 C 103.707 519.347,103.600 518.281,103.602 512.400 C 103.605 505.676,103.810 504.211,105.268 500.500 L 106.093 498.400 125.212 498.400 L 144.332 498.400 145.880 500.158 C 148.250 502.851,148.800 505.152,148.800 512.369 L 148.800 518.467 146.800 521.717 C 145.700 523.504,144.800 525.085,144.800 525.229 C 144.800 525.515,148.397 526.974,148.531 526.742 C 148.576 526.664,149.162 525.790,149.834 524.800 C 150.505 523.810,151.628 521.968,152.328 520.706 L 153.600 518.412 153.600 511.996 C 153.600 506.633,153.730 505.211,154.390 503.333 C 155.721 499.544,155.595 499.601,162.762 499.596 C 167.191 499.593,169.580 499.415,171.000 498.983 C 176.160 497.413,179.580 497.203,200.000 497.203 C 220.420 497.203,223.840 497.413,229.000 498.983 C 230.420 499.415,232.809 499.593,237.238 499.596 C 244.405 499.601,244.279 499.544,245.610 503.333 C 246.270 505.211,246.400 506.633,246.400 511.996 L 246.400 518.412 247.672 520.706 C 248.372 521.968,249.495 523.810,250.166 524.800 C 250.838 525.790,251.424 526.664,251.469 526.742 C 251.603 526.974,255.200 525.515,255.200 525.229 C 255.200 525.085,254.300 523.504,253.200 521.717 L 251.200 518.467 251.200 512.369 C 251.200 505.152,251.750 502.851,254.120 500.158 L 255.668 498.400 274.788 498.400 L 293.907 498.400 294.732 500.500 C 296.190 504.211,296.395 505.676,296.398 512.400 C 296.400 518.281,296.293 519.347,295.417 522.184 C 294.877 523.935,294.472 525.387,294.517 525.409 C 294.563 525.432,295.275 525.647,296.100 525.887 L 297.599 526.325 298.256 524.067 C 298.996 521.522,298.790 502.923,297.969 498.200 C 297.740 496.880,297.456 492.510,297.338 488.489 L 297.123 481.177 295.578 480.389 C 294.232 479.702,293.212 479.600,287.700 479.600 C 277.481 479.600,272.789 477.642,270.589 472.460 L 270.179 471.493 263.240 471.571 C 256.424 471.647,256.265 471.669,254.251 472.789 C 253.123 473.417,250.706 474.396,248.879 474.965 L 245.559 476.000 200.000 476.000 L 154.441 476.000 151.121 474.965 C 149.294 474.396,146.879 473.418,145.754 472.792 C 143.759 471.683,143.534 471.651,136.799 471.527 L 129.890 471.400 129.459 472.400 " stroke="none" fill="#846c5c" fill-rule="evenodd"></path><path id="path2" d="M154.599 130.074 L 153.527 131.348 153.671 138.774 C 153.820 146.464,154.049 147.592,155.819 149.362 C 156.796 150.339,243.204 150.339,244.181 149.362 C 245.951 147.592,246.180 146.464,246.329 138.774 L 246.473 131.348 245.401 130.074 L 244.329 128.800 200.000 128.800 L 155.671 128.800 154.599 130.074 M104.933 154.883 L 103.676 156.200 103.479 164.400 C 103.271 173.077,102.703 176.439,100.839 180.014 C 100.097 181.439,100.000 182.310,100.000 187.567 L 100.000 193.510 101.300 195.455 C 102.015 196.525,103.500 198.006,104.600 198.746 L 106.600 200.091 114.601 199.913 C 125.588 199.668,124.800 200.531,124.800 188.742 C 124.800 180.404,124.970 179.760,127.855 177.173 C 130.418 174.874,130.716 174.800,137.406 174.800 C 144.352 174.800,144.865 174.661,147.240 172.133 C 150.007 169.188,150.000 169.212,150.000 162.540 C 150.000 153.167,151.790 153.833,126.195 153.683 L 106.190 153.566 104.933 154.883 M254.200 153.971 C 250.277 154.918,250.000 155.484,250.000 162.540 C 250.000 169.212,249.993 169.188,252.760 172.133 C 255.135 174.661,255.648 174.800,262.594 174.800 C 269.284 174.800,269.582 174.874,272.145 177.173 C 275.030 179.760,275.200 180.404,275.200 188.742 C 275.200 200.531,274.412 199.668,285.399 199.913 L 293.400 200.091 295.400 198.746 C 296.500 198.006,297.985 196.525,298.700 195.455 L 300.000 193.510 300.000 187.567 C 300.000 182.310,299.903 181.439,299.161 180.014 C 297.297 176.439,296.729 173.077,296.521 164.400 L 296.324 156.200 295.084 154.900 L 293.843 153.600 274.622 153.641 C 264.050 153.663,254.860 153.812,254.200 153.971 M128.510 200.366 C 125.338 200.752,125.417 200.509,125.273 210.322 L 125.146 219.005 126.374 220.701 C 127.050 221.634,128.349 222.938,129.261 223.599 L 130.920 224.800 138.610 224.800 C 150.552 224.800,149.667 225.598,149.913 214.601 L 150.091 206.600 148.746 204.600 C 148.006 203.500,146.525 202.015,145.455 201.300 L 143.510 200.000 137.055 200.056 C 133.505 200.087,129.659 200.227,128.510 200.366 M254.600 201.254 C 253.500 201.994,251.994 203.500,251.254 204.600 L 249.909 206.600 250.087 214.601 C 250.333 225.598,249.448 224.800,261.390 224.800 L 269.080 224.800 270.739 223.599 C 271.651 222.938,272.938 221.651,273.599 220.739 L 274.800 219.080 274.800 211.390 C 274.800 199.448,275.598 200.333,264.601 200.087 L 256.600 199.909 254.600 201.254 M152.099 225.482 C 150.517 225.787,150.275 226.978,150.087 235.399 L 149.909 243.400 151.254 245.400 C 151.994 246.500,153.475 247.985,154.545 248.700 L 156.490 250.000 200.000 250.000 L 243.510 250.000 245.455 248.700 C 246.525 247.985,248.006 246.500,248.746 245.400 L 250.091 243.400 249.913 235.399 C 249.718 226.660,249.525 225.845,247.564 225.453 C 246.173 225.175,153.549 225.203,152.099 225.482 M54.710 276.081 C 51.922 278.432,51.063 287.997,52.651 299.000 C 53.000 301.420,53.401 307.180,53.543 311.800 C 53.779 319.507,53.877 320.357,54.736 322.100 L 55.671 324.000 62.347 324.000 C 69.902 324.000,69.809 324.030,72.419 320.728 L 74.000 318.728 74.000 312.273 C 74.000 306.438,74.093 305.566,74.964 303.208 C 78.822 292.773,78.468 294.483,78.327 286.969 C 78.177 278.988,77.876 278.249,74.036 276.449 C 70.696 274.882,56.453 274.611,54.710 276.081 M328.294 275.635 C 322.685 276.957,321.834 278.414,321.673 286.969 C 321.532 294.483,321.178 292.773,325.036 303.208 C 325.907 305.566,326.000 306.438,326.000 312.273 L 326.000 318.728 327.581 320.728 C 330.191 324.030,330.098 324.000,337.653 324.000 L 344.329 324.000 345.264 322.100 C 346.123 320.357,346.221 319.507,346.457 311.800 C 346.599 307.180,347.000 301.420,347.349 299.000 C 348.982 287.689,348.008 277.808,345.071 275.883 C 343.903 275.118,331.281 274.932,328.294 275.635 M70.800 278.843 C 74.045 280.792,74.000 280.674,74.000 287.249 C 74.000 292.794,73.902 293.557,72.400 299.649 C 70.874 305.839,70.799 306.439,70.787 312.570 C 70.775 318.794,70.744 319.035,69.807 320.100 L 68.838 321.200 62.483 321.200 L 56.128 321.200 55.664 320.181 C 55.377 319.550,55.195 316.771,55.188 312.881 C 55.182 309.427,54.915 304.080,54.596 301.000 C 53.893 294.203,53.804 281.527,54.451 280.274 C 55.627 277.999,55.623 278.000,62.762 278.001 C 68.794 278.003,69.528 278.080,70.800 278.843 M345.085 279.559 C 346.218 281.242,346.373 291.639,345.404 301.000 C 345.085 304.080,344.818 309.427,344.812 312.881 C 344.805 316.771,344.623 319.550,344.336 320.181 L 343.872 321.200 337.517 321.200 L 331.162 321.200 330.193 320.100 C 329.256 319.035,329.225 318.794,329.213 312.570 C 329.201 306.439,329.126 305.839,327.600 299.649 C 325.564 291.391,325.223 282.054,326.900 280.512 C 329.505 278.116,330.076 277.985,337.385 278.096 L 344.169 278.200 345.085 279.559 M78.400 376.673 C 73.510 378.380,73.200 379.008,73.200 387.193 C 73.200 394.265,72.843 395.581,69.914 399.300 L 68.733 400.800 62.321 400.800 C 54.909 400.800,53.504 401.257,51.761 404.231 L 50.800 405.870 50.800 425.000 L 50.800 444.130 51.761 445.769 C 53.679 449.042,62.377 450.401,71.000 448.775 C 72.100 448.568,77.680 448.285,83.400 448.146 C 94.806 447.870,95.186 447.793,98.189 445.156 L 99.600 443.917 99.600 437.680 C 99.600 430.519,99.876 429.777,103.515 427.157 L 105.400 425.800 112.800 425.593 C 125.686 425.233,128.000 423.231,128.000 412.445 L 128.000 406.458 126.500 405.215 C 122.681 402.052,120.536 401.433,112.600 401.206 C 104.742 400.981,104.035 400.784,101.541 398.128 C 98.962 395.382,98.803 394.776,98.801 387.679 C 98.800 380.408,98.536 379.566,95.571 377.378 C 94.284 376.429,80.696 375.871,78.400 376.673 M304.452 377.359 C 301.460 379.573,301.200 380.399,301.199 387.679 C 301.197 394.776,301.038 395.382,298.459 398.128 C 295.965 400.784,295.258 400.981,287.400 401.206 C 279.464 401.433,277.319 402.052,273.500 405.215 L 272.000 406.458 272.000 412.445 C 272.000 423.231,274.314 425.233,287.200 425.593 L 294.600 425.800 296.485 427.157 C 300.124 429.777,300.400 430.519,300.400 437.680 L 300.400 443.917 301.811 445.156 C 304.814 447.793,305.194 447.870,316.600 448.146 C 322.320 448.285,327.900 448.568,329.000 448.775 C 337.623 450.401,346.321 449.042,348.239 445.769 L 349.200 444.130 349.200 425.019 C 349.200 399.968,349.595 400.800,337.698 400.800 L 331.267 400.800 330.086 399.300 C 327.157 395.581,326.800 394.265,326.800 387.193 C 326.800 377.046,326.341 376.668,313.800 376.480 C 305.811 376.361,305.798 376.362,304.452 377.359 M95.364 380.031 C 96.386 381.245,96.400 381.350,96.400 387.785 C 96.400 400.931,99.077 403.600,112.263 403.600 L 118.834 403.600 120.601 404.900 L 122.369 406.200 122.380 412.400 L 122.391 418.600 120.639 420.500 L 118.887 422.400 112.343 422.404 C 100.051 422.411,96.801 425.600,96.800 437.653 L 96.800 443.905 95.500 444.891 L 94.200 445.878 75.241 446.160 L 56.283 446.443 54.941 445.143 L 53.600 443.843 53.600 425.041 L 53.600 406.238 54.878 404.919 L 56.157 403.600 62.618 403.600 L 69.080 403.600 70.640 402.454 C 75.168 399.128,76.163 396.569,76.327 387.824 C 76.466 380.446,76.414 380.609,79.000 379.395 C 79.886 378.979,82.049 378.827,87.264 378.816 L 94.329 378.800 95.364 380.031 M322.106 379.991 L 323.551 380.982 323.675 387.791 C 323.836 396.572,324.825 399.124,329.360 402.454 L 330.920 403.600 337.341 403.600 L 343.762 403.600 345.081 404.878 L 346.400 406.157 346.400 425.000 L 346.400 443.843 345.059 445.143 L 343.717 446.443 324.759 446.160 L 305.800 445.878 304.500 444.891 L 303.200 443.905 303.200 437.653 C 303.199 425.600,299.949 422.411,287.657 422.404 L 281.113 422.400 279.361 420.500 L 277.609 418.600 277.620 412.400 L 277.631 406.200 279.399 404.900 L 281.166 403.600 287.737 403.600 C 300.923 403.600,303.600 400.931,303.600 387.785 C 303.600 381.319,303.609 381.250,304.655 380.007 L 305.711 378.753 313.186 378.876 C 320.386 378.995,320.715 379.037,322.106 379.991 M105.268 500.500 C 103.810 504.210,103.605 505.676,103.602 512.379 C 103.600 518.282,103.704 519.300,104.613 522.279 L 105.626 525.600 125.113 525.580 L 144.600 525.559 146.700 521.986 L 148.800 518.413 148.800 512.342 C 148.800 505.154,148.247 502.848,145.880 500.158 L 144.332 498.400 125.212 498.400 L 106.093 498.400 105.268 500.500 M254.120 500.158 C 251.753 502.848,251.200 505.154,251.200 512.342 L 251.200 518.413 253.300 521.986 L 255.400 525.559 274.887 525.580 L 294.374 525.600 295.387 522.279 C 296.296 519.300,296.400 518.282,296.398 512.379 C 296.395 505.676,296.190 504.210,294.732 500.500 L 293.907 498.400 274.788 498.400 L 255.668 498.400 254.120 500.158 M144.767 504.547 C 145.523 505.769,145.600 506.507,145.600 512.483 L 145.600 519.072 144.581 519.536 C 143.103 520.209,106.354 520.194,105.680 519.520 C 105.020 518.860,105.020 506.355,105.680 504.528 L 106.161 503.200 125.048 503.200 L 143.935 503.200 144.767 504.547 M294.320 504.528 C 294.980 506.355,294.980 518.860,294.320 519.520 C 293.646 520.194,256.897 520.209,255.419 519.536 L 254.400 519.072 254.400 512.483 C 254.400 506.507,254.477 505.769,255.233 504.547 L 256.065 503.200 274.952 503.200 L 293.839 503.200 294.320 504.528 " stroke="none" fill="#ac947c" fill-rule="evenodd"></path><path id="path3" d="M55.767 281.389 C 55.421 282.769,55.730 295.689,56.125 296.300 C 56.360 296.664,58.113 296.800,62.580 296.800 L 68.713 296.800 69.357 295.192 C 70.168 293.163,70.300 281.660,69.520 280.880 C 69.186 280.546,67.059 280.400,62.528 280.400 L 56.015 280.400 55.767 281.389 M330.480 280.880 C 329.700 281.660,329.832 293.163,330.643 295.192 L 331.287 296.800 337.420 296.800 C 341.887 296.800,343.640 296.664,343.875 296.300 C 344.270 295.689,344.579 282.769,344.233 281.389 L 343.985 280.400 337.472 280.400 C 332.941 280.400,330.814 280.546,330.480 280.880 M79.545 380.276 L 78.491 380.930 78.297 388.765 C 78.093 397.017,77.482 400.599,75.624 404.444 C 73.688 408.453,74.633 421.688,77.377 428.979 C 78.311 431.460,78.400 432.226,78.400 437.819 L 78.400 443.942 80.500 444.194 C 81.655 444.332,85.210 444.390,88.400 444.323 L 94.200 444.200 94.431 437.200 C 94.869 423.914,97.351 421.563,111.200 421.310 C 119.343 421.161,119.547 421.130,121.169 419.765 L 122.400 418.729 122.400 412.408 L 122.400 406.088 120.604 405.244 C 118.999 404.489,118.092 404.400,112.046 404.400 C 98.001 404.400,95.600 402.013,95.600 388.047 C 95.600 378.964,96.210 379.597,87.477 379.611 C 81.819 379.619,80.413 379.737,79.545 380.276 M305.023 380.489 C 304.520 381.207,304.400 382.658,304.400 388.047 C 304.400 402.013,301.999 404.400,287.954 404.400 C 281.908 404.400,281.001 404.489,279.396 405.244 L 277.600 406.088 277.600 412.408 L 277.600 418.729 278.831 419.765 C 280.453 421.130,280.657 421.161,288.800 421.310 C 302.649 421.563,305.131 423.914,305.569 437.200 L 305.800 444.200 311.600 444.323 C 314.790 444.390,318.345 444.332,319.500 444.194 L 321.600 443.942 321.600 437.819 C 321.600 432.226,321.689 431.460,322.623 428.979 C 325.367 421.688,326.312 408.453,324.376 404.444 C 322.517 400.598,321.907 397.018,321.703 388.759 L 321.509 380.919 320.393 380.259 C 318.441 379.106,305.859 379.294,305.023 380.489 " stroke="none" fill="#f8d0ac" fill-rule="evenodd"></path><path id="path4" d="M129.264 405.019 C 128.980 405.643,128.788 408.470,128.770 412.319 C 128.753 415.773,128.610 420.724,128.451 423.319 C 128.293 425.915,128.292 432.665,128.449 438.319 C 128.607 443.974,128.851 453.100,128.993 458.600 C 129.360 472.870,128.554 471.600,137.235 471.600 C 143.532 471.600,143.638 471.615,145.706 472.765 C 146.858 473.406,149.294 474.396,151.121 474.965 L 154.441 476.000 200.000 476.000 L 245.559 476.000 248.879 474.965 C 250.706 474.396,253.142 473.406,254.294 472.765 C 256.362 471.615,256.468 471.600,262.765 471.600 C 271.446 471.600,270.640 472.870,271.007 458.600 C 271.149 453.100,271.393 443.974,271.551 438.319 C 271.708 432.665,271.707 425.915,271.549 423.319 C 271.390 420.724,271.247 415.773,271.230 412.319 C 271.212 408.470,271.020 405.643,270.736 405.019 L 270.272 404.000 263.258 404.000 L 256.244 404.000 255.122 405.075 L 254.000 406.150 254.000 412.691 C 254.000 426.077,257.785 425.200,200.000 425.200 C 142.215 425.200,146.000 426.077,146.000 412.691 L 146.000 406.150 144.878 405.075 L 143.756 404.000 136.742 404.000 L 129.728 404.000 129.264 405.019 M103.200 526.106 C 99.238 528.063,98.509 544.082,102.213 547.787 C 104.360 549.933,105.048 550.000,125.000 550.000 C 150.345 550.000,150.000 550.174,150.000 537.389 C 150.000 529.693,149.386 527.428,147.008 526.348 C 144.967 525.421,105.033 525.200,103.200 526.106 M252.992 526.348 C 250.614 527.428,250.000 529.693,250.000 537.389 C 250.000 550.174,249.655 550.000,275.000 550.000 C 294.952 550.000,295.640 549.933,297.787 547.787 C 301.491 544.082,300.762 528.063,296.800 526.106 C 294.967 525.200,255.033 525.421,252.992 526.348 " stroke="none" fill="#1c9ab5" fill-rule="evenodd"></path><path id="path5" d="M147.800 94.400 C 148.996 94.914,149.995 94.914,149.200 94.400 C 148.870 94.187,148.240 94.022,147.800 94.034 L 147.000 94.056 147.800 94.400 M152.245 94.328 C 152.133 94.508,152.573 94.577,153.221 94.482 C 153.870 94.387,154.400 94.240,154.400 94.155 C 154.400 93.850,152.443 94.007,152.245 94.328 M245.600 94.155 C 245.600 94.240,246.130 94.387,246.779 94.482 C 247.427 94.577,247.867 94.508,247.755 94.328 C 247.557 94.007,245.600 93.850,245.600 94.155 M250.800 94.400 C 250.005 94.914,251.004 94.914,252.200 94.400 L 253.000 94.056 252.200 94.034 C 251.760 94.022,251.130 94.187,250.800 94.400 M145.029 95.029 C 144.683 95.374,144.405 95.869,144.412 96.129 C 144.419 96.388,144.605 96.291,144.825 95.913 C 145.045 95.535,145.535 95.045,145.913 94.825 C 146.291 94.605,146.388 94.419,146.129 94.412 C 145.869 94.405,145.374 94.683,145.029 95.029 M254.087 94.825 C 254.465 95.045,254.955 95.535,255.175 95.913 C 255.395 96.291,255.581 96.388,255.588 96.129 C 255.604 95.519,254.481 94.396,253.871 94.412 C 253.612 94.419,253.709 94.605,254.087 94.825 M145.782 95.782 C 145.242 96.322,144.814 96.997,144.832 97.282 C 144.856 97.684,144.908 97.688,145.065 97.300 C 145.176 97.025,145.527 96.800,145.846 96.800 C 146.164 96.800,146.541 96.485,146.683 96.100 C 146.825 95.715,147.135 95.268,147.371 95.106 C 147.656 94.911,147.626 94.810,147.282 94.806 C 146.997 94.803,146.322 95.242,145.782 95.782 M252.700 95.065 C 252.975 95.176,253.200 95.527,253.200 95.846 C 253.200 96.164,253.515 96.541,253.900 96.683 C 254.285 96.825,254.732 97.135,254.894 97.371 C 255.089 97.656,255.190 97.626,255.194 97.282 C 255.202 96.597,253.378 94.791,252.718 94.832 C 252.316 94.856,252.312 94.908,252.700 95.065 M144.034 97.800 C 144.022 98.240,144.187 98.870,144.400 99.200 C 144.914 99.995,144.914 98.996,144.400 97.800 L 144.056 97.000 144.034 97.800 M255.429 98.229 C 255.281 98.815,255.251 99.384,255.361 99.494 C 255.471 99.604,255.681 99.215,255.829 98.629 C 255.976 98.042,256.006 97.473,255.896 97.363 C 255.786 97.253,255.576 97.642,255.429 98.229 M144.154 102.577 C 144.032 102.894,144.003 103.479,144.089 103.877 C 144.187 104.328,144.324 104.112,144.454 103.300 C 144.671 101.938,144.530 101.596,144.154 102.577 M255.552 103.287 C 255.737 104.398,255.793 104.455,255.919 103.654 C 256.001 103.133,255.903 102.543,255.701 102.341 C 255.479 102.119,255.421 102.493,255.552 103.287 M100.000 119.386 C 100.000 119.708,100.405 120.168,100.900 120.408 C 101.744 120.817,101.753 120.807,101.055 120.245 C 100.350 119.678,100.382 119.626,101.655 119.259 L 103.000 118.872 101.500 118.836 C 100.433 118.810,100.000 118.969,100.000 119.386 M298.345 119.259 C 299.618 119.626,299.650 119.678,298.945 120.245 C 298.247 120.807,298.256 120.817,299.100 120.408 C 300.576 119.693,300.233 118.794,298.500 118.836 L 297.000 118.872 298.345 119.259 M144.816 120.075 C 144.034 120.914,144.000 121.430,144.000 132.475 L 144.000 144.000 120.500 144.043 C 107.575 144.067,96.370 144.118,95.600 144.157 L 94.200 144.227 94.075 156.606 C 94.005 163.414,93.903 169.031,93.846 169.087 C 93.789 169.144,88.465 169.206,82.014 169.224 C 72.833 169.251,70.169 169.374,69.753 169.789 C 69.318 170.225,69.219 179.160,69.206 219.432 C 69.197 246.443,69.147 268.585,69.095 268.636 C 69.043 268.687,64.590 268.801,59.200 268.889 C 48.044 269.073,48.146 269.051,47.893 271.328 C 47.652 273.489,47.794 291.191,48.195 309.084 C 48.541 324.526,48.329 327.144,46.544 329.500 C 45.478 330.907,45.698 331.167,47.113 330.176 C 49.491 328.510,50.303 321.736,49.746 308.200 C 49.556 303.580,49.400 294.400,49.400 287.800 C 49.400 270.809,48.875 271.524,61.600 271.176 C 69.673 270.955,71.649 270.644,74.495 269.144 C 75.147 268.800,75.196 266.051,75.295 224.018 C 75.399 179.517,75.405 179.252,76.225 178.154 C 78.188 175.524,78.588 175.412,86.444 175.275 L 93.632 175.149 94.864 173.475 C 97.275 170.196,97.382 169.696,97.599 160.600 C 97.928 146.829,95.913 147.860,123.000 147.600 C 149.594 147.344,147.445 148.425,147.672 135.200 C 147.837 125.614,148.051 124.887,151.128 123.465 L 153.000 122.600 200.000 122.600 L 247.000 122.600 248.872 123.465 C 251.949 124.887,252.163 125.614,252.328 135.200 C 252.555 148.425,250.406 147.344,277.000 147.600 C 304.087 147.860,302.072 146.829,302.401 160.600 C 302.618 169.696,302.725 170.196,305.136 173.475 L 306.368 175.149 313.556 175.275 C 321.412 175.412,321.812 175.524,323.775 178.154 C 324.595 179.252,324.601 179.517,324.705 224.018 C 324.804 266.051,324.853 268.800,325.505 269.144 C 328.351 270.644,330.327 270.955,338.400 271.176 C 351.125 271.524,350.600 270.809,350.600 287.800 C 350.600 294.400,350.444 303.580,350.254 308.200 C 349.697 321.736,350.509 328.510,352.887 330.176 C 354.302 331.167,354.522 330.907,353.456 329.500 C 351.671 327.144,351.459 324.526,351.805 309.084 C 352.206 291.191,352.348 273.489,352.107 271.328 C 351.854 269.051,351.956 269.073,340.800 268.889 C 335.410 268.801,330.957 268.687,330.905 268.636 C 330.853 268.585,330.803 246.443,330.794 219.432 C 330.781 179.160,330.682 170.225,330.247 169.789 C 329.831 169.374,327.167 169.251,317.986 169.224 C 311.535 169.206,306.211 169.144,306.154 169.087 C 306.097 169.031,305.995 163.414,305.925 156.606 L 305.800 144.227 304.400 144.157 C 303.630 144.118,292.425 144.067,279.500 144.043 L 256.000 144.000 256.000 132.475 C 256.000 121.430,255.966 120.914,255.184 120.075 L 254.369 119.200 200.000 119.200 L 145.631 119.200 144.816 120.075 M94.020 122.800 C 94.011 123.514,94.676 124.657,94.946 124.388 C 95.049 124.284,94.886 123.749,94.581 123.199 C 94.261 122.620,94.025 122.452,94.020 122.800 M305.274 123.398 C 305.023 123.949,304.981 124.400,305.182 124.400 C 305.575 124.400,306.184 122.851,305.901 122.568 C 305.807 122.474,305.525 122.847,305.274 123.398 M73.199 144.581 C 73.749 144.886,74.284 145.049,74.388 144.946 C 74.657 144.676,73.514 144.011,72.800 144.020 C 72.452 144.025,72.620 144.261,73.199 144.581 M326.012 144.384 C 325.034 145.003,325.727 145.176,326.801 144.581 C 327.380 144.261,327.548 144.025,327.200 144.020 C 326.870 144.016,326.335 144.180,326.012 144.384 M330.229 147.029 C 330.081 147.615,330.038 148.172,330.132 148.266 C 330.227 148.360,330.424 147.958,330.571 147.371 C 330.719 146.785,330.762 146.228,330.668 146.134 C 330.573 146.040,330.376 146.442,330.229 147.029 M68.836 151.500 L 68.872 153.000 69.259 151.655 C 69.626 150.382,69.678 150.350,70.245 151.055 C 70.807 151.753,70.817 151.744,70.408 150.900 C 69.693 149.424,68.794 149.767,68.836 151.500 M330.440 150.500 C 330.575 152.191,331.122 152.950,331.160 151.500 C 331.182 150.675,331.020 150.000,330.800 150.000 C 330.580 150.000,330.418 150.225,330.440 150.500 M50.000 169.386 C 50.000 169.708,50.405 170.168,50.900 170.408 C 51.744 170.817,51.753 170.807,51.055 170.245 C 50.350 169.678,50.382 169.626,51.655 169.259 L 53.000 168.872 51.500 168.836 C 50.433 168.810,50.000 168.969,50.000 169.386 M348.345 169.259 C 349.618 169.626,349.650 169.678,348.945 170.245 C 348.247 170.807,348.256 170.817,349.100 170.408 C 350.576 169.693,350.233 168.794,348.500 168.836 L 347.000 168.872 348.345 169.259 M44.020 172.800 C 44.011 173.514,44.676 174.657,44.946 174.388 C 45.049 174.284,44.886 173.749,44.581 173.199 C 44.261 172.620,44.025 172.452,44.020 172.800 M355.274 173.398 C 355.023 173.949,354.981 174.400,355.182 174.400 C 355.575 174.400,356.184 172.851,355.901 172.568 C 355.807 172.474,355.525 172.847,355.274 173.398 M80.839 304.860 C 80.578 305.609,80.397 309.375,80.392 314.160 C 80.382 323.989,80.012 326.866,78.405 329.591 C 77.206 331.625,77.200 331.665,77.200 337.786 L 77.200 343.936 76.033 344.193 C 74.925 344.436,73.939 345.086,72.248 346.688 C 71.342 347.547,69.808 350.868,69.427 352.800 L 69.150 354.200 70.140 352.521 C 73.031 347.617,76.409 346.425,87.454 346.410 C 101.395 346.391,103.217 348.122,103.585 361.736 C 103.874 372.413,101.167 371.200,124.718 371.200 C 152.776 371.200,153.600 371.649,153.600 386.937 L 153.600 393.843 154.919 395.122 L 156.238 396.400 200.041 396.400 L 243.843 396.400 245.122 395.081 L 246.400 393.762 246.400 386.896 C 246.400 371.655,247.237 371.200,275.282 371.200 C 298.833 371.200,296.126 372.413,296.415 361.736 C 296.783 348.122,298.605 346.391,312.546 346.410 C 323.591 346.425,326.969 347.617,329.860 352.521 L 330.850 354.200 330.573 352.800 C 330.192 350.868,328.658 347.547,327.752 346.688 C 326.061 345.086,325.075 344.436,323.967 344.193 L 322.800 343.936 322.800 337.786 C 322.800 331.665,322.794 331.625,321.595 329.591 C 319.988 326.866,319.618 323.989,319.608 314.160 C 319.603 309.375,319.422 305.609,319.161 304.860 L 318.722 303.600 312.439 303.600 L 306.157 303.600 304.878 304.919 L 303.600 306.238 303.600 312.905 C 303.600 326.168,300.928 328.800,287.460 328.800 L 281.044 328.800 279.922 329.875 L 278.800 330.950 278.800 337.413 C 278.800 347.629,277.192 351.048,271.486 352.959 C 268.560 353.939,131.440 353.939,128.514 352.959 C 122.817 351.050,121.200 347.624,121.200 337.460 L 121.200 331.044 120.125 329.922 L 119.050 328.800 112.587 328.800 C 99.055 328.800,96.400 326.187,96.400 312.864 L 96.400 306.157 95.081 304.878 L 93.762 303.600 87.520 303.600 L 81.278 303.600 80.839 304.860 M58.500 369.098 C 60.425 369.171,63.575 369.171,65.500 369.098 C 67.425 369.025,65.850 368.965,62.000 368.965 C 58.150 368.965,56.575 369.025,58.500 369.098 M334.500 369.098 C 336.425 369.171,339.575 369.171,341.500 369.098 C 343.425 369.025,341.850 368.965,338.000 368.965 C 334.150 368.965,332.575 369.025,334.500 369.098 M45.004 369.993 C 44.866 370.217,44.898 370.403,45.076 370.406 C 45.254 370.409,45.130 370.587,44.800 370.800 C 44.470 371.013,44.403 371.191,44.651 371.194 C 45.326 371.203,46.117 370.119,45.647 369.829 C 45.432 369.696,45.142 369.770,45.004 369.993 M354.232 369.948 C 353.960 370.388,355.115 371.418,355.476 371.057 C 355.618 370.916,355.513 370.800,355.243 370.800 C 354.973 370.800,354.856 370.632,354.983 370.428 C 355.109 370.223,355.043 369.950,354.834 369.821 C 354.626 369.692,354.355 369.749,354.232 369.948 M69.557 371.316 C 70.229 373.181,73.127 373.650,83.807 373.623 C 100.149 373.580,101.200 374.412,101.200 387.382 L 101.200 394.070 103.375 396.335 L 105.550 398.600 112.875 398.804 C 120.917 399.028,123.815 399.783,128.197 402.798 L 129.944 404.000 136.897 404.000 L 143.850 404.000 144.925 405.122 L 146.000 406.244 146.000 412.738 C 146.000 420.062,146.380 421.424,148.887 423.093 C 150.570 424.213,153.555 424.851,152.121 423.784 C 148.265 420.915,148.004 420.206,148.000 412.600 C 147.995 402.685,147.322 402.004,137.514 402.001 L 131.228 402.000 129.317 400.788 C 125.484 398.357,119.853 397.200,111.861 397.200 L 105.762 397.200 104.328 395.700 L 102.894 394.200 102.664 385.400 C 102.300 371.501,103.817 372.690,86.060 372.390 C 73.236 372.173,72.471 372.118,70.896 371.297 L 69.238 370.433 69.557 371.316 M329.020 371.307 C 327.523 372.117,326.730 372.173,313.937 372.390 C 296.183 372.690,297.699 371.501,297.336 385.400 L 297.106 394.200 295.672 395.700 L 294.238 397.200 288.139 397.200 C 280.147 397.200,274.516 398.357,270.683 400.788 L 268.772 402.000 262.486 402.001 C 252.678 402.004,252.005 402.685,252.000 412.600 C 251.996 420.206,251.735 420.915,247.879 423.784 C 246.445 424.851,249.430 424.213,251.113 423.093 C 253.620 421.424,254.000 420.062,254.000 412.738 L 254.000 406.244 255.075 405.122 L 256.150 404.000 263.103 404.000 L 270.056 404.000 271.803 402.798 C 276.185 399.783,279.083 399.028,287.125 398.804 L 294.450 398.600 296.625 396.335 L 298.800 394.070 298.800 387.382 C 298.800 374.412,299.851 373.580,316.193 373.623 C 326.904 373.650,329.770 373.183,330.449 371.300 C 330.628 370.805,330.735 370.412,330.687 370.427 C 330.639 370.442,329.889 370.838,329.020 371.307 M20.800 394.757 C 20.800 395.027,20.632 395.144,20.428 395.017 C 20.223 394.891,19.950 394.957,19.821 395.166 C 19.692 395.374,19.749 395.645,19.948 395.768 C 20.388 396.040,21.418 394.885,21.057 394.524 C 20.916 394.382,20.800 394.487,20.800 394.757 M378.806 394.651 C 378.797 395.326,379.881 396.117,380.171 395.647 C 380.304 395.432,380.230 395.142,380.007 395.004 C 379.783 394.866,379.597 394.898,379.594 395.076 C 379.591 395.254,379.413 395.130,379.200 394.800 C 378.987 394.470,378.809 394.403,378.806 394.651 M18.986 425.000 C 18.986 436.000,19.037 440.442,19.100 434.872 C 19.163 429.302,19.162 420.302,19.100 414.872 C 19.037 409.442,18.985 414.000,18.986 425.000 M380.986 425.000 C 380.986 436.000,381.037 440.442,381.100 434.872 C 381.163 429.302,381.162 420.302,381.100 414.872 C 381.037 409.442,380.985 414.000,380.986 425.000 M113.212 429.100 C 106.261 429.219,106.217 429.225,105.112 430.285 L 104.000 431.350 104.000 437.692 L 104.000 444.034 102.146 446.017 C 101.019 447.221,99.193 448.549,97.492 449.399 L 94.693 450.800 87.917 450.800 C 80.371 450.800,77.084 451.522,73.131 454.049 C 70.369 455.814,70.455 455.498,70.365 464.212 C 70.288 471.698,69.968 476.615,69.386 479.266 C 69.043 480.827,69.802 480.706,70.429 479.100 C 70.776 478.209,70.989 474.387,71.105 466.943 L 71.275 456.086 73.137 455.080 C 77.230 452.868,79.597 452.400,86.704 452.400 C 101.224 452.400,105.253 449.202,105.600 437.400 L 105.800 430.600 112.119 430.490 C 115.711 430.427,119.121 430.563,120.019 430.805 L 121.600 431.231 121.600 437.458 C 121.600 443.547,121.622 443.711,122.619 444.896 C 126.263 449.226,128.945 465.122,126.742 469.326 C 125.641 471.427,123.757 473.297,121.429 474.599 L 118.923 476.000 112.162 476.005 L 105.400 476.010 102.359 477.337 C 100.687 478.068,98.482 479.266,97.459 480.000 L 95.600 481.336 95.600 487.288 C 95.600 491.629,95.753 493.535,96.164 494.331 C 97.653 497.210,98.053 500.163,98.398 510.800 C 98.676 519.368,99.422 527.677,100.138 530.165 C 100.196 530.365,100.730 529.533,101.326 528.315 L 102.409 526.101 101.205 522.414 L 100.000 518.728 100.000 499.938 L 100.000 481.148 102.900 479.810 L 105.800 478.473 113.600 478.305 C 122.960 478.103,125.141 477.659,127.280 475.520 C 129.222 473.578,130.163 471.391,129.646 470.017 C 129.436 469.458,129.135 464.230,128.976 458.400 C 128.818 452.570,128.578 443.750,128.444 438.800 L 128.200 429.800 126.400 429.332 C 125.410 429.075,123.610 428.890,122.400 428.922 C 121.190 428.954,117.055 429.034,113.212 429.100 M273.600 429.350 L 271.800 429.800 271.556 438.800 C 271.422 443.750,271.182 452.570,271.024 458.400 C 270.865 464.230,270.564 469.458,270.354 470.017 C 269.837 471.391,270.778 473.578,272.720 475.520 C 274.859 477.659,277.040 478.103,286.400 478.305 L 294.200 478.473 297.100 479.810 L 300.000 481.148 300.000 499.938 L 300.000 518.728 298.795 522.414 L 297.591 526.101 298.674 528.315 C 299.270 529.533,299.804 530.365,299.862 530.165 C 300.578 527.677,301.324 519.368,301.602 510.800 C 301.947 500.163,302.347 497.210,303.836 494.331 C 304.247 493.535,304.400 491.629,304.400 487.288 L 304.400 481.336 302.541 480.000 C 301.518 479.266,299.313 478.068,297.641 477.337 L 294.600 476.010 287.838 476.005 L 281.077 476.000 278.571 474.599 C 276.243 473.297,274.359 471.427,273.258 469.326 C 271.055 465.122,273.737 449.226,277.381 444.896 C 278.378 443.711,278.400 443.547,278.400 437.458 L 278.400 431.231 279.981 430.805 C 280.879 430.563,284.289 430.427,287.881 430.490 L 294.200 430.600 294.400 437.400 C 294.747 449.202,298.776 452.400,313.296 452.400 C 320.403 452.400,322.770 452.868,326.863 455.080 L 328.725 456.086 328.895 466.943 C 329.011 474.387,329.224 478.209,329.571 479.100 C 330.194 480.698,331.003 480.854,330.606 479.300 C 330.047 477.109,329.721 472.042,329.638 464.212 C 329.544 455.499,329.630 455.814,326.869 454.049 C 322.916 451.522,319.629 450.800,312.083 450.800 L 305.307 450.800 302.508 449.399 C 300.807 448.549,298.981 447.221,297.854 446.017 L 296.000 444.034 296.000 437.692 L 296.000 431.350 294.900 430.324 C 293.616 429.127,277.451 428.388,273.600 429.350 M19.829 454.353 C 19.696 454.568,19.770 454.858,19.993 454.996 C 20.217 455.134,20.403 455.102,20.406 454.924 C 20.409 454.746,20.587 454.870,20.800 455.200 C 21.013 455.530,21.191 455.597,21.194 455.349 C 21.203 454.674,20.119 453.883,19.829 454.353 M379.188 454.614 C 378.912 454.947,378.802 455.335,378.943 455.476 C 379.084 455.618,379.200 455.513,379.200 455.243 C 379.200 454.973,379.368 454.856,379.572 454.983 C 379.777 455.109,380.050 455.043,380.179 454.834 C 380.586 454.175,379.714 453.981,379.188 454.614 M44.734 479.151 C 45.028 479.337,45.253 479.604,45.234 479.745 C 45.215 479.885,45.290 480.000,45.400 480.000 C 45.510 480.000,45.712 480.000,45.849 480.000 C 45.986 480.000,45.874 479.730,45.600 479.400 C 45.326 479.070,44.899 478.803,44.651 478.806 C 44.380 478.810,44.413 478.947,44.734 479.151 M354.430 479.364 C 354.135 479.720,354.106 480.019,354.353 480.171 C 354.568 480.304,354.858 480.230,354.996 480.007 C 355.134 479.783,355.102 479.597,354.924 479.594 C 354.746 479.591,354.870 479.413,355.200 479.200 C 355.530 478.987,355.597 478.809,355.349 478.806 C 355.101 478.803,354.687 479.054,354.430 479.364 M58.500 481.098 C 60.425 481.171,63.575 481.171,65.500 481.098 C 67.425 481.025,65.850 480.965,62.000 480.965 C 58.150 480.965,56.575 481.025,58.500 481.098 M334.500 481.098 C 336.425 481.171,339.575 481.171,341.500 481.098 C 343.425 481.025,341.850 480.965,338.000 480.965 C 334.150 480.965,332.575 481.025,334.500 481.098 M175.800 501.177 C 173.380 501.816,170.893 502.532,170.274 502.769 C 169.636 503.013,166.324 503.200,162.637 503.200 L 156.127 503.200 155.663 504.746 C 155.396 505.639,155.200 509.000,155.200 512.692 L 155.200 519.091 153.188 520.973 C 152.081 522.008,150.567 523.740,149.823 524.822 L 148.470 526.788 149.106 528.778 L 149.743 530.769 151.717 527.484 C 152.803 525.678,154.212 523.542,154.850 522.737 L 156.008 521.275 163.504 521.107 C 169.400 520.975,171.470 520.781,173.200 520.200 C 176.558 519.071,176.400 519.457,176.400 512.404 L 176.400 506.107 178.453 505.253 C 180.454 504.422,181.009 504.400,200.000 504.400 C 218.991 504.400,219.546 504.422,221.547 505.253 L 223.600 506.107 223.600 512.404 C 223.600 519.457,223.442 519.071,226.800 520.200 C 228.530 520.781,230.600 520.975,236.496 521.107 L 243.992 521.275 245.150 522.737 C 245.788 523.542,247.197 525.678,248.283 527.484 L 250.257 530.769 250.894 528.778 L 251.530 526.788 250.177 524.822 C 249.433 523.740,247.919 522.008,246.812 520.973 L 244.800 519.091 244.800 512.692 C 244.800 509.000,244.604 505.639,244.337 504.746 L 243.873 503.200 237.569 503.200 C 231.433 503.200,231.132 503.160,226.332 501.705 L 221.400 500.210 200.800 500.113 L 180.200 500.015 175.800 501.177 " stroke="none" fill="#534336" fill-rule="evenodd"></path><path id="path6" d="M55.513 278.700 C 55.178 279.085,54.700 279.793,54.451 280.274 C 53.804 281.527,53.893 294.203,54.596 301.000 C 54.915 304.080,55.182 309.427,55.188 312.881 C 55.195 316.771,55.377 319.550,55.664 320.181 L 56.128 321.200 62.483 321.200 L 68.838 321.200 69.807 320.100 C 70.744 319.035,70.775 318.794,70.787 312.570 C 70.799 306.439,70.874 305.839,72.400 299.649 C 73.902 293.557,74.000 292.794,74.000 287.249 C 74.000 280.674,74.045 280.792,70.800 278.843 C 68.838 277.666,56.517 277.550,55.513 278.700 M329.200 278.838 C 325.952 280.800,326.000 280.674,326.000 287.249 C 326.000 292.794,326.098 293.557,327.600 299.649 C 329.126 305.839,329.201 306.439,329.213 312.570 C 329.225 318.794,329.256 319.035,330.193 320.100 L 331.162 321.200 337.517 321.200 L 343.872 321.200 344.336 320.181 C 344.623 319.550,344.805 316.771,344.812 312.881 C 344.818 309.427,345.085 304.080,345.404 301.000 C 346.373 291.639,346.218 281.242,345.085 279.559 L 344.169 278.200 337.385 278.096 C 331.084 278.000,330.500 278.053,329.200 278.838 M69.520 280.880 C 70.300 281.660,70.168 293.163,69.357 295.192 L 68.713 296.800 62.580 296.800 C 58.113 296.800,56.360 296.664,56.125 296.300 C 55.730 295.689,55.421 282.769,55.767 281.389 L 56.015 280.400 62.528 280.400 C 67.059 280.400,69.186 280.546,69.520 280.880 M344.233 281.389 C 344.579 282.769,344.270 295.689,343.875 296.300 C 343.640 296.664,341.887 296.800,337.420 296.800 L 331.287 296.800 330.643 295.192 C 329.832 293.163,329.700 281.660,330.480 280.880 C 330.814 280.546,332.941 280.400,337.472 280.400 L 343.985 280.400 344.233 281.389 M79.000 379.395 C 76.414 380.609,76.466 380.446,76.327 387.824 C 76.163 396.569,75.168 399.128,70.640 402.454 L 69.080 403.600 62.618 403.600 L 56.157 403.600 54.878 404.919 L 53.600 406.238 53.600 425.041 L 53.600 443.843 54.941 445.143 L 56.283 446.443 75.241 446.160 L 94.200 445.878 95.500 444.891 L 96.800 443.905 96.800 437.653 C 96.801 425.642,100.066 422.411,112.211 422.404 C 117.361 422.401,118.797 422.278,119.511 421.777 C 120.430 421.134,120.796 420.096,119.900 420.676 C 119.625 420.854,115.980 421.100,111.800 421.223 C 97.208 421.651,94.873 423.799,94.431 437.200 L 94.200 444.200 88.400 444.323 C 85.210 444.390,81.655 444.332,80.500 444.194 L 78.400 443.942 78.400 437.819 C 78.400 432.226,78.311 431.460,77.377 428.979 C 74.633 421.688,73.688 408.453,75.624 404.444 C 77.483 400.598,78.093 397.018,78.297 388.759 L 78.491 380.919 79.607 380.259 C 80.526 379.716,81.926 379.600,87.539 379.600 C 96.200 379.600,95.600 378.971,95.600 388.047 C 95.600 401.994,97.506 403.940,111.600 404.382 C 115.890 404.516,119.760 404.783,120.200 404.975 C 120.747 405.214,120.663 405.052,119.937 404.463 C 118.944 403.657,118.438 403.600,112.283 403.600 C 99.075 403.600,96.400 400.937,96.400 387.785 C 96.400 381.350,96.386 381.245,95.364 380.031 L 94.329 378.800 87.264 378.816 C 82.049 378.827,79.886 378.979,79.000 379.395 M304.655 380.007 C 303.609 381.250,303.600 381.319,303.600 387.785 C 303.600 400.937,300.925 403.600,287.717 403.600 C 281.562 403.600,281.056 403.657,280.063 404.463 C 279.337 405.052,279.253 405.214,279.800 404.975 C 280.240 404.783,284.110 404.516,288.400 404.382 C 302.494 403.940,304.400 401.994,304.400 388.047 C 304.400 378.971,303.800 379.600,312.461 379.600 C 318.074 379.600,319.474 379.716,320.393 380.259 L 321.509 380.919 321.703 388.759 C 321.907 397.018,322.517 400.598,324.376 404.444 C 326.312 408.453,325.367 421.688,322.623 428.979 C 321.689 431.460,321.600 432.226,321.600 437.819 L 321.600 443.942 319.500 444.194 C 318.345 444.332,314.790 444.390,311.600 444.323 L 305.800 444.200 305.569 437.200 C 305.127 423.799,302.792 421.651,288.200 421.223 C 284.020 421.100,280.375 420.854,280.100 420.676 C 279.204 420.096,279.570 421.134,280.489 421.777 C 281.203 422.278,282.639 422.401,287.789 422.404 C 299.934 422.411,303.199 425.642,303.200 437.653 L 303.200 443.905 304.500 444.891 L 305.800 445.878 324.759 446.160 L 343.717 446.443 345.059 445.143 L 346.400 443.843 346.400 425.000 L 346.400 406.157 345.081 404.878 L 343.762 403.600 337.341 403.600 L 330.920 403.600 329.360 402.454 C 324.825 399.124,323.836 396.572,323.675 387.791 L 323.551 380.982 322.106 379.991 C 320.715 379.037,320.386 378.995,313.186 378.876 L 305.711 378.753 304.655 380.007 M105.680 504.528 C 105.020 506.355,105.020 518.860,105.680 519.520 C 106.354 520.194,143.103 520.209,144.581 519.536 L 145.600 519.072 145.600 512.483 C 145.600 506.507,145.523 505.769,144.767 504.547 L 143.935 503.200 125.048 503.200 L 106.161 503.200 105.680 504.528 M255.233 504.547 C 254.477 505.769,254.400 506.507,254.400 512.483 L 254.400 519.072 255.419 519.536 C 256.897 520.209,293.646 520.194,294.320 519.520 C 294.980 518.860,294.980 506.355,294.320 504.528 L 293.839 503.200 274.952 503.200 L 256.065 503.200 255.233 504.547 " stroke="none" fill="#dc9c74" fill-rule="evenodd"></path><path id="path7" d="M153.087 122.833 C 148.220 123.992,147.851 124.836,147.672 135.200 C 147.445 148.425,149.594 147.344,123.000 147.600 C 95.913 147.860,97.928 146.829,97.599 160.600 C 97.382 169.696,97.275 170.196,94.864 173.475 L 93.632 175.149 86.444 175.275 C 78.588 175.412,78.188 175.524,76.225 178.154 C 75.405 179.252,75.399 179.517,75.295 224.018 C 75.196 266.051,75.147 268.800,74.495 269.144 C 71.649 270.644,69.673 270.955,61.600 271.176 C 47.973 271.548,49.001 268.126,49.635 311.000 C 49.874 327.214,49.418 329.488,45.667 330.795 L 43.960 331.389 44.029 341.195 C 44.067 346.588,44.243 351.382,44.420 351.849 C 44.617 352.368,44.566 352.874,44.291 353.149 C 43.956 353.484,44.033 353.600,44.587 353.600 C 44.997 353.600,45.215 353.718,45.070 353.863 C 44.708 354.225,45.605 355.244,46.045 354.972 C 46.240 354.851,46.400 355.069,46.400 355.456 C 46.400 355.978,46.516 356.044,46.851 355.709 C 47.126 355.434,47.632 355.383,48.151 355.580 C 48.618 355.757,53.440 355.933,58.867 355.972 L 68.735 356.041 69.216 353.721 C 69.790 350.957,71.204 347.677,72.248 346.688 C 73.939 345.086,74.925 344.436,76.033 344.193 L 77.200 343.936 77.200 337.786 C 77.200 331.665,77.206 331.625,78.405 329.591 C 80.012 326.866,80.382 323.989,80.392 314.160 C 80.397 309.375,80.578 305.609,80.839 304.860 L 81.278 303.600 87.561 303.600 L 93.843 303.600 95.122 304.919 L 96.400 306.238 96.400 312.905 C 96.400 326.182,99.066 328.800,112.587 328.800 L 119.050 328.800 120.125 329.922 L 121.200 331.044 121.200 337.460 C 121.200 347.624,122.817 351.050,128.514 352.959 C 131.440 353.939,268.560 353.939,271.486 352.959 C 277.183 351.050,278.800 347.624,278.800 337.460 L 278.800 331.044 279.875 329.922 L 280.950 328.800 287.413 328.800 C 300.945 328.800,303.600 326.187,303.600 312.864 L 303.600 306.157 304.919 304.878 L 306.238 303.600 312.480 303.600 L 318.722 303.600 319.161 304.860 C 319.422 305.609,319.603 309.375,319.608 314.160 C 319.618 323.989,319.988 326.866,321.595 329.591 C 322.794 331.625,322.800 331.665,322.800 337.786 L 322.800 343.936 323.967 344.193 C 325.075 344.436,326.061 345.086,327.752 346.688 C 328.796 347.677,330.210 350.957,330.784 353.721 L 331.265 356.041 341.133 355.972 C 346.560 355.933,351.382 355.757,351.849 355.580 C 352.368 355.383,352.874 355.434,353.149 355.709 C 353.484 356.044,353.600 355.978,353.600 355.456 C 353.600 355.069,353.760 354.851,353.955 354.972 C 354.395 355.244,355.292 354.225,354.930 353.863 C 354.785 353.718,355.003 353.600,355.413 353.600 C 355.967 353.600,356.044 353.484,355.709 353.149 C 355.434 352.874,355.383 352.368,355.580 351.849 C 355.757 351.382,355.933 346.588,355.971 341.195 L 356.040 331.389 354.333 330.795 C 350.582 329.488,350.126 327.214,350.365 311.000 C 350.999 268.126,352.027 271.548,338.400 271.176 C 330.327 270.955,328.351 270.644,325.505 269.144 C 324.853 268.800,324.804 266.051,324.705 224.018 C 324.601 179.517,324.595 179.252,323.775 178.154 C 321.812 175.524,321.412 175.412,313.556 175.275 L 306.368 175.149 305.136 173.475 C 302.725 170.196,302.618 169.696,302.401 160.600 C 302.072 146.829,304.087 147.860,277.000 147.600 C 250.406 147.344,252.555 148.425,252.328 135.200 C 252.163 125.614,251.949 124.887,248.872 123.465 L 247.000 122.600 200.800 122.536 C 174.519 122.500,153.948 122.627,153.087 122.833 M248.245 124.870 C 250.901 126.599,251.307 128.076,251.573 137.000 C 251.934 149.086,249.950 148.144,275.600 148.406 C 302.584 148.682,301.147 147.919,301.580 162.200 C 301.844 170.929,302.312 172.658,305.411 176.340 L 306.471 177.600 313.022 177.600 L 319.573 177.600 320.987 179.013 L 322.400 180.427 322.400 224.586 L 322.400 268.746 323.574 269.581 C 326.143 271.411,327.775 271.699,337.000 271.956 C 349.919 272.314,349.709 272.083,349.923 286.224 C 350.010 291.962,349.887 296.572,349.599 298.424 C 349.343 300.061,348.989 305.990,348.812 311.600 C 348.450 323.004,348.025 325.234,345.867 327.051 L 344.669 328.058 336.835 327.929 C 323.425 327.708,321.231 325.489,321.210 312.126 C 321.200 306.269,321.155 305.936,319.937 302.826 L 318.675 299.600 312.637 299.601 C 305.241 299.603,303.617 300.310,300.744 304.778 C 299.606 306.548,299.600 306.589,299.600 313.035 L 299.600 319.513 297.748 321.573 C 294.941 324.695,294.601 324.800,287.251 324.800 L 280.862 324.800 279.143 326.112 C 278.197 326.833,276.833 328.197,276.112 329.143 L 274.800 330.862 274.800 337.251 C 274.800 344.601,274.695 344.941,271.573 347.748 L 269.513 349.600 200.000 349.600 L 130.487 349.600 128.427 347.748 C 125.305 344.941,125.200 344.601,125.200 337.251 L 125.200 330.862 123.888 329.143 C 123.167 328.197,121.803 326.833,120.857 326.112 L 119.138 324.800 112.749 324.800 C 105.399 324.800,105.059 324.695,102.252 321.573 L 100.400 319.513 100.400 313.035 C 100.400 306.589,100.394 306.548,99.256 304.778 C 96.383 300.310,94.759 299.603,87.363 299.601 L 81.325 299.600 80.063 302.826 C 78.845 305.936,78.800 306.269,78.790 312.126 C 78.769 325.489,76.575 327.708,63.165 327.929 L 55.331 328.058 54.133 327.051 C 51.975 325.234,51.550 323.004,51.188 311.600 C 51.011 305.990,50.657 300.061,50.401 298.424 C 50.113 296.572,49.990 291.962,50.077 286.224 C 50.291 272.083,50.081 272.314,63.000 271.956 C 72.225 271.699,73.857 271.411,76.426 269.581 L 77.600 268.746 77.600 224.586 L 77.600 180.427 79.013 179.013 L 80.427 177.600 86.978 177.600 L 93.529 177.600 94.589 176.340 C 97.688 172.658,98.156 170.929,98.420 162.200 C 98.853 147.919,97.416 148.682,124.400 148.406 C 150.054 148.144,148.073 149.085,148.414 137.000 C 148.695 127.057,149.382 125.391,153.800 123.940 C 154.240 123.795,175.300 123.705,200.600 123.739 L 246.600 123.800 248.245 124.870 M46.702 369.066 C 46.979 369.177,47.108 369.425,46.990 369.617 C 46.871 369.808,46.539 369.875,46.251 369.764 C 45.964 369.654,45.474 369.887,45.164 370.282 C 44.668 370.913,44.675 370.952,45.219 370.600 C 45.740 370.263,45.737 370.295,45.203 370.800 C 44.360 371.596,44.372 371.451,44.147 383.391 C 44.039 389.107,43.913 393.820,43.867 393.867 C 43.820 393.913,39.107 394.039,33.391 394.147 C 21.451 394.372,21.596 394.360,20.800 395.203 C 20.295 395.737,20.263 395.740,20.600 395.219 C 20.952 394.675,20.913 394.668,20.282 395.164 C 19.887 395.474,19.654 395.964,19.764 396.251 C 19.875 396.539,19.808 396.871,19.617 396.990 C 19.425 397.108,19.177 396.979,19.066 396.702 C 18.940 396.390,18.851 396.456,18.832 396.876 C 18.814 397.248,18.987 397.669,19.216 397.810 C 19.445 397.952,19.522 398.416,19.387 398.841 C 19.066 399.853,19.066 450.147,19.387 451.159 C 19.522 451.584,19.445 452.048,19.216 452.190 C 18.987 452.331,18.814 452.752,18.832 453.124 C 18.851 453.544,18.940 453.610,19.066 453.298 C 19.177 453.021,19.425 452.892,19.617 453.010 C 19.808 453.129,19.875 453.461,19.764 453.749 C 19.654 454.036,19.887 454.526,20.282 454.836 C 20.913 455.332,20.952 455.325,20.600 454.781 C 20.263 454.260,20.295 454.263,20.800 454.797 C 21.596 455.640,21.451 455.628,33.391 455.853 C 39.107 455.961,43.820 456.087,43.867 456.133 C 43.913 456.180,44.039 460.893,44.147 466.609 C 44.372 478.549,44.360 478.404,45.203 479.200 C 45.737 479.705,45.740 479.737,45.219 479.400 C 44.675 479.048,44.668 479.087,45.164 479.718 C 45.474 480.113,45.964 480.346,46.251 480.236 C 46.539 480.125,46.871 480.192,46.990 480.383 C 47.108 480.575,46.979 480.823,46.702 480.934 C 46.390 481.060,46.456 481.149,46.876 481.168 C 47.248 481.186,47.664 481.019,47.801 480.799 C 47.940 480.573,48.520 480.519,49.125 480.675 C 49.716 480.827,54.456 480.963,59.657 480.976 L 69.114 481.000 69.602 478.200 C 69.871 476.660,70.172 471.170,70.272 466.000 C 70.485 454.952,70.270 456.003,72.651 454.365 C 76.621 451.634,80.131 450.811,87.846 450.805 L 94.693 450.800 97.492 449.399 C 99.193 448.549,101.019 447.221,102.146 446.017 L 104.000 444.034 104.000 437.692 L 104.000 431.350 105.122 430.275 L 106.244 429.200 113.022 429.172 C 120.017 429.143,122.811 428.770,119.783 428.270 C 118.912 428.126,115.500 428.008,112.200 428.007 L 106.200 428.005 104.300 429.634 L 102.400 431.262 102.400 437.776 L 102.400 444.291 100.453 446.112 C 96.770 449.556,95.368 450.000,88.165 450.000 C 80.890 450.000,74.770 450.795,70.675 452.272 C 66.983 453.604,54.719 453.519,50.820 452.135 C 46.941 450.758,47.000 451.176,47.000 425.000 C 47.000 395.179,45.970 397.258,60.925 396.891 L 68.849 396.697 69.525 395.668 C 70.079 394.824,70.241 393.204,70.430 386.620 C 70.744 375.632,71.368 374.605,77.880 374.343 C 80.901 374.221,80.039 373.600,76.849 373.600 C 72.502 373.600,70.115 372.703,69.346 370.781 L 68.713 369.200 61.857 369.116 C 58.085 369.070,54.312 369.011,53.471 368.984 C 52.629 368.958,51.099 369.068,50.071 369.229 C 49.042 369.391,48.029 369.360,47.820 369.161 C 47.611 368.963,47.161 368.814,46.820 368.832 C 46.404 368.853,46.366 368.930,46.702 369.066 M338.140 369.081 L 331.279 369.219 330.650 370.791 C 329.885 372.703,327.490 373.600,323.151 373.600 C 319.961 373.600,319.099 374.221,322.120 374.343 C 328.632 374.605,329.256 375.632,329.570 386.620 C 329.759 393.204,329.921 394.824,330.475 395.668 L 331.151 396.697 339.075 396.891 C 354.030 397.258,353.000 395.179,353.000 425.000 C 353.000 451.176,353.059 450.758,349.180 452.135 C 345.281 453.519,333.017 453.604,329.325 452.272 C 325.230 450.795,319.110 450.000,311.835 450.000 C 304.632 450.000,303.230 449.556,299.547 446.112 L 297.600 444.291 297.600 437.776 L 297.600 431.262 295.700 429.634 L 293.800 428.005 287.800 428.007 C 284.500 428.008,281.088 428.126,280.217 428.270 C 277.183 428.771,279.989 429.143,287.025 429.172 L 293.850 429.200 294.925 430.322 C 295.999 431.442,296.000 431.452,296.000 437.739 L 296.000 444.034 297.854 446.017 C 298.981 447.221,300.807 448.549,302.508 449.399 L 305.307 450.800 312.154 450.805 C 319.869 450.811,323.379 451.634,327.349 454.365 C 329.730 456.003,329.512 454.921,329.727 466.200 C 329.827 471.480,330.133 476.970,330.406 478.400 L 330.903 481.000 340.352 480.976 C 345.548 480.963,350.284 480.827,350.875 480.675 C 351.480 480.519,352.060 480.573,352.199 480.799 C 352.336 481.019,352.752 481.186,353.124 481.168 C 353.544 481.149,353.610 481.060,353.298 480.934 C 353.021 480.823,352.892 480.575,353.010 480.383 C 353.129 480.192,353.461 480.125,353.749 480.236 C 354.036 480.346,354.526 480.113,354.836 479.718 C 355.332 479.087,355.325 479.048,354.781 479.400 C 354.260 479.737,354.263 479.705,354.797 479.200 C 355.640 478.404,355.628 478.549,355.853 466.609 C 355.961 460.893,356.087 456.180,356.133 456.133 C 356.180 456.087,360.893 455.961,366.609 455.853 C 378.549 455.628,378.404 455.640,379.200 454.797 C 379.705 454.263,379.737 454.260,379.400 454.781 C 379.048 455.325,379.087 455.332,379.718 454.836 C 380.113 454.526,380.346 454.036,380.236 453.749 C 380.125 453.461,380.192 453.129,380.383 453.010 C 380.575 452.892,380.823 453.021,380.934 453.298 C 381.060 453.610,381.149 453.544,381.168 453.124 C 381.186 452.752,381.013 452.331,380.784 452.190 C 380.555 452.048,380.478 451.584,380.613 451.159 C 380.748 450.733,380.859 438.961,380.859 425.000 C 380.859 411.039,380.748 399.267,380.613 398.841 C 380.478 398.416,380.555 397.952,380.784 397.810 C 381.013 397.669,381.186 397.248,381.168 396.876 C 381.149 396.456,381.060 396.390,380.934 396.702 C 380.823 396.979,380.575 397.108,380.383 396.990 C 380.192 396.871,380.125 396.539,380.236 396.251 C 380.346 395.964,380.113 395.474,379.718 395.164 C 379.087 394.668,379.048 394.675,379.400 395.219 C 379.737 395.740,379.705 395.737,379.200 395.203 C 378.404 394.360,378.549 394.372,366.609 394.147 C 360.893 394.039,356.180 393.913,356.133 393.867 C 356.087 393.820,355.961 389.107,355.853 383.391 C 355.628 371.451,355.640 371.596,354.797 370.800 C 354.263 370.295,354.260 370.263,354.781 370.600 C 355.325 370.952,355.332 370.913,354.836 370.282 C 354.526 369.887,354.036 369.654,353.749 369.764 C 353.461 369.875,353.129 369.808,353.010 369.617 C 352.892 369.425,353.021 369.177,353.298 369.066 C 353.610 368.940,353.544 368.851,353.124 368.832 C 352.752 368.814,352.331 368.987,352.190 369.216 C 352.048 369.445,351.633 369.543,351.266 369.433 C 350.068 369.074,345.127 368.941,338.140 369.081 M87.400 373.979 C 99.562 374.353,100.800 375.591,100.800 387.381 L 100.800 393.842 101.989 395.459 C 104.560 398.955,105.331 399.211,113.022 399.118 L 119.800 399.036 112.675 398.818 L 105.550 398.600 103.375 396.335 L 101.200 394.070 101.200 387.382 C 101.200 374.967,99.688 373.526,86.827 373.679 L 80.200 373.757 87.400 373.979 M304.000 374.384 C 299.633 375.888,298.800 377.969,298.800 387.382 L 298.800 394.070 296.625 396.335 L 294.450 398.600 287.325 398.818 L 280.200 399.036 286.978 399.118 C 294.669 399.211,295.440 398.955,298.011 395.459 L 299.200 393.842 299.200 387.381 C 299.200 375.591,300.438 374.353,312.600 373.979 L 319.800 373.757 313.000 373.692 C 307.252 373.636,305.860 373.743,304.000 374.384 M122.000 477.817 C 120.725 478.110,116.888 478.339,112.874 478.361 L 105.948 478.400 102.974 479.774 L 100.000 481.148 100.000 500.128 C 100.000 515.174,100.112 519.375,100.541 520.394 C 101.022 521.538,101.111 520.514,101.349 511.140 C 101.496 505.343,101.803 499.520,102.032 498.200 C 102.261 496.880,102.544 492.511,102.662 488.490 L 102.877 481.181 104.138 480.490 C 105.154 479.935,106.880 479.753,113.000 479.560 C 120.405 479.326,123.905 478.724,124.623 477.563 C 124.880 477.148,124.928 477.143,122.000 477.817 M275.350 477.520 C 276.095 478.725,279.511 479.323,287.000 479.560 C 293.120 479.753,294.846 479.935,295.862 480.490 L 297.123 481.181 297.338 488.490 C 297.456 492.511,297.739 496.880,297.968 498.200 C 298.197 499.520,298.504 505.343,298.651 511.140 C 298.889 520.514,298.978 521.538,299.459 520.394 C 299.888 519.375,300.000 515.174,300.000 500.128 L 300.000 481.148 297.026 479.774 L 294.052 478.400 287.481 478.400 C 281.635 478.400,278.199 478.090,275.850 477.350 C 275.396 477.208,275.199 477.274,275.350 477.520 M176.368 497.793 C 174.701 498.074,172.333 498.595,171.107 498.952 C 169.478 499.425,167.211 499.600,162.700 499.600 C 155.602 499.600,155.720 499.547,154.390 503.333 C 153.730 505.209,153.598 506.655,153.588 512.090 C 153.576 518.298,153.529 518.674,152.590 520.200 C 151.122 522.582,151.386 522.777,153.400 520.800 L 155.200 519.033 155.200 512.663 C 155.200 508.993,155.396 505.637,155.663 504.746 L 156.127 503.200 162.431 503.200 C 168.573 503.200,168.863 503.161,173.668 501.700 L 178.600 500.200 200.000 500.200 L 221.400 500.200 226.332 501.700 C 231.137 503.161,231.427 503.200,237.569 503.200 L 243.873 503.200 244.337 504.746 C 244.604 505.637,244.800 508.993,244.800 512.663 L 244.800 519.033 246.600 520.800 C 248.614 522.777,248.878 522.582,247.410 520.200 C 246.471 518.674,246.424 518.298,246.412 512.090 C 246.402 506.655,246.270 505.209,245.610 503.333 C 244.279 499.544,244.405 499.601,237.238 499.596 C 232.809 499.593,230.420 499.415,229.000 498.983 C 223.788 497.397,220.486 497.202,199.600 497.243 C 185.229 497.271,178.525 497.429,176.368 497.793 " stroke="none" fill="#7c4444" fill-rule="evenodd"></path><path id="path8" d="M145.369 95.355 C 144.403 96.343,144.211 96.806,144.436 97.600 C 144.896 99.219,144.878 99.938,144.396 99.200 C 144.114 98.768,144.022 99.129,144.066 100.484 C 144.101 101.520,144.260 102.286,144.421 102.187 C 144.583 102.087,144.558 102.679,144.367 103.503 C 144.176 104.326,144.015 108.105,144.010 111.900 L 144.000 118.800 123.700 118.802 C 102.693 118.805,99.519 119.008,101.063 120.251 C 101.750 120.803,101.738 120.814,100.900 120.408 C 100.405 120.168,100.000 119.811,100.000 119.615 C 100.000 118.816,98.128 118.937,95.600 119.899 C 95.270 120.024,94.852 120.094,94.670 120.054 C 94.489 120.013,94.467 120.185,94.622 120.435 C 94.776 120.685,94.716 121.005,94.489 121.145 C 94.209 121.318,94.242 121.888,94.590 122.901 C 94.874 123.725,94.962 124.400,94.786 124.400 C 94.610 124.400,94.389 124.175,94.294 123.900 C 94.199 123.625,94.089 127.895,94.051 133.390 C 94.012 138.884,93.845 143.515,93.680 143.680 C 93.515 143.845,88.884 144.012,83.390 144.051 C 77.895 144.089,73.625 144.199,73.900 144.294 C 74.175 144.389,74.400 144.610,74.400 144.786 C 74.400 144.962,73.725 144.874,72.901 144.590 C 71.888 144.242,71.318 144.209,71.145 144.489 C 71.005 144.716,70.685 144.776,70.435 144.622 C 70.185 144.467,70.013 144.489,70.054 144.670 C 70.094 144.852,70.024 145.270,69.899 145.600 C 68.937 148.128,68.816 150.000,69.615 150.000 C 69.811 150.000,70.168 150.405,70.408 150.900 C 70.814 151.738,70.803 151.750,70.251 151.063 C 69.223 149.787,68.805 152.688,68.802 161.100 L 68.800 168.800 61.100 168.802 C 52.688 168.805,49.787 169.223,51.063 170.251 C 51.750 170.803,51.738 170.814,50.900 170.408 C 50.405 170.168,50.000 169.811,50.000 169.615 C 50.000 168.816,48.128 168.937,45.600 169.899 C 45.270 170.024,44.852 170.094,44.670 170.054 C 44.489 170.013,44.467 170.185,44.622 170.435 C 44.776 170.685,44.716 171.005,44.489 171.145 C 44.209 171.318,44.242 171.888,44.590 172.901 C 45.048 174.232,44.757 175.154,44.274 173.900 C 44.169 173.625,44.060 194.834,44.033 221.032 C 43.989 263.761,44.049 268.820,44.621 270.188 C 45.680 272.722,46.057 282.997,45.894 304.897 C 45.741 325.560,45.640 327.100,44.209 330.500 C 43.711 331.682,44.804 331.308,46.214 329.812 C 48.347 327.551,48.566 325.242,48.195 308.943 C 47.794 291.331,47.651 273.503,47.893 271.328 C 48.146 269.051,48.044 269.073,59.200 268.889 C 64.590 268.801,69.043 268.687,69.095 268.636 C 69.147 268.585,69.197 246.443,69.206 219.432 C 69.219 179.160,69.318 170.225,69.753 169.789 C 70.169 169.374,72.833 169.251,82.014 169.224 C 88.465 169.206,93.789 169.144,93.846 169.087 C 93.903 169.031,94.005 163.414,94.075 156.606 L 94.200 144.227 95.600 144.157 C 96.370 144.118,107.575 144.067,120.500 144.043 L 144.000 144.000 144.000 132.475 C 144.000 121.430,144.034 120.914,144.816 120.075 L 145.631 119.200 200.000 119.200 L 254.369 119.200 255.184 120.075 C 255.966 120.914,256.000 121.430,256.000 132.475 L 256.000 144.000 279.500 144.043 C 292.425 144.067,303.630 144.118,304.400 144.157 L 305.800 144.227 305.925 156.606 C 305.995 163.414,306.097 169.031,306.154 169.087 C 306.211 169.144,311.535 169.206,317.986 169.224 C 327.167 169.251,329.831 169.374,330.247 169.789 C 330.682 170.225,330.781 179.160,330.794 219.432 C 330.803 246.443,330.853 268.585,330.905 268.636 C 330.957 268.687,335.410 268.801,340.800 268.889 C 351.956 269.073,351.854 269.051,352.107 271.328 C 352.349 273.503,352.206 291.331,351.805 308.943 C 351.434 325.242,351.653 327.551,353.786 329.812 C 355.196 331.308,356.289 331.682,355.791 330.500 C 354.360 327.100,354.259 325.560,354.106 304.897 C 353.943 282.997,354.320 272.722,355.379 270.188 C 355.951 268.820,356.011 263.761,355.967 221.032 C 355.940 194.834,355.831 173.625,355.726 173.900 C 355.243 175.154,354.952 174.232,355.410 172.901 C 355.758 171.888,355.791 171.318,355.511 171.145 C 355.284 171.005,355.224 170.685,355.378 170.435 C 355.533 170.185,355.511 170.013,355.330 170.054 C 355.148 170.094,354.730 170.024,354.400 169.899 C 351.872 168.937,350.000 168.816,350.000 169.615 C 350.000 169.811,349.595 170.168,349.100 170.408 C 348.262 170.814,348.250 170.803,348.937 170.251 C 350.213 169.223,347.312 168.805,338.900 168.802 L 331.200 168.800 331.198 161.100 C 331.197 156.865,331.014 152.747,330.793 151.949 C 330.551 151.080,330.530 150.118,330.740 149.551 C 331.055 148.698,330.889 147.671,330.101 145.600 C 329.976 145.270,329.906 144.852,329.946 144.670 C 329.987 144.489,329.815 144.467,329.565 144.622 C 329.315 144.776,328.995 144.716,328.855 144.489 C 328.682 144.209,328.112 144.242,327.099 144.590 C 326.275 144.874,325.600 144.962,325.600 144.786 C 325.600 144.610,325.825 144.389,326.100 144.294 C 326.375 144.199,322.105 144.089,316.610 144.051 C 311.116 144.012,306.485 143.845,306.320 143.680 C 306.155 143.515,305.988 138.884,305.949 133.390 C 305.911 127.895,305.801 123.625,305.706 123.900 C 305.611 124.175,305.390 124.400,305.214 124.400 C 305.038 124.400,305.126 123.725,305.410 122.901 C 305.758 121.888,305.791 121.318,305.511 121.145 C 305.284 121.005,305.224 120.685,305.378 120.435 C 305.533 120.185,305.511 120.013,305.330 120.054 C 305.148 120.094,304.730 120.024,304.400 119.899 C 301.872 118.937,300.000 118.816,300.000 119.615 C 300.000 119.811,299.595 120.168,299.100 120.408 C 298.262 120.814,298.250 120.803,298.937 120.251 C 300.481 119.008,297.307 118.805,276.300 118.802 L 256.000 118.800 255.990 111.900 C 255.985 108.105,255.824 104.326,255.633 103.503 C 255.442 102.679,255.417 102.087,255.579 102.187 C 255.740 102.286,255.899 101.520,255.934 100.484 C 255.978 99.129,255.886 98.768,255.604 99.200 C 255.117 99.947,255.092 99.370,255.545 97.791 C 256.016 96.151,253.986 93.986,252.400 94.436 C 250.781 94.896,250.062 94.878,250.800 94.396 C 251.232 94.114,250.871 94.022,249.516 94.066 C 248.480 94.101,247.714 94.260,247.813 94.421 C 247.913 94.583,247.321 94.558,246.497 94.367 C 245.674 94.176,224.750 94.019,200.000 94.019 C 175.250 94.019,154.326 94.176,153.503 94.367 C 152.679 94.558,152.087 94.583,152.187 94.421 C 152.286 94.260,151.520 94.101,150.484 94.066 C 149.129 94.022,148.768 94.114,149.200 94.396 C 149.947 94.883,149.370 94.908,147.791 94.455 C 146.741 94.154,146.431 94.269,145.369 95.355 M147.371 95.106 C 147.135 95.268,146.825 95.715,146.683 96.100 C 146.541 96.485,146.164 96.800,145.846 96.800 C 145.527 96.800,145.176 97.025,145.065 97.300 C 144.908 97.688,144.856 97.684,144.832 97.282 C 144.791 96.622,146.597 94.798,147.282 94.806 C 147.626 94.810,147.656 94.911,147.371 95.106 M254.218 95.782 C 254.758 96.322,255.197 96.997,255.194 97.282 C 255.190 97.626,255.089 97.656,254.894 97.371 C 254.732 97.135,254.285 96.825,253.900 96.683 C 253.515 96.541,253.200 96.164,253.200 95.846 C 253.200 95.527,252.975 95.176,252.700 95.065 C 252.312 94.908,252.316 94.856,252.718 94.832 C 253.003 94.814,253.678 95.242,254.218 95.782 M78.250 346.844 C 74.062 347.828,71.378 349.927,69.706 353.526 C 68.454 356.220,68.593 356.318,71.548 354.826 C 77.781 351.680,79.888 351.200,87.468 351.200 L 94.383 351.200 96.601 353.418 L 98.819 355.637 98.710 362.318 L 98.600 369.000 97.000 369.790 C 94.070 371.236,75.833 370.995,70.671 369.441 C 68.650 368.833,68.329 369.129,69.616 370.416 C 71.174 371.974,72.298 372.107,86.083 372.365 C 103.814 372.697,102.301 371.508,102.664 385.400 L 102.894 394.200 104.328 395.700 L 105.762 397.200 111.861 397.200 C 119.853 397.200,125.484 398.357,129.317 400.788 L 131.228 402.000 137.514 402.001 C 147.322 402.004,147.995 402.685,148.000 412.600 C 148.003 419.582,148.270 420.560,150.755 422.701 C 153.612 425.162,150.140 425.000,200.000 425.000 C 249.860 425.000,246.388 425.162,249.245 422.701 C 251.730 420.560,251.997 419.582,252.000 412.600 C 252.005 402.685,252.678 402.004,262.486 402.001 L 268.772 402.000 270.683 400.788 C 274.516 398.357,280.147 397.200,288.139 397.200 L 294.238 397.200 295.672 395.700 L 297.106 394.200 297.336 385.400 C 297.699 371.508,296.186 372.697,313.917 372.365 C 327.702 372.107,328.826 371.974,330.384 370.416 C 331.671 369.129,331.350 368.833,329.329 369.441 C 324.167 370.995,305.930 371.236,303.000 369.790 L 301.400 369.000 301.290 362.318 L 301.181 355.637 303.399 353.418 L 305.617 351.200 312.532 351.200 C 320.112 351.200,322.219 351.680,328.452 354.826 C 331.407 356.318,331.546 356.220,330.294 353.526 C 327.649 347.833,324.139 346.425,312.546 346.410 C 298.605 346.391,296.783 348.122,296.415 361.736 C 296.126 372.413,298.833 371.200,275.282 371.200 C 247.224 371.200,246.400 371.649,246.400 386.937 L 246.400 393.843 245.081 395.122 L 243.762 396.400 199.959 396.400 L 156.157 396.400 154.878 395.081 L 153.600 393.762 153.600 386.896 C 153.600 371.655,152.763 371.200,124.718 371.200 C 101.167 371.200,103.874 372.413,103.585 361.736 C 103.300 351.219,102.176 348.812,96.725 347.052 C 94.456 346.319,81.126 346.169,78.250 346.844 M146.432 378.368 L 148.800 380.736 148.800 387.606 C 148.800 397.893,148.688 398.000,137.890 398.000 C 132.782 398.000,130.455 397.843,129.244 397.415 C 126.190 396.338,119.471 395.600,112.718 395.600 C 103.787 395.600,104.291 396.165,104.468 386.340 C 104.579 380.160,104.718 378.763,105.346 377.500 L 106.091 376.000 125.078 376.000 L 144.064 376.000 146.432 378.368 M294.654 377.500 C 295.282 378.763,295.421 380.160,295.532 386.340 C 295.709 396.165,296.213 395.600,287.282 395.600 C 280.529 395.600,273.810 396.338,270.756 397.415 C 269.545 397.843,267.218 398.000,262.110 398.000 C 251.312 398.000,251.200 397.893,251.200 387.606 L 251.200 380.736 253.568 378.368 L 255.936 376.000 274.922 376.000 L 293.909 376.000 294.654 377.500 M245.632 401.882 C 247.699 403.104,248.000 404.389,248.000 411.999 C 248.000 419.665,247.826 420.254,245.046 421.972 C 243.712 422.796,243.503 422.800,200.000 422.800 C 151.029 422.800,154.959 423.032,152.807 420.010 C 150.715 417.072,151.842 403.427,154.302 401.902 C 155.998 400.851,243.853 400.832,245.632 401.882 M105.867 430.667 C 105.720 430.813,105.600 433.741,105.600 437.173 C 105.600 448.894,101.254 452.400,86.723 452.400 C 79.596 452.400,77.233 452.866,73.137 455.080 L 71.275 456.086 71.112 466.943 C 70.950 477.821,70.766 479.291,69.398 480.659 C 68.899 481.158,68.808 482.788,68.846 490.529 C 68.872 495.628,68.976 499.483,69.077 499.095 C 69.186 498.676,69.451 498.509,69.730 498.682 C 70.381 499.087,71.937 499.142,83.671 499.173 L 93.943 499.200 94.836 501.500 C 95.623 503.525,95.768 504.899,96.050 513.000 C 96.228 518.100,96.667 523.983,97.037 526.200 C 97.413 528.453,97.812 533.868,97.952 538.600 C 98.373 552.879,96.163 551.800,125.000 551.800 C 153.757 551.800,151.703 552.760,151.932 539.206 L 152.064 531.412 154.070 528.706 L 156.076 526.000 162.974 526.000 C 172.108 526.000,176.104 526.949,180.058 530.055 L 181.515 531.200 200.000 531.200 L 218.485 531.200 219.942 530.055 C 223.896 526.949,227.892 526.000,237.026 526.000 L 243.924 526.000 245.930 528.706 L 247.936 531.412 248.068 539.206 C 248.297 552.760,246.243 551.800,275.000 551.800 C 303.837 551.800,301.627 552.879,302.048 538.600 C 302.188 533.868,302.587 528.453,302.963 526.200 C 303.333 523.983,303.772 518.100,303.950 513.000 C 304.232 504.899,304.377 503.525,305.164 501.500 L 306.057 499.200 316.329 499.173 C 328.063 499.142,329.619 499.087,330.270 498.682 C 330.549 498.509,330.814 498.676,330.923 499.095 C 331.024 499.483,331.128 495.628,331.154 490.529 C 331.192 482.788,331.101 481.158,330.602 480.659 C 329.234 479.291,329.050 477.821,328.888 466.943 L 328.725 456.086 326.863 455.080 C 322.770 452.868,320.403 452.400,313.296 452.400 C 298.776 452.400,294.747 449.202,294.400 437.400 L 294.200 430.600 287.881 430.490 C 284.289 430.427,280.879 430.563,279.981 430.805 L 278.400 431.231 278.400 437.458 C 278.400 443.547,278.378 443.711,277.381 444.896 C 273.737 449.226,271.055 465.122,273.258 469.326 C 274.359 471.427,276.243 473.297,278.571 474.599 L 281.077 476.000 287.838 476.005 L 294.600 476.010 297.641 477.337 C 299.313 478.068,301.518 479.266,302.541 480.000 L 304.400 481.336 304.400 487.288 C 304.400 491.629,304.247 493.535,303.836 494.331 C 302.347 497.210,301.947 500.162,301.603 510.800 C 301.405 516.920,300.986 523.091,300.612 525.400 C 300.181 528.061,299.974 531.714,299.994 536.313 C 300.056 550.318,300.636 550.000,275.000 550.000 C 249.491 550.000,250.000 550.269,250.000 536.804 L 250.000 530.301 248.151 527.251 C 247.134 525.573,245.782 523.542,245.147 522.737 L 243.992 521.275 236.496 521.107 C 230.600 520.975,228.530 520.781,226.800 520.200 C 223.442 519.071,223.600 519.457,223.600 512.404 L 223.600 506.107 221.547 505.253 C 218.348 503.924,181.652 503.924,178.453 505.253 L 176.400 506.107 176.400 512.404 C 176.400 519.457,176.558 519.071,173.200 520.200 C 171.470 520.781,169.400 520.975,163.504 521.107 L 156.008 521.275 154.853 522.737 C 154.218 523.542,152.866 525.573,151.849 527.251 L 150.000 530.301 150.000 536.804 C 150.000 550.269,150.509 550.000,125.000 550.000 C 99.364 550.000,99.944 550.318,100.006 536.313 C 100.026 531.714,99.819 528.061,99.388 525.400 C 99.014 523.091,98.595 516.920,98.397 510.800 C 98.053 500.162,97.653 497.210,96.164 494.331 C 95.753 493.535,95.600 491.629,95.600 487.288 L 95.600 481.336 97.459 480.000 C 98.482 479.266,100.687 478.068,102.359 477.337 L 105.400 476.010 112.162 476.005 L 118.923 476.000 121.429 474.599 C 123.757 473.297,125.641 471.427,126.742 469.326 C 128.945 465.122,126.263 449.226,122.619 444.896 C 121.623 443.711,121.600 443.547,121.600 437.461 L 121.600 431.238 120.100 430.821 C 118.463 430.366,106.299 430.235,105.867 430.667 M119.959 450.615 C 122.816 453.869,123.200 455.276,123.200 462.498 C 123.200 468.241,123.116 469.093,122.495 469.611 C 122.107 469.935,121.193 470.695,120.464 471.300 L 119.139 472.400 112.532 472.400 C 105.137 472.400,99.487 473.278,95.652 475.023 C 92.271 476.561,81.744 476.510,79.694 474.946 C 77.186 473.033,76.819 471.559,76.809 463.352 L 76.800 456.105 79.226 455.052 C 81.542 454.048,81.977 454.000,88.726 453.993 C 98.360 453.984,102.572 453.022,105.170 450.239 C 106.134 449.206,106.173 449.200,112.428 449.200 L 118.717 449.200 119.959 450.615 M294.830 450.239 C 297.428 453.022,301.640 453.984,311.274 453.993 C 318.023 454.000,318.458 454.048,320.774 455.052 L 323.200 456.105 323.191 463.352 C 323.181 471.559,322.814 473.033,320.306 474.946 C 318.256 476.510,307.729 476.561,304.348 475.023 C 300.513 473.278,294.863 472.400,287.468 472.400 L 280.861 472.400 279.536 471.300 C 278.807 470.695,277.893 469.935,277.505 469.611 C 276.884 469.093,276.800 468.241,276.800 462.498 C 276.800 455.276,277.184 453.869,280.041 450.615 L 281.283 449.200 287.572 449.200 C 293.827 449.200,293.866 449.206,294.830 450.239 " stroke="none" fill="#4c3434" fill-rule="evenodd"></path></g></svg>