<svg id="svg" version="1.1" xmlns="http://www.w3.org/2000/svg" xmlns:xlink="http://www.w3.org/1999/xlink" width="400" height="600" viewBox="0, 0, 400,600"><g id="svgg"><path id="path0" d="M104.604 180.068 L 103.537 181.336 103.669 188.368 C 103.798 195.313,103.815 195.427,105.000 197.600 L 106.200 199.800 112.743 199.910 C 120.273 200.037,121.466 200.499,123.954 204.256 L 125.200 206.137 125.200 212.609 L 125.200 219.080 126.401 220.739 C 127.062 221.651,128.349 222.938,129.261 223.599 L 130.920 224.800 200.000 224.800 L 269.080 224.800 270.739 223.599 C 271.651 222.938,272.938 221.651,273.599 220.739 L 274.800 219.080 274.800 212.609 L 274.800 206.137 276.046 204.256 C 278.534 200.499,279.727 200.037,287.257 199.910 L 293.800 199.800 295.000 197.600 C 296.185 195.427,296.202 195.313,296.331 188.368 L 296.463 181.336 295.396 180.068 L 294.329 178.800 274.664 178.800 L 255.000 178.801 252.500 179.983 L 250.000 181.166 250.000 187.723 L 250.000 194.280 248.799 195.939 C 248.138 196.851,246.851 198.138,245.939 198.799 L 244.280 200.000 200.000 200.000 L 155.720 200.000 154.061 198.799 C 153.149 198.138,151.862 196.851,151.201 195.939 L 150.000 194.280 150.000 187.723 L 150.000 181.166 147.500 179.983 L 145.000 178.801 125.336 178.800 L 105.671 178.800 104.604 180.068 M54.791 279.078 L 53.600 280.957 53.600 300.003 L 53.600 319.050 54.722 320.125 L 55.844 321.200 62.580 321.200 C 69.240 321.200,69.336 321.188,71.057 320.100 L 72.799 319.000 72.799 299.847 L 72.800 280.695 71.053 278.947 L 69.305 277.200 62.644 277.200 L 55.982 277.200 54.791 279.078 M328.947 278.947 L 327.200 280.695 327.201 299.847 L 327.201 319.000 328.943 320.100 C 330.664 321.188,330.760 321.200,337.420 321.200 L 344.156 321.200 345.278 320.125 L 346.400 319.050 346.400 300.003 L 346.400 280.957 345.209 279.078 L 344.018 277.200 337.356 277.200 L 330.695 277.200 328.947 278.947 M69.669 280.262 C 70.358 280.886,70.400 282.022,70.400 299.839 L 70.400 318.755 69.511 319.377 C 68.368 320.178,56.461 320.301,55.680 319.520 C 55.048 318.888,54.986 281.548,55.614 280.374 C 56.199 279.280,68.476 279.183,69.669 280.262 M344.386 280.374 C 345.014 281.548,344.952 318.888,344.320 319.520 C 343.539 320.301,331.632 320.178,330.489 319.377 L 329.600 318.755 329.600 299.909 C 329.600 282.934,329.666 280.990,330.262 280.331 C 331.299 279.185,343.770 279.222,344.386 280.374 M179.800 300.643 C 175.789 302.821,175.200 304.320,175.200 312.342 L 175.200 318.710 173.900 320.655 C 173.185 321.725,171.725 323.185,170.655 323.900 L 168.710 325.200 162.381 325.200 C 151.545 325.200,150.000 326.722,150.000 337.397 C 150.000 347.627,150.068 347.688,161.800 347.992 C 167.610 348.143,170.074 348.354,170.800 348.762 C 173.021 350.011,174.526 351.448,175.630 353.373 L 176.792 355.400 176.796 362.885 C 176.800 370.800,176.263 374.473,174.417 379.156 C 173.714 380.940,173.600 382.127,173.600 387.659 L 173.600 394.088 172.324 396.481 C 170.102 400.651,169.728 400.800,161.488 400.800 C 150.810 400.800,151.061 400.553,150.864 411.272 L 150.726 418.743 152.463 419.872 L 154.200 421.000 200.000 421.000 L 245.800 421.000 247.537 419.872 L 249.274 418.743 249.136 411.272 C 248.939 400.553,249.190 400.800,238.512 400.800 C 230.272 400.800,229.898 400.651,227.676 396.481 L 226.400 394.088 226.400 387.659 C 226.400 382.121,226.286 380.941,225.580 379.150 C 223.859 374.783,223.508 372.408,223.219 363.200 C 222.806 349.999,222.807 350.000,212.378 350.000 C 204.706 350.000,203.356 349.436,200.674 345.114 C 198.846 342.169,200.003 327.860,202.635 320.869 C 204.678 315.441,203.915 305.055,201.300 302.690 C 198.688 300.328,183.112 298.845,179.800 300.643 M254.363 300.931 C 253.393 301.443,252.060 302.627,251.400 303.564 L 250.200 305.266 250.000 312.398 L 249.800 319.529 248.562 321.065 C 247.882 321.909,246.563 323.185,245.631 323.900 L 243.938 325.200 237.353 325.200 C 226.336 325.200,225.200 326.355,225.200 337.561 C 225.200 347.904,224.977 347.700,236.600 347.996 C 246.614 348.251,248.561 349.104,251.212 354.392 C 252.177 356.317,252.188 373.160,251.229 378.200 C 250.738 380.775,250.687 395.250,251.164 396.504 C 252.285 399.453,265.205 400.236,273.200 397.840 C 276.735 396.781,277.586 396.690,285.400 396.535 L 293.800 396.369 296.500 395.107 L 299.200 393.845 299.200 387.606 C 299.200 383.753,298.932 379.538,298.500 376.583 C 297.890 372.414,297.816 369.194,297.927 351.512 L 298.054 331.224 296.172 329.212 L 294.291 327.200 287.728 327.200 L 281.166 327.200 279.236 325.395 C 278.174 324.402,276.742 322.532,276.053 321.239 L 274.800 318.888 274.800 312.470 C 274.800 304.349,274.190 302.756,270.316 300.763 C 267.895 299.518,256.819 299.634,254.363 300.931 M195.820 303.966 C 196.930 304.603,198.070 305.402,198.352 305.742 C 199.058 306.592,198.725 319.646,197.861 325.000 C 197.428 327.684,197.213 331.579,197.208 336.836 L 197.200 344.672 198.427 347.128 C 200.747 351.770,203.171 352.779,212.030 352.791 C 221.242 352.803,221.194 352.746,221.213 363.874 C 221.221 368.496,221.468 373.098,221.853 375.800 C 222.197 378.220,222.601 383.980,222.749 388.600 C 223.197 402.556,224.555 404.000,237.220 404.000 C 243.864 404.000,243.952 404.011,245.169 405.036 L 246.400 406.071 246.400 412.430 L 246.400 418.789 244.951 419.395 C 242.761 420.310,157.239 420.310,155.049 419.395 L 153.600 418.789 153.600 412.430 L 153.600 406.071 154.831 405.036 C 156.048 404.011,156.136 404.000,162.780 404.000 C 175.445 404.000,176.803 402.556,177.251 388.600 C 177.399 383.980,177.803 378.220,178.147 375.800 C 179.015 369.705,179.034 356.132,178.177 353.249 C 176.561 347.806,173.398 346.298,163.000 346.010 C 155.870 345.813,155.320 345.743,154.100 344.873 L 152.800 343.946 152.800 337.526 L 152.800 331.106 154.353 329.553 L 155.906 328.000 162.338 328.000 C 175.043 328.000,178.000 325.043,178.000 312.338 L 178.000 305.906 179.553 304.353 L 181.106 302.800 187.453 302.804 C 193.720 302.807,193.825 302.822,195.820 303.966 M270.306 304.168 L 271.800 305.536 272.000 312.868 C 272.369 326.414,275.379 329.600,287.802 329.600 C 296.491 329.600,295.490 326.362,295.777 355.400 C 295.907 368.600,296.112 382.584,296.232 386.477 L 296.451 393.553 295.326 394.123 C 294.495 394.544,291.684 394.762,284.600 394.956 C 279.320 395.100,274.010 395.407,272.800 395.638 C 271.590 395.868,267.345 396.151,263.367 396.266 L 256.133 396.474 255.067 395.206 L 254.000 393.939 254.000 375.011 C 254.000 346.969,253.446 346.000,237.417 346.000 C 231.308 346.000,230.837 345.945,229.559 345.085 L 228.200 344.169 228.090 337.612 L 227.979 331.055 229.471 329.527 L 230.962 328.000 237.581 328.000 C 250.035 327.999,252.775 325.299,252.791 313.015 L 252.800 306.230 254.483 304.515 L 256.167 302.800 262.489 302.800 L 268.812 302.800 270.306 304.168 M103.828 329.212 L 101.946 331.224 102.073 351.512 C 102.184 369.194,102.110 372.414,101.500 376.583 C 101.068 379.538,100.800 383.753,100.800 387.606 L 100.800 393.845 103.500 395.107 L 106.200 396.369 114.600 396.535 C 122.414 396.690,123.265 396.781,126.800 397.840 C 134.795 400.236,147.715 399.453,148.836 396.504 C 149.339 395.182,149.290 381.137,148.772 378.200 C 148.539 376.880,148.219 370.850,148.060 364.800 C 147.657 349.508,148.252 350.304,137.000 349.992 C 128.682 349.761,127.946 349.577,125.266 347.055 C 122.948 344.875,122.800 344.280,122.800 337.167 L 122.800 330.695 121.053 328.947 L 119.305 327.200 112.507 327.200 L 105.709 327.200 103.828 329.212 M119.706 330.300 C 120.218 330.869,120.362 332.348,120.473 338.200 C 120.721 351.232,122.451 352.800,136.573 352.800 L 143.971 352.800 144.986 354.293 L 146.000 355.786 146.000 374.862 L 146.000 393.939 144.933 395.206 L 143.867 396.474 136.633 396.266 C 132.655 396.151,128.410 395.868,127.200 395.638 C 125.990 395.407,120.680 395.100,115.400 394.956 C 108.316 394.762,105.505 394.544,104.674 394.123 L 103.549 393.553 103.768 386.477 C 103.888 382.584,104.093 368.600,104.223 355.400 C 104.457 331.737,104.472 331.387,105.300 330.500 C 106.455 329.262,118.620 329.093,119.706 330.300 M28.950 376.873 C 25.829 379.108,25.980 377.899,26.096 399.799 L 26.200 419.337 28.000 420.257 L 29.800 421.177 49.518 421.189 L 69.236 421.200 70.218 420.218 C 71.171 419.265,71.200 419.064,71.207 413.318 C 71.215 407.057,71.934 400.845,73.072 397.200 C 73.582 395.569,73.795 393.182,73.897 387.973 L 74.034 380.946 71.842 379.873 C 69.757 378.852,69.351 378.800,63.525 378.793 C 57.074 378.785,50.876 378.077,47.200 376.927 C 43.392 375.736,30.591 375.698,28.950 376.873 M46.400 379.235 C 47.390 379.455,52.880 379.739,58.600 379.867 C 66.354 380.040,69.280 380.242,70.100 380.660 L 71.200 381.221 71.183 387.910 C 71.173 391.590,70.986 395.410,70.766 396.400 C 70.547 397.390,70.264 402.790,70.137 408.400 C 69.948 416.777,69.797 418.725,69.292 419.300 C 68.413 420.300,31.901 420.383,29.980 419.390 L 28.800 418.779 28.800 399.912 L 28.800 381.044 29.875 379.922 L 30.950 378.800 37.775 378.817 C 41.529 378.827,45.410 379.015,46.400 379.235 M79.806 429.757 C 78.808 430.756,78.800 430.816,78.800 437.795 C 78.800 448.979,78.969 449.200,87.502 449.200 C 94.546 449.200,95.317 448.981,98.220 446.160 L 100.000 444.430 100.000 437.793 L 100.000 431.156 97.700 430.080 C 95.510 429.055,95.053 428.998,88.106 428.877 L 80.813 428.751 79.806 429.757 M277.803 429.653 C 274.682 430.919,274.800 430.616,274.800 437.349 C 274.799 441.322,274.582 444.430,274.168 446.400 C 272.441 454.615,273.048 473.145,275.254 479.557 C 275.854 481.301,276.000 482.913,276.000 487.802 L 276.000 493.880 278.684 496.551 L 281.368 499.222 300.616 499.111 L 319.863 499.000 321.332 497.879 C 323.787 496.007,324.000 495.222,324.000 488.070 C 324.000 483.282,324.156 481.266,324.630 479.950 C 327.514 471.937,327.652 454.661,324.901 446.200 C 324.456 444.835,324.179 442.052,324.025 437.431 L 323.800 430.661 322.000 429.742 L 320.200 428.823 300.000 428.833 C 280.659 428.843,279.715 428.878,277.803 429.653 M94.469 430.662 C 95.541 431.633,95.566 443.291,94.500 445.165 L 93.800 446.395 87.480 446.397 L 81.159 446.400 80.580 445.013 C 79.690 442.885,79.755 431.734,80.662 430.731 C 81.612 429.682,93.320 429.623,94.469 430.662 M319.993 430.597 L 321.147 431.193 321.309 437.897 C 321.433 443.065,321.711 445.790,322.523 449.800 C 324.311 458.625,323.901 472.111,321.607 479.997 C 321.383 480.766,321.200 484.245,321.200 487.728 L 321.200 494.062 320.031 495.231 L 318.862 496.400 300.150 496.400 L 281.438 496.400 280.119 495.122 L 278.800 493.843 278.800 487.679 C 278.800 483.636,278.602 480.739,278.225 479.258 C 275.804 469.744,275.769 458.239,278.134 449.800 C 279.543 444.772,279.592 444.379,279.596 437.923 C 279.600 431.478,279.631 431.224,280.489 430.623 C 281.797 429.706,318.225 429.682,319.993 430.597 M166.200 451.041 C 164.573 451.636,163.276 452.764,162.455 454.297 C 161.360 456.343,161.875 468.447,163.143 470.445 C 166.777 476.176,170.700 476.268,174.248 470.708 C 175.759 468.340,175.697 454.794,174.167 453.054 C 172.253 450.877,168.939 450.040,166.200 451.041 M191.363 451.044 C 190.463 451.363,189.203 452.171,188.563 452.838 L 187.400 454.052 187.137 474.726 C 186.992 486.097,186.838 495.813,186.796 496.318 C 186.396 501.012,189.064 502.200,200.000 502.200 C 210.936 502.200,213.604 501.012,213.204 496.318 C 213.162 495.813,213.008 486.097,212.863 474.726 L 212.600 454.052 211.442 452.844 C 209.130 450.431,196.325 449.284,191.363 451.044 M228.721 451.172 C 224.995 452.629,224.827 453.082,224.813 461.708 C 224.798 470.659,225.214 471.746,229.738 474.560 C 231.663 475.758,234.545 474.092,236.857 470.445 C 238.125 468.447,238.640 456.343,237.545 454.297 C 235.784 451.007,232.299 449.773,228.721 451.172 M172.700 454.857 L 174.800 456.059 174.800 462.449 C 174.800 469.681,174.680 470.103,171.889 472.675 C 169.084 475.261,168.664 475.269,165.741 472.789 C 162.723 470.227,162.400 469.240,162.400 462.569 C 162.400 455.677,162.218 456.083,166.195 454.091 C 168.872 452.751,169.056 452.772,172.700 454.857 M207.327 453.395 C 208.111 453.723,209.573 454.486,210.576 455.092 L 212.400 456.194 212.400 475.016 L 212.400 493.838 210.900 495.272 C 207.469 498.554,206.709 498.800,200.000 498.800 C 193.291 498.800,192.531 498.554,189.100 495.272 L 187.600 493.838 187.600 475.015 L 187.600 456.192 188.500 455.624 C 193.091 452.721,202.928 451.557,207.327 453.395 M236.900 455.907 C 237.509 456.443,237.600 457.314,237.600 462.569 C 237.600 469.794,237.086 470.938,232.310 474.339 C 231.221 475.115,229.642 474.355,227.432 471.992 C 225.170 469.574,225.147 469.471,225.286 462.035 L 225.400 455.870 228.316 454.337 L 231.232 452.805 233.716 454.047 C 235.082 454.731,236.515 455.568,236.900 455.907 M104.290 502.205 L 102.400 506.011 102.400 512.591 L 102.400 519.171 103.893 520.186 C 106.609 522.031,123.835 521.640,126.100 519.681 C 127.394 518.562,127.124 506.597,125.759 504.556 C 122.148 499.157,120.531 498.400,112.612 498.400 L 106.181 498.400 104.290 502.205 M120.083 504.681 L 121.600 506.162 121.600 512.502 L 121.600 518.841 120.213 519.420 C 118.156 520.280,106.529 520.246,105.289 519.377 C 103.923 518.420,103.930 507.484,105.298 504.900 L 106.199 503.200 112.382 503.200 L 118.566 503.200 120.083 504.681 M130.319 523.900 C 127.709 526.918,128.315 549.114,131.036 550.158 C 132.370 550.670,168.613 550.426,169.306 549.900 C 169.669 549.625,170.618 548.071,171.415 546.446 L 172.864 543.492 172.730 536.646 L 172.596 529.800 171.269 527.200 C 169.008 522.769,171.322 523.200,149.800 523.200 C 132.320 523.200,130.879 523.252,130.319 523.900 M169.726 529.814 C 170.800 532.066,170.720 543.801,169.626 544.386 C 168.452 545.014,131.112 544.952,130.480 544.320 C 129.743 543.583,129.825 531.593,130.580 529.787 L 131.159 528.400 150.106 528.400 L 169.052 528.400 169.726 529.814 " stroke="none" fill="#ac947c" fill-rule="evenodd"></path><path id="path1" d="M55.614 280.374 C 54.986 281.548,55.048 318.888,55.680 319.520 C 56.461 320.301,68.368 320.178,69.511 319.377 L 70.400 318.755 70.400 299.839 C 70.400 282.022,70.358 280.886,69.669 280.262 C 68.476 279.183,56.199 279.280,55.614 280.374 M330.262 280.331 C 329.666 280.990,329.600 282.934,329.600 299.909 L 329.600 318.755 330.489 319.377 C 331.632 320.178,343.539 320.301,344.320 319.520 C 344.952 318.888,345.014 281.548,344.386 280.374 C 343.770 279.222,331.299 279.185,330.262 280.331 M179.553 304.353 L 178.000 305.906 178.000 312.338 C 178.000 325.043,175.043 328.000,162.338 328.000 L 155.906 328.000 154.353 329.553 L 152.800 331.106 152.800 337.526 L 152.800 343.946 154.100 344.873 C 155.320 345.743,155.870 345.813,163.000 346.010 C 173.398 346.298,176.561 347.806,178.177 353.249 C 179.034 356.132,179.015 369.705,178.147 375.800 C 177.803 378.220,177.399 383.980,177.251 388.600 C 176.803 402.556,175.445 404.000,162.780 404.000 C 156.136 404.000,156.048 404.011,154.831 405.036 L 153.600 406.071 153.600 412.430 L 153.600 418.789 155.049 419.395 C 157.239 420.310,242.761 420.310,244.951 419.395 L 246.400 418.789 246.400 412.430 L 246.400 406.071 245.169 405.036 C 243.952 404.011,243.864 404.000,237.220 404.000 C 224.555 404.000,223.197 402.556,222.749 388.600 C 222.601 383.980,222.197 378.220,221.853 375.800 C 221.468 373.098,221.221 368.496,221.213 363.874 C 221.194 352.746,221.242 352.803,212.030 352.791 C 203.171 352.779,200.747 351.770,198.427 347.128 L 197.200 344.672 197.208 336.836 C 197.213 331.579,197.428 327.684,197.861 325.000 C 198.725 319.646,199.058 306.592,198.352 305.742 C 196.434 303.431,194.123 302.808,187.453 302.804 L 181.106 302.800 179.553 304.353 M254.483 304.515 L 252.800 306.230 252.791 313.015 C 252.775 325.299,250.035 327.999,237.581 328.000 L 230.962 328.000 229.471 329.527 L 227.979 331.055 228.090 337.612 L 228.200 344.169 229.559 345.085 C 230.837 345.945,231.308 346.000,237.417 346.000 C 253.446 346.000,254.000 346.969,254.000 375.011 L 254.000 393.939 255.067 395.206 L 256.133 396.474 263.367 396.266 C 267.345 396.151,271.590 395.868,272.800 395.638 C 274.010 395.407,279.320 395.100,284.600 394.956 C 291.684 394.762,294.495 394.544,295.326 394.123 L 296.451 393.553 296.232 386.477 C 296.112 382.584,295.907 368.600,295.777 355.400 C 295.490 326.362,296.491 329.600,287.802 329.600 C 275.379 329.600,272.369 326.414,272.000 312.868 L 271.800 305.536 270.306 304.168 L 268.812 302.800 262.489 302.800 L 256.167 302.800 254.483 304.515 M194.082 329.500 C 194.173 347.615,194.317 353.204,194.709 353.891 C 195.736 355.687,196.420 355.793,207.900 355.933 L 218.800 356.067 218.800 375.233 L 218.800 394.400 200.000 394.400 L 181.200 394.400 181.179 372.700 C 181.168 360.765,181.023 349.782,180.858 348.293 C 180.381 344.000,181.077 344.221,167.586 344.073 L 156.000 343.945 156.000 337.573 L 156.000 331.200 163.300 331.183 C 173.589 331.158,178.684 330.694,179.689 329.689 C 180.694 328.684,181.158 323.589,181.183 313.300 L 181.200 306.000 187.582 306.000 L 193.964 306.000 194.082 329.500 M268.965 316.300 C 269.632 345.436,269.683 368.633,269.082 369.132 C 268.660 369.482,266.745 369.590,262.346 369.511 L 256.200 369.400 255.991 357.800 C 255.876 351.420,255.633 345.889,255.451 345.508 C 254.861 344.272,252.416 344.005,241.700 344.002 L 231.200 344.000 231.200 337.660 L 231.200 331.321 241.713 331.102 C 257.004 330.784,256.000 331.861,256.000 315.780 L 256.000 306.000 262.365 306.000 L 268.729 306.000 268.965 316.300 M105.300 330.500 C 104.472 331.387,104.457 331.737,104.223 355.400 C 104.093 368.600,103.888 382.584,103.768 386.477 L 103.549 393.553 104.674 394.123 C 105.505 394.544,108.316 394.762,115.400 394.956 C 120.680 395.100,125.990 395.407,127.200 395.638 C 128.410 395.868,132.655 396.151,136.633 396.266 L 143.867 396.474 144.933 395.206 L 146.000 393.939 146.000 374.862 L 146.000 355.786 144.986 354.293 L 143.971 352.800 136.573 352.800 C 122.451 352.800,120.721 351.232,120.473 338.200 C 120.296 328.903,120.934 329.600,112.608 329.600 C 106.415 329.600,106.104 329.638,105.300 330.500 M143.910 362.700 L 143.800 369.400 137.654 369.511 C 133.462 369.586,131.332 369.475,130.954 369.162 C 130.369 368.676,130.105 356.828,130.667 356.267 C 130.813 356.120,133.878 356.000,137.476 356.000 L 144.019 356.000 143.910 362.700 M29.875 379.922 L 28.800 381.044 28.800 399.912 L 28.800 418.779 29.980 419.390 C 31.901 420.383,68.413 420.300,69.292 419.300 C 69.797 418.725,69.948 416.777,70.137 408.400 C 70.264 402.790,70.547 397.390,70.766 396.400 C 70.986 395.410,71.173 391.590,71.183 387.910 L 71.200 381.221 70.100 380.660 C 69.280 380.242,66.354 380.040,58.600 379.867 C 52.880 379.739,47.390 379.455,46.400 379.235 C 45.410 379.015,41.529 378.827,37.775 378.817 L 30.950 378.800 29.875 379.922 M80.662 430.731 C 79.755 431.734,79.690 442.885,80.580 445.013 L 81.159 446.400 87.480 446.397 L 93.800 446.395 94.500 445.165 C 95.566 443.291,95.541 431.633,94.469 430.662 C 93.320 429.623,81.612 429.682,80.662 430.731 M280.489 430.623 C 279.631 431.224,279.600 431.478,279.596 437.923 C 279.592 444.379,279.543 444.772,278.134 449.800 C 275.769 458.239,275.804 469.744,278.225 479.258 C 278.602 480.739,278.800 483.636,278.800 487.679 L 278.800 493.843 280.119 495.122 L 281.438 496.400 300.150 496.400 L 318.862 496.400 320.031 495.231 L 321.200 494.062 321.200 487.728 C 321.200 484.245,321.383 480.766,321.607 479.997 C 323.901 472.111,324.311 458.625,322.523 449.800 C 321.711 445.790,321.433 443.065,321.309 437.897 L 321.147 431.193 319.993 430.597 C 318.225 429.682,281.797 429.706,280.489 430.623 M319.996 453.455 C 321.824 457.488,321.836 467.654,320.017 471.500 L 318.834 474.000 300.000 474.000 L 281.166 474.000 279.983 471.500 C 278.822 469.045,278.801 468.882,278.801 462.400 C 278.801 455.918,278.822 455.755,279.983 453.300 L 281.166 450.800 299.979 450.800 L 318.792 450.800 319.996 453.455 M105.298 504.900 C 103.930 507.484,103.923 518.420,105.289 519.377 C 106.529 520.246,118.156 520.280,120.213 519.420 L 121.600 518.841 121.600 512.502 L 121.600 506.162 120.083 504.681 L 118.566 503.200 112.382 503.200 L 106.199 503.200 105.298 504.900 M130.580 529.787 C 129.825 531.593,129.743 543.583,130.480 544.320 C 131.112 544.952,168.452 545.014,169.626 544.386 C 170.720 543.801,170.800 532.066,169.726 529.814 L 169.052 528.400 150.106 528.400 L 131.159 528.400 130.580 529.787 " stroke="none" fill="#dc9c74" fill-rule="evenodd"></path><path id="path2" d="M155.057 153.159 C 152.632 154.757,152.406 155.566,152.403 162.622 L 152.400 169.043 151.100 170.301 C 147.676 173.614,150.078 173.389,114.800 173.700 L 103.400 173.800 101.755 174.870 C 99.054 176.627,98.701 177.996,98.413 187.800 C 98.012 201.491,97.325 202.400,87.386 202.400 L 80.834 202.400 79.217 203.938 L 77.600 205.476 77.600 238.138 C 77.600 277.237,76.388 272.400,86.185 272.400 C 99.355 272.400,102.375 275.215,102.391 287.511 L 102.400 294.021 104.189 295.811 L 105.979 297.600 112.489 297.609 C 124.763 297.625,127.600 300.654,127.600 313.739 C 127.600 322.949,126.756 322.151,136.756 322.400 C 147.539 322.669,146.563 321.493,146.725 334.416 L 146.851 344.411 145.656 345.605 L 144.462 346.800 137.462 346.800 L 130.462 346.800 128.731 345.481 L 127.000 344.162 126.764 335.381 C 126.419 322.545,127.390 323.560,115.195 323.294 C 105.452 323.082,104.434 323.306,101.403 326.324 C 98.150 329.564,98.277 328.493,98.585 350.171 C 98.850 368.829,98.832 369.554,97.975 374.600 C 97.385 378.075,97.037 382.122,96.926 386.800 L 96.759 393.800 99.080 395.267 C 104.000 398.376,105.714 398.800,113.377 398.800 C 121.112 398.800,123.982 399.355,129.004 401.822 L 131.807 403.200 138.025 403.200 L 144.243 403.200 145.499 404.500 L 146.755 405.800 146.878 413.936 C 146.998 421.921,147.017 422.086,147.939 422.831 C 149.409 424.021,250.591 424.021,252.061 422.831 C 252.983 422.086,253.002 421.921,253.122 413.936 L 253.245 405.800 254.501 404.500 L 255.757 403.200 261.975 403.200 L 268.193 403.200 270.996 401.822 C 276.018 399.355,278.888 398.800,286.623 398.800 C 294.286 398.800,296.000 398.376,300.920 395.267 L 303.241 393.800 303.074 386.800 C 302.963 382.122,302.615 378.075,302.025 374.600 C 301.168 369.554,301.150 368.829,301.415 350.171 C 301.723 328.493,301.850 329.564,298.597 326.324 C 295.854 323.592,294.442 323.200,287.348 323.200 C 280.448 323.200,281.026 323.400,278.985 320.308 C 278.017 318.842,278.000 318.673,278.010 310.508 C 278.025 297.163,277.712 297.600,287.255 297.600 L 294.021 297.600 295.811 295.811 L 297.600 294.021 297.609 287.511 C 297.625 275.215,300.645 272.400,313.815 272.400 C 323.612 272.400,322.400 277.237,322.400 238.138 L 322.400 205.476 320.783 203.938 L 319.166 202.400 312.614 202.400 C 302.675 202.400,301.988 201.491,301.587 187.800 C 301.299 177.996,300.946 176.627,298.245 174.870 L 296.600 173.800 285.200 173.700 C 249.922 173.389,252.324 173.614,248.900 170.301 L 247.600 169.043 247.597 162.622 C 247.594 155.566,247.368 154.757,244.943 153.159 C 243.157 151.982,156.843 151.982,155.057 153.159 M147.500 179.983 L 150.000 181.166 150.000 187.723 L 150.000 194.280 151.201 195.939 C 151.862 196.851,153.149 198.138,154.061 198.799 L 155.720 200.000 200.000 200.000 L 244.280 200.000 245.939 198.799 C 246.851 198.138,248.138 196.851,248.799 195.939 L 250.000 194.280 250.000 187.723 L 250.000 181.166 252.500 179.983 L 255.000 178.801 274.664 178.800 L 294.329 178.800 295.396 180.068 L 296.463 181.336 296.331 188.368 C 296.202 195.313,296.185 195.427,295.000 197.600 L 293.800 199.800 287.257 199.910 C 279.727 200.037,278.534 200.499,276.046 204.256 L 274.800 206.137 274.800 212.609 L 274.800 219.080 273.599 220.739 C 272.938 221.651,271.651 222.938,270.739 223.599 L 269.080 224.800 200.000 224.800 L 130.920 224.800 129.261 223.599 C 128.349 222.938,127.062 221.651,126.401 220.739 L 125.200 219.080 125.200 212.609 L 125.200 206.137 123.954 204.256 C 121.466 200.499,120.273 200.037,112.743 199.910 L 106.200 199.800 105.000 197.600 C 103.815 195.427,103.798 195.313,103.669 188.368 L 103.537 181.336 104.604 180.068 L 105.671 178.800 125.336 178.800 L 145.000 178.801 147.500 179.983 M195.342 273.213 C 200.755 275.238,202.472 278.831,202.313 287.800 L 202.200 294.200 199.800 295.400 L 197.400 296.600 185.911 296.600 C 171.381 296.600,172.653 297.395,172.466 288.200 C 172.280 279.107,173.607 276.133,179.000 273.550 C 182.201 272.017,191.626 271.822,195.342 273.213 M271.000 273.550 C 273.926 274.951,275.230 276.291,276.612 279.311 C 278.108 282.583,278.022 294.158,276.489 295.690 L 275.578 296.600 262.354 296.600 L 249.129 296.600 248.365 295.656 C 247.092 294.084,247.233 281.790,248.556 279.000 C 250.964 273.921,254.113 272.445,262.600 272.419 C 268.403 272.401,268.679 272.438,271.000 273.550 M54.885 274.321 C 54.170 274.988,53.094 276.584,52.493 277.867 L 51.400 280.200 51.285 299.287 C 51.134 324.530,50.706 323.600,62.478 323.600 C 70.277 323.600,72.676 322.995,75.325 320.360 L 76.851 318.843 76.695 297.522 C 76.610 285.795,76.394 275.781,76.215 275.269 C 75.683 273.742,74.242 273.489,64.992 273.294 L 56.183 273.108 54.885 274.321 M326.859 273.611 C 323.201 274.143,323.218 274.020,323.208 299.347 L 323.200 318.894 324.700 320.386 C 327.321 322.992,329.746 323.600,337.522 323.600 C 349.294 323.600,348.866 324.530,348.715 299.287 L 348.600 280.200 347.507 277.867 C 346.906 276.584,345.852 275.009,345.165 274.367 L 343.915 273.200 336.458 273.250 C 332.356 273.277,328.036 273.440,326.859 273.611 M71.053 278.947 L 72.800 280.695 72.799 299.847 L 72.799 319.000 71.057 320.100 C 69.336 321.188,69.240 321.200,62.580 321.200 L 55.844 321.200 54.722 320.125 L 53.600 319.050 53.600 300.003 L 53.600 280.957 54.791 279.078 L 55.982 277.200 62.644 277.200 L 69.305 277.200 71.053 278.947 M345.209 279.078 L 346.400 280.957 346.400 300.003 L 346.400 319.050 345.278 320.125 L 344.156 321.200 337.420 321.200 C 330.760 321.200,330.664 321.188,328.943 320.100 L 327.201 319.000 327.201 299.847 L 327.200 280.695 328.947 278.947 L 330.695 277.200 337.356 277.200 L 344.018 277.200 345.209 279.078 M170.375 298.300 C 171.701 299.374,171.980 301.492,171.990 310.547 L 172.000 318.894 170.447 320.447 L 168.894 322.000 160.547 321.990 C 147.154 321.975,147.600 322.294,147.600 312.731 C 147.600 303.660,148.739 301.084,153.861 298.575 C 156.472 297.296,168.881 297.089,170.375 298.300 M245.656 298.364 C 246.595 299.124,246.601 299.177,246.726 309.020 L 246.852 318.913 245.326 320.487 L 243.800 322.061 234.400 321.926 C 221.919 321.748,222.400 322.124,222.400 312.555 C 222.400 304.224,224.076 300.743,229.200 298.430 C 231.843 297.237,244.201 297.187,245.656 298.364 M198.157 301.110 C 202.905 302.862,203.600 304.295,203.600 312.336 C 203.600 317.670,203.497 318.577,202.635 320.869 C 200.003 327.860,198.846 342.169,200.674 345.114 C 203.356 349.436,204.706 350.000,212.378 350.000 C 222.807 350.000,222.806 349.999,223.219 363.200 C 223.508 372.408,223.859 374.783,225.580 379.150 C 226.286 380.941,226.400 382.121,226.400 387.659 L 226.400 394.088 227.676 396.481 C 229.898 400.651,230.272 400.800,238.512 400.800 C 249.190 400.800,248.939 400.553,249.136 411.272 L 249.274 418.743 247.537 419.872 L 245.800 421.000 200.000 421.000 L 154.200 421.000 152.463 419.872 L 150.726 418.743 150.864 411.272 C 151.061 400.553,150.810 400.800,161.488 400.800 C 169.728 400.800,170.102 400.651,172.324 396.481 L 173.600 394.088 173.600 387.659 C 173.600 382.127,173.714 380.940,174.417 379.156 C 176.263 374.473,176.800 370.800,176.796 362.885 L 176.792 355.400 175.630 353.373 C 174.526 351.448,173.021 350.011,170.800 348.762 C 170.074 348.354,167.610 348.143,161.800 347.992 C 150.068 347.688,150.000 347.627,150.000 337.397 C 150.000 326.722,151.545 325.200,162.381 325.200 L 168.710 325.200 170.655 323.900 C 171.725 323.185,173.185 321.725,173.900 320.655 L 175.200 318.710 175.200 312.342 C 175.200 304.320,175.789 302.821,179.800 300.643 C 181.748 299.586,194.935 299.921,198.157 301.110 M270.316 300.763 C 274.190 302.756,274.800 304.349,274.800 312.470 L 274.800 318.888 276.053 321.239 C 276.742 322.532,278.174 324.402,279.236 325.395 L 281.166 327.200 287.728 327.200 L 294.291 327.200 296.172 329.212 L 298.054 331.224 297.927 351.512 C 297.816 369.194,297.890 372.414,298.500 376.583 C 298.932 379.538,299.200 383.753,299.200 387.606 L 299.200 393.845 296.500 395.107 L 293.800 396.369 285.400 396.535 C 277.586 396.690,276.735 396.781,273.200 397.840 C 265.205 400.236,252.285 399.453,251.164 396.504 C 250.687 395.250,250.738 380.775,251.229 378.200 C 252.188 373.160,252.177 356.317,251.212 354.392 C 248.561 349.104,246.614 348.251,236.600 347.996 C 224.977 347.700,225.200 347.904,225.200 337.561 C 225.200 326.355,226.336 325.200,237.353 325.200 L 243.938 325.200 245.631 323.900 C 246.563 323.185,247.882 321.909,248.562 321.065 L 249.800 319.529 250.000 312.398 L 250.200 305.266 251.400 303.564 C 253.560 300.499,255.112 300.000,262.479 300.000 C 267.945 300.000,269.039 300.107,270.316 300.763 M219.549 322.842 C 221.639 323.571,221.774 324.197,221.932 333.918 C 222.150 347.298,222.508 346.800,212.661 346.800 L 205.838 346.800 204.519 345.522 L 203.200 344.243 203.200 337.345 C 203.200 330.201,203.660 327.804,205.859 323.500 L 206.421 322.400 212.351 322.400 C 215.649 322.400,218.843 322.596,219.549 322.842 M121.053 328.947 L 122.800 330.695 122.800 337.167 C 122.800 344.280,122.948 344.875,125.266 347.055 C 127.946 349.577,128.682 349.761,137.000 349.992 C 148.252 350.304,147.657 349.508,148.060 364.800 C 148.219 370.850,148.539 376.880,148.772 378.200 C 149.290 381.137,149.339 395.182,148.836 396.504 C 147.715 399.453,134.795 400.236,126.800 397.840 C 123.265 396.781,122.414 396.690,114.600 396.535 L 106.200 396.369 103.500 395.107 L 100.800 393.845 100.800 387.606 C 100.800 383.753,101.068 379.538,101.500 376.583 C 102.110 372.414,102.184 369.194,102.073 351.512 L 101.946 331.224 103.828 329.212 L 105.709 327.200 112.507 327.200 L 119.305 327.200 121.053 328.947 M170.240 351.131 C 174.624 354.310,174.912 355.130,174.722 363.864 C 174.559 371.362,173.679 374.625,170.578 379.233 L 169.220 381.251 169.110 387.726 L 169.000 394.200 162.400 394.200 L 155.800 394.200 155.689 387.808 L 155.579 381.416 154.410 380.208 C 151.345 377.040,149.863 370.561,150.071 361.247 C 150.258 352.916,150.809 351.820,155.600 350.259 C 158.200 349.411,168.734 350.039,170.240 351.131 M245.448 351.233 C 246.434 351.911,247.857 353.306,248.610 354.333 L 249.980 356.200 249.990 362.056 C 250.005 370.992,248.501 377.199,245.590 380.208 L 244.421 381.416 244.311 387.808 L 244.200 394.200 237.600 394.200 L 231.000 394.200 230.890 387.726 L 230.780 381.251 229.422 379.233 C 226.255 374.527,225.438 371.409,225.277 363.433 C 225.026 350.943,225.817 350.078,237.528 350.027 L 243.656 350.000 245.448 351.233 M27.000 372.372 C 25.212 372.805,24.056 373.638,23.077 375.200 C 21.874 377.120,21.439 418.038,22.599 420.228 C 24.263 423.372,26.094 423.600,49.713 423.600 C 75.370 423.600,73.273 424.617,73.632 412.000 C 73.882 403.179,74.504 400.186,77.027 395.650 C 77.946 393.997,78.000 393.538,78.000 387.424 L 78.000 380.950 76.900 379.897 C 74.091 377.210,71.808 376.657,62.400 376.380 C 53.142 376.108,50.216 375.513,45.650 372.973 C 43.843 371.969,30.452 371.537,27.000 372.372 M47.200 376.927 C 50.876 378.077,57.074 378.785,63.525 378.793 C 69.351 378.800,69.757 378.852,71.842 379.873 L 74.034 380.946 73.897 387.973 C 73.795 393.182,73.582 395.569,73.072 397.200 C 71.934 400.845,71.215 407.057,71.207 413.318 C 71.200 419.064,71.171 419.265,70.218 420.218 L 69.236 421.200 49.518 421.189 L 29.800 421.177 28.000 420.257 L 26.200 419.337 26.096 399.799 C 25.980 377.899,25.829 379.108,28.950 376.873 C 30.591 375.698,43.392 375.736,47.200 376.927 M130.800 424.406 C 129.506 425.256,131.497 425.588,137.926 425.594 C 141.680 425.597,144.784 425.777,145.232 426.017 C 146.334 426.607,146.827 425.301,145.789 424.542 C 144.894 423.888,131.770 423.769,130.800 424.406 M254.234 424.526 C 253.178 425.298,253.650 426.616,254.768 426.017 C 255.222 425.774,258.409 425.600,262.404 425.600 L 269.262 425.600 270.398 426.737 C 272.128 428.466,272.467 430.450,272.326 438.003 L 272.200 444.728 270.594 447.064 L 268.989 449.400 262.394 449.600 C 258.768 449.710,255.575 449.946,255.300 450.124 C 254.566 450.599,254.691 451.261,255.500 451.179 C 255.885 451.140,259.033 451.129,262.495 451.154 L 268.789 451.200 269.456 452.700 C 269.986 453.892,270.186 456.211,270.429 464.000 C 270.597 469.390,271.019 475.677,271.367 477.970 C 271.725 480.330,272.000 484.681,272.000 487.992 L 272.000 493.843 276.696 498.534 L 281.391 503.225 300.996 503.186 C 320.439 503.147,323.881 502.943,325.231 501.755 C 325.579 501.450,326.074 501.200,326.331 501.200 C 326.589 501.200,326.762 501.065,326.715 500.900 C 326.668 500.735,326.882 500.150,327.189 499.600 C 327.599 498.867,327.825 496.033,328.034 489.000 C 328.191 483.720,328.548 478.140,328.827 476.600 C 329.539 472.659,329.544 452.843,328.834 448.600 C 328.539 446.840,328.227 442.250,328.140 438.400 C 327.855 425.770,330.240 426.753,299.000 426.397 C 275.837 426.133,275.344 426.111,272.400 425.201 C 268.606 424.029,255.575 423.545,254.234 424.526 M79.225 427.131 C 76.552 428.564,76.333 429.527,76.522 439.000 C 76.704 448.089,76.992 449.706,78.791 451.721 L 79.932 453.000 87.466 453.200 C 98.671 453.497,98.800 453.602,98.800 462.400 C 98.800 468.375,98.841 468.699,99.700 469.506 L 100.600 470.352 100.600 462.876 C 100.600 456.798,100.768 454.512,101.500 450.648 C 102.261 446.631,102.400 444.545,102.400 437.157 C 102.400 428.529,102.389 428.411,101.500 427.854 C 99.020 426.300,81.816 425.741,79.225 427.131 M97.700 430.080 L 100.000 431.156 100.000 437.793 L 100.000 444.430 98.220 446.160 C 95.317 448.981,94.546 449.200,87.502 449.200 C 78.969 449.200,78.800 448.979,78.800 437.795 C 78.800 430.816,78.808 430.756,79.806 429.757 L 80.813 428.751 88.106 428.877 C 95.053 428.998,95.510 429.055,97.700 430.080 M322.000 429.742 L 323.800 430.661 324.025 437.431 C 324.179 442.052,324.456 444.835,324.901 446.200 C 327.652 454.661,327.514 471.937,324.630 479.950 C 324.156 481.266,324.000 483.282,324.000 488.070 C 324.000 495.222,323.787 496.007,321.332 497.879 L 319.863 499.000 300.616 499.111 L 281.368 499.222 278.684 496.551 L 276.000 493.880 276.000 487.802 C 276.000 482.913,275.854 481.301,275.254 479.557 C 273.048 473.145,272.441 454.615,274.168 446.400 C 274.582 444.430,274.799 441.322,274.800 437.349 C 274.800 430.616,274.682 430.919,277.803 429.653 C 279.715 428.878,280.659 428.843,300.000 428.833 L 320.200 428.823 322.000 429.742 M192.565 448.358 C 191.886 448.531,191.139 448.791,190.904 448.935 C 190.511 449.179,189.481 451.600,189.771 451.600 C 189.841 451.600,190.665 451.330,191.600 451.000 C 192.852 450.558,195.067 450.400,200.000 450.400 C 204.933 450.400,207.148 450.558,208.400 451.000 C 209.335 451.330,210.159 451.600,210.229 451.600 C 210.709 451.600,209.349 449.089,208.658 448.698 C 207.661 448.135,194.533 447.858,192.565 448.358 M166.331 448.670 C 165.817 448.806,164.800 450.643,164.800 451.435 C 164.800 451.499,165.636 451.266,166.659 450.918 C 168.359 450.339,168.689 450.340,170.537 450.931 C 172.929 451.696,173.047 451.638,172.244 450.086 C 171.414 448.480,169.123 447.931,166.331 448.670 M228.892 448.668 C 228.344 448.888,227.035 451.169,227.303 451.436 C 227.392 451.525,228.331 451.302,229.391 450.941 C 231.148 450.343,231.488 450.339,233.259 450.906 C 234.326 451.247,235.200 451.480,235.200 451.423 C 235.200 450.514,234.153 448.827,233.475 448.646 C 232.432 448.366,229.608 448.379,228.892 448.668 M252.900 454.360 C 252.082 456.584,252.182 495.189,253.004 494.368 C 253.529 493.842,253.594 491.116,253.504 473.382 C 253.418 456.530,253.313 453.236,252.900 454.360 M102.800 473.956 C 102.800 474.130,103.160 475.680,103.600 477.400 C 104.243 479.914,104.400 481.837,104.400 487.195 C 104.400 494.627,104.493 494.249,100.635 502.550 L 98.800 506.500 98.801 512.750 C 98.804 522.683,99.542 523.280,112.212 523.599 C 125.677 523.937,126.159 524.476,126.274 539.330 C 126.315 544.583,126.419 548.952,126.506 549.039 C 126.592 549.126,127.492 549.310,128.505 549.449 L 130.348 549.702 129.574 547.215 C 128.655 544.264,128.419 528.453,129.257 525.960 C 130.249 523.003,128.787 523.200,149.800 523.200 C 171.322 523.200,169.008 522.769,171.269 527.200 L 172.596 529.800 172.730 536.646 L 172.864 543.492 171.432 546.390 C 169.627 550.042,169.589 549.875,172.236 549.901 C 174.432 549.923,174.485 549.896,175.127 548.462 C 176.107 546.270,176.332 526.790,175.433 522.046 C 175.024 519.894,174.800 516.485,174.800 512.435 L 174.800 506.158 176.778 505.447 C 181.788 503.645,180.174 503.291,164.800 502.821 C 154.407 502.502,149.238 501.863,145.474 500.429 C 144.838 500.187,141.487 500.000,137.780 500.000 L 131.213 500.000 128.206 496.994 L 125.200 493.987 125.200 487.639 L 125.200 481.290 123.900 479.345 C 123.185 478.275,121.725 476.815,120.655 476.100 L 118.710 474.800 112.142 474.800 C 107.312 474.800,105.207 474.647,104.187 474.220 C 103.424 473.902,102.800 473.783,102.800 473.956 M120.822 499.546 C 125.884 502.809,126.800 504.808,126.800 512.594 C 126.800 521.435,127.149 521.200,114.033 521.200 C 105.436 521.200,105.377 521.194,103.893 520.186 L 102.400 519.171 102.400 512.591 L 102.400 506.011 104.290 502.205 L 106.181 498.400 112.612 498.400 C 119.011 498.400,119.052 498.406,120.822 499.546 M186.185 501.225 C 185.533 501.911,184.474 502.746,183.831 503.081 C 182.154 503.957,182.972 504.258,188.408 504.767 C 200.378 505.888,219.507 504.817,216.364 503.201 C 215.834 502.928,214.757 502.092,213.972 501.342 L 212.544 499.978 210.172 501.089 C 205.179 503.427,193.978 502.966,187.785 500.167 C 187.556 500.064,186.836 500.540,186.185 501.225 " stroke="none" fill="#846c5c" fill-rule="evenodd"></path><path id="path3" d="M181.183 313.300 C 181.158 323.589,180.694 328.684,179.689 329.689 C 178.684 330.694,173.589 331.158,163.300 331.183 L 156.000 331.200 156.000 337.573 L 156.000 343.945 167.586 344.073 C 181.077 344.221,180.381 344.000,180.858 348.293 C 181.023 349.782,181.168 360.765,181.179 372.700 L 181.200 394.400 200.000 394.400 L 218.800 394.400 218.800 375.233 L 218.800 356.067 207.900 355.933 C 196.420 355.793,195.736 355.687,194.709 353.891 C 194.317 353.204,194.173 347.615,194.082 329.500 L 193.964 306.000 187.582 306.000 L 181.200 306.000 181.183 313.300 M256.000 315.780 C 256.000 331.861,257.004 330.784,241.713 331.102 L 231.200 331.321 231.200 337.660 L 231.200 344.000 241.700 344.002 C 252.416 344.005,254.861 344.272,255.451 345.508 C 255.633 345.889,255.876 351.420,255.991 357.800 L 256.200 369.400 262.346 369.511 C 266.745 369.590,268.660 369.482,269.082 369.132 C 269.683 368.633,269.632 345.436,268.965 316.300 L 268.729 306.000 262.365 306.000 L 256.000 306.000 256.000 315.780 M130.667 356.267 C 130.105 356.828,130.369 368.676,130.954 369.162 C 131.332 369.475,133.462 369.586,137.654 369.511 L 143.800 369.400 143.910 362.700 L 144.019 356.000 137.476 356.000 C 133.878 356.000,130.813 356.120,130.667 356.267 M279.983 453.300 C 278.822 455.755,278.801 455.918,278.801 462.400 C 278.801 468.882,278.822 469.045,279.983 471.500 L 281.166 474.000 300.000 474.000 L 318.834 474.000 320.017 471.500 C 321.836 467.654,321.824 457.488,319.996 453.455 L 318.792 450.800 299.979 450.800 L 281.166 450.800 279.983 453.300 M166.195 454.091 C 162.218 456.083,162.400 455.677,162.400 462.569 C 162.400 469.240,162.723 470.227,165.741 472.789 C 168.664 475.269,169.084 475.261,171.889 472.675 C 174.680 470.103,174.800 469.681,174.800 462.449 L 174.800 456.059 172.700 454.857 C 169.056 452.772,168.872 452.751,166.195 454.091 M191.600 453.932 C 190.390 454.550,188.995 455.311,188.500 455.624 L 187.600 456.192 187.600 475.015 L 187.600 493.838 189.100 495.272 C 192.531 498.554,193.291 498.800,200.000 498.800 C 206.709 498.800,207.469 498.554,210.900 495.272 L 212.400 493.838 212.400 475.016 L 212.400 456.194 210.576 455.092 C 207.037 452.955,206.310 452.800,199.851 452.805 C 194.015 452.810,193.722 452.850,191.600 453.932 M228.316 454.337 L 225.400 455.870 225.286 462.035 C 225.147 469.471,225.170 469.574,227.432 471.992 C 229.642 474.355,231.221 475.115,232.310 474.339 C 237.086 470.938,237.600 469.794,237.600 462.569 C 237.600 455.662,237.794 456.087,233.716 454.047 L 231.232 452.805 228.316 454.337 " stroke="none" fill="#f7dac2" fill-rule="evenodd"></path><path id="path4" d="M144.480 119.280 C 144.216 119.544,144.011 120.129,144.025 120.580 C 144.050 121.361,144.068 121.358,144.408 120.512 C 144.747 119.670,145.270 119.433,147.600 119.066 C 148.150 118.980,147.781 118.884,146.780 118.854 C 145.779 118.825,144.744 119.016,144.480 119.280 M252.400 119.066 C 254.730 119.433,255.253 119.670,255.592 120.512 C 255.932 121.358,255.950 121.361,255.975 120.580 C 256.014 119.305,255.200 118.795,253.220 118.854 C 252.219 118.884,251.850 118.980,252.400 119.066 M143.692 134.297 L 143.600 143.593 121.700 143.700 L 99.800 143.807 121.713 143.903 C 139.152 143.980,143.665 143.896,143.820 143.491 C 143.928 143.211,143.964 138.936,143.900 133.991 L 143.784 125.000 143.692 134.297 M256.189 134.600 L 256.200 143.800 278.000 143.805 L 299.800 143.810 278.107 143.702 L 256.415 143.593 256.296 134.497 L 256.178 125.400 256.189 134.600 M94.267 144.267 C 94.120 144.413,94.011 144.998,94.025 145.567 C 94.050 146.590,94.054 146.592,94.416 145.691 C 94.617 145.190,95.190 144.617,95.691 144.416 C 96.592 144.054,96.590 144.050,95.567 144.025 C 94.998 144.011,94.413 144.120,94.267 144.267 M304.309 144.397 C 304.810 144.608,305.392 145.190,305.603 145.691 C 305.957 146.528,305.980 146.505,305.894 145.400 C 305.814 144.379,305.621 144.186,304.600 144.106 C 303.495 144.020,303.472 144.043,304.309 144.397 M93.773 159.400 C 93.773 164.680,93.830 166.785,93.899 164.077 C 93.968 161.369,93.968 157.049,93.899 154.477 C 93.829 151.905,93.772 154.120,93.773 159.400 M306.173 159.400 C 306.173 164.680,306.230 166.785,306.299 164.077 C 306.368 161.369,306.368 157.049,306.299 154.477 C 306.229 151.905,306.172 154.120,306.173 159.400 M69.429 169.429 C 69.036 169.821,68.819 170.686,68.850 171.729 L 68.900 173.400 69.176 171.707 C 69.517 169.616,69.616 169.517,71.707 169.176 L 73.400 168.900 71.729 168.850 C 70.686 168.819,69.821 169.036,69.429 169.429 M328.293 169.176 C 330.384 169.517,330.483 169.616,330.824 171.707 L 331.100 173.400 331.150 171.729 C 331.215 169.552,330.448 168.785,328.271 168.850 L 326.600 168.900 328.293 169.176 M54.723 193.899 C 57.431 193.968,61.751 193.968,64.323 193.899 C 66.895 193.829,64.680 193.772,59.400 193.773 C 54.120 193.773,52.015 193.830,54.723 193.899 M335.923 193.899 C 338.631 193.968,342.951 193.968,345.523 193.899 C 348.095 193.829,345.880 193.772,340.600 193.773 C 335.320 193.773,333.215 193.830,335.923 193.899 M44.267 194.267 C 44.120 194.413,44.011 194.998,44.025 195.567 C 44.050 196.590,44.054 196.592,44.416 195.691 C 44.617 195.190,45.190 194.617,45.691 194.416 C 46.592 194.054,46.590 194.050,45.567 194.025 C 44.998 194.011,44.413 194.120,44.267 194.267 M354.309 194.397 C 354.810 194.608,355.392 195.190,355.603 195.691 C 355.957 196.528,355.980 196.505,355.894 195.400 C 355.814 194.379,355.621 194.186,354.600 194.106 C 353.495 194.020,353.472 194.043,354.309 194.397 M43.696 221.693 L 43.600 243.585 34.300 243.700 L 25.000 243.815 34.313 243.908 C 41.463 243.979,43.670 243.884,43.816 243.500 C 43.922 243.225,43.960 233.280,43.900 221.400 L 43.793 199.800 43.696 221.693 M356.195 221.800 L 356.200 243.800 365.400 243.811 L 374.600 243.822 365.503 243.704 L 356.407 243.585 356.298 221.693 L 356.190 199.800 356.195 221.800 M19.280 244.480 C 19.016 244.744,18.825 245.779,18.854 246.780 C 18.884 247.781,18.980 248.150,19.066 247.600 C 19.433 245.270,19.670 244.747,20.512 244.408 C 21.358 244.068,21.361 244.050,20.580 244.025 C 20.129 244.011,19.544 244.216,19.280 244.480 M379.488 244.408 C 380.330 244.747,380.567 245.270,380.934 247.600 C 381.020 248.150,381.116 247.781,381.146 246.780 C 381.205 244.800,380.695 243.986,379.420 244.025 C 378.639 244.050,378.642 244.068,379.488 244.408 M19.219 275.119 C 18.456 276.792,18.656 329.799,19.429 330.571 C 19.972 331.114,21.661 331.200,31.829 331.200 L 43.600 331.200 43.600 337.393 L 43.600 343.585 34.300 343.700 L 25.000 343.815 34.698 343.908 L 44.395 344.000 46.226 345.805 C 47.337 346.900,48.634 348.825,49.527 350.705 L 50.998 353.800 51.130 361.310 L 51.263 368.820 53.691 370.046 L 56.119 371.272 63.760 371.111 C 70.610 370.966,71.638 370.853,73.700 370.019 L 76.000 369.089 76.000 350.122 L 76.000 331.156 73.700 330.088 C 71.455 329.047,71.154 329.015,61.147 328.766 C 52.242 328.544,50.690 328.411,49.347 327.755 C 46.534 326.382,46.623 327.160,46.398 302.000 C 46.198 279.626,46.187 279.377,45.283 277.136 C 43.920 273.757,44.725 273.935,31.448 274.075 L 19.639 274.200 19.219 275.119 M355.843 274.878 C 353.829 277.952,353.832 277.914,353.609 302.000 C 353.376 327.159,353.465 326.382,350.653 327.755 C 349.310 328.411,347.758 328.544,338.853 328.766 C 328.846 329.015,328.545 329.047,326.300 330.088 L 324.000 331.156 324.000 350.193 L 324.000 369.230 325.500 371.819 C 326.325 373.242,327.909 375.891,329.019 377.704 L 331.038 381.000 343.065 381.106 C 353.886 381.201,355.148 381.145,355.646 380.545 C 356.101 379.997,356.224 375.533,356.337 355.539 L 356.473 331.200 368.208 331.200 C 378.343 331.200,380.029 331.114,380.571 330.571 C 381.403 329.740,381.513 276.362,380.686 275.000 C 380.221 274.234,379.699 274.195,368.328 274.071 L 356.456 273.942 355.843 274.878 M19.216 344.581 C 18.951 344.900,18.818 345.485,18.921 345.881 C 19.070 346.457,19.116 346.426,19.154 345.720 C 19.179 345.236,19.515 344.656,19.900 344.432 C 20.285 344.208,20.397 344.019,20.149 344.012 C 19.901 344.005,19.481 344.261,19.216 344.581 M155.075 355.122 C 153.438 356.830,153.423 367.418,155.052 371.174 L 156.105 373.600 162.474 373.600 L 168.844 373.600 169.822 371.389 C 170.729 369.338,170.800 368.703,170.800 362.663 L 170.800 356.150 169.678 355.075 C 168.559 354.003,168.540 354.000,162.353 354.000 L 156.150 354.000 155.075 355.122 M230.182 354.982 C 228.679 356.485,228.676 367.993,230.178 371.389 L 231.156 373.600 237.526 373.600 L 243.895 373.600 244.948 371.174 C 245.937 368.893,246.000 368.369,246.000 362.448 L 246.000 356.150 244.878 355.075 C 243.195 353.463,231.773 353.390,230.182 354.982 M330.400 401.029 C 330.400 401.276,326.209 401.365,318.969 401.272 C 308.438 401.138,307.280 401.191,304.269 401.955 C 299.152 403.253,295.937 403.584,288.364 403.592 L 281.328 403.600 278.854 404.836 L 276.381 406.072 276.490 412.535 L 276.600 418.998 278.600 420.090 L 280.600 421.181 301.000 421.183 C 321.522 421.184,324.966 421.002,328.873 419.705 L 331.000 419.000 331.108 410.228 C 331.177 404.653,331.067 401.307,330.808 401.048 C 330.557 400.797,330.400 400.789,330.400 401.029 M80.006 403.589 C 78.811 405.955,78.800 406.039,78.800 412.514 L 78.800 419.050 79.922 420.125 C 81.041 421.197,81.061 421.200,87.239 421.200 C 93.670 421.200,101.336 421.994,104.671 423.006 C 108.458 424.155,118.357 423.830,120.094 422.500 C 123.517 419.879,123.600 419.642,123.600 412.473 L 123.600 406.062 121.136 404.831 L 118.672 403.600 111.636 403.592 C 104.092 403.584,100.790 403.248,95.911 401.994 C 93.523 401.380,91.502 401.200,87.016 401.200 L 81.212 401.200 80.006 403.589 M354.200 419.080 C 354.640 419.183,355.225 419.557,355.500 419.910 C 355.775 420.264,356.000 420.375,356.000 420.156 C 356.000 419.477,355.077 418.798,354.220 418.846 C 353.418 418.892,353.417 418.897,354.200 419.080 M356.192 462.600 C 356.192 483.280,356.241 491.681,356.300 481.270 C 356.359 470.858,356.359 453.938,356.300 443.670 C 356.240 433.401,356.192 441.920,356.192 462.600 M25.588 429.223 C 24.371 429.403,22.391 429.876,21.188 430.275 L 19.000 431.000 18.894 443.046 C 18.799 453.884,18.855 455.148,19.455 455.646 C 20.647 456.636,68.601 456.720,69.129 455.733 C 70.454 453.256,70.878 449.997,71.087 440.674 L 71.300 431.149 70.175 429.974 L 69.050 428.800 48.425 428.849 C 37.081 428.876,26.805 429.044,25.588 429.223 M154.858 429.225 C 154.340 429.434,153.395 429.976,152.758 430.430 L 151.600 431.254 151.600 437.573 C 151.600 444.646,151.658 444.823,154.702 446.932 C 156.180 447.957,156.340 447.985,157.633 447.447 C 162.375 445.475,171.297 445.200,177.400 446.838 C 181.340 447.896,181.111 447.898,185.000 446.764 C 188.032 445.880,188.819 445.831,200.000 445.831 C 211.181 445.831,211.968 445.880,215.000 446.764 C 218.889 447.898,218.660 447.896,222.600 446.838 C 228.694 445.202,237.625 445.475,242.351 447.440 C 243.957 448.108,245.686 447.282,247.409 445.024 C 248.366 443.769,248.400 443.511,248.400 437.468 L 248.400 431.211 246.729 430.106 L 245.059 429.000 200.429 428.923 C 172.981 428.875,155.437 428.992,154.858 429.225 M69.056 476.278 C 68.713 476.620,68.782 500.036,69.128 500.800 C 69.382 501.361,71.200 501.740,71.200 501.232 C 71.200 501.104,76.286 501.050,82.504 501.112 L 93.808 501.223 95.704 497.406 L 97.600 493.589 97.600 487.381 C 97.600 480.630,97.533 480.375,95.040 477.690 L 93.824 476.380 81.909 476.412 C 75.356 476.430,69.841 476.349,69.653 476.233 C 69.465 476.117,69.196 476.137,69.056 476.278 M254.600 502.430 C 253.720 503.094,252.505 504.214,251.901 504.919 L 250.802 506.200 250.801 512.629 C 250.799 525.968,251.513 525.600,225.596 525.600 L 206.512 525.600 204.030 526.880 C 202.665 527.584,200.930 528.845,200.174 529.681 L 198.800 531.202 198.800 537.742 C 198.800 547.880,197.884 548.800,187.791 548.800 L 181.299 548.800 179.150 552.500 L 177.000 556.200 176.800 564.000 C 176.453 577.533,178.438 576.600,150.000 576.600 C 121.401 576.600,123.538 577.668,123.198 563.200 C 123.087 558.470,122.862 554.393,122.699 554.140 C 122.085 553.188,121.200 543.175,121.200 537.177 L 121.200 530.950 120.029 529.828 L 118.859 528.706 108.129 528.881 C 97.003 529.063,95.415 529.293,94.063 530.923 C 93.265 531.886,93.539 579.563,94.349 580.539 C 94.837 581.127,96.222 581.200,106.849 581.200 L 118.800 581.200 118.800 590.600 L 118.800 600.000 150.000 600.000 L 181.200 600.000 181.200 590.600 L 181.200 581.200 193.151 581.200 C 203.321 581.200,205.177 581.110,205.603 580.596 C 205.969 580.155,206.160 576.810,206.310 568.232 L 206.514 556.473 230.837 556.336 C 248.884 556.235,255.283 556.078,255.634 555.726 C 255.968 555.392,256.167 551.714,256.311 543.234 L 256.515 531.215 265.157 531.108 C 272.364 531.018,273.780 530.906,273.678 530.434 C 273.611 530.122,273.570 524.552,273.589 518.055 L 273.621 506.243 271.122 503.722 L 268.623 501.200 262.412 501.211 L 256.200 501.222 254.600 502.430 M335.923 506.299 C 338.631 506.368,342.951 506.368,345.523 506.299 C 348.095 506.229,345.880 506.172,340.600 506.173 C 335.320 506.173,333.215 506.230,335.923 506.299 M68.850 528.271 C 68.785 530.448,69.552 531.215,71.729 531.150 L 73.400 531.100 71.707 530.824 C 69.616 530.483,69.517 530.384,69.176 528.293 L 68.900 526.600 68.850 528.271 " stroke="none" fill="#040404" fill-rule="evenodd"></path><path id="path5" d="M147.910 119.163 C 144.069 119.574,144.220 119.053,144.073 132.414 L 143.945 144.000 120.873 144.002 C 106.259 144.004,97.255 144.156,96.315 144.417 C 94.178 145.010,94.005 146.045,94.002 158.251 L 94.000 168.703 82.900 168.892 C 67.666 169.153,69.202 167.615,68.912 182.900 L 68.703 194.000 58.251 194.002 C 46.045 194.005,45.010 194.178,44.417 196.315 C 44.156 197.255,44.004 206.259,44.002 220.873 L 44.000 243.945 32.414 244.073 C 18.923 244.221,19.619 244.000,19.142 248.293 C 18.605 253.122,18.752 275.925,19.314 275.000 C 19.903 274.031,42.691 273.480,43.809 274.408 C 46.046 276.264,46.181 277.696,46.398 302.000 C 46.623 327.160,46.534 326.382,49.347 327.755 C 50.690 328.411,52.242 328.544,61.147 328.766 C 71.154 329.015,71.455 329.047,73.700 330.088 L 76.000 331.156 76.000 350.122 L 76.000 369.089 73.700 370.019 C 71.638 370.853,70.610 370.966,63.760 371.111 L 56.119 371.272 53.691 370.046 L 51.263 368.820 51.130 361.310 L 50.998 353.800 49.527 350.705 C 48.144 347.794,45.002 344.000,43.974 344.000 C 43.742 344.000,43.651 344.159,43.771 344.352 C 44.365 345.314,45.600 357.986,45.600 363.126 L 45.600 368.852 46.853 369.926 C 51.711 374.090,53.472 374.525,66.600 374.814 C 75.590 375.012,78.155 375.192,79.600 375.725 C 80.988 376.236,82.828 376.390,87.641 376.394 L 93.883 376.400 95.041 372.900 L 96.200 369.400 96.063 350.400 C 95.859 322.152,96.158 321.611,112.200 321.199 C 119.321 321.017,120.409 320.898,122.100 320.120 L 124.000 319.245 124.000 312.744 C 124.000 302.522,122.731 301.200,112.921 301.200 C 101.678 301.200,98.800 298.312,98.800 287.029 C 98.800 277.211,97.424 275.917,87.167 276.090 L 80.606 276.200 79.715 278.400 C 78.838 280.568,78.824 280.883,78.812 299.916 C 78.796 325.974,79.282 325.200,62.911 325.200 C 53.171 325.200,51.267 324.441,49.975 320.046 C 49.353 317.932,49.667 279.098,50.322 277.153 C 52.033 272.065,53.314 271.440,62.528 271.199 C 69.322 271.021,70.417 270.897,72.100 270.121 L 74.000 269.245 74.002 237.522 C 74.005 204.144,74.023 203.785,75.863 201.598 C 77.699 199.417,79.066 199.078,86.800 198.892 C 94.492 198.706,94.417 198.730,95.790 196.020 C 96.656 194.311,96.728 193.618,96.877 185.595 C 97.148 171.056,95.242 172.025,123.600 172.005 L 143.800 171.990 146.200 170.656 L 148.600 169.322 148.832 162.361 C 148.959 158.533,149.166 155.033,149.292 154.585 C 150.036 151.937,152.093 149.945,154.792 149.257 C 156.109 148.921,243.891 148.921,245.208 149.257 C 247.907 149.945,249.964 151.937,250.708 154.585 C 250.834 155.033,251.041 158.533,251.168 162.361 L 251.400 169.322 253.800 170.656 L 256.200 171.990 276.400 172.005 C 304.758 172.025,302.852 171.056,303.123 185.595 C 303.272 193.618,303.344 194.311,304.210 196.020 C 305.583 198.730,305.508 198.706,313.200 198.892 C 320.934 199.078,322.301 199.417,324.137 201.598 C 325.977 203.785,325.995 204.144,325.998 237.522 L 326.000 269.245 327.900 270.121 C 329.583 270.897,330.678 271.021,337.472 271.199 C 346.686 271.440,347.967 272.065,349.678 277.153 C 350.333 279.098,350.647 317.932,350.025 320.046 C 348.733 324.441,346.829 325.200,337.089 325.200 C 320.718 325.200,321.204 325.974,321.188 299.916 C 321.176 280.883,321.162 280.568,320.285 278.400 L 319.394 276.200 312.833 276.090 C 302.563 275.917,301.200 277.205,301.200 287.079 C 301.200 298.270,298.668 300.868,287.439 301.200 L 280.679 301.400 280.073 303.000 C 279.648 304.125,279.417 306.686,279.296 311.625 L 279.125 318.649 280.171 319.893 L 281.218 321.137 288.509 321.268 C 303.705 321.543,304.139 322.363,303.937 350.400 L 303.800 369.400 304.959 372.900 L 306.117 376.400 312.435 376.400 C 315.910 376.400,318.855 376.566,318.980 376.768 C 319.720 377.965,324.387 379.795,329.700 380.972 L 330.800 381.215 330.768 388.708 C 330.751 392.828,330.661 396.020,330.569 395.800 C 330.144 394.792,306.393 395.578,304.447 396.665 C 299.594 399.374,296.007 400.166,287.567 400.391 L 279.734 400.600 276.367 402.296 C 274.515 403.228,272.399 404.545,271.664 405.222 L 270.327 406.454 270.467 414.127 C 270.674 425.480,268.243 424.441,295.200 424.689 C 325.405 424.967,328.865 424.597,330.586 420.904 L 331.371 419.218 337.986 419.091 L 344.600 418.964 337.600 419.010 C 331.355 419.050,330.298 419.158,327.800 420.006 C 325.005 420.955,324.960 420.957,302.800 421.082 L 280.600 421.208 278.600 420.103 L 276.600 418.998 276.490 412.535 L 276.381 406.072 278.854 404.836 L 281.328 403.600 288.364 403.592 C 295.937 403.584,299.152 403.253,304.269 401.955 C 307.280 401.191,308.438 401.138,318.969 401.272 C 325.256 401.352,330.400 401.268,330.400 401.085 C 330.400 400.902,330.580 400.864,330.800 401.000 C 331.063 401.162,331.200 397.813,331.200 391.249 L 331.200 381.250 329.100 377.830 C 327.945 375.949,326.325 373.244,325.500 371.820 L 324.000 369.230 324.000 350.193 L 324.000 331.156 326.300 330.088 C 328.545 329.047,328.846 329.015,338.853 328.766 C 347.758 328.544,349.310 328.411,350.653 327.755 C 353.466 326.382,353.377 327.160,353.602 302.000 C 353.819 277.696,353.954 276.264,356.191 274.408 C 357.309 273.480,380.097 274.031,380.686 275.000 C 381.248 275.925,381.395 253.122,380.858 248.293 C 380.381 244.000,381.077 244.221,367.586 244.073 L 356.000 243.945 355.998 220.873 C 355.996 206.259,355.844 197.255,355.583 196.315 C 354.990 194.178,353.955 194.005,341.749 194.002 L 331.297 194.000 331.088 182.900 C 330.798 167.615,332.334 169.153,317.100 168.892 L 306.000 168.703 305.998 158.251 C 305.995 146.045,305.822 145.010,303.685 144.417 C 302.745 144.156,293.741 144.004,279.127 144.002 L 256.055 144.000 255.927 132.414 C 255.779 118.923,256.000 119.619,251.707 119.142 C 248.506 118.786,151.247 118.806,147.910 119.163 M178.368 278.368 L 176.000 280.736 176.000 287.388 L 176.000 294.041 177.500 294.720 C 178.759 295.291,180.351 295.400,187.400 295.400 C 194.449 295.400,196.041 295.291,197.300 294.720 L 198.800 294.041 198.800 287.394 C 198.800 277.224,197.559 276.000,187.246 276.000 L 180.736 276.000 178.368 278.368 M254.579 277.163 C 251.273 279.598,251.167 279.932,251.290 287.492 L 251.400 294.190 252.600 294.795 C 254.459 295.732,270.399 295.672,272.500 294.720 L 274.000 294.041 274.000 287.388 L 274.000 280.736 271.632 278.368 L 269.264 276.000 262.711 276.000 L 256.158 276.000 254.579 277.163 M153.374 303.374 L 151.181 305.567 151.290 312.444 L 151.400 319.320 153.000 319.925 C 154.118 320.348,156.689 320.583,161.536 320.705 L 168.472 320.881 169.670 319.740 L 170.867 318.600 170.700 311.600 C 170.582 306.670,170.353 304.127,169.926 303.000 L 169.320 301.400 162.444 301.290 L 155.567 301.181 153.374 303.374 M229.305 302.305 C 226.166 304.960,226.000 305.469,226.000 312.429 C 226.000 317.408,226.119 318.801,226.577 319.181 C 228.849 321.067,243.124 321.584,244.762 319.840 C 245.903 318.626,245.929 304.850,244.795 302.600 L 244.190 301.400 237.395 301.305 L 230.600 301.210 229.305 302.305 M129.878 327.900 C 129.101 329.582,128.985 330.600,128.873 336.764 L 128.747 343.728 129.873 344.649 C 131.533 346.008,143.497 346.103,144.831 344.769 C 145.951 343.649,145.858 330.053,144.714 327.500 L 144.041 326.000 137.398 326.000 L 130.755 326.000 129.878 327.900 M205.237 328.478 C 203.922 332.369,203.983 343.469,205.326 344.730 C 206.795 346.110,218.624 346.065,219.930 344.674 C 221.582 342.916,220.996 328.764,219.181 326.577 C 218.801 326.119,217.403 326.000,212.388 326.000 L 206.073 326.000 205.237 328.478 M20.800 344.757 C 20.800 345.027,20.632 345.144,20.428 345.017 C 20.223 344.891,19.950 344.957,19.821 345.166 C 19.692 345.374,19.749 345.645,19.948 345.768 C 20.388 346.040,21.418 344.885,21.057 344.524 C 20.916 344.382,20.800 344.487,20.800 344.757 M154.114 352.037 C 149.465 355.015,150.026 371.988,155.014 379.310 L 156.042 380.820 162.488 380.710 L 168.933 380.600 170.115 378.677 C 172.881 374.174,174.000 369.474,174.000 362.362 L 174.000 355.936 171.632 353.568 L 169.264 351.200 162.332 351.207 C 156.023 351.213,155.284 351.287,154.114 352.037 M229.196 352.100 C 224.394 355.368,224.725 370.064,229.790 378.503 L 231.049 380.600 237.503 380.710 L 243.958 380.820 244.986 379.310 C 247.832 375.133,248.556 372.077,248.720 363.544 L 248.871 355.688 246.627 353.444 L 244.383 351.200 237.450 351.200 C 230.920 351.200,230.442 351.252,229.196 352.100 M169.678 355.075 L 170.800 356.150 170.800 362.663 C 170.800 368.703,170.729 369.338,169.822 371.389 L 168.844 373.600 162.474 373.600 L 156.105 373.600 155.052 371.174 C 153.423 367.418,153.438 356.830,155.075 355.122 L 156.150 354.000 162.353 354.000 C 168.540 354.000,168.559 354.003,169.678 355.075 M244.878 355.075 L 246.000 356.150 246.000 362.448 C 246.000 368.369,245.937 368.893,244.948 371.174 L 243.895 373.600 237.526 373.600 L 231.156 373.600 230.178 371.389 C 228.676 367.993,228.679 356.485,230.182 354.982 C 231.773 353.390,243.195 353.463,244.878 355.075 M18.889 361.893 L 18.800 368.786 9.300 368.900 L -0.200 369.015 9.313 369.108 C 16.772 369.180,18.868 369.089,19.023 368.685 C 19.132 368.401,19.166 365.206,19.100 361.585 L 18.979 355.000 18.889 361.893 M79.661 397.311 C 75.892 402.011,75.051 405.259,75.298 414.159 C 75.597 424.926,75.065 424.431,86.600 424.687 C 94.967 424.873,96.321 425.119,100.385 427.192 C 101.824 427.927,102.068 427.941,103.866 427.395 C 105.241 426.978,107.825 426.805,112.800 426.796 C 119.692 426.784,122.407 426.542,129.133 425.337 C 130.281 425.132,130.426 424.980,130.175 424.249 C 130.014 423.782,129.803 419.558,129.706 414.863 L 129.530 406.326 128.265 405.159 C 127.569 404.517,125.485 403.228,123.633 402.296 L 120.266 400.600 112.433 400.391 C 103.967 400.165,100.408 399.375,95.493 396.631 C 93.720 395.641,93.393 395.601,87.323 395.621 L 81.000 395.641 79.661 397.311 M95.911 401.994 C 100.790 403.248,104.092 403.584,111.636 403.592 L 118.672 403.600 121.136 404.831 L 123.600 406.062 123.600 412.473 C 123.600 419.642,123.517 419.879,120.094 422.500 C 118.357 423.830,108.458 424.155,104.671 423.006 C 101.336 421.994,93.670 421.200,87.239 421.200 C 81.061 421.200,81.041 421.197,79.922 420.125 L 78.800 419.050 78.800 412.514 C 78.800 406.039,78.811 405.955,80.006 403.589 L 81.212 401.200 87.016 401.200 C 91.502 401.200,93.523 401.380,95.911 401.994 M354.232 419.948 C 353.960 420.388,355.115 421.418,355.476 421.057 C 355.618 420.916,355.513 420.800,355.243 420.800 C 354.973 420.800,354.856 420.632,354.983 420.428 C 355.109 420.223,355.043 419.950,354.834 419.821 C 354.626 419.692,354.355 419.749,354.232 419.948 M26.883 425.617 C 21.977 426.009,20.541 426.679,19.413 429.098 L 18.627 430.786 9.413 430.907 L 0.200 431.028 9.800 430.991 C 18.815 430.956,19.571 430.895,22.200 429.999 C 24.993 429.047,25.051 429.044,46.952 428.897 L 68.904 428.750 70.093 429.875 L 71.281 431.000 71.085 440.600 C 70.909 449.233,70.797 450.482,69.967 453.000 C 68.678 456.915,68.280 476.236,69.487 476.311 C 69.879 476.335,75.515 476.361,82.012 476.367 L 93.824 476.380 95.040 477.690 C 97.533 480.375,97.600 480.630,97.600 487.381 L 97.600 493.589 95.704 497.406 L 93.808 501.223 82.504 501.112 C 76.286 501.050,71.200 501.104,71.200 501.232 C 71.200 501.737,69.381 501.362,69.105 500.800 C 68.717 500.009,69.013 527.925,69.406 529.131 C 69.919 530.703,71.284 530.907,82.651 531.106 C 93.350 531.294,93.518 531.285,94.691 530.417 C 96.358 529.185,99.807 528.829,110.225 528.813 L 119.050 528.800 120.125 529.922 C 121.197 531.040,121.200 531.062,121.200 537.224 C 121.200 543.183,122.087 553.191,122.699 554.140 C 122.862 554.393,123.087 558.470,123.198 563.200 C 123.538 577.668,121.401 576.600,150.000 576.600 C 178.438 576.600,176.453 577.533,176.800 564.000 L 177.000 556.200 179.150 552.500 L 181.299 548.800 187.791 548.800 C 197.884 548.800,198.800 547.880,198.800 537.742 L 198.800 531.202 200.174 529.681 C 200.930 528.845,202.665 527.584,204.030 526.880 L 206.512 525.600 225.596 525.600 C 251.515 525.600,250.800 525.968,250.800 512.624 L 250.800 506.191 252.100 504.750 C 255.187 501.327,255.558 501.200,262.449 501.200 L 268.623 501.200 271.122 503.722 L 273.621 506.243 273.633 518.022 C 273.639 524.500,273.665 530.115,273.689 530.500 C 273.731 531.159,275.075 531.194,296.767 531.105 L 319.800 531.011 299.200 530.800 C 287.870 530.684,278.960 530.532,279.400 530.463 C 279.840 530.394,280.020 530.261,279.800 530.169 C 279.542 530.060,279.444 525.761,279.524 518.062 L 279.648 506.124 274.440 500.900 L 269.231 495.677 261.916 495.533 C 256.996 495.436,254.306 495.222,253.703 494.882 C 252.865 494.408,252.717 494.513,251.441 496.488 C 249.926 498.834,247.797 500.990,245.444 502.561 L 243.888 503.600 230.740 503.600 C 218.474 503.600,217.477 503.653,215.896 504.392 C 213.318 505.595,209.438 505.984,200.000 505.984 C 190.562 505.984,186.682 505.595,184.104 504.392 C 181.163 503.018,177.800 503.713,179.203 505.404 C 179.591 505.871,179.640 508.020,179.419 514.904 C 179.262 519.797,179.013 528.411,178.867 534.046 L 178.600 544.291 176.556 546.952 L 174.511 549.613 175.256 552.298 C 176.252 555.892,176.340 568.537,175.386 571.238 C 173.716 575.973,173.571 576.000,150.000 576.000 C 129.023 576.000,127.979 575.907,126.064 573.868 C 123.486 571.124,123.005 558.391,125.246 552.197 L 126.493 548.752 125.646 546.541 C 124.913 544.623,124.800 543.482,124.800 537.960 C 124.800 530.787,124.270 528.828,121.846 527.039 C 119.765 525.502,119.303 525.429,110.200 525.188 C 96.424 524.825,96.655 525.017,96.477 513.805 C 96.336 505.022,96.022 506.223,100.614 498.000 L 102.736 494.200 102.868 484.172 L 103.000 474.144 101.800 472.225 L 100.600 470.306 87.000 470.386 C 79.520 470.430,72.635 470.505,71.700 470.554 C 70.735 470.604,69.988 470.460,69.972 470.221 C 69.956 469.989,69.789 470.160,69.600 470.600 C 69.391 471.086,69.245 468.387,69.228 463.732 L 69.200 456.064 70.417 455.796 C 73.880 455.036,74.534 452.357,74.567 438.800 C 74.593 427.725,74.437 426.744,72.507 425.903 C 71.182 425.325,33.491 425.089,26.883 425.617 M151.200 425.468 C 149.330 425.541,147.404 425.692,146.920 425.803 L 146.039 426.005 147.016 428.103 C 147.927 430.060,147.992 430.644,147.996 436.841 C 148.001 444.834,148.235 445.401,152.400 447.527 L 155.000 448.853 161.600 448.636 C 165.230 448.517,168.740 448.455,169.400 448.499 C 170.060 448.542,175.415 448.545,181.300 448.505 C 187.185 448.465,195.600 448.432,200.000 448.432 C 204.400 448.432,212.815 448.465,218.700 448.505 C 224.585 448.545,229.940 448.545,230.600 448.504 C 231.260 448.463,235.310 448.525,239.600 448.641 C 251.980 448.976,251.647 449.278,251.989 437.400 C 252.197 430.189,252.306 429.236,253.098 427.738 C 253.913 426.197,253.927 426.053,253.289 425.750 C 252.641 425.443,158.536 425.183,151.200 425.468 M246.729 430.106 L 248.400 431.211 248.400 437.468 C 248.400 443.511,248.366 443.769,247.409 445.024 C 245.686 447.282,243.957 448.108,242.351 447.440 C 237.625 445.475,228.694 445.202,222.600 446.838 C 218.660 447.896,218.889 447.898,215.000 446.764 C 211.968 445.880,211.181 445.831,200.000 445.831 C 188.819 445.831,188.032 445.880,185.000 446.764 C 181.111 447.898,181.340 447.896,177.400 446.838 C 171.297 445.200,162.375 445.475,157.633 447.447 C 156.340 447.985,156.180 447.957,154.702 446.932 C 151.658 444.823,151.600 444.646,151.600 437.573 L 151.600 431.254 152.758 430.430 C 153.395 429.976,154.340 429.434,154.858 429.225 C 155.437 428.992,172.981 428.875,200.429 428.923 L 245.059 429.000 246.729 430.106 M253.875 451.614 C 253.112 452.704,253.021 453.200,253.586 453.200 C 254.090 453.200,254.895 451.685,254.701 451.103 C 254.618 450.854,254.246 451.084,253.875 451.614 M330.964 513.000 C 330.963 516.740,331.023 518.324,331.097 516.520 C 331.171 514.715,331.172 511.655,331.098 509.720 C 331.025 507.784,330.964 509.260,330.964 513.000 " stroke="none" fill="#4e3e30" fill-rule="evenodd"></path><path id="path6" d="M154.200 454.155 C 153.320 454.436,152.015 454.970,151.300 455.343 L 150.000 456.021 150.000 474.997 L 150.000 493.973 152.900 495.611 L 155.800 497.248 169.000 497.067 C 183.661 496.866,186.207 496.560,186.828 494.926 C 187.054 494.332,187.165 485.964,187.104 474.267 L 187.000 454.606 184.119 454.090 C 181.745 453.665,180.725 453.669,178.319 454.109 L 175.400 454.644 175.291 461.944 C 175.172 469.867,174.932 470.774,172.348 473.026 C 169.403 475.593,168.342 475.654,165.718 473.408 C 162.443 470.605,162.226 469.927,162.000 461.816 L 161.800 454.631 160.406 454.347 C 157.321 453.718,155.725 453.668,154.200 454.155 M215.400 454.144 L 213.000 454.600 212.896 474.264 C 212.835 485.963,212.946 494.332,213.172 494.926 C 213.787 496.544,216.189 496.800,230.773 496.800 L 243.907 496.800 245.353 495.199 L 246.800 493.598 246.800 475.030 L 246.800 456.461 245.782 455.252 C 244.455 453.674,243.907 453.550,240.800 454.124 L 238.200 454.605 238.000 461.802 C 237.774 469.929,237.558 470.604,234.282 473.408 C 231.658 475.654,230.597 475.593,227.652 473.026 C 225.068 470.774,224.828 469.867,224.709 461.942 L 224.600 454.640 222.000 454.145 C 218.900 453.554,218.501 453.554,215.400 454.144 M130.029 554.291 L 128.800 555.782 128.800 562.437 L 128.800 569.091 129.855 570.145 L 130.909 571.200 150.000 571.200 L 169.091 571.200 170.145 570.145 L 171.200 569.091 171.200 562.437 L 171.200 555.782 169.971 554.291 L 168.742 552.800 150.000 552.800 L 131.258 552.800 130.029 554.291 " stroke="none" fill="#0cb4cc" fill-rule="evenodd"></path><path id="path7" d="M155.963 148.971 C 155.863 149.070,155.332 149.233,154.783 149.333 C 152.256 149.791,150.045 151.905,149.292 154.585 C 149.166 155.033,148.959 158.533,148.832 162.361 L 148.600 169.322 146.200 170.656 L 143.800 171.990 123.600 172.005 C 95.242 172.025,97.148 171.056,96.877 185.595 C 96.728 193.618,96.656 194.311,95.790 196.020 C 94.417 198.730,94.492 198.706,86.800 198.892 C 79.066 199.078,77.699 199.417,75.863 201.598 C 74.023 203.785,74.005 204.144,74.002 237.522 L 74.000 269.245 72.100 270.121 C 70.417 270.897,69.322 271.021,62.528 271.199 C 53.314 271.440,52.033 272.065,50.322 277.153 C 49.667 279.098,49.353 317.932,49.975 320.046 C 51.267 324.441,53.171 325.200,62.911 325.200 C 79.282 325.200,78.796 325.974,78.812 299.916 C 78.824 280.883,78.838 280.568,79.715 278.400 L 80.606 276.200 87.167 276.090 C 97.424 275.917,98.800 277.211,98.800 287.029 C 98.800 298.312,101.678 301.200,112.921 301.200 C 122.731 301.200,124.000 302.522,124.000 312.744 L 124.000 319.245 122.100 320.120 C 120.409 320.898,119.321 321.017,112.200 321.199 C 96.158 321.611,95.859 322.152,96.063 350.400 L 96.200 369.400 95.041 372.900 L 93.883 376.400 87.641 376.394 C 82.828 376.390,80.988 376.236,79.600 375.725 C 78.155 375.192,75.590 375.012,66.600 374.814 C 53.472 374.525,51.711 374.090,46.853 369.926 L 45.600 368.852 45.600 363.126 C 45.600 357.947,44.364 345.312,43.761 344.338 C 43.450 343.834,24.017 343.963,23.062 344.474 C 22.550 344.748,22.176 344.736,21.877 344.437 C 20.806 343.366,18.851 344.601,19.550 345.907 C 19.815 346.402,19.850 346.845,19.635 346.978 C 19.433 347.103,19.177 346.979,19.066 346.702 C 18.954 346.426,18.852 346.830,18.838 347.600 C 18.818 348.670,18.908 348.859,19.218 348.400 C 19.512 347.966,19.544 348.132,19.333 349.000 C 19.172 349.660,19.032 354.430,19.021 359.600 L 19.000 369.000 9.500 369.107 L 0.000 369.214 0.000 400.007 L 0.000 430.800 9.310 430.800 L 18.621 430.800 19.410 429.105 C 20.614 426.521,21.805 426.048,28.343 425.563 C 36.097 424.987,71.015 425.257,72.507 425.905 C 74.437 426.743,74.593 427.725,74.567 438.800 C 74.534 452.357,73.880 455.036,70.417 455.796 L 69.200 456.064 69.228 463.732 C 69.245 468.387,69.391 471.086,69.600 470.600 C 69.789 470.160,69.956 469.980,69.972 470.200 C 70.001 470.616,97.317 470.596,99.145 470.178 C 100.024 469.977,100.045 469.912,99.445 469.250 C 98.910 468.659,98.800 467.479,98.800 462.338 C 98.800 453.612,98.658 453.497,87.466 453.200 L 79.932 453.000 78.791 451.721 C 76.992 449.706,76.704 448.089,76.522 439.000 C 76.273 426.569,76.423 426.398,87.594 426.403 C 91.447 426.405,95.747 426.592,97.150 426.820 C 100.557 427.373,100.608 427.097,97.323 425.874 C 94.826 424.944,93.937 424.845,86.600 424.684 C 75.065 424.432,75.597 424.927,75.298 414.157 C 75.046 405.110,76.034 401.528,80.074 396.845 L 81.148 395.600 87.397 395.600 C 93.368 395.600,93.728 395.646,95.493 396.631 C 100.408 399.375,103.967 400.165,112.433 400.391 L 120.266 400.600 123.633 402.296 C 125.485 403.228,127.585 404.531,128.300 405.190 L 129.600 406.389 129.647 414.094 C 129.673 418.332,129.808 422.318,129.947 422.952 L 130.200 424.104 137.484 424.029 C 144.683 423.955,146.401 424.203,146.400 425.314 C 146.399 425.683,147.533 425.736,151.100 425.536 C 157.224 425.192,242.776 425.192,248.900 425.536 C 252.467 425.736,253.601 425.683,253.600 425.314 C 253.599 423.610,266.986 423.530,272.400 425.202 C 275.344 426.111,275.841 426.133,299.000 426.397 C 330.240 426.753,327.855 425.770,328.140 438.400 C 328.227 442.250,328.539 446.840,328.834 448.600 C 329.544 452.843,329.539 472.659,328.827 476.600 C 328.548 478.140,328.191 483.720,328.034 489.000 C 327.825 496.033,327.599 498.867,327.189 499.600 C 326.882 500.150,326.668 500.735,326.715 500.900 C 326.762 501.065,326.589 501.200,326.331 501.200 C 326.074 501.200,325.579 501.450,325.231 501.755 C 323.881 502.943,320.439 503.147,300.996 503.186 L 281.391 503.225 276.696 498.534 L 272.000 493.843 272.000 487.992 C 272.000 484.681,271.725 480.330,271.367 477.970 C 271.019 475.677,270.597 469.390,270.429 464.000 C 270.187 456.263,269.984 453.888,269.464 452.719 L 268.805 451.238 262.459 451.119 C 254.806 450.975,255.130 450.920,254.286 452.513 C 253.305 454.365,253.034 494.622,254.000 495.069 C 254.330 495.222,257.892 495.421,261.916 495.512 L 269.231 495.677 274.440 500.900 L 279.648 506.124 279.524 518.062 C 279.443 525.825,279.540 530.010,279.800 530.028 C 280.020 530.044,279.840 530.211,279.400 530.400 C 278.112 530.953,323.419 531.136,326.000 530.588 C 326.765 530.426,326.859 530.471,326.400 530.782 C 325.934 531.097,326.088 531.189,327.087 531.194 C 328.069 531.199,328.320 531.057,328.145 530.600 C 327.865 529.872,328.157 529.841,329.195 530.490 C 330.327 531.197,331.197 530.327,330.490 529.195 C 329.841 528.157,329.872 527.865,330.600 528.145 C 331.057 528.320,331.199 528.069,331.194 527.087 C 331.189 526.073,331.099 525.927,330.768 526.400 C 330.450 526.854,330.419 526.757,330.643 526.000 C 330.806 525.450,330.899 520.831,330.851 515.735 C 330.804 510.639,330.919 506.373,331.109 506.256 C 331.298 506.139,335.851 506.011,341.227 505.972 C 346.602 505.933,351.382 505.756,351.849 505.580 C 352.352 505.389,352.870 505.430,353.120 505.680 C 353.836 506.396,355.562 505.690,355.845 504.565 C 355.986 504.002,355.912 503.352,355.680 503.120 C 355.409 502.849,355.388 502.359,355.619 501.749 C 356.161 500.324,356.102 424.139,355.559 423.123 C 355.248 422.541,355.249 422.191,355.563 421.877 C 356.634 420.806,355.399 418.851,354.093 419.550 C 353.598 419.815,353.155 419.850,353.022 419.635 C 352.897 419.433,353.021 419.177,353.298 419.066 C 353.574 418.954,353.170 418.852,352.400 418.838 C 351.404 418.820,351.167 418.918,351.579 419.179 C 351.950 419.413,351.519 419.455,350.379 419.293 C 348.330 419.003,347.431 418.989,338.190 419.111 L 331.379 419.200 330.590 420.895 C 328.864 424.599,325.423 424.967,295.200 424.689 C 268.243 424.441,270.674 425.480,270.467 414.127 L 270.327 406.454 271.664 405.222 C 272.399 404.545,274.515 403.228,276.367 402.296 L 279.734 400.600 287.567 400.391 C 296.007 400.166,299.594 399.374,304.447 396.665 C 306.393 395.578,330.144 394.792,330.569 395.800 C 330.661 396.020,330.751 392.828,330.768 388.708 L 330.800 381.215 329.700 380.972 C 324.387 379.795,319.720 377.965,318.980 376.768 C 318.855 376.566,315.910 376.400,312.435 376.400 L 306.117 376.400 304.959 372.900 L 303.800 369.400 303.937 350.400 C 304.139 322.363,303.705 321.543,288.509 321.268 L 281.218 321.137 280.171 319.893 L 279.125 318.649 279.296 311.625 C 279.417 306.686,279.648 304.125,280.073 303.000 L 280.679 301.400 287.439 301.200 C 298.668 300.868,301.200 298.270,301.200 287.079 C 301.200 277.205,302.563 275.917,312.833 276.090 L 319.394 276.200 320.285 278.400 C 321.162 280.568,321.176 280.883,321.188 299.916 C 321.204 325.974,320.718 325.200,337.089 325.200 C 346.829 325.200,348.733 324.441,350.025 320.046 C 350.647 317.932,350.333 279.098,349.678 277.153 C 347.967 272.065,346.686 271.440,337.472 271.199 C 330.678 271.021,329.583 270.897,327.900 270.121 L 326.000 269.245 325.998 237.522 C 325.995 204.144,325.977 203.785,324.137 201.598 C 322.301 199.417,320.934 199.078,313.200 198.892 C 305.508 198.706,305.583 198.730,304.210 196.020 C 303.344 194.311,303.272 193.618,303.123 185.595 C 302.852 171.056,304.758 172.025,276.400 172.005 L 256.200 171.990 253.800 170.656 L 251.400 169.322 251.168 162.361 C 251.041 158.533,250.834 155.033,250.708 154.585 C 249.991 152.033,248.063 150.096,245.415 149.266 C 244.500 148.979,156.246 148.688,155.963 148.971 M244.943 153.159 C 247.368 154.757,247.594 155.566,247.597 162.622 L 247.600 169.043 248.900 170.301 C 252.324 173.614,249.922 173.389,285.200 173.700 L 296.600 173.800 298.245 174.870 C 300.946 176.627,301.299 177.996,301.587 187.800 C 301.988 201.491,302.675 202.400,312.614 202.400 L 319.166 202.400 320.783 203.938 L 322.400 205.476 322.400 238.138 C 322.400 277.237,323.612 272.400,313.815 272.400 C 300.645 272.400,297.625 275.215,297.609 287.511 L 297.600 294.021 295.811 295.811 L 294.021 297.600 287.255 297.600 C 277.712 297.600,278.025 297.163,278.010 310.508 C 278.000 318.673,278.017 318.842,278.985 320.308 C 281.026 323.400,280.448 323.200,287.348 323.200 C 294.442 323.200,295.854 323.592,298.597 326.324 C 301.850 329.564,301.723 328.493,301.415 350.171 C 301.150 368.829,301.168 369.554,302.025 374.600 C 302.615 378.075,302.963 382.122,303.074 386.800 L 303.241 393.800 300.920 395.267 C 296.000 398.376,294.286 398.800,286.623 398.800 C 278.888 398.800,276.018 399.355,270.996 401.822 L 268.193 403.200 261.975 403.200 L 255.757 403.200 254.501 404.500 L 253.245 405.800 253.122 413.936 C 253.002 421.921,252.983 422.086,252.061 422.831 C 250.591 424.021,149.409 424.021,147.939 422.831 C 147.017 422.086,146.998 421.921,146.878 413.936 L 146.755 405.800 145.499 404.500 L 144.243 403.200 138.025 403.200 L 131.807 403.200 129.004 401.822 C 123.982 399.355,121.112 398.800,113.377 398.800 C 105.714 398.800,104.000 398.376,99.080 395.267 L 96.759 393.800 96.926 386.800 C 97.037 382.122,97.385 378.075,97.975 374.600 C 98.832 369.554,98.850 368.829,98.585 350.171 C 98.277 328.493,98.150 329.564,101.403 326.324 C 104.434 323.306,105.452 323.082,115.195 323.294 C 127.390 323.560,126.419 322.545,126.764 335.381 L 127.000 344.162 128.731 345.481 L 130.462 346.800 137.462 346.800 L 144.462 346.800 145.656 345.605 L 146.851 344.411 146.725 334.416 C 146.563 321.493,147.539 322.669,136.756 322.400 C 126.756 322.151,127.600 322.949,127.600 313.739 C 127.600 300.654,124.763 297.625,112.489 297.609 L 105.979 297.600 104.189 295.811 L 102.400 294.021 102.391 287.511 C 102.375 275.215,99.355 272.400,86.185 272.400 C 76.388 272.400,77.600 277.237,77.600 238.138 L 77.600 205.476 79.217 203.938 L 80.834 202.400 87.386 202.400 C 97.325 202.400,98.012 201.491,98.413 187.800 C 98.701 177.996,99.054 176.627,101.755 174.870 L 103.400 173.800 114.800 173.700 C 150.078 173.389,147.676 173.614,151.100 170.301 L 152.400 169.043 152.403 162.622 C 152.406 155.566,152.632 154.757,155.057 153.159 C 156.843 151.982,243.157 151.982,244.943 153.159 M179.000 273.550 C 173.607 276.133,172.280 279.107,172.466 288.200 C 172.653 297.395,171.381 296.600,185.911 296.600 L 197.400 296.600 199.800 295.400 L 202.200 294.200 202.313 287.800 C 202.472 278.831,200.755 275.238,195.342 273.213 C 191.626 271.822,182.201 272.017,179.000 273.550 M254.629 273.207 C 252.132 274.182,249.774 276.432,248.556 279.000 C 247.233 281.790,247.092 294.084,248.365 295.656 L 249.129 296.600 262.354 296.600 L 275.578 296.600 276.489 295.690 C 279.126 293.055,277.734 279.327,274.477 275.850 C 271.310 272.469,260.281 271.000,254.629 273.207 M74.845 273.909 C 76.496 274.587,76.532 275.044,76.695 297.522 L 76.851 318.843 75.325 320.360 C 72.676 322.995,70.277 323.600,62.478 323.600 C 50.706 323.600,51.134 324.530,51.285 299.287 L 51.400 280.200 52.493 277.867 C 53.094 276.584,54.170 274.988,54.885 274.321 L 56.183 273.108 64.992 273.294 C 69.885 273.397,74.265 273.670,74.845 273.909 M345.165 274.367 C 345.852 275.009,346.906 276.584,347.507 277.867 L 348.600 280.200 348.715 299.287 C 348.866 324.530,349.294 323.600,337.522 323.600 C 329.746 323.600,327.321 322.992,324.700 320.386 L 323.200 318.894 323.208 299.347 C 323.216 280.804,323.469 275.171,324.336 274.304 C 325.008 273.632,328.812 273.301,336.458 273.250 L 343.915 273.200 345.165 274.367 M195.266 277.046 C 198.612 279.364,198.800 279.916,198.800 287.394 L 198.800 294.041 197.300 294.720 C 196.041 295.291,194.449 295.400,187.400 295.400 C 180.351 295.400,178.759 295.291,177.500 294.720 L 176.000 294.041 176.000 287.388 L 176.000 280.736 178.368 278.368 L 180.736 276.000 187.246 276.000 C 193.615 276.000,193.790 276.023,195.266 277.046 M271.632 278.368 L 274.000 280.736 274.000 287.388 L 274.000 294.041 272.500 294.720 C 270.399 295.672,254.459 295.732,252.600 294.795 L 251.400 294.190 251.290 287.492 C 251.167 279.932,251.273 279.598,254.579 277.163 L 256.158 276.000 262.711 276.000 L 269.264 276.000 271.632 278.368 M153.861 298.575 C 148.739 301.084,147.600 303.660,147.600 312.731 C 147.600 322.294,147.154 321.975,160.547 321.990 L 168.894 322.000 170.447 320.447 L 172.000 318.894 171.990 310.547 C 171.975 297.137,172.305 297.595,162.656 297.613 C 156.264 297.624,155.669 297.689,153.861 298.575 M229.200 298.430 C 224.076 300.743,222.400 304.224,222.400 312.555 C 222.400 322.124,221.919 321.748,234.400 321.926 L 243.800 322.061 245.326 320.487 L 246.852 318.913 246.726 309.020 C 246.567 296.537,247.390 297.597,237.856 297.609 C 231.834 297.617,230.781 297.716,229.200 298.430 M169.926 303.000 C 170.353 304.127,170.582 306.670,170.700 311.600 L 170.867 318.600 169.670 319.740 L 168.472 320.881 161.536 320.705 C 156.689 320.583,154.118 320.348,153.000 319.925 L 151.400 319.320 151.290 312.444 L 151.181 305.567 153.374 303.374 L 155.567 301.181 162.444 301.290 L 169.320 301.400 169.926 303.000 M244.795 302.600 C 245.929 304.850,245.903 318.626,244.762 319.840 C 243.124 321.584,228.849 321.067,226.577 319.181 C 226.119 318.801,226.000 317.408,226.000 312.429 C 226.000 305.469,226.166 304.960,229.305 302.305 L 230.600 301.210 237.395 301.305 L 244.190 301.400 244.795 302.600 M205.859 323.500 C 203.660 327.804,203.200 330.201,203.200 337.345 L 203.200 344.243 204.519 345.522 L 205.838 346.800 212.661 346.800 C 222.508 346.800,222.150 347.298,221.932 333.918 C 221.738 321.959,222.104 322.400,212.351 322.400 L 206.421 322.400 205.859 323.500 M144.714 327.500 C 145.858 330.053,145.951 343.649,144.831 344.769 C 143.497 346.103,131.533 346.008,129.873 344.649 L 128.747 343.728 128.873 336.764 C 128.985 330.600,129.101 329.582,129.878 327.900 L 130.755 326.000 137.398 326.000 L 144.041 326.000 144.714 327.500 M219.181 326.577 C 220.996 328.764,221.582 342.916,219.930 344.674 C 218.624 346.065,206.795 346.110,205.326 344.730 C 203.983 343.469,203.922 332.369,205.237 328.478 L 206.073 326.000 212.388 326.000 C 217.403 326.000,218.801 326.119,219.181 326.577 M21.200 344.751 C 21.200 345.436,20.096 346.079,19.784 345.575 C 19.627 345.319,19.746 344.953,20.049 344.761 C 20.758 344.312,21.200 344.308,21.200 344.751 M155.600 350.259 C 150.809 351.820,150.258 352.916,150.071 361.247 C 149.863 370.561,151.345 377.040,154.410 380.208 L 155.579 381.416 155.689 387.808 L 155.800 394.200 162.400 394.200 L 169.000 394.200 169.110 387.726 L 169.220 381.251 170.578 379.233 C 173.679 374.625,174.559 371.362,174.722 363.864 C 174.912 355.130,174.624 354.310,170.240 351.131 C 168.734 350.039,158.200 349.411,155.600 350.259 M229.657 350.597 C 225.659 351.844,225.079 353.546,225.277 363.433 C 225.438 371.409,226.255 374.527,229.422 379.233 L 230.780 381.251 230.890 387.726 L 231.000 394.200 237.600 394.200 L 244.200 394.200 244.311 387.808 L 244.421 381.416 245.590 380.208 C 248.501 377.199,250.005 370.992,249.990 362.056 L 249.980 356.200 248.610 354.333 C 247.857 353.306,246.434 351.911,245.448 351.233 L 243.656 350.000 237.528 350.027 C 233.557 350.044,230.787 350.245,229.657 350.597 M171.632 353.568 L 174.000 355.936 174.000 362.362 C 174.000 369.474,172.881 374.174,170.115 378.677 L 168.933 380.600 162.488 380.710 L 156.042 380.820 155.014 379.310 C 152.164 375.127,151.444 372.081,151.280 363.506 C 151.052 351.689,151.477 351.217,162.332 351.207 L 169.264 351.200 171.632 353.568 M246.627 353.444 L 248.871 355.688 248.720 363.544 C 248.556 372.077,247.832 375.133,244.986 379.310 L 243.958 380.820 237.503 380.710 L 231.049 380.600 229.790 378.503 C 226.920 373.721,225.930 369.293,226.072 361.882 C 226.266 351.830,226.937 351.200,237.450 351.200 L 244.383 351.200 246.627 353.444 M45.650 372.973 C 50.216 375.513,53.142 376.108,62.400 376.380 C 71.808 376.657,74.091 377.210,76.900 379.897 L 78.000 380.950 78.000 387.424 C 78.000 393.538,77.946 393.997,77.027 395.650 C 74.504 400.186,73.882 403.179,73.632 412.000 C 73.273 424.617,75.370 423.600,49.713 423.600 C 29.907 423.600,26.546 423.400,24.324 422.090 C 21.899 420.660,21.936 421.068,22.074 397.800 C 22.238 370.129,21.159 372.119,36.050 372.041 C 43.657 372.001,43.953 372.030,45.650 372.973 M355.367 420.257 C 355.505 420.619,355.529 421.004,355.419 421.114 C 355.101 421.433,353.986 420.347,354.228 419.955 C 354.571 419.399,355.090 419.537,355.367 420.257 M103.118 478.400 C 103.014 479.390,102.891 483.350,102.845 487.200 L 102.762 494.200 100.627 498.000 C 96.031 506.179,96.336 505.018,96.477 513.805 C 96.655 525.017,96.424 524.825,110.200 525.188 C 119.303 525.429,119.765 525.502,121.846 527.039 C 124.268 528.827,124.800 530.789,124.800 537.936 C 124.800 543.998,125.201 546.800,126.068 546.800 C 126.312 546.800,126.409 543.628,126.328 538.287 C 126.122 524.617,125.464 523.932,112.212 523.599 C 99.542 523.280,98.804 522.683,98.801 512.750 L 98.800 506.500 100.635 502.550 C 104.505 494.223,104.401 494.652,104.394 487.031 C 104.390 482.466,104.209 479.603,103.848 478.400 L 103.307 476.600 103.118 478.400 M355.600 504.120 C 355.600 504.789,354.789 505.600,354.120 505.600 C 353.834 505.600,353.600 505.390,353.600 505.133 C 353.600 504.877,353.718 504.785,353.863 504.930 C 354.225 505.292,355.244 504.395,354.972 503.955 C 354.851 503.760,354.943 503.600,355.176 503.600 C 355.409 503.600,355.600 503.834,355.600 504.120 M185.018 504.767 C 185.774 505.504,191.808 506.000,200.000 506.000 C 208.192 506.000,214.226 505.504,214.982 504.767 C 215.219 504.537,214.378 504.511,212.782 504.698 C 211.362 504.864,205.610 505.000,200.000 505.000 C 194.390 505.000,188.638 504.864,187.218 504.698 C 185.622 504.511,184.781 504.537,185.018 504.767 M176.500 505.512 L 174.800 506.165 174.800 512.447 C 174.800 516.371,175.025 519.907,175.400 521.865 C 176.074 525.388,176.232 543.219,175.617 546.400 C 175.155 548.793,175.246 548.789,177.052 546.331 L 178.600 544.224 178.867 534.012 C 179.013 528.395,179.262 519.797,179.419 514.904 C 179.762 504.199,179.779 504.252,176.500 505.512 " stroke="none" fill="#7c4444" fill-rule="evenodd"></path><path id="path8" d="M128.682 425.442 C 128.637 425.483,127.790 425.628,126.800 425.765 C 125.810 425.902,123.830 426.187,122.400 426.399 C 120.970 426.611,116.650 426.790,112.800 426.798 C 108.348 426.807,105.183 426.997,104.106 427.319 L 102.412 427.826 102.275 438.213 C 102.158 447.066,102.005 449.248,101.236 452.987 C 99.915 459.414,100.106 469.364,101.600 471.894 C 103.114 474.459,104.354 474.800,112.163 474.800 L 118.710 474.800 120.655 476.100 C 121.725 476.815,123.185 478.275,123.900 479.345 L 125.200 481.290 125.200 487.639 L 125.200 493.987 128.206 496.994 L 131.213 500.000 137.780 500.000 C 141.487 500.000,144.838 500.187,145.474 500.429 C 149.187 501.843,154.433 502.508,164.400 502.826 C 170.010 503.006,176.407 503.277,178.616 503.430 C 183.079 503.738,184.062 503.458,186.119 501.294 C 187.644 499.689,187.264 496.138,185.584 496.288 C 185.043 496.336,182.980 496.534,181.000 496.728 C 179.020 496.921,172.540 497.109,166.600 497.145 L 155.800 497.211 152.900 495.592 L 150.000 493.973 150.000 474.995 L 150.000 456.016 151.502 455.250 C 154.381 453.781,156.036 453.548,159.247 454.160 C 160.871 454.469,162.254 454.577,162.321 454.399 C 162.387 454.222,162.898 453.564,163.457 452.938 C 164.341 451.948,165.600 449.642,165.600 449.013 C 165.600 448.896,163.198 448.800,160.262 448.800 C 150.004 448.800,148.000 446.858,148.000 436.915 C 148.000 429.430,147.353 426.862,145.265 426.058 C 144.419 425.732,128.999 425.159,128.682 425.442 M254.557 426.063 C 252.671 426.977,252.253 428.826,251.997 437.400 C 251.651 449.012,251.911 448.741,241.100 448.777 C 237.415 448.790,234.400 448.896,234.400 449.013 C 234.400 449.642,235.659 451.948,236.543 452.938 C 237.102 453.564,237.613 454.222,237.679 454.399 C 237.746 454.577,239.119 454.471,240.732 454.164 C 246.936 452.982,246.800 452.515,246.800 475.053 L 246.800 493.598 245.333 495.222 L 243.866 496.845 229.633 496.670 C 221.805 496.574,214.957 496.429,214.416 496.347 C 212.736 496.096,212.348 499.681,213.881 501.294 C 216.083 503.611,216.005 503.600,230.524 503.600 L 243.888 503.600 245.444 502.562 C 247.718 501.044,250.298 498.439,251.419 496.529 L 252.400 494.858 252.400 475.390 C 252.400 448.525,251.866 449.914,262.325 449.600 L 268.989 449.400 270.594 447.064 L 272.200 444.728 272.326 438.003 C 272.467 430.450,272.128 428.466,270.398 426.737 L 269.262 425.600 262.331 425.627 C 258.491 425.642,255.024 425.836,254.557 426.063 M172.306 450.300 C 172.688 451.125,173.494 452.340,174.098 453.000 C 174.702 453.660,175.197 454.313,175.198 454.452 C 175.199 454.591,176.560 454.447,178.223 454.133 C 180.800 453.646,181.677 453.642,184.165 454.106 L 187.085 454.650 188.309 453.191 C 188.983 452.389,189.810 451.073,190.147 450.266 L 190.759 448.800 181.186 448.800 L 171.613 448.800 172.306 450.300 M209.853 450.266 C 210.190 451.073,211.017 452.389,211.691 453.191 L 212.915 454.650 215.835 454.106 C 218.323 453.642,219.200 453.646,221.777 454.133 C 223.440 454.447,224.801 454.591,224.802 454.452 C 224.803 454.313,225.298 453.660,225.902 453.000 C 226.506 452.340,227.312 451.125,227.694 450.300 L 228.387 448.800 218.814 448.800 L 209.241 448.800 209.853 450.266 M125.961 550.265 C 124.088 555.035,124.000 555.592,124.000 562.612 C 124.000 576.462,123.102 576.000,150.000 576.000 C 173.571 576.000,173.716 575.973,175.386 571.238 C 176.274 568.722,176.251 556.162,175.351 552.582 C 174.635 549.729,174.728 549.782,170.800 550.020 C 165.283 550.355,131.672 550.365,130.802 550.032 C 128.062 548.983,126.434 549.062,125.961 550.265 M169.971 554.291 L 171.200 555.782 171.200 562.437 L 171.200 569.091 170.145 570.145 L 169.091 571.200 150.000 571.200 L 130.909 571.200 129.855 570.145 L 128.800 569.091 128.800 562.437 L 128.800 555.782 130.029 554.291 L 131.258 552.800 150.000 552.800 L 168.742 552.800 169.971 554.291 " stroke="none" fill="#347494" fill-rule="evenodd"></path></g></svg>