<svg id="svg" version="1.1" xmlns="http://www.w3.org/2000/svg" xmlns:xlink="http://www.w3.org/1999/xlink" width="400" height="600" viewBox="0, 0, 400,600"><g id="svgg"><path id="path0" d="M129.559 152.570 C 126.784 154.455,126.622 154.989,126.400 163.013 L 126.200 170.225 124.933 171.946 C 124.237 172.892,122.892 174.237,121.945 174.933 L 120.223 176.200 100.612 176.400 C 79.774 176.613,80.301 176.559,78.349 178.666 C 76.519 180.640,76.400 181.217,76.400 188.095 C 76.400 194.618,76.396 194.650,75.256 196.422 C 72.865 200.140,69.759 201.960,67.451 200.996 C 61.765 198.620,54.731 197.927,51.790 199.453 C 48.470 201.176,48.614 199.816,48.492 230.548 L 48.384 257.697 49.381 261.835 C 49.929 264.111,50.653 266.631,50.989 267.436 C 51.492 268.640,51.600 271.082,51.600 281.302 C 51.600 298.192,51.477 298.000,62.361 298.000 C 69.792 298.000,71.324 298.469,74.164 301.613 C 76.948 304.695,76.800 302.681,76.800 337.355 L 76.800 368.735 78.300 369.667 C 80.930 371.303,97.658 371.165,101.179 369.479 L 102.200 368.990 102.311 362.598 L 102.421 356.206 104.296 354.303 L 106.170 352.400 112.469 352.400 L 118.769 352.400 119.385 354.473 C 119.900 356.209,120.000 359.576,120.000 375.225 L 120.000 393.905 121.300 394.895 C 125.673 398.224,129.230 399.200,136.994 399.200 C 145.111 399.200,148.942 400.486,152.657 404.456 L 153.914 405.800 154.127 414.200 C 154.298 420.920,154.507 423.230,155.170 425.751 C 155.627 427.484,156.000 428.969,156.000 429.051 C 156.000 429.133,158.790 429.200,162.200 429.200 C 165.946 429.200,169.800 429.442,171.938 429.811 C 175.005 430.340,182.087 430.406,225.238 430.311 L 275.000 430.200 276.695 429.295 C 279.835 427.617,280.142 426.477,280.324 415.800 C 280.418 410.304,280.647 406.396,280.894 406.094 C 281.211 405.706,284.019 405.594,292.921 405.613 C 302.221 405.632,304.643 405.529,305.080 405.092 C 305.512 404.660,305.643 402.093,305.713 392.773 L 305.800 381.000 317.915 380.800 C 328.098 380.632,330.090 380.504,330.409 380.000 C 330.624 379.659,330.790 374.409,330.794 367.822 L 330.800 356.244 328.951 349.622 L 327.103 343.000 327.325 334.400 C 327.636 322.329,326.887 323.200,336.959 323.200 L 343.880 323.200 345.456 322.059 C 348.569 319.803,348.400 321.072,348.400 299.961 C 348.400 275.391,349.051 276.735,336.987 276.400 L 329.775 276.200 328.054 274.933 C 327.108 274.237,325.763 272.892,325.067 271.945 L 323.800 270.223 323.600 238.011 L 323.400 205.800 322.493 204.528 C 320.606 201.884,319.633 201.600,312.437 201.600 C 301.015 201.600,298.400 198.969,298.400 187.476 L 298.400 180.920 297.246 179.328 C 295.375 176.745,294.195 176.400,287.221 176.400 C 281.844 176.400,280.815 176.287,278.063 175.396 C 272.847 173.708,269.219 173.200,262.376 173.200 C 255.356 173.200,253.857 172.815,250.100 170.047 L 248.400 168.795 248.400 162.178 L 248.400 155.562 246.419 153.581 L 244.438 151.600 187.712 151.600 L 130.986 151.600 129.559 152.570 M245.681 175.204 C 249.670 177.365,253.206 177.998,261.364 178.014 L 268.600 178.028 272.200 179.518 L 275.800 181.008 275.910 187.304 C 276.000 192.421,275.902 193.830,275.388 194.824 C 274.333 196.864,271.962 199.206,269.889 200.256 C 267.241 201.598,264.530 204.171,263.386 206.427 C 262.194 208.781,260.659 210.607,258.654 212.060 L 257.080 213.200 250.395 213.200 L 243.710 213.200 242.155 214.423 C 240.205 215.957,239.428 216.910,238.187 219.285 C 236.713 222.105,234.995 223.852,232.105 225.468 C 228.841 227.293,227.304 228.824,225.494 232.052 C 223.963 234.781,222.633 236.219,220.400 237.558 C 219.018 238.386,218.681 238.397,193.771 238.399 L 168.543 238.400 167.106 239.500 C 165.271 240.905,164.023 242.460,162.588 245.128 C 161.268 247.581,159.566 249.198,156.867 250.566 C 154.530 251.750,151.809 254.413,150.722 256.579 C 147.870 262.262,146.034 263.200,137.758 263.200 L 131.272 263.200 129.336 264.743 C 128.271 265.591,126.950 267.045,126.400 267.974 C 123.751 272.446,122.927 273.438,120.818 274.697 L 118.635 276.000 100.000 276.000 L 81.365 276.000 79.182 274.697 C 77.076 273.440,76.283 272.487,73.600 267.984 C 73.050 267.061,71.807 265.652,70.838 264.853 L 69.077 263.400 62.461 263.200 L 55.844 263.000 54.541 259.800 L 53.237 256.600 53.219 231.354 C 53.198 203.534,53.076 204.951,55.605 203.597 C 56.853 202.929,62.539 205.378,63.883 207.163 C 65.535 209.355,67.161 210.767,69.262 211.831 C 71.982 213.210,73.786 214.925,75.259 217.531 C 76.989 220.595,77.785 221.604,79.493 222.900 L 80.943 224.000 124.950 224.000 L 168.957 224.000 170.446 222.968 C 171.906 221.957,172.964 220.606,174.809 217.400 C 177.689 212.395,179.417 211.600,187.418 211.600 L 193.880 211.600 195.571 210.375 C 196.501 209.701,197.743 208.339,198.331 207.348 C 201.455 202.081,202.080 201.456,207.360 198.323 C 209.149 197.262,209.577 196.744,212.913 191.600 C 214.185 189.640,215.141 188.687,216.800 187.726 C 220.504 185.582,222.259 184.124,223.455 182.200 C 226.627 177.093,227.065 176.566,229.182 175.303 L 231.365 174.000 237.411 174.000 C 243.375 174.000,243.488 174.016,245.681 175.204 M270.606 249.242 C 272.726 250.362,273.880 251.438,275.256 253.578 L 276.400 255.357 276.400 262.809 L 276.400 270.261 275.368 271.230 L 274.336 272.200 264.268 272.200 C 253.532 272.200,252.945 272.114,249.900 270.089 L 248.400 269.091 248.400 262.530 C 248.400 254.270,249.518 251.752,254.308 249.223 C 256.619 248.003,268.286 248.016,270.606 249.242 M196.422 274.744 C 200.913 277.632,201.600 279.338,201.600 287.600 C 201.600 297.942,202.058 298.400,212.400 298.400 C 223.904 298.400,226.400 300.812,226.400 311.931 C 226.400 319.397,226.661 320.225,229.716 322.438 L 231.320 323.600 237.678 323.600 L 244.037 323.600 245.718 327.100 L 247.400 330.600 247.529 336.973 C 247.674 344.171,247.500 344.827,245.129 346.036 C 242.971 347.137,233.900 347.085,225.800 345.926 C 222.495 345.453,216.297 344.947,212.000 344.799 C 201.369 344.433,202.400 345.213,202.400 337.537 C 202.400 332.090,202.291 330.953,201.646 329.684 C 199.347 325.158,198.694 321.802,198.441 313.200 C 198.099 301.612,198.088 301.600,187.534 301.600 C 179.345 301.600,177.626 300.904,174.744 296.422 L 173.600 294.643 173.600 287.682 C 173.600 279.847,173.787 279.107,176.439 276.456 C 179.115 273.779,179.743 273.619,187.622 273.609 L 194.643 273.600 196.422 274.744 M296.422 274.744 C 301.071 277.734,301.682 279.368,301.526 288.400 C 301.365 297.687,302.176 297.082,289.365 297.469 L 281.330 297.711 279.418 295.879 L 277.505 294.046 277.664 284.843 C 277.820 275.787,277.837 275.625,278.781 274.620 L 279.739 273.600 287.191 273.600 L 294.643 273.600 296.422 274.744 M270.233 277.620 C 272.892 279.264,273.200 280.306,273.200 287.665 L 273.200 294.235 274.500 296.396 C 275.258 297.657,276.627 299.149,277.785 299.979 L 279.771 301.400 286.997 301.600 C 297.680 301.896,298.104 302.320,298.400 313.003 L 298.600 320.229 300.021 322.215 C 300.851 323.373,302.343 324.742,303.604 325.500 L 305.765 326.800 312.468 326.800 L 319.172 326.800 320.607 328.059 C 323.016 330.175,323.200 330.863,323.200 337.743 C 323.200 343.703,323.258 344.140,324.800 349.849 C 326.377 355.689,326.400 355.871,326.400 362.709 C 326.400 375.515,325.532 376.394,312.874 376.398 L 305.948 376.400 303.774 378.574 L 301.600 380.748 301.600 387.154 C 301.600 400.530,300.490 401.579,286.280 401.623 C 274.621 401.659,274.687 401.599,274.400 412.329 C 274.176 420.699,274.058 421.083,271.056 423.259 L 269.480 424.400 225.040 424.396 L 180.600 424.392 178.505 423.417 C 177.353 422.880,175.508 421.598,174.405 420.566 L 172.400 418.691 172.400 412.164 C 172.400 402.362,172.438 402.400,162.773 402.400 L 156.306 402.400 154.752 400.846 C 151.736 397.830,148.713 397.052,139.371 396.885 L 131.341 396.743 128.371 395.271 L 125.400 393.800 125.296 375.170 L 125.192 356.541 126.119 354.770 C 126.689 353.681,127.785 352.500,128.968 351.700 L 130.890 350.400 137.345 350.408 C 140.895 350.413,145.960 350.677,148.600 350.996 C 151.240 351.314,156.820 351.581,161.000 351.589 C 172.471 351.610,173.196 352.254,173.208 362.438 C 173.212 366.047,173.503 371.430,173.854 374.400 C 174.205 377.370,174.606 383.670,174.746 388.400 C 175.102 400.441,174.808 400.136,186.211 400.329 L 193.821 400.459 195.811 399.129 C 196.905 398.398,198.385 396.925,199.100 395.855 L 200.400 393.910 200.424 387.055 C 200.437 383.285,200.621 379.300,200.833 378.200 C 201.044 377.100,201.327 371.700,201.460 366.200 C 201.777 353.161,202.938 350.402,208.114 350.398 C 209.261 350.398,217.970 350.279,227.466 350.134 L 244.733 349.871 245.931 351.070 C 247.880 353.019,248.400 355.583,248.400 363.246 C 248.400 370.457,248.828 373.413,250.575 378.255 C 251.506 380.838,251.600 381.658,251.604 387.248 C 251.608 393.985,252.058 395.721,254.573 398.700 L 255.671 400.000 262.610 400.000 C 273.241 400.000,272.948 400.300,273.125 389.219 C 273.244 381.742,273.300 381.269,274.391 378.400 C 277.782 369.485,277.796 354.751,274.418 350.088 C 272.393 347.293,270.739 346.800,263.374 346.798 C 256.256 346.795,254.380 346.442,252.732 344.793 L 251.600 343.662 251.597 336.931 C 251.594 329.334,250.934 325.579,248.813 321.089 L 247.600 318.523 247.600 299.692 L 247.600 280.862 249.218 279.477 C 252.387 276.765,266.790 275.492,270.233 277.620 M320.606 299.241 C 325.546 301.847,326.361 303.730,326.418 312.666 C 326.482 322.850,327.397 322.072,315.073 322.310 L 305.946 322.486 304.173 320.636 L 302.400 318.786 302.403 313.093 C 302.409 303.677,303.165 299.099,304.789 298.659 C 307.194 298.006,319.096 298.444,320.606 299.241 M171.946 325.067 C 172.892 325.763,174.237 327.108,174.933 328.054 L 176.200 329.775 176.323 337.605 C 176.471 347.065,176.718 346.605,171.173 347.189 C 162.521 348.100,154.124 347.505,145.868 345.396 C 144.278 344.990,141.491 344.800,137.114 344.800 C 133.405 344.800,130.040 344.604,129.146 344.337 L 127.600 343.873 127.600 337.452 L 127.600 331.030 129.283 329.315 L 130.967 327.600 137.336 327.600 C 142.856 327.600,143.872 327.500,144.953 326.850 C 146.229 326.081,150.142 324.714,153.000 324.037 C 153.880 323.828,158.116 323.690,162.412 323.729 L 170.225 323.800 171.946 325.067 M195.319 349.577 C 197.844 352.577,198.320 366.174,196.217 375.200 C 195.234 379.420,195.028 381.260,194.899 386.992 C 194.707 395.470,195.348 394.800,187.431 394.800 C 179.385 394.800,180.000 395.402,180.000 387.526 C 180.000 382.096,179.846 380.526,178.900 376.306 C 177.614 370.566,177.208 352.037,178.326 350.077 C 179.151 348.631,180.141 348.452,187.464 348.425 L 194.329 348.400 195.319 349.577 M270.090 350.203 C 270.901 350.754,272.158 352.059,272.883 353.103 L 274.200 355.000 274.324 362.268 C 274.465 370.477,273.625 374.291,270.583 379.260 L 269.200 381.521 269.200 387.970 L 269.200 394.419 262.500 394.310 L 255.800 394.200 255.690 387.676 C 255.587 381.570,255.518 381.055,254.615 379.624 C 250.067 372.419,248.581 355.466,252.138 351.362 C 254.244 348.932,267.007 348.108,270.090 350.203 M349.773 380.300 C 349.830 380.685,350.185 381.060,350.563 381.134 C 351.201 381.259,351.199 381.208,350.536 380.434 C 349.671 379.423,349.644 379.418,349.773 380.300 M352.533 380.587 C 352.533 381.300,353.145 381.371,354.000 380.756 C 354.519 380.383,354.512 380.353,353.949 380.531 C 353.591 380.645,353.126 380.566,352.915 380.355 C 352.673 380.113,352.533 380.197,352.533 380.587 M329.600 399.746 C 329.600 399.788,329.975 400.144,330.434 400.536 C 331.208 401.199,331.259 401.201,331.134 400.563 C 331.035 400.054,329.600 399.290,329.600 399.746 M330.355 402.915 C 330.566 403.126,330.645 403.591,330.531 403.949 C 330.353 404.512,330.383 404.519,330.756 404.000 C 331.371 403.145,331.300 402.533,330.587 402.533 C 330.197 402.533,330.113 402.673,330.355 402.915 M151.000 445.462 C 147.535 446.315,145.635 446.487,136.800 446.749 C 120.206 447.240,121.383 443.962,122.646 486.200 L 122.885 494.200 124.995 497.400 C 126.156 499.160,127.990 501.680,129.070 503.000 L 131.035 505.400 149.796 505.504 L 168.557 505.608 169.978 504.473 C 174.925 500.525,179.530 499.200,188.321 499.199 C 200.067 499.196,199.252 501.301,199.087 471.400 C 199.016 458.420,198.819 447.440,198.651 447.000 C 197.714 444.557,198.169 444.606,175.600 444.538 L 155.000 444.476 151.000 445.462 M176.000 449.431 C 177.919 449.866,181.735 450.199,186.588 450.356 L 194.176 450.600 195.388 452.971 L 196.600 455.342 196.715 474.503 L 196.830 493.665 195.262 495.232 L 193.694 496.800 186.147 496.809 C 178.377 496.818,173.913 497.423,170.212 498.969 C 168.910 499.513,166.122 499.600,149.985 499.600 L 131.267 499.600 129.970 497.962 C 126.739 493.882,126.895 494.452,126.673 485.937 C 126.562 481.682,126.191 476.490,125.849 474.400 C 125.014 469.287,124.955 455.632,125.762 454.080 C 127.539 450.664,129.538 450.008,138.287 449.966 C 142.859 449.944,147.258 449.669,150.600 449.197 C 157.338 448.245,171.333 448.374,176.000 449.431 M272.600 475.809 C 271.381 476.122,267.874 476.338,263.622 476.362 C 252.840 476.421,251.600 477.571,251.600 487.505 L 251.600 493.863 250.428 495.631 C 249.074 497.673,247.643 499.088,245.444 500.559 C 243.634 501.770,232.326 502.129,229.808 501.056 C 228.729 500.595,228.445 500.653,226.808 501.661 C 223.784 503.523,221.026 504.000,213.285 504.000 L 206.338 504.000 205.169 505.169 L 204.000 506.338 204.000 512.494 L 204.000 518.650 205.100 519.688 C 206.188 520.715,206.285 520.729,213.800 520.915 C 221.952 521.117,224.019 521.512,226.905 523.422 C 228.275 524.329,228.569 524.382,229.950 523.968 C 230.969 523.662,234.428 523.559,240.339 523.658 C 245.213 523.739,249.200 523.804,249.200 523.803 C 249.200 523.801,248.840 522.853,248.400 521.696 C 247.220 518.592,247.220 507.047,248.399 503.894 C 250.250 498.946,253.259 497.600,262.467 497.600 C 269.774 497.600,269.311 497.433,273.865 501.710 C 275.627 503.365,275.965 503.544,276.164 502.925 C 276.293 502.526,277.044 501.498,277.834 500.639 C 279.169 499.189,279.233 499.005,278.743 498.039 C 278.179 496.926,276.377 494.331,275.939 493.999 C 275.793 493.889,275.579 489.839,275.463 484.999 C 275.240 475.718,275.205 475.172,274.833 475.248 C 274.705 475.274,273.700 475.526,272.600 475.809 M295.976 524.520 L 294.952 524.901 295.875 528.350 C 296.642 531.218,296.798 532.803,296.799 537.747 L 296.800 543.694 295.247 545.247 L 293.694 546.800 287.747 546.799 C 282.807 546.798,281.217 546.641,278.358 545.877 L 274.916 544.956 274.507 546.042 C 273.738 548.078,277.276 548.972,286.703 549.124 C 295.493 549.265,296.699 548.942,298.353 545.998 C 299.720 543.566,299.621 531.189,298.202 527.127 C 297.033 523.783,297.256 524.044,295.976 524.520 " stroke="none" fill="#7f6456" fill-rule="evenodd"></path><path id="path1" d="M254.500 280.396 L 253.200 281.188 253.224 300.294 C 253.237 310.806,253.421 320.300,253.634 321.400 C 253.846 322.500,254.131 327.989,254.266 333.597 C 254.565 345.943,253.730 344.770,262.227 344.787 C 274.201 344.811,277.141 346.111,278.356 351.920 C 279.034 355.156,278.895 370.560,278.141 375.800 C 276.996 383.758,276.952 393.251,278.051 395.206 C 279.671 398.088,280.604 398.400,287.600 398.400 C 297.388 398.400,298.400 397.359,298.400 387.291 C 298.400 375.830,301.074 373.201,312.733 373.199 C 319.742 373.197,320.822 372.874,322.416 370.304 C 323.791 368.087,323.379 356.382,321.676 349.272 C 320.512 344.411,320.400 343.374,320.400 337.434 C 320.400 329.049,320.942 329.600,312.688 329.600 C 297.939 329.600,295.615 327.337,295.605 312.970 C 295.598 303.876,296.127 304.402,286.974 304.395 C 272.652 304.385,270.400 302.054,270.400 287.242 C 270.400 279.053,270.975 279.600,262.369 279.601 C 256.526 279.603,255.656 279.691,254.500 280.396 M319.583 353.943 C 320.247 356.173,320.400 357.807,320.400 362.673 C 320.400 370.811,321.053 370.291,310.600 370.473 C 296.981 370.710,295.585 372.144,295.289 386.200 C 295.084 395.960,295.750 395.200,287.400 395.200 C 278.710 395.200,279.407 396.194,279.768 384.305 C 279.924 379.187,280.197 370.050,280.375 364.000 C 280.552 357.950,280.832 352.595,280.996 352.100 L 281.293 351.200 300.030 351.200 L 318.766 351.200 319.583 353.943 M227.600 353.244 C 225.730 353.414,220.100 353.678,215.088 353.831 L 205.977 354.109 205.241 355.155 C 204.562 356.119,204.483 357.675,204.215 375.306 C 203.785 403.584,203.553 403.984,187.531 403.995 C 180.942 404.000,180.846 404.013,179.631 405.036 L 178.400 406.071 178.400 412.536 L 178.400 419.000 179.779 420.100 L 181.157 421.200 225.104 421.200 L 269.050 421.200 270.125 420.078 L 271.200 418.956 271.200 412.548 C 271.200 403.810,271.714 404.271,261.669 403.993 C 249.041 403.644,248.087 402.522,247.560 387.400 C 247.392 382.560,246.978 376.530,246.640 374.000 C 246.301 371.456,246.021 366.356,246.014 362.589 C 245.999 355.509,245.837 354.734,244.065 353.300 C 243.371 352.739,233.528 352.706,227.600 353.244 M130.216 354.947 L 129.200 355.964 129.200 374.914 L 129.200 393.865 130.100 394.305 C 130.627 394.562,134.729 394.834,140.000 394.961 C 146.121 395.108,149.960 395.388,152.000 395.834 C 153.836 396.235,157.655 396.560,161.843 396.670 L 168.687 396.850 169.803 395.525 L 170.920 394.200 170.641 375.200 C 170.363 356.322,170.356 356.195,169.481 355.343 C 168.615 354.500,168.289 354.481,149.916 354.208 L 131.232 353.931 130.216 354.947 M244.105 355.500 C 245.135 356.646,245.307 395.639,244.290 397.500 L 243.579 398.800 237.375 398.800 L 231.171 398.800 228.785 396.480 L 226.400 394.161 226.400 375.143 L 226.400 356.124 228.900 355.496 C 232.689 354.543,243.247 354.546,244.105 355.500 M152.000 452.247 C 149.910 452.543,144.191 452.905,139.291 453.051 L 130.381 453.316 129.191 454.672 L 128.000 456.028 128.000 462.770 C 128.000 467.250,128.268 471.508,128.797 475.457 C 129.299 479.199,129.595 483.678,129.597 487.553 C 129.600 493.110,129.682 493.838,130.443 495.070 L 131.287 496.435 150.943 496.271 C 163.038 496.170,171.446 495.936,172.800 495.663 C 174.010 495.420,179.230 495.102,184.400 494.958 C 189.572 494.813,194.025 494.517,194.300 494.299 C 194.993 493.749,195.027 456.137,194.336 454.619 L 193.872 453.600 187.343 453.600 C 182.271 453.600,179.455 453.377,174.721 452.600 C 167.722 451.451,158.615 451.310,152.000 452.247 M171.274 455.453 L 173.600 456.105 173.600 462.644 L 173.600 469.183 171.391 471.391 L 169.183 473.600 150.230 473.600 L 131.278 473.600 130.771 472.300 C 129.986 470.290,129.752 456.303,130.493 455.689 C 131.637 454.740,167.983 454.529,171.274 455.453 M254.681 504.717 L 253.200 506.234 253.200 512.527 L 253.200 518.820 254.300 519.300 C 256.185 520.122,268.541 520.202,269.346 519.397 C 270.268 518.475,270.306 506.830,269.395 504.649 L 268.789 503.200 262.476 503.200 L 256.162 503.200 254.681 504.717 M280.629 530.629 C 279.820 531.437,279.689 543.529,280.480 544.320 C 280.814 544.654,282.924 544.800,287.400 544.800 C 295.419 544.800,294.800 545.419,294.800 537.400 C 294.800 532.924,294.654 530.814,294.320 530.480 C 293.529 529.689,281.437 529.820,280.629 530.629 " stroke="none" fill="#dc9c74" fill-rule="evenodd"></path><path id="path2" d="M119.429 119.429 C 119.036 119.821,118.819 120.686,118.850 121.729 L 118.900 123.400 119.176 121.707 C 119.328 120.777,119.578 119.888,119.733 119.733 C 119.888 119.578,120.777 119.328,121.707 119.176 L 123.400 118.900 121.729 118.850 C 120.686 118.819,119.821 119.036,119.429 119.429 M252.400 119.066 C 254.730 119.433,255.253 119.670,255.592 120.512 C 255.932 121.358,255.950 121.361,255.975 120.580 C 256.014 119.305,255.200 118.795,253.220 118.854 C 252.219 118.884,251.850 118.980,252.400 119.066 M256.189 134.600 L 256.200 143.800 278.000 143.805 L 299.800 143.810 278.107 143.702 L 256.415 143.593 256.296 134.497 L 256.178 125.400 256.189 134.600 M86.128 143.900 C 92.249 143.962,102.149 143.962,108.128 143.900 C 114.108 143.837,109.100 143.787,97.000 143.787 C 84.900 143.787,80.008 143.838,86.128 143.900 M69.280 144.480 C 69.016 144.744,68.825 145.779,68.854 146.780 C 68.884 147.781,68.980 148.150,69.066 147.600 C 69.433 145.270,69.670 144.747,70.512 144.408 C 71.358 144.068,71.361 144.050,70.580 144.025 C 70.129 144.011,69.544 144.216,69.280 144.480 M304.309 144.397 C 304.810 144.608,305.392 145.190,305.603 145.691 C 305.957 146.528,305.980 146.505,305.894 145.400 C 305.814 144.379,305.621 144.186,304.600 144.106 C 303.495 144.020,303.472 144.043,304.309 144.397 M306.173 159.400 C 306.173 164.680,306.230 166.785,306.299 164.077 C 306.368 161.369,306.368 157.049,306.299 154.477 C 306.229 151.905,306.172 154.120,306.173 159.400 M44.480 169.280 C 44.216 169.544,44.011 170.129,44.025 170.580 C 44.050 171.361,44.068 171.358,44.408 170.512 C 44.747 169.670,45.270 169.433,47.600 169.066 C 48.150 168.980,47.781 168.884,46.780 168.854 C 45.779 168.825,44.744 169.016,44.480 169.280 M328.293 169.176 C 330.384 169.517,330.483 169.616,330.824 171.707 L 331.100 173.400 331.150 171.729 C 331.215 169.552,330.448 168.785,328.271 168.850 L 326.600 168.900 328.293 169.176 M43.692 184.293 L 43.600 193.585 34.300 193.700 L 25.000 193.815 34.313 193.908 C 41.550 193.979,43.669 193.887,43.820 193.491 C 43.928 193.211,43.964 188.936,43.900 183.991 L 43.784 175.000 43.692 184.293 M335.923 193.899 C 338.631 193.968,342.951 193.968,345.523 193.899 C 348.095 193.829,345.880 193.772,340.600 193.773 C 335.320 193.773,333.215 193.830,335.923 193.899 M19.280 194.480 C 19.016 194.744,18.825 195.779,18.854 196.780 C 18.884 197.781,18.980 198.150,19.066 197.600 C 19.433 195.270,19.670 194.747,20.512 194.408 C 21.358 194.068,21.361 194.050,20.580 194.025 C 20.129 194.011,19.544 194.216,19.280 194.480 M354.309 194.397 C 354.810 194.608,355.392 195.190,355.603 195.691 C 355.957 196.528,355.980 196.505,355.894 195.400 C 355.814 194.379,355.621 194.186,354.600 194.106 C 353.495 194.020,353.472 194.043,354.309 194.397 M356.191 234.400 C 356.191 253.430,356.240 261.215,356.300 251.700 C 356.360 242.185,356.360 226.615,356.300 217.100 C 356.240 207.585,356.191 215.370,356.191 234.400 M378.293 269.176 C 380.384 269.517,380.483 269.616,380.824 271.707 L 381.100 273.400 381.150 271.729 C 381.181 270.686,380.964 269.821,380.571 269.429 C 380.179 269.036,379.314 268.819,378.271 268.850 L 376.600 268.900 378.293 269.176 M18.854 303.220 C 18.795 305.200,19.305 306.014,20.580 305.975 C 21.361 305.950,21.358 305.932,20.512 305.592 C 19.670 305.253,19.433 304.730,19.066 302.400 C 18.980 301.850,18.884 302.219,18.854 303.220 M34.498 306.296 L 43.596 306.415 43.701 340.507 L 43.807 374.600 43.803 340.400 L 43.800 306.200 34.600 306.189 L 25.400 306.178 34.498 306.296 M380.794 328.100 C 380.785 329.961,380.297 330.500,378.334 330.819 L 376.600 331.100 378.271 331.150 C 380.386 331.213,381.200 330.441,381.200 328.371 C 381.200 327.507,381.110 326.800,381.000 326.800 C 380.890 326.800,380.797 327.385,380.794 328.100 M356.187 353.000 C 356.187 365.100,356.237 370.108,356.300 364.128 C 356.362 358.149,356.362 348.249,356.300 342.128 C 356.238 336.008,356.187 340.900,356.187 353.000 M255.777 354.306 C 253.472 355.906,253.094 366.418,255.175 371.009 L 256.350 373.600 262.520 373.600 L 268.691 373.600 269.745 371.250 C 271.207 367.992,271.361 357.112,269.973 355.162 L 269.146 354.000 262.673 354.006 C 259.113 354.009,256.010 354.144,255.777 354.306 M77.800 377.858 C 74.810 378.203,72.064 378.954,70.500 379.855 L 68.800 380.834 68.800 392.968 C 68.800 403.301,68.890 405.176,69.404 405.603 C 69.844 405.969,73.186 406.160,81.747 406.309 L 93.486 406.514 93.691 418.253 C 93.840 426.814,94.031 430.156,94.397 430.596 C 94.823 431.110,96.676 431.200,106.820 431.200 L 118.743 431.200 121.096 429.798 C 126.167 426.778,129.362 426.017,137.015 426.008 L 143.831 426.000 145.101 423.900 C 147.303 420.256,147.600 418.886,147.600 412.352 L 147.600 406.405 145.940 405.203 L 144.280 404.000 138.360 404.000 C 132.437 404.000,124.633 403.213,122.000 402.349 C 121.230 402.097,117.000 401.777,112.600 401.638 C 99.556 401.228,98.694 400.408,98.465 388.200 C 98.314 380.144,98.255 379.971,95.116 378.361 C 93.704 377.637,82.532 377.313,77.800 377.858 M44.025 379.420 C 43.986 380.695,44.800 381.205,46.780 381.146 C 47.781 381.116,48.150 381.020,47.600 380.934 C 45.270 380.567,44.747 380.330,44.408 379.488 C 44.068 378.642,44.050 378.639,44.025 379.420 M355.474 380.152 C 355.350 380.474,354.833 380.817,354.324 380.915 C 353.466 381.078,353.461 381.095,354.251 381.146 C 355.086 381.199,356.314 380.181,355.906 379.773 C 355.792 379.659,355.598 379.829,355.474 380.152 M330.846 404.280 C 330.821 404.764,330.485 405.344,330.100 405.568 C 329.715 405.792,329.603 405.981,329.851 405.988 C 330.563 406.007,331.284 404.909,331.079 404.119 C 330.930 403.543,330.884 403.574,330.846 404.280 M306.181 406.506 C 306.074 406.784,306.038 411.869,306.100 417.806 L 306.214 428.600 306.307 417.507 L 306.400 406.415 315.700 406.300 L 325.000 406.185 315.687 406.092 C 308.479 406.021,306.331 406.114,306.181 406.506 M104.723 443.899 C 107.431 443.968,111.751 443.968,114.323 443.899 C 116.895 443.829,114.680 443.772,109.400 443.773 C 104.120 443.773,102.015 443.830,104.723 443.899 M94.267 444.267 C 94.120 444.413,94.011 444.998,94.025 445.567 C 94.050 446.590,94.054 446.592,94.416 445.691 C 94.617 445.190,95.190 444.617,95.691 444.416 C 96.592 444.054,96.590 444.050,95.567 444.025 C 94.998 444.011,94.413 444.120,94.267 444.267 M93.782 490.039 C 93.797 523.198,93.892 529.988,94.349 530.539 C 94.837 531.127,96.222 531.200,106.849 531.200 L 118.800 531.200 118.800 543.151 C 118.800 553.778,118.873 555.163,119.461 555.651 C 120.012 556.108,128.362 556.220,169.461 556.320 L 218.800 556.441 218.800 568.192 C 218.800 578.341,218.886 580.029,219.429 580.571 C 220.367 581.510,304.825 581.534,305.603 580.596 C 305.969 580.156,306.160 576.814,306.309 568.253 L 306.514 556.514 318.253 556.309 C 326.814 556.160,330.156 555.969,330.596 555.603 C 331.511 554.844,331.511 495.156,330.596 494.397 C 330.155 494.031,326.803 493.840,318.202 493.690 L 306.412 493.484 306.300 482.442 L 306.187 471.400 306.093 482.713 C 306.001 493.883,305.987 494.052,305.005 495.990 C 302.059 501.804,301.193 513.621,302.967 523.800 C 304.587 533.098,304.025 550.036,302.031 552.031 C 300.058 554.004,283.071 554.588,274.000 552.995 C 270.422 552.367,266.718 552.224,249.000 552.029 C 221.478 551.726,222.800 552.457,222.800 537.550 L 222.800 530.868 220.944 529.234 L 219.087 527.600 212.444 527.591 C 200.352 527.575,197.600 524.887,197.600 513.090 C 197.600 503.921,197.686 504.000,187.698 504.000 C 181.092 504.000,180.682 504.046,178.787 505.007 L 176.800 506.013 176.800 512.211 C 176.800 520.545,175.378 523.524,170.250 525.935 L 168.333 526.836 149.066 526.700 C 122.587 526.513,123.729 527.119,123.246 513.000 L 123.000 505.800 120.833 502.500 L 118.667 499.200 112.033 499.172 C 108.385 499.157,103.420 499.102,101.000 499.050 C 98.580 498.998,96.105 499.088,95.500 499.250 C 94.895 499.412,94.358 499.512,94.308 499.472 C 94.257 499.432,94.114 488.330,93.990 474.800 C 93.797 453.856,93.767 456.120,93.782 490.039 M205.007 453.587 L 204.000 455.573 204.000 475.098 C 204.000 499.549,203.260 497.600,212.539 497.600 C 218.353 497.600,218.563 497.570,219.874 496.571 C 223.066 494.136,222.800 496.085,222.800 475.098 C 222.800 454.827,222.884 455.624,220.472 453.100 L 219.038 451.600 212.526 451.600 L 206.013 451.600 205.007 453.587 " stroke="none" fill="#040404" fill-rule="evenodd"></path><path id="path3" d="M124.974 119.323 C 124.831 119.697,124.208 119.882,123.181 119.855 C 122.047 119.825,121.358 120.064,120.711 120.711 C 120.064 121.358,119.825 122.047,119.855 123.181 C 119.880 124.145,119.692 124.832,119.370 124.956 C 119.008 125.095,118.932 125.507,119.129 126.279 C 119.285 126.896,119.320 131.180,119.207 135.800 L 119.000 144.200 98.000 144.322 C 86.450 144.389,76.100 144.439,75.000 144.434 C 73.900 144.429,73.223 144.564,73.496 144.734 C 73.826 144.939,73.548 145.203,72.663 145.523 C 71.931 145.787,71.093 146.453,70.799 147.001 C 70.506 147.550,70.187 147.921,70.092 147.825 C 69.799 147.532,71.141 145.861,72.097 145.330 C 72.593 145.054,72.761 144.822,72.469 144.814 C 71.304 144.783,69.493 147.165,69.741 148.403 C 69.904 149.220,69.791 149.677,69.369 149.913 C 68.927 150.161,68.853 150.514,69.095 151.226 C 69.278 151.762,69.360 156.009,69.279 160.666 L 69.131 169.131 60.666 169.279 C 56.009 169.360,51.762 169.278,51.226 169.095 C 50.514 168.853,50.161 168.927,49.913 169.369 C 49.677 169.791,49.220 169.904,48.403 169.741 C 47.165 169.493,44.783 171.304,44.814 172.469 C 44.822 172.761,45.054 172.593,45.330 172.097 C 45.861 171.141,47.532 169.799,47.825 170.092 C 47.921 170.187,47.550 170.506,47.001 170.799 C 46.453 171.093,45.787 171.931,45.523 172.663 C 45.203 173.548,44.939 173.826,44.734 173.496 C 44.563 173.221,44.417 173.893,44.407 175.000 C 44.396 176.100,44.346 180.870,44.294 185.600 L 44.200 194.200 35.600 194.294 C 30.870 194.346,26.100 194.396,25.000 194.407 C 23.893 194.417,23.221 194.563,23.496 194.734 C 23.826 194.939,23.548 195.203,22.663 195.523 C 21.931 195.787,21.093 196.453,20.799 197.001 C 20.506 197.550,20.187 197.921,20.092 197.825 C 19.799 197.532,21.141 195.861,22.097 195.330 C 22.593 195.054,22.761 194.822,22.469 194.814 C 21.287 194.783,19.493 197.166,19.746 198.431 C 19.920 199.302,19.817 199.695,19.370 199.867 C 19.019 200.002,18.854 200.364,18.987 200.709 C 19.291 201.502,19.291 298.498,18.987 299.291 C 18.854 299.636,19.019 299.998,19.370 300.133 C 19.817 300.305,19.920 300.698,19.746 301.569 C 19.493 302.834,21.287 305.217,22.469 305.186 C 22.761 305.178,22.593 304.946,22.097 304.670 C 21.141 304.139,19.799 302.468,20.092 302.175 C 20.187 302.079,20.506 302.450,20.799 302.999 C 21.093 303.547,21.931 304.213,22.663 304.477 C 23.564 304.803,23.832 305.061,23.496 305.279 C 23.207 305.466,23.753 305.596,24.800 305.589 C 25.790 305.583,30.604 305.628,35.499 305.689 C 42.650 305.778,44.398 305.696,44.399 305.273 C 44.400 304.916,44.677 304.834,45.261 305.019 C 45.943 305.236,46.070 305.159,45.875 304.651 C 45.740 304.298,45.757 304.046,45.914 304.090 C 46.071 304.134,46.625 303.935,47.145 303.647 C 47.664 303.359,48.508 303.204,49.019 303.302 C 50.665 303.616,50.996 302.927,49.445 302.415 C 47.860 301.892,47.250 301.044,46.700 298.600 C 45.450 293.052,44.886 197.342,46.096 196.132 C 47.050 195.178,55.000 194.927,62.941 195.599 L 68.882 196.102 70.013 194.951 L 71.144 193.800 71.240 185.000 C 71.293 180.160,71.508 175.975,71.717 175.700 C 71.927 175.425,71.981 175.200,71.839 175.200 C 71.175 175.200,72.948 172.744,74.007 172.196 C 74.663 171.857,75.200 171.696,75.200 171.839 C 75.200 171.981,75.425 171.914,75.700 171.689 C 76.024 171.425,83.646 171.259,97.365 171.220 C 110.341 171.182,118.815 171.006,119.265 170.765 C 121.007 169.833,121.169 168.977,121.216 160.464 C 121.241 155.998,121.413 151.862,121.598 151.272 C 121.783 150.682,122.041 149.708,122.173 149.107 C 122.856 145.981,123.854 145.937,190.400 146.101 C 247.246 146.241,249.740 146.292,251.251 147.351 C 253.411 148.864,253.555 149.612,253.879 161.074 L 254.107 169.147 255.154 169.543 C 255.729 169.760,260.430 170.039,265.600 170.163 C 270.770 170.287,276.260 170.562,277.800 170.775 C 279.340 170.987,284.435 171.183,289.123 171.209 C 293.811 171.236,298.131 171.410,298.723 171.596 C 299.315 171.782,300.292 172.041,300.893 172.173 C 303.125 172.661,303.970 177.094,303.990 188.430 C 304.004 196.253,303.745 195.996,311.626 196.010 C 322.905 196.030,327.340 196.878,327.827 199.107 C 327.959 199.708,328.227 200.710,328.424 201.334 C 328.622 201.961,328.788 217.225,328.795 235.511 C 328.810 270.930,328.742 269.698,330.748 270.772 C 331.166 270.996,335.047 271.192,339.576 271.217 C 344.020 271.241,348.138 271.413,348.728 271.598 C 349.318 271.783,350.292 272.041,350.893 272.173 C 352.464 272.516,353.162 274.200,353.600 278.700 C 354.124 284.082,354.098 316.575,353.566 320.800 C 353.331 322.670,353.123 324.426,353.103 324.703 C 353.046 325.490,351.077 327.433,350.300 327.468 C 348.933 327.530,348.670 327.603,348.918 327.852 C 349.057 327.990,349.925 328.168,350.847 328.246 C 351.769 328.324,352.845 328.678,353.237 329.033 C 353.638 329.397,354.165 329.545,354.443 329.374 C 354.778 329.166,354.860 329.266,354.700 329.685 C 354.542 330.096,354.685 330.284,355.132 330.250 C 355.499 330.223,355.770 330.380,355.733 330.600 C 355.688 330.862,358.594 330.927,364.133 330.790 C 368.790 330.675,373.104 330.710,373.721 330.868 C 374.495 331.067,374.904 330.994,375.044 330.630 C 375.168 330.308,375.855 330.120,376.819 330.145 C 378.970 330.201,380.201 328.970,380.145 326.819 C 380.118 325.792,380.303 325.169,380.677 325.026 C 380.993 324.905,381.142 324.630,381.009 324.415 C 380.694 323.905,380.694 276.095,381.009 275.585 C 381.142 275.370,380.993 275.095,380.677 274.974 C 380.303 274.831,380.118 274.208,380.145 273.181 C 380.201 271.030,378.970 269.799,376.819 269.855 C 375.855 269.880,375.168 269.692,375.044 269.370 C 374.905 269.008,374.493 268.932,373.721 269.129 C 373.104 269.285,368.820 269.320,364.200 269.207 L 355.800 269.000 355.661 235.400 C 355.584 216.920,355.541 201.023,355.566 200.073 C 355.596 198.954,355.463 198.438,355.190 198.606 C 354.914 198.777,354.856 198.516,355.022 197.854 C 355.384 196.414,353.586 194.616,352.146 194.978 C 351.484 195.144,351.223 195.086,351.394 194.810 C 351.561 194.539,351.037 194.390,349.927 194.393 C 348.977 194.396,344.330 194.353,339.600 194.299 L 331.000 194.200 330.793 185.800 C 330.680 181.180,330.715 176.896,330.871 176.279 C 331.068 175.507,330.992 175.095,330.630 174.956 C 330.308 174.832,330.120 174.145,330.145 173.181 C 330.201 171.030,328.970 169.799,326.819 169.855 C 325.855 169.880,325.168 169.692,325.044 169.370 C 324.905 169.008,324.493 168.932,323.721 169.129 C 323.104 169.285,318.820 169.320,314.200 169.207 L 305.800 169.000 305.701 160.400 C 305.647 155.670,305.604 151.023,305.607 150.073 C 305.610 148.963,305.461 148.439,305.190 148.606 C 304.914 148.777,304.856 148.516,305.022 147.854 C 305.384 146.414,303.586 144.616,302.146 144.978 C 301.484 145.144,301.223 145.086,301.394 144.810 C 301.562 144.538,301.044 144.401,299.927 144.424 C 298.977 144.443,288.660 144.400,277.000 144.329 L 255.800 144.200 255.706 135.600 C 255.654 130.870,255.604 126.100,255.593 125.000 C 255.583 123.893,255.437 123.221,255.266 123.496 C 255.061 123.826,254.797 123.548,254.477 122.663 C 254.213 121.931,253.547 121.093,252.999 120.799 C 252.450 120.506,252.079 120.187,252.175 120.092 C 252.468 119.799,254.139 121.141,254.670 122.097 C 254.946 122.593,255.178 122.761,255.186 122.469 C 255.217 121.287,252.834 119.493,251.569 119.746 C 250.698 119.920,250.305 119.817,250.133 119.370 C 249.999 119.020,249.636 118.854,249.292 118.986 C 248.505 119.288,126.057 119.282,125.567 118.980 C 125.362 118.853,125.095 119.007,124.974 119.323 M303.999 146.198 C 304.514 146.748,304.861 147.248,304.768 147.311 C 304.676 147.374,304.116 146.924,303.526 146.312 C 302.935 145.701,302.588 145.200,302.756 145.200 C 302.923 145.200,303.483 145.649,303.999 146.198 M353.999 196.198 C 354.514 196.748,354.861 197.248,354.768 197.311 C 354.676 197.374,354.116 196.924,353.526 196.312 C 352.935 195.701,352.588 195.200,352.756 195.200 C 352.923 195.200,353.483 195.649,353.999 196.198 M254.870 254.926 C 254.049 255.799,254.000 256.225,254.000 262.487 L 254.000 269.122 255.260 269.561 C 257.277 270.264,268.583 270.133,270.020 269.390 L 271.200 268.779 271.200 262.465 L 271.200 256.150 270.078 255.075 L 268.956 254.000 262.348 254.000 C 255.957 254.000,255.711 254.031,254.870 254.926 M179.969 279.969 L 178.800 281.138 178.800 287.447 C 178.800 293.749,178.801 293.758,179.875 294.878 L 180.950 296.000 187.605 296.000 C 196.479 296.000,196.000 296.483,196.000 287.549 L 196.000 280.950 194.878 279.875 C 193.758 278.801,193.749 278.800,187.447 278.800 L 181.138 278.800 179.969 279.969 M280.610 279.980 C 279.824 281.500,279.715 293.555,280.480 294.320 C 281.094 294.934,294.094 294.992,295.226 294.386 C 295.943 294.003,296.000 293.489,296.000 287.461 L 296.000 280.950 294.878 279.875 C 293.758 278.802,293.745 278.800,287.488 278.800 L 281.221 278.800 280.610 279.980 M204.870 304.926 C 203.425 306.464,203.556 318.310,205.055 321.650 L 206.109 324.000 212.393 324.000 C 220.982 324.000,221.153 323.782,221.182 312.775 L 221.200 306.150 220.078 305.075 L 218.956 304.000 212.348 304.000 C 205.957 304.000,205.711 304.031,204.870 304.926 M305.614 304.774 C 305.008 305.906,305.066 318.906,305.680 319.520 C 306.445 320.285,318.500 320.176,320.020 319.390 L 321.200 318.779 321.200 312.465 L 321.200 306.150 320.078 305.075 L 318.956 304.000 312.492 304.000 C 306.511 304.000,305.997 304.058,305.614 304.774 M153.500 330.026 L 151.200 331.213 151.200 337.538 L 151.200 343.863 153.231 344.331 C 155.920 344.952,168.821 344.955,170.181 344.336 L 171.200 343.872 171.200 337.505 L 171.200 331.138 170.031 329.969 L 168.862 328.800 162.331 328.819 C 155.891 328.838,155.768 328.855,153.500 330.026 M229.074 329.380 C 226.002 330.475,225.967 330.571,226.090 337.568 L 226.200 343.795 228.800 344.279 C 232.308 344.932,243.678 344.962,244.320 344.320 C 244.971 343.669,244.985 331.244,244.336 329.819 L 243.872 328.800 237.236 328.818 C 232.693 328.830,230.118 329.007,229.074 329.380 M254.789 351.700 C 250.149 354.841,250.194 367.902,254.874 376.415 L 256.185 378.800 262.463 378.800 L 268.741 378.800 269.939 376.700 C 274.703 368.351,274.737 355.847,270.006 351.867 C 268.180 350.330,256.994 350.207,254.789 351.700 M270.570 354.820 L 272.000 356.402 272.000 362.411 L 272.000 368.420 270.604 371.191 L 269.209 373.963 262.601 374.081 L 255.993 374.200 254.596 371.542 L 253.200 368.883 253.200 362.531 C 253.200 353.093,253.341 352.951,262.589 353.118 L 269.140 353.237 270.570 354.820 M180.439 355.260 C 179.755 357.222,179.886 367.941,180.634 371.231 L 181.269 374.020 187.491 373.910 L 193.713 373.800 194.250 372.000 C 194.909 369.795,195.018 355.954,194.386 354.774 C 194.002 354.057,193.488 354.000,187.425 354.000 L 180.878 354.000 180.439 355.260 M75.184 373.185 C 76.315 374.250,77.125 374.658,78.259 374.735 C 79.106 374.792,79.970 375.010,80.179 375.219 C 80.391 375.431,83.677 375.600,87.601 375.600 C 95.656 375.600,97.593 376.161,99.991 379.189 L 101.200 380.715 101.200 387.177 C 101.200 394.173,101.374 394.917,103.464 396.851 C 105.444 398.683,106.013 398.800,112.974 398.800 C 116.618 398.800,119.600 398.949,119.600 399.132 C 119.600 399.612,124.059 401.542,125.800 401.815 C 126.020 401.850,126.290 401.919,126.400 401.970 C 128.045 402.723,132.923 403.218,138.269 403.175 C 143.046 403.137,144.580 403.258,145.469 403.743 C 146.091 404.081,147.050 404.560,147.599 404.807 C 150.003 405.886,150.000 405.875,150.000 414.038 C 150.000 418.945,150.149 421.645,150.428 421.817 C 150.663 421.963,151.012 422.468,151.203 422.941 C 151.415 423.466,151.559 420.362,151.575 414.951 L 151.600 406.102 149.840 404.479 C 146.360 401.271,145.570 401.046,136.800 400.765 C 128.280 400.492,126.018 399.987,120.898 397.213 C 118.677 396.011,118.604 396.000,112.451 396.000 C 106.260 396.000,106.241 395.997,105.122 394.925 L 104.000 393.850 104.000 387.112 C 104.000 374.719,102.000 373.215,85.474 373.187 C 79.158 373.176,77.433 373.047,75.725 372.457 L 73.649 371.740 75.184 373.185 M201.245 452.911 C 200.958 454.559,200.799 462.694,200.798 475.833 C 200.795 503.051,202.020 500.495,188.819 500.826 L 179.800 501.052 176.895 502.388 C 173.545 503.928,173.459 504.073,176.200 503.559 C 178.652 503.100,195.777 503.014,196.488 503.458 C 196.770 503.634,197.237 503.813,197.526 503.857 C 199.535 504.161,199.999 505.870,200.000 512.957 L 200.000 519.714 201.843 521.870 C 204.864 525.407,205.699 525.670,213.553 525.562 C 221.657 525.450,222.474 525.263,220.116 524.059 C 218.601 523.286,217.790 523.200,212.038 523.200 L 205.644 523.200 203.622 521.146 L 201.600 519.091 201.623 512.246 C 201.658 501.479,201.481 501.658,212.120 501.623 C 218.612 501.601,221.199 501.164,221.200 500.090 C 221.200 499.930,217.825 499.855,213.700 499.923 L 206.200 500.045 205.068 499.049 C 204.446 498.501,203.901 497.816,203.857 497.526 C 203.813 497.237,203.638 496.777,203.468 496.504 C 203.297 496.232,203.170 487.232,203.184 476.504 C 203.213 454.537,202.491 445.755,201.245 452.911 M122.000 497.163 C 122.000 497.838,124.082 501.198,124.500 501.199 C 125.007 501.200,124.851 500.844,123.400 498.690 C 122.630 497.546,122.000 496.859,122.000 497.163 M300.600 536.100 C 300.600 550.679,300.679 550.600,286.100 550.600 C 280.765 550.600,276.400 550.735,276.400 550.900 C 276.400 551.171,276.752 551.260,277.455 551.166 C 277.596 551.147,277.839 551.339,277.995 551.592 C 278.152 551.846,278.532 552.104,278.840 552.165 C 279.148 552.227,279.940 552.502,280.600 552.777 C 281.688 553.229,285.231 553.229,297.300 552.777 C 297.685 552.762,298.000 552.620,298.000 552.460 C 298.000 552.301,298.402 552.140,298.894 552.103 C 299.386 552.066,299.851 551.846,299.928 551.615 C 300.005 551.384,300.188 551.267,300.334 551.356 C 300.480 551.444,300.832 551.265,301.116 550.958 C 301.399 550.651,301.489 550.397,301.316 550.394 C 301.142 550.391,301.234 550.239,301.520 550.058 C 301.806 549.876,302.069 549.339,302.105 548.864 C 302.141 548.389,302.301 548.000,302.460 548.000 C 302.620 548.000,302.762 547.685,302.777 547.300 C 303.229 535.231,303.229 531.688,302.777 530.600 C 302.502 529.940,302.227 529.148,302.165 528.840 C 302.104 528.532,301.846 528.152,301.592 527.995 C 301.339 527.839,301.147 527.596,301.166 527.455 C 301.260 526.752,301.171 526.400,300.900 526.400 C 300.735 526.400,300.600 530.765,300.600 536.100 " stroke="none" fill="#4c3c2c" fill-rule="evenodd"></path><path id="path4" d="M122.426 119.240 C 121.890 119.454,121.206 119.534,120.905 119.419 C 120.605 119.304,120.456 119.367,120.575 119.559 C 120.855 120.012,119.816 120.883,119.442 120.509 C 119.286 120.352,119.265 120.503,119.395 120.843 C 119.526 121.184,119.450 121.942,119.228 122.528 C 118.799 123.655,119.024 124.800,119.675 124.800 C 119.899 124.800,119.955 124.251,119.808 123.500 C 119.611 122.504,119.654 122.340,119.988 122.800 C 120.332 123.273,120.375 123.185,120.189 122.382 C 119.879 121.037,121.149 119.817,122.471 120.190 C 123.219 120.401,123.283 120.365,122.800 120.002 C 122.331 119.650,122.484 119.607,123.500 119.808 C 124.832 120.070,125.337 119.492,124.167 119.043 C 123.819 118.909,123.504 118.811,123.467 118.825 C 123.430 118.839,122.962 119.026,122.426 119.240 M127.462 119.100 C 127.360 119.265,154.422 119.400,187.600 119.400 C 220.778 119.400,247.716 119.268,247.462 119.106 C 246.852 118.718,127.702 118.712,127.462 119.100 M250.695 119.106 C 249.442 119.381,250.388 119.981,251.716 119.753 C 252.537 119.612,252.817 119.663,252.492 119.895 C 252.112 120.166,252.232 120.389,252.972 120.785 C 253.515 121.076,254.220 121.963,254.539 122.757 L 255.118 124.200 255.493 122.800 C 255.730 121.913,255.726 121.306,255.482 121.145 C 255.271 121.004,255.224 120.685,255.378 120.435 C 255.533 120.185,255.511 120.013,255.330 120.054 C 255.148 120.094,254.730 120.024,254.400 119.899 C 252.750 119.271,251.330 118.967,250.695 119.106 M254.371 121.054 C 254.827 121.634,255.195 122.309,255.188 122.554 C 255.181 122.799,254.978 122.640,254.736 122.200 C 254.494 121.760,253.914 121.089,253.448 120.709 C 252.982 120.329,252.812 120.014,253.071 120.009 C 253.330 120.004,253.915 120.474,254.371 121.054 M255.461 124.795 C 255.330 125.452,255.386 126.397,255.586 126.895 C 255.875 127.616,255.954 127.372,255.975 125.700 C 256.003 123.343,255.817 123.015,255.461 124.795 M119.067 127.467 C 118.920 127.613,118.800 131.392,118.800 135.863 L 118.800 143.992 99.700 144.102 L 80.600 144.212 99.800 144.206 L 119.000 144.200 119.204 135.800 C 119.429 126.547,119.438 127.095,119.067 127.467 M255.780 137.400 L 255.800 144.200 275.000 144.208 L 294.200 144.216 275.200 144.008 L 256.200 143.800 255.980 137.200 L 255.760 130.600 255.780 137.400 M71.200 144.471 C 71.200 144.699,70.932 144.783,70.605 144.657 C 70.277 144.532,70.036 144.557,70.068 144.714 C 70.101 144.871,70.024 145.270,69.899 145.600 C 69.271 147.250,68.967 148.670,69.106 149.305 C 69.381 150.558,69.981 149.612,69.753 148.284 C 69.612 147.463,69.663 147.183,69.895 147.508 C 70.166 147.887,70.392 147.762,70.795 147.009 C 71.091 146.456,71.929 145.788,72.657 145.525 C 74.175 144.976,74.162 144.905,72.454 144.416 C 71.624 144.177,71.200 144.196,71.200 144.471 M74.661 144.437 C 75.433 144.661,76.287 144.657,76.861 144.427 C 77.615 144.125,77.366 144.053,75.600 144.061 C 73.610 144.071,73.521 144.107,74.661 144.437 M298.090 144.426 C 298.537 144.687,299.241 144.695,300.090 144.450 C 301.352 144.086,301.327 144.071,299.400 144.048 C 297.877 144.030,297.564 144.120,298.090 144.426 M302.600 144.323 C 302.160 144.408,301.620 144.653,301.400 144.867 C 301.139 145.121,301.418 145.176,302.200 145.026 C 302.860 144.899,303.195 144.895,302.944 145.016 C 302.655 145.156,302.874 145.632,303.544 146.319 C 304.207 146.997,304.724 147.251,304.932 147.000 C 305.115 146.780,305.153 147.110,305.016 147.734 C 304.873 148.386,304.924 148.770,305.136 148.639 C 306.651 147.703,304.454 143.965,302.600 144.323 M72.200 145.264 C 71.760 145.506,71.089 146.086,70.709 146.552 C 70.329 147.018,70.014 147.188,70.009 146.929 C 69.998 146.378,71.903 144.794,72.554 144.812 C 72.799 144.819,72.640 145.022,72.200 145.264 M304.408 145.810 C 305.181 146.741,304.629 146.917,303.802 146.002 C 303.403 145.561,303.262 145.200,303.489 145.200 C 303.716 145.200,304.130 145.474,304.408 145.810 M305.452 150.039 C 305.316 150.721,305.378 151.576,305.590 151.939 C 305.877 152.431,305.979 152.114,305.988 150.700 C 306.002 148.508,305.807 148.267,305.452 150.039 M69.049 152.615 C 68.912 152.973,68.800 156.761,68.800 161.033 L 68.800 168.800 60.900 168.806 C 55.952 168.810,52.776 168.972,52.400 169.239 C 51.951 169.559,52.203 169.609,53.400 169.438 C 54.280 169.312,58.179 169.207,62.065 169.204 L 69.130 169.200 69.274 160.700 C 69.427 151.612,69.428 151.629,69.049 152.615 M305.689 162.313 C 305.622 167.231,305.722 168.867,306.100 168.995 C 307.015 169.304,322.728 169.405,322.539 169.100 C 322.436 168.935,318.678 168.800,314.186 168.800 L 306.020 168.800 305.899 162.300 L 305.779 155.800 305.689 162.313 M47.400 169.297 C 46.740 169.498,45.930 169.768,45.600 169.895 C 45.270 170.023,44.852 170.094,44.670 170.054 C 44.489 170.013,44.467 170.185,44.622 170.435 C 44.776 170.685,44.729 171.004,44.518 171.145 C 44.274 171.306,44.270 171.913,44.507 172.800 L 44.882 174.200 45.461 172.757 C 45.780 171.963,46.485 171.076,47.028 170.785 C 47.768 170.389,47.888 170.166,47.508 169.895 C 47.183 169.663,47.463 169.612,48.284 169.753 C 48.991 169.875,49.664 169.820,49.780 169.632 C 50.114 169.092,48.715 168.895,47.400 169.297 M325.700 169.069 C 324.632 169.492,325.242 170.055,326.500 169.808 C 327.516 169.607,327.669 169.650,327.200 170.002 C 326.717 170.365,326.781 170.401,327.529 170.190 C 328.851 169.817,330.121 171.037,329.811 172.382 C 329.625 173.185,329.668 173.273,330.012 172.800 C 330.346 172.340,330.389 172.504,330.192 173.500 C 330.045 174.251,330.101 174.800,330.325 174.800 C 330.976 174.800,331.201 173.655,330.772 172.528 C 330.550 171.942,330.463 171.214,330.579 170.910 C 330.696 170.607,330.633 170.456,330.441 170.575 C 330.079 170.798,329.080 169.854,329.370 169.563 C 329.460 169.473,329.143 169.391,328.667 169.380 C 328.190 169.370,327.440 169.251,327.000 169.116 C 326.560 168.981,325.975 168.960,325.700 169.069 M46.552 170.709 C 46.086 171.089,45.506 171.760,45.264 172.200 C 45.022 172.640,44.819 172.799,44.812 172.554 C 44.794 171.903,46.378 169.998,46.929 170.009 C 47.188 170.014,47.018 170.329,46.552 170.709 M44.061 175.600 C 44.053 177.366,44.125 177.615,44.427 176.861 C 44.657 176.287,44.661 175.433,44.437 174.661 C 44.107 173.521,44.071 173.610,44.061 175.600 M330.718 185.338 C 330.783 189.772,330.912 193.625,331.005 193.900 C 331.133 194.278,332.769 194.378,337.687 194.311 L 344.200 194.221 337.700 194.101 L 331.200 193.980 331.200 185.814 C 331.200 181.322,331.065 177.564,330.900 177.461 C 330.735 177.359,330.653 180.904,330.718 185.338 M43.994 187.200 L 43.800 193.800 37.200 194.015 L 30.600 194.230 37.313 194.315 C 45.251 194.416,44.455 195.250,44.305 186.984 L 44.189 180.600 43.994 187.200 M21.200 194.471 C 21.200 194.699,20.932 194.783,20.605 194.657 C 20.277 194.532,20.036 194.557,20.068 194.714 C 20.101 194.871,20.024 195.270,19.899 195.600 C 19.271 197.250,18.967 198.670,19.106 199.305 C 19.381 200.558,19.981 199.612,19.753 198.284 C 19.612 197.463,19.663 197.183,19.895 197.508 C 20.166 197.887,20.392 197.762,20.795 197.009 C 21.091 196.456,21.929 195.788,22.657 195.525 C 24.175 194.976,24.162 194.905,22.454 194.416 C 21.624 194.177,21.200 194.196,21.200 194.471 M24.661 194.437 C 25.433 194.661,26.287 194.657,26.861 194.427 C 27.615 194.125,27.366 194.053,25.600 194.061 C 23.610 194.071,23.521 194.107,24.661 194.437 M348.090 194.426 C 348.537 194.687,349.241 194.695,350.090 194.450 C 351.352 194.086,351.327 194.071,349.400 194.048 C 347.877 194.030,347.564 194.120,348.090 194.426 M352.600 194.323 C 352.160 194.408,351.620 194.653,351.400 194.867 C 351.139 195.121,351.418 195.176,352.200 195.026 C 352.860 194.899,353.195 194.895,352.944 195.016 C 352.655 195.156,352.874 195.632,353.544 196.319 C 354.207 196.997,354.724 197.251,354.932 197.000 C 355.115 196.780,355.153 197.110,355.016 197.734 C 354.873 198.386,354.924 198.770,355.136 198.639 C 356.651 197.703,354.454 193.965,352.600 194.323 M22.200 195.264 C 21.760 195.506,21.089 196.086,20.709 196.552 C 20.329 197.018,20.014 197.188,20.009 196.929 C 19.998 196.378,21.903 194.794,22.554 194.812 C 22.799 194.819,22.640 195.022,22.200 195.264 M354.408 195.810 C 355.181 196.741,354.629 196.917,353.802 196.002 C 353.403 195.561,353.262 195.200,353.489 195.200 C 353.716 195.200,354.130 195.474,354.408 195.810 M355.452 200.039 C 355.316 200.721,355.378 201.576,355.590 201.939 C 355.877 202.431,355.979 202.114,355.988 200.700 C 356.002 198.508,355.807 198.267,355.452 200.039 M19.043 202.633 C 18.693 203.545,18.755 296.910,19.106 297.462 C 19.268 297.716,19.400 276.341,19.400 249.962 C 19.400 223.583,19.374 202.000,19.343 202.000 C 19.311 202.000,19.176 202.285,19.043 202.633 M355.698 237.313 C 355.620 262.236,355.705 268.861,356.100 268.995 C 357.015 269.304,372.728 269.405,372.539 269.100 C 372.436 268.935,368.674 268.800,364.179 268.800 L 356.005 268.800 355.900 237.300 L 355.795 205.800 355.698 237.313 M375.700 269.069 C 374.632 269.492,375.242 270.055,376.500 269.808 C 377.516 269.607,377.669 269.650,377.200 270.002 C 376.717 270.365,376.781 270.401,377.529 270.190 C 378.851 269.817,380.121 271.037,379.811 272.382 C 379.625 273.185,379.668 273.273,380.012 272.800 C 380.346 272.340,380.389 272.504,380.192 273.500 C 380.045 274.251,380.101 274.800,380.325 274.800 C 380.976 274.800,381.201 273.655,380.772 272.528 C 380.550 271.942,380.463 271.214,380.579 270.910 C 380.696 270.607,380.633 270.456,380.441 270.575 C 380.079 270.798,379.080 269.854,379.370 269.563 C 379.460 269.473,379.143 269.391,378.667 269.380 C 378.190 269.370,377.440 269.251,377.000 269.116 C 376.560 268.981,375.975 268.960,375.700 269.069 M380.600 300.000 C 380.600 312.498,380.735 322.640,380.900 322.538 C 381.065 322.436,381.200 312.294,381.200 300.000 C 381.200 287.706,381.065 277.564,380.900 277.462 C 380.735 277.360,380.600 287.502,380.600 300.000 M19.106 300.695 C 18.967 301.330,19.271 302.750,19.899 304.400 C 20.024 304.730,20.094 305.148,20.054 305.330 C 20.013 305.511,20.185 305.533,20.435 305.378 C 20.685 305.224,21.004 305.271,21.145 305.482 C 21.306 305.726,21.913 305.730,22.800 305.493 L 24.200 305.118 22.757 304.539 C 21.963 304.220,21.076 303.515,20.785 302.972 C 20.389 302.232,20.166 302.112,19.895 302.492 C 19.663 302.817,19.612 302.537,19.753 301.716 C 19.981 300.388,19.381 299.442,19.106 300.695 M22.200 304.736 C 22.640 304.978,22.799 305.181,22.554 305.188 C 21.903 305.206,19.998 303.622,20.009 303.071 C 20.014 302.812,20.329 302.982,20.709 303.448 C 21.089 303.914,21.760 304.494,22.200 304.736 M50.335 303.240 C 50.123 303.371,49.530 303.399,49.019 303.302 C 48.508 303.204,47.664 303.359,47.145 303.647 C 46.625 303.935,46.071 304.134,45.914 304.090 C 45.757 304.046,45.740 304.298,45.875 304.651 C 46.070 305.159,45.943 305.236,45.261 305.019 C 44.677 304.834,44.400 304.916,44.401 305.273 C 44.401 305.689,42.987 305.796,37.701 305.781 L 31.000 305.762 37.191 305.892 C 40.595 305.963,43.517 306.157,43.683 306.323 C 43.849 306.489,43.995 322.864,44.008 342.712 C 44.023 364.622,44.178 378.800,44.404 378.800 C 44.608 378.800,44.678 379.052,44.560 379.360 C 44.442 379.667,44.566 380.055,44.835 380.221 C 45.167 380.427,45.230 380.344,45.032 379.962 C 44.842 379.595,44.924 379.615,45.270 380.021 C 45.947 380.814,45.559 380.783,57.861 381.042 L 68.322 381.263 69.918 380.206 C 72.732 378.345,75.070 377.949,84.618 377.715 C 97.991 377.389,98.266 377.598,98.465 388.200 C 98.694 400.408,99.556 401.228,112.600 401.638 C 117.000 401.777,121.230 402.097,122.000 402.349 C 124.633 403.213,132.437 404.000,138.360 404.000 L 144.280 404.000 145.940 405.203 L 147.600 406.405 147.600 412.352 C 147.600 418.886,147.303 420.256,145.101 423.900 L 143.831 426.000 137.015 426.008 C 129.411 426.017,126.189 426.774,121.232 429.716 L 119.000 431.040 119.000 437.620 L 119.000 444.200 107.700 444.131 C 100.181 444.086,96.400 444.201,96.400 444.474 C 96.400 444.700,96.152 444.790,95.849 444.674 C 95.137 444.401,94.401 445.137,94.674 445.849 C 94.790 446.152,94.696 446.400,94.465 446.400 C 94.011 446.400,93.771 497.737,94.219 498.905 C 94.395 499.363,94.740 499.452,95.529 499.242 C 96.118 499.084,98.580 498.998,101.000 499.050 C 103.420 499.102,108.385 499.157,112.033 499.172 L 118.667 499.200 120.833 502.500 L 123.000 505.800 123.246 513.000 C 123.729 527.119,122.587 526.513,149.066 526.700 L 168.333 526.836 170.250 525.935 C 175.378 523.524,176.800 520.545,176.800 512.211 L 176.800 506.013 178.787 505.007 C 180.682 504.046,181.092 504.000,187.698 504.000 C 197.686 504.000,197.600 503.921,197.600 513.090 C 197.600 524.887,200.352 527.575,212.444 527.591 L 219.087 527.600 220.944 529.234 L 222.800 530.868 222.800 537.550 C 222.800 552.457,221.478 551.726,249.000 552.029 C 266.718 552.224,270.422 552.367,274.000 552.995 C 283.071 554.588,300.058 554.004,302.031 552.031 C 303.995 550.066,304.585 533.134,303.007 524.000 C 301.333 514.310,301.846 503.583,304.259 497.800 C 305.835 494.023,305.831 494.105,304.430 494.310 C 303.753 494.410,303.200 494.645,303.200 494.833 C 303.200 495.021,302.964 495.084,302.675 494.973 C 300.476 494.129,299.715 498.555,299.852 511.400 C 299.980 523.381,300.167 525.824,301.024 526.681 C 301.345 527.002,301.515 527.415,301.401 527.598 C 301.288 527.782,301.386 527.995,301.619 528.073 C 301.853 528.151,302.096 528.481,302.160 528.807 C 302.225 529.133,302.502 529.940,302.777 530.600 C 303.229 531.688,303.229 535.231,302.777 547.300 C 302.762 547.685,302.620 548.000,302.460 548.000 C 302.301 548.000,302.141 548.389,302.105 548.864 C 302.069 549.339,301.806 549.876,301.520 550.058 C 301.234 550.239,301.142 550.391,301.316 550.394 C 301.489 550.397,301.399 550.651,301.116 550.958 C 300.832 551.265,300.480 551.444,300.334 551.356 C 300.188 551.267,300.005 551.384,299.928 551.615 C 299.851 551.846,299.386 552.066,298.894 552.103 C 298.402 552.140,298.000 552.301,298.000 552.460 C 298.000 552.620,297.685 552.762,297.300 552.777 C 285.231 553.229,281.688 553.229,280.600 552.777 C 279.940 552.502,279.133 552.225,278.807 552.160 C 278.481 552.096,278.151 551.853,278.073 551.619 C 277.995 551.386,277.782 551.288,277.598 551.401 C 277.415 551.515,277.024 551.367,276.730 551.073 C 275.726 550.069,273.373 549.966,252.081 549.993 C 223.521 550.030,224.670 550.604,224.841 536.382 C 224.931 528.915,224.868 528.609,222.725 526.173 C 222.028 525.380,221.692 525.354,214.477 525.521 C 205.664 525.726,204.964 525.524,201.843 521.870 L 200.000 519.714 200.000 512.957 C 199.999 505.870,199.535 504.161,197.526 503.857 C 197.237 503.813,196.770 503.634,196.488 503.458 C 195.741 502.991,178.586 503.109,176.009 503.598 C 174.804 503.827,173.139 504.463,172.309 505.013 L 170.800 506.011 170.800 512.284 C 170.800 518.546,170.798 518.558,169.725 519.678 L 168.650 520.800 150.000 520.800 L 131.350 520.800 130.275 519.678 C 129.204 518.560,129.200 518.534,129.200 512.419 L 129.200 506.282 127.845 504.641 C 125.536 501.846,124.919 501.200,124.553 501.199 C 124.095 501.198,122.000 497.885,121.999 497.158 C 121.998 496.851,121.644 496.021,121.212 495.313 C 120.376 493.941,119.461 452.954,120.164 448.292 C 120.643 445.113,120.642 445.113,133.919 444.897 C 140.277 444.794,146.471 444.500,147.800 444.238 L 150.200 443.766 150.464 436.583 C 150.608 432.632,150.854 427.864,151.009 425.987 C 151.247 423.103,151.191 422.491,150.646 422.038 C 150.094 421.580,150.000 420.417,150.000 414.013 C 150.000 405.802,150.079 406.086,147.400 404.674 C 144.642 403.221,144.121 403.136,138.200 403.180 C 132.914 403.219,128.036 402.718,126.400 401.970 C 126.290 401.919,126.020 401.850,125.800 401.815 C 124.059 401.542,119.600 399.612,119.600 399.132 C 119.600 398.949,116.618 398.800,112.974 398.800 C 106.013 398.800,105.444 398.683,103.464 396.851 C 101.374 394.917,101.200 394.173,101.200 387.177 L 101.200 380.715 99.991 379.189 C 97.593 376.161,95.656 375.600,87.601 375.600 C 83.677 375.600,80.391 375.431,80.179 375.219 C 79.970 375.010,79.109 374.792,78.265 374.735 C 76.667 374.628,73.441 372.072,72.447 370.126 C 72.129 369.505,72.000 360.145,72.000 337.707 L 72.000 306.162 70.500 304.712 L 69.000 303.261 59.861 303.130 C 54.835 303.059,50.548 303.108,50.335 303.240 M24.400 305.600 C 23.637 305.844,23.921 305.923,25.600 305.932 C 27.173 305.940,27.572 305.846,27.000 305.600 C 26.034 305.185,25.696 305.185,24.400 305.600 M380.192 326.500 C 380.389 327.496,380.346 327.660,380.012 327.200 C 379.668 326.727,379.625 326.815,379.811 327.618 C 380.121 328.963,378.851 330.183,377.529 329.810 C 376.781 329.599,376.717 329.635,377.200 329.998 C 377.669 330.350,377.516 330.393,376.500 330.192 C 375.749 330.045,375.200 330.101,375.200 330.325 C 375.200 330.976,376.345 331.201,377.472 330.772 C 378.058 330.550,378.816 330.474,379.157 330.605 C 379.497 330.735,379.648 330.714,379.491 330.558 C 379.117 330.184,379.988 329.145,380.441 329.425 C 380.633 329.544,380.696 329.393,380.579 329.090 C 380.463 328.786,380.550 328.058,380.772 327.472 C 381.201 326.345,380.976 325.200,380.325 325.200 C 380.101 325.200,380.045 325.749,380.192 326.500 M330.428 329.546 C 329.205 331.943,329.219 342.111,330.453 347.030 L 331.306 350.430 342.076 350.339 C 348.000 350.289,352.937 350.102,353.047 349.924 C 353.403 349.348,354.000 349.580,354.012 350.300 C 354.023 350.950,354.055 350.948,354.448 350.272 C 354.857 349.568,354.889 349.568,355.431 350.272 C 355.915 350.901,355.978 349.640,355.896 341.000 L 355.800 331.000 363.964 331.116 C 368.454 331.180,372.270 331.090,372.444 330.916 C 372.619 330.742,369.073 330.661,364.565 330.736 C 358.694 330.833,356.207 330.738,355.802 330.401 C 355.490 330.143,355.049 330.046,354.822 330.186 C 354.567 330.344,354.510 330.179,354.673 329.755 C 354.857 329.273,354.789 329.160,354.443 329.374 C 354.159 329.549,353.603 329.364,353.133 328.939 C 352.391 328.268,351.351 328.187,341.786 328.062 L 331.256 327.923 330.428 329.546 M255.306 353.600 C 253.349 355.207,253.200 355.837,253.200 362.531 L 253.200 368.883 254.596 371.542 L 255.993 374.200 262.601 374.081 L 269.209 373.963 270.604 371.191 L 272.000 368.420 272.000 362.411 L 272.000 356.402 270.570 354.820 L 269.140 353.237 262.589 353.118 C 257.230 353.022,255.905 353.109,255.306 353.600 M269.973 355.162 C 271.361 357.112,271.207 367.992,269.745 371.250 L 268.691 373.600 262.520 373.600 L 256.350 373.600 255.175 371.009 C 253.094 366.418,253.472 355.906,255.777 354.306 C 256.010 354.144,259.113 354.009,262.673 354.006 L 269.146 354.000 269.973 355.162 M330.977 381.315 C 330.868 381.599,330.834 384.794,330.900 388.415 L 331.021 395.000 331.111 388.109 L 331.200 381.219 338.100 381.099 L 345.000 380.980 338.087 380.890 C 332.751 380.820,331.130 380.917,330.977 381.315 M204.685 446.435 C 202.175 447.760,201.749 449.185,202.552 453.575 C 203.119 456.672,203.215 460.140,203.189 476.614 C 203.172 487.281,203.297 496.231,203.468 496.504 C 203.638 496.777,203.813 497.237,203.857 497.526 C 204.181 499.664,205.758 500.043,213.897 499.940 L 221.595 499.844 222.749 498.622 C 224.833 496.417,224.782 497.019,224.845 473.905 C 224.916 448.146,224.950 448.364,220.600 446.356 C 218.153 445.226,206.869 445.282,204.685 446.435 M220.472 453.100 C 222.884 455.624,222.800 454.827,222.800 475.098 C 222.800 496.085,223.066 494.136,219.874 496.571 C 218.563 497.570,218.353 497.600,212.539 497.600 C 203.260 497.600,204.000 499.549,204.000 475.098 L 204.000 455.573 205.007 453.587 L 206.013 451.600 212.526 451.600 L 219.038 451.600 220.472 453.100 " stroke="none" fill="#4c3434" fill-rule="evenodd"></path><path id="path5" d="M280.996 352.100 C 280.832 352.595,280.552 357.950,280.375 364.000 C 280.197 370.050,279.924 379.187,279.768 384.305 C 279.407 396.194,278.710 395.200,287.400 395.200 C 295.750 395.200,295.084 395.960,295.289 386.200 C 295.585 372.144,296.981 370.710,310.600 370.473 C 321.053 370.291,320.400 370.811,320.400 362.673 C 320.400 357.807,320.247 356.173,319.583 353.943 L 318.766 351.200 300.030 351.200 L 281.293 351.200 280.996 352.100 M228.900 355.496 L 226.400 356.124 226.400 375.143 L 226.400 394.161 228.785 396.480 L 231.171 398.800 237.375 398.800 L 243.579 398.800 244.290 397.500 C 245.307 395.639,245.135 356.646,244.105 355.500 C 243.247 354.546,232.689 354.543,228.900 355.496 M138.029 455.100 C 133.450 455.178,130.864 455.380,130.493 455.689 C 129.752 456.303,129.986 470.290,130.771 472.300 L 131.278 473.600 150.230 473.600 L 169.183 473.600 171.391 471.391 L 173.600 469.183 173.600 462.644 L 173.600 456.105 171.274 455.453 C 168.926 454.794,160.823 454.708,138.029 455.100 " stroke="none" fill="#f4c49c" fill-rule="evenodd"></path><path id="path6" d="M229.182 175.303 C 227.065 176.566,226.627 177.093,223.455 182.200 C 222.259 184.124,220.504 185.582,216.800 187.726 C 215.141 188.687,214.185 189.640,212.913 191.600 C 209.577 196.744,209.149 197.262,207.360 198.323 C 202.080 201.456,201.455 202.081,198.331 207.348 C 197.743 208.339,196.501 209.701,195.571 210.375 L 193.880 211.600 187.418 211.600 C 179.417 211.600,177.689 212.395,174.809 217.400 C 172.964 220.606,171.906 221.957,170.446 222.968 L 168.957 224.000 124.950 224.000 L 80.943 224.000 79.493 222.900 C 77.785 221.604,76.989 220.595,75.259 217.531 C 73.786 214.925,71.982 213.210,69.262 211.831 C 67.161 210.767,65.535 209.355,63.883 207.163 C 62.539 205.378,56.853 202.929,55.605 203.597 C 53.076 204.951,53.198 203.534,53.219 231.354 L 53.237 256.600 54.541 259.800 L 55.844 263.000 62.461 263.200 L 69.077 263.400 70.838 264.853 C 71.807 265.652,73.050 267.061,73.600 267.984 C 76.283 272.487,77.076 273.440,79.182 274.697 L 81.365 276.000 100.000 276.000 L 118.635 276.000 120.818 274.697 C 122.927 273.438,123.751 272.446,126.400 267.974 C 126.950 267.045,128.271 265.591,129.336 264.743 L 131.272 263.200 137.758 263.200 C 146.034 263.200,147.870 262.262,150.722 256.579 C 151.809 254.413,154.530 251.750,156.867 250.566 C 159.566 249.198,161.268 247.581,162.588 245.128 C 164.023 242.460,165.271 240.905,167.106 239.500 L 168.543 238.400 193.771 238.399 C 218.681 238.397,219.018 238.386,220.400 237.558 C 222.633 236.219,223.963 234.781,225.494 232.052 C 227.304 228.824,228.841 227.293,232.105 225.468 C 234.995 223.852,236.713 222.105,238.187 219.285 C 239.428 216.910,240.205 215.957,242.155 214.423 L 243.710 213.200 250.395 213.200 L 257.080 213.200 258.654 212.060 C 260.659 210.607,262.194 208.781,263.386 206.427 C 264.530 204.171,267.241 201.598,269.889 200.256 C 271.962 199.206,274.333 196.864,275.388 194.824 C 275.902 193.830,276.000 192.421,275.910 187.304 L 275.800 181.008 272.200 179.518 L 268.600 178.028 261.364 178.014 C 253.206 177.998,249.670 177.365,245.681 175.204 C 243.488 174.016,243.375 174.000,237.411 174.000 L 231.365 174.000 229.182 175.303 M252.918 277.478 C 251.773 277.816,250.108 278.716,249.218 279.477 L 247.600 280.862 247.600 299.692 L 247.600 318.523 248.813 321.089 C 250.934 325.579,251.594 329.334,251.597 336.931 L 251.600 343.662 252.732 344.793 C 254.380 346.442,256.256 346.795,263.374 346.798 C 270.739 346.800,272.393 347.293,274.418 350.088 C 277.796 354.751,277.782 369.485,274.391 378.400 C 273.300 381.269,273.244 381.742,273.125 389.219 C 272.948 400.300,273.241 400.000,262.610 400.000 L 255.671 400.000 254.573 398.700 C 252.058 395.721,251.608 393.985,251.604 387.248 C 251.600 381.658,251.506 380.838,250.575 378.255 C 248.828 373.413,248.400 370.457,248.400 363.246 C 248.400 355.583,247.880 353.019,245.931 351.070 L 244.733 349.871 227.466 350.134 C 217.970 350.279,209.261 350.398,208.114 350.398 C 202.938 350.402,201.777 353.161,201.460 366.200 C 201.327 371.700,201.044 377.100,200.833 378.200 C 200.621 379.300,200.437 383.285,200.424 387.055 L 200.400 393.910 199.100 395.855 C 198.385 396.925,196.905 398.398,195.811 399.129 L 193.821 400.459 186.211 400.329 C 174.808 400.136,175.102 400.441,174.746 388.400 C 174.606 383.670,174.205 377.370,173.854 374.400 C 173.503 371.430,173.212 366.047,173.208 362.438 C 173.196 352.254,172.471 351.610,161.000 351.589 C 156.820 351.581,151.240 351.314,148.600 350.996 C 145.960 350.677,140.895 350.413,137.345 350.408 L 130.890 350.400 128.968 351.700 C 127.785 352.500,126.689 353.681,126.119 354.770 L 125.192 356.541 125.296 375.170 L 125.400 393.800 128.371 395.271 L 131.341 396.743 139.371 396.885 C 148.713 397.052,151.736 397.830,154.752 400.846 L 156.306 402.400 162.773 402.400 C 172.438 402.400,172.400 402.362,172.400 412.164 L 172.400 418.691 174.405 420.566 C 175.508 421.598,177.353 422.880,178.505 423.417 L 180.600 424.392 225.040 424.396 L 269.480 424.400 271.056 423.259 C 274.058 421.083,274.176 420.699,274.400 412.329 C 274.687 401.599,274.621 401.659,286.280 401.623 C 300.490 401.579,301.600 400.530,301.600 387.154 L 301.600 380.748 303.774 378.574 L 305.948 376.400 312.874 376.398 C 325.532 376.394,326.400 375.515,326.400 362.709 C 326.400 355.871,326.377 355.689,324.800 349.849 C 323.258 344.140,323.200 343.703,323.200 337.743 C 323.200 330.863,323.016 330.175,320.607 328.059 L 319.172 326.800 312.468 326.800 L 305.765 326.800 303.604 325.500 C 302.343 324.742,300.851 323.373,300.021 322.215 L 298.600 320.229 298.400 313.003 C 298.104 302.320,297.680 301.896,286.997 301.600 L 279.771 301.400 277.785 299.979 C 276.627 299.149,275.258 297.657,274.500 296.396 L 273.200 294.235 273.200 287.665 C 273.200 280.306,272.892 279.264,270.233 277.620 C 268.500 276.549,256.404 276.450,252.918 277.478 M269.669 280.262 C 270.318 280.850,270.400 281.629,270.400 287.242 C 270.400 302.054,272.652 304.385,286.974 304.395 C 296.127 304.402,295.598 303.876,295.605 312.970 C 295.615 327.337,297.939 329.600,312.688 329.600 C 320.942 329.600,320.400 329.049,320.400 337.434 C 320.400 343.374,320.512 344.411,321.676 349.272 C 323.379 356.382,323.791 368.087,322.416 370.304 C 320.822 372.874,319.742 373.197,312.733 373.199 C 301.074 373.201,298.400 375.830,298.400 387.291 C 298.400 397.359,297.388 398.400,287.600 398.400 C 280.604 398.400,279.671 398.088,278.051 395.206 C 276.952 393.251,276.996 383.758,278.141 375.800 C 278.895 370.560,279.034 355.156,278.356 351.920 C 277.141 346.111,274.201 344.811,262.227 344.787 C 253.730 344.770,254.565 345.943,254.266 333.597 C 254.131 327.989,253.846 322.500,253.634 321.400 C 253.421 320.300,253.237 310.806,253.224 300.294 L 253.200 281.188 254.500 280.396 C 256.307 279.294,268.480 279.186,269.669 280.262 M244.065 353.300 C 245.837 354.734,245.999 355.509,246.014 362.589 C 246.021 366.356,246.301 371.456,246.640 374.000 C 246.978 376.530,247.392 382.560,247.560 387.400 C 248.087 402.522,249.041 403.644,261.669 403.993 C 271.714 404.271,271.200 403.810,271.200 412.548 L 271.200 418.956 270.125 420.078 L 269.050 421.200 225.104 421.200 L 181.157 421.200 179.779 420.100 L 178.400 419.000 178.400 412.536 L 178.400 406.071 179.631 405.036 C 180.846 404.013,180.942 404.000,187.531 403.995 C 203.553 403.984,203.785 403.584,204.215 375.306 C 204.483 357.675,204.562 356.119,205.241 355.155 L 205.977 354.109 215.088 353.831 C 220.100 353.678,225.730 353.414,227.600 353.244 C 233.528 352.706,243.371 352.739,244.065 353.300 M169.481 355.343 C 170.356 356.195,170.363 356.322,170.641 375.200 L 170.920 394.200 169.803 395.525 L 168.687 396.850 161.843 396.670 C 157.655 396.560,153.836 396.235,152.000 395.834 C 149.960 395.388,146.121 395.108,140.000 394.961 C 134.729 394.834,130.627 394.562,130.100 394.305 L 129.200 393.865 129.200 374.914 L 129.200 355.964 130.216 354.947 L 131.232 353.931 149.916 354.208 C 168.289 354.481,168.615 354.500,169.481 355.343 M150.600 449.197 C 147.258 449.669,142.859 449.944,138.287 449.966 C 129.538 450.008,127.539 450.664,125.762 454.080 C 124.955 455.632,125.014 469.287,125.849 474.400 C 126.191 476.490,126.562 481.682,126.673 485.937 C 126.895 494.452,126.739 493.882,129.970 497.962 L 131.267 499.600 149.985 499.600 C 166.122 499.600,168.910 499.513,170.212 498.969 C 173.913 497.423,178.377 496.818,186.147 496.809 L 193.694 496.800 195.262 495.232 L 196.830 493.665 196.715 474.503 L 196.600 455.342 195.388 452.971 L 194.176 450.600 186.588 450.356 C 181.735 450.199,177.919 449.866,176.000 449.431 C 171.333 448.374,157.338 448.245,150.600 449.197 M174.721 452.600 C 179.455 453.377,182.271 453.600,187.343 453.600 L 193.872 453.600 194.336 454.619 C 195.027 456.137,194.993 493.749,194.300 494.299 C 194.025 494.517,189.572 494.813,184.400 494.958 C 179.230 495.102,174.010 495.420,172.800 495.663 C 171.446 495.936,163.038 496.170,150.943 496.271 L 131.287 496.435 130.443 495.070 C 129.682 493.838,129.600 493.110,129.597 487.553 C 129.595 483.678,129.299 479.199,128.797 475.457 C 128.268 471.508,128.000 467.250,128.000 462.770 L 128.000 456.028 129.191 454.672 L 130.381 453.316 139.291 453.051 C 144.191 452.905,149.910 452.543,152.000 452.247 C 158.615 451.310,167.722 451.451,174.721 452.600 M253.832 498.406 C 248.854 500.350,247.600 503.246,247.600 512.800 C 247.600 521.272,248.268 523.739,250.726 524.349 C 251.536 524.551,252.650 524.845,253.200 525.002 C 253.750 525.160,258.290 525.404,263.290 525.545 C 275.187 525.879,274.135 524.890,274.400 535.991 C 274.514 540.764,274.772 544.530,275.000 544.752 C 276.141 545.863,282.002 546.800,287.814 546.800 L 293.694 546.800 295.247 545.247 L 296.800 543.694 296.800 537.814 C 296.800 532.002,295.863 526.141,294.752 525.000 C 294.530 524.772,290.764 524.514,285.991 524.400 C 274.833 524.133,275.836 525.253,275.680 512.890 L 275.559 503.400 274.280 502.074 C 273.576 501.345,272.083 500.040,270.963 499.174 L 268.926 497.600 262.363 497.619 C 256.870 497.634,255.479 497.763,253.832 498.406 M269.395 504.649 C 270.306 506.830,270.268 518.475,269.346 519.397 C 268.541 520.202,256.185 520.122,254.300 519.300 L 253.200 518.820 253.200 512.527 L 253.200 506.234 254.681 504.717 L 256.162 503.200 262.476 503.200 L 268.789 503.200 269.395 504.649 M294.320 530.480 C 294.654 530.814,294.800 532.924,294.800 537.400 C 294.800 545.419,295.419 544.800,287.400 544.800 C 282.924 544.800,280.814 544.654,280.480 544.320 C 279.689 543.529,279.820 531.437,280.629 530.629 C 281.437 529.820,293.529 529.689,294.320 530.480 " stroke="none" fill="#ac947c" fill-rule="evenodd"></path><path id="path7" d="M305.600 428.288 C 305.600 428.472,300.065 428.672,293.300 428.733 L 281.000 428.843 279.900 429.896 L 278.800 430.950 278.800 437.416 C 278.800 449.254,278.929 449.200,250.794 449.200 L 231.357 449.200 229.523 450.363 C 228.515 451.002,227.085 452.397,226.345 453.463 L 225.000 455.400 225.000 475.400 C 225.000 495.128,225.012 495.422,225.863 497.000 C 228.032 501.019,229.511 501.600,237.570 501.600 C 245.186 501.600,247.042 500.738,250.428 495.631 L 251.600 493.863 251.600 487.515 C 251.600 477.480,252.476 476.705,264.200 476.375 C 272.965 476.128,275.309 475.634,279.310 473.188 L 281.220 472.021 292.310 472.037 C 305.184 472.056,305.598 472.048,306.055 471.766 C 306.555 471.457,306.501 428.509,306.000 428.200 C 305.780 428.064,305.600 428.104,305.600 428.288 M279.733 499.100 C 278.449 499.816,276.879 501.514,276.059 503.074 C 275.389 504.348,275.440 521.060,276.118 522.400 C 277.000 524.144,278.041 524.332,287.489 524.449 C 299.884 524.604,300.165 524.305,299.930 511.230 C 299.713 499.190,298.989 498.449,287.394 498.418 C 282.015 498.403,280.786 498.512,279.733 499.100 M229.608 524.025 C 226.099 525.501,225.040 528.290,224.871 536.495 C 224.585 550.367,223.902 550.000,249.992 550.000 C 276.246 550.000,274.616 550.834,274.449 537.489 C 274.294 525.005,274.831 525.617,264.000 525.601 C 257.974 525.592,255.895 525.433,252.800 524.747 C 248.405 523.772,231.462 523.245,229.608 524.025 " stroke="none" fill="#2094b0" fill-rule="evenodd"></path><path id="path8" d="M304.514 145.320 C 305.001 145.826,305.474 146.187,305.564 146.123 C 305.798 145.955,304.342 144.400,303.952 144.400 C 303.774 144.400,304.027 144.814,304.514 145.320 M128.137 146.419 C 124.245 146.803,122.505 147.588,122.173 149.107 C 122.041 149.708,121.783 150.682,121.598 151.272 C 121.413 151.862,121.241 155.980,121.217 160.424 C 121.151 172.371,123.858 171.144,97.400 171.220 C 83.656 171.260,76.024 171.425,75.700 171.689 C 75.425 171.914,75.200 171.981,75.200 171.839 C 75.200 171.696,74.663 171.857,74.007 172.196 C 72.948 172.744,71.175 175.200,71.839 175.200 C 71.981 175.200,71.927 175.425,71.717 175.700 C 71.508 175.975,71.293 180.160,71.240 185.000 L 71.144 193.800 70.013 194.951 L 68.882 196.102 62.941 195.599 C 55.000 194.927,47.050 195.178,46.096 196.132 C 44.886 197.342,45.450 293.052,46.700 298.600 C 47.622 302.695,48.099 302.859,59.800 303.090 L 69.000 303.273 70.500 304.717 L 72.000 306.162 72.000 337.701 C 72.000 373.005,71.827 370.930,74.885 372.230 C 76.302 372.832,78.231 373.006,86.000 373.234 C 102.734 373.724,104.000 374.697,104.000 387.065 L 104.000 393.756 105.075 394.878 L 106.150 396.000 112.404 396.000 C 118.609 396.000,118.675 396.009,120.898 397.213 C 126.018 399.987,128.280 400.492,136.800 400.765 C 145.570 401.046,146.360 401.271,149.840 404.479 L 151.600 406.102 151.578 414.351 C 151.567 418.888,151.368 424.040,151.138 425.800 C 150.907 427.560,150.602 432.322,150.459 436.383 L 150.200 443.766 147.800 444.238 C 146.471 444.499,140.277 444.794,133.919 444.897 C 120.642 445.113,120.643 445.113,120.164 448.292 C 120.006 449.342,120.001 460.082,120.153 472.161 L 120.429 494.122 122.662 497.561 C 123.890 499.452,125.863 502.190,127.047 503.645 L 129.200 506.289 129.200 512.470 L 129.200 518.650 130.322 519.725 L 131.444 520.800 150.000 520.800 L 168.556 520.800 169.678 519.725 L 170.800 518.650 170.800 512.344 L 170.800 506.038 172.590 504.807 C 173.574 504.130,175.599 503.007,177.090 502.311 L 179.800 501.046 188.819 500.823 C 202.025 500.497,200.792 503.089,200.805 475.600 C 200.818 445.121,200.632 445.592,212.684 445.609 C 222.047 445.622,224.433 447.207,225.278 453.976 C 225.392 454.885,225.478 454.835,226.520 453.255 C 227.136 452.321,228.476 451.027,229.498 450.379 L 231.357 449.200 250.794 449.200 C 278.929 449.200,278.800 449.254,278.800 437.416 L 278.800 430.950 279.900 429.896 L 281.000 428.843 293.291 428.733 C 302.427 428.651,305.630 428.499,305.767 428.141 C 305.869 427.875,305.964 422.844,305.979 416.960 C 305.994 411.075,306.055 406.211,306.116 406.150 C 306.177 406.090,310.721 406.008,316.213 405.970 C 323.100 405.922,326.291 405.760,326.494 405.450 C 326.703 405.131,326.790 405.145,326.794 405.500 C 326.797 405.775,326.991 406.000,327.224 406.000 C 327.457 406.000,327.548 405.839,327.426 405.642 C 327.304 405.445,327.483 405.177,327.823 405.046 C 328.177 404.911,328.337 404.978,328.197 405.205 C 327.847 405.771,328.931 405.693,329.668 405.100 C 330.553 404.387,330.814 403.381,330.269 402.790 C 329.936 402.430,329.933 402.357,330.258 402.539 C 330.955 402.929,330.719 400.692,330.002 400.115 C 329.488 399.702,329.521 399.652,330.225 399.778 C 331.040 399.923,331.050 399.809,331.025 390.463 L 331.000 381.000 340.463 381.025 C 349.809 381.050,349.923 381.040,349.778 380.225 C 349.652 379.521,349.702 379.488,350.115 380.002 C 350.692 380.719,352.929 380.955,352.539 380.258 C 352.357 379.933,352.430 379.936,352.790 380.269 C 353.381 380.814,354.387 380.553,355.100 379.668 C 355.693 378.931,355.771 377.847,355.205 378.197 C 354.978 378.337,354.911 378.177,355.046 377.823 C 355.177 377.483,355.445 377.304,355.642 377.426 C 355.839 377.548,356.000 377.472,356.000 377.257 C 356.000 377.042,355.775 376.776,355.500 376.665 C 355.175 376.534,355.160 376.452,355.457 376.432 C 356.211 376.379,356.210 351.435,355.455 350.358 C 354.902 349.568,354.859 349.564,354.451 350.266 C 354.057 350.944,354.023 350.947,354.012 350.300 C 354.000 349.580,353.403 349.348,353.047 349.924 C 352.937 350.102,348.000 350.289,342.076 350.339 L 331.306 350.430 330.453 347.030 C 329.236 342.176,329.205 331.942,330.401 329.599 L 331.201 328.029 340.101 327.878 C 351.190 327.689,352.918 327.267,353.103 324.703 C 353.123 324.426,353.331 322.670,353.566 320.800 C 354.098 316.575,354.124 284.082,353.600 278.700 C 353.162 274.200,352.464 272.516,350.893 272.173 C 350.292 272.041,349.318 271.783,348.728 271.598 C 348.138 271.413,344.020 271.241,339.576 271.217 C 335.047 271.192,331.166 270.996,330.748 270.772 C 328.742 269.698,328.810 270.930,328.795 235.511 C 328.788 217.225,328.622 201.961,328.424 201.334 C 328.227 200.710,327.959 199.708,327.827 199.107 C 327.339 196.875,322.906 196.030,311.570 196.010 C 303.747 195.996,304.004 196.255,303.990 188.374 C 303.970 177.095,303.122 172.660,300.893 172.173 C 300.292 172.041,299.315 171.782,298.723 171.596 C 298.131 171.410,293.811 171.236,289.123 171.209 C 284.435 171.183,279.340 170.987,277.800 170.775 C 276.260 170.562,270.770 170.287,265.600 170.163 C 260.430 170.039,255.729 169.760,255.154 169.543 L 254.107 169.147 253.879 161.074 C 253.513 148.123,253.187 147.206,248.715 146.508 C 246.232 146.120,132.019 146.036,128.137 146.419 M246.419 153.581 L 248.400 155.562 248.400 162.178 L 248.400 168.795 250.100 170.047 C 253.857 172.815,255.356 173.200,262.376 173.200 C 269.219 173.200,272.847 173.708,278.063 175.396 C 280.815 176.287,281.844 176.400,287.221 176.400 C 294.195 176.400,295.375 176.745,297.246 179.328 L 298.400 180.920 298.400 187.476 C 298.400 198.969,301.015 201.600,312.437 201.600 C 319.633 201.600,320.606 201.884,322.493 204.528 L 323.400 205.800 323.600 238.011 L 323.800 270.223 325.067 271.945 C 325.763 272.892,327.108 274.237,328.054 274.933 L 329.775 276.200 336.987 276.400 C 349.051 276.735,348.400 275.391,348.400 299.961 C 348.400 321.072,348.569 319.803,345.456 322.059 L 343.880 323.200 336.959 323.200 C 326.887 323.200,327.636 322.329,327.325 334.400 L 327.103 343.000 328.951 349.622 L 330.800 356.244 330.794 367.822 C 330.790 374.409,330.624 379.659,330.409 380.000 C 330.090 380.504,328.098 380.632,317.915 380.800 L 305.800 381.000 305.713 392.773 C 305.643 402.093,305.512 404.660,305.080 405.092 C 304.643 405.529,302.221 405.632,292.921 405.613 C 284.019 405.594,281.211 405.706,280.894 406.094 C 280.647 406.396,280.418 410.304,280.324 415.800 C 280.142 426.477,279.835 427.617,276.695 429.295 L 275.000 430.200 225.238 430.311 C 182.087 430.406,175.005 430.340,171.938 429.811 C 169.800 429.442,165.946 429.200,162.200 429.200 C 158.790 429.200,156.000 429.133,156.000 429.051 C 156.000 428.969,155.627 427.484,155.170 425.751 C 154.507 423.230,154.298 420.920,154.127 414.200 L 153.914 405.800 152.657 404.456 C 148.942 400.486,145.111 399.200,136.994 399.200 C 129.230 399.200,125.673 398.224,121.300 394.895 L 120.000 393.905 120.000 375.225 C 120.000 359.576,119.900 356.209,119.385 354.473 L 118.769 352.400 112.469 352.400 L 106.170 352.400 104.296 354.303 L 102.421 356.206 102.311 362.598 L 102.200 368.990 101.179 369.479 C 97.658 371.165,80.930 371.303,78.300 369.667 L 76.800 368.735 76.800 337.355 C 76.800 302.681,76.948 304.695,74.164 301.613 C 71.324 298.469,69.792 298.000,62.361 298.000 C 51.477 298.000,51.600 298.192,51.600 281.302 C 51.600 271.082,51.492 268.640,50.989 267.436 C 50.653 266.631,49.929 264.111,49.381 261.835 L 48.384 257.697 48.492 230.548 C 48.614 199.816,48.470 201.176,51.790 199.453 C 54.731 197.927,61.765 198.620,67.451 200.996 C 69.759 201.960,72.865 200.140,75.256 196.422 C 76.396 194.650,76.400 194.618,76.400 188.095 C 76.400 181.217,76.519 180.640,78.349 178.666 C 80.301 176.559,79.774 176.613,100.612 176.400 L 120.223 176.200 121.945 174.933 C 122.892 174.237,124.237 172.892,124.933 171.946 L 126.200 170.225 126.400 163.013 C 126.622 154.989,126.784 154.455,129.559 152.570 L 130.986 151.600 187.712 151.600 L 244.438 151.600 246.419 153.581 M354.514 195.320 C 355.001 195.826,355.474 196.187,355.564 196.123 C 355.798 195.955,354.342 194.400,353.952 194.400 C 353.774 194.400,354.027 194.814,354.514 195.320 M254.308 249.223 C 249.518 251.752,248.400 254.270,248.400 262.530 L 248.400 269.091 249.900 270.089 C 252.945 272.114,253.532 272.200,264.268 272.200 L 274.336 272.200 275.368 271.230 L 276.400 270.261 276.400 262.809 L 276.400 255.357 275.256 253.578 C 273.880 251.438,272.726 250.362,270.606 249.242 C 268.286 248.016,256.619 248.003,254.308 249.223 M270.078 255.075 L 271.200 256.150 271.200 262.465 L 271.200 268.779 270.020 269.390 C 268.583 270.133,257.277 270.264,255.260 269.561 L 254.000 269.122 254.000 262.487 C 254.000 253.517,253.525 254.000,262.348 254.000 L 268.956 254.000 270.078 255.075 M179.294 274.262 C 174.679 276.537,173.600 279.079,173.600 287.682 L 173.600 294.643 174.744 296.422 C 177.626 300.904,179.345 301.600,187.534 301.600 C 198.088 301.600,198.099 301.612,198.441 313.200 C 198.694 321.802,199.347 325.158,201.646 329.684 C 202.291 330.953,202.400 332.090,202.400 337.537 C 202.400 345.213,201.369 344.433,212.000 344.799 C 216.297 344.947,222.495 345.453,225.800 345.926 C 233.900 347.085,242.971 347.137,245.129 346.036 C 247.500 344.827,247.674 344.171,247.529 336.973 L 247.400 330.600 245.718 327.100 L 244.037 323.600 237.678 323.600 L 231.320 323.600 229.716 322.438 C 226.661 320.225,226.400 319.397,226.400 311.931 C 226.400 300.812,223.904 298.400,212.400 298.400 C 202.058 298.400,201.600 297.942,201.600 287.600 C 201.600 279.338,200.913 277.632,196.422 274.744 L 194.643 273.600 187.622 273.609 C 181.990 273.616,180.342 273.746,179.294 274.262 M278.781 274.620 C 277.837 275.625,277.820 275.787,277.664 284.843 L 277.505 294.046 279.418 295.879 L 281.330 297.711 289.365 297.469 C 302.176 297.082,301.365 297.687,301.526 288.400 C 301.682 279.368,301.071 277.734,296.422 274.744 L 294.643 273.600 287.191 273.600 L 279.739 273.600 278.781 274.620 M194.878 279.875 L 196.000 280.950 196.000 287.549 C 196.000 296.483,196.479 296.000,187.605 296.000 L 180.950 296.000 179.875 294.878 C 178.801 293.758,178.800 293.749,178.800 287.447 L 178.800 281.138 179.969 279.969 L 181.138 278.800 187.447 278.800 C 193.749 278.800,193.758 278.801,194.878 279.875 M294.878 279.875 L 296.000 280.950 296.000 287.461 C 296.000 293.489,295.943 294.003,295.226 294.386 C 294.094 294.992,281.094 294.934,280.480 294.320 C 279.715 293.555,279.824 281.500,280.610 279.980 L 281.221 278.800 287.488 278.800 C 293.745 278.800,293.758 278.802,294.878 279.875 M304.789 298.659 C 303.165 299.099,302.409 303.677,302.403 313.093 L 302.400 318.786 304.173 320.636 L 305.946 322.486 315.073 322.310 C 327.397 322.072,326.482 322.850,326.418 312.666 C 326.361 303.730,325.546 301.847,320.606 299.241 C 319.096 298.444,307.194 298.006,304.789 298.659 M220.078 305.075 L 221.200 306.150 221.182 312.775 C 221.153 323.782,220.982 324.000,212.393 324.000 L 206.109 324.000 205.055 321.650 C 204.050 319.412,204.000 318.980,204.000 312.576 C 204.000 303.502,203.516 304.000,212.348 304.000 L 218.956 304.000 220.078 305.075 M320.078 305.075 L 321.200 306.150 321.200 312.465 L 321.200 318.779 320.020 319.390 C 318.500 320.176,306.445 320.285,305.680 319.520 C 305.066 318.906,305.008 305.906,305.614 304.774 C 305.997 304.058,306.511 304.000,312.492 304.000 L 318.956 304.000 320.078 305.075 M153.000 324.037 C 150.142 324.714,146.229 326.081,144.953 326.850 C 143.872 327.500,142.856 327.600,137.336 327.600 L 130.967 327.600 129.283 329.315 L 127.600 331.030 127.600 337.452 L 127.600 343.873 129.146 344.337 C 130.040 344.604,133.405 344.800,137.114 344.800 C 141.491 344.800,144.278 344.990,145.868 345.396 C 154.124 347.505,162.521 348.100,171.173 347.189 C 176.718 346.605,176.471 347.065,176.323 337.605 L 176.200 329.775 174.933 328.054 C 174.237 327.108,172.892 325.763,171.946 325.067 L 170.225 323.800 162.412 323.729 C 158.116 323.690,153.880 323.828,153.000 324.037 M170.031 329.969 L 171.200 331.138 171.200 337.505 L 171.200 343.872 170.181 344.336 C 168.821 344.955,155.920 344.952,153.231 344.331 L 151.200 343.863 151.200 337.538 L 151.200 331.213 153.500 330.026 C 155.768 328.855,155.891 328.838,162.331 328.819 L 168.862 328.800 170.031 329.969 M244.336 329.819 C 244.985 331.244,244.971 343.669,244.320 344.320 C 243.678 344.962,232.308 344.932,228.800 344.279 L 226.200 343.795 226.090 337.568 C 225.940 329.039,226.185 328.847,237.236 328.818 L 243.872 328.800 244.336 329.819 M179.726 348.803 C 177.299 349.781,176.786 366.870,178.900 376.306 C 179.846 380.526,180.000 382.096,180.000 387.526 C 180.000 395.402,179.385 394.800,187.431 394.800 C 195.348 394.800,194.707 395.470,194.899 386.992 C 195.028 381.260,195.234 379.420,196.217 375.200 C 198.320 366.174,197.844 352.577,195.319 349.577 L 194.329 348.400 187.464 348.425 C 183.689 348.439,180.207 348.609,179.726 348.803 M254.600 349.801 C 248.607 351.922,248.616 370.121,254.615 379.624 C 255.518 381.055,255.587 381.570,255.690 387.676 L 255.800 394.200 262.500 394.310 L 269.200 394.419 269.200 387.970 L 269.200 381.521 270.583 379.260 C 273.625 374.291,274.465 370.477,274.324 362.268 L 274.200 355.000 272.883 353.103 C 270.384 349.504,269.558 349.197,262.407 349.218 C 258.116 349.230,255.706 349.410,254.600 349.801 M270.006 351.867 C 274.737 355.847,274.703 368.351,269.939 376.700 L 268.741 378.800 262.463 378.800 L 256.185 378.800 254.874 376.415 C 250.194 367.902,250.149 354.841,254.789 351.700 C 256.994 350.207,268.180 350.330,270.006 351.867 M194.386 354.774 C 195.018 355.954,194.909 369.795,194.250 372.000 L 193.713 373.800 187.491 373.910 L 181.269 374.020 180.634 371.231 C 179.886 367.941,179.755 357.222,180.439 355.260 L 180.878 354.000 187.425 354.000 C 193.488 354.000,194.002 354.057,194.386 354.774 M94.998 445.202 C 93.975 446.332,94.410 446.437,95.486 445.320 C 95.973 444.814,96.226 444.400,96.048 444.400 C 95.870 444.400,95.397 444.761,94.998 445.202 M197.272 445.400 C 198.959 446.659,198.951 446.545,199.087 471.400 C 199.252 501.301,200.067 499.196,188.321 499.199 C 179.530 499.200,174.925 500.525,169.978 504.473 L 168.557 505.608 149.796 505.504 L 131.035 505.400 129.070 503.000 C 127.990 501.680,126.156 499.160,124.995 497.400 L 122.885 494.200 122.646 486.200 C 121.706 454.784,121.826 450.625,123.717 448.904 C 125.622 447.170,126.288 447.060,136.800 446.749 C 145.635 446.487,147.535 446.315,151.000 445.462 L 155.000 444.476 175.600 444.538 C 195.525 444.598,196.235 444.626,197.272 445.400 M291.600 472.000 C 281.186 472.196,280.968 472.218,279.200 473.210 C 278.210 473.765,276.860 474.502,276.200 474.847 C 275.497 475.214,275.074 475.707,275.179 476.037 C 275.278 476.347,275.430 480.470,275.516 485.199 C 275.603 489.929,275.793 493.889,275.939 493.999 C 276.381 494.333,278.181 496.930,278.756 498.063 C 279.238 499.013,279.416 499.083,280.433 498.729 C 285.251 497.049,296.834 498.814,298.647 501.504 L 299.496 502.764 299.752 500.882 C 300.432 495.872,301.116 495.025,305.500 493.768 C 305.884 493.658,306.000 491.120,306.000 482.815 L 306.000 472.006 304.464 472.066 C 303.619 472.099,302.764 472.053,302.564 471.963 C 302.364 471.873,297.430 471.890,291.600 472.000 M224.606 495.981 C 224.220 497.196,221.352 500.301,219.941 501.031 C 219.123 501.454,217.113 501.606,212.120 501.623 C 201.481 501.658,201.658 501.479,201.623 512.246 L 201.600 519.091 203.622 521.146 L 205.644 523.200 212.038 523.200 C 220.089 523.200,221.516 523.793,224.211 528.260 L 225.109 529.747 226.000 527.973 C 226.489 526.998,227.248 525.809,227.685 525.332 L 228.479 524.464 226.934 523.441 C 224.017 521.511,221.970 521.117,213.800 520.915 C 206.285 520.729,206.188 520.715,205.100 519.688 L 204.000 518.650 204.000 512.547 C 204.000 506.675,204.036 506.402,204.964 505.322 L 205.928 504.200 214.064 503.973 C 222.662 503.732,224.948 503.267,227.598 501.220 L 228.596 500.449 227.543 499.324 C 226.964 498.706,226.133 497.490,225.697 496.622 C 224.941 495.121,224.889 495.090,224.606 495.981 M299.200 520.839 C 299.200 521.106,298.736 521.933,298.168 522.677 L 297.136 524.030 298.168 527.019 C 299.129 529.802,299.200 530.503,299.200 537.249 C 299.200 548.626,298.626 549.200,287.249 549.200 C 280.503 549.200,279.802 549.129,277.019 548.168 L 274.030 547.136 272.677 548.168 C 271.933 548.736,271.106 549.200,270.839 549.200 C 270.571 549.200,270.449 549.356,270.568 549.548 C 270.954 550.173,282.052 550.895,289.000 550.746 C 299.678 550.517,300.517 549.678,300.746 539.000 C 300.895 532.052,300.173 520.954,299.548 520.568 C 299.356 520.449,299.200 520.571,299.200 520.839 " stroke="none" fill="#5c4c44" fill-rule="evenodd"></path></g></svg>