<svg id="svg" version="1.1" xmlns="http://www.w3.org/2000/svg" xmlns:xlink="http://www.w3.org/1999/xlink" width="400" height="600" viewBox="0, 0, 400,600"><g id="svgg"><path id="path0" d="M154.878 154.919 L 153.600 156.238 153.600 162.855 C 153.600 169.757,154.051 172.510,155.434 174.038 C 156.515 175.232,243.485 175.232,244.566 174.038 C 245.951 172.507,246.400 169.759,246.400 162.815 L 246.400 156.157 245.081 154.878 L 243.762 153.600 199.959 153.600 L 156.157 153.600 154.878 154.919 M104.636 180.031 C 103.610 181.250,103.600 181.328,103.595 188.131 C 103.589 195.869,102.790 200.977,101.020 204.595 C 99.393 207.920,99.465 217.942,101.131 220.240 C 104.375 224.712,104.901 224.881,115.110 224.724 C 125.530 224.564,124.544 225.609,124.800 214.451 L 125.000 205.728 126.179 204.029 C 126.827 203.095,128.119 201.806,129.051 201.165 L 130.744 200.000 137.272 199.990 L 143.800 199.980 145.667 198.610 C 146.694 197.857,148.089 196.434,148.767 195.448 L 150.000 193.656 150.000 187.490 C 150.000 178.176,151.748 178.800,125.648 178.800 L 105.671 178.800 104.636 180.031 M252.812 179.433 C 250.004 180.651,250.000 180.664,250.000 187.490 L 250.000 193.656 251.233 195.448 C 251.911 196.434,253.306 197.857,254.333 198.610 L 256.200 199.980 262.728 199.990 L 269.256 200.000 270.949 201.165 C 271.881 201.806,273.173 203.095,273.821 204.029 L 275.000 205.728 275.200 214.451 C 275.456 225.609,274.470 224.564,284.890 224.724 C 295.099 224.881,295.625 224.712,298.869 220.240 C 300.535 217.942,300.607 207.920,298.980 204.595 C 297.210 200.977,296.411 195.869,296.405 188.131 C 296.400 181.328,296.390 181.250,295.364 180.031 L 294.329 178.800 274.264 178.816 C 257.305 178.829,253.985 178.924,252.812 179.433 M126.894 225.615 C 125.434 226.201,125.200 227.614,125.200 235.846 C 125.200 244.759,125.232 244.875,128.432 247.752 C 131.090 250.143,131.095 250.144,140.274 249.913 C 150.488 249.657,149.657 250.488,149.913 240.274 C 150.156 230.618,149.265 228.109,144.768 225.783 C 143.467 225.111,128.500 224.970,126.894 225.615 M254.984 225.932 C 253.356 226.941,250.442 230.295,250.137 231.510 C 249.475 234.148,250.258 248.035,251.117 248.894 C 252.452 250.230,267.663 250.521,269.718 249.251 C 271.540 248.125,274.311 245.094,274.610 243.901 C 275.217 241.486,274.621 226.847,273.887 226.113 C 272.758 224.985,256.759 224.832,254.984 225.932 M153.544 250.285 C 150.406 250.547,150.311 250.808,150.086 259.754 C 149.844 269.379,150.739 271.893,155.232 274.217 C 156.930 275.094,243.070 275.094,244.768 274.217 C 246.262 273.444,249.544 269.764,249.859 268.508 C 250.545 265.776,249.744 251.966,248.848 251.070 L 247.978 250.200 201.689 250.165 C 176.230 250.146,154.565 250.200,153.544 250.285 M54.828 301.038 C 51.757 303.622,51.032 312.341,52.800 325.400 C 53.332 329.329,53.600 333.544,53.600 337.982 C 53.600 344.470,53.631 344.717,54.700 346.828 L 55.800 349.000 62.303 349.110 C 69.726 349.235,69.993 349.143,72.637 345.546 L 74.000 343.693 74.000 337.271 L 74.000 330.849 76.197 324.925 L 78.395 319.000 78.397 312.474 C 78.400 305.634,78.276 305.030,76.477 303.101 C 74.396 300.869,71.802 300.263,63.574 300.087 L 56.148 299.927 54.828 301.038 M329.800 300.272 C 322.627 301.879,321.599 303.410,321.603 312.480 L 321.605 319.000 323.803 324.925 L 326.000 330.849 326.000 337.271 L 326.000 343.693 327.363 345.546 C 330.007 349.143,330.274 349.235,337.697 349.110 L 344.200 349.000 345.300 346.828 C 346.369 344.717,346.400 344.470,346.400 337.982 C 346.400 333.544,346.668 329.329,347.200 325.400 C 348.958 312.417,348.240 303.620,345.215 301.074 L 343.939 300.000 337.269 300.046 C 333.601 300.072,330.240 300.173,329.800 300.272 M71.736 304.504 L 74.000 306.008 74.000 312.077 C 74.000 316.827,73.829 318.803,73.211 321.173 C 71.038 329.513,70.800 331.124,70.800 337.494 C 70.800 343.557,70.773 343.761,69.780 345.062 L 68.759 346.400 62.444 346.400 L 56.128 346.400 55.664 345.381 C 55.377 344.750,55.195 341.971,55.188 338.081 C 55.182 334.627,54.915 329.280,54.596 326.200 C 53.758 318.104,53.793 306.089,54.659 304.789 C 55.988 302.792,56.185 302.748,63.036 302.878 L 69.473 303.000 71.736 304.504 M344.065 303.300 C 345.864 304.756,346.000 305.455,345.992 313.189 C 345.987 317.265,345.722 323.120,345.404 326.200 C 345.085 329.280,344.818 334.627,344.812 338.081 C 344.805 341.971,344.623 344.750,344.336 345.381 L 343.872 346.400 337.556 346.400 L 331.241 346.400 330.220 345.062 C 329.227 343.761,329.200 343.557,329.200 337.494 C 329.200 331.124,328.962 329.513,326.789 321.173 C 326.172 318.805,326.000 316.827,326.000 312.092 L 326.000 306.038 327.780 304.814 C 328.759 304.140,329.974 303.423,330.480 303.220 C 331.937 302.635,343.326 302.702,344.065 303.300 M329.836 378.079 C 328.852 380.054,328.800 380.476,328.795 386.579 C 328.785 400.615,326.352 403.299,313.430 403.529 L 306.200 403.657 304.900 404.907 L 303.600 406.157 303.597 412.578 C 303.594 419.726,303.224 422.724,301.780 427.321 C 300.901 430.119,300.800 431.141,300.800 437.221 C 300.800 444.902,300.594 444.359,304.478 446.936 L 306.683 448.400 312.679 448.400 C 319.261 448.400,319.181 448.427,320.552 445.720 C 321.069 444.699,321.200 443.149,321.200 438.062 C 321.200 424.174,324.212 421.210,338.342 421.191 C 343.914 421.184,345.261 421.064,346.600 420.455 C 349.383 419.189,349.234 420.446,349.111 399.314 L 349.000 380.137 347.879 378.668 C 345.989 376.190,345.261 376.000,337.656 376.000 L 330.872 376.000 329.836 378.079 M345.231 379.969 L 346.400 381.138 346.400 399.990 L 346.400 418.841 345.013 419.420 C 343.981 419.852,341.834 420.000,336.633 420.000 C 321.533 420.000,320.015 421.526,319.987 436.720 C 319.978 441.973,319.837 443.981,319.443 444.500 C 318.584 445.632,306.438 445.547,305.401 444.401 C 304.591 443.506,304.818 406.742,305.640 405.751 C 305.892 405.448,308.692 405.227,313.910 405.098 C 328.637 404.734,329.573 403.815,329.895 389.400 C 330.034 383.229,330.234 380.708,330.652 379.900 L 331.221 378.800 337.641 378.800 L 344.062 378.800 345.231 379.969 M78.992 426.850 C 76.327 428.743,76.219 429.110,76.000 437.015 L 75.800 444.229 74.382 446.215 C 73.602 447.307,72.096 448.785,71.037 449.500 L 69.110 450.800 62.509 450.800 C 54.884 450.800,53.515 451.238,51.757 454.238 L 50.792 455.884 50.896 475.042 L 51.000 494.200 53.172 495.300 L 55.343 496.400 74.593 496.400 L 93.843 496.400 95.100 495.100 L 96.356 493.800 96.492 473.200 L 96.627 452.600 97.812 449.000 C 98.924 445.624,99.005 444.946,99.116 438.087 L 99.234 430.774 96.717 428.397 L 94.200 426.020 87.194 426.010 C 80.685 426.001,80.104 426.060,78.992 426.850 M94.518 429.969 C 95.318 431.323,95.105 493.276,94.297 494.300 C 93.749 494.993,56.137 495.027,54.619 494.336 L 53.600 493.872 53.600 475.014 L 53.600 456.157 54.900 454.907 L 56.200 453.656 63.600 453.528 C 76.405 453.306,78.800 450.759,78.800 437.360 C 78.800 431.050,78.801 431.043,79.875 429.922 L 80.950 428.800 87.389 428.800 L 93.828 428.800 94.518 429.969 M279.178 499.546 C 277.185 500.831,275.777 502.260,274.241 504.556 C 272.828 506.668,272.626 519.830,273.980 521.592 L 274.742 522.584 284.351 522.737 L 293.960 522.891 295.180 520.967 L 296.400 519.043 296.400 512.526 C 296.400 506.362,296.334 505.804,295.181 502.205 L 293.962 498.400 287.460 498.400 C 280.982 498.400,280.950 498.405,279.178 499.546 M294.320 504.528 C 294.922 506.194,294.976 518.523,294.386 519.626 C 293.801 520.720,282.066 520.800,279.814 519.726 L 278.400 519.052 278.400 512.643 L 278.400 506.234 279.881 504.717 L 281.362 503.200 287.601 503.200 L 293.839 503.200 294.320 504.528 M229.400 524.062 C 224.408 526.640,223.193 529.283,223.225 537.487 L 223.250 543.800 225.106 545.156 C 226.127 545.902,227.871 546.935,228.981 547.452 L 231.000 548.392 249.927 548.396 L 268.853 548.400 270.167 547.398 C 272.710 545.458,272.915 544.390,272.736 533.997 L 272.576 524.736 271.588 523.977 C 269.988 522.747,231.796 522.824,229.400 524.062 M269.726 529.814 C 270.800 532.066,270.720 543.801,269.626 544.386 C 268.527 544.974,231.352 544.951,229.660 544.361 L 228.400 543.922 228.400 537.480 L 228.400 531.038 229.678 529.719 L 230.957 528.400 250.004 528.400 L 269.052 528.400 269.726 529.814 " stroke="none" fill="#ac947c" fill-rule="evenodd"></path><path id="path1" d="M153.600 149.459 C 149.559 150.852,148.800 152.896,148.800 162.387 C 148.800 169.969,148.573 170.670,145.394 172.877 L 143.800 173.985 123.537 174.092 L 103.273 174.200 101.737 175.433 C 99.308 177.381,98.838 179.307,98.817 187.400 C 98.797 194.921,98.276 196.827,95.070 201.088 L 93.800 202.775 87.253 202.788 L 80.706 202.800 79.153 204.353 L 77.600 205.906 77.600 249.924 L 77.600 293.942 76.554 294.765 C 74.717 296.210,72.794 296.511,63.800 296.763 C 50.161 297.145,49.985 297.350,50.022 312.773 C 50.033 317.738,50.221 323.240,50.439 325.000 C 50.657 326.760,50.968 333.240,51.130 339.400 C 51.541 354.984,51.189 354.550,63.238 354.332 C 76.394 354.095,78.324 352.045,78.802 337.800 C 79.039 330.738,79.137 329.995,80.187 327.300 L 81.316 324.400 87.666 324.400 C 94.645 324.400,95.454 324.638,98.059 327.455 C 100.650 330.256,100.797 330.820,100.799 337.964 L 100.800 344.528 103.136 346.864 L 105.472 349.200 112.036 349.201 C 119.180 349.203,119.744 349.350,122.545 351.941 C 125.385 354.567,125.600 355.319,125.600 362.629 L 125.600 369.274 128.163 371.837 L 130.726 374.400 200.000 374.400 L 269.274 374.400 271.837 371.837 L 274.400 369.274 274.400 362.629 C 274.400 355.319,274.615 354.567,277.455 351.941 C 280.256 349.350,280.820 349.203,287.964 349.201 L 294.528 349.200 296.864 346.864 L 299.200 344.528 299.201 337.964 C 299.203 330.820,299.350 330.256,301.941 327.455 C 304.546 324.638,305.355 324.400,312.334 324.400 L 318.684 324.400 319.813 327.300 C 320.863 329.995,320.961 330.738,321.198 337.800 C 321.676 352.045,323.606 354.095,336.762 354.332 C 348.811 354.550,348.459 354.984,348.870 339.400 C 349.032 333.240,349.343 326.760,349.561 325.000 C 350.821 314.814,349.930 300.770,347.907 298.926 C 345.940 297.135,345.311 297.018,336.200 296.763 C 327.206 296.511,325.283 296.210,323.446 294.765 L 322.400 293.942 322.400 249.924 L 322.400 205.906 320.847 204.353 L 319.294 202.800 312.747 202.788 L 306.200 202.775 304.930 201.088 C 301.724 196.827,301.203 194.921,301.183 187.400 C 301.162 179.307,300.692 177.381,298.263 175.433 L 296.727 174.200 276.463 174.092 L 256.200 173.985 254.606 172.877 C 251.427 170.670,251.200 169.969,251.200 162.387 C 251.200 152.821,250.445 150.832,246.286 149.440 C 243.425 148.483,156.379 148.501,153.600 149.459 M245.081 154.878 L 246.400 156.157 246.400 162.815 C 246.400 169.759,245.951 172.507,244.566 174.038 C 243.485 175.232,156.515 175.232,155.434 174.038 C 154.051 172.510,153.600 169.757,153.600 162.855 L 153.600 156.238 154.878 154.919 L 156.157 153.600 199.959 153.600 L 243.762 153.600 245.081 154.878 M147.098 179.415 C 149.998 180.627,150.000 180.632,150.000 187.490 L 150.000 193.656 148.767 195.448 C 148.089 196.434,146.694 197.857,145.667 198.610 L 143.800 199.980 137.272 199.990 L 130.744 200.000 129.051 201.165 C 128.119 201.806,126.827 203.095,126.179 204.029 L 125.000 205.728 124.800 214.451 C 124.544 225.609,125.530 224.564,115.110 224.724 C 104.901 224.881,104.375 224.712,101.131 220.240 C 99.465 217.942,99.393 207.920,101.020 204.595 C 102.790 200.977,103.589 195.869,103.595 188.131 C 103.600 181.328,103.610 181.250,104.636 180.031 L 105.671 178.800 125.648 178.800 C 142.721 178.800,145.840 178.889,147.098 179.415 M295.364 180.031 C 296.390 181.250,296.400 181.328,296.405 188.131 C 296.411 195.869,297.210 200.977,298.980 204.595 C 300.607 207.920,300.535 217.942,298.869 220.240 C 295.625 224.712,295.099 224.881,284.890 224.724 C 274.470 224.564,275.456 225.609,275.200 214.451 L 275.000 205.728 273.821 204.029 C 273.173 203.095,271.881 201.806,270.949 201.165 L 269.256 200.000 262.728 199.990 L 256.200 199.980 254.333 198.610 C 253.306 197.857,251.911 196.434,251.233 195.448 L 250.000 193.656 250.000 187.490 C 250.000 178.192,248.198 178.836,274.264 178.816 L 294.329 178.800 295.364 180.031 M144.768 225.783 C 149.265 228.109,150.156 230.618,149.913 240.274 C 149.657 250.488,150.488 249.657,140.274 249.913 C 131.095 250.144,131.090 250.143,128.432 247.752 C 125.232 244.875,125.200 244.759,125.200 235.846 C 125.200 227.614,125.434 226.201,126.894 225.615 C 128.500 224.970,143.467 225.111,144.768 225.783 M273.887 226.113 C 274.621 226.847,275.217 241.486,274.610 243.901 C 274.311 245.094,271.540 248.125,269.718 249.251 C 267.663 250.521,252.452 250.230,251.117 248.894 C 250.258 248.035,249.475 234.148,250.137 231.510 C 250.442 230.295,253.356 226.941,254.984 225.932 C 256.759 224.832,272.758 224.985,273.887 226.113 M248.848 251.070 C 249.744 251.966,250.545 265.776,249.859 268.508 C 249.544 269.764,246.262 273.444,244.768 274.217 C 243.070 275.094,156.930 275.094,155.232 274.217 C 153.738 273.444,150.456 269.764,150.141 268.508 C 149.556 266.176,150.246 252.034,150.984 251.217 C 151.994 250.102,150.811 250.127,201.689 250.165 L 247.978 250.200 248.848 251.070 M73.226 301.124 C 75.425 301.991,77.077 303.372,77.951 305.074 C 78.229 305.615,78.399 308.430,78.397 312.474 L 78.395 319.000 76.197 324.925 L 74.000 330.849 74.000 337.271 L 74.000 343.693 72.637 345.546 C 69.993 349.143,69.726 349.235,62.303 349.110 L 55.800 349.000 54.700 346.828 C 53.631 344.717,53.600 344.470,53.600 337.982 C 53.600 333.544,53.332 329.329,52.800 325.400 C 51.032 312.341,51.757 303.622,54.828 301.038 L 56.148 299.927 63.574 300.087 C 70.042 300.226,71.287 300.359,73.226 301.124 M345.215 301.074 C 348.240 303.620,348.958 312.417,347.200 325.400 C 346.668 329.329,346.400 333.544,346.400 337.982 C 346.400 344.470,346.369 344.717,345.300 346.828 L 344.200 349.000 337.697 349.110 C 330.274 349.235,330.007 349.143,327.363 345.546 L 326.000 343.693 326.000 337.271 L 326.000 330.849 323.803 324.925 L 321.605 319.000 321.603 312.480 C 321.599 304.155,322.360 302.571,327.088 301.062 C 330.071 300.109,330.209 300.096,337.269 300.046 L 343.939 300.000 345.215 301.074 M337.400 370.800 C 326.734 371.096,326.008 372.156,326.002 387.422 L 326.000 394.243 324.842 396.069 C 323.654 397.943,321.975 399.413,319.720 400.553 C 318.694 401.072,317.123 401.200,311.801 401.200 L 305.162 401.200 303.181 403.181 L 301.200 405.162 301.200 411.969 C 301.200 419.353,300.374 422.981,297.815 426.849 L 296.836 428.328 299.066 428.464 C 301.134 428.590,301.324 428.527,301.678 427.600 C 302.998 424.138,303.309 421.832,303.496 414.134 L 303.691 406.069 304.945 404.863 L 306.200 403.657 313.430 403.529 C 326.352 403.299,328.785 400.615,328.795 386.579 C 328.800 380.476,328.852 380.054,329.836 378.079 L 330.872 376.000 337.656 376.000 C 345.261 376.000,345.989 376.190,347.879 378.668 L 349.000 380.137 349.111 399.314 C 349.234 420.446,349.383 419.189,346.600 420.455 C 345.261 421.064,343.914 421.184,338.342 421.191 C 324.212 421.210,321.200 424.174,321.200 438.062 C 321.200 443.149,321.069 444.699,320.552 445.720 C 319.180 448.429,319.265 448.400,312.638 448.399 L 306.600 448.399 304.317 446.814 C 302.369 445.462,301.871 445.281,300.917 445.582 C 300.303 445.775,299.281 446.048,298.646 446.188 C 297.541 446.432,297.677 446.571,301.818 449.421 L 306.144 452.400 312.813 452.400 C 323.157 452.400,323.627 451.816,323.914 438.602 L 324.087 430.605 325.421 428.602 C 326.159 427.496,327.650 426.018,328.754 425.300 L 330.752 424.000 338.276 423.992 C 349.832 423.980,352.678 423.348,353.855 420.531 C 354.557 418.849,354.653 378.919,353.964 374.962 C 353.381 371.617,352.866 371.220,348.753 370.954 C 346.909 370.835,345.220 370.707,345.000 370.669 C 344.780 370.631,341.360 370.690,337.400 370.800 M73.227 421.357 C 71.074 422.135,70.865 423.242,70.830 434.078 C 70.801 443.323,70.778 443.580,69.900 444.553 L 69.000 445.551 58.978 445.678 C 48.175 445.816,47.551 445.935,46.314 448.100 C 45.437 449.636,45.335 493.681,46.204 495.609 C 47.600 498.704,46.621 498.587,72.000 498.709 C 102.189 498.855,98.796 501.784,98.799 475.573 C 98.800 459.238,98.891 456.238,99.445 454.373 C 100.185 451.881,102.166 447.792,102.834 447.379 C 103.606 446.902,102.356 446.413,100.346 446.406 L 98.492 446.400 97.569 449.500 C 96.667 452.530,96.643 453.066,96.502 473.200 L 96.356 493.800 95.100 495.100 L 93.843 496.400 74.593 496.400 L 55.343 496.400 53.172 495.300 L 51.000 494.200 50.896 475.042 L 50.792 455.884 51.757 454.238 C 53.515 451.238,54.884 450.800,62.509 450.800 L 69.110 450.800 71.037 449.500 C 72.096 448.785,73.602 447.307,74.382 446.215 L 75.800 444.229 76.000 437.015 C 76.294 426.392,76.692 426.000,87.183 426.000 L 94.117 426.000 96.041 427.800 C 98.078 429.705,98.767 429.873,101.250 429.069 L 102.700 428.600 98.163 424.700 L 93.626 420.800 84.113 420.830 C 77.616 420.851,74.165 421.018,73.227 421.357 M275.831 480.590 C 276.733 481.968,276.478 494.653,275.505 496.800 C 273.898 500.343,271.526 501.200,263.323 501.200 C 257.540 501.200,256.868 501.278,254.504 502.224 C 249.140 504.370,248.730 504.386,200.000 504.386 C 151.270 504.386,150.860 504.370,145.496 502.224 C 143.149 501.285,142.441 501.200,136.936 501.200 C 130.951 501.200,130.934 501.197,130.402 500.204 L 129.869 499.209 128.548 500.752 C 125.992 503.739,121.704 504.800,112.193 504.800 C 104.252 504.800,104.800 504.225,104.800 512.567 C 104.800 521.381,102.190 520.399,125.631 520.405 C 154.446 520.412,154.268 520.312,154.766 536.715 C 154.955 542.957,155.115 544.503,155.600 544.809 C 155.963 545.039,168.501 545.193,187.400 545.201 L 218.600 545.215 220.267 546.308 C 221.184 546.908,222.648 547.984,223.521 548.697 L 225.107 549.994 225.749 548.097 L 226.390 546.200 225.110 545.100 C 224.406 544.495,223.688 544.000,223.515 544.000 C 223.342 544.000,223.200 541.114,223.200 537.587 C 223.200 529.224,224.430 526.573,229.484 524.043 C 231.982 522.792,269.969 522.733,271.588 523.977 L 272.576 524.736 272.736 533.997 C 272.874 542.050,272.807 543.453,272.221 544.753 C 271.555 546.230,271.560 546.267,272.658 547.944 L 273.769 549.641 275.265 546.721 L 276.760 543.800 276.780 537.089 L 276.800 530.379 278.589 528.589 L 280.379 526.800 286.802 526.800 C 297.927 526.800,298.794 525.774,298.797 512.600 C 298.799 504.782,297.745 498.562,295.775 494.751 C 295.346 493.922,295.200 492.026,295.200 487.282 C 295.200 478.884,296.201 479.600,284.459 479.600 L 275.182 479.600 275.831 480.590 M295.181 502.205 C 296.334 505.804,296.400 506.362,296.400 512.526 L 296.400 519.043 295.180 520.967 L 293.960 522.891 284.351 522.737 L 274.742 522.584 273.980 521.592 C 272.626 519.830,272.828 506.668,274.241 504.556 C 277.860 499.145,279.460 498.400,287.460 498.400 L 293.962 498.400 295.181 502.205 " stroke="none" fill="#846c5c" fill-rule="evenodd"></path><path id="path2" d="M105.700 429.465 C 104.981 429.755,104.982 444.921,105.702 445.519 C 105.997 445.764,109.327 445.990,113.802 446.068 C 129.051 446.333,129.200 446.614,129.200 475.013 L 129.200 494.355 130.089 494.977 C 130.800 495.475,132.209 495.600,137.127 495.600 L 143.277 495.600 146.250 497.011 C 147.885 497.787,150.882 498.866,152.911 499.410 L 156.600 500.398 200.000 500.398 L 243.400 500.398 247.089 499.410 C 249.118 498.866,252.115 497.787,253.750 497.011 L 256.723 495.600 262.687 495.600 L 268.650 495.600 269.763 494.439 L 270.875 493.278 270.857 474.539 C 270.831 446.703,270.994 446.400,286.200 446.000 C 290.380 445.890,294.025 445.654,294.300 445.476 C 294.997 445.025,295.016 430.376,294.320 429.680 C 293.960 429.320,289.119 429.200,274.995 429.200 L 256.150 429.200 255.075 430.322 L 254.000 431.444 254.000 438.063 C 254.000 450.909,258.160 449.991,200.000 449.991 C 141.840 449.991,146.000 450.909,146.000 438.063 L 146.000 431.444 144.925 430.322 L 143.850 429.200 125.025 429.232 C 114.671 429.249,105.975 429.354,105.700 429.465 M228.538 552.015 C 225.321 553.048,225.200 553.419,225.200 562.234 C 225.200 570.804,225.878 572.705,229.487 574.249 C 231.129 574.952,268.443 575.066,270.274 574.375 C 274.008 572.964,274.800 570.871,274.800 562.421 C 274.800 554.288,274.422 552.836,272.081 551.983 C 269.331 550.980,231.672 551.008,228.538 552.015 " stroke="none" fill="#1b9cb7" fill-rule="evenodd"></path><path id="path3" d="M148.000 146.123 C 145.851 146.855,145.649 147.953,145.623 159.030 C 145.592 171.950,148.743 170.380,122.781 170.416 C 109.996 170.435,101.019 170.608,99.800 170.860 C 98.700 171.088,97.590 171.288,97.334 171.304 C 96.104 171.382,95.816 173.432,95.609 183.600 C 95.425 192.574,95.309 193.976,94.642 195.267 L 93.883 196.734 85.242 196.871 C 75.034 197.032,73.784 197.391,72.645 200.489 C 71.665 203.155,71.663 203.250,71.631 249.857 C 71.602 291.410,71.560 293.933,70.900 294.236 C 70.515 294.412,65.970 294.663,60.800 294.793 C 50.560 295.049,50.053 295.162,49.112 297.389 C 48.504 298.827,48.427 317.219,48.959 334.000 C 49.458 349.773,48.781 354.045,45.555 355.468 L 43.990 356.158 44.014 366.279 C 44.033 373.876,44.158 376.402,44.519 376.406 C 44.885 376.411,44.883 376.486,44.510 376.724 C 44.141 376.958,44.122 377.409,44.434 378.540 C 44.894 380.205,46.201 381.022,47.177 380.254 C 47.631 379.896,47.683 379.917,47.422 380.350 C 47.159 380.787,47.390 380.865,48.545 380.730 C 49.345 380.637,50.000 380.683,50.000 380.832 C 50.000 380.982,54.221 381.134,59.380 381.170 L 68.760 381.236 69.212 379.518 C 70.226 375.673,72.433 373.085,76.200 371.323 L 78.600 370.200 88.200 370.200 C 103.995 370.200,104.740 370.892,105.098 385.889 C 105.230 391.386,105.442 394.103,105.762 394.368 C 106.049 394.607,114.159 394.811,126.616 394.893 C 155.589 395.085,154.727 394.598,155.099 411.000 C 155.202 415.572,155.455 419.214,155.689 419.500 C 156.012 419.894,165.363 420.000,200.000 420.000 C 234.637 420.000,243.988 419.894,244.311 419.500 C 244.545 419.214,244.798 415.572,244.901 411.000 C 245.273 394.598,244.411 395.085,273.384 394.893 C 285.841 394.811,293.951 394.607,294.238 394.368 C 294.558 394.103,294.770 391.386,294.902 385.889 C 295.253 371.198,296.110 370.319,310.333 370.076 C 323.588 369.850,324.000 370.330,324.000 386.028 L 324.000 394.287 322.354 396.157 C 319.790 399.070,319.355 399.198,311.920 399.218 C 300.230 399.249,299.531 399.952,299.209 412.000 C 298.977 420.675,298.658 421.852,295.378 426.147 L 293.963 428.000 274.942 428.000 L 255.920 428.000 254.560 429.360 L 253.200 430.720 253.196 437.260 C 253.192 443.416,253.133 443.928,252.178 445.978 C 251.215 448.047,251.207 448.117,252.023 447.379 C 253.795 445.776,254.000 444.791,254.000 437.895 L 254.000 431.350 255.137 430.261 L 256.273 429.172 275.837 429.239 L 295.400 429.306 296.853 427.900 C 299.867 424.984,300.978 420.966,301.124 412.456 L 301.250 405.111 303.206 403.156 L 305.162 401.200 311.801 401.200 C 317.123 401.200,318.694 401.072,319.720 400.553 C 321.975 399.413,323.654 397.943,324.842 396.069 L 326.000 394.243 326.002 387.422 C 326.008 371.518,326.584 370.816,339.654 370.793 C 353.015 370.770,353.246 370.837,353.964 374.962 C 354.653 378.919,354.557 418.849,353.855 420.531 C 352.678 423.348,349.832 423.980,338.268 423.992 L 330.736 424.000 328.668 425.378 C 327.527 426.138,326.037 427.622,325.343 428.688 L 324.087 430.620 323.913 438.610 C 323.627 451.816,323.157 452.400,312.806 452.400 L 306.130 452.400 302.038 449.568 C 297.616 446.508,294.880 445.095,294.218 445.527 C 293.988 445.677,290.380 445.890,286.200 446.000 C 272.046 446.372,270.517 448.351,270.897 465.795 C 271.208 480.006,270.809 479.600,284.463 479.600 C 296.212 479.600,295.200 478.869,295.200 487.351 C 295.200 492.035,295.347 493.923,295.775 494.751 C 297.745 498.562,298.799 504.782,298.797 512.600 C 298.794 525.774,297.927 526.800,286.802 526.800 L 280.379 526.800 278.589 528.589 L 276.800 530.379 276.800 536.998 L 276.800 543.618 275.200 546.800 C 273.660 549.863,273.087 552.835,273.935 553.360 C 274.119 553.474,275.469 551.382,276.935 548.711 L 279.600 543.855 279.600 537.597 C 279.600 529.158,278.982 529.690,289.000 529.525 C 300.929 529.329,300.600 529.763,300.600 514.200 C 300.600 503.537,300.585 503.341,299.417 498.800 C 298.381 494.775,298.217 493.355,298.098 487.435 C 297.896 477.359,297.325 476.800,287.243 476.800 C 274.459 476.800,272.000 474.485,272.000 462.446 C 272.000 449.970,274.723 447.122,286.889 446.871 L 293.578 446.733 297.821 449.866 C 300.154 451.590,302.927 453.673,303.984 454.496 L 305.905 455.992 315.413 456.016 C 321.067 456.029,325.079 455.881,325.310 455.650 C 325.747 455.213,325.952 449.926,325.980 438.309 L 326.000 430.417 328.209 428.209 L 330.417 426.000 339.335 426.000 C 351.748 426.000,354.450 426.632,355.794 429.848 L 356.371 431.229 365.586 431.177 C 371.149 431.146,374.800 430.974,374.800 430.743 C 374.800 430.519,375.051 430.500,375.406 430.699 C 378.105 432.210,382.274 427.908,380.652 425.285 C 380.488 425.018,380.539 424.800,380.767 424.800 C 381.048 424.800,381.181 416.838,381.181 400.000 C 381.181 383.308,381.047 375.200,380.771 375.200 C 380.522 375.200,380.493 374.962,380.699 374.594 C 382.210 371.895,377.908 367.726,375.285 369.348 C 375.015 369.514,374.800 369.448,374.800 369.198 C 374.800 368.951,374.305 368.787,373.700 368.835 C 373.095 368.882,368.865 368.893,364.300 368.860 L 356.000 368.800 356.000 362.477 L 356.000 356.154 354.440 355.466 C 351.220 354.045,350.542 349.766,351.041 334.000 C 351.573 317.219,351.496 298.827,350.888 297.389 C 349.947 295.162,349.440 295.049,339.200 294.793 C 334.030 294.663,329.485 294.412,329.100 294.236 C 328.440 293.933,328.398 291.410,328.369 249.857 C 328.337 203.250,328.335 203.155,327.355 200.489 C 326.216 197.391,324.966 197.032,314.758 196.871 L 306.117 196.734 305.358 195.267 C 304.691 193.976,304.575 192.574,304.391 183.600 C 304.184 173.432,303.896 171.382,302.666 171.304 C 302.410 171.288,301.300 171.088,300.200 170.860 C 298.981 170.608,290.004 170.435,277.219 170.416 C 251.257 170.380,254.408 171.950,254.377 159.030 C 254.351 147.953,254.149 146.855,252.000 146.123 C 249.980 145.434,150.020 145.434,148.000 146.123 M246.286 149.440 C 250.445 150.832,251.200 152.821,251.200 162.387 C 251.200 169.969,251.427 170.670,254.606 172.877 L 256.200 173.985 276.463 174.092 L 296.727 174.200 298.263 175.433 C 300.692 177.381,301.162 179.307,301.183 187.400 C 301.203 194.921,301.724 196.827,304.930 201.088 L 306.200 202.775 312.747 202.788 L 319.294 202.800 320.847 204.353 L 322.400 205.906 322.400 249.924 L 322.400 293.942 323.446 294.765 C 325.283 296.210,327.206 296.511,336.200 296.763 C 349.839 297.145,350.015 297.350,349.978 312.773 C 349.967 317.738,349.779 323.240,349.561 325.000 C 349.343 326.760,349.032 333.240,348.870 339.400 C 348.459 354.984,348.811 354.550,336.762 354.332 C 323.606 354.095,321.676 352.045,321.198 337.800 C 320.961 330.738,320.863 329.995,319.813 327.300 L 318.684 324.400 312.334 324.400 C 305.355 324.400,304.546 324.638,301.941 327.455 C 299.350 330.256,299.203 330.820,299.201 337.964 L 299.200 344.528 296.864 346.864 L 294.528 349.200 287.964 349.201 C 280.820 349.203,280.256 349.350,277.455 351.941 C 274.615 354.567,274.400 355.319,274.400 362.629 L 274.400 369.274 271.837 371.837 L 269.274 374.400 200.000 374.400 L 130.726 374.400 128.163 371.837 L 125.600 369.274 125.600 362.629 C 125.600 355.319,125.385 354.567,122.545 351.941 C 119.744 349.350,119.180 349.203,112.036 349.201 L 105.472 349.200 103.136 346.864 L 100.800 344.528 100.799 337.964 C 100.797 330.820,100.650 330.256,98.059 327.455 C 95.454 324.638,94.645 324.400,87.666 324.400 L 81.316 324.400 80.187 327.300 C 79.137 329.995,79.039 330.738,78.802 337.800 C 78.324 352.045,76.394 354.095,63.238 354.332 C 51.189 354.550,51.541 354.984,51.130 339.400 C 50.968 333.240,50.657 326.760,50.439 325.000 C 49.179 314.814,50.070 300.770,52.093 298.926 C 54.060 297.135,54.689 297.018,63.800 296.763 C 72.794 296.511,74.717 296.210,76.554 294.765 L 77.600 293.942 77.600 249.924 L 77.600 205.906 79.153 204.353 L 80.706 202.800 87.253 202.788 L 93.800 202.775 95.070 201.088 C 98.276 196.827,98.797 194.921,98.817 187.400 C 98.838 179.307,99.308 177.381,101.737 175.433 L 103.273 174.200 123.537 174.092 L 143.800 173.985 145.394 172.877 C 148.573 170.670,148.800 169.969,148.800 162.387 C 148.800 152.896,149.559 150.852,153.600 149.459 C 156.379 148.501,243.425 148.483,246.286 149.440 M68.840 410.300 L 68.800 418.800 60.700 418.872 C 56.245 418.911,52.015 418.904,51.300 418.855 C 50.585 418.806,50.000 418.917,50.000 419.102 C 50.000 419.288,49.345 419.363,48.545 419.270 C 47.390 419.135,47.159 419.213,47.422 419.650 C 47.683 420.083,47.631 420.104,47.177 419.746 C 46.201 418.978,44.894 419.795,44.434 421.460 C 44.122 422.591,44.141 423.042,44.510 423.276 C 44.883 423.513,44.885 423.589,44.519 423.594 C 44.159 423.598,44.033 426.116,44.014 433.672 C 44.001 439.211,43.934 443.799,43.867 443.867 C 43.799 443.934,39.211 444.001,33.672 444.014 C 26.116 444.033,23.598 444.159,23.594 444.519 C 23.589 444.885,23.513 444.883,23.276 444.510 C 23.042 444.141,22.591 444.122,21.460 444.434 C 19.795 444.894,18.978 446.201,19.746 447.177 C 20.104 447.631,20.083 447.683,19.650 447.422 C 19.213 447.159,19.135 447.390,19.270 448.545 C 19.363 449.345,19.301 450.000,19.132 450.000 C 18.963 450.000,18.825 461.250,18.825 475.000 C 18.825 488.750,18.963 500.000,19.132 500.000 C 19.301 500.000,19.363 500.655,19.270 501.455 C 19.135 502.610,19.213 502.841,19.650 502.578 C 20.083 502.317,20.104 502.369,19.746 502.823 C 18.978 503.799,19.795 505.106,21.460 505.566 C 22.591 505.878,23.042 505.859,23.276 505.490 C 23.514 505.117,23.589 505.115,23.594 505.481 C 23.598 505.842,26.133 505.967,33.759 505.986 L 43.918 506.010 44.320 504.857 C 45.607 501.165,45.913 501.123,73.600 500.840 C 92.464 500.647,97.619 500.484,98.456 500.054 C 100.593 498.957,100.584 499.046,100.800 476.200 L 101.000 455.000 102.149 452.800 C 102.781 451.590,103.932 449.731,104.707 448.668 L 106.115 446.736 112.958 446.871 C 120.593 447.023,122.262 447.518,125.075 450.464 C 128.016 453.545,128.000 453.408,128.000 474.955 L 128.000 494.243 126.857 496.045 C 123.814 500.843,120.803 502.000,111.354 502.000 L 104.338 502.000 103.169 503.169 L 102.000 504.338 102.000 511.807 C 102.000 523.929,100.521 523.200,125.098 523.200 C 145.988 523.200,145.390 523.131,148.472 525.909 C 151.475 528.616,151.992 530.383,151.996 537.953 L 152.000 544.505 153.747 546.253 L 155.495 548.000 187.132 548.000 L 218.769 548.000 221.079 549.881 C 222.349 550.916,223.821 552.277,224.350 552.906 C 225.643 554.442,226.312 553.820,225.671 551.679 C 225.197 550.099,222.957 547.904,219.953 546.079 L 218.506 545.200 187.353 545.194 C 168.469 545.190,155.964 545.039,155.600 544.809 C 155.115 544.503,154.955 542.957,154.766 536.715 C 154.267 520.306,154.456 520.412,125.562 520.405 C 102.176 520.399,104.798 521.389,104.806 512.569 C 104.814 504.315,104.017 505.051,113.285 504.748 C 123.706 504.408,127.078 503.393,129.162 499.966 C 129.944 498.680,130.257 495.006,129.618 494.611 C 129.337 494.437,129.200 488.035,129.200 475.012 C 129.200 446.612,129.050 446.329,113.800 446.072 C 109.620 446.001,106.041 445.788,105.846 445.598 C 105.014 444.785,102.897 446.806,101.235 450.000 C 98.810 454.659,98.800 454.763,98.799 475.573 C 98.796 501.784,102.189 498.855,72.000 498.709 C 46.621 498.587,47.600 498.704,46.204 495.609 C 45.335 493.681,45.437 449.636,46.314 448.100 C 47.551 445.935,48.175 445.816,58.978 445.678 L 69.000 445.551 69.900 444.553 C 70.778 443.580,70.801 443.323,70.830 434.078 C 70.876 420.002,69.999 420.876,84.122 420.830 L 93.643 420.800 97.976 424.562 C 100.359 426.631,102.701 428.533,103.180 428.789 C 103.813 429.128,109.481 429.244,123.890 429.215 L 143.729 429.174 144.864 430.262 L 146.000 431.350 146.000 437.895 C 146.000 444.791,146.205 445.776,147.977 447.379 C 148.793 448.117,148.785 448.047,147.822 445.978 C 146.867 443.928,146.808 443.416,146.804 437.260 L 146.800 430.720 145.440 429.360 L 144.080 428.000 125.140 427.989 L 106.200 427.978 104.600 426.776 C 103.720 426.116,101.425 424.016,99.500 422.112 L 96.000 418.648 96.000 412.306 C 96.000 406.105,95.978 405.942,95.018 404.982 L 94.036 404.000 83.318 403.968 C 68.635 403.923,69.494 403.994,69.160 402.800 C 69.006 402.250,68.862 405.625,68.840 410.300 M322.962 462.600 C 322.962 466.120,323.024 467.506,323.098 465.681 C 323.172 463.856,323.172 460.976,323.097 459.281 C 323.022 457.586,322.961 459.080,322.962 462.600 M329.762 462.600 C 329.762 466.120,329.824 467.506,329.898 465.681 C 329.972 463.856,329.972 460.976,329.897 459.281 C 329.822 457.586,329.761 459.080,329.762 462.600 M330.563 462.800 C 330.563 466.430,330.623 467.915,330.698 466.100 C 330.772 464.285,330.772 461.315,330.698 459.500 C 330.623 457.685,330.563 459.170,330.563 462.800 " stroke="none" fill="#654944" fill-rule="evenodd"></path><path id="path4" d="M144.480 119.280 C 144.216 119.544,144.011 120.129,144.025 120.580 C 144.050 121.361,144.068 121.358,144.408 120.512 C 144.747 119.670,145.270 119.433,147.600 119.066 C 148.150 118.980,147.781 118.884,146.780 118.854 C 145.779 118.825,144.744 119.016,144.480 119.280 M252.400 119.066 C 254.730 119.433,255.253 119.670,255.592 120.512 C 255.932 121.358,255.950 121.361,255.975 120.580 C 256.014 119.305,255.200 118.795,253.220 118.854 C 252.219 118.884,251.850 118.980,252.400 119.066 M143.692 134.297 L 143.600 143.593 121.700 143.700 L 99.800 143.807 121.713 143.903 C 139.152 143.980,143.665 143.896,143.820 143.491 C 143.928 143.211,143.964 138.936,143.900 133.991 L 143.784 125.000 143.692 134.297 M256.189 134.600 L 256.200 143.800 278.000 143.805 L 299.800 143.810 278.107 143.702 L 256.415 143.593 256.296 134.497 L 256.178 125.400 256.189 134.600 M94.267 144.267 C 94.120 144.413,94.011 144.998,94.025 145.567 C 94.050 146.590,94.054 146.592,94.416 145.691 C 94.617 145.190,95.190 144.617,95.691 144.416 C 96.592 144.054,96.590 144.050,95.567 144.025 C 94.998 144.011,94.413 144.120,94.267 144.267 M304.309 144.397 C 304.810 144.608,305.392 145.190,305.603 145.691 C 305.957 146.528,305.980 146.505,305.894 145.400 C 305.814 144.379,305.621 144.186,304.600 144.106 C 303.495 144.020,303.472 144.043,304.309 144.397 M93.773 159.400 C 93.773 164.680,93.830 166.785,93.899 164.077 C 93.968 161.369,93.968 157.049,93.899 154.477 C 93.829 151.905,93.772 154.120,93.773 159.400 M306.173 159.400 C 306.173 164.680,306.230 166.785,306.299 164.077 C 306.368 161.369,306.368 157.049,306.299 154.477 C 306.229 151.905,306.172 154.120,306.173 159.400 M69.429 169.429 C 69.036 169.821,68.819 170.686,68.850 171.729 L 68.900 173.400 69.176 171.707 C 69.517 169.616,69.616 169.517,71.707 169.176 L 73.400 168.900 71.729 168.850 C 70.686 168.819,69.821 169.036,69.429 169.429 M328.293 169.176 C 330.384 169.517,330.483 169.616,330.824 171.707 L 331.100 173.400 331.150 171.729 C 331.215 169.552,330.448 168.785,328.271 168.850 L 326.600 168.900 328.293 169.176 M54.723 193.899 C 57.431 193.968,61.751 193.968,64.323 193.899 C 66.895 193.829,64.680 193.772,59.400 193.773 C 54.120 193.773,52.015 193.830,54.723 193.899 M335.923 193.899 C 338.631 193.968,342.951 193.968,345.523 193.899 C 348.095 193.829,345.880 193.772,340.600 193.773 C 335.320 193.773,333.215 193.830,335.923 193.899 M44.267 194.267 C 44.120 194.413,44.011 194.998,44.025 195.567 C 44.050 196.590,44.054 196.592,44.416 195.691 C 44.617 195.190,45.190 194.617,45.691 194.416 C 46.592 194.054,46.590 194.050,45.567 194.025 C 44.998 194.011,44.413 194.120,44.267 194.267 M354.309 194.397 C 354.810 194.608,355.392 195.190,355.603 195.691 C 355.957 196.528,355.980 196.505,355.894 195.400 C 355.814 194.379,355.621 194.186,354.600 194.106 C 353.495 194.020,353.472 194.043,354.309 194.397 M43.698 246.642 L 43.600 293.484 31.804 293.690 C 23.198 293.840,19.845 294.031,19.404 294.397 C 18.489 295.156,18.489 354.844,19.404 355.603 C 19.845 355.969,23.198 356.160,31.804 356.310 L 43.600 356.516 43.684 365.758 L 43.767 375.000 44.010 365.000 C 44.191 357.569,44.419 354.435,44.898 352.800 C 46.950 345.798,46.518 297.152,44.381 294.577 C 44.150 294.299,43.963 275.768,43.900 246.961 L 43.797 199.800 43.698 246.642 M356.098 247.076 C 356.040 275.271,355.852 294.444,355.632 294.580 C 353.491 295.904,353.031 345.670,355.094 352.800 C 355.503 354.212,355.823 357.507,355.987 362.000 L 356.244 369.000 356.322 362.758 L 356.400 356.516 368.196 356.310 C 376.802 356.160,380.155 355.969,380.596 355.603 C 381.511 354.844,381.511 295.156,380.596 294.397 C 380.155 294.031,376.802 293.840,368.198 293.690 L 356.403 293.484 356.300 246.642 L 356.197 199.800 356.098 247.076 M77.400 377.325 C 75.420 378.028,72.720 379.142,71.400 379.801 L 69.000 381.000 68.892 389.800 L 68.785 398.600 81.644 398.484 C 99.463 398.323,98.796 398.739,98.799 387.764 C 98.800 380.125,98.674 379.743,95.256 377.079 C 93.011 375.330,82.619 375.473,77.400 377.325 M304.756 377.070 C 301.355 379.721,301.200 380.171,301.200 387.402 C 301.200 396.075,301.609 396.400,312.536 396.400 L 318.643 396.400 319.922 395.081 L 321.200 393.762 321.193 387.181 C 321.187 380.794,321.154 380.535,320.079 378.400 L 318.972 376.200 312.563 376.090 L 306.153 375.981 304.756 377.070 M44.012 379.851 C 43.993 380.563,45.091 381.284,45.881 381.079 C 46.457 380.930,46.426 380.884,45.720 380.846 C 45.236 380.821,44.656 380.485,44.432 380.100 C 44.208 379.715,44.019 379.603,44.012 379.851 M104.076 402.010 C 101.936 403.315,101.600 404.700,101.600 412.223 L 101.600 418.872 104.100 421.233 L 106.600 423.594 125.600 423.497 C 150.430 423.370,148.800 424.140,148.800 412.541 L 148.800 405.548 146.626 403.374 L 144.452 401.200 124.926 401.201 C 106.047 401.203,105.356 401.230,104.076 402.010 M253.374 403.374 L 251.200 405.548 251.200 412.541 C 251.200 424.131,249.612 423.400,274.786 423.400 L 293.800 423.400 295.089 421.000 C 297.291 416.899,296.910 404.624,294.496 401.900 C 293.922 401.252,292.460 401.200,274.712 401.200 L 255.548 401.200 253.374 403.374 M44.480 419.280 C 44.216 419.544,44.000 419.938,44.000 420.156 C 44.000 420.375,44.225 420.264,44.500 419.910 C 44.775 419.557,45.360 419.183,45.800 419.080 C 46.583 418.897,46.582 418.892,45.780 418.846 C 45.329 418.821,44.744 419.016,44.480 419.280 M43.692 434.293 L 43.600 443.585 34.300 443.700 L 25.000 443.815 34.313 443.908 C 41.550 443.979,43.669 443.887,43.820 443.491 C 43.928 443.211,43.964 438.936,43.900 433.991 L 43.784 425.000 43.692 434.293 M155.000 426.558 C 152.151 427.822,151.596 429.624,151.613 437.560 C 151.628 444.436,151.530 444.127,154.518 446.700 L 156.028 448.000 200.000 448.000 L 243.972 448.000 245.482 446.700 C 248.555 444.054,248.415 444.534,248.302 437.000 C 248.191 429.597,247.940 428.568,245.871 427.036 C 244.436 425.973,157.350 425.516,155.000 426.558 M329.822 429.977 L 328.695 431.153 328.905 441.077 C 329.114 451.011,329.560 454.272,330.936 455.956 C 331.514 456.663,354.966 456.394,355.688 455.672 C 355.980 455.380,356.135 451.275,356.161 443.159 L 356.200 431.081 354.128 430.374 C 351.011 429.311,345.786 428.802,337.975 428.801 L 330.950 428.800 329.822 429.977 M19.216 444.581 C 18.951 444.900,18.818 445.485,18.921 445.881 C 19.070 446.457,19.116 446.426,19.154 445.720 C 19.179 445.236,19.515 444.656,19.900 444.432 C 20.285 444.208,20.397 444.019,20.149 444.012 C 19.901 444.005,19.481 444.261,19.216 444.581 M104.900 453.976 L 103.600 456.343 103.601 475.072 C 103.603 499.142,102.989 497.600,112.587 497.600 C 119.203 497.600,119.210 497.598,122.100 494.859 L 123.600 493.438 123.600 475.040 L 123.600 456.643 122.554 455.134 C 120.254 451.814,119.643 451.599,112.527 451.605 L 106.200 451.609 104.900 453.976 M279.705 452.711 C 276.585 455.336,276.400 455.892,276.400 462.644 L 276.400 468.732 278.267 470.375 C 280.682 472.501,280.683 472.501,289.299 472.338 C 300.008 472.136,299.969 472.171,299.987 462.746 L 300.000 456.092 298.900 455.393 C 298.295 455.009,296.883 453.998,295.763 453.147 L 293.726 451.600 287.363 451.611 C 281.027 451.621,280.994 451.626,279.705 452.711 M305.297 475.320 C 302.689 476.797,301.427 487.142,302.821 495.600 C 303.021 496.810,303.361 503.920,303.578 511.400 C 303.975 525.109,304.313 528.597,305.404 530.262 C 305.885 530.997,306.000 532.826,306.000 539.753 C 306.000 549.289,305.941 549.709,304.666 549.226 C 304.190 549.045,301.640 548.946,299.000 549.004 C 296.360 549.063,291.298 549.131,287.750 549.156 L 281.300 549.200 279.295 552.556 L 277.289 555.911 277.094 563.256 C 276.711 577.636,277.964 577.000,250.000 577.000 C 222.045 577.000,223.289 577.629,222.907 563.298 L 222.712 555.995 220.720 554.204 L 218.728 552.414 185.664 552.307 C 143.918 552.172,147.893 553.535,147.677 539.283 L 147.554 531.166 145.846 529.383 L 144.137 527.600 124.888 527.600 C 96.611 527.600,97.879 528.188,97.692 515.000 C 97.560 505.699,97.596 505.866,95.461 504.615 L 93.730 503.600 75.365 503.612 C 56.855 503.625,49.852 504.023,46.400 505.259 C 45.501 505.581,41.418 505.845,35.000 505.997 L 25.000 506.233 34.242 506.316 L 43.484 506.400 43.690 518.196 C 43.840 526.802,44.031 530.155,44.397 530.596 C 44.834 531.123,48.014 531.200,69.192 531.200 L 93.485 531.200 93.689 543.226 C 93.833 551.712,94.032 555.392,94.366 555.726 C 94.717 556.078,101.116 556.235,119.163 556.336 L 143.486 556.473 143.690 568.232 C 143.840 576.810,144.031 580.155,144.397 580.596 C 144.837 581.127,149.383 581.200,181.849 581.200 L 218.800 581.200 218.800 590.600 L 218.800 600.000 250.000 600.000 L 281.200 600.000 281.200 590.600 L 281.200 581.200 293.151 581.200 C 303.778 581.200,305.163 581.127,305.651 580.539 C 306.100 579.998,306.225 575.429,306.337 555.539 L 306.473 531.200 318.208 531.200 C 328.343 531.200,330.029 531.114,330.571 530.571 C 331.203 529.939,331.576 478.042,330.965 475.766 C 330.686 474.727,307.067 474.317,305.297 475.320 M18.846 504.220 C 18.798 505.077,19.477 506.000,20.156 506.000 C 20.375 506.000,20.264 505.775,19.910 505.500 C 19.557 505.225,19.183 504.640,19.080 504.200 C 18.897 503.417,18.892 503.418,18.846 504.220 " stroke="none" fill="#040404" fill-rule="evenodd"></path><path id="path5" d="M147.700 119.217 C 147.204 119.414,146.553 119.480,146.251 119.364 C 145.950 119.249,145.591 119.446,145.454 119.802 C 145.312 120.174,145.005 120.326,144.735 120.160 C 144.417 119.963,144.347 120.085,144.519 120.534 C 144.660 120.900,144.628 121.200,144.449 121.200 C 144.270 121.200,144.084 126.195,144.037 132.300 C 143.989 138.405,143.826 143.526,143.675 143.681 C 143.523 143.835,132.824 143.989,119.899 144.023 C 105.314 144.061,96.400 144.229,96.400 144.466 C 96.400 144.676,96.265 144.775,96.100 144.687 C 95.707 144.477,94.396 145.863,94.700 146.167 C 94.828 146.295,94.756 146.400,94.539 146.400 C 94.292 146.400,94.107 150.540,94.043 157.496 C 93.987 163.598,93.910 168.621,93.871 168.656 C 93.832 168.691,89.030 168.813,83.200 168.926 C 72.325 169.137,71.800 169.173,70.838 169.773 C 70.455 170.012,70.366 169.978,70.559 169.666 C 70.739 169.376,70.627 169.292,70.252 169.436 C 69.927 169.560,69.560 169.927,69.436 170.252 C 69.292 170.627,69.376 170.739,69.666 170.559 C 69.978 170.366,70.012 170.455,69.773 170.838 C 69.173 171.800,69.137 172.325,68.926 183.200 C 68.813 189.030,68.691 193.832,68.656 193.871 C 68.621 193.910,63.598 193.987,57.496 194.043 C 51.393 194.099,46.400 194.303,46.400 194.496 C 46.400 194.689,46.265 194.775,46.100 194.687 C 45.707 194.477,44.396 195.863,44.700 196.167 C 44.828 196.295,44.734 196.400,44.490 196.400 C 43.905 196.400,43.785 293.859,44.368 294.561 C 46.591 297.240,46.948 345.756,44.802 353.496 C 44.420 354.873,44.191 356.000,44.293 356.000 C 48.370 356.000,49.488 350.725,48.959 334.000 C 48.427 317.219,48.504 298.827,49.112 297.389 C 50.053 295.162,50.560 295.049,60.800 294.793 C 65.970 294.663,70.515 294.412,70.900 294.236 C 71.560 293.933,71.602 291.410,71.631 249.857 C 71.663 203.250,71.665 203.155,72.645 200.489 C 73.784 197.391,75.034 197.032,85.242 196.871 L 93.883 196.734 94.642 195.267 C 95.309 193.976,95.425 192.574,95.609 183.600 C 95.816 173.432,96.104 171.382,97.334 171.304 C 97.590 171.288,98.700 171.088,99.800 170.860 C 101.019 170.608,109.996 170.435,122.781 170.416 C 148.743 170.380,145.592 171.950,145.623 159.030 C 145.649 147.953,145.851 146.855,148.000 146.123 C 150.020 145.434,249.980 145.434,252.000 146.123 C 254.149 146.855,254.351 147.953,254.377 159.030 C 254.408 171.950,251.257 170.380,277.219 170.416 C 290.004 170.435,298.981 170.608,300.200 170.860 C 301.300 171.088,302.410 171.288,302.666 171.304 C 303.896 171.382,304.184 173.432,304.391 183.600 C 304.575 192.574,304.691 193.976,305.358 195.267 L 306.117 196.734 314.758 196.871 C 324.966 197.032,326.216 197.391,327.355 200.489 C 328.335 203.155,328.337 203.250,328.369 249.857 C 328.398 291.410,328.440 293.933,329.100 294.236 C 329.485 294.412,334.030 294.663,339.200 294.793 C 349.440 295.049,349.947 295.162,350.888 297.389 C 351.496 298.827,351.573 317.219,351.041 334.000 C 350.512 350.725,351.630 356.000,355.707 356.000 C 355.809 356.000,355.580 354.873,355.198 353.496 C 353.052 345.756,353.409 297.240,355.632 294.561 C 356.176 293.906,356.098 196.400,355.553 196.400 C 355.333 196.400,355.225 196.265,355.313 196.100 C 355.523 195.707,354.137 194.396,353.833 194.700 C 353.705 194.828,353.600 194.756,353.600 194.539 C 353.600 194.292,349.460 194.107,342.504 194.043 C 336.402 193.987,331.379 193.910,331.344 193.871 C 331.309 193.832,331.187 189.030,331.074 183.200 C 330.863 172.325,330.827 171.800,330.227 170.838 C 329.988 170.455,330.022 170.366,330.334 170.559 C 330.624 170.739,330.708 170.627,330.564 170.252 C 330.440 169.927,330.073 169.560,329.748 169.436 C 329.373 169.292,329.261 169.376,329.441 169.666 C 329.634 169.978,329.545 170.012,329.162 169.773 C 328.200 169.173,327.675 169.137,316.800 168.926 C 310.970 168.813,306.168 168.691,306.129 168.656 C 306.090 168.621,306.013 163.598,305.957 157.496 C 305.901 151.393,305.697 146.400,305.504 146.400 C 305.311 146.400,305.225 146.265,305.313 146.100 C 305.523 145.707,304.137 144.396,303.833 144.700 C 303.705 144.828,303.600 144.742,303.600 144.509 C 303.600 144.215,296.359 144.066,280.101 144.023 C 267.176 143.989,256.477 143.835,256.325 143.681 C 256.174 143.526,256.011 138.405,255.963 132.300 C 255.916 126.195,255.730 121.200,255.551 121.200 C 255.372 121.200,255.340 120.900,255.481 120.534 C 255.653 120.085,255.583 119.963,255.265 120.160 C 255.002 120.322,254.696 120.194,254.571 119.869 C 254.449 119.549,253.955 119.250,253.474 119.203 C 250.462 118.910,148.439 118.923,147.700 119.217 M78.200 370.545 C 73.168 372.191,70.146 375.324,69.061 380.018 L 68.826 381.036 71.513 379.724 C 79.600 375.775,91.835 374.413,95.256 377.079 C 98.674 379.743,98.800 380.125,98.799 387.764 C 98.796 398.738,99.322 398.400,82.246 398.400 C 67.535 398.400,67.894 398.279,69.160 402.800 C 69.494 403.994,68.635 403.923,83.318 403.968 L 94.036 404.000 95.018 404.982 C 95.978 405.942,96.000 406.105,96.000 412.306 L 96.000 418.648 99.500 422.112 C 101.425 424.016,103.720 426.116,104.600 426.776 L 106.200 427.978 125.140 427.989 L 144.080 428.000 145.440 429.360 L 146.800 430.720 146.804 437.260 C 146.808 443.325,146.878 443.950,147.771 445.868 C 149.790 450.205,147.069 449.991,200.000 449.991 C 252.931 449.991,250.210 450.205,252.229 445.868 C 253.122 443.950,253.192 443.325,253.196 437.260 L 253.200 430.720 254.560 429.360 L 255.920 428.000 274.942 428.000 L 293.963 428.000 295.378 426.147 C 298.658 421.852,298.977 420.675,299.209 412.000 C 299.531 399.952,300.230 399.249,311.920 399.218 C 319.355 399.198,319.790 399.070,322.354 396.157 L 324.000 394.287 324.000 386.028 C 324.000 370.330,323.588 369.850,310.333 370.076 C 296.110 370.319,295.253 371.198,294.902 385.889 C 294.770 391.386,294.558 394.103,294.238 394.368 C 293.951 394.607,285.841 394.811,273.384 394.893 C 244.411 395.085,245.273 394.598,244.901 411.000 C 244.798 415.572,244.545 419.214,244.311 419.500 C 243.988 419.894,234.637 420.000,200.000 420.000 C 165.363 420.000,156.012 419.894,155.689 419.500 C 155.455 419.214,155.202 415.572,155.099 411.000 C 154.727 394.598,155.589 395.085,126.616 394.893 C 114.159 394.811,106.049 394.607,105.762 394.368 C 105.442 394.103,105.230 391.386,105.098 385.889 C 104.836 374.901,104.109 372.850,99.800 370.929 C 97.695 369.992,80.810 369.691,78.200 370.545 M320.079 378.400 C 321.154 380.535,321.187 380.794,321.193 387.181 L 321.200 393.762 319.922 395.081 L 318.643 396.400 312.536 396.400 C 301.609 396.400,301.200 396.075,301.200 387.402 C 301.200 380.171,301.355 379.721,304.756 377.070 L 306.153 375.981 312.563 376.090 L 318.972 376.200 320.079 378.400 M146.626 403.374 L 148.800 405.548 148.800 412.541 C 148.800 424.140,150.430 423.370,125.600 423.497 L 106.600 423.594 104.100 421.233 L 101.600 418.872 101.600 412.223 C 101.600 400.389,99.875 401.203,124.926 401.201 L 144.452 401.200 146.626 403.374 M294.496 401.900 C 296.910 404.624,297.291 416.899,295.089 421.000 L 293.800 423.400 274.786 423.400 C 249.612 423.400,251.200 424.131,251.200 412.541 L 251.200 405.548 253.374 403.374 L 255.548 401.200 274.712 401.200 C 292.460 401.200,293.922 401.252,294.496 401.900 M245.871 427.036 C 247.940 428.568,248.191 429.597,248.302 437.000 C 248.415 444.534,248.555 444.054,245.482 446.700 L 243.972 448.000 200.000 448.000 L 156.028 448.000 154.518 446.700 C 151.530 444.127,151.628 444.436,151.613 437.560 C 151.596 429.624,152.151 427.822,155.000 426.558 C 157.350 425.516,244.436 425.973,245.871 427.036 M328.209 428.209 L 326.000 430.417 325.980 438.309 C 325.952 449.926,325.747 455.213,325.310 455.650 C 325.079 455.881,321.067 456.029,315.413 456.016 L 305.905 455.992 303.984 454.496 C 302.927 453.673,300.154 451.590,297.821 449.866 L 293.578 446.733 286.889 446.871 C 274.723 447.122,272.000 449.970,272.000 462.446 C 272.000 474.485,274.459 476.800,287.243 476.800 C 297.325 476.800,297.896 477.359,298.098 487.435 C 298.217 493.355,298.381 494.775,299.417 498.800 C 300.585 503.341,300.600 503.537,300.600 514.200 C 300.600 529.763,300.929 529.329,289.000 529.525 C 278.980 529.690,279.600 529.157,279.600 537.608 L 279.600 543.877 276.853 548.839 C 274.613 552.884,274.170 553.971,274.453 554.726 C 274.950 556.052,274.885 568.922,274.375 570.274 C 272.692 574.726,272.295 574.800,250.000 574.800 C 224.126 574.800,225.099 575.321,225.227 561.533 C 225.306 552.931,225.504 553.485,221.079 549.881 L 218.769 548.000 187.132 548.000 L 155.495 548.000 153.747 546.253 L 152.000 544.505 151.996 537.953 C 151.992 530.383,151.475 528.616,148.472 525.909 C 145.390 523.131,145.988 523.200,125.098 523.200 C 100.521 523.200,102.000 523.929,102.000 511.807 L 102.000 504.338 103.169 503.169 L 104.338 502.000 111.354 502.000 C 120.803 502.000,123.814 500.843,126.857 496.045 L 128.000 494.243 128.000 474.955 C 128.000 453.408,128.016 453.545,125.075 450.464 C 122.262 447.518,120.593 447.023,112.958 446.871 L 106.115 446.736 104.707 448.668 C 103.932 449.731,102.781 451.590,102.149 452.800 L 101.000 455.000 100.800 476.200 C 100.584 499.046,100.593 498.957,98.456 500.054 C 97.618 500.484,92.479 500.645,73.600 500.831 C 50.052 501.063,48.596 501.149,46.118 502.452 C 45.389 502.836,44.000 504.979,44.000 505.721 C 44.000 505.832,44.855 505.658,45.900 505.335 C 50.233 503.996,56.581 503.625,75.365 503.612 L 93.730 503.600 95.461 504.615 C 97.596 505.866,97.560 505.699,97.692 515.000 C 97.879 528.188,96.611 527.600,124.888 527.600 L 144.137 527.600 145.846 529.383 L 147.554 531.166 147.677 539.283 C 147.893 553.535,143.918 552.172,185.664 552.307 L 218.728 552.414 220.720 554.204 L 222.712 555.995 222.907 563.298 C 223.289 577.629,222.045 577.000,250.000 577.000 C 277.964 577.000,276.711 577.636,277.094 563.256 L 277.289 555.911 279.295 552.556 L 281.300 549.200 287.750 549.156 C 291.298 549.131,296.360 549.063,299.000 549.004 C 301.640 548.946,304.190 549.045,304.666 549.226 C 305.941 549.709,306.000 549.289,306.000 539.753 C 306.000 532.826,305.885 530.997,305.404 530.262 C 304.313 528.597,303.975 525.109,303.578 511.400 C 303.361 503.920,303.021 496.810,302.821 495.600 C 301.420 487.101,302.694 476.696,305.302 475.347 C 307.049 474.444,330.690 474.646,330.937 475.567 C 331.031 475.915,331.128 471.691,331.154 466.180 C 331.179 460.640,331.037 455.990,330.836 455.780 C 329.591 454.479,329.110 450.819,328.905 441.077 L 328.695 431.153 329.822 429.977 L 330.950 428.800 337.975 428.801 C 345.834 428.802,351.048 429.315,354.191 430.397 L 356.301 431.123 355.851 429.909 C 354.660 426.703,351.690 426.000,339.335 426.000 L 330.417 426.000 328.209 428.209 M120.181 452.613 C 120.911 453.170,121.979 454.304,122.554 455.134 L 123.600 456.643 123.600 475.040 L 123.600 493.438 122.100 494.859 C 119.210 497.598,119.203 497.600,112.587 497.600 C 102.989 497.600,103.603 499.142,103.601 475.072 L 103.600 456.343 104.900 453.976 L 106.200 451.609 112.527 451.605 C 118.684 451.600,118.889 451.627,120.181 452.613 M295.763 453.147 C 296.883 453.998,298.295 455.009,298.900 455.393 L 300.000 456.092 299.987 462.746 C 299.969 472.171,300.008 472.136,289.299 472.338 C 280.683 472.501,280.682 472.501,278.267 470.375 L 276.400 468.732 276.400 462.644 C 276.400 453.001,277.765 451.627,287.363 451.611 L 293.726 451.600 295.763 453.147 M323.098 465.681 C 323.024 467.506,322.962 466.120,322.962 462.600 C 322.961 459.080,323.022 457.586,323.097 459.281 C 323.172 460.976,323.172 463.856,323.098 465.681 M329.898 465.681 C 329.824 467.506,329.762 466.120,329.762 462.600 C 329.761 459.080,329.822 457.586,329.897 459.281 C 329.972 460.976,329.972 463.856,329.898 465.681 M330.698 466.100 C 330.623 467.915,330.563 466.430,330.563 462.800 C 330.563 459.170,330.623 457.685,330.698 459.500 C 330.772 461.315,330.772 464.285,330.698 466.100 " stroke="none" fill="#4c3c2c" fill-rule="evenodd"></path><path id="path6" d="M55.959 303.278 C 54.132 304.765,54.000 305.436,54.008 313.189 C 54.013 317.265,54.278 323.120,54.596 326.200 C 54.915 329.280,55.182 334.627,55.188 338.081 C 55.195 341.971,55.377 344.750,55.664 345.381 L 56.128 346.400 62.444 346.400 L 68.759 346.400 69.780 345.062 C 70.773 343.761,70.800 343.557,70.800 337.494 C 70.800 331.124,71.038 329.513,73.211 321.173 C 73.829 318.803,74.000 316.827,74.000 312.077 L 74.000 306.008 71.736 304.504 L 69.473 303.000 63.036 302.878 C 58.185 302.786,56.442 302.884,55.959 303.278 M330.480 303.220 C 329.974 303.423,328.759 304.140,327.780 304.814 L 326.000 306.038 326.000 312.092 C 326.000 316.827,326.172 318.805,326.789 321.173 C 328.962 329.513,329.200 331.124,329.200 337.494 C 329.200 343.557,329.227 343.761,330.220 345.062 L 331.241 346.400 337.556 346.400 L 343.872 346.400 344.336 345.381 C 344.623 344.750,344.805 341.971,344.812 338.081 C 344.818 334.627,345.085 329.280,345.404 326.200 C 345.722 323.120,345.987 317.265,345.992 313.189 C 346.000 305.455,345.864 304.756,344.065 303.300 C 343.326 302.702,331.937 302.635,330.480 303.220 M330.652 379.900 C 330.234 380.708,330.034 383.229,329.895 389.400 C 329.573 403.815,328.637 404.734,313.910 405.098 C 308.692 405.227,305.892 405.448,305.640 405.751 C 304.818 406.742,304.591 443.506,305.401 444.401 C 306.438 445.547,318.584 445.632,319.443 444.500 C 319.837 443.981,319.978 441.973,319.987 436.720 C 320.015 421.526,321.533 420.000,336.633 420.000 C 341.834 420.000,343.981 419.852,345.013 419.420 L 346.400 418.841 346.400 399.990 L 346.400 381.138 345.231 379.969 L 344.062 378.800 337.641 378.800 L 331.221 378.800 330.652 379.900 M79.875 429.922 C 78.801 431.043,78.800 431.050,78.800 437.360 C 78.800 450.759,76.405 453.306,63.600 453.528 L 56.200 453.656 54.900 454.907 L 53.600 456.157 53.600 475.014 L 53.600 493.872 54.619 494.336 C 56.137 495.027,93.749 494.993,94.297 494.300 C 95.105 493.276,95.318 431.323,94.518 429.969 L 93.828 428.800 87.389 428.800 L 80.950 428.800 79.875 429.922 M279.881 504.717 L 278.400 506.234 278.400 512.643 L 278.400 519.052 279.814 519.726 C 282.066 520.800,293.801 520.720,294.386 519.626 C 294.976 518.523,294.922 506.194,294.320 504.528 L 293.839 503.200 287.601 503.200 L 281.362 503.200 279.881 504.717 M229.678 529.719 L 228.400 531.038 228.400 537.480 L 228.400 543.922 229.660 544.361 C 231.352 544.951,268.527 544.974,269.626 544.386 C 270.720 543.801,270.800 532.066,269.726 529.814 L 269.052 528.400 250.004 528.400 L 230.957 528.400 229.678 529.719 " stroke="none" fill="#dc9c74" fill-rule="evenodd"></path><path id="path7" d="M295.600 429.093 L 294.600 429.800 294.708 437.623 L 294.816 445.445 296.156 445.930 C 298.055 446.616,301.813 445.840,301.328 444.861 C 301.148 444.497,300.977 440.690,300.949 436.400 L 300.898 428.600 298.749 428.493 C 297.204 428.415,296.319 428.584,295.600 429.093 M100.125 429.339 C 98.677 429.738,98.505 429.898,98.856 430.520 C 99.104 430.960,99.211 434.165,99.131 438.788 L 99.000 446.337 101.000 446.496 C 102.183 446.590,103.449 446.435,104.100 446.117 L 105.200 445.579 105.200 437.580 L 105.200 429.580 104.174 429.190 C 102.932 428.718,102.300 428.741,100.125 429.339 M271.070 477.415 C 270.927 478.287,270.807 482.251,270.804 486.225 L 270.800 493.450 269.678 494.525 C 268.564 495.593,268.516 495.600,262.640 495.600 L 256.723 495.600 253.750 497.011 C 252.115 497.787,249.118 498.866,247.089 499.410 L 243.400 500.398 200.000 500.398 L 156.600 500.398 152.911 499.410 C 150.882 498.866,147.911 497.799,146.309 497.039 C 143.397 495.657,143.393 495.656,136.697 495.528 L 129.999 495.400 129.949 496.700 C 129.922 497.415,129.865 498.225,129.823 498.500 C 129.781 498.775,130.022 499.495,130.359 500.100 L 130.972 501.200 136.955 501.200 C 142.440 501.200,143.150 501.285,145.496 502.224 C 150.860 504.370,151.270 504.386,200.000 504.386 C 248.730 504.386,249.140 504.370,254.504 502.224 C 256.868 501.278,257.540 501.200,263.323 501.200 C 274.831 501.200,276.033 500.007,276.310 488.308 L 276.477 481.216 275.324 480.108 C 274.689 479.499,273.727 478.622,273.185 478.161 C 272.643 477.699,272.005 476.986,271.766 476.576 C 271.389 475.928,271.298 476.037,271.070 477.415 M226.069 547.100 C 225.231 548.737,225.275 552.859,226.131 552.795 C 226.169 552.792,227.341 552.432,228.736 551.995 C 231.116 551.249,232.401 551.201,249.736 551.217 C 266.757 551.233,269.355 551.345,272.500 552.191 C 274.288 552.672,274.015 549.311,272.087 547.100 C 271.509 546.438,271.405 546.454,270.165 547.400 L 268.853 548.400 249.927 548.396 L 231.000 548.392 228.860 547.396 C 226.313 546.210,226.514 546.232,226.069 547.100 " stroke="none" fill="#78906c" fill-rule="evenodd"></path><path id="path8" d="" stroke="none" fill="#9c9030" fill-rule="evenodd"></path></g></svg>