<!DOCTYPE svg PUBLIC "-//W3C//DTD SVG 20010904//EN" "http://www.w3.org/TR/2001/REC-SVG-20010904/DTD/svg10.dtd">
<svg version="1.0" xmlns="http://www.w3.org/2000/svg" width="48px" height="16px" viewBox="0 0 480 160" preserveAspectRatio="xMidYMid meet">
<g id="layerbg1" fill="#ab9d7b" stroke="none">
 <path d="M7 153 c-2 -5 -2 -38 1 -76 l4 -67 228 0 228 0 4 68 c3 37 3 70 1 75 -2 4 -107 7 -233 7 -126 0 -231 -3 -233 -7z m441 -83 l0 -39 -209 0 -209 0 2 39 1 39 208 -1 208 0 -1 -38z"/>
 </g>
<g id="layerbg2" fill="#ffce00" stroke="none">
 <path d="M47 102 c-20 -22 -22 -43 -5 -60 18 -18 43 -15 63 8 18 20 18 21 -5 45 -28 30 -32 30 -53 7z"/>
 </g>
<g id="layerbg3" fill="#edc739" stroke="none">
 <path d="M76 112 c-3 -5 3 -17 13 -26 11 -10 22 -13 25 -8 3 5 -3 17 -13 26 -11 10 -22 13 -25 8z"/>
 </g>
<g id="layerbg4" fill="#e6c551" stroke="none">
 <path d="M94 59 c-3 -6 -17 -9 -30 -6 -32 6 -40 -9 -14 -23 17 -9 27 -8 46 5 14 9 22 20 19 25 -8 13 -12 12 -21 -1z"/>
 </g>
<g id="layerbg5" fill="#ddc271" stroke="none">
 <path d="M29 98 c-7 -25 -3 -50 10 -61 19 -15 51 -16 50 -2 -1 6 -6 9 -11 7 -16 -4 -39 20 -34 34 3 7 1 16 -4 19 -6 4 -10 5 -11 3z"/>
 </g>
<g id="layerbg6" fill="#d3bf8f" stroke="none">
 <path d="M20 74 l0 -54 220 0 220 0 0 54 0 54 -220 0 -220 1 0 -55z m78 3 c6 -28 -16 -49 -39 -36 -19 10 -25 39 -12 53 13 13 48 1 51 -17z"/>
 </g>
<g id="layerbg7" fill="#d9cdaf" stroke="none">
 <path d="M2 73 l3 -68 235 0 235 0 3 68 3 67 -241 0 -241 0 3 -67z m468 -8 l0 -55 -230 0 -230 0 0 55 0 55 230 0 230 0 0 -55z"/>
 </g>
<g id="layer101" fill="#ab9d7b" stroke="none">
 <path d="M8 153 c-2 -5 -2 -38 0 -75 l4 -68 228 0 228 0 4 67 c2 38 2 71 0 76 -4 9 -460 9 -464 0z m349 -20 c-64 -2 -170 -2 -235 0 -64 1 -11 3 118 3 129 0 182 -2 117 -3z m101 -63 l0 -49 -219 0 -219 0 1 49 2 49 218 -1 218 0 -1 -48z"/>
 </g>
<g id="layer102" fill="#ffce00" stroke="none">
 <path d="M50 95 c-17 -20 -8 -49 16 -53 11 -2 27 4 34 13 11 13 10 19 -5 35 -22 24 -29 25 -45 5z"/>
 </g>
<g id="layer103" fill="#edc739" stroke="none">
 <path d="M80 106 c0 -2 8 -10 18 -17 15 -13 16 -12 3 4 -13 16 -21 21 -21 13z"/>
 <path d="M30 70 c0 -7 3 -10 7 -7 3 4 3 10 0 14 -4 3 -7 0 -7 -7z"/>
 </g>
<g id="layer104" fill="#e6c551" stroke="none">
 <path d="M44 98 c-4 -7 -3 -8 4 -4 12 7 16 16 8 16 -3 0 -8 -5 -12 -12z"/>
 <path d="M94 48 c-4 -7 -3 -8 4 -4 7 4 12 9 12 12 0 8 -9 4 -16 -8z"/>
 <path d="M63 33 c4 -3 10 -3 14 0 3 4 0 7 -7 7 -7 0 -10 -3 -7 -7z"/>
 </g>
<g id="layer105" fill="#ddc271" stroke="none">
 </g>
<g id="layer106" fill="#d3bf8f" stroke="none">
 <path d="M20 104 c0 -17 5 -18 30 -2 41 26 77 -26 44 -63 -17 -19 -14 -19 174 -18 l190 1 0 48 1 48 -220 0 c-184 1 -219 -1 -219 -14z"/>
 <path d="M21 53 c-1 -30 2 -33 27 -33 24 1 25 2 9 11 -10 6 -22 20 -27 32 -8 19 -9 18 -9 -10z"/>
 </g>
<g id="layer107" fill="#d9cdaf" stroke="none">
 <path d="M4 126 c-3 -7 -4 -38 -2 -67 l3 -54 235 0 235 0 0 65 0 65 -233 3 c-191 2 -233 0 -238 -12z m466 -56 l0 -60 -230 0 -230 0 0 60 0 60 230 0 230 0 0 -60z"/>
 </g>

</svg>