<?xml version="1.0" standalone="no"?>
<!DOCTYPE svg PUBLIC "-//W3C//DTD SVG 20010904//EN"
 "http://www.w3.org/TR/2001/REC-SVG-20010904/DTD/svg10.dtd">
<svg version="1.0" xmlns="http://www.w3.org/2000/svg"
 width="32.000000pt" height="48.000000pt" viewBox="0 0 32.000000 48.000000"
 preserveAspectRatio="xMidYMid meet">
<metadata>
Created by potrace 1.15, written by Peter Selinger 2001-2017
</metadata>
<g transform="translate(0.000000,48.000000) scale(0.100000,-0.100000)"
fill="#000000" stroke="none">
<path d="M100 370 c0 -5 -7 -10 -16 -10 -8 0 -22 -7 -31 -15 -40 -41 61 -63
110 -25 26 21 57 27 57 11 0 -12 -46 -41 -65 -41 -9 0 -27 -7 -40 -16 -35 -23
-75 -11 -75 21 0 14 -4 25 -10 25 -5 0 -10 -18 -10 -40 0 -22 5 -40 10 -40 6
0 10 -12 10 -26 0 -16 12 -37 32 -57 21 -19 28 -32 21 -34 -17 -6 -16 -51 1
-69 8 -8 31 -14 50 -14 20 0 36 -4 36 -10 0 -15 49 -12 66 4 16 17 19 46 4 46
-5 0 -10 17 -10 38 0 26 6 42 20 52 11 8 20 22 20 32 0 10 5 18 10 18 6 0 10
9 10 20 0 11 -4 20 -10 20 -5 0 -10 11 -10 25 0 29 -40 75 -65 75 -8 0 -15 5
-15 10 0 6 -22 10 -50 10 -27 0 -50 -4 -50 -10z"/>
</g>
</svg>
