<?xml version="1.0" standalone="no"?>
<!DOCTYPE svg PUBLIC "-//W3C//DTD SVG 20010904//EN"
 "http://www.w3.org/TR/2001/REC-SVG-20010904/DTD/svg10.dtd">
<svg version="1.0" xmlns="http://www.w3.org/2000/svg"
 width="32.000000pt" height="48.000000pt" viewBox="0 0 32.000000 48.000000"
 preserveAspectRatio="xMidYMid meet">
<metadata>
Created by potrace 1.15, written by Peter Selinger 2001-2017
</metadata>
<g transform="translate(0.000000,48.000000) scale(0.100000,-0.100000)"
fill="#000000" stroke="none">
<path d="M120 390 c0 -5 -7 -10 -15 -10 -25 0 -65 -46 -65 -75 0 -14 -4 -25
-10 -25 -5 0 -10 -9 -10 -20 0 -11 5 -20 10 -20 6 0 10 -8 10 -18 0 -10 9 -24
20 -32 14 -10 20 -26 20 -52 0 -21 5 -38 10 -38 6 0 10 -12 10 -26 0 -31 21
-54 50 -54 24 0 70 42 70 65 0 8 5 15 10 15 6 0 10 17 10 38 0 26 6 42 20 52
12 8 20 26 20 42 0 15 5 28 10 28 6 0 10 16 10 35 0 38 -36 85 -65 85 -8 0
-15 5 -15 10 0 6 -22 10 -50 10 -27 0 -50 -4 -50 -10z"/>
</g>
</svg>
