<?xml version="1.0" standalone="no"?>
<!DOCTYPE svg PUBLIC "-//W3C//DTD SVG 20010904//EN"
 "http://www.w3.org/TR/2001/REC-SVG-20010904/DTD/svg10.dtd">
<svg version="1.0" xmlns="http://www.w3.org/2000/svg"
 width="32.000000pt" height="48.000000pt" viewBox="0 0 32.000000 48.000000"
 preserveAspectRatio="xMidYMid meet">
<metadata>
Created by potrace 1.15, written by Peter Selinger 2001-2017
</metadata>
<g transform="translate(0.000000,48.000000) scale(0.100000,-0.100000)"
fill="#000000" stroke="none">
<path d="M120 370 c0 -5 -7 -10 -15 -10 -20 0 -65 -45 -65 -65 0 -8 -4 -15
-10 -15 -5 0 -10 -13 -10 -30 0 -16 5 -30 10 -30 6 0 10 9 10 20 0 11 5 20 10
20 20 0 9 -33 -20 -60 -33 -31 -37 -45 -16 -66 17 -16 46 -19 46 -4 0 6 -9 10
-20 10 -13 0 -20 7 -20 20 0 13 7 20 20 20 13 0 20 -7 20 -19 0 -11 6 -22 13
-25 10 -5 9 -7 0 -12 -15 -7 -18 -64 -3 -64 6 0 10 -7 10 -16 0 -19 24 -44 42
-44 8 0 20 9 28 20 8 11 22 20 32 20 10 0 18 5 18 10 0 6 12 10 26 10 14 0 32
6 40 14 16 17 19 66 4 66 -5 0 -10 9 -10 20 0 11 5 20 10 20 6 0 10 9 10 20 0
11 5 20 10 20 6 0 10 14 10 30 0 17 -4 30 -10 30 -5 0 -10 7 -10 15 0 20 -45
65 -65 65 -8 0 -15 5 -15 10 0 6 -18 10 -40 10 -22 0 -40 -4 -40 -10z"/>
</g>
</svg>
