<?xml version="1.0" standalone="no"?>
<!DOCTYPE svg PUBLIC "-//W3C//DTD SVG 20010904//EN"
 "http://www.w3.org/TR/2001/REC-SVG-20010904/DTD/svg10.dtd">
<svg version="1.0" xmlns="http://www.w3.org/2000/svg"
 width="32.000000pt" height="48.000000pt" viewBox="0 0 32.000000 48.000000"
 preserveAspectRatio="xMidYMid meet">
<metadata>
Created by potrace 1.15, written by Peter Selinger 2001-2017
</metadata>
<g transform="translate(0.000000,48.000000) scale(0.100000,-0.100000)"
fill="#000000" stroke="none">
<path d="M120 370 c0 -5 -7 -10 -15 -10 -29 0 -65 -47 -65 -85 0 -19 -4 -35
-10 -35 -18 0 -11 -35 10 -50 26 -18 26 -42 0 -60 -11 -8 -20 -20 -20 -28 0
-18 25 -42 44 -42 9 0 16 -4 16 -10 0 -5 9 -10 20 -10 11 0 20 -4 20 -10 0 -5
14 -10 30 -10 17 0 30 -4 30 -10 0 -15 29 -12 46 4 8 8 14 22 14 30 0 9 5 16
10 16 6 0 10 13 10 28 0 16 8 34 20 42 22 16 26 45 8 54 -10 5 -10 7 0 12 14
7 16 44 2 44 -5 0 -10 16 -10 35 0 38 -36 85 -65 85 -8 0 -15 5 -15 10 0 6
-18 10 -40 10 -22 0 -40 -4 -40 -10z"/>
</g>
</svg>
