<?xml version="1.0" standalone="no"?>
<!DOCTYPE svg PUBLIC "-//W3C//DTD SVG 20010904//EN"
 "http://www.w3.org/TR/2001/REC-SVG-20010904/DTD/svg10.dtd">
<svg version="1.0" xmlns="http://www.w3.org/2000/svg"
 width="32.000000pt" height="48.000000pt" viewBox="0 0 32.000000 48.000000"
 preserveAspectRatio="xMidYMid meet">
<metadata>
Created by potrace 1.15, written by Peter Selinger 2001-2017
</metadata>
<g transform="translate(0.000000,48.000000) scale(0.100000,-0.100000)"
fill="#000000" stroke="none">
<path d="M120 390 c0 -5 -7 -10 -15 -10 -25 0 -65 -46 -65 -75 0 -14 -4 -25
-10 -25 -5 0 -10 -9 -10 -20 0 -11 5 -20 10 -20 6 0 10 -8 10 -18 0 -10 9 -24
20 -32 15 -11 20 -26 20 -62 0 -26 5 -48 10 -48 6 0 10 -7 10 -16 0 -22 25
-44 50 -44 11 0 36 16 55 35 29 29 35 42 35 77 0 32 5 47 20 58 12 8 20 26 20
42 0 15 5 28 10 28 6 0 10 18 10 40 0 22 -4 40 -10 40 -5 0 -10 -11 -10 -25 0
-32 -40 -44 -75 -21 -13 9 -31 16 -40 16 -19 0 -65 29 -65 41 0 16 31 10 57
-11 49 -38 150 -16 110 25 -9 8 -23 15 -31 15 -9 0 -16 5 -16 10 0 6 -22 10
-50 10 -27 0 -50 -4 -50 -10z"/>
</g>
</svg>
