<?xml version="1.0" standalone="no"?>
<!DOCTYPE svg PUBLIC "-//W3C//DTD SVG 20010904//EN"
 "http://www.w3.org/TR/2001/REC-SVG-20010904/DTD/svg10.dtd">
<svg version="1.0" xmlns="http://www.w3.org/2000/svg"
 width="32.000000pt" height="48.000000pt" viewBox="0 0 32.000000 48.000000"
 preserveAspectRatio="xMidYMid meet">
<metadata>
Created by potrace 1.15, written by Peter Selinger 2001-2017
</metadata>
<g transform="translate(0.000000,48.000000) scale(0.100000,-0.100000)"
fill="#000000" stroke="none">
<path d="M120 390 c0 -5 -7 -10 -15 -10 -29 0 -65 -47 -65 -85 0 -19 -4 -35
-10 -35 -18 0 -11 -32 12 -51 l21 -19 -21 -19 c-27 -23 -28 -42 -2 -61 11 -8
20 -25 20 -38 0 -26 21 -52 42 -52 8 0 20 9 28 20 8 11 21 20 30 20 9 0 22 -9
30 -20 8 -11 20 -20 28 -20 21 0 42 26 42 52 0 13 9 30 20 38 26 19 25 38 -2
61 l-21 19 21 19 c23 19 30 51 12 51 -5 0 -10 16 -10 35 0 38 -36 85 -65 85
-8 0 -15 5 -15 10 0 6 -18 10 -40 10 -22 0 -40 -4 -40 -10z"/>
</g>
</svg>
