<?xml version="1.0" standalone="no"?>
<!DOCTYPE svg PUBLIC "-//W3C//DTD SVG 20010904//EN"
 "http://www.w3.org/TR/2001/REC-SVG-20010904/DTD/svg10.dtd">
<svg version="1.0" xmlns="http://www.w3.org/2000/svg"
 width="32.000000pt" height="48.000000pt" viewBox="0 0 32.000000 48.000000"
 preserveAspectRatio="xMidYMid meet">
<metadata>
Created by potrace 1.15, written by Peter Selinger 2001-2017
</metadata>
<g transform="translate(0.000000,48.000000) scale(0.100000,-0.100000)"
fill="#000000" stroke="none">
<path d="M100 390 c0 -5 -7 -10 -16 -10 -8 0 -22 -7 -31 -15 -40 -41 61 -63
110 -25 26 21 57 27 57 11 0 -12 -46 -41 -65 -41 -9 0 -27 -7 -40 -16 -35 -23
-75 -11 -75 21 0 14 -4 25 -10 25 -5 0 -10 -18 -10 -40 0 -22 5 -40 10 -40 6
0 10 -13 10 -28 0 -16 8 -34 20 -42 15 -11 20 -26 20 -58 0 -35 6 -48 35 -77
19 -19 44 -35 55 -35 25 0 50 22 50 44 0 9 5 16 10 16 6 0 10 22 10 48 0 36 5
51 20 62 11 8 20 22 20 32 0 10 5 18 10 18 6 0 10 9 10 20 0 11 -4 20 -10 20
-5 0 -10 11 -10 25 0 29 -40 75 -65 75 -8 0 -15 5 -15 10 0 6 -22 10 -50 10
-27 0 -50 -4 -50 -10z"/>
</g>
</svg>
