<?xml version="1.0" standalone="no"?>
<!DOCTYPE svg PUBLIC "-//W3C//DTD SVG 20010904//EN"
 "http://www.w3.org/TR/2001/REC-SVG-20010904/DTD/svg10.dtd">
<svg version="1.0" xmlns="http://www.w3.org/2000/svg"
 width="32.000000pt" height="48.000000pt" viewBox="0 0 32.000000 48.000000"
 preserveAspectRatio="xMidYMid meet">
<metadata>
Created by potrace 1.15, written by Peter Selinger 2001-2017
</metadata>
<g transform="translate(0.000000,48.000000) scale(0.100000,-0.100000)"
fill="#000000" stroke="none">
<path d="M120 370 c0 -5 -7 -10 -15 -10 -25 0 -65 -46 -65 -75 0 -14 -4 -25
-10 -25 -5 0 -10 -9 -10 -20 0 -11 5 -20 10 -20 6 0 10 -8 10 -18 0 -10 9 -24
20 -32 21 -15 28 -50 10 -50 -18 0 -10 -31 15 -55 16 -17 35 -25 60 -25 19 0
35 -4 35 -10 0 -15 49 -12 66 4 16 17 19 66 4 66 -18 0 -11 55 10 70 12 8 20
26 20 42 0 15 5 28 10 28 6 0 10 18 10 40 0 42 -14 54 -23 20 -4 -15 -14 -20
-41 -20 -51 0 -124 21 -131 38 -10 26 5 27 48 4 48 -25 99 -29 117 -7 10 11 9
18 -3 30 -9 8 -23 15 -31 15 -9 0 -16 5 -16 10 0 6 -22 10 -50 10 -27 0 -50
-4 -50 -10z"/>
</g>
</svg>
