<?xml version="1.0" standalone="no"?>
<!DOCTYPE svg PUBLIC "-//W3C//DTD SVG 20010904//EN"
 "http://www.w3.org/TR/2001/REC-SVG-20010904/DTD/svg10.dtd">
<svg version="1.0" xmlns="http://www.w3.org/2000/svg"
 width="32.000000pt" height="48.000000pt" viewBox="0 0 32.000000 48.000000"
 preserveAspectRatio="xMidYMid meet">
<metadata>
Created by potrace 1.15, written by Peter Selinger 2001-2017
</metadata>
<g transform="translate(0.000000,48.000000) scale(0.100000,-0.100000)"
fill="#000000" stroke="none">
<path d="M120 370 c0 -5 -7 -10 -15 -10 -25 0 -65 -46 -65 -75 0 -14 -4 -25
-10 -25 -5 0 -10 -9 -10 -20 0 -11 5 -20 10 -20 6 0 10 -8 10 -18 0 -10 9 -24
20 -32 14 -10 20 -26 20 -52 0 -21 -4 -38 -10 -38 -15 0 -12 -29 4 -46 17 -16
66 -19 66 -4 0 6 16 10 36 10 19 0 42 6 50 14 17 18 18 63 2 69 -8 2 -1 15 20
34 20 20 32 41 32 57 0 14 5 26 10 26 6 0 10 16 10 35 0 38 -36 85 -65 85 -8
0 -15 5 -15 10 0 6 -22 10 -50 10 -27 0 -50 -4 -50 -10z"/>
</g>
</svg>
