<?xml version="1.0" standalone="no"?>
<!DOCTYPE svg PUBLIC "-//W3C//DTD SVG 20010904//EN"
 "http://www.w3.org/TR/2001/REC-SVG-20010904/DTD/svg10.dtd">
<svg version="1.0" xmlns="http://www.w3.org/2000/svg"
 width="32.000000pt" height="48.000000pt" viewBox="0 0 32.000000 48.000000"
 preserveAspectRatio="xMidYMid meet">
<metadata>
Created by potrace 1.15, written by Peter Selinger 2001-2017
</metadata>
<g transform="translate(0.000000,48.000000) scale(0.100000,-0.100000)"
fill="#000000" stroke="none">
<path d="M120 390 c0 -5 -7 -10 -15 -10 -20 0 -65 -45 -65 -65 0 -8 -4 -15
-10 -15 -5 0 -10 -13 -10 -30 0 -16 5 -30 10 -30 6 0 10 -9 10 -19 0 -11 6
-21 13 -24 8 -3 5 -11 -11 -24 -27 -25 -28 -44 -2 -63 11 -8 20 -25 20 -38 0
-26 21 -52 42 -52 8 0 20 9 28 20 8 11 21 20 30 20 9 0 22 -9 30 -20 8 -11 20
-20 28 -20 21 0 42 26 42 52 0 13 9 30 20 38 26 19 25 38 -2 63 -16 13 -19 21
-10 24 6 3 12 13 12 24 0 10 5 19 10 19 6 0 10 14 10 30 0 17 -4 30 -10 30 -5
0 -10 7 -10 15 0 9 -11 27 -25 40 -13 14 -31 25 -40 25 -8 0 -15 5 -15 10 0 6
-18 10 -40 10 -22 0 -40 -4 -40 -10z"/>
</g>
</svg>
